<?xml version="1.0" standalone="no"?>
<!DOCTYPE svg PUBLIC "-//W3C//DTD SVG 1.1//EN" "http://www.w3.org/Graphics/SVG/1.1/DTD/svg11.dtd" >
<svg xmlns="http://www.w3.org/2000/svg" xmlns:xlink="http://www.w3.org/1999/xlink" version="1.1">
<metadata>
Created by FontForge 20190801 at Thu Feb  6 23:44:15 2020
 By Jimmy Wärting
\(c\) Bayerische Motoren Werke AG \(BMW AG\) 2019. The font is subject to copyright protection and other intellectual property rights. All rights reserved.
</metadata>
<defs>
<font id="VN_BMWTypeNextLatin-Thin" horiz-adv-x="570" >
  <font-face 
    font-family="VN_BMWTypeNext Latin"
    font-weight="100"
    font-stretch="normal"
    units-per-em="1000"
    panose-1="0 0 0 0 0 0 0 0 0 0"
    ascent="800"
    descent="-200"
    x-height="528"
    cap-height="754"
    bbox="-127 -280 1321 1120"
    underline-thickness="50"
    underline-position="-176"
    stemh="41"
    stemv="39"
    unicode-range="U+000D-FB02"
  />
<missing-glyph horiz-adv-x="600" 
d="M50 0v754h500v-754h-500zM321 377l194 -314v627zM279 377l-194 313v-627zM300 411l191 309h-382zM300 343l-191 -309h382z" />
    <glyph glyph-name=".notdef" horiz-adv-x="600" 
d="M50 0v754h500v-754h-500zM321 377l194 -314v627zM279 377l-194 313v-627zM300 411l191 309h-382zM300 343l-191 -309h382z" />
    <glyph glyph-name="uni0000" horiz-adv-x="0" 
 />
    <glyph glyph-name="uni0000" horiz-adv-x="0" 
 />
    <glyph glyph-name="uni000D" unicode="&#xd;" horiz-adv-x="254" 
 />
    <glyph glyph-name="space" unicode=" " horiz-adv-x="259" 
 />
    <glyph glyph-name="uni00A0" unicode="&#xa0;" horiz-adv-x="259" 
 />
    <glyph glyph-name="quotesingle" unicode="'" horiz-adv-x="237" 
d="M98 463c-1 30 -4 167 -4 217v74h49v-74c0 -47 -3 -187 -4 -217h-41z" />
    <glyph glyph-name="quotedbl" unicode="&#x22;" horiz-adv-x="372" 
d="M229 680v74h49v-74c0 -47 -3 -187 -4 -217h-41c-1 30 -4 167 -4 217zM98 463c-1 30 -4 167 -4 217v74h49v-74c0 -47 -3 -187 -4 -217h-41z" />
    <glyph glyph-name="degree" unicode="&#xb0;" horiz-adv-x="459" 
d="M228 443c-100 0 -163 63 -163 165s63 163 163 163c101 0 166 -61 166 -163s-65 -165 -166 -165zM106 608c0 -78 45 -125 124 -125c78 0 123 47 123 125c0 79 -45 123 -123 123c-79 0 -124 -44 -124 -123z" />
    <glyph glyph-name="uni2103" unicode="&#x2103;" horiz-adv-x="1071" 
d="M65 608c0 102 63 163 163 163c101 0 166 -61 166 -163s-65 -165 -166 -165c-100 0 -163 63 -163 165zM541 128c-22 55 -33 155 -33 247c0 107 13 220 51 287c44 78 101 109 226 109c77 0 152 -19 226 -39v-41c-73 20 -150 40 -226 40c-101 0 -157 -24 -195 -101
c-27 -55 -40 -160 -40 -256c0 -95 11 -181 30 -230c31 -81 91 -121 199 -121c77 0 153 15 232 33v-42c-79 -17 -149 -31 -226 -31c-134 0 -202 44 -244 145zM106 608c0 -78 45 -125 124 -125c78 0 123 47 123 125c0 79 -45 123 -123 123c-79 0 -124 -44 -124 -123z" />
    <glyph glyph-name="uni2109" unicode="&#x2109;" horiz-adv-x="1061" 
d="M65 608c0 102 63 163 163 163c101 0 166 -61 166 -163s-65 -165 -166 -165c-100 0 -163 63 -163 165zM539 754h488v-40h-447v-320h416v-40h-416v-354h-41v754zM230 731c-79 0 -124 -44 -124 -123c0 -78 45 -125 124 -125c78 0 123 47 123 125c0 79 -45 123 -123 123z" />
    <glyph glyph-name="parenleft" unicode="(" horiz-adv-x="306" 
d="M130 -116c-33 49 -33 108 -33 165v466c0 57 0 115 33 164c31 46 79 77 140 96v-42c-117 -49 -132 -105 -132 -225v-452c0 -119 14 -178 132 -225v-42c-61 18 -109 48 -140 95z" />
    <glyph glyph-name="parenright" unicode=")" horiz-adv-x="306" 
d="M36 733v42c61 -19 109 -50 140 -96c33 -49 33 -107 33 -164v-466c0 -57 0 -116 -33 -165c-31 -47 -79 -77 -140 -95v42c118 47 132 106 132 225v452c0 120 -15 176 -132 225z" />
    <glyph glyph-name="bracketleft" unicode="[" horiz-adv-x="301" 
d="M260 -192h-160v946h160v-40h-119v-866h119v-40z" />
    <glyph glyph-name="bracketright" unicode="]" horiz-adv-x="301" 
d="M160 714h-119v40h160v-946h-160v40h119v866z" />
    <glyph glyph-name="braceleft" unicode="{" horiz-adv-x="319" 
d="M37 299c15 6 27 11 45 19c27 12 43 27 43 68v264c0 97 48 104 133 104h21v-40h-33c-77 0 -80 -22 -80 -92v-231c0 -59 -22 -89 -74 -110c58 -23 74 -48 74 -112v-229c0 -70 3 -92 80 -92h33v-40h-21c-84 0 -133 7 -133 104v261c0 43 -10 55 -39 69c-18 9 -28 12 -49 20
v37z" />
    <glyph glyph-name="braceright" unicode="}" horiz-adv-x="319" 
d="M72 714h-33v40h21c84 0 133 -7 133 -104v-264c0 -41 16 -56 43 -68c18 -8 30 -13 45 -19v-37c-21 -8 -31 -12 -49 -20c-29 -13 -39 -26 -39 -69v-261c0 -97 -48 -104 -133 -104h-21v40h33c77 0 80 22 80 92v229c0 64 16 89 74 112c-52 21 -74 51 -74 110v231
c0 70 -3 92 -80 92z" />
    <glyph glyph-name="asterisk" unicode="*" horiz-adv-x="533" 
d="M249 528l-150 -84v43l137 75l-137 75v43l150 -84l-1 158h37l-1 -158l150 84v-43l-137 -75l137 -75v-43l-150 84l1 -158h-37z" />
    <glyph glyph-name="dagger" unicode="&#x2020;" horiz-adv-x="566" 
d="M70 528h192v228h41v-228h192v-40h-192v-584h-41v584h-192v40z" />
    <glyph glyph-name="daggerdbl" unicode="&#x2021;" horiz-adv-x="566" 
d="M70 172h192v316h-192v40h192v228h41v-228h192v-40h-192v-316h192v-40h-192v-228h-41v228h-192v40z" />
    <glyph glyph-name="period" unicode="." horiz-adv-x="239" 
d="M149 0h-59v125h59v-125z" />
    <glyph glyph-name="comma" unicode="," horiz-adv-x="239" 
d="M110 -169h-39c15 70 23 114 23 231v63h55v-100c0 -73 -17 -135 -39 -194z" />
    <glyph glyph-name="colon" unicode=":" horiz-adv-x="239" 
d="M149 403h-59v125h59v-125zM149 0h-59v125h59v-125z" />
    <glyph glyph-name="semicolon" unicode=";" horiz-adv-x="239" 
d="M110 -169h-39c15 70 23 114 23 231v63h55v-100c0 -73 -17 -135 -39 -194zM90 403v125h59v-125h-59z" />
    <glyph glyph-name="ellipsis" unicode="&#x2026;" horiz-adv-x="801" 
d="M652 0v125h59v-125h-59zM371 125h59v-125h-59v125zM90 0v125h59v-125h-59z" />
    <glyph glyph-name="periodcentered" unicode="&#xb7;" horiz-adv-x="239" 
d="M149 201h-59v125h59v-125z" />
    <glyph glyph-name="bullet" unicode="&#x2022;" horiz-adv-x="449" 
d="M102 377c0 78 38 118 123 118c84 0 122 -40 122 -117c0 -79 -38 -119 -122 -119c-85 0 -123 40 -123 118z" />
    <glyph glyph-name="slash" unicode="/" horiz-adv-x="356" 
d="M60 0h-45l281 754h45z" />
    <glyph glyph-name="backslash" unicode="\" horiz-adv-x="356" 
d="M341 0h-45l-281 754h45z" />
    <glyph glyph-name="bar" unicode="|" horiz-adv-x="250" 
d="M145 -192h-40v946h40v-946z" />
    <glyph glyph-name="brokenbar" unicode="&#xa6;" horiz-adv-x="250" 
d="M145 336h-40v418h40v-418zM145 -192h-40v418h40v-418z" />
    <glyph glyph-name="underscore" unicode="_" horiz-adv-x="500" 
d="M500 -96h-500v40h500v-40z" />
    <glyph glyph-name="hyphen" unicode="-" horiz-adv-x="398" 
d="M323 243h-248v42h248v-42z" />
    <glyph glyph-name="endash" unicode="&#x2013;" horiz-adv-x="600" 
d="M550 244h-500v40h500v-40z" />
    <glyph glyph-name="emdash" unicode="&#x2014;" horiz-adv-x="1000" 
d="M1000 244h-1000v40h1000v-40z" />
    <glyph glyph-name="zero" unicode="0" horiz-adv-x="652" 
d="M148 60c-39 61 -52 175 -52 317c0 134 6 232 47 306c31 56 95 88 181 88c87 0 148 -30 183 -94c36 -67 49 -174 49 -292c0 -126 -11 -238 -45 -304c-33 -63 -90 -98 -186 -98c-85 0 -144 24 -177 77zM189 678c-42 -53 -51 -150 -51 -300c0 -132 9 -243 46 -298
c28 -42 76 -57 142 -57s121 20 150 80c29 59 38 157 38 279c0 129 -16 232 -47 283c-27 44 -79 66 -144 66c-55 0 -106 -17 -134 -53z" />
    <glyph glyph-name="one" unicode="1" horiz-adv-x="340" 
d="M223 0h-41v717l-180 -59v43l221 73v-774z" />
    <glyph glyph-name="two" unicode="2" horiz-adv-x="540" 
d="M22 45c108 124 265 308 302 355c57 73 94 123 94 197c0 105 -60 134 -158 134c-62 0 -164 -28 -202 -39v41c39 12 136 38 202 38c123 0 200 -46 200 -174c0 -76 -35 -137 -94 -211c-110 -138 -251 -297 -295 -346h419v-40h-468v45z" />
    <glyph glyph-name="three" unicode="3" 
d="M48 46c50 -9 130 -23 186 -23c117 0 198 44 198 173c0 77 -28 126 -78 157c-26 16 -52 17 -100 17h-130v40h208l50 68c34 47 45 83 45 124c0 105 -78 129 -170 129c-72 0 -165 -24 -203 -34v41c46 12 138 33 203 33c82 0 133 -14 171 -54c28 -30 41 -75 41 -116
c0 -43 -14 -88 -47 -137c-19 -28 -40 -56 -53 -73c75 -42 105 -108 105 -193c0 -60 -18 -118 -57 -157c-44 -44 -101 -58 -184 -58c-64 0 -141 14 -185 22v41z" />
    <glyph glyph-name="four" unicode="4" horiz-adv-x="601" 
d="M53 175v39l355 539h50l-354 -538h358v199h41v-414h-41v175h-409z" />
    <glyph glyph-name="five" unicode="5" horiz-adv-x="575" 
d="M93 3v41c56 -11 113 -21 175 -21c131 0 192 67 192 196c0 173 -124 177 -264 177h-92v358h374v-40h-333v-278h86c151 0 271 -38 271 -216c0 -65 -17 -128 -53 -169c-48 -54 -107 -68 -184 -68c-66 0 -124 11 -172 20z" />
    <glyph glyph-name="six" unicode="6" horiz-adv-x="616" 
d="M315 -17c-188 0 -221 127 -221 287c0 103 3 273 106 369c79 73 193 108 295 127v-41c-179 -35 -322 -97 -349 -293c22 1 83 3 139 3c153 0 256 -44 256 -212c0 -150 -67 -240 -226 -240zM141 392c-3 -29 -5 -65 -5 -122c0 -134 16 -247 179 -247c135 0 184 73 184 200
c0 145 -85 172 -215 172c-53 0 -113 -2 -143 -3z" />
    <glyph glyph-name="seven" unicode="7" horiz-adv-x="505" 
d="M118 0h-47l357 714h-409v40h455v-42z" />
    <glyph glyph-name="eight" unicode="8" horiz-adv-x="684" 
d="M342 -17c-147 0 -247 45 -247 207c0 95 54 153 125 206c-76 32 -98 103 -98 181c0 140 96 194 224 194s216 -61 216 -194c0 -86 -46 -142 -103 -199c87 -33 130 -90 130 -186c0 -152 -108 -209 -247 -209zM265 382c-69 -48 -128 -102 -128 -192c0 -137 81 -167 205 -167
c114 0 205 39 205 168c0 56 -17 108 -72 135c-47 23 -121 38 -210 56zM346 731c-105 0 -182 -40 -182 -154c0 -72 15 -109 53 -133c32 -20 125 -39 198 -54c54 54 105 105 105 187c0 110 -70 154 -174 154z" />
    <glyph glyph-name="nine" unicode="9" horiz-adv-x="616" 
d="M299 314c-160 0 -223 55 -223 212c0 149 52 245 218 245c87 0 146 -34 179 -90c39 -66 49 -177 49 -308c0 -185 -28 -390 -266 -390c-58 0 -112 10 -157 19v41c47 -10 103 -20 159 -20c179 0 222 150 222 306c-47 -7 -125 -15 -181 -15zM293 731
c-140 0 -175 -80 -175 -205c0 -128 40 -172 174 -172c61 0 140 9 188 15c0 106 -3 218 -39 285c-29 54 -81 77 -148 77z" />
    <glyph glyph-name="zero.tf" horiz-adv-x="650" 
d="M156 60c-39 61 -52 175 -52 317c0 134 6 232 47 306c31 56 90 88 172 88s139 -30 174 -94c36 -67 49 -174 49 -292c0 -126 -11 -238 -45 -304c-33 -63 -83 -98 -177 -98c-84 0 -135 24 -168 77zM197 678c-42 -53 -51 -150 -51 -300c0 -132 9 -243 46 -298
c28 -42 68 -57 133 -57s112 20 141 80c29 59 38 157 38 279c0 129 -16 232 -47 283c-27 44 -71 66 -135 66c-54 0 -97 -17 -125 -53z" />
    <glyph glyph-name="one.tf" horiz-adv-x="650" 
d="M347 717l-225 -73v43l266 87v-734h137v-40h-345v40h167v677z" />
    <glyph glyph-name="two.tf" horiz-adv-x="650" 
d="M80 45c108 124 265 308 302 355c57 73 94 123 94 197c0 105 -60 134 -158 134c-62 0 -164 -28 -202 -39v41c39 12 136 38 202 38c123 0 200 -46 200 -174c0 -76 -35 -137 -94 -211c-110 -138 -251 -297 -295 -346h419v-40h-468v45z" />
    <glyph glyph-name="three.tf" horiz-adv-x="650" 
d="M101 46c50 -9 130 -23 186 -23c117 0 198 44 198 173c0 77 -28 126 -78 157c-26 16 -52 17 -100 17h-130v40h208l50 68c34 47 45 83 45 124c0 105 -78 129 -170 129c-71 0 -164 -24 -203 -34v41c46 12 138 33 203 33c82 0 133 -14 171 -54c28 -30 41 -75 41 -116
c0 -43 -14 -88 -47 -137c-19 -28 -40 -56 -53 -73c75 -42 105 -108 105 -193c0 -60 -18 -118 -57 -157c-44 -44 -101 -58 -184 -58c-64 0 -141 14 -185 22v41z" />
    <glyph glyph-name="four.tf" horiz-adv-x="650" 
d="M57 175v39l355 539h50l-354 -538h358v199h41v-414h-41v175h-409z" />
    <glyph glyph-name="five.tf" horiz-adv-x="650" 
d="M110 3v41c56 -11 117 -21 180 -21c133 0 198 62 198 196c0 173 -125 177 -265 177h-102v358h385v-40h-344v-278h91c90 0 146 -11 184 -32c69 -38 93 -111 93 -184c0 -65 -17 -128 -53 -169c-48 -54 -106 -68 -190 -68c-68 0 -129 11 -177 20z" />
    <glyph glyph-name="six.tf" horiz-adv-x="650" 
d="M329 -17c-184 0 -215 132 -215 287c0 103 2 272 105 369c78 73 186 108 285 127v-41c-176 -36 -312 -101 -338 -293c22 1 79 3 135 3c151 0 249 -48 249 -212c0 -146 -65 -240 -221 -240zM161 392c-3 -29 -5 -65 -5 -122c0 -129 15 -247 173 -247c132 0 179 77 179 200
c0 141 -80 172 -208 172c-53 0 -111 -2 -139 -3z" />
    <glyph glyph-name="seven.tf" horiz-adv-x="650" 
d="M190 0h-48l375 714h-454v40h500v-42z" />
    <glyph glyph-name="eight.tf" horiz-adv-x="650" 
d="M325 -17c-144 0 -237 52 -237 207c0 95 54 153 125 206c-76 32 -98 103 -98 181c0 133 89 194 214 194c123 0 206 -68 206 -194c0 -87 -46 -142 -104 -200c88 -30 131 -90 131 -185c0 -145 -101 -209 -237 -209zM258 380c-70 -48 -128 -98 -128 -190c0 -55 9 -96 44 -125
c37 -30 81 -42 151 -42c111 0 195 46 195 168c0 56 -16 109 -73 136c-48 23 -109 36 -189 53zM329 731c-102 0 -172 -47 -172 -154c0 -72 17 -115 55 -137c40 -23 125 -40 176 -50c54 54 105 105 105 187c0 103 -64 154 -164 154z" />
    <glyph glyph-name="nine.tf" horiz-adv-x="650" 
d="M318 314c-158 0 -218 58 -218 212c0 145 50 245 213 245c222 0 223 -232 223 -398c0 -180 -28 -390 -261 -390c-58 0 -112 10 -157 19v41c47 -10 103 -20 159 -20c175 0 217 156 217 306c-47 -7 -120 -15 -176 -15zM312 731c-137 0 -170 -84 -170 -205
c0 -124 37 -172 169 -172c61 0 135 9 183 15c0 106 -3 218 -39 285c-29 54 -76 77 -143 77z" />
    <glyph glyph-name="percent" unicode="%" horiz-adv-x="1008" 
d="M226 324c-139 0 -146 101 -146 216c0 114 0 225 146 225c140 0 147 -115 147 -225c0 -107 -14 -216 -147 -216zM781 -11c-139 0 -146 101 -146 216c0 114 0 225 146 225c140 0 147 -115 147 -225c0 -107 -14 -216 -147 -216zM144 695c-24 -30 -24 -73 -24 -155
c0 -65 3 -114 22 -144c16 -26 41 -33 84 -33c106 0 107 96 107 177c0 73 -3 117 -23 148c-17 27 -45 38 -86 38c-33 0 -63 -10 -80 -31zM699 360c-24 -30 -24 -73 -24 -155c0 -65 3 -114 22 -144c16 -26 41 -33 84 -33c106 0 107 96 107 177c0 73 -3 117 -23 148
c-17 27 -45 38 -86 38c-33 0 -63 -10 -80 -31zM355 0h-44l356 754h44z" />
    <glyph glyph-name="perthousand" unicode="&#x2030;" horiz-adv-x="1401" 
d="M635 205c0 114 0 225 146 225c140 0 147 -115 147 -225c0 -107 -14 -216 -147 -216c-139 0 -146 101 -146 216zM1174 -11c-139 0 -146 101 -146 216c0 114 0 225 146 225c140 0 147 -115 147 -225c0 -107 -14 -216 -147 -216zM226 324c-139 0 -146 101 -146 216
c0 114 0 225 146 225c140 0 147 -115 147 -225c0 -107 -14 -216 -147 -216zM675 205c0 -65 3 -114 22 -144c16 -26 41 -33 84 -33c106 0 107 96 107 177c0 73 -3 117 -23 148c-17 27 -45 38 -86 38c-33 0 -63 -10 -80 -31c-24 -30 -24 -73 -24 -155zM144 695
c-24 -30 -24 -73 -24 -155c0 -65 3 -114 22 -144c16 -26 41 -33 84 -33c106 0 107 96 107 177c0 73 -3 117 -23 148c-17 27 -45 38 -86 38c-33 0 -63 -10 -80 -31zM1092 360c-24 -30 -24 -73 -24 -155c0 -65 3 -114 22 -144c16 -26 41 -33 84 -33c106 0 107 96 107 177
c0 73 -3 117 -23 148c-17 27 -45 38 -86 38c-33 0 -63 -10 -80 -31zM355 0h-44l356 754h44z" />
    <glyph glyph-name="onequarter" unicode="&#xbc;" horiz-adv-x="795" 
d="M438 140l207 279h51l-208 -281h185v97h40v-235h-40v98h-235v42zM143 0l356 754h44l-356 -754h-44zM29 675v42l157 50v-432h-40v377z" />
    <glyph glyph-name="onehalf" unicode="&#xbd;" horiz-adv-x="786" 
d="M447 0v47c53 52 147 145 193 196c31 34 37 57 37 81c0 47 -30 67 -75 67c-55 0 -118 -16 -141 -22v40c24 6 85 21 137 21c71 0 119 -32 119 -107c0 -42 -13 -71 -50 -111c-64 -70 -139 -141 -173 -172h245v-40h-292zM187 0h-44l356 754h44zM29 717l157 50v-432h-40v377
l-117 -37v42z" />
    <glyph glyph-name="threequarters" unicode="&#xbe;" horiz-adv-x="934" 
d="M57 339v40c33 -6 88 -16 127 -16c56 0 107 18 107 83s-46 80 -101 80h-92v39h143l18 24c16 22 28 42 28 69c0 55 -44 68 -92 68c-51 0 -111 -15 -135 -21v40c26 6 87 20 135 20c69 0 133 -28 133 -106c0 -26 -10 -48 -25 -70c-9 -13 -23 -32 -29 -40
c39 -24 58 -52 58 -100c0 -90 -66 -125 -148 -125c-42 0 -99 10 -127 15zM578 140l207 279h51l-208 -281h185v97h40v-235h-40v98h-235v42zM283 0l356 754h44l-356 -754h-44z" />
    <glyph glyph-name="onethird" unicode="&#x2153;" horiz-adv-x="817" 
d="M464 4v40c33 -6 88 -16 127 -16c56 0 107 18 107 83s-46 80 -101 80h-92v39h143l18 24c16 22 28 42 28 69c0 55 -44 68 -92 68c-51 0 -111 -15 -135 -21v40c26 6 87 20 135 20c69 0 133 -28 133 -106c0 -26 -10 -48 -25 -70c-9 -13 -23 -32 -29 -40
c39 -24 58 -52 58 -100c0 -90 -66 -125 -148 -125c-42 0 -99 10 -127 15zM187 0h-44l356 754h44zM146 712l-117 -37v42l157 50v-432h-40v377z" />
    <glyph glyph-name="twothirds" unicode="&#x2154;" horiz-adv-x="926" 
d="M700 -11c-42 0 -99 10 -127 15v40c33 -6 88 -16 127 -16c56 0 107 18 107 83s-46 80 -101 80h-92v39h143l18 24c16 22 28 42 28 69c0 55 -44 68 -92 68c-51 0 -111 -15 -135 -21v40c26 6 87 20 135 20c69 0 133 -28 133 -106c0 -26 -10 -48 -25 -70
c-9 -13 -23 -32 -29 -40c39 -24 58 -52 58 -100c0 -90 -66 -125 -148 -125zM40 335v47c53 52 147 145 193 196c31 34 37 57 37 81c0 47 -30 67 -75 67c-55 0 -118 -16 -141 -22v40c24 6 85 21 137 21c71 0 119 -32 119 -107c0 -42 -13 -71 -50 -111
c-64 -70 -139 -141 -173 -172h245v-40h-292zM296 0h-44l356 754h44z" />
    <glyph glyph-name="oneeighth" unicode="&#x215b;" horiz-adv-x="880" 
d="M486 107c0 51 31 80 70 106c-44 22 -53 59 -53 106c0 84 69 111 142 111s139 -28 139 -111c0 -26 -7 -49 -24 -71c-10 -13 -24 -27 -36 -39c47 -16 77 -50 77 -102c0 -89 -80 -118 -157 -118c-82 0 -158 22 -158 118zM143 0l356 754h44l-356 -754h-44zM526 107
c0 -70 60 -79 118 -79c52 0 117 14 117 79c0 32 -13 51 -53 66c-30 11 -74 19 -114 26c-12 -9 -29 -23 -45 -39c-18 -18 -23 -35 -23 -53zM645 391c-49 0 -102 -12 -102 -72c0 -41 8 -60 34 -72c24 -11 62 -18 106 -26c26 23 61 62 61 98c0 58 -49 72 -99 72zM29 717l157 50
v-432h-40v377l-117 -37v42z" />
    <glyph glyph-name="threeeighths" unicode="&#x215c;" horiz-adv-x="1019" 
d="M784 -11c-83 0 -158 22 -158 118c0 51 31 80 70 106c-44 22 -53 59 -53 106c0 84 69 111 142 111s139 -28 139 -111c0 -26 -7 -49 -24 -71c-10 -13 -24 -27 -36 -39c47 -16 77 -50 77 -102c0 -89 -80 -118 -157 -118zM57 379c33 -6 88 -16 127 -16c56 0 107 18 107 83
s-46 80 -101 80h-92v39h143l18 24c16 22 28 42 28 69c0 55 -44 68 -92 68c-51 0 -111 -15 -135 -21v40c26 6 87 20 135 20c69 0 133 -28 133 -106c0 -26 -10 -48 -25 -70c-9 -13 -23 -32 -29 -40c39 -24 58 -52 58 -100c0 -90 -66 -125 -148 -125c-42 0 -99 10 -127 15v40z
M327 0h-44l356 754h44zM689 160c-18 -18 -23 -35 -23 -53c0 -70 60 -79 118 -79c52 0 117 14 117 79c0 32 -13 51 -53 66c-30 11 -74 19 -114 26c-12 -9 -29 -23 -45 -39zM785 391c-49 0 -102 -13 -102 -72c0 -41 8 -60 34 -72c24 -11 62 -18 106 -26c26 23 61 62 61 98
c0 58 -49 72 -99 72z" />
    <glyph glyph-name="fiveeighths" unicode="&#x215d;" horiz-adv-x="1015" 
d="M780 -11c-83 0 -158 22 -158 118c0 51 31 80 70 106c-44 22 -53 59 -53 106c0 84 69 111 142 111s139 -28 139 -111c0 -26 -7 -49 -24 -71c-10 -13 -24 -27 -36 -39c47 -16 77 -50 77 -102c0 -89 -80 -118 -157 -118zM191 324c-45 0 -87 7 -116 12v40
c34 -6 75 -13 116 -13c71 0 109 19 109 93c0 24 -8 45 -25 57c-23 16 -58 22 -134 22h-59v219h240v-40h-200v-140h48c81 0 170 -18 170 -118c0 -98 -56 -132 -149 -132zM279 0l356 754h44l-356 -754h-44zM662 107c0 -70 60 -79 118 -79c52 0 117 14 117 79
c0 32 -13 51 -53 66c-30 11 -74 19 -114 26c-12 -9 -29 -23 -45 -39c-18 -18 -23 -35 -23 -53zM781 391c-49 0 -102 -13 -102 -72c0 -41 8 -60 34 -72c24 -11 62 -18 106 -26c26 23 61 62 61 98c0 58 -49 72 -99 72z" />
    <glyph glyph-name="seveneighths" unicode="&#x215e;" horiz-adv-x="945" 
d="M552 107c0 51 31 80 70 106c-44 22 -53 59 -53 106c0 84 69 111 142 111s139 -28 139 -111c0 -26 -7 -49 -24 -71c-10 -13 -24 -27 -36 -39c47 -16 77 -50 77 -102c0 -89 -80 -118 -157 -118c-82 0 -158 22 -158 118zM253 0h-44l356 754h44zM592 107
c0 -70 60 -79 118 -79c52 0 117 14 117 79c0 32 -13 51 -53 66c-30 11 -74 19 -114 26c-12 -9 -29 -23 -45 -39c-18 -18 -23 -35 -23 -53zM10 754h302v-43l-205 -376h-47l207 379h-257v40zM609 319c0 -41 8 -60 34 -72c24 -11 62 -18 106 -26c26 23 61 62 61 98
c0 58 -49 72 -99 72c-49 0 -102 -12 -102 -72z" />
    <glyph glyph-name="uni215F" unicode="&#x215f;" horiz-adv-x="407" 
d="M187 0h-44l356 754h44zM186 335h-40v377l-117 -37v42l157 50v-432z" />
    <glyph glyph-name="fraction" unicode="&#x2044;" horiz-adv-x="137" 
d="M-83 0h-44l356 754h44z" />
    <glyph glyph-name="uni2070" unicode="&#x2070;" horiz-adv-x="429" 
d="M214 439c-139 0 -146 101 -146 216c0 114 0 225 146 225c140 0 147 -115 147 -225c0 -107 -14 -216 -147 -216zM108 655c0 -65 3 -114 22 -144c16 -26 41 -33 84 -33c106 0 107 96 107 177c0 73 -3 117 -23 148c-17 27 -45 38 -86 38c-33 0 -63 -10 -80 -31
c-24 -30 -24 -73 -24 -155z" />
    <glyph glyph-name="onesuperior" unicode="&#xb9;" horiz-adv-x="270" 
d="M186 450h-40v377l-117 -37v42l157 50v-432z" />
    <glyph glyph-name="twosuperior" unicode="&#xb2;" horiz-adv-x="379" 
d="M40 497c53 52 147 145 193 196c31 34 37 57 37 81c0 47 -30 67 -75 67c-55 0 -118 -16 -141 -22v40c24 6 85 21 137 21c71 0 119 -32 119 -107c0 -42 -13 -71 -50 -111c-64 -70 -139 -141 -173 -172h245v-40h-292v47z" />
    <glyph glyph-name="threesuperior" unicode="&#xb3;" horiz-adv-x="410" 
d="M57 494c33 -6 88 -16 127 -16c56 0 107 18 107 83s-46 80 -101 80h-92v39h143l18 24c16 22 28 42 28 69c0 55 -44 68 -92 68c-51 0 -111 -15 -135 -21v40c26 6 87 20 135 20c69 0 133 -28 133 -106c0 -26 -10 -48 -25 -70c-9 -13 -23 -32 -29 -40c39 -24 58 -52 58 -100
c0 -90 -66 -125 -148 -125c-42 0 -99 10 -127 15v40z" />
    <glyph glyph-name="uni2074" unicode="&#x2074;" horiz-adv-x="388" 
d="M31 548v42l207 279h51l-208 -281h185v97h40v-235h-40v98h-235z" />
    <glyph glyph-name="uni2075" unicode="&#x2075;" horiz-adv-x="406" 
d="M75 451v40c34 -6 75 -13 116 -13c71 0 109 19 109 93c0 24 -8 45 -25 57c-23 16 -58 22 -134 22h-59v219h240v-40h-200v-140h48c81 0 170 -18 170 -118c0 -98 -56 -132 -149 -132c-45 0 -87 7 -116 12z" />
    <glyph glyph-name="uni2076" unicode="&#x2076;" horiz-adv-x="422" 
d="M213 439c-95 0 -145 58 -145 150c0 100 10 168 73 218c49 39 110 58 188 74v-41c-86 -16 -196 -51 -213 -149c20 1 60 3 108 3c83 0 135 -36 135 -123c0 -86 -63 -132 -146 -132zM108 592c0 -71 31 -114 105 -114c59 0 106 30 106 93c0 64 -33 84 -95 84
c-49 0 -80 -1 -114 -3c-2 -17 -2 -38 -2 -60z" />
    <glyph glyph-name="uni2077" unicode="&#x2077;" horiz-adv-x="336" 
d="M107 450h-47l207 379h-257v40h302v-43z" />
    <glyph glyph-name="uni2078" unicode="&#x2078;" horiz-adv-x="473" 
d="M79 557c0 51 31 80 70 106c-44 22 -53 59 -53 106c0 84 69 111 142 111s139 -28 139 -111c0 -26 -7 -49 -24 -71c-10 -13 -24 -27 -36 -39c47 -16 77 -50 77 -102c0 -89 -80 -118 -157 -118c-82 0 -158 22 -158 118zM142 610c-18 -18 -23 -35 -23 -53
c0 -70 60 -79 118 -79c52 0 117 14 117 79c0 32 -13 51 -53 66c-30 11 -74 19 -114 26c-12 -9 -29 -23 -45 -39zM136 769c0 -41 8 -60 34 -72c24 -11 62 -18 106 -26c26 23 61 62 61 98c0 58 -49 72 -99 72c-49 0 -102 -12 -102 -72z" />
    <glyph glyph-name="uni2079" unicode="&#x2079;" horiz-adv-x="422" 
d="M197 611c-93 0 -134 34 -134 128c0 90 47 141 140 141c134 0 151 -106 151 -216c0 -41 0 -76 -7 -106c-18 -79 -72 -119 -153 -119c-48 0 -79 6 -115 13v40c33 -7 71 -14 119 -14c86 0 116 65 116 143c-29 -4 -81 -10 -117 -10zM103 738c0 -64 21 -88 88 -88
c43 0 85 4 123 11c0 86 -3 180 -111 180c-70 0 -100 -36 -100 -103z" />
    <glyph glyph-name="uni207D" unicode="&#x207d;" horiz-adv-x="260" 
d="M115 417c-33 50 -34 109 -34 164v157c0 55 1 114 34 164c26 39 62 68 118 83v-41c-102 -41 -112 -113 -112 -215v-139c0 -102 10 -174 112 -215v-41c-56 15 -92 44 -118 83z" />
    <glyph glyph-name="uni207E" unicode="&#x207e;" horiz-adv-x="260" 
d="M27 944v41c56 -15 92 -44 118 -83c33 -50 34 -109 34 -164v-157c0 -55 -1 -114 -34 -164c-26 -39 -62 -68 -118 -83v41c102 41 112 113 112 215v139c0 102 -10 174 -112 215z" />
    <glyph glyph-name="uni2071" unicode="&#x2071;" horiz-adv-x="213" 
d="M127 450h-41v313h41v-313zM129 835h-45v104h45v-104z" />
    <glyph glyph-name="uni207F" unicode="&#x207f;" horiz-adv-x="438" 
d="M84 450v313h41v-28c39 17 87 36 127 36c79 0 103 -44 103 -116v-205h-41v193c0 47 -4 88 -62 88c-47 0 -98 -24 -127 -38v-243h-41z" />
    <glyph glyph-name="uni2080" unicode="&#x2080;" horiz-adv-x="429" 
d="M214 -141c-139 0 -146 101 -146 216c0 114 0 225 146 225c140 0 147 -115 147 -225c0 -107 -14 -216 -147 -216zM108 75c0 -65 3 -114 22 -144c16 -26 41 -33 84 -33c106 0 107 96 107 177c0 73 -3 117 -23 148c-17 27 -45 38 -86 38c-33 0 -63 -10 -80 -31
c-24 -30 -24 -73 -24 -155z" />
    <glyph glyph-name="uni2081" unicode="&#x2081;" horiz-adv-x="270" 
d="M186 -130h-40v377l-117 -37v42l157 50v-432z" />
    <glyph glyph-name="uni2082" unicode="&#x2082;" horiz-adv-x="379" 
d="M40 -83c53 52 147 145 193 196c31 34 37 57 37 81c0 47 -30 67 -75 67c-55 0 -118 -16 -141 -22v40c24 6 85 21 137 21c71 0 119 -32 119 -107c0 -42 -13 -71 -50 -111c-64 -70 -139 -141 -173 -172h245v-40h-292v47z" />
    <glyph glyph-name="uni2083" unicode="&#x2083;" horiz-adv-x="410" 
d="M57 -86c33 -6 88 -16 127 -16c56 0 107 18 107 83s-46 80 -101 80h-92v39h143l18 24c16 22 28 42 28 69c0 55 -44 68 -92 68c-51 0 -111 -15 -135 -21v40c26 6 87 20 135 20c69 0 133 -28 133 -106c0 -26 -10 -48 -25 -70c-9 -13 -23 -32 -29 -40c39 -24 58 -52 58 -100
c0 -90 -66 -125 -148 -125c-42 0 -99 10 -127 15v40z" />
    <glyph glyph-name="uni2084" unicode="&#x2084;" horiz-adv-x="388" 
d="M31 -33v42l207 279h51l-208 -281h185v97h40v-235h-40v98h-235z" />
    <glyph glyph-name="uni2085" unicode="&#x2085;" horiz-adv-x="406" 
d="M75 -129v40c34 -6 75 -13 116 -13c71 0 109 19 109 93c0 24 -8 45 -25 57c-23 16 -58 22 -134 22h-59v219h240v-40h-200v-140h48c81 0 170 -18 170 -118c0 -98 -56 -132 -149 -132c-45 0 -87 7 -116 12z" />
    <glyph glyph-name="uni2086" unicode="&#x2086;" horiz-adv-x="422" 
d="M213 -141c-95 0 -145 58 -145 150c0 100 10 168 73 218c49 39 110 58 188 74v-41c-86 -16 -196 -51 -213 -149c20 1 60 3 108 3c83 0 135 -36 135 -123c0 -86 -63 -132 -146 -132zM108 12c0 -71 31 -114 105 -114c59 0 106 30 106 93c0 64 -33 84 -95 84
c-49 0 -80 -1 -114 -3c-2 -17 -2 -38 -2 -60z" />
    <glyph glyph-name="uni2087" unicode="&#x2087;" horiz-adv-x="336" 
d="M107 -130h-47l207 379h-257v40h302v-43z" />
    <glyph glyph-name="uni2088" unicode="&#x2088;" horiz-adv-x="473" 
d="M79 -23c0 51 31 80 70 106c-44 22 -53 59 -53 106c0 84 69 111 142 111s139 -28 139 -111c0 -26 -7 -49 -24 -71c-10 -13 -24 -27 -36 -39c47 -16 77 -50 77 -102c0 -89 -80 -118 -157 -118c-82 0 -158 22 -158 118zM142 30c-18 -18 -23 -35 -23 -53
c0 -70 60 -79 118 -79c52 0 117 14 117 79c0 32 -13 51 -53 66c-30 11 -74 19 -114 26c-12 -9 -29 -23 -45 -39zM136 189c0 -41 8 -60 34 -72c24 -11 62 -18 106 -26c26 23 61 62 61 98c0 58 -49 72 -99 72c-49 0 -102 -12 -102 -72z" />
    <glyph glyph-name="uni2089" unicode="&#x2089;" horiz-adv-x="422" 
d="M197 31c-93 0 -134 34 -134 128c0 90 47 141 140 141c134 0 151 -106 151 -216c0 -41 0 -76 -7 -106c-18 -79 -72 -119 -153 -119c-48 0 -79 6 -115 13v40c33 -7 71 -14 119 -14c86 0 116 65 116 143c-29 -4 -81 -10 -117 -10zM103 158c0 -64 21 -88 88 -88
c43 0 85 4 123 11c0 86 -3 180 -111 180c-70 0 -100 -36 -100 -103z" />
    <glyph glyph-name="uni208D" unicode="&#x208d;" horiz-adv-x="260" 
d="M115 -163c-33 50 -34 109 -34 164v157c0 55 1 114 34 164c26 39 62 68 118 83v-41c-102 -41 -112 -113 -112 -215v-139c0 -102 10 -174 112 -215v-41c-56 15 -92 44 -118 83z" />
    <glyph glyph-name="uni208E" unicode="&#x208e;" horiz-adv-x="260" 
d="M27 364v41c56 -15 92 -44 118 -83c33 -50 34 -109 34 -164v-157c0 -55 -1 -114 -34 -164c-26 -39 -62 -68 -118 -83v41c102 41 112 113 112 215v139c0 102 -10 174 -112 215z" />
    <glyph glyph-name="uni2093" unicode="&#x2093;" horiz-adv-x="357" 
d="M80 -130h-48l122 161l-118 152h50l91 -119l91 119h48l-115 -149l125 -164h-49l-99 129z" />
    <glyph glyph-name="zero.numr" horiz-adv-x="429" 
d="M214 324c-139 0 -146 101 -146 216c0 114 0 225 146 225c140 0 147 -115 147 -225c0 -107 -14 -216 -147 -216zM108 540c0 -65 3 -114 22 -144c16 -26 41 -33 84 -33c106 0 107 96 107 177c0 73 -3 117 -23 148c-17 27 -45 38 -86 38c-33 0 -63 -10 -80 -31
c-24 -30 -24 -73 -24 -155z" />
    <glyph glyph-name="one.numr" horiz-adv-x="270" 
d="M186 335h-40v377l-117 -37v42l157 50v-432z" />
    <glyph glyph-name="two.numr" horiz-adv-x="379" 
d="M40 382c53 52 147 145 193 196c31 34 37 57 37 81c0 47 -30 67 -75 67c-55 0 -118 -16 -141 -22v40c24 6 85 21 137 21c71 0 119 -32 119 -107c0 -42 -13 -71 -50 -111c-64 -70 -139 -141 -173 -172h245v-40h-292v47z" />
    <glyph glyph-name="three.numr" horiz-adv-x="410" 
d="M57 379c33 -6 88 -16 127 -16c56 0 107 18 107 83s-46 80 -101 80h-92v39h143l18 24c16 22 28 42 28 69c0 55 -44 68 -92 68c-51 0 -111 -15 -135 -21v40c26 6 87 20 135 20c69 0 133 -28 133 -106c0 -26 -10 -48 -25 -70c-9 -13 -23 -32 -29 -40c39 -24 58 -52 58 -100
c0 -90 -66 -125 -148 -125c-42 0 -99 10 -127 15v40z" />
    <glyph glyph-name="four.numr" horiz-adv-x="388" 
d="M31 433v42l207 279h51l-208 -281h185v97h40v-235h-40v98h-235z" />
    <glyph glyph-name="five.numr" horiz-adv-x="406" 
d="M75 336v40c34 -6 75 -13 116 -13c71 0 109 19 109 93c0 24 -8 45 -25 57c-23 16 -58 22 -134 22h-59v219h240v-40h-200v-140h48c81 0 170 -18 170 -118c0 -98 -56 -132 -149 -132c-45 0 -87 7 -116 12z" />
    <glyph glyph-name="six.numr" horiz-adv-x="422" 
d="M213 324c-95 0 -145 58 -145 150c0 100 10 168 73 218c49 39 110 58 188 74v-41c-86 -16 -196 -51 -213 -149c20 1 60 3 108 3c83 0 135 -36 135 -123c0 -86 -63 -132 -146 -132zM108 477c0 -71 31 -114 105 -114c59 0 106 30 106 93c0 64 -33 84 -95 84
c-49 0 -80 -1 -114 -3c-2 -17 -2 -38 -2 -60z" />
    <glyph glyph-name="seven.numr" horiz-adv-x="336" 
d="M107 335h-47l207 379h-257v40h302v-43z" />
    <glyph glyph-name="eight.numr" horiz-adv-x="473" 
d="M79 442c0 51 31 80 70 106c-44 22 -53 59 -53 106c0 84 69 111 142 111s139 -28 139 -111c0 -26 -7 -49 -24 -71c-10 -13 -24 -27 -36 -39c47 -16 77 -50 77 -102c0 -89 -80 -118 -157 -118c-82 0 -158 22 -158 118zM142 495c-18 -18 -23 -35 -23 -53
c0 -70 60 -79 118 -79c52 0 117 14 117 79c0 32 -13 51 -53 66c-30 11 -74 19 -114 26c-12 -9 -29 -23 -45 -39zM136 654c0 -41 8 -60 34 -72c24 -11 62 -18 106 -26c26 23 61 62 61 98c0 58 -49 72 -99 72c-49 0 -102 -12 -102 -72z" />
    <glyph glyph-name="nine.numr" horiz-adv-x="422" 
d="M197 496c-93 0 -134 34 -134 128c0 90 47 141 140 141c134 0 151 -106 151 -216c0 -41 0 -76 -7 -106c-18 -79 -72 -119 -153 -119c-48 0 -79 6 -115 13v40c33 -7 71 -14 119 -14c86 0 116 65 116 143c-29 -4 -81 -10 -117 -10zM103 623c0 -64 21 -88 88 -88
c43 0 85 4 123 11c0 86 -3 180 -111 180c-70 0 -100 -36 -100 -103z" />
    <glyph glyph-name="zero.dnom" horiz-adv-x="429" 
d="M214 -11c-139 0 -146 101 -146 216c0 114 0 225 146 225c140 0 147 -115 147 -225c0 -107 -14 -216 -147 -216zM108 205c0 -65 3 -114 22 -144c16 -26 41 -33 84 -33c106 0 107 96 107 177c0 73 -3 117 -23 148c-17 27 -45 38 -86 38c-33 0 -63 -10 -80 -31
c-24 -30 -24 -73 -24 -155z" />
    <glyph glyph-name="one.dnom" horiz-adv-x="270" 
d="M186 0h-40v377l-117 -37v42l157 50v-432z" />
    <glyph glyph-name="two.dnom" horiz-adv-x="379" 
d="M40 47c53 52 147 145 193 196c31 34 37 57 37 81c0 47 -30 67 -75 67c-55 0 -118 -16 -141 -22v40c24 6 85 21 137 21c71 0 119 -32 119 -107c0 -42 -13 -71 -50 -111c-64 -70 -139 -141 -173 -172h245v-40h-292v47z" />
    <glyph glyph-name="three.dnom" horiz-adv-x="410" 
d="M57 44c33 -6 88 -16 127 -16c56 0 107 18 107 83s-46 80 -101 80h-92v39h143l18 24c16 22 28 42 28 69c0 55 -44 68 -92 68c-51 0 -111 -15 -135 -21v40c26 6 87 20 135 20c69 0 133 -28 133 -106c0 -26 -10 -48 -25 -70c-9 -13 -23 -32 -29 -40c39 -24 58 -52 58 -100
c0 -90 -66 -125 -148 -125c-42 0 -99 10 -127 15v40z" />
    <glyph glyph-name="four.dnom" horiz-adv-x="388" 
d="M31 98v42l207 279h51l-208 -281h185v97h40v-235h-40v98h-235z" />
    <glyph glyph-name="five.dnom" horiz-adv-x="406" 
d="M75 1v40c34 -6 75 -13 116 -13c71 0 109 19 109 93c0 24 -8 45 -25 57c-23 16 -58 22 -134 22h-59v219h240v-40h-200v-140h48c81 0 170 -18 170 -118c0 -98 -56 -132 -149 -132c-45 0 -87 7 -116 12z" />
    <glyph glyph-name="six.dnom" horiz-adv-x="422" 
d="M213 -11c-95 0 -145 58 -145 150c0 100 10 168 73 218c49 39 110 58 188 74v-41c-86 -16 -196 -51 -213 -149c20 1 60 3 108 3c83 0 135 -36 135 -123c0 -86 -63 -132 -146 -132zM108 142c0 -71 31 -114 105 -114c59 0 106 30 106 93c0 64 -33 84 -95 84
c-49 0 -80 -1 -114 -3c-2 -17 -2 -38 -2 -60z" />
    <glyph glyph-name="seven.dnom" horiz-adv-x="336" 
d="M107 0h-47l207 379h-257v40h302v-43z" />
    <glyph glyph-name="eight.dnom" horiz-adv-x="473" 
d="M79 107c0 51 31 80 70 106c-44 22 -53 59 -53 106c0 84 69 111 142 111s139 -28 139 -111c0 -26 -7 -49 -24 -71c-10 -13 -24 -27 -36 -39c47 -16 77 -50 77 -102c0 -89 -80 -118 -157 -118c-82 0 -158 22 -158 118zM142 160c-18 -18 -23 -35 -23 -53
c0 -70 60 -79 118 -79c52 0 117 14 117 79c0 32 -13 51 -53 66c-30 11 -74 19 -114 26c-12 -9 -29 -23 -45 -39zM136 319c0 -41 8 -60 34 -72c24 -11 62 -18 106 -26c26 23 61 62 61 98c0 58 -49 72 -99 72c-49 0 -102 -12 -102 -72z" />
    <glyph glyph-name="nine.dnom" horiz-adv-x="422" 
d="M197 161c-93 0 -134 34 -134 128c0 90 47 141 140 141c134 0 151 -106 151 -216c0 -41 0 -76 -7 -106c-18 -79 -72 -119 -153 -119c-48 0 -79 6 -115 13v40c33 -7 71 -14 119 -14c86 0 116 65 116 143c-29 -4 -81 -10 -117 -10zM103 288c0 -64 21 -88 88 -88
c43 0 85 4 123 11c0 86 -3 180 -111 180c-70 0 -100 -36 -100 -103z" />
    <glyph glyph-name="plus" unicode="+" horiz-adv-x="700" 
d="M89 397h240v245h41v-245h241v-40h-241v-245h-41v245h-240v40z" />
    <glyph glyph-name="minus" unicode="&#x2212;" horiz-adv-x="700" 
d="M611 357h-522v40h522v-40z" />
    <glyph glyph-name="plusminus" unicode="&#xb1;" horiz-adv-x="700" 
d="M89 397h240v245h41v-245h241v-40h-241v-260h-41v260h-240v40zM611 0h-522v40h522v-40z" />
    <glyph glyph-name="multiply" unicode="&#xd7;" horiz-adv-x="700" 
d="M127 614h53l170 -204l170 204h53l-197 -235l197 -239h-53l-169 207l-171 -207h-53l198 238z" />
    <glyph glyph-name="divide" unicode="&#xf7;" horiz-adv-x="700" 
d="M89 397h522v-40h-522v40zM318 515v106h63v-106h-63zM318 133v106h63v-106h-63z" />
    <glyph glyph-name="less" unicode="&#x3c;" horiz-adv-x="700" 
d="M611 107l-522 249v42l522 249v-46l-472 -224l472 -224v-46z" />
    <glyph glyph-name="greater" unicode="&#x3e;" horiz-adv-x="700" 
d="M89 647l522 -249v-42l-522 -249v46l472 224l-472 224v46z" />
    <glyph glyph-name="lessequal" unicode="&#x2264;" horiz-adv-x="700" 
d="M89 398l522 249v-46l-472 -224l472 -224v-46l-522 249v42zM611 0h-522v40h522v-40z" />
    <glyph glyph-name="greaterequal" unicode="&#x2265;" horiz-adv-x="700" 
d="M611 356l-522 -249v46l472 224l-472 224v46l522 -249v-42zM611 0h-522v40h522v-40z" />
    <glyph glyph-name="equal" unicode="=" horiz-adv-x="700" 
d="M611 252h-522v40h522v-40zM611 462h-522v40h522v-40z" />
    <glyph glyph-name="notequal" unicode="&#x2260;" horiz-adv-x="700" 
d="M89 502h309l94 164h48l-95 -164h166v-40h-189l-98 -170h287v-40h-310l-95 -164h-47l94 164h-164v40h188l97 170h-285v40z" />
    <glyph glyph-name="approxequal" unicode="&#x2248;" horiz-adv-x="700" 
d="M213 286c-64 0 -96 -31 -124 -59v51c29 28 60 48 124 48c50 0 68 -7 153 -40c60 -23 78 -28 118 -28c67 0 98 29 127 56v-51c-30 -28 -68 -45 -127 -45c-48 0 -71 5 -152 37c-61 24 -79 31 -119 31zM89 488c29 28 60 48 124 48c50 0 68 -7 153 -40c60 -23 78 -28 118 -28
c67 0 98 29 127 56v-51c-30 -28 -68 -45 -127 -45c-48 0 -71 5 -152 37c-61 24 -79 31 -119 31c-64 0 -96 -31 -124 -59v51z" />
    <glyph glyph-name="radical" unicode="&#x221a;" horiz-adv-x="700" 
d="M342 0h-29l-141 357h-122v40h150l128 -324l318 776h44z" />
    <glyph glyph-name="infinity" unicode="&#x221e;" horiz-adv-x="952" 
d="M250 231c-107 0 -171 50 -171 156s74 156 164 156c101 0 159 -56 235 -129c76 73 134 129 230 129c103 0 165 -56 165 -156c0 -101 -66 -156 -158 -156c-89 0 -159 47 -240 129c-78 -76 -136 -129 -225 -129zM120 387c0 -78 41 -117 130 -117c68 0 121 43 198 118
c-95 88 -127 116 -205 116c-82 0 -123 -47 -123 -117zM505 386c82 -78 136 -116 210 -116c82 0 117 51 117 117c0 75 -40 117 -124 117c-71 0 -122 -40 -203 -118z" />
    <glyph glyph-name="integral" unicode="&#x222b;" horiz-adv-x="600" 
d="M74 -194v40c19 -5 61 -16 99 -16s87 2 101 65c7 31 7 70 7 154v553c0 140 50 169 143 169c33 0 87 -11 102 -15v-40c-16 4 -67 16 -102 16c-58 0 -98 -13 -102 -108c-1 -27 -1 -81 -1 -265v-258c0 -27 0 -129 -2 -167c-6 -118 -60 -143 -146 -143c-36 0 -73 8 -99 15z
" />
    <glyph glyph-name="logicalnot" unicode="&#xac;" horiz-adv-x="700" 
d="M611 235h-41v253h-481v40h522v-293z" />
    <glyph glyph-name="numbersign" unicode="#" horiz-adv-x="650" 
d="M161 206h-120v39h126l41 267h-121v39h127l31 203h40l-31 -203h195l31 203h40l-31 -203h120v-39h-126l-41 -267h121v-39h-127l-32 -206h-40l32 206h-195l-32 -206h-40zM207 245h195l41 267h-195z" />
    <glyph glyph-name="uni2116" unicode="&#x2116;" horiz-adv-x="1139" 
d="M791 415c-21 33 -32 93 -32 144c0 119 27 212 169 212c132 0 167 -90 167 -208c0 -113 -37 -208 -167 -208c-69 0 -111 19 -137 60zM151 0h-41v754h62l433 -709v709h41v-754h-62l-433 709v-709zM928 732c-115 0 -128 -75 -128 -172c0 -96 17 -166 128 -166
c104 0 126 80 126 169c0 93 -16 169 -126 169z" />
    <glyph glyph-name="uni2113" unicode="&#x2113;" horiz-adv-x="394" 
d="M88 525c0 108 3 163 27 201c23 36 54 45 91 45c95 0 112 -82 112 -161c0 -86 -38 -188 -190 -392v-37c0 -99 0 -121 20 -141c15 -15 41 -17 64 -17c45 0 89 16 124 29v-43c-45 -16 -79 -26 -124 -26c-38 0 -81 4 -102 36c-23 35 -22 88 -22 184v322zM147 701
c-16 -28 -19 -82 -19 -145v-272c67 96 149 214 149 325c0 51 -1 123 -70 123c-28 0 -48 -9 -60 -31z" />
    <glyph glyph-name="ampersand" unicode="&#x26;" horiz-adv-x="709" 
d="M69 171c0 117 77 185 159 254c-48 48 -84 111 -84 180c0 116 73 166 182 166c48 0 129 -20 160 -28v-41c-46 12 -118 29 -160 29c-86 0 -140 -32 -140 -124c0 -53 18 -82 37 -110c26 -38 119 -133 183 -197h-57l-92 94c-34 -27 -63 -53 -95 -89c-41 -46 -51 -88 -51 -137
c0 -90 42 -145 135 -145c94 0 156 64 212 132l119 145h55l-107 -130l157 -170h-57l-127 137c-70 -84 -133 -154 -252 -154c-121 0 -177 70 -177 188z" />
    <glyph glyph-name="at" unicode="@" horiz-adv-x="922" 
d="M92 225c0 121 19 248 90 325c55 59 134 92 285 92c117 0 279 -57 345 -81v-310c0 -58 0 -115 -30 -164c-33 -53 -126 -98 -189 -98v91c-47 -42 -108 -93 -173 -93c-139 0 -146 130 -146 238c0 140 27 240 187 240c50 0 113 -20 172 -39v-391c120 37 139 91 139 209v289
c-62 21 -205 69 -305 69c-120 0 -193 -20 -245 -70c-68 -65 -89 -186 -89 -307c0 -192 38 -299 135 -350c36 -19 79 -30 119 -40v-42c-41 9 -96 23 -142 48c-130 71 -153 231 -153 384zM346 379c-23 -33 -31 -101 -31 -154c0 -56 5 -115 20 -148c17 -37 40 -51 85 -51
c34 0 66 19 97 43c26 20 54 42 76 60v268c-45 15 -89 29 -134 29c-53 0 -88 -10 -113 -47z" />
    <glyph glyph-name="A" unicode="A" horiz-adv-x="673" 
d="M21 0l288 754h53l290 -754h-45l-83 215h-377l-82 -215h-44zM162 255h347l-174 455z" />
    <glyph glyph-name="B" unicode="B" horiz-adv-x="718" 
d="M400 0h-290v754h279c119 0 238 -12 238 -162c0 -46 -21 -85 -45 -130c-12 -22 -33 -57 -39 -67c70 -47 102 -100 102 -187c0 -155 -104 -208 -245 -208zM449 369h-298v-329h248c117 0 204 36 204 168c0 58 -17 100 -59 134c-27 22 -53 27 -95 27zM151 409h353
c14 25 28 50 40 72c24 44 41 75 41 114c0 115 -104 119 -193 119h-241v-305z" />
    <glyph glyph-name="C" unicode="C" horiz-adv-x="658" 
d="M95 375c0 107 13 220 51 287c44 78 101 109 226 109c77 0 152 -19 226 -39v-41c-73 20 -150 40 -226 40c-101 0 -157 -24 -195 -101c-27 -55 -40 -160 -40 -256c0 -95 11 -181 30 -230c31 -81 91 -121 199 -121c77 0 153 15 232 33v-42c-79 -17 -149 -31 -226 -31
c-134 0 -202 44 -244 145c-23 55 -33 155 -33 247z" />
    <glyph glyph-name="D" unicode="D" horiz-adv-x="752" 
d="M353 0h-243v754h251c103 0 154 -14 204 -60c65 -59 92 -188 92 -314c0 -125 -25 -244 -87 -308c-52 -53 -117 -72 -217 -72zM151 714v-674h201c99 0 149 22 190 64c45 47 73 149 73 276c0 116 -24 224 -72 277c-43 47 -100 57 -182 57h-210z" />
    <glyph glyph-name="E" unicode="E" horiz-adv-x="651" 
d="M110 754h484v-40h-443v-308h421v-40h-421v-326h459v-40h-500v754z" />
    <glyph glyph-name="F" unicode="F" horiz-adv-x="632" 
d="M110 754h488v-40h-447v-320h416v-40h-416v-354h-41v754z" />
    <glyph glyph-name="G" unicode="G" horiz-adv-x="740" 
d="M95 375c0 104 12 220 51 287c44 76 103 109 226 109c79 0 159 -19 235 -40v-41c-72 19 -160 41 -235 41c-101 0 -157 -25 -196 -101c-28 -55 -39 -161 -39 -256c0 -99 11 -182 32 -231c41 -96 116 -120 218 -120c67 0 150 12 205 20v358h41v-393
c-83 -12 -175 -25 -261 -25c-247 0 -277 192 -277 392z" />
    <glyph glyph-name="H" unicode="H" horiz-adv-x="769" 
d="M151 0h-41v754h41v-333h467v333h41v-754h-41v381h-467v-381z" />
    <glyph glyph-name="I" unicode="I" horiz-adv-x="261" 
d="M151 0h-41v754h41v-754z" />
    <glyph glyph-name="J" unicode="J" horiz-adv-x="364" 
d="M-6 -84v42c35 11 117 40 156 62c29 16 47 31 56 56c10 29 10 81 10 134v544h41v-539c0 -70 0 -114 -11 -150c-8 -26 -24 -47 -51 -65c-53 -35 -150 -68 -201 -84z" />
    <glyph glyph-name="K" unicode="K" horiz-adv-x="622" 
d="M151 0h-41v754h41v-365l380 365h61l-391 -374l422 -380h-63l-409 369v-369z" />
    <glyph glyph-name="L" unicode="L" horiz-adv-x="615" 
d="M576 0h-466v754h41v-714h425v-40z" />
    <glyph glyph-name="M" unicode="M" horiz-adv-x="870" 
d="M110 754h66l259 -561l259 561h66v-754h-41v710l-259 -560h-51l-258 558v-708h-41v754z" />
    <glyph glyph-name="N" unicode="N" horiz-adv-x="756" 
d="M110 754h62l433 -709v709h41v-754h-62l-433 709v-709h-41v754z" />
    <glyph glyph-name="O" unicode="O" horiz-adv-x="801" 
d="M145 92c-41 69 -50 191 -50 286c0 83 8 201 41 262c45 83 130 131 264 131c116 0 192 -31 242 -102c47 -67 64 -194 64 -291c0 -75 -11 -209 -59 -283c-55 -84 -139 -112 -247 -112c-131 0 -212 36 -255 109zM137 378c0 -78 8 -201 41 -259c46 -80 128 -96 222 -96
c85 0 149 17 200 78c49 58 64 178 64 277c0 90 -14 198 -51 259c-43 71 -117 94 -213 94c-239 0 -263 -155 -263 -353z" />
    <glyph glyph-name="P" unicode="P" horiz-adv-x="657" 
d="M110 0v754h270c86 0 133 -18 169 -57c32 -34 51 -97 51 -155c0 -136 -38 -219 -183 -235c-44 -5 -157 -5 -266 -5v-302h-41zM151 714v-372c100 0 208 0 263 6c121 13 144 84 144 194c0 54 -17 106 -48 135c-30 28 -73 37 -132 37h-227z" />
    <glyph glyph-name="Q" unicode="Q" horiz-adv-x="801" 
d="M95 378c0 83 8 201 41 262c45 83 130 131 264 131c116 0 192 -31 242 -102c47 -67 64 -194 64 -291c0 -173 -31 -357 -230 -389l228 -55v-41l-363 89c-100 24 -158 45 -196 110c-41 69 -50 191 -50 286zM137 378c0 -78 8 -201 41 -259c46 -80 138 -97 222 -97
c85 0 149 18 200 79c49 58 64 178 64 277c0 90 -14 198 -51 259c-43 71 -117 94 -213 94c-239 0 -263 -155 -263 -353z" />
    <glyph glyph-name="R" unicode="R" horiz-adv-x="682" 
d="M151 0h-41v754h240c133 0 262 -16 262 -181c0 -65 -33 -114 -69 -154c-29 -33 -66 -69 -88 -90l197 -329h-50l-195 326h-256v-326zM151 714v-348h282c30 29 57 56 78 80c31 36 59 76 59 126c0 139 -113 142 -221 142h-198z" />
    <glyph glyph-name="S" unicode="S" horiz-adv-x="640" 
d="M69 574c0 42 9 101 49 141c42 42 95 56 187 56c83 0 160 -21 247 -45v-41c-70 19 -171 46 -247 46c-113 0 -194 -29 -194 -157c0 -40 5 -69 27 -91c18 -18 59 -35 106 -51l170 -59c103 -36 157 -72 157 -187c0 -53 -20 -106 -55 -141c-46 -46 -106 -62 -192 -62
c-85 0 -190 25 -249 39v42c67 -16 177 -41 246 -41c70 0 114 10 152 40c36 28 56 76 56 125c0 97 -50 119 -134 148l-171 60c-102 36 -155 58 -155 178z" />
    <glyph glyph-name="Germandbls" unicode="&#x1e9e;" horiz-adv-x="744" 
d="M147 0h-41v375c0 127 0 222 35 289c40 76 109 107 247 107c82 0 178 -21 248 -41v-42l-157 -279l58 -29c94 -47 151 -85 151 -198c0 -54 -17 -103 -55 -140c-45 -44 -111 -59 -200 -59c-55 0 -127 12 -161 18v41c30 -6 97 -19 161 -19c112 0 213 29 213 161
c0 92 -49 120 -126 158l-97 48l173 309c-48 13 -134 32 -208 32c-101 0 -178 -14 -215 -94c-25 -54 -26 -143 -26 -250v-387z" />
    <glyph glyph-name="T" unicode="T" horiz-adv-x="661" 
d="M28 714v40h605v-40h-282v-714h-41v714h-282z" />
    <glyph glyph-name="U" unicode="U" horiz-adv-x="739" 
d="M106 754h41v-473c0 -182 31 -258 224 -258c195 0 221 76 221 258v473h41v-474c0 -122 -8 -197 -72 -248c-45 -36 -104 -49 -190 -49s-145 13 -192 50c-59 46 -73 122 -73 247v474z" />
    <glyph glyph-name="V" unicode="V" horiz-adv-x="643" 
d="M298 0l-295 754h45l274 -702l274 702h44l-295 -754h-47z" />
    <glyph glyph-name="W" unicode="W" horiz-adv-x="884" 
d="M197 0l-159 754h42l151 -718l181 604h60l181 -604l151 718h42l-159 -754h-66l-179 599l-179 -599h-66z" />
    <glyph glyph-name="X" unicode="X" horiz-adv-x="598" 
d="M55 0h-51l260 383l-242 371h50l227 -347l225 347h50l-240 -370l260 -384h-51l-244 360z" />
    <glyph glyph-name="Y" unicode="Y" horiz-adv-x="592" 
d="M275 290l-281 464h49l253 -417l253 417h49l-281 -464v-290h-42v290z" />
    <glyph glyph-name="Z" unicode="Z" horiz-adv-x="633" 
d="M580 0h-527v45l472 669h-457v40h505v-45l-472 -669h479v-40z" />
    <glyph glyph-name="a" unicode="a" 
d="M67 269c0 155 40 276 218 276c58 0 124 -25 197 -53v-492h-40v97c-21 -19 -40 -35 -65 -55c-46 -37 -85 -59 -139 -59c-81 0 -115 35 -140 84c-21 42 -31 123 -31 202zM108 269c0 -94 1 -247 130 -247c34 0 68 15 106 45c34 27 71 57 98 82v316c-55 21 -107 41 -160 41
c-150 0 -174 -110 -174 -237z" />
    <glyph glyph-name="b" unicode="b" horiz-adv-x="577" 
d="M88 21v733h40v-282c13 7 54 29 85 43c30 13 71 30 115 30c160 0 182 -152 182 -279c0 -145 -46 -283 -216 -283c-38 0 -76 5 -107 12c-25 6 -62 16 -99 26zM128 51c55 -15 109 -29 166 -29c145 0 175 125 175 245c0 91 -12 239 -133 239c-38 0 -62 -7 -99 -24
c-43 -20 -77 -37 -109 -54v-377z" />
    <glyph glyph-name="c" unicode="c" horiz-adv-x="480" 
d="M105 66c-29 53 -38 132 -38 195c0 60 5 129 21 174c26 74 76 110 192 110c51 0 115 -19 153 -31v-40c-36 11 -105 32 -153 32c-83 0 -127 -17 -152 -80c-15 -37 -20 -104 -20 -165c0 -66 11 -138 33 -176c29 -51 75 -63 139 -63c45 0 109 15 153 26v-40
c-42 -10 -106 -25 -153 -25c-94 0 -142 23 -175 83z" />
    <glyph glyph-name="d" unicode="d" horiz-adv-x="577" 
d="M100 68c-24 50 -33 127 -33 198c0 69 7 142 37 198c33 62 90 81 164 81c63 0 140 -24 181 -37v246h40v-754h-40v77c-58 -46 -131 -94 -207 -94c-84 0 -117 32 -142 85zM137 439c-22 -44 -29 -108 -29 -173c0 -69 7 -129 26 -174c20 -48 50 -71 108 -71
c71 0 154 64 207 106v340c-73 24 -129 39 -181 39c-59 0 -106 -16 -131 -67z" />
    <glyph glyph-name="e" unicode="e" horiz-adv-x="554" 
d="M67 263c0 158 33 282 220 282c133 0 203 -72 203 -200c0 -24 -3 -61 -10 -100h-373c0 -140 34 -223 191 -223c57 0 124 13 165 21v-40c-38 -8 -117 -20 -165 -20c-197 0 -231 108 -231 280zM107 284h337c3 17 5 39 5 61c0 105 -53 161 -162 161
c-147 0 -180 -95 -180 -222z" />
    <glyph glyph-name="f" unicode="f" horiz-adv-x="285" 
d="M88 519c0 165 11 208 189 256v-41c-78 -22 -138 -39 -146 -128c-3 -34 -3 -62 -3 -85h152v-39h-152v-482h-40v519z" />
    <glyph glyph-name="g" unicode="g" horiz-adv-x="574" 
d="M68 270c0 78 9 142 35 190c37 68 95 85 172 85c60 0 159 -32 211 -49v-466c0 -153 -82 -239 -236 -239c-56 0 -118 8 -164 14v41c37 -6 111 -16 164 -16c130 0 196 76 196 203v29c-63 -31 -133 -62 -204 -62c-88 0 -120 33 -143 78c-21 41 -31 114 -31 192zM109 270
c0 -76 9 -136 26 -173c19 -42 52 -58 107 -58c66 0 145 39 204 68v360c-30 10 -117 39 -173 39c-70 0 -110 -17 -136 -68c-20 -39 -28 -103 -28 -168z" />
    <glyph glyph-name="h" unicode="h" horiz-adv-x="572" 
d="M88 0v754h40v-265c74 33 137 56 199 56c138 0 159 -71 159 -194v-351h-40v352c0 95 -11 154 -119 154c-67 0 -135 -31 -199 -60v-446h-40z" />
    <glyph glyph-name="i" unicode="i" horiz-adv-x="216" 
d="M128 0h-40v528h40v-528zM130 628h-44v126h44v-126z" />
    <glyph glyph-name="j" unicode="j" horiz-adv-x="227" 
d="M74 -152c-28 -21 -82 -46 -111 -59v44c21 10 75 37 96 55c18 16 26 30 32 48s8 59 8 90v502h40v-496c0 -38 -1 -84 -7 -106c-9 -32 -25 -54 -58 -78zM97 628v126h44v-126h-44z" />
    <glyph glyph-name="k" unicode="k" horiz-adv-x="475" 
d="M128 0h-40v754h40v-457l254 231h60l-266 -242l291 -286h-58l-281 277v-277z" />
    <glyph glyph-name="l" unicode="l" horiz-adv-x="216" 
d="M128 0h-40v754h40v-754z" />
    <glyph glyph-name="m" unicode="m" horiz-adv-x="890" 
d="M88 0v528h40v-45c70 34 128 62 194 62c59 0 109 -12 134 -70c52 29 129 70 198 70c136 0 150 -80 150 -196v-349h-40v349c0 89 -2 157 -110 157c-64 0 -136 -41 -188 -71v-435h-40v385c0 80 -12 121 -104 121c-61 0 -133 -36 -194 -67v-439h-40z" />
    <glyph glyph-name="n" unicode="n" horiz-adv-x="575" 
d="M88 0v528h40v-43c76 34 135 60 202 60c139 0 159 -72 159 -194v-351h-40v353c0 95 -10 153 -119 153c-63 0 -139 -35 -202 -64v-442h-40z" />
    <glyph glyph-name="o" unicode="o" 
d="M109 61c-28 44 -42 125 -42 200c0 155 31 284 218 284c181 0 218 -119 218 -279c0 -155 -35 -283 -218 -283c-90 0 -141 23 -176 78zM108 262c0 -67 11 -136 32 -173c30 -53 75 -67 145 -67c69 0 116 19 143 65c23 40 34 110 34 180c0 132 -19 239 -177 239
c-159 0 -177 -114 -177 -244z" />
    <glyph glyph-name="p" unicode="p" horiz-adv-x="577" 
d="M88 528h40v-68c58 46 115 85 192 85c165 0 190 -149 190 -282c0 -140 -33 -280 -202 -280c-59 0 -116 21 -180 51v-226h-40v720zM128 411v-333c59 -29 116 -56 180 -56c141 0 161 128 161 242c0 107 -13 242 -149 242c-41 0 -71 -11 -105 -32c-30 -19 -58 -40 -87 -63z
" />
    <glyph glyph-name="q" unicode="q" horiz-adv-x="577" 
d="M67 262c0 76 11 152 41 202c39 65 97 81 170 81c68 0 161 -31 211 -48v-689h-40v247c-62 -37 -130 -72 -204 -72c-81 0 -120 28 -146 82c-23 48 -32 125 -32 197zM108 262c0 -69 9 -134 24 -171c19 -47 49 -69 113 -69c38 0 73 11 107 27c33 16 65 35 97 54v366
c-60 19 -118 37 -171 37c-65 0 -109 -15 -137 -66c-22 -40 -33 -111 -33 -178z" />
    <glyph glyph-name="r" unicode="r" horiz-adv-x="330" 
d="M88 528h40v-67c63 44 112 63 188 79v-41c-77 -16 -124 -40 -188 -86v-413h-40v528z" />
    <glyph glyph-name="s" unicode="s" horiz-adv-x="503" 
d="M100 307c-30 22 -38 56 -38 99c0 113 87 139 183 139c57 0 140 -21 176 -31v-40c-39 10 -127 32 -176 32c-72 0 -142 -13 -142 -100c0 -30 5 -51 22 -65c18 -14 41 -23 82 -36l101 -33c74 -24 133 -51 133 -140c0 -119 -104 -149 -203 -149c-63 0 -123 14 -170 25v40
c56 -13 112 -26 170 -26c71 0 162 18 162 107c0 69 -47 85 -105 104l-93 31c-52 17 -79 26 -102 43z" />
    <glyph glyph-name="germandbls" unicode="&#xdf;" 
d="M128 0h-40v511c0 33 0 71 6 112c12 86 90 141 175 141c97 0 163 -42 163 -146c0 -51 -22 -90 -54 -127c-28 -32 -49 -55 -71 -77l116 -102c52 -46 94 -95 94 -168c0 -111 -103 -153 -199 -153c-34 0 -72 4 -106 9v40c39 -6 76 -10 110 -10c72 0 154 30 154 114
c0 60 -32 96 -76 135l-151 133c18 18 60 60 92 98c41 48 50 74 50 107c0 80 -47 108 -122 108c-42 0 -94 -22 -117 -58c-16 -25 -19 -47 -21 -70c-3 -34 -3 -62 -3 -85v-512z" />
    <glyph glyph-name="t" unicode="t" horiz-adv-x="299" 
d="M87 193v467h40v-139h159v-39h-159v-290c0 -47 0 -69 3 -95s13 -42 35 -50c23 -8 61 -11 99 -14v-40c-41 3 -84 7 -112 16c-29 9 -47 23 -56 50c-9 28 -9 60 -9 134z" />
    <glyph glyph-name="u" unicode="u" horiz-adv-x="564" 
d="M87 528h40v-334c0 -107 1 -172 126 -172c77 0 133 17 183 32v474h40v-504c-87 -25 -143 -41 -220 -41c-157 0 -169 73 -169 212v333z" />
    <glyph glyph-name="v" unicode="v" horiz-adv-x="483" 
d="M208 0l-193 528h44l182 -500l183 500h44l-194 -528h-66z" />
    <glyph glyph-name="w" unicode="w" horiz-adv-x="752" 
d="M171 0l-151 528h42l138 -484l146 484h60l146 -484l138 484h42l-151 -528h-57l-148 491l-148 -491h-57z" />
    <glyph glyph-name="x" unicode="x" horiz-adv-x="472" 
d="M10 0l194 270l-183 258h50l165 -233l167 233h49l-184 -258l194 -270h-50l-176 245l-177 -245h-49z" />
    <glyph glyph-name="y" unicode="y" horiz-adv-x="487" 
d="M221 10l-207 518h44l185 -463l187 463h43l-290 -720h-44z" />
    <glyph glyph-name="z" unicode="z" horiz-adv-x="516" 
d="M475 0h-430v35l366 454h-350v39h406v-35l-366 -454h374v-39z" />
    <glyph glyph-name="fi" unicode="&#xfb01;" horiz-adv-x="511" 
d="M128 0h-40v519c0 165 11 208 189 256v-41c-78 -22 -138 -39 -146 -128c-3 -34 -3 -62 -3 -85h152v-39h-152v-482zM423 0h-40v528h40v-528zM381 754h44v-126h-44v126z" />
    <glyph glyph-name="fl" unicode="&#xfb02;" horiz-adv-x="511" 
d="M128 0h-40v519c0 165 11 208 189 256v-41c-78 -22 -138 -39 -146 -128c-3 -34 -3 -62 -3 -85h152v-39h-152v-482zM383 0v754h40v-754h-40z" />
    <glyph glyph-name="guillemotleft" unicode="&#xab;" horiz-adv-x="486" 
d="M237 58l-168 206l168 206h55l-168 -206l168 -206h-55zM407 58l-167 206l167 206h55l-167 -206l167 -206h-55z" />
    <glyph glyph-name="guillemotright" unicode="&#xbb;" horiz-adv-x="486" 
d="M249 58h-55l168 206l-168 206h55l168 -206zM24 58l167 206l-167 206h55l167 -206l-167 -206h-55z" />
    <glyph glyph-name="guilsinglleft" unicode="&#x2039;" horiz-adv-x="316" 
d="M292 58h-55l-168 206l168 206h55l-168 -206z" />
    <glyph glyph-name="guilsinglright" unicode="&#x203a;" horiz-adv-x="316" 
d="M24 58l168 206l-168 206h55l168 -206l-168 -206h-55z" />
    <glyph glyph-name="quotedblbase" unicode="&#x201e;" horiz-adv-x="379" 
d="M118 -169h-39c16 66 28 116 28 231v60h48v-99c0 -73 -14 -133 -37 -192zM248 -169h-39c17 66 28 116 28 231v60h48v-99c0 -73 -14 -133 -37 -192z" />
    <glyph glyph-name="quotedblleft" unicode="&#x201c;" horiz-adv-x="379" 
d="M272 463h-48v99c0 73 14 133 37 192h39c-16 -66 -28 -116 -28 -231v-60zM94 463v99c0 73 14 133 37 192h39c-17 -66 -28 -116 -28 -231v-60h-48z" />
    <glyph glyph-name="quotedblright" unicode="&#x201d;" horiz-adv-x="379" 
d="M118 463h-39c16 66 28 116 28 231v60h48v-99c0 -73 -14 -133 -37 -192zM248 463h-39c17 66 28 116 28 231v60h48v-99c0 -73 -14 -133 -37 -192z" />
    <glyph glyph-name="quotesinglbase" unicode="&#x201a;" horiz-adv-x="249" 
d="M118 -169h-39c17 66 28 116 28 231v60h48v-99c0 -73 -14 -133 -37 -192z" />
    <glyph glyph-name="quoteleft" unicode="&#x2018;" horiz-adv-x="249" 
d="M94 562c0 73 14 133 37 192h39c-17 -66 -28 -116 -28 -231v-60h-48v99z" />
    <glyph glyph-name="quoteright" unicode="&#x2019;" horiz-adv-x="249" 
d="M118 463h-39c16 66 28 116 28 231v60h48v-99c0 -73 -14 -133 -37 -192z" />
    <glyph glyph-name="questiondown" unicode="&#xbf;" horiz-adv-x="495" 
d="M253 -209c-110 0 -182 49 -182 166c0 59 19 107 47 146c24 34 44 58 88 106c57 62 71 90 79 113h46c-18 -46 -31 -72 -88 -134c-40 -43 -64 -69 -87 -103c-30 -44 -43 -77 -43 -128c0 -91 50 -126 137 -126c48 0 116 18 169 32v-41c-50 -14 -119 -31 -166 -31zM280 437
v125h58v-125h-58z" />
    <glyph glyph-name="question" unicode="?" horiz-adv-x="495" 
d="M76 699v41c50 14 119 31 166 31c110 0 182 -49 182 -166c0 -59 -19 -107 -47 -146c-24 -34 -44 -58 -88 -106c-57 -62 -71 -90 -79 -113h-46c18 46 31 72 88 134c40 43 64 69 87 103c30 44 43 77 43 128c0 91 -50 126 -137 126c-48 0 -116 -18 -169 -32zM157 125h58v-125
h-58v125z" />
    <glyph glyph-name="exclamdown" unicode="&#xa1;" horiz-adv-x="263" 
d="M100 -72c0 175 0 364 1 394h40c1 -30 1 -219 1 -394v-120h-42v120zM150 437h-58v125h58v-125z" />
    <glyph glyph-name="exclam" unicode="!" horiz-adv-x="263" 
d="M121 754h42v-120c0 -175 0 -364 -1 -394h-40c-1 30 -1 219 -1 394v120zM113 125h58v-125h-58v125z" />
    <glyph glyph-name="section" unicode="&#xa7;" horiz-adv-x="637" 
d="M99 382c0 57 41 104 78 144c-40 32 -50 63 -50 114c0 112 109 131 198 131c46 0 149 -18 194 -26v-42c-44 9 -140 28 -194 28c-63 0 -156 -7 -156 -91c0 -34 7 -52 21 -67c17 -19 43 -33 86 -56l125 -66c47 -25 77 -41 101 -62c23 -20 36 -49 36 -85
c0 -60 -41 -103 -81 -143c45 -31 59 -67 59 -121c0 -36 -20 -81 -55 -107c-37 -27 -86 -38 -159 -38c-59 0 -151 17 -189 24v41c57 -11 140 -25 188 -25c70 0 173 14 173 105c0 24 -3 46 -15 62c-13 17 -40 32 -78 53l-138 74c-48 26 -85 47 -110 69c-21 19 -34 44 -34 84z
M212 505c-32 -32 -71 -75 -71 -123c0 -27 9 -46 27 -60c19 -15 44 -30 82 -50l170 -91c19 19 31 31 48 52c22 28 28 51 28 70c0 21 -4 41 -27 59c-22 18 -48 32 -76 47z" />
    <glyph glyph-name="dollar" unicode="$" horiz-adv-x="662" 
d="M88 567c0 142 100 182 226 186v104h40v-105c62 -5 150 -26 197 -38v-42c-64 17 -154 41 -229 41c-103 0 -192 -27 -192 -146c0 -38 2 -64 23 -87c16 -17 58 -34 104 -50l166 -57c100 -34 151 -70 151 -180c0 -134 -98 -188 -220 -194v-112h-40v112c-78 3 -160 21 -219 34
v41c61 -14 153 -35 233 -35c76 0 111 10 147 35c38 27 57 69 57 119c0 94 -46 115 -128 143l-164 57c-104 36 -152 57 -152 174z" />
    <glyph glyph-name="cent" unicode="&#xa2;" horiz-adv-x="517" 
d="M88 259c0 139 9 263 184 274v105h40v-106c47 -3 103 -19 137 -29v-41c-49 15 -106 32 -155 32c-66 0 -119 -8 -149 -81c-15 -37 -16 -93 -16 -152c0 -124 18 -223 165 -223c49 0 105 13 155 26v-40c-36 -9 -92 -22 -137 -25v-112h-40v112c-154 11 -184 126 -184 260z" />
    <glyph glyph-name="Euro" unicode="&#x20ac;" horiz-adv-x="687" 
d="M107 385c0 209 32 384 282 384c86 0 168 -17 225 -29v-41c-61 13 -141 30 -225 30c-99 0 -165 -27 -203 -103c-20 -40 -34 -116 -36 -166h354v-40h-354c-2 -13 -2 -33 -2 -37c0 -8 0 -22 2 -38h354v-40h-353c2 -57 14 -128 27 -161c30 -77 82 -121 197 -121
c81 0 164 9 239 20v-41c-60 -8 -153 -19 -233 -19c-142 0 -206 50 -243 148c-19 50 -31 136 -31 254z" />
    <glyph glyph-name="sterling" unicode="&#xa3;" horiz-adv-x="616" 
d="M549 0h-429v572c0 139 38 199 185 199c53 0 137 -16 207 -31v-41c-65 14 -149 32 -207 32c-121 0 -144 -44 -144 -157v-114h231v-40h-231v-380h388v-40z" />
    <glyph glyph-name="yen" unicode="&#xa5;" horiz-adv-x="640" 
d="M18 754h49l252 -418l254 418h49l-178 -294h148v-40h-173l-79 -131v-289h-41v288l-80 132h-172v40h148z" />
    <glyph glyph-name="uni20BA" unicode="&#x20ba;" horiz-adv-x="576" 
d="M120 -16v770h41v-252l287 93v-42l-287 -93v-78l287 93v-42l-287 -93v-317c108 0 167 11 221 67c49 51 63 146 66 179h41c-3 -41 -14 -131 -65 -194s-113 -92 -265 -92c-12 0 -22 0 -39 1z" />
    <glyph glyph-name="uni20BD" unicode="&#x20bd;" horiz-adv-x="682" 
d="M120 0v754h271c86 0 133 -18 169 -57c32 -34 51 -98 51 -157c0 -134 -39 -221 -183 -237c-44 -5 -158 -5 -267 -5v-75h337v-40h-337v-183h-41zM388 714h-227v-376c100 0 209 0 263 5c121 11 145 90 145 197c0 55 -18 109 -48 137c-32 29 -74 37 -133 37z" />
    <glyph glyph-name="currency" unicode="&#xa4;" horiz-adv-x="723" 
d="M98 103l111 130c-25 31 -37 83 -37 143c0 65 13 112 38 142l-112 133h54l87 -103c29 18 77 31 125 31c42 0 92 -13 119 -32l88 104h54l-113 -133c27 -31 43 -81 43 -139c0 -60 -14 -112 -41 -145l111 -131h-54l-88 104c-28 -20 -73 -31 -119 -31c-48 0 -95 10 -125 29
l-87 -102h-54zM362 539c-111 0 -149 -54 -149 -162c0 -112 35 -161 150 -161c110 0 151 59 151 164c0 102 -49 159 -152 159z" />
    <glyph glyph-name="copyright" unicode="&#xa9;" horiz-adv-x="943" 
d="M472 -17c-233 0 -387 160 -387 394s154 394 387 394s386 -160 386 -394s-153 -394 -386 -394zM126 377c0 -208 132 -354 346 -354c213 0 345 146 345 354s-132 354 -345 354c-214 0 -346 -146 -346 -354zM473 154c-149 0 -190 92 -190 224c0 135 39 227 190 227
c50 0 103 -10 151 -24v-41c-49 13 -101 25 -151 25c-124 0 -149 -79 -149 -187c0 -106 26 -184 149 -184c52 0 98 8 151 18v-41c-52 -9 -99 -17 -151 -17z" />
    <glyph glyph-name="registered" unicode="&#xae;" horiz-adv-x="943" 
d="M472 -17c-233 0 -387 160 -387 394s154 394 387 394s386 -160 386 -394s-153 -394 -386 -394zM472 731c-214 0 -346 -146 -346 -354s132 -354 346 -354c213 0 345 146 345 354s-132 354 -345 354zM366 164h-41v431h165c73 0 151 -13 151 -105c0 -62 -42 -104 -83 -145
l103 -181h-48l-99 174h-148v-174zM366 555v-177h169c11 12 19 21 33 38c19 24 31 46 31 73c0 65 -57 66 -106 66h-127z" />
    <glyph glyph-name="trademark" unicode="&#x2122;" horiz-adv-x="1024" 
d="M499 754h59l148 -298l150 298h58v-429h-38v386l-152 -301h-37l-150 301v-386h-38v429zM53 754h366v-37h-164v-392h-38v392h-164v37z" />
    <glyph glyph-name="ordfeminine" unicode="&#xaa;" horiz-adv-x="460" 
d="M190 355c-124 0 -130 117 -130 213c0 123 34 203 172 203c42 0 99 -17 154 -37v-368h-39v73l-47 -38c-33 -27 -72 -46 -110 -46zM101 568c0 -57 4 -99 17 -129c14 -32 32 -45 72 -45c31 0 59 16 87 38c23 18 47 38 70 58v216c-36 12 -78 26 -117 26
c-112 0 -129 -67 -129 -164z" />
    <glyph glyph-name="ordmasculine" unicode="&#xba;" horiz-adv-x="454" 
d="M91 415c-21 33 -32 93 -32 144c0 119 27 212 169 212c132 0 167 -90 167 -208c0 -113 -37 -208 -167 -208c-69 0 -111 19 -137 60zM100 560c0 -96 17 -166 128 -166c104 0 126 80 126 169c0 93 -16 169 -126 169c-115 0 -128 -75 -128 -172z" />
    <glyph glyph-name="paragraph" unicode="&#xb6;" horiz-adv-x="642" 
d="M61 515c0 72 15 140 53 182c41 46 95 57 178 57h236v-946h-41v906h-101v-906h-41v467c-130 0 -183 14 -225 56c-44 44 -59 111 -59 184z" />
    <glyph glyph-name="Aacute" unicode="&#xc1;" horiz-adv-x="673" 
d="M21 0l288 754h53l290 -754h-45l-83 215h-377l-82 -215h-44zM162 255h347l-174 455zM362 818h-56l114 132h57z" />
    <glyph glyph-name="aacute" unicode="&#xe1;" 
d="M238 -17c-160 0 -171 163 -171 286c0 155 40 276 218 276c58 0 124 -25 197 -53v-492h-40v97c-21 -19 -40 -35 -65 -55c-46 -37 -85 -59 -139 -59zM108 269c0 -94 1 -247 130 -247c34 0 68 15 106 45c34 27 71 57 98 82v316c-55 21 -107 41 -160 41
c-150 0 -174 -110 -174 -237zM288 622h-56l114 132h57z" />
    <glyph glyph-name="Agrave" unicode="&#xc0;" horiz-adv-x="673" 
d="M21 0l288 754h53l290 -754h-45l-83 215h-377l-82 -215h-44zM162 255h347l-174 455zM197 950h56l110 -132h-55z" />
    <glyph glyph-name="agrave" unicode="&#xe0;" 
d="M238 -17c-160 0 -171 163 -171 286c0 155 40 276 218 276c58 0 124 -25 197 -53v-492h-40v97c-21 -19 -40 -35 -65 -55c-46 -37 -85 -59 -139 -59zM108 269c0 -94 1 -247 130 -247c34 0 68 15 106 45c34 27 71 57 98 82v316c-55 21 -107 41 -160 41
c-150 0 -174 -110 -174 -237zM290 622l-111 132h56l110 -132h-55z" />
    <glyph glyph-name="Acircumflex" unicode="&#xc2;" horiz-adv-x="673" 
d="M65 0h-44l288 754h53l290 -754h-45l-83 215h-377zM162 255h347l-174 455zM248 797h-56l121 132h46l120 -132h-56l-87 94z" />
    <glyph glyph-name="acircumflex" unicode="&#xe2;" 
d="M238 -17c-160 0 -171 163 -171 286c0 155 40 276 218 276c58 0 124 -25 197 -53v-492h-40v97c-21 -19 -40 -35 -65 -55c-46 -37 -85 -59 -139 -59zM282 506c-150 0 -174 -110 -174 -237c0 -94 1 -247 130 -247c34 0 68 15 106 45c34 27 71 57 98 82v316
c-55 21 -107 41 -160 41zM156 624l121 132h46l120 -132h-56l-87 94l-88 -94h-56z" />
    <glyph glyph-name="Adieresis" unicode="&#xc4;" horiz-adv-x="673" 
d="M21 0l288 754h53l290 -754h-45l-83 215h-377l-82 -215h-44zM335 710l-173 -455h347zM399 950h44v-126h-44v126zM230 824v126h44v-126h-44z" />
    <glyph glyph-name="adieresis" unicode="&#xe4;" 
d="M238 -17c-160 0 -171 163 -171 286c0 155 40 276 218 276c58 0 124 -25 197 -53v-492h-40v97c-21 -19 -40 -35 -65 -55c-46 -37 -85 -59 -139 -59zM108 269c0 -94 1 -247 130 -247c34 0 68 15 106 45c34 27 71 57 98 82v316c-55 21 -107 41 -160 41
c-150 0 -174 -110 -174 -237zM395 628h-43v126h43v-126zM176 754h43v-126h-43v126z" />
    <glyph glyph-name="Atilde" unicode="&#xc3;" horiz-adv-x="673" 
d="M21 0l288 754h53l290 -754h-45l-83 215h-377l-82 -215h-44zM335 710l-173 -455h347zM167 822c31 81 55 105 102 105c25 0 44 -7 77 -35c27 -23 42 -35 64 -35c35 0 45 25 60 63h44c-25 -59 -43 -102 -105 -102c-26 0 -45 6 -70 28c-31 28 -49 42 -70 42
c-33 0 -46 -33 -59 -66h-43z" />
    <glyph glyph-name="atilde" unicode="&#xe3;" 
d="M67 269c0 155 40 276 218 276c58 0 124 -25 197 -53v-492h-40v97c-21 -19 -40 -35 -65 -55c-46 -37 -85 -59 -139 -59c-81 0 -115 35 -140 84c-21 42 -31 123 -31 202zM108 269c0 -94 1 -247 130 -247c34 0 68 15 106 45c34 27 71 57 98 82v316c-55 21 -107 41 -160 41
c-150 0 -174 -110 -174 -237zM164 629h-43c31 81 55 105 102 105c25 0 44 -7 77 -35c27 -23 42 -35 64 -35c35 0 45 25 60 63h44c-25 -59 -43 -102 -105 -102c-26 0 -45 6 -70 28c-31 28 -49 42 -70 42c-33 0 -46 -33 -59 -66z" />
    <glyph glyph-name="Aring" unicode="&#xc5;" horiz-adv-x="673" 
d="M65 0h-44l275 720c-42 13 -66 52 -66 95c0 64 42 104 106 104s106 -40 106 -104c0 -44 -24 -81 -67 -95l277 -720h-45l-83 215h-377zM162 255h347l-174 455zM336 882c-44 0 -68 -23 -68 -67c0 -42 27 -64 68 -64s68 22 68 64c0 44 -24 67 -68 67z" />
    <glyph glyph-name="aring" unicode="&#xe5;" 
d="M238 -17c-160 0 -171 163 -171 286c0 155 40 276 218 276c58 0 124 -25 197 -53v-492h-40v97c-21 -19 -40 -35 -65 -55c-46 -37 -85 -59 -139 -59zM108 269c0 -94 1 -247 130 -247c34 0 68 15 106 45c34 27 71 57 98 82v316c-55 21 -107 41 -160 41
c-150 0 -174 -110 -174 -237zM288 597c-61 0 -106 39 -106 101c0 64 42 104 106 104s106 -40 106 -104c0 -62 -45 -101 -106 -101zM220 698c0 -42 27 -64 68 -64s68 22 68 64c0 44 -24 67 -68 67s-68 -23 -68 -67z" />
    <glyph glyph-name="Aringacute" unicode="&#x1fa;" horiz-adv-x="673" 
d="M21 0l275 720c-42 13 -66 52 -66 95c0 64 42 104 106 104s106 -40 106 -104c0 -44 -24 -81 -67 -95l277 -720h-45l-83 215h-377l-82 -215h-44zM335 710l-173 -455h347zM336 882c-44 0 -68 -23 -68 -67c0 -42 27 -64 68 -64s68 22 68 64c0 44 -24 67 -68 67zM294 955
l88 100h59l-90 -100h-57z" />
    <glyph glyph-name="aringacute" unicode="&#x1fb;" 
d="M67 269c0 155 40 276 218 276c58 0 124 -25 197 -53v-492h-40v97c-21 -19 -40 -35 -65 -55c-46 -37 -85 -59 -139 -59c-81 0 -115 35 -140 84c-21 42 -31 123 -31 202zM282 506c-150 0 -174 -110 -174 -237c0 -94 1 -247 130 -247c34 0 68 15 106 45c34 27 71 57 98 82
v316c-55 21 -107 41 -160 41zM291 597c-61 0 -106 39 -106 101c0 64 42 104 106 104s106 -40 106 -104c0 -62 -45 -101 -106 -101zM291 765c-44 0 -68 -23 -68 -67c0 -42 27 -64 68 -64s68 22 68 64c0 44 -24 67 -68 67zM309 822h-56l110 128h57z" />
    <glyph glyph-name="AE" unicode="&#xc6;" horiz-adv-x="1068" 
d="M51 0h-49l503 754h506v-40h-443v-308h421v-40h-421v-326h459v-40h-500v215h-332zM222 255h305v460z" />
    <glyph glyph-name="ae" unicode="&#xe6;" horiz-adv-x="918" 
d="M65 133c0 151 122 151 238 151h131v78c0 113 -15 144 -141 144c-56 0 -162 -22 -207 -33v40c49 11 151 32 205 32c95 0 151 -18 176 -87c25 49 81 87 184 87c133 0 203 -72 203 -200c0 -24 -3 -61 -10 -100h-371c0 -144 22 -223 189 -223c57 0 127 14 165 22v-41
c-38 -8 -117 -20 -165 -20c-94 0 -179 25 -212 114c-61 -48 -146 -114 -226 -114c-103 0 -159 42 -159 150zM473 284h335c3 17 5 38 5 60c0 105 -52 162 -162 162c-151 0 -178 -94 -178 -222zM145 221c-30 -19 -39 -51 -39 -88c0 -79 36 -110 113 -110c69 0 159 67 215 109
v113h-138c-63 0 -115 -1 -151 -24z" />
    <glyph glyph-name="AEacute" unicode="&#x1fc;" horiz-adv-x="1068" 
d="M51 0h-49l503 754h506v-40h-443v-308h421v-40h-421v-326h459v-40h-500v215h-332zM222 255h305v460zM567 818h-56l114 132h57z" />
    <glyph glyph-name="aeacute" unicode="&#x1fd;" horiz-adv-x="918" 
d="M65 133c0 151 122 151 238 151h131v78c0 113 -15 144 -141 144c-56 0 -162 -22 -207 -33v40c49 11 151 32 205 32c95 0 151 -18 176 -87c25 49 81 87 184 87c133 0 203 -72 203 -200c0 -24 -3 -61 -10 -100h-371c0 -144 22 -223 189 -223c57 0 127 14 165 22v-41
c-38 -8 -117 -20 -165 -20c-94 0 -179 25 -212 114c-61 -48 -146 -114 -226 -114c-103 0 -159 42 -159 150zM473 284h335c3 17 5 38 5 60c0 105 -52 162 -162 162c-151 0 -178 -94 -178 -222zM106 133c0 -79 36 -110 113 -110c69 0 159 67 215 109v113h-138
c-63 0 -115 -1 -151 -24c-30 -19 -39 -51 -39 -88zM464 622h-56l114 132h57z" />
    <glyph glyph-name="Amacron" unicode="&#x100;" horiz-adv-x="673" 
d="M21 0l288 754h53l290 -754h-45l-83 215h-377l-82 -215h-44zM335 710l-173 -455h347zM469 844h-267v40h267v-40z" />
    <glyph glyph-name="amacron" unicode="&#x101;" 
d="M238 -17c-160 0 -171 163 -171 286c0 155 40 276 218 276c58 0 124 -25 197 -53v-492h-40v97c-21 -19 -40 -35 -65 -55c-46 -37 -85 -59 -139 -59zM282 506c-150 0 -174 -110 -174 -237c0 -94 1 -247 130 -247c34 0 68 15 106 45c34 27 71 57 98 82v316
c-55 21 -107 41 -160 41zM160 650v40h267v-40h-267z" />
    <glyph glyph-name="Abreve" unicode="&#x102;" horiz-adv-x="673" 
d="M65 0h-44l288 754h53l290 -754h-45l-83 215h-377zM162 255h347l-174 455zM195 938h43c17 -55 33 -96 98 -96c59 0 82 45 97 96h43c-20 -76 -54 -136 -140 -136c-89 0 -120 57 -141 136z" />
    <glyph glyph-name="abreve" unicode="&#x103;" 
d="M67 269c0 155 40 276 218 276c58 0 124 -25 197 -53v-492h-40v97c-21 -19 -40 -35 -65 -55c-46 -37 -85 -59 -139 -59c-81 0 -115 35 -140 84c-21 42 -31 123 -31 202zM108 269c0 -94 1 -247 130 -247c34 0 68 15 106 45c34 27 71 57 98 82v316c-55 21 -107 41 -160 41
c-150 0 -174 -110 -174 -237zM298 618c-89 0 -120 57 -141 136h43c17 -55 33 -96 98 -96c59 0 82 45 97 96h43c-20 -76 -54 -136 -140 -136z" />
    <glyph glyph-name="Aogonek" unicode="&#x104;" horiz-adv-x="673" 
d="M65 0h-44l288 754h53l290 -754c-24 -18 -57 -45 -80 -70c-19 -21 -26 -35 -26 -53s10 -30 31 -30c23 0 50 11 74 21v-43c-24 -11 -51 -18 -72 -18c-48 0 -75 24 -75 73c0 52 62 102 99 131l-79 204h-377zM335 710l-173 -455h347z" />
    <glyph glyph-name="aogonek" unicode="&#x105;" 
d="M67 269c0 155 40 276 218 276c58 0 124 -25 197 -53v-492c-23 -18 -56 -45 -79 -70c-19 -21 -26 -35 -26 -53s10 -30 31 -30c23 0 50 11 74 21v-43c-24 -11 -51 -18 -72 -18c-48 0 -75 24 -75 73c0 22 12 46 29 66c20 23 52 50 78 70v81c-21 -19 -40 -35 -65 -55
c-46 -37 -85 -59 -139 -59c-81 0 -115 35 -140 84c-21 42 -31 123 -31 202zM282 506c-150 0 -174 -110 -174 -237c0 -94 1 -247 130 -247c34 0 68 15 106 45c34 27 71 57 98 82v316c-55 21 -107 41 -160 41z" />
    <glyph glyph-name="uni1EA0" unicode="&#x1ea0;" horiz-adv-x="673" 
d="M21 0l288 754h53l290 -754h-45l-83 215h-377l-82 -215h-44zM335 710l-173 -455h347zM314 -192v126h44v-126h-44z" />
    <glyph glyph-name="uni1EA1" unicode="&#x1ea1;" 
d="M67 269c0 155 40 276 218 276c58 0 124 -25 197 -53v-492h-40v97c-21 -19 -40 -35 -65 -55c-46 -37 -85 -59 -139 -59c-81 0 -115 35 -140 84c-21 42 -31 123 -31 202zM282 506c-150 0 -174 -110 -174 -237c0 -94 1 -247 130 -247c34 0 68 15 106 45c34 27 71 57 98 82
v316c-55 21 -107 41 -160 41zM249 -192v126h44v-126h-44z" />
    <glyph glyph-name="Cacute" unicode="&#x106;" horiz-adv-x="658" 
d="M128 128c-23 55 -33 155 -33 247c0 107 13 220 51 287c44 78 101 109 226 109c77 0 152 -19 226 -39v-41c-73 20 -150 40 -226 40c-101 0 -157 -24 -195 -101c-27 -55 -40 -160 -40 -256c0 -95 11 -181 30 -230c31 -81 91 -121 199 -121c77 0 153 15 232 33v-42
c-79 -17 -149 -31 -226 -31c-134 0 -202 44 -244 145zM368 818h-56l114 132h57z" />
    <glyph glyph-name="cacute" unicode="&#x107;" horiz-adv-x="480" 
d="M105 66c-29 53 -38 132 -38 195c0 60 5 129 21 174c26 74 76 110 192 110c51 0 115 -19 153 -31v-40c-36 11 -105 32 -153 32c-83 0 -127 -17 -152 -80c-15 -37 -20 -104 -20 -165c0 -66 11 -138 33 -176c29 -51 75 -63 139 -63c45 0 109 15 153 26v-40
c-42 -10 -106 -25 -153 -25c-94 0 -142 23 -175 83zM262 622h-56l114 132h57z" />
    <glyph glyph-name="Ccircumflex" unicode="&#x108;" horiz-adv-x="658" 
d="M95 375c0 107 13 220 51 287c44 78 101 109 226 109c77 0 152 -19 226 -39v-41c-73 20 -150 40 -226 40c-101 0 -157 -24 -195 -101c-27 -55 -40 -160 -40 -256c0 -95 11 -181 30 -230c31 -81 91 -121 199 -121c77 0 153 15 232 33v-42c-79 -17 -149 -31 -226 -31
c-134 0 -202 44 -244 145c-23 55 -33 155 -33 247zM287 818h-56l121 132h46l120 -132h-56l-87 94z" />
    <glyph glyph-name="ccircumflex" unicode="&#x109;" horiz-adv-x="480" 
d="M67 261c0 60 5 129 21 174c26 74 76 110 192 110c51 0 115 -19 153 -31v-40c-36 11 -105 32 -153 32c-83 0 -127 -17 -152 -80c-15 -37 -20 -104 -20 -165c0 -66 11 -138 33 -176c29 -51 75 -63 139 -63c45 0 109 15 153 26v-40c-42 -10 -106 -25 -153 -25
c-94 0 -142 23 -175 83c-29 53 -38 132 -38 195zM180 622h-56l121 132h46l120 -132h-56l-87 94z" />
    <glyph glyph-name="Ccaron" unicode="&#x10c;" horiz-adv-x="658" 
d="M95 375c0 107 13 220 51 287c44 78 101 109 226 109c77 0 152 -19 226 -39v-41c-73 20 -150 40 -226 40c-101 0 -157 -24 -195 -101c-27 -55 -40 -160 -40 -256c0 -95 11 -181 30 -230c31 -81 91 -121 199 -121c77 0 153 15 232 33v-42c-79 -17 -149 -31 -226 -31
c-134 0 -202 44 -244 145c-23 55 -33 155 -33 247zM223 950h56l88 -94l87 94h56l-120 -132h-46z" />
    <glyph glyph-name="ccaron" unicode="&#x10d;" horiz-adv-x="480" 
d="M67 261c0 60 5 129 21 174c26 74 76 110 192 110c51 0 115 -19 153 -31v-40c-36 11 -105 32 -153 32c-83 0 -127 -17 -152 -80c-15 -37 -20 -104 -20 -165c0 -66 11 -138 33 -176c29 -51 75 -63 139 -63c45 0 109 15 153 26v-40c-42 -10 -106 -25 -153 -25
c-94 0 -142 23 -175 83c-29 53 -38 132 -38 195zM120 754h56l88 -94l87 94h56l-120 -132h-46z" />
    <glyph glyph-name="Ccedilla" unicode="&#xc7;" horiz-adv-x="658" 
d="M128 128c-23 55 -33 155 -33 247c0 107 13 220 51 287c44 78 101 109 226 109c77 0 152 -19 226 -39v-41c-73 20 -150 40 -226 40c-101 0 -157 -24 -195 -101c-27 -55 -40 -160 -40 -256c0 -95 11 -181 30 -230c31 -81 91 -121 199 -121c77 0 153 15 232 33v-42
c-79 -17 -149 -31 -226 -31c-134 0 -202 44 -244 145zM323 -191h-52l80 131h53z" />
    <glyph glyph-name="ccedilla" unicode="&#xe7;" horiz-adv-x="480" 
d="M105 66c-29 53 -38 132 -38 195c0 60 5 129 21 174c26 74 76 110 192 110c51 0 115 -19 153 -31v-40c-36 11 -105 32 -153 32c-83 0 -127 -17 -152 -80c-15 -37 -20 -104 -20 -165c0 -66 11 -138 33 -176c29 -51 75 -63 139 -63c45 0 109 15 153 26v-40
c-42 -10 -106 -25 -153 -25c-94 0 -142 23 -175 83zM224 -191h-52l80 131h53z" />
    <glyph glyph-name="Cdotaccent" unicode="&#x10a;" horiz-adv-x="658" 
d="M95 375c0 107 13 220 51 287c44 78 101 109 226 109c77 0 152 -19 226 -39v-41c-73 20 -150 40 -226 40c-101 0 -157 -24 -195 -101c-27 -55 -40 -160 -40 -256c0 -95 11 -181 30 -230c31 -81 91 -121 199 -121c77 0 153 15 232 33v-42c-79 -17 -149 -31 -226 -31
c-134 0 -202 44 -244 145c-23 55 -33 155 -33 247zM383 824h-44v126h44v-126z" />
    <glyph glyph-name="cdotaccent" unicode="&#x10b;" horiz-adv-x="480" 
d="M67 261c0 60 5 129 21 174c26 74 76 110 192 110c51 0 115 -19 153 -31v-40c-36 11 -105 32 -153 32c-83 0 -127 -17 -152 -80c-15 -37 -20 -104 -20 -165c0 -66 11 -138 33 -176c29 -51 75 -63 139 -63c45 0 109 15 153 26v-40c-42 -10 -106 -25 -153 -25
c-94 0 -142 23 -175 83c-29 53 -38 132 -38 195zM240 754h44v-126h-44v126z" />
    <glyph glyph-name="Dcaron" unicode="&#x10e;" horiz-adv-x="752" 
d="M353 0h-243v754h251c103 0 154 -14 204 -60c65 -59 92 -188 92 -314c0 -125 -25 -244 -87 -308c-52 -53 -117 -72 -217 -72zM361 714h-210v-674h201c99 0 149 22 190 64c45 47 73 149 73 276c0 116 -24 224 -72 277c-43 47 -100 57 -182 57zM310 818l-121 132h56l88 -94
l87 94h56l-120 -132h-46z" />
    <glyph glyph-name="dcaron" unicode="&#x10f;" horiz-adv-x="585" 
d="M100 68c-24 50 -33 127 -33 198c0 69 7 142 37 198c33 62 90 81 164 81c63 0 140 -24 181 -37v246h40v-754h-40v77c-58 -46 -131 -94 -207 -94c-84 0 -117 32 -142 85zM108 266c0 -69 7 -129 26 -174c20 -48 50 -71 108 -71c71 0 154 64 207 106v340
c-73 24 -129 39 -181 39c-59 0 -106 -16 -131 -67c-22 -44 -29 -108 -29 -173zM586 567h-36v187h43v-67c0 -21 0 -59 -7 -120z" />
    <glyph glyph-name="Dcroat" unicode="&#x110;" horiz-adv-x="759" 
d="M46 371v40h71v343h251c103 0 154 -14 204 -60c65 -59 92 -188 92 -314c0 -125 -25 -244 -87 -308c-52 -53 -117 -72 -217 -72h-243v371h-71zM158 411h229v-40h-229v-331h201c99 0 149 22 190 64c45 47 73 149 73 276c0 116 -24 224 -72 277c-43 47 -100 57 -182 57h-210
v-303z" />
    <glyph glyph-name="dcroat" unicode="&#x111;" horiz-adv-x="577" 
d="M100 68c-24 50 -33 127 -33 198c0 69 7 142 37 198c33 62 90 81 164 81c63 0 140 -24 181 -37v102h-129v39h129v105h40v-105h87v-39h-87v-610h-40v77c-58 -46 -131 -94 -207 -94c-84 0 -117 32 -142 85zM108 266c0 -69 7 -129 26 -174c20 -48 50 -71 108 -71
c71 0 154 64 207 106v340c-73 24 -129 39 -181 39c-59 0 -106 -16 -131 -67c-22 -44 -29 -108 -29 -173z" />
    <glyph glyph-name="Eth" unicode="&#xd0;" horiz-adv-x="759" 
d="M46 371v40h71v343h251c103 0 154 -14 204 -60c65 -59 92 -188 92 -314c0 -125 -25 -244 -87 -308c-52 -53 -117 -72 -217 -72h-243v371h-71zM158 411h229v-40h-229v-331h201c99 0 149 22 190 64c45 47 73 149 73 276c0 116 -24 224 -72 277c-43 47 -100 57 -182 57h-210
v-303z" />
    <glyph glyph-name="eth" unicode="&#xf0;" horiz-adv-x="577" 
d="M283 -17c-169 0 -216 106 -216 258c0 151 36 259 214 259c56 0 113 -22 157 -39c-7 41 -27 123 -77 184l-156 -80v43l126 65c-40 31 -91 50 -126 59v43c50 -16 115 -40 164 -82l113 59v-44l-85 -44c76 -94 102 -271 102 -420c0 -146 -48 -261 -216 -261zM275 459
c-143 0 -167 -95 -167 -216c0 -68 10 -117 32 -154c31 -52 74 -67 143 -67c146 0 175 100 175 226c0 65 -3 119 -13 168c-35 14 -109 43 -170 43z" />
    <glyph glyph-name="Eacute" unicode="&#xc9;" horiz-adv-x="651" 
d="M110 0v754h484v-40h-443v-308h421v-40h-421v-326h459v-40h-500zM290 818l114 132h57l-115 -132h-56z" />
    <glyph glyph-name="eacute" unicode="&#xe9;" horiz-adv-x="554" 
d="M298 -17c-197 0 -231 108 -231 280c0 158 33 282 220 282c133 0 203 -72 203 -200c0 -24 -3 -61 -10 -100h-373c0 -140 34 -223 191 -223c57 0 124 13 165 21v-40c-38 -8 -117 -20 -165 -20zM107 284h337c3 17 5 39 5 61c0 105 -53 161 -162 161
c-147 0 -180 -95 -180 -222zM229 622l114 132h57l-115 -132h-56z" />
    <glyph glyph-name="Egrave" unicode="&#xc8;" horiz-adv-x="651" 
d="M110 0v754h484v-40h-443v-308h421v-40h-421v-326h459v-40h-500zM348 818l-111 132h56l110 -132h-55z" />
    <glyph glyph-name="egrave" unicode="&#xe8;" horiz-adv-x="554" 
d="M298 -17c-197 0 -231 108 -231 280c0 158 33 282 220 282c133 0 203 -72 203 -200c0 -24 -3 -61 -10 -100h-373c0 -140 34 -223 191 -223c57 0 124 13 165 21v-40c-38 -8 -117 -20 -165 -20zM107 284h337c3 17 5 39 5 61c0 105 -53 161 -162 161
c-147 0 -180 -95 -180 -222zM287 622l-111 132h56l110 -132h-55z" />
    <glyph glyph-name="Ecircumflex" unicode="&#xca;" horiz-adv-x="651" 
d="M610 0h-500v754h484v-40h-443v-308h421v-40h-421v-326h459v-40zM266 803h-56l121 132h46l120 -132h-56l-87 94z" />
    <glyph glyph-name="ecircumflex" unicode="&#xea;" horiz-adv-x="554" 
d="M67 263c0 158 33 282 220 282c133 0 203 -72 203 -200c0 -24 -3 -61 -10 -100h-373c0 -140 34 -223 191 -223c57 0 124 13 165 21v-40c-38 -8 -117 -20 -165 -20c-197 0 -231 108 -231 280zM287 506c-147 0 -180 -94 -180 -222h337c3 17 5 39 5 61
c0 105 -53 161 -162 161zM198 624h-56l121 132h46l120 -132h-56l-87 94z" />
    <glyph glyph-name="Ecaron" unicode="&#x11a;" horiz-adv-x="651" 
d="M610 0h-500v754h484v-40h-443v-308h421v-40h-421v-326h459v-40zM331 818l-121 132h56l88 -94l87 94h56l-120 -132h-46z" />
    <glyph glyph-name="ecaron" unicode="&#x11b;" horiz-adv-x="554" 
d="M298 -17c-197 0 -231 108 -231 280c0 158 33 282 220 282c133 0 203 -72 203 -200c0 -24 -3 -61 -10 -100h-373c0 -140 34 -223 191 -223c57 0 124 13 165 21v-40c-38 -8 -117 -20 -165 -20zM287 506c-147 0 -180 -94 -180 -222h337c3 17 5 39 5 61
c0 105 -53 161 -162 161zM133 754h56l88 -94l87 94h56l-120 -132h-46z" />
    <glyph glyph-name="Edieresis" unicode="&#xcb;" horiz-adv-x="651" 
d="M110 0v754h484v-40h-443v-308h421v-40h-421v-326h459v-40h-500zM468 824h-44v126h44v-126zM238 824v126h44v-126h-44z" />
    <glyph glyph-name="edieresis" unicode="&#xeb;" horiz-adv-x="554" 
d="M298 -17c-197 0 -231 108 -231 280c0 158 33 282 220 282c133 0 203 -72 203 -200c0 -24 -3 -61 -10 -100h-373c0 -140 34 -223 191 -223c57 0 124 13 165 21v-40c-38 -8 -117 -20 -165 -20zM107 284h337c3 17 5 39 5 61c0 105 -53 161 -162 161
c-147 0 -180 -95 -180 -222zM342 754h43v-126h-43v126zM183 754h43v-126h-43v126z" />
    <glyph glyph-name="uni1EBC" unicode="&#x1ebc;" horiz-adv-x="651" 
d="M110 0v754h484v-40h-443v-308h421v-40h-421v-326h459v-40h-500zM229 821h-43c31 81 55 105 102 105c25 0 44 -7 77 -35c27 -23 42 -35 64 -35c35 0 45 25 60 63h44c-25 -59 -43 -102 -105 -102c-26 0 -45 6 -70 28c-31 28 -49 42 -70 42c-33 0 -46 -33 -59 -66z" />
    <glyph glyph-name="uni1EBD" unicode="&#x1ebd;" horiz-adv-x="554" 
d="M67 263c0 158 33 282 220 282c133 0 203 -72 203 -200c0 -24 -3 -61 -10 -100h-373c0 -140 34 -223 191 -223c57 0 124 13 165 21v-40c-38 -8 -117 -20 -165 -20c-197 0 -231 108 -231 280zM287 506c-147 0 -180 -94 -180 -222h337c3 17 5 39 5 61
c0 105 -53 161 -162 161zM112 634c31 81 55 105 102 105c25 0 44 -7 77 -35c27 -23 42 -35 64 -35c35 0 45 25 60 63h44c-25 -59 -43 -102 -105 -102c-26 0 -45 6 -70 28c-31 28 -49 42 -70 42c-33 0 -46 -33 -59 -66h-43z" />
    <glyph glyph-name="Emacron" unicode="&#x112;" horiz-adv-x="651" 
d="M110 0v754h484v-40h-443v-308h421v-40h-421v-326h459v-40h-500zM219 884h267v-40h-267v40z" />
    <glyph glyph-name="emacron" unicode="&#x113;" horiz-adv-x="554" 
d="M298 -17c-197 0 -231 108 -231 280c0 158 33 282 220 282c133 0 203 -72 203 -200c0 -24 -3 -61 -10 -100h-373c0 -140 34 -223 191 -223c57 0 124 13 165 21v-40c-38 -8 -117 -20 -165 -20zM107 284h337c3 17 5 39 5 61c0 105 -53 161 -162 161
c-147 0 -180 -95 -180 -222zM154 650v40h267v-40h-267z" />
    <glyph glyph-name="Ebreve" unicode="&#x114;" horiz-adv-x="651" 
d="M110 0v754h484v-40h-443v-308h421v-40h-421v-326h459v-40h-500zM205 950h43c17 -55 33 -96 98 -96c59 0 82 45 97 96h43c-20 -76 -54 -136 -140 -136c-89 0 -120 57 -141 136z" />
    <glyph glyph-name="ebreve" unicode="&#x115;" horiz-adv-x="554" 
d="M67 263c0 158 33 282 220 282c133 0 203 -72 203 -200c0 -24 -3 -61 -10 -100h-373c0 -140 34 -223 191 -223c57 0 124 13 165 21v-40c-38 -8 -117 -20 -165 -20c-197 0 -231 108 -231 280zM107 284h337c3 17 5 39 5 61c0 105 -53 161 -162 161
c-147 0 -180 -95 -180 -222zM284 618c-89 0 -120 57 -141 136h43c17 -55 33 -96 98 -96c59 0 82 45 97 96h43c-20 -76 -54 -136 -140 -136z" />
    <glyph glyph-name="Eogonek" unicode="&#x118;" horiz-adv-x="651" 
d="M110 0v754h484v-40h-443v-308h421v-40h-421v-326h459v-40c-24 -18 -57 -45 -80 -70c-19 -21 -26 -35 -26 -53s10 -30 31 -30c23 0 50 11 74 21v-43c-24 -11 -51 -18 -72 -18c-48 0 -75 24 -75 73c0 46 52 93 85 120h-437z" />
    <glyph glyph-name="eogonek" unicode="&#x119;" horiz-adv-x="554" 
d="M298 -17c-197 0 -231 108 -231 280c0 158 33 282 220 282c133 0 203 -72 203 -200c0 -24 -3 -61 -10 -100h-373c0 -140 34 -223 191 -223c57 0 126 14 165 22v-41c-31 -24 -106 -83 -106 -126c0 -18 10 -30 31 -30c23 0 50 11 74 21v-43c-24 -11 -51 -18 -72 -18
c-48 0 -75 24 -75 73c0 22 12 46 29 66c13 15 29 30 45 45c-32 -5 -66 -8 -91 -8zM132 426c-18 -37 -25 -107 -25 -142h338c3 17 5 38 5 60c0 107 -50 162 -163 162c-76 0 -128 -24 -155 -80z" />
    <glyph glyph-name="Edotaccent" unicode="&#x116;" horiz-adv-x="651" 
d="M110 0v754h484v-40h-443v-308h421v-40h-421v-326h459v-40h-500zM325 950h44v-126h-44v126z" />
    <glyph glyph-name="edotaccent" unicode="&#x117;" horiz-adv-x="554" 
d="M298 -17c-197 0 -231 108 -231 280c0 158 33 282 220 282c133 0 203 -72 203 -200c0 -24 -3 -61 -10 -100h-373c0 -140 34 -223 191 -223c57 0 124 13 165 21v-40c-38 -8 -117 -20 -165 -20zM107 284h337c3 17 5 39 5 61c0 105 -53 161 -162 161
c-147 0 -180 -95 -180 -222zM259 628v126h44v-126h-44z" />
    <glyph glyph-name="uni1EB8" unicode="&#x1eb8;" horiz-adv-x="651" 
d="M110 0v754h484v-40h-443v-308h421v-40h-421v-326h459v-40h-500zM329 -61h44v-126h-44v126z" />
    <glyph glyph-name="uni1EB9" unicode="&#x1eb9;" horiz-adv-x="554" 
d="M298 -17c-197 0 -231 108 -231 280c0 158 33 282 220 282c133 0 203 -72 203 -200c0 -24 -3 -61 -10 -100h-373c0 -140 34 -223 191 -223c57 0 124 13 165 21v-40c-38 -8 -117 -20 -165 -20zM107 284h337c3 17 5 39 5 61c0 105 -53 161 -162 161
c-147 0 -180 -95 -180 -222zM252 -186v126h44v-126h-44z" />
    <glyph glyph-name="uni018F" unicode="&#x18f;" horiz-adv-x="728" 
d="M93 251c0 43 2 83 9 131h489c0 99 -11 191 -40 246c-41 77 -95 103 -196 103c-77 0 -159 -19 -236 -37v41c71 17 153 36 231 36c128 0 187 -39 231 -110c42 -67 52 -173 52 -297c0 -191 -43 -381 -276 -381c-186 0 -264 86 -264 268zM135 257c0 -158 54 -234 221 -234
c191 0 235 160 235 319h-451c-2 -15 -5 -39 -5 -85z" />
    <glyph glyph-name="uni0259" unicode="&#x259;" horiz-adv-x="554" 
d="M64 183c0 24 3 61 10 100h373c0 140 -34 223 -191 223c-57 0 -124 -13 -165 -21v40c38 8 117 20 165 20c197 0 231 -108 231 -280c0 -158 -33 -282 -220 -282c-133 0 -203 72 -203 200zM105 183c0 -105 53 -161 162 -161c147 0 180 95 180 222h-337c-3 -17 -5 -39 -5 -61
z" />
    <glyph glyph-name="Gcircumflex" unicode="&#x11c;" horiz-adv-x="740" 
d="M95 375c0 104 12 220 51 287c44 76 103 109 226 109c79 0 159 -19 235 -40v-41c-72 19 -160 41 -235 41c-101 0 -157 -25 -196 -101c-28 -55 -39 -161 -39 -256c0 -99 11 -182 32 -231c41 -96 116 -120 218 -120c67 0 150 12 205 20v358h41v-393
c-83 -12 -175 -25 -261 -25c-247 0 -277 192 -277 392zM234 818l121 132h46l120 -132h-56l-87 94l-88 -94h-56z" />
    <glyph glyph-name="gcircumflex" unicode="&#x11d;" horiz-adv-x="574" 
d="M68 270c0 78 9 142 35 190c37 68 95 85 172 85c60 0 159 -32 211 -49v-466c0 -153 -82 -239 -236 -239c-56 0 -118 8 -164 14v41c37 -6 111 -16 164 -16c130 0 196 76 196 203v29c-63 -31 -133 -62 -204 -62c-88 0 -120 33 -143 78c-21 41 -31 114 -31 192zM137 438
c-20 -39 -28 -103 -28 -168c0 -76 9 -136 26 -173c19 -42 52 -58 107 -58c66 0 145 39 204 68v360c-30 10 -117 39 -173 39c-70 0 -110 -17 -136 -68zM200 622h-56l121 132h46l120 -132h-56l-87 94z" />
    <glyph glyph-name="Gcaron" unicode="&#x1e6;" horiz-adv-x="740" 
d="M95 375c0 104 12 220 51 287c44 76 103 109 226 109c79 0 159 -19 235 -40v-41c-72 19 -160 41 -235 41c-101 0 -157 -25 -196 -101c-28 -55 -39 -161 -39 -256c0 -99 11 -182 32 -231c41 -96 116 -120 218 -120c67 0 150 12 205 20v358h41v-393
c-83 -12 -175 -25 -261 -25c-247 0 -277 192 -277 392zM355 818l-121 132h56l88 -94l87 94h56l-120 -132h-46z" />
    <glyph glyph-name="gcaron" unicode="&#x1e7;" horiz-adv-x="574" 
d="M68 270c0 78 9 142 35 190c37 68 95 85 172 85c60 0 159 -32 211 -49v-466c0 -153 -82 -239 -236 -239c-56 0 -118 8 -164 14v41c37 -6 111 -16 164 -16c130 0 196 76 196 203v29c-63 -31 -133 -62 -204 -62c-88 0 -120 33 -143 78c-21 41 -31 114 -31 192zM137 438
c-20 -39 -28 -103 -28 -168c0 -76 9 -136 26 -173c19 -42 52 -58 107 -58c66 0 145 39 204 68v360c-30 10 -117 39 -173 39c-70 0 -110 -17 -136 -68zM139 754h56l88 -94l87 94h56l-120 -132h-46z" />
    <glyph glyph-name="Gbreve" unicode="&#x11e;" horiz-adv-x="740" 
d="M372 -17c-247 0 -277 192 -277 392c0 104 12 220 51 287c44 76 103 109 226 109c79 0 159 -19 235 -40v-41c-72 19 -160 41 -235 41c-101 0 -157 -25 -196 -101c-28 -55 -39 -161 -39 -256c0 -99 11 -182 32 -231c41 -96 116 -120 218 -120c67 0 150 12 205 20v358h41
v-393c-83 -12 -175 -25 -261 -25zM379 814c-89 0 -120 57 -141 136h43c17 -55 33 -96 98 -96c59 0 82 45 97 96h43c-20 -76 -54 -136 -140 -136z" />
    <glyph glyph-name="gbreve" unicode="&#x11f;" horiz-adv-x="574" 
d="M68 270c0 78 9 142 35 190c37 68 95 85 172 85c60 0 159 -32 211 -49v-466c0 -153 -82 -239 -236 -239c-56 0 -118 8 -164 14v41c37 -6 111 -16 164 -16c130 0 196 76 196 203v29c-63 -31 -133 -62 -204 -62c-88 0 -120 33 -143 78c-21 41 -31 114 -31 192zM137 438
c-20 -39 -28 -103 -28 -168c0 -76 9 -136 26 -173c19 -42 52 -58 107 -58c66 0 145 39 204 68v360c-30 10 -117 39 -173 39c-70 0 -110 -17 -136 -68zM282 618c-89 0 -120 57 -141 136h43c17 -55 33 -96 98 -96c59 0 82 45 97 96h43c-20 -76 -54 -136 -140 -136z" />
    <glyph glyph-name="uni0122" unicode="&#x122;" horiz-adv-x="740" 
d="M95 375c0 104 12 220 51 287c44 76 103 109 226 109c79 0 159 -19 235 -40v-41c-72 19 -160 41 -235 41c-101 0 -157 -25 -196 -101c-28 -55 -39 -161 -39 -256c0 -99 11 -182 32 -231c41 -96 116 -120 218 -120c67 0 150 12 205 20v358h41v-393
c-83 -12 -175 -25 -261 -25c-247 0 -277 192 -277 392zM347 -279c16 72 16 109 16 173v44h43v-64c0 -55 0 -93 -22 -153h-37z" />
    <glyph glyph-name="uni0123" unicode="&#x123;" horiz-adv-x="574" 
d="M68 270c0 78 9 142 35 190c37 68 95 85 172 85c60 0 159 -32 211 -49v-466c0 -153 -82 -239 -236 -239c-56 0 -118 8 -164 14v41c37 -6 111 -16 164 -16c130 0 196 76 196 203v29c-63 -31 -133 -62 -204 -62c-88 0 -120 33 -143 78c-21 41 -31 114 -31 192zM137 438
c-20 -39 -28 -103 -28 -168c0 -76 9 -136 26 -173c19 -42 52 -58 107 -58c66 0 145 39 204 68v360c-30 10 -117 39 -173 39c-70 0 -110 -17 -136 -68zM299 605h-43v64c0 55 0 93 22 153h37c-16 -72 -16 -109 -16 -173v-44z" />
    <glyph glyph-name="Gdotaccent" unicode="&#x120;" horiz-adv-x="740" 
d="M95 375c0 104 12 220 51 287c44 76 103 109 226 109c79 0 159 -19 235 -40v-41c-72 19 -160 41 -235 41c-101 0 -157 -25 -196 -101c-28 -55 -39 -161 -39 -256c0 -99 11 -182 32 -231c41 -96 116 -120 218 -120c67 0 150 12 205 20v358h41v-393
c-83 -12 -175 -25 -261 -25c-247 0 -277 192 -277 392zM397 824h-44v126h44v-126z" />
    <glyph glyph-name="gdotaccent" unicode="&#x121;" horiz-adv-x="574" 
d="M68 270c0 78 9 142 35 190c37 68 95 85 172 85c60 0 159 -32 211 -49v-466c0 -153 -82 -239 -236 -239c-56 0 -118 8 -164 14v41c37 -6 111 -16 164 -16c130 0 196 76 196 203v29c-63 -31 -133 -62 -204 -62c-88 0 -120 33 -143 78c-21 41 -31 114 -31 192zM137 438
c-20 -39 -28 -103 -28 -168c0 -76 9 -136 26 -173c19 -42 52 -58 107 -58c66 0 145 39 204 68v360c-30 10 -117 39 -173 39c-70 0 -110 -17 -136 -68zM304 628h-44v126h44v-126z" />
    <glyph glyph-name="Hcircumflex" unicode="&#x124;" horiz-adv-x="769" 
d="M110 0v754h41v-333h467v333h41v-754h-41v381h-467v-381h-41zM241 818l121 132h46l120 -132h-56l-87 94l-88 -94h-56z" />
    <glyph glyph-name="hcircumflex" unicode="&#x125;" horiz-adv-x="572" 
d="M88 0v754h40v-265c74 33 137 56 199 56c138 0 159 -71 159 -194v-351h-40v352c0 95 -11 154 -119 154c-67 0 -135 -31 -199 -60v-446h-40zM21 818h-56l121 132h46l120 -132h-56l-87 94z" />
    <glyph glyph-name="Hbar" unicode="&#x126;" horiz-adv-x="769" 
d="M151 0h-41v754h41v-172h467v172h41v-754h-41v374h-467v-374zM151 414h467v128h-467v-128z" />
    <glyph glyph-name="hbar" unicode="&#x127;" horiz-adv-x="572" 
d="M0 649h88v105h40v-105h132v-39h-132v-121c74 33 137 56 199 56c138 0 159 -71 159 -194v-351h-40v352c0 95 -11 154 -119 154c-67 0 -135 -31 -199 -60v-446h-40v610h-88v39z" />
    <glyph glyph-name="Iacute" unicode="&#xcd;" horiz-adv-x="261" 
d="M151 0h-41v754h41v-754zM155 818h-56l114 132h57z" />
    <glyph glyph-name="iacute" unicode="&#xed;" horiz-adv-x="216" 
d="M118 622h-56l114 132h57zM128 0h-40v528h40v-528z" />
    <glyph glyph-name="Igrave" unicode="&#xcc;" horiz-adv-x="261" 
d="M151 0h-41v754h41v-754zM166 818h-55l-112 132h57z" />
    <glyph glyph-name="igrave" unicode="&#xec;" horiz-adv-x="216" 
d="M146 622h-55l-111 132h56zM128 0h-40v528h40v-528z" />
    <glyph glyph-name="Icircumflex" unicode="&#xce;" horiz-adv-x="261" 
d="M151 0h-41v754h41v-754zM42 818h-57l122 132h46l120 -132h-56l-87 94z" />
    <glyph glyph-name="icircumflex" unicode="&#xee;" horiz-adv-x="216" 
d="M88 0v528h40v-528h-40zM19 622h-56l121 132h46l120 -132h-56l-87 94z" />
    <glyph glyph-name="Idieresis" unicode="&#xcf;" horiz-adv-x="261" 
d="M151 0h-41v754h41v-754zM162 950h44v-126h-44v126zM99 824h-44v126h44v-126z" />
    <glyph glyph-name="idieresis" unicode="&#xef;" horiz-adv-x="216" 
d="M128 0h-40v528h40v-528zM35 628v126h43v-126h-43zM139 754h42v-126h-42v126z" />
    <glyph glyph-name="Itilde" unicode="&#x128;" horiz-adv-x="261" 
d="M110 0v754h41v-754h-41zM-44 831c31 81 56 105 103 105c25 0 44 -7 77 -35c27 -23 42 -35 64 -35c35 0 45 25 60 63h44c-25 -59 -43 -102 -105 -102c-26 0 -45 6 -70 28c-31 28 -49 42 -70 42c-33 0 -46 -33 -60 -66h-43z" />
    <glyph glyph-name="itilde" unicode="&#x129;" horiz-adv-x="216" 
d="M88 0v528h40v-528h-40zM-64 629c31 81 55 105 103 105c25 0 44 -7 77 -35c27 -23 42 -35 64 -35c35 0 45 25 60 63h44c-25 -59 -43 -102 -105 -102c-26 0 -45 6 -70 28c-31 28 -49 42 -70 42c-33 0 -47 -33 -60 -66h-43z" />
    <glyph glyph-name="Imacron" unicode="&#x12a;" horiz-adv-x="261" 
d="M151 0h-41v754h41v-754zM264 844h-268v40h268v-40z" />
    <glyph glyph-name="imacron" unicode="&#x12b;" horiz-adv-x="216" 
d="M128 0h-40v528h40v-528zM241 650h-267v40h267v-40z" />
    <glyph glyph-name="Ibreve" unicode="&#x12c;" horiz-adv-x="261" 
d="M110 754h41v-754h-41v754zM-11 950h43c17 -55 33 -96 98 -96c59 0 82 45 97 96h43c-20 -76 -54 -136 -140 -136c-89 0 -120 57 -141 136z" />
    <glyph glyph-name="ibreve" unicode="&#x12d;" horiz-adv-x="216" 
d="M88 528h40v-528h-40v528zM-34 754h43c17 -55 33 -96 98 -96c59 0 82 45 97 96h43c-20 -76 -54 -136 -140 -136c-89 0 -120 57 -141 136z" />
    <glyph glyph-name="Iogonek" unicode="&#x12e;" horiz-adv-x="261" 
d="M52 -118c0 45 31 85 58 118v754h41v-754c-10 -13 -34 -45 -44 -65c-9 -19 -13 -35 -13 -56c0 -18 10 -32 31 -32c23 0 51 11 74 21v-43c-24 -11 -51 -18 -73 -18c-52 0 -74 24 -74 75z" />
    <glyph glyph-name="iogonek" unicode="&#x12f;" horiz-adv-x="216" 
d="M106 -193c-52 0 -75 23 -75 74c0 46 30 85 57 119v528h40v-528c-30 -39 -55 -72 -55 -123c0 -18 10 -30 31 -30c23 0 51 11 74 21v-43c-24 -11 -50 -18 -72 -18zM131 621h-46v133h46v-133z" />
    <glyph glyph-name="Idotaccent" unicode="&#x130;" horiz-adv-x="261" 
d="M151 0h-41v754h41v-754zM151 824h-44v126h44v-126z" />
    <glyph glyph-name="dotlessi" unicode="&#x131;" horiz-adv-x="216" 
d="M128 0h-40v528h40v-528z" />
    <glyph glyph-name="uni1ECA" unicode="&#x1eca;" horiz-adv-x="261" 
d="M151 0h-41v754h41v-754zM151 -187h-44v126h44v-126z" />
    <glyph glyph-name="uni1ECB" unicode="&#x1ecb;" horiz-adv-x="216" 
d="M88 0v528h40v-528h-40zM86 628v126h44v-126h-44zM130 -192h-44v126h44v-126z" />
    <glyph glyph-name="IJ" unicode="&#x132;" horiz-adv-x="595" 
d="M225 -84v42c35 11 117 40 156 62c29 16 47 31 56 56c10 29 10 81 10 134v544h41v-539c0 -70 0 -114 -11 -150c-8 -26 -24 -47 -51 -65c-53 -35 -150 -68 -201 -84zM110 754h41v-754h-41v754z" />
    <glyph glyph-name="ij" unicode="&#x133;" horiz-adv-x="431" 
d="M168 -211v44c21 10 75 37 96 55c18 16 26 30 32 48s8 59 8 90v502h40v-496c0 -38 -1 -84 -7 -106c-9 -32 -25 -54 -58 -78c-28 -21 -82 -46 -111 -59zM88 0v528h40v-528h-40zM302 628v126h44v-126h-44zM130 628h-44v126h44v-126z" />
    <glyph glyph-name="IJacute" horiz-adv-x="595" 
d="M225 -42c35 11 117 40 156 62c29 16 47 31 56 56c10 29 10 81 10 134v544h41v-539c0 -70 0 -114 -11 -150c-8 -26 -24 -47 -51 -65c-53 -35 -150 -68 -201 -84v42zM151 0h-41v754h41v-754zM479 818h-56l114 132h57zM94 818l114 132h57l-115 -132h-56z" />
    <glyph glyph-name="ijacute" horiz-adv-x="431" 
d="M279 -152c-28 -21 -82 -46 -111 -59v44c21 10 75 37 96 55c18 16 26 30 32 48s8 59 8 90v502h40v-496c0 -38 -1 -84 -7 -106c-9 -32 -25 -54 -58 -78zM128 0h-40v528h40v-528zM340 622h-56l114 132h57zM70 622l114 132h57l-115 -132h-56z" />
    <glyph glyph-name="Jcircumflex" unicode="&#x134;" horiz-adv-x="364" 
d="M-6 -42c35 11 117 40 156 62c29 16 47 31 56 56c10 29 10 81 10 134v544h41v-539c0 -70 0 -114 -11 -150c-8 -26 -24 -47 -51 -65c-53 -35 -150 -68 -201 -84v42zM143 818h-56l121 132h46l120 -132h-56l-87 94z" />
    <glyph glyph-name="jcircumflex" unicode="&#x135;" horiz-adv-x="227" 
d="M-37 -167c21 10 75 37 96 55c18 16 26 30 32 48s8 59 8 90v502h40v-496c0 -38 -1 -84 -7 -106c-9 -32 -25 -54 -58 -78c-28 -21 -82 -46 -111 -59v44zM22 622h-57l122 132h46l120 -132h-56l-87 94z" />
    <glyph glyph-name="uni0237" unicode="&#x237;" horiz-adv-x="227" 
d="M-37 -211v44c21 10 75 37 96 55c18 16 26 30 32 48s8 59 8 90v502h40v-496c0 -38 -1 -84 -7 -106c-9 -32 -25 -54 -58 -78c-28 -21 -82 -46 -111 -59z" />
    <glyph glyph-name="uni0136" unicode="&#x136;" horiz-adv-x="622" 
d="M151 0h-41v754h41v-365l380 365h61l-391 -374l422 -380h-63l-409 369v-369zM301 -280h-37c16 72 16 109 16 173v44h43v-64c0 -55 0 -93 -22 -153z" />
    <glyph glyph-name="uni0137" unicode="&#x137;" horiz-adv-x="475" 
d="M88 754h40v-457l254 231h60l-266 -242l291 -286h-58l-281 277v-277h-40v754zM231 -280h-37c16 72 16 109 16 173v44h43v-64c0 -55 0 -93 -22 -153z" />
    <glyph glyph-name="kgreenlandic" unicode="&#x138;" horiz-adv-x="486" 
d="M128 0h-40v528h40v-244c61 16 148 53 199 102c30 29 56 82 69 142h41c-34 -157 -102 -212 -247 -265l277 -263h-58l-281 266v-266z" />
    <glyph glyph-name="Lacute" unicode="&#x139;" horiz-adv-x="615" 
d="M576 0h-466v754h41v-714h425v-40zM159 818h-56l114 132h57z" />
    <glyph glyph-name="lacute" unicode="&#x13a;" horiz-adv-x="216" 
d="M128 0h-40v754h40v-754zM137 818h-56l114 132h57z" />
    <glyph glyph-name="Lcaron" unicode="&#x13d;" horiz-adv-x="615" 
d="M576 0h-466v754h41v-714h425v-40zM316 567v187h43v-67c0 -21 0 -59 -7 -120h-36z" />
    <glyph glyph-name="lcaron" unicode="&#x13e;" horiz-adv-x="224" 
d="M88 754h40v-754h-40v754zM189 567v187h43v-67c0 -21 0 -59 -7 -120h-36z" />
    <glyph glyph-name="uni013B" unicode="&#x13b;" horiz-adv-x="615" 
d="M576 0h-466v754h41v-714h425v-40zM342 -280h-37c16 72 16 109 16 173v44h43v-64c0 -55 0 -93 -22 -153z" />
    <glyph glyph-name="uni013C" unicode="&#x13c;" horiz-adv-x="216" 
d="M128 0h-40v754h40v-754zM108 -280h-37c16 72 16 109 16 173v44h43v-64c0 -55 0 -93 -22 -153z" />
    <glyph glyph-name="Ldot" unicode="&#x13f;" horiz-adv-x="615" 
d="M576 0h-466v754h41v-714h425v-40zM454 327h-44v126h44v-126z" />
    <glyph glyph-name="ldot" unicode="&#x140;" horiz-adv-x="260" 
d="M128 0h-40v754h40v-754zM259 327h-44v126h44v-126z" />
    <glyph glyph-name="Lslash" unicode="&#x141;" horiz-adv-x="615" 
d="M25 337l85 56v361h41v-334l165 108v-48l-165 -108v-332h425v-40h-466v345l-85 -56v48z" />
    <glyph glyph-name="lslash" unicode="&#x142;" horiz-adv-x="236" 
d="M16 366l82 52v336h40v-310l82 52v-46l-82 -52v-398h-40v372l-82 -52v46z" />
    <glyph glyph-name="Nacute" unicode="&#x143;" horiz-adv-x="756" 
d="M151 0h-41v754h62l433 -709v709h41v-754h-62l-433 709v-709zM370 818h-56l114 132h57z" />
    <glyph glyph-name="nacute" unicode="&#x144;" horiz-adv-x="575" 
d="M88 0v528h40v-43c76 34 135 60 202 60c139 0 159 -72 159 -194v-351h-40v353c0 95 -10 153 -119 153c-63 0 -139 -35 -202 -64v-442h-40zM270 622h-56l114 132h57z" />
    <glyph glyph-name="Ncaron" unicode="&#x147;" horiz-adv-x="756" 
d="M110 0v754h62l433 -709v709h41v-754h-62l-433 709v-709h-41zM351 818l-121 132h56l88 -94l87 94h56l-120 -132h-46z" />
    <glyph glyph-name="ncaron" unicode="&#x148;" horiz-adv-x="575" 
d="M88 0v528h40v-43c76 34 135 60 202 60c139 0 159 -72 159 -194v-351h-40v353c0 95 -10 153 -119 153c-63 0 -139 -35 -202 -64v-442h-40zM143 754h56l88 -94l87 94h56l-120 -132h-46z" />
    <glyph glyph-name="Ntilde" unicode="&#xd1;" horiz-adv-x="756" 
d="M151 0h-41v754h62l433 -709v709h41v-754h-62l-433 709v-709zM254 822h-43c31 81 55 105 102 105c25 0 44 -7 77 -35c27 -23 42 -35 64 -35c35 0 45 25 60 63h44c-25 -59 -43 -102 -105 -102c-26 0 -45 6 -70 28c-31 28 -49 42 -70 42c-33 0 -46 -33 -59 -66z" />
    <glyph glyph-name="ntilde" unicode="&#xf1;" horiz-adv-x="575" 
d="M128 0h-40v528h40v-43c76 34 135 60 202 60c139 0 159 -72 159 -194v-351h-40v353c0 95 -10 153 -119 153c-63 0 -139 -35 -202 -64v-442zM162 629h-43c31 81 55 105 102 105c25 0 44 -7 77 -35c27 -23 42 -35 64 -35c35 0 45 25 60 63h44c-25 -59 -43 -102 -105 -102
c-26 0 -45 6 -70 28c-31 28 -49 42 -70 42c-33 0 -46 -33 -59 -66z" />
    <glyph glyph-name="uni0145" unicode="&#x145;" horiz-adv-x="756" 
d="M151 0h-41v754h62l433 -709v709h41v-754h-62l-433 709v-709zM333 -280c16 72 16 109 16 173v44h43v-64c0 -55 0 -93 -22 -153h-37z" />
    <glyph glyph-name="uni0146" unicode="&#x146;" horiz-adv-x="575" 
d="M88 0v528h40v-43c76 34 135 60 202 60c139 0 159 -72 159 -194v-351h-40v353c0 95 -10 153 -119 153c-63 0 -139 -35 -202 -64v-442h-40zM279 -280h-37c16 72 16 109 16 173v44h43v-64c0 -55 0 -93 -22 -153z" />
    <glyph glyph-name="napostrophe" unicode="&#x149;" horiz-adv-x="614" 
d="M167 0h-40v528h40v-43c76 34 135 60 202 60c139 0 159 -72 159 -194v-351h-40v353c0 95 -10 153 -119 153c-63 0 -139 -35 -202 -64v-442zM58 537h-37c16 72 16 109 16 173v44h43v-64c0 -55 0 -93 -22 -153z" />
    <glyph glyph-name="uni019D" unicode="&#x19d;" horiz-adv-x="756" 
d="M-78 -173c50 16 159 51 178 106c10 29 10 81 10 134v687h62l433 -709v709h41v-754h-62l-433 709v-637c0 -70 0 -114 -11 -150c-8 -26 -24 -47 -51 -65c-53 -35 -116 -56 -167 -72v42z" />
    <glyph glyph-name="uni0272" unicode="&#x272;" horiz-adv-x="575" 
d="M63 -152c-28 -21 -82 -46 -111 -59v44c21 10 75 37 96 55c18 16 26 30 32 48s8 59 8 90v502h40v-43c76 34 135 60 202 60c139 0 159 -72 159 -194v-351h-40v353c0 95 -10 153 -119 153c-63 0 -139 -35 -202 -64v-410c0 -38 -1 -84 -7 -106c-9 -32 -25 -54 -58 -78z" />
    <glyph glyph-name="Eng" unicode="&#x14a;" horiz-adv-x="756" 
d="M110 754h62l433 -709v709h41v-670c0 -70 0 -114 -11 -150c-8 -26 -24 -47 -51 -65c-53 -35 -150 -68 -201 -84v42c35 11 117 40 156 62c37 21 58 41 62 84l-450 736v-709h-41v754z" />
    <glyph glyph-name="eng" unicode="&#x14b;" horiz-adv-x="575" 
d="M88 0v528h40v-43c76 34 135 60 202 60c139 0 159 -72 159 -194v-319c0 -38 -1 -84 -7 -106c-9 -32 -25 -54 -58 -78c-28 -21 -82 -46 -111 -59v44c21 10 75 37 96 55c18 16 26 30 32 48s8 59 8 90v327c0 95 -10 153 -119 153c-63 0 -139 -35 -202 -64v-442h-40z" />
    <glyph glyph-name="Oacute" unicode="&#xd3;" horiz-adv-x="801" 
d="M95 378c0 83 8 201 41 262c45 83 130 131 264 131c116 0 192 -31 242 -102c47 -67 64 -194 64 -291c0 -75 -11 -209 -59 -283c-55 -84 -139 -112 -247 -112c-131 0 -212 36 -255 109c-41 69 -50 191 -50 286zM137 378c0 -78 8 -201 41 -259c46 -80 128 -96 222 -96
c85 0 149 17 200 78c49 58 64 178 64 277c0 90 -14 198 -51 259c-43 71 -117 94 -213 94c-239 0 -263 -155 -263 -353zM400 818h-56l114 132h57z" />
    <glyph glyph-name="oacute" unicode="&#xf3;" 
d="M67 261c0 155 31 284 218 284c181 0 218 -119 218 -279c0 -155 -35 -283 -218 -283c-90 0 -141 23 -176 78c-28 44 -42 125 -42 200zM108 262c0 -67 11 -136 32 -173c30 -53 75 -67 145 -67c69 0 116 19 143 65c23 40 34 110 34 180c0 132 -19 239 -177 239
c-159 0 -177 -114 -177 -244zM273 622h-56l114 132h57z" />
    <glyph glyph-name="Ograve" unicode="&#xd2;" horiz-adv-x="801" 
d="M95 378c0 83 8 201 41 262c45 83 130 131 264 131c116 0 192 -31 242 -102c47 -67 64 -194 64 -291c0 -75 -11 -209 -59 -283c-55 -84 -139 -112 -247 -112c-131 0 -212 36 -255 109c-41 69 -50 191 -50 286zM137 378c0 -78 8 -201 41 -259c46 -80 128 -96 222 -96
c85 0 149 17 200 78c49 58 64 178 64 277c0 90 -14 198 -51 259c-43 71 -117 94 -213 94c-239 0 -263 -155 -263 -353zM384 818l-111 132h56l110 -132h-55z" />
    <glyph glyph-name="ograve" unicode="&#xf2;" 
d="M67 261c0 155 31 284 218 284c181 0 218 -119 218 -279c0 -155 -35 -283 -218 -283c-90 0 -141 23 -176 78c-28 44 -42 125 -42 200zM108 262c0 -67 11 -136 32 -173c30 -53 75 -67 145 -67c69 0 116 19 143 65c23 40 34 110 34 180c0 132 -19 239 -177 239
c-159 0 -177 -114 -177 -244zM283 622l-111 132h56l110 -132h-55z" />
    <glyph glyph-name="Ocircumflex" unicode="&#xd4;" horiz-adv-x="801" 
d="M95 378c0 83 8 201 41 262c45 83 130 131 264 131c116 0 192 -31 242 -102c47 -67 64 -194 64 -291c0 -75 -11 -209 -59 -283c-55 -84 -139 -112 -247 -112c-131 0 -212 36 -255 109c-41 69 -50 191 -50 286zM137 378c0 -78 8 -201 41 -259c46 -80 128 -96 222 -96
c85 0 149 17 200 78c49 58 64 178 64 277c0 90 -14 198 -51 259c-43 71 -117 94 -213 94c-239 0 -263 -155 -263 -353zM313 818h-56l121 132h46l120 -132h-56l-87 94z" />
    <glyph glyph-name="ocircumflex" unicode="&#xf4;" 
d="M67 261c0 155 31 284 218 284c181 0 218 -119 218 -279c0 -155 -35 -283 -218 -283c-90 0 -141 23 -176 78c-28 44 -42 125 -42 200zM108 262c0 -67 11 -136 32 -173c30 -53 75 -67 145 -67c69 0 116 19 143 65c23 40 34 110 34 180c0 132 -19 239 -177 239
c-159 0 -177 -114 -177 -244zM198 625h-56l121 132h46l120 -132h-56l-87 94z" />
    <glyph glyph-name="Odieresis" unicode="&#xd6;" horiz-adv-x="801" 
d="M145 92c-41 69 -50 191 -50 286c0 83 8 201 41 262c45 83 130 131 264 131c116 0 192 -31 242 -102c47 -67 64 -194 64 -291c0 -75 -11 -209 -59 -283c-55 -84 -139 -112 -247 -112c-131 0 -212 36 -255 109zM137 378c0 -78 8 -201 41 -259c46 -80 128 -96 222 -96
c85 0 149 17 200 78c49 58 64 178 64 277c0 90 -14 198 -51 259c-43 71 -117 94 -213 94c-239 0 -263 -155 -263 -353zM475 950h44v-126h-44v126zM325 824h-44v126h44v-126z" />
    <glyph glyph-name="odieresis" unicode="&#xf6;" 
d="M109 61c-28 44 -42 125 -42 200c0 155 31 284 218 284c181 0 218 -119 218 -279c0 -155 -35 -283 -218 -283c-90 0 -141 23 -176 78zM108 262c0 -67 11 -136 32 -173c30 -53 75 -67 145 -67c69 0 116 19 143 65c23 40 34 110 34 180c0 132 -19 239 -177 239
c-159 0 -177 -114 -177 -244zM346 754h43v-126h-43v126zM224 628h-43v126h43v-126z" />
    <glyph glyph-name="Otilde" unicode="&#xd5;" horiz-adv-x="801" 
d="M145 92c-41 69 -50 191 -50 286c0 83 8 201 41 262c45 83 130 131 264 131c116 0 192 -31 242 -102c47 -67 64 -194 64 -291c0 -75 -11 -209 -59 -283c-55 -84 -139 -112 -247 -112c-131 0 -212 36 -255 109zM400 731c-239 0 -263 -155 -263 -353c0 -78 8 -201 41 -259
c46 -80 128 -96 222 -96c85 0 149 17 200 78c49 58 64 178 64 277c0 90 -14 198 -51 259c-43 71 -117 94 -213 94zM271 822h-43c31 81 55 105 102 105c25 0 44 -7 77 -35c27 -23 42 -35 64 -35c35 0 45 25 60 63h44c-25 -59 -43 -102 -105 -102c-26 0 -45 6 -70 28
c-31 28 -49 42 -70 42c-33 0 -46 -33 -59 -66z" />
    <glyph glyph-name="otilde" unicode="&#xf5;" 
d="M67 261c0 155 31 284 218 284c181 0 218 -119 218 -279c0 -155 -35 -283 -218 -283c-90 0 -141 23 -176 78c-28 44 -42 125 -42 200zM108 262c0 -67 11 -136 32 -173c30 -53 75 -67 145 -67c69 0 116 19 143 65c23 40 34 110 34 180c0 132 -19 239 -177 239
c-159 0 -177 -114 -177 -244zM115 629c31 81 55 105 102 105c25 0 44 -7 77 -35c27 -23 42 -35 64 -35c35 0 45 25 60 63h44c-25 -59 -43 -102 -105 -102c-26 0 -45 6 -70 28c-31 28 -49 42 -70 42c-33 0 -46 -33 -59 -66h-43z" />
    <glyph glyph-name="Oslash" unicode="&#xd8;" horiz-adv-x="801" 
d="M95 378c0 83 8 201 41 262c45 83 130 131 264 131c116 0 192 -31 242 -102c47 -67 64 -194 64 -291c0 -75 -11 -209 -59 -283c-55 -84 -139 -112 -247 -112c-131 0 -212 36 -255 109c-41 69 -50 191 -50 286zM226 65c46 -34 107 -42 174 -42c85 0 149 17 200 78
c49 58 64 178 64 277c0 82 -11 216 -67 281zM400 731c-239 0 -263 -155 -263 -353c0 -80 5 -222 59 -285l371 594c-43 33 -98 44 -167 44z" />
    <glyph glyph-name="oslash" unicode="&#xf8;" 
d="M67 261c0 155 31 284 218 284c181 0 218 -119 218 -279c0 -155 -35 -283 -218 -283c-90 0 -141 23 -176 78c-28 44 -42 125 -42 200zM174 49c28 -20 63 -27 111 -27c69 0 116 19 143 65c23 40 34 110 34 180c0 53 -3 140 -39 183zM285 506c-159 0 -177 -113 -177 -244
c0 -54 7 -138 38 -184l249 401c-28 20 -64 27 -110 27z" />
    <glyph glyph-name="Oslashacute" unicode="&#x1fe;" horiz-adv-x="801" 
d="M95 378c0 83 8 201 41 262c45 83 130 131 264 131c116 0 192 -31 242 -102c47 -67 64 -194 64 -291c0 -75 -11 -209 -59 -283c-55 -84 -139 -112 -247 -112c-131 0 -212 36 -255 109c-41 69 -50 191 -50 286zM597 659l-371 -594c46 -34 107 -42 174 -42
c85 0 149 17 200 78c49 58 64 178 64 277c0 82 -11 216 -67 281zM400 731c-239 0 -263 -155 -263 -353c0 -80 5 -222 59 -285l371 594c-43 33 -98 44 -167 44zM400 818h-56l114 132h57z" />
    <glyph glyph-name="oslashacute" unicode="&#x1ff;" 
d="M67 261c0 155 31 284 218 284c181 0 218 -119 218 -279c0 -155 -35 -283 -218 -283c-90 0 -141 23 -176 78c-28 44 -42 125 -42 200zM423 450l-249 -401c28 -20 63 -27 111 -27c69 0 116 19 143 65c23 40 34 110 34 180c0 53 -3 140 -39 183zM285 506
c-159 0 -177 -113 -177 -244c0 -54 7 -138 38 -184l249 401c-28 20 -64 27 -110 27zM273 622h-56l114 132h57z" />
    <glyph glyph-name="OE" unicode="&#x152;" horiz-adv-x="1166" 
d="M145 92c-41 69 -50 191 -50 286c0 83 8 201 41 262c45 83 130 131 264 131c90 0 120 -8 154 -17h555v-40h-492c75 -75 77 -210 77 -308h393v-40h-393c0 -88 0 -215 -48 -290c-11 -17 -20 -27 -29 -36h508v-40h-571c-33 -10 -76 -17 -154 -17c-131 0 -212 36 -255 109z
M137 378c0 -78 8 -201 41 -259c46 -80 128 -96 222 -96c96 0 167 6 211 75c37 58 41 150 41 280c0 104 -2 202 -32 262c-37 74 -92 91 -220 91c-239 0 -263 -155 -263 -353z" />
    <glyph glyph-name="oe" unicode="&#x153;" horiz-adv-x="944" 
d="M109 61c-28 44 -42 125 -42 200c0 155 31 284 218 284c93 0 157 -27 194 -115c31 82 104 115 198 115c133 0 203 -72 203 -200c0 -24 -3 -61 -10 -100h-372c0 -140 32 -223 190 -223c57 0 127 14 165 22v-41c-38 -8 -117 -20 -165 -20c-92 0 -180 23 -210 121
c-27 -81 -86 -121 -193 -121c-90 0 -141 23 -176 78zM108 262c0 -67 11 -136 32 -173c30 -53 75 -67 145 -67c69 0 116 19 142 65c23 40 33 110 33 180c0 131 -17 239 -175 239c-159 0 -177 -114 -177 -244zM677 506c-147 0 -179 -94 -179 -222h337c3 17 4 39 4 61
c0 105 -53 161 -162 161z" />
    <glyph glyph-name="Omacron" unicode="&#x14c;" horiz-adv-x="801" 
d="M95 378c0 83 8 201 41 262c45 83 130 131 264 131c116 0 192 -31 242 -102c47 -67 64 -194 64 -291c0 -75 -11 -209 -59 -283c-55 -84 -139 -112 -247 -112c-131 0 -212 36 -255 109c-41 69 -50 191 -50 286zM400 731c-239 0 -263 -155 -263 -353c0 -78 8 -201 41 -259
c46 -80 128 -96 222 -96c85 0 149 17 200 78c49 58 64 178 64 277c0 90 -14 198 -51 259c-43 71 -117 94 -213 94zM533 844h-267v40h267v-40z" />
    <glyph glyph-name="omacron" unicode="&#x14d;" 
d="M67 261c0 155 31 284 218 284c181 0 218 -119 218 -279c0 -155 -35 -283 -218 -283c-90 0 -141 23 -176 78c-28 44 -42 125 -42 200zM285 506c-159 0 -177 -113 -177 -244c0 -67 11 -136 32 -173c30 -53 75 -67 145 -67c69 0 116 19 143 65c23 40 34 110 34 180
c0 132 -19 239 -177 239zM420 650h-267v40h267v-40z" />
    <glyph glyph-name="Obreve" unicode="&#x14e;" horiz-adv-x="801" 
d="M145 92c-41 69 -50 191 -50 286c0 83 8 201 41 262c45 83 130 131 264 131c116 0 192 -31 242 -102c47 -67 64 -194 64 -291c0 -75 -11 -209 -59 -283c-55 -84 -139 -112 -247 -112c-131 0 -212 36 -255 109zM400 731c-239 0 -263 -155 -263 -353c0 -78 8 -201 41 -259
c46 -80 128 -96 222 -96c85 0 149 17 200 78c49 58 64 178 64 277c0 90 -14 198 -51 259c-43 71 -117 94 -213 94zM398 814c-89 0 -120 57 -141 136h43c17 -55 33 -96 98 -96c59 0 82 45 97 96h43c-20 -76 -54 -136 -140 -136z" />
    <glyph glyph-name="obreve" unicode="&#x14f;" 
d="M109 61c-28 44 -42 125 -42 200c0 155 31 284 218 284c181 0 218 -119 218 -279c0 -155 -35 -283 -218 -283c-90 0 -141 23 -176 78zM285 506c-159 0 -177 -113 -177 -244c0 -67 11 -136 32 -173c30 -53 75 -67 145 -67c69 0 116 19 143 65c23 40 34 110 34 180
c0 132 -19 239 -177 239zM285 618c-89 0 -120 57 -141 136h43c17 -55 33 -96 98 -96c59 0 82 45 97 96h43c-20 -76 -54 -136 -140 -136z" />
    <glyph glyph-name="uni01EA" unicode="&#x1ea;" horiz-adv-x="801" 
d="M95 378c0 83 8 201 41 262c45 83 130 131 264 131c116 0 192 -31 242 -102c47 -67 64 -194 64 -291c0 -75 -11 -209 -59 -283c-40 -62 -87 -81 -129 -98c-36 -14 -110 -77 -110 -120c0 -18 10 -30 31 -30c23 0 50 11 74 21v-43c-24 -11 -51 -18 -72 -18
c-48 0 -75 24 -75 73c0 42 39 80 69 104c-10 -1 -20 -1 -34 -1c-102 0 -202 18 -256 109c-41 69 -50 191 -50 286zM137 378c0 -78 8 -201 41 -259c46 -80 128 -96 222 -96c85 0 149 17 200 78c49 58 64 178 64 277c0 90 -14 198 -51 259c-43 71 -117 94 -213 94
c-239 0 -263 -155 -263 -353z" />
    <glyph glyph-name="uni01EB" unicode="&#x1eb;" 
d="M109 61c-28 44 -42 125 -42 200c0 155 31 284 218 284c181 0 218 -119 218 -279c0 -77 -13 -148 -33 -187s-51 -65 -94 -83c-35 -15 -108 -76 -108 -119c0 -18 10 -30 31 -30c23 0 50 11 74 21v-43c-24 -11 -51 -18 -72 -18c-48 0 -75 24 -75 73c0 44 39 77 70 103
c-78 0 -143 8 -187 78zM285 506c-159 0 -177 -113 -177 -244c0 -67 11 -136 32 -173c30 -53 75 -67 145 -67c69 0 116 19 143 65c23 40 34 110 34 180c0 132 -19 239 -177 239z" />
    <glyph glyph-name="Ohungarumlaut" unicode="&#x150;" horiz-adv-x="801" 
d="M95 378c0 83 8 201 41 262c45 83 130 131 264 131c116 0 192 -31 242 -102c47 -67 64 -194 64 -291c0 -75 -11 -209 -59 -283c-55 -84 -139 -112 -247 -112c-131 0 -212 36 -255 109c-41 69 -50 191 -50 286zM137 378c0 -78 8 -201 41 -259c46 -80 128 -96 222 -96
c85 0 149 17 200 78c49 58 64 178 64 277c0 90 -14 198 -51 259c-43 71 -117 94 -213 94c-239 0 -263 -155 -263 -353zM418 818l85 132h48l-87 -132h-46zM346 818h-46l86 132h48z" />
    <glyph glyph-name="ohungarumlaut" unicode="&#x151;" 
d="M67 261c0 155 31 284 218 284c181 0 218 -119 218 -279c0 -155 -35 -283 -218 -283c-90 0 -141 23 -176 78c-28 44 -42 125 -42 200zM108 262c0 -67 11 -136 32 -173c30 -53 75 -67 145 -67c69 0 116 19 143 65c23 40 34 110 34 180c0 132 -19 239 -177 239
c-159 0 -177 -114 -177 -244zM306 622l85 132h48l-87 -132h-46zM234 622h-46l86 132h48z" />
    <glyph glyph-name="uni1ECC" unicode="&#x1ecc;" horiz-adv-x="801" 
d="M95 378c0 83 8 201 41 262c45 83 130 131 264 131c116 0 192 -31 242 -102c47 -67 64 -194 64 -291c0 -75 -11 -209 -59 -283c-55 -84 -139 -112 -247 -112c-131 0 -212 36 -255 109c-41 69 -50 191 -50 286zM400 731c-239 0 -263 -155 -263 -353c0 -78 8 -201 41 -259
c46 -80 128 -96 222 -96c85 0 149 17 200 78c49 58 64 178 64 277c0 90 -14 198 -51 259c-43 71 -117 94 -213 94zM418 -185h-44v126h44v-126z" />
    <glyph glyph-name="uni1ECD" unicode="&#x1ecd;" 
d="M67 261c0 155 31 284 218 284c181 0 218 -119 218 -279c0 -155 -35 -283 -218 -283c-90 0 -141 23 -176 78c-28 44 -42 125 -42 200zM285 506c-159 0 -177 -113 -177 -244c0 -67 11 -136 32 -173c30 -53 75 -67 145 -67c69 0 116 19 143 65c23 40 34 110 34 180
c0 132 -19 239 -177 239zM304 -185h-44v126h44v-126z" />
    <glyph glyph-name="Racute" unicode="&#x154;" horiz-adv-x="682" 
d="M151 0h-41v754h240c133 0 262 -16 262 -181c0 -65 -33 -114 -69 -154c-29 -33 -66 -69 -88 -90l197 -329h-50l-195 326h-256v-326zM151 714v-348h282c30 29 57 56 78 80c31 36 59 76 59 126c0 139 -113 142 -221 142h-198zM280 818l114 132h57l-115 -132h-56z" />
    <glyph glyph-name="racute" unicode="&#x155;" horiz-adv-x="330" 
d="M88 528h40v-67c63 44 112 63 188 79v-41c-77 -16 -124 -40 -188 -86v-413h-40v528zM98 622l114 132h57l-115 -132h-56z" />
    <glyph glyph-name="Rcaron" unicode="&#x158;" horiz-adv-x="682" 
d="M110 0v754h240c133 0 262 -16 262 -181c0 -65 -33 -114 -69 -154c-29 -33 -66 -69 -88 -90l197 -329h-50l-195 326h-256v-326h-41zM151 714v-348h282c30 29 57 56 78 80c31 36 59 76 59 126c0 139 -113 142 -221 142h-198zM179 950h56l88 -94l87 94h56l-120 -132h-46z
" />
    <glyph glyph-name="rcaron" unicode="&#x159;" horiz-adv-x="330" 
d="M128 0h-40v528h40v-67c63 44 112 63 188 79v-41c-77 -16 -124 -40 -188 -86v-413zM145 622l-121 132h56l88 -94l87 94h56l-120 -132h-46z" />
    <glyph glyph-name="uni0156" unicode="&#x156;" horiz-adv-x="682" 
d="M110 754h240c133 0 262 -16 262 -181c0 -65 -33 -114 -69 -154c-29 -33 -66 -69 -88 -90l197 -329h-50l-195 326h-256v-326h-41v754zM151 714v-348h282c30 29 57 56 78 80c31 36 59 76 59 126c0 139 -113 142 -221 142h-198zM298 -280c16 72 16 109 16 173v44h43v-64
c0 -55 0 -93 -22 -153h-37z" />
    <glyph glyph-name="uni0157" unicode="&#x157;" horiz-adv-x="330" 
d="M128 0h-40v528h40v-67c63 44 112 63 188 79v-41c-77 -16 -124 -40 -188 -86v-413zM107 -280h-37c16 72 16 109 16 173v44h43v-64c0 -55 0 -93 -22 -153z" />
    <glyph glyph-name="Sacute" unicode="&#x15a;" horiz-adv-x="640" 
d="M69 574c0 42 9 101 49 141c42 42 95 56 187 56c83 0 160 -21 247 -45v-41c-70 19 -171 46 -247 46c-113 0 -194 -29 -194 -157c0 -40 5 -69 27 -91c18 -18 59 -35 106 -51l170 -59c103 -36 157 -72 157 -187c0 -53 -20 -106 -55 -141c-46 -46 -106 -62 -192 -62
c-85 0 -190 25 -249 39v42c67 -16 177 -41 246 -41c70 0 114 10 152 40c36 28 56 76 56 125c0 97 -50 119 -134 148l-171 60c-102 36 -155 58 -155 178zM255 818l114 132h57l-115 -132h-56z" />
    <glyph glyph-name="sacute" unicode="&#x15b;" horiz-adv-x="503" 
d="M62 406c0 113 87 139 183 139c57 0 140 -21 176 -31v-40c-39 10 -127 32 -176 32c-72 0 -142 -13 -142 -100c0 -30 5 -51 22 -65c18 -14 41 -23 82 -36l101 -33c74 -24 133 -51 133 -140c0 -119 -104 -149 -203 -149c-63 0 -123 14 -170 25v40c56 -13 112 -26 170 -26
c71 0 162 18 162 107c0 69 -47 85 -105 104l-93 31c-52 17 -79 26 -102 43c-30 22 -38 56 -38 99zM189 622l114 132h57l-115 -132h-56z" />
    <glyph glyph-name="Scircumflex" unicode="&#x15c;" horiz-adv-x="640" 
d="M69 574c0 42 9 101 49 141c42 42 95 56 187 56c83 0 160 -21 247 -45v-41c-70 19 -171 46 -247 46c-113 0 -194 -29 -194 -157c0 -40 5 -69 27 -91c18 -18 59 -35 106 -51l170 -59c103 -36 157 -72 157 -187c0 -53 -20 -106 -55 -141c-46 -46 -106 -62 -192 -62
c-85 0 -190 25 -249 39v42c67 -16 177 -41 246 -41c70 0 114 10 152 40c36 28 56 76 56 125c0 97 -50 119 -134 148l-171 60c-102 36 -155 58 -155 178zM230 818h-56l121 132h46l120 -132h-56l-87 94z" />
    <glyph glyph-name="scircumflex" unicode="&#x15d;" horiz-adv-x="503" 
d="M62 406c0 113 87 139 183 139c57 0 140 -21 176 -31v-40c-39 10 -127 32 -176 32c-72 0 -142 -13 -142 -100c0 -30 5 -51 22 -65c18 -14 41 -23 82 -36l101 -33c74 -24 133 -51 133 -140c0 -119 -104 -149 -203 -149c-63 0 -123 14 -170 25v40c56 -13 112 -26 170 -26
c71 0 162 18 162 107c0 69 -47 85 -105 104l-93 31c-52 17 -79 26 -102 43c-30 22 -38 56 -38 99zM162 622h-56l121 132h46l120 -132h-56l-87 94z" />
    <glyph glyph-name="Scaron" unicode="&#x160;" horiz-adv-x="640" 
d="M69 574c0 42 9 101 49 141c42 42 95 56 187 56c83 0 160 -21 247 -45v-41c-70 19 -171 46 -247 46c-113 0 -194 -29 -194 -157c0 -40 5 -69 27 -91c18 -18 59 -35 106 -51l170 -59c103 -36 157 -72 157 -187c0 -53 -20 -106 -55 -141c-46 -46 -106 -62 -192 -62
c-85 0 -190 25 -249 39v42c67 -16 177 -41 246 -41c70 0 114 10 152 40c36 28 56 76 56 125c0 97 -50 119 -134 148l-171 60c-102 36 -155 58 -155 178zM178 950h56l88 -94l87 94h56l-120 -132h-46z" />
    <glyph glyph-name="scaron" unicode="&#x161;" horiz-adv-x="503" 
d="M62 406c0 113 87 139 183 139c57 0 140 -21 176 -31v-40c-39 10 -127 32 -176 32c-72 0 -142 -13 -142 -100c0 -30 5 -51 22 -65c18 -14 41 -23 82 -36l101 -33c74 -24 133 -51 133 -140c0 -119 -104 -149 -203 -149c-63 0 -123 14 -170 25v40c56 -13 112 -26 170 -26
c71 0 162 18 162 107c0 69 -47 85 -105 104l-93 31c-52 17 -79 26 -102 43c-30 22 -38 56 -38 99zM99 754h56l88 -94l87 94h56l-120 -132h-46z" />
    <glyph glyph-name="Scedilla" unicode="&#x15e;" horiz-adv-x="640" 
d="M69 574c0 42 9 101 49 141c42 42 95 56 187 56c83 0 160 -21 247 -45v-41c-70 19 -171 46 -247 46c-113 0 -194 -29 -194 -157c0 -40 5 -69 27 -91c18 -18 59 -35 106 -51l170 -59c103 -36 157 -72 157 -187c0 -53 -20 -106 -55 -141c-46 -46 -106 -62 -192 -62
c-85 0 -190 25 -249 39v42c67 -16 177 -41 246 -41c70 0 114 10 152 40c36 28 56 76 56 125c0 97 -50 119 -134 148l-171 60c-102 36 -155 58 -155 178zM227 -191l80 131h53l-81 -131h-52z" />
    <glyph glyph-name="scedilla" unicode="&#x15f;" horiz-adv-x="503" 
d="M62 406c0 113 87 139 183 139c57 0 140 -21 176 -31v-40c-39 10 -127 32 -176 32c-72 0 -142 -13 -142 -100c0 -30 5 -51 22 -65c18 -14 41 -23 82 -36l101 -33c74 -24 133 -51 133 -140c0 -119 -104 -149 -203 -149c-63 0 -123 14 -170 25v40c56 -13 112 -26 170 -26
c71 0 162 18 162 107c0 69 -47 85 -105 104l-93 31c-52 17 -79 26 -102 43c-30 22 -38 56 -38 99zM162 -191l80 131h53l-81 -131h-52z" />
    <glyph glyph-name="uni0218" unicode="&#x218;" horiz-adv-x="640" 
d="M69 574c0 42 9 101 49 141c42 42 95 56 187 56c83 0 160 -21 247 -45v-41c-70 19 -171 46 -247 46c-113 0 -194 -29 -194 -157c0 -40 5 -69 27 -91c18 -18 59 -35 106 -51l170 -59c103 -36 157 -72 157 -187c0 -53 -20 -106 -55 -141c-46 -46 -106 -62 -192 -62
c-85 0 -190 25 -249 39v42c67 -16 177 -41 246 -41c70 0 114 10 152 40c36 28 56 76 56 125c0 97 -50 119 -134 148l-171 60c-102 36 -155 58 -155 178zM321 -277h-37c16 72 16 109 16 173v44h43v-64c0 -55 0 -93 -22 -153z" />
    <glyph glyph-name="uni0219" unicode="&#x219;" horiz-adv-x="503" 
d="M100 307c-30 22 -38 56 -38 99c0 113 87 139 183 139c57 0 140 -21 176 -31v-40c-39 10 -127 32 -176 32c-72 0 -142 -13 -142 -100c0 -30 5 -51 22 -65c18 -14 41 -23 82 -36l101 -33c74 -24 133 -51 133 -140c0 -119 -104 -149 -203 -149c-63 0 -123 14 -170 25v40
c56 -13 112 -26 170 -26c71 0 162 18 162 107c0 69 -47 85 -105 104l-93 31c-52 17 -79 26 -102 43zM252 -280h-37c16 72 16 109 16 173v44h43v-64c0 -55 0 -93 -22 -153z" />
    <glyph glyph-name="Thorn" unicode="&#xde;" horiz-adv-x="653" 
d="M110 754h41v-143h222c92 0 138 -18 173 -58c30 -34 45 -89 45 -143c0 -61 -10 -112 -40 -156c-29 -43 -71 -62 -138 -70c-44 -5 -152 -5 -262 -5v-179h-41v754zM151 571v-352c100 0 203 0 258 6c54 6 88 19 112 60c20 34 28 75 28 125c0 46 -12 95 -41 124
c-31 31 -74 37 -134 37h-223z" />
    <glyph glyph-name="thorn" unicode="&#xfe;" horiz-adv-x="577" 
d="M88 754h40v-294c58 46 115 85 192 85c165 0 190 -149 190 -282c0 -140 -33 -280 -202 -280c-59 0 -116 21 -180 51v-226h-40v946zM128 411v-333c59 -29 116 -56 180 -56c141 0 161 128 161 242c0 107 -13 242 -149 242c-41 0 -71 -11 -105 -32c-30 -19 -58 -40 -87 -63z
" />
    <glyph glyph-name="Tcaron" unicode="&#x164;" horiz-adv-x="661" 
d="M28 754h605v-40h-282v-714h-41v714h-282v40zM310 818l-121 132h56l88 -94l87 94h56l-120 -132h-46z" />
    <glyph glyph-name="tcaron" unicode="&#x165;" horiz-adv-x="299" 
d="M87 193v467h40v-139h159v-39h-159v-290c0 -47 0 -69 3 -95s13 -42 35 -50c23 -8 61 -11 99 -14v-40c-41 3 -84 7 -112 16c-29 9 -47 23 -56 50c-9 28 -9 60 -9 134zM184 572v182h43v-65c0 -24 0 -56 -7 -117h-36z" />
    <glyph glyph-name="uni0162" unicode="&#x162;" horiz-adv-x="661" 
d="M310 714h-282v40h605v-40h-282v-714h-41v714zM294 -191h-52l80 131h53z" />
    <glyph glyph-name="uni0163" unicode="&#x163;" horiz-adv-x="299" 
d="M87 660h40v-139h159v-39h-159v-290c0 -47 0 -69 3 -95s13 -42 35 -50c23 -8 61 -11 99 -14v-40c-41 3 -84 7 -112 16c-29 9 -47 23 -56 50c-9 28 -9 60 -9 134v467zM133 -191h-52l80 131h53z" />
    <glyph glyph-name="uni021A" unicode="&#x21a;" horiz-adv-x="661" 
d="M28 754h605v-40h-282v-714h-41v714h-282v40zM331 -280h-37c16 72 16 109 16 173v44h43v-64c0 -55 0 -93 -22 -153z" />
    <glyph glyph-name="uni021B" unicode="&#x21b;" horiz-adv-x="299" 
d="M87 660h40v-139h159v-39h-159v-290c0 -47 0 -69 3 -95s13 -42 35 -50c23 -8 61 -11 99 -14v-40c-41 3 -84 7 -112 16c-29 9 -47 23 -56 50c-9 28 -9 60 -9 134v467zM124 -280c16 72 16 109 16 173v44h43v-64c0 -55 0 -93 -22 -153h-37z" />
    <glyph glyph-name="Tbar" unicode="&#x166;" horiz-adv-x="661" 
d="M28 754h605v-40h-282v-300h150v-40h-150v-374h-41v374h-150v40h150v300h-282v40z" />
    <glyph glyph-name="tbar" unicode="&#x167;" horiz-adv-x="301" 
d="M87 660h40v-139h159v-39h-159v-116h159v-39h-159v-135c0 -47 0 -69 3 -95s13 -42 35 -50c23 -8 63 -11 99 -14v-40c-41 3 -84 7 -112 16c-29 9 -47 24 -56 51c-9 28 -9 59 -9 133v467z" />
    <glyph glyph-name="Uacute" unicode="&#xda;" horiz-adv-x="739" 
d="M106 754h41v-473c0 -182 31 -258 224 -258c195 0 221 76 221 258v473h41v-474c0 -122 -8 -197 -72 -248c-45 -36 -104 -49 -190 -49s-145 13 -192 50c-59 46 -73 122 -73 247v474zM362 818h-56l114 132h57z" />
    <glyph glyph-name="uacute" unicode="&#xfa;" horiz-adv-x="564" 
d="M87 195v333h40v-334c0 -107 1 -172 126 -172c77 0 133 17 183 32v474h40v-504c-87 -25 -143 -41 -220 -41c-157 0 -169 73 -169 212zM279 622h-56l114 132h57z" />
    <glyph glyph-name="Ugrave" unicode="&#xd9;" horiz-adv-x="739" 
d="M106 754h41v-473c0 -182 31 -258 224 -258c195 0 221 76 221 258v473h41v-474c0 -122 -8 -197 -72 -248c-45 -36 -104 -49 -190 -49s-145 13 -192 50c-59 46 -73 122 -73 247v474zM258 950h56l110 -132h-55z" />
    <glyph glyph-name="ugrave" unicode="&#xf9;" horiz-adv-x="564" 
d="M87 195v333h40v-334c0 -107 1 -172 126 -172c77 0 133 17 183 32v474h40v-504c-87 -25 -143 -41 -220 -41c-157 0 -169 73 -169 212zM174 754h56l110 -132h-55z" />
    <glyph glyph-name="Ucircumflex" unicode="&#xdb;" horiz-adv-x="739" 
d="M106 280v474h41v-473c0 -182 31 -258 224 -258c195 0 221 76 221 258v473h41v-474c0 -122 -8 -197 -72 -248c-45 -36 -104 -49 -190 -49s-145 13 -192 50c-59 46 -73 122 -73 247zM228 818l121 132h46l120 -132h-56l-87 94l-88 -94h-56z" />
    <glyph glyph-name="ucircumflex" unicode="&#xfb;" horiz-adv-x="564" 
d="M87 195v333h40v-334c0 -107 1 -172 126 -172c77 0 133 17 183 32v474h40v-504c-87 -25 -143 -41 -220 -41c-157 0 -169 73 -169 212zM193 622h-56l121 132h46l120 -132h-56l-87 94z" />
    <glyph glyph-name="Udieresis" unicode="&#xdc;" horiz-adv-x="739" 
d="M106 280v474h41v-473c0 -182 31 -258 224 -258c195 0 221 76 221 258v473h41v-474c0 -122 -8 -197 -72 -248c-45 -36 -104 -49 -190 -49s-145 13 -192 50c-59 46 -73 122 -73 247zM437 824v126h44v-126h-44zM258 950h44v-126h-44v126z" />
    <glyph glyph-name="udieresis" unicode="&#xfc;" horiz-adv-x="564" 
d="M87 528h40v-334c0 -107 1 -172 126 -172c77 0 133 17 183 32v474h40v-504c-87 -25 -143 -41 -220 -41c-157 0 -169 73 -169 212v333zM349 628v126h43v-126h-43zM172 754h43v-126h-43v126z" />
    <glyph glyph-name="Utilde" unicode="&#x168;" horiz-adv-x="739" 
d="M106 280v474h41v-473c0 -182 31 -258 224 -258c195 0 221 76 221 258v473h41v-474c0 -122 -8 -197 -72 -248c-45 -36 -104 -49 -190 -49s-145 13 -192 50c-59 46 -73 122 -73 247zM198 821c31 81 55 105 102 105c25 0 44 -7 77 -35c27 -23 42 -35 64 -35
c35 0 45 25 60 63h44c-25 -59 -43 -102 -105 -102c-26 0 -45 6 -70 28c-31 28 -49 42 -70 42c-33 0 -46 -33 -59 -66h-43z" />
    <glyph glyph-name="utilde" unicode="&#x169;" horiz-adv-x="564" 
d="M87 195v333h40v-334c0 -107 1 -172 126 -172c77 0 133 17 183 32v474h40v-504c-87 -25 -143 -41 -220 -41c-157 0 -169 73 -169 212zM112 629c31 81 55 105 102 105c25 0 44 -7 77 -35c27 -23 42 -35 64 -35c35 0 45 25 60 63h44c-25 -59 -43 -102 -105 -102
c-26 0 -45 6 -70 28c-31 28 -49 42 -70 42c-33 0 -46 -33 -59 -66h-43z" />
    <glyph glyph-name="Umacron" unicode="&#x16a;" horiz-adv-x="739" 
d="M106 754h41v-473c0 -182 31 -258 224 -258c195 0 221 76 221 258v473h41v-474c0 -122 -8 -197 -72 -248c-45 -36 -104 -49 -190 -49s-145 13 -192 50c-59 46 -73 122 -73 247v474zM237 844v40h267v-40h-267z" />
    <glyph glyph-name="umacron" unicode="&#x16b;" horiz-adv-x="564" 
d="M87 195v333h40v-334c0 -107 1 -172 126 -172c77 0 133 17 183 32v474h40v-504c-87 -25 -143 -41 -220 -41c-157 0 -169 73 -169 212zM415 650h-267v40h267v-40z" />
    <glyph glyph-name="Ubreve" unicode="&#x16c;" horiz-adv-x="739" 
d="M106 754h41v-473c0 -182 31 -258 224 -258c195 0 221 76 221 258v473h41v-474c0 -122 -8 -197 -72 -248c-45 -36 -104 -49 -190 -49s-145 13 -192 50c-59 46 -73 122 -73 247v474zM372 814c-89 0 -120 57 -141 136h43c17 -55 33 -96 98 -96c59 0 82 45 97 96h43
c-20 -76 -54 -136 -140 -136z" />
    <glyph glyph-name="ubreve" unicode="&#x16d;" horiz-adv-x="564" 
d="M87 528h40v-334c0 -107 1 -172 126 -172c77 0 133 17 183 32v474h40v-504c-87 -25 -143 -41 -220 -41c-157 0 -169 73 -169 212v333zM281 618c-89 0 -120 57 -141 136h43c17 -55 33 -96 98 -96c59 0 82 45 97 96h43c-20 -76 -54 -136 -140 -136z" />
    <glyph glyph-name="Uogonek" unicode="&#x172;" horiz-adv-x="739" 
d="M106 754h41v-473c0 -182 31 -258 224 -258c195 0 221 76 221 258v473h41v-474c0 -90 -1 -173 -53 -230c-18 -20 -42 -34 -74 -49c-35 -17 -112 -81 -112 -124c0 -18 10 -30 31 -30c23 0 50 11 74 21v-43c-24 -11 -51 -18 -72 -18c-48 0 -75 24 -75 73c0 43 40 80 71 105
c-13 -1 -34 -2 -52 -2c-86 0 -145 13 -192 50c-59 46 -73 122 -73 247v474z" />
    <glyph glyph-name="uogonek" unicode="&#x173;" horiz-adv-x="564" 
d="M87 528h40v-334c0 -107 1 -172 126 -172c77 0 133 17 183 32v474h40v-504c-19 -22 -57 -66 -79 -92c-18 -21 -26 -37 -26 -55s10 -30 31 -30c23 0 50 11 74 21v-43c-24 -11 -51 -18 -72 -18c-48 0 -75 24 -75 73c0 45 55 98 86 127c-58 -16 -99 -24 -159 -24
c-157 0 -169 73 -169 212v333z" />
    <glyph glyph-name="Uhungarumlaut" unicode="&#x170;" horiz-adv-x="739" 
d="M106 754h41v-473c0 -182 31 -258 224 -258c195 0 221 76 221 258v473h41v-474c0 -122 -8 -197 -72 -248c-45 -36 -104 -49 -190 -49s-145 13 -192 50c-59 46 -73 122 -73 247v474zM430 818h-46l85 132h48zM312 818h-46l86 132h48z" />
    <glyph glyph-name="uhungarumlaut" unicode="&#x171;" horiz-adv-x="564" 
d="M87 195v333h40v-334c0 -107 1 -172 126 -172c77 0 133 17 183 32v474h40v-504c-87 -25 -143 -41 -220 -41c-157 0 -169 73 -169 212zM298 622l85 132h48l-87 -132h-46zM226 622h-46l86 132h48z" />
    <glyph glyph-name="Uring" unicode="&#x16e;" horiz-adv-x="739" 
d="M106 754h41v-473c0 -182 31 -258 224 -258c195 0 221 76 221 258v473h41v-474c0 -122 -8 -197 -72 -248c-45 -36 -104 -49 -190 -49s-145 13 -192 50c-59 46 -73 122 -73 247v474zM367 794c-61 0 -106 39 -106 101c0 64 42 104 106 104s106 -40 106 -104
c0 -62 -45 -101 -106 -101zM367 962c-44 0 -68 -23 -68 -67c0 -42 27 -64 68 -64s68 22 68 64c0 44 -24 67 -68 67z" />
    <glyph glyph-name="uring" unicode="&#x16f;" horiz-adv-x="564" 
d="M87 195v333h40v-334c0 -107 1 -172 126 -172c77 0 133 17 183 32v474h40v-504c-87 -25 -143 -41 -220 -41c-157 0 -169 73 -169 212zM280 597c-61 0 -106 39 -106 101c0 64 42 104 106 104s106 -40 106 -104c0 -62 -45 -101 -106 -101zM280 765c-44 0 -68 -23 -68 -67
c0 -42 27 -64 68 -64s68 22 68 64c0 44 -24 67 -68 67z" />
    <glyph glyph-name="uni1EE4" unicode="&#x1ee4;" horiz-adv-x="739" 
d="M106 754h41v-473c0 -182 31 -258 224 -258c195 0 221 76 221 258v473h41v-474c0 -122 -8 -197 -72 -248c-45 -36 -104 -49 -190 -49s-145 13 -192 50c-59 46 -73 122 -73 247v474zM348 -192v126h44v-126h-44z" />
    <glyph glyph-name="uni1EE5" unicode="&#x1ee5;" horiz-adv-x="564" 
d="M87 195v333h40v-334c0 -107 1 -172 126 -172c77 0 133 17 183 32v474h40v-504c-87 -25 -143 -41 -220 -41c-157 0 -169 73 -169 212zM296 -192h-44v126h44v-126z" />
    <glyph glyph-name="Wacute" unicode="&#x1e82;" horiz-adv-x="884" 
d="M197 0l-159 754h42l151 -718l181 604h60l181 -604l151 718h42l-159 -754h-66l-179 599l-179 -599h-66zM436 818h-56l114 132h57z" />
    <glyph glyph-name="wacute" unicode="&#x1e83;" horiz-adv-x="752" 
d="M171 0l-151 528h42l138 -484l146 484h60l146 -484l138 484h42l-151 -528h-57l-148 491l-148 -491h-57zM379 622h-56l114 132h57z" />
    <glyph glyph-name="Wgrave" unicode="&#x1e80;" horiz-adv-x="884" 
d="M38 754h42l151 -718l181 604h60l181 -604l151 718h42l-159 -754h-66l-179 599l-179 -599h-66zM316 950h56l110 -132h-55z" />
    <glyph glyph-name="wgrave" unicode="&#x1e81;" horiz-adv-x="752" 
d="M20 528h42l138 -484l146 484h60l146 -484l138 484h42l-151 -528h-57l-148 491l-148 -491h-57zM375 622l-111 132h56l110 -132h-55z" />
    <glyph glyph-name="Wcircumflex" unicode="&#x174;" horiz-adv-x="884" 
d="M38 754h42l151 -718l181 604h60l181 -604l151 718h42l-159 -754h-66l-179 599l-179 -599h-66zM346 818h-56l121 132h46l120 -132h-56l-87 94z" />
    <glyph glyph-name="wcircumflex" unicode="&#x175;" horiz-adv-x="752" 
d="M20 528h42l138 -484l146 484h60l146 -484l138 484h42l-151 -528h-57l-148 491l-148 -491h-57zM291 622h-56l121 132h46l120 -132h-56l-87 94z" />
    <glyph glyph-name="Wdieresis" unicode="&#x1e84;" horiz-adv-x="884" 
d="M38 754h42l151 -718l181 604h60l181 -604l151 718h42l-159 -754h-66l-179 599l-179 -599h-66zM499 950h43v-126h-43v126zM380 824h-43v126h43v-126z" />
    <glyph glyph-name="wdieresis" unicode="&#x1e85;" horiz-adv-x="752" 
d="M20 528h42l138 -484l146 484h60l146 -484l138 484h42l-151 -528h-57l-148 491l-148 -491h-57zM436 754h43v-126h-43v126zM274 754h43v-126h-43v126z" />
    <glyph glyph-name="Yacute" unicode="&#xdd;" horiz-adv-x="592" 
d="M-6 754h49l253 -417l253 417h49l-281 -464v-290h-42v290zM233 818l114 132h57l-115 -132h-56z" />
    <glyph glyph-name="yacute" unicode="&#xfd;" horiz-adv-x="487" 
d="M14 528h44l185 -463l187 463h43l-290 -720h-44l82 202zM183 622l114 132h57l-115 -132h-56z" />
    <glyph glyph-name="Ygrave" unicode="&#x1ef2;" horiz-adv-x="592" 
d="M275 290l-281 464h49l253 -417l253 417h49l-281 -464v-290h-42v290zM295 818l-111 132h56l110 -132h-55z" />
    <glyph glyph-name="ygrave" unicode="&#x1ef3;" horiz-adv-x="487" 
d="M14 528h44l185 -463l187 463h43l-290 -720h-44l82 202zM131 754h56l110 -132h-55z" />
    <glyph glyph-name="Ycircumflex" unicode="&#x176;" horiz-adv-x="592" 
d="M275 290l-281 464h49l253 -417l253 417h49l-281 -464v-290h-42v290zM153 818l121 132h46l120 -132h-56l-87 94l-88 -94h-56z" />
    <glyph glyph-name="ycircumflex" unicode="&#x177;" horiz-adv-x="487" 
d="M14 528h44l185 -463l187 463h43l-290 -720h-44l82 202zM155 622h-56l121 132h46l120 -132h-56l-87 94z" />
    <glyph glyph-name="Ydieresis" unicode="&#x178;" horiz-adv-x="592" 
d="M275 290l-281 464h49l253 -417l253 417h49l-281 -464v-290h-42v290zM364 824v126h44v-126h-44zM183 824v126h44v-126h-44z" />
    <glyph glyph-name="ydieresis" unicode="&#xff;" horiz-adv-x="487" 
d="M14 528h44l185 -463l187 463h43l-290 -720h-44l82 202zM347 628h-43v126h43v-126zM184 628h-43v126h43v-126z" />
    <glyph glyph-name="uni1EF8" unicode="&#x1ef8;" horiz-adv-x="592" 
d="M-6 754h49l253 -417l253 417h49l-281 -464v-290h-42v290zM171 821h-43c31 81 55 105 102 105c25 0 44 -7 77 -35c27 -23 42 -35 64 -35c35 0 45 25 60 63h44c-25 -59 -43 -102 -105 -102c-26 0 -45 6 -70 28c-31 28 -49 42 -70 42c-33 0 -46 -33 -59 -66z" />
    <glyph glyph-name="uni1EF9" unicode="&#x1ef9;" horiz-adv-x="487" 
d="M14 528h44l185 -463l187 463h43l-290 -720h-44l82 202zM123 634h-43c31 81 55 105 102 105c25 0 44 -7 77 -35c27 -23 42 -35 64 -35c35 0 45 25 60 63h44c-25 -59 -43 -102 -105 -102c-26 0 -45 6 -70 28c-31 28 -49 42 -70 42c-33 0 -46 -33 -59 -66z" />
    <glyph glyph-name="uni0232" unicode="&#x232;" horiz-adv-x="592" 
d="M275 290l-281 464h49l253 -417l253 417h49l-281 -464v-290h-42v290zM162 846v40h267v-40h-267z" />
    <glyph glyph-name="uni0233" unicode="&#x233;" horiz-adv-x="487" 
d="M14 528h44l185 -463l187 463h43l-290 -720h-44l82 202zM376 650h-267v40h267v-40z" />
    <glyph glyph-name="Zacute" unicode="&#x179;" horiz-adv-x="633" 
d="M580 0h-527v45l472 669h-457v40h505v-45l-472 -669h479v-40zM313 818h-56l114 132h57z" />
    <glyph glyph-name="zacute" unicode="&#x17a;" horiz-adv-x="516" 
d="M475 0h-430v35l366 454h-350v39h406v-35l-366 -454h374v-39zM260 622h-56l114 132h57z" />
    <glyph glyph-name="Zcaron" unicode="&#x17d;" horiz-adv-x="633" 
d="M580 0h-527v45l472 669h-457v40h505v-45l-472 -669h479v-40zM174 950h56l88 -94l87 94h56l-120 -132h-46z" />
    <glyph glyph-name="zcaron" unicode="&#x17e;" horiz-adv-x="516" 
d="M475 0h-430v35l366 454h-350v39h406v-35l-366 -454h374v-39zM119 754h56l88 -94l87 94h56l-120 -132h-46z" />
    <glyph glyph-name="Zdotaccent" unicode="&#x17b;" horiz-adv-x="633" 
d="M580 0h-527v45l472 669h-457v40h505v-45l-472 -669h479v-40zM335 824h-44v126h44v-126z" />
    <glyph glyph-name="zdotaccent" unicode="&#x17c;" horiz-adv-x="516" 
d="M475 0h-430v35l366 454h-350v39h406v-35l-366 -454h374v-39zM281 628h-44v126h44v-126z" />
    <glyph glyph-name="acute" unicode="&#xb4;" horiz-adv-x="375" 
d="M164 622h-56l114 132h57z" />
    <glyph glyph-name="grave" unicode="`" horiz-adv-x="375" 
d="M262 622h-55l-111 132h56z" />
    <glyph glyph-name="circumflex" unicode="&#x2c6;" horiz-adv-x="375" 
d="M44 622l121 132h46l120 -132h-56l-87 94l-88 -94h-56z" />
    <glyph glyph-name="caron" unicode="&#x2c7;" horiz-adv-x="375" 
d="M44 754h56l88 -94l87 94h56l-120 -132h-46z" />
    <glyph glyph-name="dieresis" unicode="&#xa8;" horiz-adv-x="375" 
d="M290 628h-43v126h43v-126zM128 628h-43v126h43v-126z" />
    <glyph glyph-name="tilde" unicode="&#x2dc;" horiz-adv-x="375" 
d="M57 634h-43c31 81 55 105 102 105c25 0 44 -7 77 -35c27 -23 42 -35 64 -35c35 0 45 25 60 63h44c-25 -59 -43 -102 -105 -102c-26 0 -45 6 -70 28c-31 28 -49 42 -70 42c-33 0 -46 -33 -59 -66z" />
    <glyph glyph-name="ring" unicode="&#x2da;" horiz-adv-x="375" 
d="M188 597c-61 0 -106 39 -106 101c0 64 42 104 106 104s106 -40 106 -104c0 -62 -45 -101 -106 -101zM120 698c0 -42 27 -64 68 -64s68 22 68 64c0 44 -24 67 -68 67s-68 -23 -68 -67z" />
    <glyph glyph-name="macron" unicode="&#xaf;" horiz-adv-x="375" 
d="M321 650h-267v40h267v-40z" />
    <glyph glyph-name="breve" unicode="&#x2d8;" horiz-adv-x="375" 
d="M47 754h43c17 -55 33 -96 98 -96c59 0 82 45 97 96h43c-20 -76 -54 -136 -140 -136c-89 0 -120 57 -141 136z" />
    <glyph glyph-name="ogonek" unicode="&#x2db;" horiz-adv-x="375" 
d="M228 -120c0 46 52 93 85 120h62c-32 -24 -105 -79 -105 -123c0 -18 10 -30 31 -30c23 0 50 11 74 21v-43c-24 -11 -51 -18 -72 -18c-48 0 -75 24 -75 73z" />
    <glyph glyph-name="hungarumlaut" unicode="&#x2dd;" horiz-adv-x="375" 
d="M189 622l85 132h48l-87 -132h-46zM117 622h-46l86 132h48z" />
    <glyph glyph-name="cedilla" unicode="&#xb8;" horiz-adv-x="375" 
d="M172 -191h-52l80 131h53z" />
    <glyph glyph-name="uni0326" unicode="&#x326;" horiz-adv-x="375" 
d="M194 -280h-37c16 72 16 109 16 173v44h43v-64c0 -55 0 -93 -22 -153z" />
    <glyph glyph-name="dotaccent" unicode="&#x2d9;" horiz-adv-x="375" 
d="M209 628h-44v126h44v-126z" />
    <glyph glyph-name="asciicircum" unicode="^" horiz-adv-x="788" 
d="M62 335l308 419h48l308 -419h-53l-279 379l-279 -379h-53z" />
    <glyph glyph-name="asciitilde" unicode="~" horiz-adv-x="788" 
d="M96 198h-42c12 109 36 255 174 255c60 0 106 -23 154 -86l42 -55c31 -40 72 -86 139 -86c52 0 82 31 103 89c11 30 20 77 27 125h42c-13 -105 -38 -254 -173 -254c-66 0 -120 31 -171 99l-33 44c-30 39 -65 84 -132 84c-104 0 -121 -137 -130 -215z" />
    <glyph glyph-name="lozenge" unicode="&#x25ca;" horiz-adv-x="700" 
d="M350 -17l-283 395l283 397l283 -397zM350 56l231 322l-231 324l-231 -324z" />
    <glyph glyph-name="uni2206" unicode="&#x2206;" horiz-adv-x="720" 
d="M687 0h-654l298 754h58zM626 40l-266 674l-266 -674h532z" />
    <glyph glyph-name="uni2126" unicode="&#x2126;" horiz-adv-x="801" 
d="M76 40h186c-138 92 -167 228 -167 387c0 58 9 152 41 213c41 78 134 131 264 131c117 0 192 -35 242 -105c48 -67 64 -169 64 -239c0 -164 -32 -288 -167 -387h186v-40h-267v38c41 22 83 48 128 105c62 79 78 151 78 284c0 64 -13 146 -51 207c-44 70 -116 97 -213 97
c-203 0 -263 -123 -263 -304c0 -186 38 -299 206 -389v-38h-267v40z" />
    <glyph glyph-name="summation" unicode="&#x2211;" horiz-adv-x="554" 
d="M499 -130h-439v44l271 402l-269 394v44h432v-40h-384l272 -398l-274 -406h391v-40z" />
    <glyph glyph-name="product" unicode="&#x220f;" horiz-adv-x="654" 
d="M110 754h434v-884h-41v844h-352v-844h-41v884z" />
    <glyph glyph-name="uni00B5" unicode="&#xb5;" horiz-adv-x="559" 
d="M88 528h40v-190c0 -55 0 -117 7 -180c8 -70 46 -136 132 -136c66 0 122 18 165 32v474h40v-504c-83 -26 -131 -41 -205 -41c-63 0 -115 25 -139 77v-252h-40v720z" />
    <glyph glyph-name="pi" unicode="&#x3c0;" horiz-adv-x="585" 
d="M16 528h549v-39h-111v-297c0 -44 0 -76 3 -102s9 -39 33 -47c18 -6 35 -8 54 -10v-40c-26 3 -41 5 -66 12c-29 8 -46 22 -55 48c-10 30 -9 66 -9 139v297h-247v-489h-40v489h-111v39z" />
    <glyph glyph-name="partialdiff" unicode="&#x2202;" 
d="M110 61c-29 43 -42 109 -42 180c0 60 4 103 22 146c29 69 70 111 188 111c56 0 116 -21 162 -37c-36 166 -90 227 -254 270v44c54 -14 136 -36 200 -100c91 -91 114 -290 114 -430c0 -146 -48 -262 -216 -262c-90 0 -138 24 -174 78zM134 386c-20 -40 -25 -82 -25 -144
c0 -68 10 -116 32 -153c31 -52 74 -67 143 -67c144 0 175 98 175 223c0 65 -4 122 -12 171c-38 15 -109 43 -169 43c-80 0 -119 -22 -144 -73z" />
    <glyph glyph-name="florin" unicode="&#x192;" horiz-adv-x="344" 
d="M-11 -168c19 9 76 38 96 56c18 16 26 29 33 48c6 17 7 60 7 88v495c0 164 10 211 189 256v-41c-80 -21 -138 -37 -146 -128c-3 -34 -3 -62 -3 -85h151v-39h-151v-458c0 -28 -1 -75 -8 -98c-10 -34 -26 -52 -57 -76c-28 -22 -83 -48 -111 -61v43z" />
    <glyph glyph-name="arrowleft" unicode="&#x2190;" horiz-adv-x="898" 
d="M329 144l-279 233l279 233h63l-255 -213h684v-40h-684l255 -213h-63z" />
    <glyph glyph-name="arrowup" unicode="&#x2191;" horiz-adv-x="600" 
d="M320 0h-40v684l-213 -255v63l233 279l233 -279v-63l-213 255v-684z" />
    <glyph glyph-name="arrowright" unicode="&#x2192;" horiz-adv-x="898" 
d="M569 144h-63l255 213h-684v40h684l-255 213h63l279 -233z" />
    <glyph glyph-name="arrowdown" unicode="&#x2193;" horiz-adv-x="600" 
d="M300 -17l-233 279v63l213 -255v684h40v-684l213 255v-63z" />
    <glyph glyph-name="uni2196" unicode="&#x2196;" horiz-adv-x="698" 
d="M603 89l-494 493l28 -302h-40l-36 380l383 -37v-40l-307 29l466 -465v-58z" />
    <glyph glyph-name="uni2197" unicode="&#x2197;" horiz-adv-x="698" 
d="M95 89v58l466 465l-307 -29v40l383 37l-36 -380h-40l28 302z" />
    <glyph glyph-name="uni2198" unicode="&#x2198;" horiz-adv-x="698" 
d="M607 116l-383 37v40l307 -29l-466 465v58l494 -493l-28 302h40z" />
    <glyph glyph-name="uni2199" unicode="&#x2199;" horiz-adv-x="698" 
d="M474 153l-383 -37l36 380h40l-28 -302l494 493v-58l-466 -465l307 29v-40z" />
    <glyph glyph-name="arrowboth" unicode="&#x2194;" horiz-adv-x="1012" 
d="M329 144l-279 233l279 233h63l-255 -213h738l-255 213h63l279 -233l-279 -233h-63l255 213h-738l255 -213h-63z" />
    <glyph glyph-name="arrowupdn" unicode="&#x2195;" horiz-adv-x="600" 
d="M300 -79l-233 279v63l213 -255v738l-213 -255v63l233 279l233 -279v-63l-213 255v-738l212 255v-63z" />
    <glyph glyph-name="space.tf" horiz-adv-x="325" 
 />
    <glyph glyph-name="period.tf" horiz-adv-x="325" 
d="M191 0h-59v125h59v-125z" />
    <glyph glyph-name="comma.tf" horiz-adv-x="325" 
d="M147 -169h-39c15 70 23 114 23 231v63h55v-100c0 -73 -17 -135 -39 -194z" />
    <glyph glyph-name="colon.tf" horiz-adv-x="325" 
d="M186 403h-59v125h59v-125zM186 0h-59v125h59v-125z" />
    <glyph glyph-name="estimated" unicode="&#x212e;" horiz-adv-x="770" 
d="M142 70c-61 58 -92 132 -92 221s32 162 94 221c61 58 133 85 241 85c200 0 327 -112 335 -315h-533c-7 0 -14 0 -14 -16v-149c0 -31 85 -108 212 -108c84 0 163 42 212 97h63c-78 -89 -158 -121 -275 -121c-107 0 -181 26 -243 85zM173 309c0 -5 4 -8 15 -8h393
c13 0 15 4 15 15v146c0 49 -115 114 -211 114c-120 0 -212 -80 -212 -107v-160z" />
    <glyph glyph-name="dollar.tf" horiz-adv-x="650" 
d="M92 568c0 38 11 93 47 131c34 36 86 51 169 54v104h40v-105c53 -5 141 -25 188 -38v-42c-64 17 -156 41 -220 41c-105 0 -182 -29 -182 -148c0 -38 2 -65 23 -87c15 -16 59 -35 94 -47l168 -59c98 -34 139 -74 139 -179c0 -131 -90 -186 -210 -194v-112h-40v112
c-69 3 -154 21 -209 34v41c59 -14 148 -35 224 -35c103 0 193 35 193 154c0 95 -36 114 -119 143l-155 55c-107 38 -150 57 -150 177z" />
    <glyph glyph-name="Euro.tf" horiz-adv-x="650" 
d="M93 385c0 206 31 384 279 384c86 0 159 -16 213 -28v-41c-58 13 -129 29 -213 29c-99 0 -162 -27 -200 -103c-20 -40 -34 -116 -36 -166h347v-40h-347c-2 -13 -2 -33 -2 -37c0 -8 0 -22 2 -38h347v-40h-346c2 -57 14 -128 27 -161c30 -77 79 -121 194 -121
c81 0 157 10 227 21v-41c-68 -10 -141 -20 -221 -20c-142 0 -203 50 -240 148c-19 50 -31 136 -31 254z" />
    <glyph glyph-name="sterling.tf" horiz-adv-x="650" 
d="M592 0h-462v572c0 140 36 199 185 199c61 0 160 -17 230 -31v-41c-66 13 -164 32 -230 32c-123 0 -144 -43 -144 -157v-114h294v-40h-294v-380h421v-40z" />
    <glyph glyph-name="yen.tf" horiz-adv-x="650" 
d="M28 754h49l247 -416l249 416h49l-176 -294h145v-40h-169l-77 -129v-291h-41v290l-78 130h-168v40h145z" />
    <glyph glyph-name="uni20BA.tf" horiz-adv-x="650" 
d="M125 -16v770h40v-252l337 106v-42l-337 -106v-78l337 106v-42l-337 -106v-317c144 0 217 18 269 67c53 50 68 152 70 194h41c-2 -54 -15 -149 -70 -211c-51 -57 -113 -90 -311 -90c-14 0 -22 0 -39 1z" />
    <glyph glyph-name="uni20BD.tf" horiz-adv-x="650" 
d="M124 0v754h244c86 0 132 -18 168 -57c32 -34 52 -98 52 -157c0 -138 -39 -220 -185 -237c-44 -5 -121 -5 -238 -5v-75h310v-40h-310v-183h-41zM365 714h-200v-376c106 0 180 0 234 5c122 11 147 88 147 197c0 55 -18 108 -48 137c-31 30 -74 37 -133 37z" />
    <glyph glyph-name="parenleft.case" horiz-adv-x="306" 
d="M130 -21c-33 49 -33 108 -33 165v466c0 57 0 115 33 164c31 46 79 77 140 96v-42c-117 -49 -132 -105 -132 -225v-452c0 -119 14 -178 132 -225v-42c-61 18 -109 48 -140 95z" />
    <glyph glyph-name="parenright.case" horiz-adv-x="306" 
d="M36 828v42c61 -19 109 -50 140 -96c33 -49 33 -107 33 -164v-466c0 -57 0 -116 -33 -165c-31 -47 -79 -77 -140 -95v42c118 47 132 106 132 225v452c0 120 -15 176 -132 225z" />
    <glyph glyph-name="bracketleft.case" horiz-adv-x="301" 
d="M260 -96h-160v946h160v-40h-119v-866h119v-40z" />
    <glyph glyph-name="bracketright.case" horiz-adv-x="301" 
d="M160 810h-119v40h160v-946h-160v40h119v866z" />
    <glyph glyph-name="braceleft.case" horiz-adv-x="319" 
d="M37 395c15 6 27 11 45 19c27 12 43 27 43 68v264c0 97 48 104 133 104h21v-40h-33c-77 0 -80 -22 -80 -92v-231c0 -59 -22 -89 -74 -110c58 -23 74 -48 74 -112v-229c0 -70 3 -92 80 -92h33v-40h-21c-84 0 -133 7 -133 104v261c0 43 -10 55 -39 69c-18 9 -28 12 -49 20
v37z" />
    <glyph glyph-name="braceright.case" horiz-adv-x="319" 
d="M72 810h-33v40h21c84 0 133 -7 133 -104v-264c0 -41 16 -56 43 -68c18 -8 30 -13 45 -19v-37c-21 -8 -31 -12 -49 -20c-29 -13 -39 -26 -39 -69v-261c0 -97 -48 -104 -133 -104h-21v40h33c77 0 80 22 80 92v229c0 64 16 89 74 112c-52 21 -74 51 -74 110v231
c0 70 -3 92 -80 92z" />
    <glyph glyph-name="hyphen.case" horiz-adv-x="398" 
d="M323 355h-248v42h248v-42z" />
    <glyph glyph-name="endash.case" horiz-adv-x="600" 
d="M550 356h-500v40h500v-40z" />
    <glyph glyph-name="emdash.case" horiz-adv-x="1000" 
d="M1000 356h-1000v40h1000v-40z" />
    <glyph glyph-name="guillemotleft.case" horiz-adv-x="486" 
d="M237 170l-168 206l168 206h55l-168 -206l168 -206h-55zM407 170l-167 206l167 206h55l-167 -206l167 -206h-55z" />
    <glyph glyph-name="guillemotright.case" horiz-adv-x="486" 
d="M249 170h-55l168 206l-168 206h55l168 -206zM24 170l167 206l-167 206h55l167 -206l-167 -206h-55z" />
    <glyph glyph-name="guilsinglleft.case" horiz-adv-x="316" 
d="M292 170h-55l-168 206l168 206h55l-168 -206z" />
    <glyph glyph-name="guilsinglright.case" horiz-adv-x="316" 
d="M24 170l168 206l-168 206h55l168 -206l-168 -206h-55z" />
    <glyph glyph-name="questiondown.case" horiz-adv-x="495" 
d="M253 -17c-110 0 -182 49 -182 166c0 59 19 107 47 146c24 34 44 58 88 106c57 62 71 90 79 113h46c-18 -46 -31 -72 -88 -134c-40 -43 -64 -69 -87 -103c-30 -44 -43 -77 -43 -128c0 -91 50 -126 137 -126c48 0 116 18 169 32v-41c-50 -14 -119 -31 -166 -31zM280 629
v125h58v-125h-58z" />
    <glyph glyph-name="exclamdown.case" horiz-adv-x="263" 
d="M100 120c0 175 0 364 1 394h40c1 -30 1 -219 1 -394v-120h-42v120zM150 629h-58v125h58v-125z" />
    <glyph glyph-name="gravecomb" unicode="&#x300;" horiz-adv-x="375" 
d="M262 622h-55l-111 132h56z" />
    <glyph glyph-name="acutecomb" unicode="&#x301;" horiz-adv-x="375" 
d="M164 622h-56l114 132h57z" />
    <glyph glyph-name="uni0302" unicode="&#x302;" horiz-adv-x="375" 
d="M44 622l121 132h46l120 -132h-56l-87 94l-88 -94h-56z" />
    <glyph glyph-name="tildecomb" unicode="&#x303;" horiz-adv-x="375" 
d="M57 634h-43c31 81 55 105 102 105c25 0 44 -7 77 -35c27 -23 42 -35 64 -35c35 0 45 25 60 63h44c-25 -59 -43 -102 -105 -102c-26 0 -45 6 -70 28c-31 28 -49 42 -70 42c-33 0 -46 -33 -59 -66z" />
    <glyph glyph-name="uni0306" unicode="&#x306;" horiz-adv-x="375" 
d="M47 754h43c17 -55 33 -96 98 -96c59 0 82 45 97 96h43c-20 -76 -54 -136 -140 -136c-89 0 -120 57 -141 136z" />
    <glyph glyph-name="hookabovecomb" unicode="&#x309;" horiz-adv-x="333" 
d="M83 743v43c19 9 37 13 55 13c49 0 87 -31 89 -72c1 -25 -6 -32 -36 -57c-26 -21 -39 -29 -38 -56h-38c-6 36 4 46 28 65c30 24 45 27 45 48c0 20 -27 33 -56 33c-18 0 -37 -5 -49 -17z" />
    <glyph glyph-name="uni031B" unicode="&#x31b;" horiz-adv-x="333" 
d="M114 624c58 0 70 36 70 40v90h40v-90c0 -30 -33 -80 -110 -80v40z" />
    <glyph glyph-name="dotbelowcomb" unicode="&#x323;" horiz-adv-x="375" 
d="M209 -201h-44v126h44v-126z" />
    <glyph glyph-name="Ohorn" unicode="&#x1a0;" horiz-adv-x="801" 
d="M95 378c0 83 8 201 41 262c45 83 130 131 264 131c103 0 202 -26 254 -122c42 7 51 35 51 38v90h40v-90c0 -24 -22 -63 -74 -75c25 -69 35 -160 35 -234c0 -75 -11 -209 -59 -283c-55 -84 -139 -112 -247 -112c-131 0 -212 36 -255 109c-41 69 -50 191 -50 286zM137 378
c0 -78 8 -201 41 -259c46 -80 128 -96 222 -96c85 0 149 17 200 78c49 58 64 178 64 277c0 90 -14 198 -51 259c-43 71 -117 94 -213 94c-239 0 -263 -155 -263 -353z" />
    <glyph glyph-name="Uhorn" unicode="&#x1af;" horiz-adv-x="739" 
d="M106 754h41v-473c0 -182 31 -258 224 -258c195 0 221 76 221 258v473h41v-107c58 1 70 36 70 40v90h40v-90c0 -29 -33 -79 -110 -80v-327c0 -122 -8 -197 -72 -248c-45 -36 -104 -49 -190 -49s-145 13 -192 50c-59 46 -73 122 -73 247v474z" />
    <glyph glyph-name="ohorn" unicode="&#x1a1;" 
d="M67 261c0 155 31 284 218 284c75 0 152 -21 185 -95c37 8 45 33 45 37v90h40v-90c0 -24 -21 -61 -70 -75c15 -46 18 -97 18 -146c0 -155 -35 -283 -218 -283c-90 0 -141 23 -176 78c-28 44 -42 125 -42 200zM108 262c0 -67 11 -136 32 -173c30 -53 75 -67 145 -67
c69 0 116 19 143 65c23 40 34 110 34 180c0 132 -19 239 -177 239c-159 0 -177 -114 -177 -244z" />
    <glyph glyph-name="uhorn" unicode="&#x1b0;" horiz-adv-x="564" 
d="M87 195v333h40v-334c0 -107 1 -172 126 -172c77 0 133 17 183 32v474h40v-81c56 1 67 36 67 40v90h40v-90c0 -29 -32 -79 -107 -80v-383c-87 -25 -143 -41 -220 -41c-157 0 -169 73 -169 212z" />
    <glyph glyph-name="uni1EA2" unicode="&#x1ea2;" horiz-adv-x="673" 
d="M509 255l-174 455l-173 -455h347zM65 0h-44l288 754h53l290 -754h-45l-83 215h-377zM285 929v43c18 9 37 12 54 12c50 1 90 -31 90 -72c0 -25 -6 -32 -36 -57c-26 -21 -39 -29 -38 -56h-38c-6 36 4 46 28 65c30 24 45 27 45 48c0 20 -28 34 -57 34c-18 -1 -36 -6 -48 -17
z" />
    <glyph glyph-name="uni1EA4" unicode="&#x1ea4;" horiz-adv-x="673" 
d="M21 0l288 754h53l290 -754h-45l-83 215h-377l-82 -215h-44zM335 710l-173 -455h347zM248 797h-56l121 132h46l120 -132h-56l-87 94zM464 894l114 132h57l-115 -132h-56z" />
    <glyph glyph-name="uni1EA6" unicode="&#x1ea6;" horiz-adv-x="673" 
d="M21 0l288 754h53l290 -754h-45l-83 215h-377l-82 -215h-44zM335 710l-173 -455h347zM248 797h-56l121 132h46l120 -132h-56l-87 94zM383 1026h56l110 -132h-55z" />
    <glyph glyph-name="uni1EA8" unicode="&#x1ea8;" horiz-adv-x="673" 
d="M335 710l-173 -455h347zM147 215l-82 -215h-44l288 754h53l290 -754h-45l-83 215h-377zM336 891l-88 -94h-56l121 132h46l120 -132h-56zM450 1008v43c18 9 37 12 54 12c50 1 90 -31 90 -72c0 -25 -5 -33 -36 -57c-27 -21 -39 -29 -38 -56h-38c-7 36 4 45 28 65
c29 24 45 27 45 48c0 20 -28 34 -57 34c-18 -1 -36 -6 -48 -17z" />
    <glyph glyph-name="uni1EAA" unicode="&#x1eaa;" horiz-adv-x="673" 
d="M21 0l288 754h53l290 -754h-45l-83 215h-377l-82 -215h-44zM162 255h347l-174 455zM206 970h-43c30 79 54 105 99 105c35 0 54 -13 80 -35c27 -23 42 -35 64 -35c35 0 45 25 60 63h44c-25 -59 -43 -102 -105 -102c-26 0 -46 6 -70 28c-31 28 -49 42 -70 42
c-33 0 -46 -33 -59 -66zM192 797l121 132h46l120 -132h-56l-87 94l-88 -94h-56z" />
    <glyph glyph-name="uni1EAC" unicode="&#x1eac;" horiz-adv-x="673" 
d="M21 0l288 754h53l290 -754h-45l-83 215h-377l-82 -215h-44zM162 255h347l-174 455zM249 808h-56l121 132h46l120 -132h-56l-87 94zM358 -192h-44v126h44v-126z" />
    <glyph glyph-name="uni1EAE" unicode="&#x1eae;" horiz-adv-x="673" 
d="M65 0h-44l288 754h53l290 -754h-45l-83 215h-377zM162 255h347l-174 455zM336 802c-89 0 -120 57 -141 136h43c17 -55 33 -96 98 -96c59 0 82 45 97 96h43c-20 -76 -54 -136 -140 -136zM290 935l114 132h57l-115 -132h-56z" />
    <glyph glyph-name="uni1EB0" unicode="&#x1eb0;" horiz-adv-x="673" 
d="M65 0h-44l288 754h53l290 -754h-45l-83 215h-377zM335 710l-173 -455h347zM336 802c-89 0 -120 57 -141 136h43c17 -55 33 -96 98 -96c59 0 82 45 97 96h43c-20 -76 -54 -136 -140 -136zM214 1070h56l110 -132h-55z" />
    <glyph glyph-name="uni1EB2" unicode="&#x1eb2;" horiz-adv-x="673" 
d="M335 710l-173 -455h347zM147 215l-82 -215h-44l288 754h53l290 -754h-45l-83 215h-377zM195 938h43c17 -55 33 -96 98 -96c59 0 82 45 97 96h43c-20 -76 -54 -136 -140 -136c-89 0 -120 57 -141 136zM273 1064v43c18 9 37 13 54 13c50 0 90 -32 90 -72
c0 -25 -5 -34 -36 -58c-26 -20 -39 -29 -38 -55h-38c-6 36 5 45 28 64c30 25 45 28 45 49c0 20 -27 33 -56 33c-18 0 -37 -5 -49 -17z" />
    <glyph glyph-name="uni1EB4" unicode="&#x1eb4;" horiz-adv-x="673" 
d="M65 0h-44l288 754h53l290 -754h-45l-83 215h-377zM162 255h347l-174 455zM166 969c31 81 55 105 102 105c25 0 44 -7 77 -35c27 -23 42 -35 64 -35c35 0 45 25 60 63h44c-25 -59 -43 -101 -105 -102c-26 0 -45 6 -70 28c-31 28 -49 42 -70 42c-33 0 -46 -33 -59 -66h-43z
M195 938h43c17 -55 33 -96 98 -96c59 0 82 45 97 96h43c-20 -76 -54 -136 -140 -136c-89 0 -120 57 -141 136z" />
    <glyph glyph-name="uni1EB6" unicode="&#x1eb6;" horiz-adv-x="673" 
d="M65 0h-44l288 754h53l290 -754h-45l-83 215h-377zM162 255h347l-174 455zM194 938h43c17 -55 33 -96 98 -96c59 0 82 45 97 96h43c-20 -76 -54 -136 -140 -136c-89 0 -120 57 -141 136zM358 -192h-44v126h44v-126z" />
    <glyph glyph-name="uni1EBA" unicode="&#x1eba;" horiz-adv-x="651" 
d="M110 0v754h484v-40h-443v-308h421v-40h-421v-326h459v-40h-500zM296 939v43c18 9 37 13 54 13c50 0 90 -32 90 -73c0 -25 -6 -32 -36 -57c-26 -21 -39 -29 -38 -56h-38c-6 36 4 46 28 65c30 24 45 27 45 48c0 20 -28 34 -57 34c-18 0 -36 -5 -48 -17z" />
    <glyph glyph-name="uni1EBE" unicode="&#x1ebe;" horiz-adv-x="651" 
d="M110 0v754h484v-40h-443v-308h421v-40h-421v-326h459v-40h-500zM266 803h-56l121 132h46l120 -132h-56l-87 94zM475 912l114 132h57l-115 -132h-56z" />
    <glyph glyph-name="uni1EC0" unicode="&#x1ec0;" horiz-adv-x="651" 
d="M110 0v754h484v-40h-443v-308h421v-40h-421v-326h459v-40h-500zM210 803l121 132h46l120 -132h-56l-87 94l-88 -94h-56zM412 1044h56l110 -132h-55z" />
    <glyph glyph-name="uni1EC2" unicode="&#x1ec2;" horiz-adv-x="651" 
d="M610 0h-500v754h484v-40h-443v-308h421v-40h-421v-326h459v-40zM266 803h-56l121 132h46l120 -132h-56l-87 94zM467 1002v43c18 9 37 13 54 13c50 0 90 -32 90 -72c0 -26 -5 -34 -36 -58c-26 -20 -39 -29 -38 -55h-10c-11 -1 -28 0 -28 0c-6 35 5 45 28 64
c30 25 45 28 45 49c0 20 -27 33 -56 33c-18 0 -37 -5 -49 -17z" />
    <glyph glyph-name="uni1EC4" unicode="&#x1ec4;" horiz-adv-x="651" 
d="M110 0v754h484v-40h-443v-308h421v-40h-421v-326h459v-40h-500zM228 979h-43c31 81 55 105 102 105c25 0 44 -7 77 -35c27 -23 42 -35 64 -35c35 0 45 25 60 63h44c-25 -59 -43 -102 -105 -102c-26 0 -45 6 -70 28c-31 28 -49 42 -70 42c-33 0 -46 -33 -59 -66zM266 803
h-56l121 132h46l120 -132h-56l-87 94z" />
    <glyph glyph-name="uni1EC6" unicode="&#x1ec6;" horiz-adv-x="651" 
d="M110 754h484v-40h-443v-308h421v-40h-421v-326h459v-40h-500v754zM246 801h-56l121 132h46l120 -132h-56l-87 94zM329 -187v126h44v-126h-44z" />
    <glyph glyph-name="uni1EC8" unicode="&#x1ec8;" horiz-adv-x="261" 
d="M151 0h-41v754h41v-754zM80 932v43c19 9 37 13 55 13c49 0 89 -31 89 -72c0 -25 -4 -34 -36 -58c-27 -20 -39 -29 -38 -55h-38c-6 36 5 44 28 64c29 25 45 28 45 49c0 20 -27 33 -56 33c-18 0 -37 -5 -49 -17z" />
    <glyph glyph-name="uni1ECE" unicode="&#x1ece;" horiz-adv-x="801" 
d="M145 92c-41 69 -50 191 -50 286c0 83 8 201 41 262c45 83 130 131 264 131c116 0 192 -31 242 -102c47 -67 64 -194 64 -291c0 -75 -11 -209 -59 -283c-55 -84 -139 -112 -247 -112c-131 0 -212 36 -255 109zM400 731c-239 0 -263 -155 -263 -353c0 -78 8 -201 41 -259
c46 -80 128 -96 222 -96c85 0 149 17 200 78c49 58 64 178 64 277c0 90 -14 198 -51 259c-43 71 -117 94 -213 94zM343 932v43c19 9 37 13 55 13c49 0 89 -31 89 -72c0 -25 -4 -34 -36 -58c-27 -20 -40 -29 -38 -55h-38c-7 36 5 44 28 64c29 25 45 28 45 49
c0 20 -27 33 -56 33c-18 0 -37 -5 -49 -17z" />
    <glyph glyph-name="uni1ED0" unicode="&#x1ed0;" horiz-adv-x="801" 
d="M95 378c0 83 8 201 41 262c45 83 130 131 264 131c116 0 192 -31 242 -102c47 -67 64 -194 64 -291c0 -75 -11 -209 -59 -283c-55 -84 -139 -112 -247 -112c-131 0 -212 36 -255 109c-41 69 -50 191 -50 286zM137 378c0 -78 8 -201 41 -259c46 -80 128 -96 222 -96
c85 0 149 17 200 78c49 58 64 178 64 277c0 90 -14 198 -51 259c-43 71 -117 94 -213 94c-239 0 -263 -155 -263 -353zM257 818l121 132h46l120 -132h-56l-87 94l-88 -94h-56zM507 909l114 132h57l-115 -132h-56z" />
    <glyph glyph-name="uni1ED2" unicode="&#x1ed2;" horiz-adv-x="801" 
d="M95 378c0 83 8 201 41 262c45 83 130 131 264 131c116 0 192 -31 242 -102c47 -67 64 -194 64 -291c0 -75 -11 -209 -59 -283c-55 -84 -139 -112 -247 -112c-131 0 -212 36 -255 109c-41 69 -50 191 -50 286zM137 378c0 -78 8 -201 41 -259c46 -80 128 -96 222 -96
c85 0 149 17 200 78c49 58 64 178 64 277c0 90 -14 198 -51 259c-43 71 -117 94 -213 94c-239 0 -263 -155 -263 -353zM257 818l121 132h46l120 -132h-56l-87 94l-88 -94h-56zM558 912l-111 132h56l110 -132h-55z" />
    <glyph glyph-name="uni1ED4" unicode="&#x1ed4;" horiz-adv-x="801" 
d="M137 378c0 -78 8 -201 41 -259c46 -80 128 -96 222 -96c85 0 149 17 200 78c49 58 64 178 64 277c0 90 -14 198 -51 259c-43 71 -117 94 -213 94c-239 0 -263 -155 -263 -353zM145 92c-41 69 -50 191 -50 286c0 83 8 201 41 262c45 83 130 131 264 131
c116 0 192 -31 242 -102c47 -67 64 -194 64 -291c0 -75 -11 -209 -59 -283c-55 -84 -139 -112 -247 -112c-131 0 -212 36 -255 109zM401 912l-88 -94h-56l121 132h46l120 -132h-56zM529 1019v43c18 9 37 13 54 13c50 0 90 -32 90 -73c0 -25 -6 -32 -36 -57
c-26 -21 -39 -29 -38 -56h-38c-6 36 4 46 28 65c30 24 45 27 45 48c0 20 -28 34 -57 34c-18 0 -36 -5 -48 -17z" />
    <glyph glyph-name="uni1ED6" unicode="&#x1ed6;" horiz-adv-x="801" 
d="M95 378c0 83 8 201 41 262c45 83 130 131 264 131c116 0 192 -31 242 -102c47 -67 64 -194 64 -291c0 -75 -11 -209 -59 -283c-55 -84 -139 -112 -247 -112c-131 0 -212 36 -255 109c-41 69 -50 191 -50 286zM137 378c0 -78 8 -201 41 -259c46 -80 128 -96 222 -96
c85 0 149 17 200 78c49 58 64 178 64 277c0 90 -14 198 -51 259c-43 71 -117 94 -213 94c-239 0 -263 -155 -263 -353zM227 980c31 81 55 105 102 105c25 0 44 -7 77 -35c27 -23 42 -35 64 -35c35 0 45 25 60 63h44c-25 -59 -43 -101 -105 -102c-26 0 -45 6 -70 28
c-31 28 -49 42 -70 42c-33 0 -46 -33 -59 -66h-43zM257 818l121 132h46l120 -132h-56l-87 94l-88 -94h-56z" />
    <glyph glyph-name="uni1ED8" unicode="&#x1ed8;" horiz-adv-x="801" 
d="M145 92c-41 69 -50 191 -50 286c0 83 8 201 41 262c45 83 130 131 264 131c116 0 192 -31 242 -102c47 -67 64 -194 64 -291c0 -75 -11 -209 -59 -283c-55 -84 -139 -112 -247 -112c-131 0 -212 36 -255 109zM400 731c-239 0 -263 -155 -263 -353c0 -78 8 -201 41 -259
c46 -80 128 -96 222 -96c85 0 149 17 200 78c49 58 64 178 64 277c0 90 -14 198 -51 259c-43 71 -117 94 -213 94zM314 818h-56l121 132h46l120 -132h-56l-87 94zM418 -185h-44v126h44v-126z" />
    <glyph glyph-name="uni1EDA" unicode="&#x1eda;" horiz-adv-x="801" 
d="M145 92c-41 69 -50 191 -50 286c0 83 8 201 41 262c45 83 130 131 264 131c103 0 202 -26 254 -122c42 7 51 35 51 38v90h40v-90c0 -24 -22 -63 -74 -75c25 -69 35 -160 35 -234c0 -75 -11 -209 -59 -283c-55 -84 -139 -112 -247 -112c-131 0 -212 36 -255 109zM400 731
c-239 0 -263 -155 -263 -353c0 -78 8 -201 41 -259c46 -80 128 -96 222 -96c85 0 149 17 200 78c49 58 64 178 64 277c0 90 -14 198 -51 259c-43 71 -117 94 -213 94zM354 818l114 132h57l-115 -132h-56z" />
    <glyph glyph-name="uni1EDC" unicode="&#x1edc;" horiz-adv-x="801" 
d="M145 92c-41 69 -50 191 -50 286c0 83 8 201 41 262c45 83 130 131 264 131c103 0 202 -26 254 -122c42 7 51 35 51 38v90h40v-90c0 -24 -22 -63 -74 -75c25 -69 35 -160 35 -234c0 -75 -11 -209 -59 -283c-55 -84 -139 -112 -247 -112c-131 0 -212 36 -255 109zM400 731
c-239 0 -263 -155 -263 -353c0 -78 8 -201 41 -259c46 -80 128 -96 222 -96c85 0 149 17 200 78c49 58 64 178 64 277c0 90 -14 198 -51 259c-43 71 -117 94 -213 94zM303 950h56l110 -132h-55z" />
    <glyph glyph-name="uni1EDE" unicode="&#x1ede;" horiz-adv-x="801" 
d="M400 731c-239 0 -263 -155 -263 -353c0 -78 8 -201 41 -259c46 -80 128 -96 222 -96c85 0 149 17 200 78c49 58 64 178 64 277c0 90 -14 198 -51 259c-43 71 -117 94 -213 94zM671 612c25 -69 35 -160 35 -234c0 -75 -11 -209 -59 -283c-55 -84 -139 -112 -247 -112
c-131 0 -212 36 -255 109c-41 69 -50 191 -50 286c0 83 8 201 41 262c45 83 130 131 264 131c109 0 197 -23 254 -122c42 7 51 35 51 38v90h40v-90c0 -24 -22 -63 -74 -75zM352 949v43c19 9 37 13 55 13c49 0 87 -31 89 -72c1 -25 -6 -32 -36 -57c-26 -21 -39 -29 -38 -56
h-38c-6 36 4 46 28 65c30 24 45 27 45 48c0 20 -27 33 -56 33c-18 0 -37 -5 -49 -17z" />
    <glyph glyph-name="uni1EE0" unicode="&#x1ee0;" horiz-adv-x="801" 
d="M95 378c0 83 8 201 41 262c45 83 130 131 264 131c103 0 202 -26 254 -122c42 7 51 35 51 38v90h40v-90c0 -24 -22 -63 -74 -75c25 -69 35 -160 35 -234c0 -75 -11 -209 -59 -283c-55 -84 -139 -112 -247 -112c-131 0 -212 36 -255 109c-41 69 -50 191 -50 286zM137 378
c0 -78 8 -201 41 -259c46 -80 128 -96 222 -96c85 0 149 17 200 78c49 58 64 178 64 277c0 90 -14 198 -51 259c-43 71 -117 94 -213 94c-239 0 -263 -155 -263 -353zM227 860c31 81 55 105 102 105c25 0 44 -7 77 -35c27 -23 42 -35 64 -35c35 0 45 25 60 63h44
c-25 -59 -43 -102 -105 -102c-26 0 -45 6 -70 28c-31 28 -49 42 -70 42c-33 0 -46 -33 -59 -66h-43z" />
    <glyph glyph-name="uni1EE2" unicode="&#x1ee2;" horiz-adv-x="801" 
d="M145 92c-41 69 -50 191 -50 286c0 83 8 201 41 262c45 83 130 131 264 131c103 0 202 -26 254 -122c42 7 51 35 51 38v90h40v-90c0 -24 -22 -63 -74 -75c25 -69 35 -160 35 -234c0 -75 -11 -209 -59 -283c-55 -84 -139 -112 -247 -112c-131 0 -212 36 -255 109zM400 731
c-239 0 -263 -155 -263 -353c0 -78 8 -201 41 -259c46 -80 128 -96 222 -96c85 0 149 17 200 78c49 58 64 178 64 277c0 90 -14 198 -51 259c-43 71 -117 94 -213 94zM379 -75h44v-126h-44v126z" />
    <glyph glyph-name="uni1EE6" unicode="&#x1ee6;" horiz-adv-x="739" 
d="M106 754h41v-473c0 -182 31 -258 224 -258c195 0 221 76 221 258v473h41v-474c0 -122 -8 -197 -72 -248c-45 -36 -104 -49 -190 -49s-145 13 -192 50c-59 46 -73 122 -73 247v474zM316 948v43c19 9 37 13 55 13c50 0 90 -32 90 -72c0 -25 -4 -35 -36 -58
c-27 -20 -40 -29 -38 -55h-38c-7 36 5 44 28 64c29 25 45 28 45 49c0 20 -27 33 -56 33c-18 0 -37 -5 -50 -17z" />
    <glyph glyph-name="uni1EE8" unicode="&#x1ee8;" horiz-adv-x="739" 
d="M106 280v474h41v-473c0 -182 31 -258 224 -258c195 0 221 76 221 258v473h41v-107c58 1 70 36 70 40v90h40v-90c0 -29 -33 -79 -110 -80v-327c0 -122 -8 -197 -72 -248c-45 -36 -104 -49 -190 -49s-145 13 -192 50c-59 46 -73 122 -73 247zM313 819l114 132h57l-115 -132
h-56z" />
    <glyph glyph-name="uni1EEA" unicode="&#x1eea;" horiz-adv-x="739" 
d="M106 280v474h41v-473c0 -182 31 -258 224 -258c195 0 221 76 221 258v473h41v-107c58 1 70 36 70 40v90h40v-90c0 -29 -33 -79 -110 -80v-327c0 -122 -8 -197 -72 -248c-45 -36 -104 -49 -190 -49s-145 13 -192 50c-59 46 -73 122 -73 247zM379 819l-111 132h56l110 -132
h-55z" />
    <glyph glyph-name="uni1EEC" unicode="&#x1eec;" horiz-adv-x="739" 
d="M633 607v-327c0 -122 -8 -197 -72 -248c-45 -36 -104 -49 -190 -49s-145 13 -192 50c-59 46 -73 122 -73 247v474h41v-473c0 -182 31 -258 224 -258c195 0 221 76 221 258v473h41v-107c58 1 70 36 70 40v90h40v-90c0 -29 -33 -79 -110 -80zM310 947v43c18 9 37 13 54 13
c50 0 90 -32 90 -73c0 -25 -5 -33 -36 -57c-27 -21 -39 -29 -38 -56h-38c-6 36 4 45 28 65c30 24 45 27 45 48c0 20 -28 34 -57 34c-18 0 -36 -5 -48 -17z" />
    <glyph glyph-name="uni1EEE" unicode="&#x1eee;" horiz-adv-x="739" 
d="M106 754h41v-473c0 -182 31 -258 224 -258c195 0 221 76 221 258v473h41v-107c58 1 70 36 70 40v90h40v-90c0 -29 -33 -79 -110 -80v-327c0 -122 -8 -197 -72 -248c-45 -36 -104 -49 -190 -49s-145 13 -192 50c-59 46 -73 122 -73 247v474zM207 838c31 81 55 105 102 105
c25 0 44 -7 77 -35c27 -23 42 -35 64 -35c35 0 45 25 60 63h44c-25 -59 -43 -102 -105 -102c-26 0 -45 6 -70 28c-31 28 -49 42 -70 42c-33 0 -46 -33 -59 -66h-43z" />
    <glyph glyph-name="uni1EF0" unicode="&#x1ef0;" horiz-adv-x="739" 
d="M106 754h41v-473c0 -182 31 -258 224 -258c195 0 221 76 221 258v473h41v-107c58 1 70 36 70 40v90h40v-90c0 -29 -33 -79 -110 -80v-327c0 -122 -8 -197 -72 -248c-45 -36 -104 -49 -190 -49s-145 13 -192 50c-59 46 -73 122 -73 247v474zM348 -75h44v-126h-44v126z" />
    <glyph glyph-name="uni1EF4" unicode="&#x1ef4;" horiz-adv-x="592" 
d="M275 290l-281 464h49l253 -417l253 417h49l-281 -464v-290h-42v290zM318 -201h-44v126h44v-126z" />
    <glyph glyph-name="uni1EF6" unicode="&#x1ef6;" horiz-adv-x="592" 
d="M275 290l-281 464h49l253 -417l253 417h49l-281 -464v-290h-42v290zM235 939v43c19 9 37 13 55 13c50 0 90 -32 90 -73c0 -25 -5 -33 -36 -57c-27 -21 -40 -29 -38 -56h-38c-7 36 4 45 28 65c29 24 45 27 45 48c0 20 -28 34 -57 34c-18 0 -36 -5 -49 -17z" />
    <glyph glyph-name="uni1EA3" unicode="&#x1ea3;" 
d="M108 269c0 -94 1 -247 130 -247c34 0 68 15 106 45c34 27 71 57 98 82v316c-55 21 -107 41 -160 41c-150 0 -174 -110 -174 -237zM238 -17c-160 0 -171 163 -171 286c0 155 40 276 218 276c58 0 124 -25 197 -53v-492h-40v97c-21 -19 -40 -35 -65 -55
c-46 -37 -85 -59 -139 -59zM228 743v43c19 9 37 13 55 13c49 0 89 -31 89 -72c0 -25 -6 -32 -36 -57c-26 -21 -39 -29 -38 -56h-38c-6 36 4 46 28 65c30 24 45 27 45 48c0 20 -27 33 -56 33c-18 0 -37 -5 -49 -17z" />
    <glyph glyph-name="uni1EA5" unicode="&#x1ea5;" 
d="M238 -17c-160 0 -171 163 -171 286c0 155 40 276 218 276c58 0 124 -25 197 -53v-492h-40v97c-21 -19 -40 -35 -65 -55c-46 -37 -85 -59 -139 -59zM282 506c-150 0 -174 -110 -174 -237c0 -94 1 -247 130 -247c34 0 68 15 106 45c34 27 71 57 98 82v316
c-55 21 -107 41 -160 41zM212 624h-56l121 132h46l120 -132h-56l-87 94zM404 753l114 132h57l-115 -132h-56z" />
    <glyph glyph-name="uni1EA7" unicode="&#x1ea7;" 
d="M238 -17c-160 0 -171 163 -171 286c0 155 40 276 218 276c58 0 124 -25 197 -53v-492h-40v97c-21 -19 -40 -35 -65 -55c-46 -37 -85 -59 -139 -59zM282 506c-150 0 -174 -110 -174 -237c0 -94 1 -247 130 -247c34 0 68 15 106 45c34 27 71 57 98 82v316
c-55 21 -107 41 -160 41zM156 624l121 132h46l120 -132h-56l-87 94l-88 -94h-56zM421 753l-111 132h56l110 -132h-55z" />
    <glyph glyph-name="uni1EA9" unicode="&#x1ea9;" 
d="M282 506c-150 0 -174 -110 -174 -237c0 -94 1 -247 130 -247c34 0 68 15 106 45c34 27 71 57 98 82v316c-55 21 -107 41 -160 41zM238 -17c-160 0 -171 163 -171 286c0 155 40 276 218 276c58 0 124 -25 197 -53v-492h-40v97c-21 -19 -40 -35 -65 -55
c-46 -37 -85 -59 -139 -59zM300 718l-88 -94h-56l121 132h46l120 -132h-56zM401 859v43c18 9 37 13 54 13c50 0 88 -32 90 -73c1 -25 -6 -32 -36 -57c-26 -21 -39 -29 -38 -55h-38c-6 35 5 44 28 64c30 25 45 27 45 48c0 20 -28 34 -57 34c-18 0 -36 -5 -48 -17z" />
    <glyph glyph-name="uni1EAB" unicode="&#x1eab;" 
d="M238 -17c-160 0 -171 163 -171 286c0 155 40 276 218 276c58 0 124 -25 197 -53v-492h-40v97c-21 -19 -40 -35 -65 -55c-46 -37 -85 -59 -139 -59zM282 506c-150 0 -174 -110 -174 -237c0 -94 1 -247 130 -247c34 0 68 15 106 45c34 27 71 57 98 82v316
c-55 21 -107 41 -160 41zM127 798c31 81 55 105 102 105c25 0 44 -7 77 -35c27 -23 42 -35 64 -35c35 0 45 25 60 63h44c-25 -59 -43 -102 -105 -102c-26 0 -45 6 -70 28c-31 28 -49 42 -70 42c-33 0 -46 -33 -59 -66h-43zM212 624h-56l121 132h46l120 -132h-56l-87 94z" />
    <glyph glyph-name="uni1EAD" unicode="&#x1ead;" 
d="M238 -17c-160 0 -171 163 -171 286c0 155 40 276 218 276c58 0 124 -25 197 -53v-492h-40v97c-21 -19 -40 -35 -65 -55c-46 -37 -85 -59 -139 -59zM108 269c0 -94 1 -247 130 -247c34 0 68 15 106 45c34 27 71 57 98 82v316c-55 21 -107 41 -160 41
c-150 0 -174 -110 -174 -237zM197 622h-56l121 132h46l120 -132h-56l-87 94zM249 -66h44v-126h-44v126z" />
    <glyph glyph-name="uni1EAF" unicode="&#x1eaf;" 
d="M67 269c0 155 40 276 218 276c58 0 124 -25 197 -53v-492h-40v97c-21 -19 -40 -35 -65 -55c-46 -37 -85 -59 -139 -59c-81 0 -115 35 -140 84c-21 42 -31 123 -31 202zM282 506c-150 0 -174 -110 -174 -237c0 -94 1 -247 130 -247c34 0 68 15 106 45c34 27 71 57 98 82
v316c-55 21 -107 41 -160 41zM298 618c-89 0 -120 57 -141 136h43c17 -55 33 -96 98 -96c59 0 82 45 97 96h43c-20 -76 -54 -136 -140 -136zM255 773l114 132h57l-115 -132h-56z" />
    <glyph glyph-name="uni1EB1" unicode="&#x1eb1;" 
d="M238 -17c-160 0 -171 163 -171 286c0 155 40 276 218 276c58 0 124 -25 197 -53v-492h-40v97c-21 -19 -40 -35 -65 -55c-46 -37 -85 -59 -139 -59zM282 506c-150 0 -174 -110 -174 -237c0 -94 1 -247 130 -247c34 0 68 15 106 45c34 27 71 57 98 82v316
c-55 21 -107 41 -160 41zM298 618c-89 0 -120 57 -141 136h43c17 -55 33 -96 98 -96c59 0 82 45 97 96h43c-20 -76 -54 -136 -140 -136zM178 907h56l110 -132h-55z" />
    <glyph glyph-name="uni1EB3" unicode="&#x1eb3;" 
d="M282 506c-150 0 -174 -110 -174 -237c0 -94 1 -247 130 -247c34 0 68 15 106 45c34 27 71 57 98 82v316c-55 21 -107 41 -160 41zM238 -17c-160 0 -171 163 -171 286c0 155 40 276 218 276c58 0 124 -25 197 -53v-492h-40v97c-21 -19 -40 -35 -65 -55
c-46 -37 -85 -59 -139 -59zM298 618c-89 0 -120 57 -141 136h43c17 -55 33 -96 98 -96c59 0 82 45 97 96h43c-20 -76 -54 -136 -140 -136zM244 905v43c18 9 37 13 54 13c50 0 90 -32 90 -73c0 -25 -6 -32 -36 -57c-26 -21 -39 -29 -38 -56h-38c-6 36 4 46 28 65
c30 24 45 27 45 48c0 20 -28 34 -57 34c-18 0 -36 -5 -48 -17z" />
    <glyph glyph-name="uni1EB5" unicode="&#x1eb5;" 
d="M67 269c0 155 40 276 218 276c58 0 124 -25 197 -53v-492h-40v97c-21 -19 -40 -35 -65 -55c-46 -37 -85 -59 -139 -59c-81 0 -115 35 -140 84c-21 42 -31 123 -31 202zM108 269c0 -94 1 -247 130 -247c34 0 68 15 106 45c34 27 71 57 98 82v316c-55 21 -107 41 -160 41
c-150 0 -174 -110 -174 -237zM144 809c30 79 54 105 99 105c35 0 54 -13 80 -35c27 -23 42 -35 64 -35c35 0 45 25 60 63h44c-25 -59 -43 -102 -105 -102c-26 0 -45 6 -70 28c-31 28 -49 42 -70 42c-33 0 -46 -33 -59 -66h-43zM298 618c-89 0 -120 57 -141 136h43
c17 -55 33 -96 98 -96c59 0 82 45 97 96h43c-20 -76 -54 -136 -140 -136z" />
    <glyph glyph-name="uni1EB7" unicode="&#x1eb7;" 
d="M67 269c0 155 40 276 218 276c58 0 124 -25 197 -53v-492h-40v97c-21 -19 -40 -35 -65 -55c-46 -37 -85 -59 -139 -59c-81 0 -115 35 -140 84c-21 42 -31 123 -31 202zM282 506c-150 0 -174 -110 -174 -237c0 -94 1 -247 130 -247c34 0 68 15 106 45c34 27 71 57 98 82
v316c-55 21 -107 41 -160 41zM281 619c-89 0 -120 57 -141 136h43c17 -55 33 -96 98 -96c59 0 82 45 97 96h43c-20 -76 -54 -136 -140 -136zM293 -192h-44v126h44v-126z" />
    <glyph glyph-name="uni1EBB" unicode="&#x1ebb;" horiz-adv-x="554" 
d="M287 506c-147 0 -180 -94 -180 -222h337c3 17 5 39 5 61c0 105 -53 161 -162 161zM298 -17c-197 0 -231 108 -231 280c0 158 33 282 220 282c133 0 203 -72 203 -200c0 -24 -3 -61 -10 -100h-373c0 -140 34 -223 191 -223c57 0 124 13 165 21v-40
c-38 -8 -117 -20 -165 -20zM220 749v43c19 9 37 13 55 13c49 0 89 -31 89 -72c0 -25 -6 -32 -36 -57c-26 -21 -39 -29 -38 -56h-38c-6 36 4 46 28 65c30 24 45 27 45 48c0 20 -27 33 -56 33c-18 0 -37 -5 -49 -17z" />
    <glyph glyph-name="uni1EBF" unicode="&#x1ebf;" horiz-adv-x="554" 
d="M298 -17c-197 0 -231 108 -231 280c0 158 33 282 220 282c133 0 203 -72 203 -200c0 -24 -3 -61 -10 -100h-373c0 -140 34 -223 191 -223c57 0 124 13 165 21v-40c-38 -8 -117 -20 -165 -20zM107 284h337c3 17 5 39 5 61c0 105 -53 161 -162 161
c-147 0 -180 -95 -180 -222zM142 624l121 132h46l120 -132h-56l-87 94l-88 -94h-56zM393 751l114 132h57l-115 -132h-56z" />
    <glyph glyph-name="uni1EC1" unicode="&#x1ec1;" horiz-adv-x="554" 
d="M298 -17c-197 0 -231 108 -231 280c0 158 33 282 220 282c133 0 203 -72 203 -200c0 -24 -3 -61 -10 -100h-373c0 -140 34 -223 191 -223c57 0 124 13 165 21v-40c-38 -8 -117 -20 -165 -20zM107 284h337c3 17 5 39 5 61c0 105 -53 161 -162 161
c-147 0 -180 -95 -180 -222zM198 624h-56l121 132h46l120 -132h-56l-87 94zM419 754l-111 132h56l110 -132h-55z" />
    <glyph glyph-name="uni1EC3" unicode="&#x1ec3;" horiz-adv-x="554" 
d="M107 284h337c3 17 5 39 5 61c0 105 -53 161 -162 161c-147 0 -180 -95 -180 -222zM67 263c0 158 33 282 220 282c133 0 203 -72 203 -200c0 -24 -3 -61 -10 -100h-373c0 -140 34 -223 191 -223c57 0 124 13 165 21v-40c-38 -8 -117 -20 -165 -20
c-197 0 -231 108 -231 280zM198 624h-56l121 132h46l120 -132h-56l-87 94zM398 864v43c18 9 37 13 54 13c50 0 90 -32 90 -73c0 -25 -6 -32 -36 -57c-26 -21 -39 -29 -38 -56h-38c-6 36 4 46 28 65c30 24 45 27 45 48c0 20 -28 34 -57 34c-18 -1 -36 -6 -48 -17z" />
    <glyph glyph-name="uni1EC5" unicode="&#x1ec5;" horiz-adv-x="554" 
d="M298 -17c-197 0 -231 108 -231 280c0 158 33 282 220 282c133 0 203 -72 203 -200c0 -24 -3 -61 -10 -100h-373c0 -140 34 -223 191 -223c57 0 124 13 165 21v-40c-38 -8 -117 -20 -165 -20zM107 284h337c3 17 5 39 5 61c0 105 -53 161 -162 161
c-147 0 -180 -95 -180 -222zM112 789c31 81 55 105 102 105c25 0 44 -7 77 -35c27 -23 42 -35 64 -35c35 0 45 25 60 63h44c-25 -59 -43 -102 -105 -102c-26 0 -45 6 -70 28c-31 28 -49 42 -70 42c-33 0 -46 -33 -59 -66h-43zM142 624l121 132h46l120 -132h-56l-87 94
l-88 -94h-56z" />
    <glyph glyph-name="uni1EC7" unicode="&#x1ec7;" horiz-adv-x="554" 
d="M298 -17c-197 0 -231 108 -231 280c0 158 33 282 220 282c133 0 203 -72 203 -200c0 -24 -3 -61 -10 -100h-373c0 -140 34 -223 191 -223c57 0 124 13 165 21v-40c-38 -8 -117 -20 -165 -20zM107 284h337c3 17 5 39 5 61c0 105 -53 161 -162 161
c-147 0 -180 -95 -180 -222zM137 622l121 132h46l120 -132h-56l-87 94l-88 -94h-56zM252 -60h44v-126h-44v126z" />
    <glyph glyph-name="uni1ECF" unicode="&#x1ecf;" 
d="M109 61c-28 44 -42 125 -42 200c0 155 31 284 218 284c181 0 218 -119 218 -279c0 -155 -35 -283 -218 -283c-90 0 -141 23 -176 78zM285 506c-159 0 -177 -113 -177 -244c0 -67 11 -136 32 -173c30 -53 75 -67 145 -67c69 0 116 19 143 65c23 40 34 110 34 180
c0 132 -19 239 -177 239zM231 741v43c19 9 37 13 55 13c49 0 89 -31 89 -72c0 -25 -6 -32 -36 -57c-26 -21 -39 -29 -38 -56h-38c-6 36 4 46 28 65c30 24 45 27 45 48c0 20 -27 33 -56 33c-18 0 -37 -5 -49 -17z" />
    <glyph glyph-name="uni1ED1" unicode="&#x1ed1;" 
d="M67 261c0 155 31 284 218 284c181 0 218 -119 218 -279c0 -155 -35 -283 -218 -283c-90 0 -141 23 -176 78c-28 44 -42 125 -42 200zM108 262c0 -67 11 -136 32 -173c30 -53 75 -67 145 -67c69 0 116 19 143 65c23 40 34 110 34 180c0 132 -19 239 -177 239
c-159 0 -177 -114 -177 -244zM142 625l121 132h46l120 -132h-56l-87 94l-88 -94h-56zM398 754l114 132h57l-115 -132h-56z" />
    <glyph glyph-name="uni1ED3" unicode="&#x1ed3;" 
d="M67 261c0 155 31 284 218 284c181 0 218 -119 218 -279c0 -155 -35 -283 -218 -283c-90 0 -141 23 -176 78c-28 44 -42 125 -42 200zM108 262c0 -67 11 -136 32 -173c30 -53 75 -67 145 -67c69 0 116 19 143 65c23 40 34 110 34 180c0 132 -19 239 -177 239
c-159 0 -177 -114 -177 -244zM142 625l121 132h46l120 -132h-56l-87 94l-88 -94h-56zM419 754l-111 132h56l110 -132h-55z" />
    <glyph glyph-name="uni1ED5" unicode="&#x1ed5;" 
d="M108 262c0 -67 11 -136 32 -173c30 -53 75 -67 145 -67c69 0 116 19 143 65c23 40 34 110 34 180c0 132 -19 239 -177 239c-159 0 -177 -114 -177 -244zM109 61c-28 44 -42 125 -42 200c0 155 31 284 218 284c181 0 218 -119 218 -279c0 -155 -35 -283 -218 -283
c-90 0 -141 23 -176 78zM286 719l-88 -94h-56l121 132h46l120 -132h-56zM394 848v43c19 9 37 13 55 13c49 0 89 -31 89 -72c0 -25 -4 -34 -36 -58c-26 -20 -39 -29 -38 -55h-38c-6 36 5 45 28 64c30 25 45 28 45 49c0 20 -27 33 -56 33c-18 0 -37 -5 -49 -17z" />
    <glyph glyph-name="uni1ED7" unicode="&#x1ed7;" 
d="M67 261c0 155 31 284 218 284c181 0 218 -119 218 -279c0 -155 -35 -283 -218 -283c-90 0 -141 23 -176 78c-28 44 -42 125 -42 200zM285 506c-159 0 -177 -113 -177 -244c0 -67 11 -136 32 -173c30 -53 75 -67 145 -67c69 0 116 19 143 65c23 40 34 110 34 180
c0 132 -19 239 -177 239zM115 796c31 81 55 105 102 105c25 0 44 -7 77 -35c27 -23 42 -35 64 -35c35 0 45 25 60 63h44c-25 -59 -43 -101 -105 -102c-26 0 -45 6 -70 28c-31 28 -49 42 -70 42c-33 0 -46 -33 -59 -66h-43zM198 625h-56l121 132h46l120 -132h-56l-87 94z" />
    <glyph glyph-name="uni1ED9" unicode="&#x1ed9;" 
d="M109 61c-28 44 -42 125 -42 200c0 155 31 284 218 284c181 0 218 -119 218 -279c0 -155 -35 -283 -218 -283c-90 0 -141 23 -176 78zM285 506c-159 0 -177 -113 -177 -244c0 -67 11 -136 32 -173c30 -53 75 -67 145 -67c69 0 116 19 143 65c23 40 34 110 34 180
c0 132 -19 239 -177 239zM198 622h-56l121 132h46l120 -132h-56l-87 94zM304 -185h-44v126h44v-126z" />
    <glyph glyph-name="uni1EDB" unicode="&#x1edb;" 
d="M109 61c-28 44 -42 125 -42 200c0 155 31 284 218 284c75 0 152 -21 185 -95c37 8 45 33 45 37v90h40v-90c0 -24 -21 -61 -70 -75c15 -46 18 -97 18 -146c0 -155 -35 -283 -218 -283c-90 0 -141 23 -176 78zM285 506c-159 0 -177 -113 -177 -244c0 -67 11 -136 32 -173
c30 -53 75 -67 145 -67c69 0 116 19 143 65c23 40 34 110 34 180c0 132 -19 239 -177 239zM220 623l114 132h57l-115 -132h-56z" />
    <glyph glyph-name="uni1EDD" unicode="&#x1edd;" 
d="M109 61c-28 44 -42 125 -42 200c0 155 31 284 218 284c75 0 152 -21 185 -95c37 8 45 33 45 37v90h40v-90c0 -24 -21 -61 -70 -75c15 -46 18 -97 18 -146c0 -155 -35 -283 -218 -283c-90 0 -141 23 -176 78zM285 506c-159 0 -177 -113 -177 -244c0 -67 11 -136 32 -173
c30 -53 75 -67 145 -67c69 0 116 19 143 65c23 40 34 110 34 180c0 132 -19 239 -177 239zM199 756h56l110 -132h-55z" />
    <glyph glyph-name="uni1EDF" unicode="&#x1edf;" 
d="M285 506c-159 0 -177 -113 -177 -244c0 -67 11 -136 32 -173c30 -53 75 -67 145 -67c69 0 116 19 143 65c23 40 34 110 34 180c0 132 -19 239 -177 239zM485 412c15 -46 18 -97 18 -146c0 -155 -35 -283 -218 -283c-90 0 -141 23 -176 78c-28 44 -42 125 -42 200
c0 155 31 284 218 284c75 0 152 -21 185 -95c37 8 45 33 45 37v90h40v-90c0 -24 -21 -61 -70 -75zM228 758v43c19 9 37 13 55 13c49 0 89 -31 89 -72c0 -25 -6 -32 -36 -57c-26 -21 -39 -29 -38 -56h-38c-6 36 4 46 28 65c30 24 45 27 45 48c0 20 -27 33 -56 33
c-18 0 -37 -5 -49 -17z" />
    <glyph glyph-name="uni1EE1" unicode="&#x1ee1;" 
d="M67 261c0 155 31 284 218 284c75 0 152 -21 185 -95c37 8 45 33 45 37v90h40v-90c0 -24 -21 -61 -70 -75c15 -46 18 -97 18 -146c0 -155 -35 -283 -218 -283c-90 0 -141 23 -176 78c-28 44 -42 125 -42 200zM108 262c0 -67 11 -136 32 -173c30 -53 75 -67 145 -67
c69 0 116 19 143 65c23 40 34 110 34 180c0 132 -19 239 -177 239c-159 0 -177 -114 -177 -244zM112 641c31 81 55 105 102 105c25 0 43 -6 77 -35c27 -23 42 -35 64 -35c35 0 45 25 60 63h44c-25 -59 -43 -102 -105 -102c-26 0 -45 7 -70 28c-31 27 -49 42 -70 42
c-33 0 -46 -33 -59 -66h-43z" />
    <glyph glyph-name="uni1EE3" unicode="&#x1ee3;" 
d="M109 61c-28 44 -42 125 -42 200c0 155 31 284 218 284c75 0 152 -21 185 -95c37 8 45 33 45 37v90h40v-90c0 -24 -21 -61 -70 -75c15 -46 18 -97 18 -146c0 -155 -35 -283 -218 -283c-90 0 -141 23 -176 78zM285 506c-159 0 -177 -113 -177 -244c0 -67 11 -136 32 -173
c30 -53 75 -67 145 -67c69 0 116 19 143 65c23 40 34 110 34 180c0 132 -19 239 -177 239zM263 -75h44v-126h-44v126z" />
    <glyph glyph-name="uni1EE7" unicode="&#x1ee7;" horiz-adv-x="564" 
d="M87 528h40v-334c0 -107 1 -172 126 -172c77 0 133 17 183 32v474h40v-504c-87 -25 -143 -41 -220 -41c-157 0 -169 73 -169 212v333zM211 740v43c19 9 37 13 55 13c49 0 89 -31 89 -72c0 -25 -6 -32 -36 -57c-26 -21 -39 -29 -38 -56h-38c-6 36 4 46 28 65
c30 24 45 27 45 48c0 20 -27 33 -56 33c-18 0 -37 -5 -49 -17z" />
    <glyph glyph-name="uni1EE9" unicode="&#x1ee9;" horiz-adv-x="564" 
d="M87 195v333h40v-334c0 -107 1 -172 126 -172c77 0 133 17 183 32v474h40v-81c56 1 67 36 67 40v90h40v-90c0 -29 -32 -79 -107 -80v-383c-87 -25 -143 -41 -220 -41c-157 0 -169 73 -169 212zM210 625l114 132h57l-115 -132h-56z" />
    <glyph glyph-name="uni1EEB" unicode="&#x1eeb;" horiz-adv-x="564" 
d="M87 195v333h40v-334c0 -107 1 -172 126 -172c77 0 133 17 183 32v474h40v-81c56 1 67 36 67 40v90h40v-90c0 -29 -32 -79 -107 -80v-383c-87 -25 -143 -41 -220 -41c-157 0 -169 73 -169 212zM303 616l-111 132h56l110 -132h-55z" />
    <glyph glyph-name="uni1EED" unicode="&#x1eed;" horiz-adv-x="564" 
d="M476 407v-383c-87 -25 -143 -41 -220 -41c-157 0 -169 73 -169 212v333h40v-334c0 -107 1 -172 126 -172c77 0 133 17 183 32v474h40v-81c56 1 67 36 67 40v90h40v-90c0 -29 -32 -79 -107 -80zM208 738v43c19 9 37 13 55 13c49 0 89 -31 89 -72c0 -25 -6 -32 -36 -57
c-26 -21 -39 -29 -38 -56h-38c-6 36 4 46 28 65c30 24 45 27 45 48c0 20 -27 33 -56 33c-18 0 -37 -5 -49 -17z" />
    <glyph glyph-name="uni1EEF" unicode="&#x1eef;" horiz-adv-x="564" 
d="M87 528h40v-334c0 -107 1 -172 126 -172c77 0 133 17 183 32v474h40v-81c56 1 67 36 67 40v90h40v-90c0 -29 -32 -79 -107 -80v-383c-87 -25 -143 -41 -220 -41c-157 0 -169 73 -169 212v333zM109 634c31 81 55 105 102 105c25 0 43 -6 77 -35c27 -23 42 -35 64 -35
c35 0 45 25 60 63h44c-25 -59 -43 -102 -105 -102c-26 0 -45 7 -70 28c-31 27 -49 42 -70 42c-33 0 -46 -33 -59 -66h-43z" />
    <glyph glyph-name="uni1EF1" unicode="&#x1ef1;" horiz-adv-x="564" 
d="M87 195v333h40v-334c0 -107 1 -172 126 -172c77 0 133 17 183 32v474h40v-81c56 1 67 36 67 40v90h40v-90c0 -29 -32 -79 -107 -80v-383c-87 -25 -143 -41 -220 -41c-157 0 -169 73 -169 212zM260 -201v126h44v-126h-44z" />
    <glyph glyph-name="uni1EF5" unicode="&#x1ef5;" horiz-adv-x="487" 
d="M14 528h44l185 -463l187 463h43l-290 -720h-44l82 202zM268 -201v126h44v-126h-44z" />
    <glyph glyph-name="uni1EF7" unicode="&#x1ef7;" horiz-adv-x="487" 
d="M14 528h44l185 -463l187 463h43l-290 -720h-44l82 202zM167 739v43c19 9 38 13 55 13c50 0 90 -31 90 -72c0 -25 -6 -33 -36 -57c-27 -21 -40 -29 -38 -56h-38c-7 36 4 45 28 65c29 24 45 27 45 48c0 20 -27 33 -56 33c-18 0 -37 -5 -50 -17z" />
    <glyph glyph-name="uni1EC9" unicode="&#x1ec9;" horiz-adv-x="216" 
d="M128 0h-40v528h40v-528zM53 733v43c19 9 37 13 55 13c49 0 89 -31 89 -72c0 -25 -6 -32 -36 -57c-26 -21 -39 -29 -38 -56h-38c-6 36 4 46 28 65c30 24 45 27 45 48c0 20 -27 33 -56 33c-18 0 -37 -5 -49 -17z" />
    </font>
</defs>
</svg>
