<?xml version="1.0" standalone="no"?>
<!DOCTYPE svg PUBLIC "-//W3C//DTD SVG 1.1//EN" "http://www.w3.org/Graphics/SVG/1.1/DTD/svg11.dtd" >
<svg xmlns="http://www.w3.org/2000/svg" xmlns:xlink="http://www.w3.org/1999/xlink" version="1.1">
<metadata>
Created by FontForge 20190801 at Thu Feb  6 23:43:28 2020
 By Jimmy Wärting
\(c\) Bayerische Motoren Werke AG \(BMW AG\) 2019. The font is subject to copyright protection and other intellectual property rights. All rights reserved.
</metadata>
<defs>
<font id="VN_BMWTypeNextLatin-Regular" horiz-adv-x="590" >
  <font-face 
    font-family="VN_BMWTypeNext Latin"
    font-weight="400"
    font-stretch="normal"
    units-per-em="1000"
    panose-1="0 0 0 0 0 0 0 0 0 0"
    ascent="800"
    descent="-200"
    x-height="528"
    cap-height="754"
    bbox="-158 -280 1438 1144"
    underline-thickness="50"
    underline-position="-176"
    stemh="89"
    stemv="97"
    unicode-range="U+000D-FB02"
  />
<missing-glyph horiz-adv-x="600" 
d="M50 0v754h500v-754h-500zM321 377l194 -314v627zM279 377l-194 313v-627zM300 411l191 309h-382zM300 343l-191 -309h382z" />
    <glyph glyph-name=".notdef" horiz-adv-x="600" 
d="M50 0v754h500v-754h-500zM321 377l194 -314v627zM279 377l-194 313v-627zM300 411l191 309h-382zM300 343l-191 -309h382z" />
    <glyph glyph-name="uni0000" horiz-adv-x="0" 
 />
    <glyph glyph-name="uni0000" horiz-adv-x="0" 
 />
    <glyph glyph-name="uni000D" unicode="&#xd;" horiz-adv-x="251" 
 />
    <glyph glyph-name="space" unicode=" " horiz-adv-x="249" 
 />
    <glyph glyph-name="uni00A0" unicode="&#xa0;" horiz-adv-x="249" 
 />
    <glyph glyph-name="quotesingle" unicode="'" horiz-adv-x="258" 
d="M89 428c-2 30 -11 176 -11 236v90h102v-90c0 -64 -9 -206 -11 -236h-80z" />
    <glyph glyph-name="quotedbl" unicode="&#x22;" horiz-adv-x="439" 
d="M260 664v90h102v-90c0 -64 -9 -206 -11 -236h-80c-2 30 -11 176 -11 236zM89 428c-2 30 -11 176 -11 236v90h102v-90c0 -64 -9 -206 -11 -236h-80z" />
    <glyph glyph-name="degree" unicode="&#xb0;" horiz-adv-x="469" 
d="M235 417c-112 0 -183 66 -183 175c0 110 71 179 183 179c111 0 182 -69 182 -179c0 -109 -71 -175 -182 -175zM134 594c0 -61 38 -99 101 -99c60 0 100 37 100 99c0 61 -40 99 -100 99c-63 0 -101 -38 -101 -99z" />
    <glyph glyph-name="uni2103" unicode="&#x2103;" horiz-adv-x="1096" 
d="M513 370c0 218 42 401 300 401c78 0 158 -18 233 -39v-96c-38 10 -80 21 -122 29c-35 7 -69 13 -104 13c-93 0 -144 -25 -176 -89c-24 -48 -33 -130 -33 -218c0 -84 9 -158 30 -203c30 -64 83 -92 179 -92c69 0 157 19 226 34v-95c-70 -15 -154 -32 -236 -32
c-251 0 -297 175 -297 387zM52 592c0 110 71 179 183 179c111 0 182 -69 182 -179c0 -109 -71 -175 -182 -175c-112 0 -183 66 -183 175zM235 693c-63 0 -101 -38 -101 -99s38 -99 101 -99c60 0 100 37 100 99c0 61 -40 99 -100 99z" />
    <glyph glyph-name="uni2109" unicode="&#x2109;" horiz-adv-x="1073" 
d="M537 754h508v-93h-412v-240h377v-93h-377v-327h-96v753zM235 417c-112 0 -183 66 -183 175c0 110 71 179 183 179c111 0 182 -69 182 -179c0 -109 -71 -175 -182 -175zM134 594c0 -61 38 -99 101 -99c60 0 100 37 100 99c0 61 -40 99 -100 99c-63 0 -101 -38 -101 -99z
" />
    <glyph glyph-name="parenleft" unicode="(" horiz-adv-x="326" 
d="M122 -116c-38 46 -43 106 -43 170v456c0 159 60 228 216 265v-88c-111 -40 -121 -89 -121 -200v-410c0 -113 9 -160 121 -200v-88c-64 15 -129 41 -173 95z" />
    <glyph glyph-name="parenright" unicode=")" horiz-adv-x="326" 
d="M31 687v88c64 -15 129 -41 173 -95c38 -46 43 -106 43 -170v-456c0 -159 -60 -228 -216 -265v88c112 40 121 87 121 200v410c0 112 -10 160 -121 200z" />
    <glyph glyph-name="bracketleft" unicode="[" horiz-adv-x="339" 
d="M304 -192h-216v946h216v-89h-121v-768h121v-89z" />
    <glyph glyph-name="bracketright" unicode="]" horiz-adv-x="339" 
d="M155 665h-121v89h216v-946h-216v89h121v768z" />
    <glyph glyph-name="braceleft" unicode="{" horiz-adv-x="373" 
d="M29 333c20 4 35 7 53 14c29 11 43 29 43 63v209c0 93 41 135 131 135h84v-88h-52c-61 0 -68 -25 -68 -79v-199c0 -66 -32 -96 -92 -107c62 -14 92 -41 92 -109v-197c0 -54 7 -79 68 -79h52v-88h-84c-91 0 -131 45 -131 135v207c0 37 -13 55 -49 66c-16 5 -32 10 -47 13
v104z" />
    <glyph glyph-name="braceright" unicode="}" horiz-adv-x="373" 
d="M33 -104h52c61 0 68 25 68 79v197c0 68 30 95 92 109c-61 11 -92 41 -92 107v199c0 54 -7 79 -68 79h-52v88h84c90 0 131 -42 131 -135v-209c0 -34 14 -52 43 -63c18 -7 33 -10 53 -14v-104c-48 -10 -96 -20 -96 -79v-207c0 -90 -40 -135 -131 -135h-84v88z" />
    <glyph glyph-name="asterisk" unicode="*" horiz-adv-x="554" 
d="M243 490l-154 -92v84l114 65l-114 66v84l154 -92l-2 149h73l-3 -149l154 92v-84l-114 -66l114 -65v-84l-154 92l3 -149h-73z" />
    <glyph glyph-name="dagger" unicode="&#x2020;" horiz-adv-x="597" 
d="M57 534h196v219h91v-219h196v-87h-196v-543h-91v543h-196v87z" />
    <glyph glyph-name="daggerdbl" unicode="&#x2021;" horiz-adv-x="597" 
d="M57 210h196v237h-196v87h196v219h91v-219h196v-87h-196v-237h196v-87h-196v-219h-91v219h-196v87z" />
    <glyph glyph-name="period" unicode="." horiz-adv-x="271" 
d="M193 0h-115v152h115v-152z" />
    <glyph glyph-name="comma" unicode="," horiz-adv-x="271" 
d="M139 -179h-76c13 60 24 112 24 211v120h106v-127c0 -83 -31 -153 -54 -204z" />
    <glyph glyph-name="colon" unicode=":" horiz-adv-x="271" 
d="M193 0h-115v152h115v-152zM193 376h-115v152h115v-152z" />
    <glyph glyph-name="semicolon" unicode=";" horiz-adv-x="271" 
d="M139 -179h-76c13 61 24 112 24 211v121h106v-128c0 -83 -31 -153 -54 -204zM78 376v152h115v-152h-115z" />
    <glyph glyph-name="ellipsis" unicode="&#x2026;" horiz-adv-x="873" 
d="M680 0v152h115v-152h-115zM379 152h115v-152h-115v152zM78 0v152h115v-152h-115z" />
    <glyph glyph-name="periodcentered" unicode="&#xb7;" horiz-adv-x="271" 
d="M193 189h-115v152h115v-152z" />
    <glyph glyph-name="bullet" unicode="&#x2022;" horiz-adv-x="492" 
d="M87 377c0 104 53 157 159 157c107 0 160 -54 160 -158c0 -103 -53 -156 -160 -156c-106 0 -159 54 -159 157z" />
    <glyph glyph-name="slash" unicode="/" horiz-adv-x="397" 
d="M108 0h-101l283 754h100z" />
    <glyph glyph-name="backslash" unicode="\" horiz-adv-x="397" 
d="M390 0h-100l-283 754h101z" />
    <glyph glyph-name="bar" unicode="|" horiz-adv-x="262" 
d="M174 -192h-86v946h86v-946z" />
    <glyph glyph-name="brokenbar" unicode="&#xa6;" horiz-adv-x="262" 
d="M174 336h-86v418h86v-418zM174 -192h-86v418h86v-418z" />
    <glyph glyph-name="underscore" unicode="_" horiz-adv-x="500" 
d="M500 -146h-500v93h500v-93z" />
    <glyph glyph-name="hyphen" unicode="-" horiz-adv-x="429" 
d="M366 218h-304v95h304v-95z" />
    <glyph glyph-name="endash" unicode="&#x2013;" horiz-adv-x="600" 
d="M550 219h-500v93h500v-93z" />
    <glyph glyph-name="emdash" unicode="&#x2014;" horiz-adv-x="1000" 
d="M1000 219h-1000v93h1000v-93z" />
    <glyph glyph-name="zero" unicode="0" horiz-adv-x="659" 
d="M328 -17c-245 0 -248 198 -248 394c0 189 8 394 249 394c235 0 250 -204 250 -391c0 -188 -12 -397 -251 -397zM177 375c0 -117 4 -205 37 -253c25 -36 64 -47 115 -47c50 0 93 16 118 59c29 51 35 129 35 246c0 116 -8 199 -38 246c-23 36 -64 53 -116 53
s-93 -16 -117 -56c-29 -49 -34 -130 -34 -248z" />
    <glyph glyph-name="one" unicode="1" horiz-adv-x="384" 
d="M284 0h-96v647l-186 -58v96l282 89v-774z" />
    <glyph glyph-name="two" unicode="2" horiz-adv-x="575" 
d="M29 93c92 99 250 270 303 335c42 52 70 90 70 144c0 92 -66 107 -145 107c-61 0 -161 -25 -203 -36v95c47 12 141 33 209 33c130 0 237 -48 237 -193c0 -87 -38 -147 -103 -223c-87 -101 -183 -205 -241 -263h372v-92h-499v93z" />
    <glyph glyph-name="three" unicode="3" horiz-adv-x="588" 
d="M40 98c52 -9 133 -23 202 -23c92 0 172 26 172 133c0 56 -21 90 -64 114c-27 15 -59 15 -102 15h-132v91h211l36 49c27 37 44 71 44 104c0 87 -75 98 -147 98c-71 0 -171 -23 -214 -33v94c50 11 148 31 215 31c95 0 151 -16 193 -57c34 -33 49 -80 49 -128
c0 -44 -18 -82 -45 -126c-16 -26 -36 -52 -46 -66c68 -40 99 -106 99 -185c0 -165 -117 -226 -268 -226c-79 0 -158 14 -203 22v93z" />
    <glyph glyph-name="four" unicode="4" horiz-adv-x="613" 
d="M37 159v92l350 504h118l-350 -504h279v165h95v-416h-95v159h-397z" />
    <glyph glyph-name="five" unicode="5" horiz-adv-x="593" 
d="M80 3v94c53 -10 122 -22 184 -22c105 0 166 40 166 150c0 44 -11 79 -42 103s-79 32 -181 32h-116v394h414v-92h-319v-210h73c93 0 152 -18 191 -48c51 -40 77 -106 77 -178c0 -167 -97 -243 -259 -243c-71 0 -136 11 -188 20z" />
    <glyph glyph-name="six" unicode="6" horiz-adv-x="636" 
d="M326 -17c-190 0 -249 113 -249 288c0 143 18 285 115 371c80 71 201 107 332 125v-93c-139 -23 -305 -64 -333 -225c26 1 78 3 122 3c102 0 163 -20 203 -63c38 -41 55 -98 55 -162c0 -156 -87 -244 -245 -244zM178 359c-3 -25 -4 -51 -4 -96c0 -112 24 -189 152 -189
c102 0 148 54 148 153c0 116 -67 135 -170 135c-47 0 -101 -2 -126 -3z" />
    <glyph glyph-name="seven" unicode="7" horiz-adv-x="525" 
d="M166 0h-110l339 662h-386v92h496v-91z" />
    <glyph glyph-name="eight" unicode="8" horiz-adv-x="686" 
d="M343 -17c-151 0 -265 48 -265 217c0 84 47 145 112 192c-71 34 -92 99 -92 174c0 151 111 205 247 205c133 0 244 -60 244 -205c0 -82 -41 -128 -95 -182c77 -41 114 -93 114 -184c0 -159 -122 -217 -265 -217zM175 203c0 -111 71 -131 169 -131c89 0 167 27 167 130
c0 47 -15 79 -59 103c-35 19 -97 34 -182 50c-50 -42 -95 -81 -95 -152zM344 682c-85 0 -149 -26 -149 -119c0 -49 9 -78 40 -97c30 -19 102 -34 179 -50c42 42 78 84 78 147c0 91 -65 119 -148 119z" />
    <glyph glyph-name="nine" unicode="9" horiz-adv-x="636" 
d="M291 291c-157 0 -226 73 -226 227c0 159 72 253 239 253c232 0 255 -190 255 -379c0 -209 -26 -409 -293 -409c-60 0 -130 12 -176 21v94c48 -10 117 -23 173 -23c48 0 92 9 121 29c60 41 78 130 78 198c-45 -5 -107 -11 -171 -11zM306 680c-109 0 -144 -62 -144 -162
c0 -106 36 -137 143 -137c50 0 119 7 157 12c0 102 -5 180 -37 231c-24 39 -67 56 -119 56z" />
    <glyph glyph-name="zero.tf" horiz-adv-x="650" 
d="M324 -17c-240 0 -243 204 -243 394c0 184 7 394 244 394c230 0 244 -210 244 -391c0 -182 -11 -397 -245 -397zM178 375c0 -117 4 -205 37 -253c25 -36 59 -47 109 -47c49 0 88 15 113 59c29 50 35 129 35 246c0 116 -8 199 -38 246c-23 36 -59 53 -111 53
c-51 0 -87 -16 -111 -56c-29 -49 -34 -132 -34 -248z" />
    <glyph glyph-name="one.tf" horiz-adv-x="650" 
d="M327 648l-223 -70v96l319 101v-683h142v-92h-409v92h171v556z" />
    <glyph glyph-name="two.tf" horiz-adv-x="650" 
d="M67 93c92 99 250 270 303 335c42 52 70 90 70 144c0 92 -66 107 -145 107c-62 0 -160 -25 -203 -36v95c47 12 143 33 209 33c95 0 145 -17 188 -60c34 -34 49 -84 49 -133c0 -87 -38 -147 -103 -223c-87 -101 -183 -205 -241 -263h372v-92h-499v93z" />
    <glyph glyph-name="three.tf" horiz-adv-x="650" 
d="M80 98c52 -9 133 -23 202 -23c92 0 172 26 172 133c0 56 -21 90 -64 114c-27 15 -59 15 -102 15h-132v91h211l36 49c27 37 44 71 44 104c0 87 -75 98 -147 98c-71 0 -171 -23 -214 -33v94c47 11 147 31 215 31c95 0 151 -16 193 -57c34 -33 49 -80 49 -128
c0 -44 -18 -82 -45 -126c-16 -26 -36 -52 -46 -66c68 -40 99 -106 99 -185c0 -165 -117 -226 -268 -226c-80 0 -158 14 -203 22v93z" />
    <glyph glyph-name="four.tf" horiz-adv-x="650" 
d="M44 159v92l350 504h118l-350 -504h279v165h95v-416h-95v159h-397z" />
    <glyph glyph-name="five.tf" horiz-adv-x="650" 
d="M95 3v94c53 -10 127 -22 189 -22c107 0 170 37 170 150c0 44 -11 79 -42 103s-83 32 -186 32h-120v394h423v-92h-328v-210h79c154 0 271 -53 271 -226c0 -169 -99 -243 -263 -243c-72 0 -139 11 -193 20z" />
    <glyph glyph-name="six.tf" horiz-adv-x="650" 
d="M332 -17c-188 0 -245 117 -245 288c0 143 18 283 115 371c79 71 193 107 324 125v-93c-138 -23 -297 -66 -325 -225c24 1 73 3 118 3c102 0 159 -20 199 -63c38 -41 55 -98 55 -162c0 -155 -83 -244 -241 -244zM188 359c-3 -25 -4 -50 -4 -95c0 -109 22 -191 148 -191
c101 0 144 57 144 154c0 114 -64 135 -167 135c-46 0 -96 -2 -121 -3z" />
    <glyph glyph-name="seven.tf" horiz-adv-x="650" 
d="M228 0h-112l358 662h-424v92h536v-91z" />
    <glyph glyph-name="eight.tf" horiz-adv-x="650" 
d="M325 -17c-149 0 -257 51 -257 216c0 87 44 141 110 191c-73 36 -92 98 -92 176c0 147 104 205 239 205c131 0 238 -62 238 -204c0 -81 -41 -128 -95 -182c76 -40 114 -96 114 -185c0 -154 -117 -217 -257 -217zM165 201c0 -107 64 -129 160 -129c87 0 160 32 160 130
c0 47 -16 81 -59 105c-36 20 -83 30 -166 46c-53 -42 -95 -78 -95 -152zM183 563c0 -49 9 -81 40 -99s90 -32 165 -48c41 44 78 84 78 148c0 88 -60 118 -141 118c-84 0 -142 -28 -142 -119z" />
    <glyph glyph-name="nine.tf" horiz-adv-x="650" 
d="M298 291c-154 0 -221 77 -221 227c0 156 70 253 235 253c229 0 251 -194 251 -379c0 -205 -25 -409 -289 -409c-61 0 -126 12 -172 21v94c48 -10 113 -23 169 -23c48 0 87 9 117 29c60 41 78 130 78 198c-44 -5 -104 -11 -168 -11zM314 681c-108 0 -140 -65 -140 -163
c0 -102 34 -137 138 -137c50 0 114 7 154 12c0 101 -5 181 -37 232c-24 39 -63 56 -115 56z" />
    <glyph glyph-name="percent" unicode="%" horiz-adv-x="1073" 
d="M67 543c0 81 7 131 37 169c27 34 76 53 134 53c143 0 172 -98 172 -222c0 -120 -35 -219 -172 -219c-147 0 -171 88 -171 219zM663 208c0 81 7 131 37 169c27 34 76 53 134 53c143 0 172 -98 172 -222c0 -120 -35 -219 -172 -219c-147 0 -171 88 -171 219zM392 0h-99
l392 754h100zM747 208c0 -56 2 -95 21 -118c15 -18 34 -23 66 -23c85 0 88 74 88 141c0 54 -2 90 -19 114c-15 21 -37 30 -69 30s-54 -7 -68 -27c-17 -25 -19 -59 -19 -117zM151 543c0 -56 2 -95 21 -118c15 -18 34 -23 66 -23c85 0 88 74 88 141c0 54 -2 90 -19 114
c-15 21 -37 30 -69 30s-54 -7 -68 -27c-17 -25 -19 -59 -19 -117z" />
    <glyph glyph-name="perthousand" unicode="&#x2030;" horiz-adv-x="1505" 
d="M663 208c0 81 7 131 37 169c27 34 76 53 134 53c143 0 172 -98 172 -222c0 -120 -35 -219 -172 -219c-147 0 -171 88 -171 219zM238 324c-147 0 -171 88 -171 219c0 81 7 131 37 169c27 34 76 53 134 53c143 0 172 -98 172 -222c0 -120 -35 -219 -172 -219zM1266 -11
c-147 0 -171 88 -171 219c0 81 7 131 37 169c27 34 76 53 134 53c143 0 172 -98 172 -222c0 -120 -35 -219 -172 -219zM392 0h-99l392 754h100zM1179 208c0 -56 2 -95 21 -118c15 -18 34 -23 66 -23c85 0 88 74 88 141c0 54 -2 90 -19 114c-15 21 -37 30 -69 30
s-54 -7 -68 -27c-17 -25 -19 -59 -19 -117zM747 208c0 -56 2 -95 21 -118c15 -18 34 -23 66 -23c85 0 88 74 88 141c0 54 -2 90 -19 114c-15 21 -37 30 -69 30s-54 -7 -68 -27c-17 -25 -19 -59 -19 -117zM170 660c-17 -25 -19 -59 -19 -117c0 -56 2 -95 21 -118
c15 -18 34 -23 66 -23c85 0 88 74 88 141c0 54 -2 90 -19 114c-15 21 -37 30 -69 30s-54 -7 -68 -27z" />
    <glyph glyph-name="onequarter" unicode="&#xbc;" horiz-adv-x="890" 
d="M242 0h-99l392 754h100zM734 79h-240v77l196 263h103l-195 -263h136v79h83v-235h-83v79zM25 707l202 60v-432h-86v323l-116 -33v82z" />
    <glyph glyph-name="onehalf" unicode="&#xbd;" horiz-adv-x="875" 
d="M242 0h-99l392 754h100zM828 0h-321v75c52 45 129 113 168 152c34 34 46 53 46 75c0 41 -31 50 -66 50c-53 0 -115 -16 -138 -22v80c28 7 87 20 141 20c77 0 147 -31 147 -118c0 -44 -13 -71 -47 -109c-46 -52 -100 -98 -132 -126h202v-77zM25 625v82l202 60v-432h-86
v323z" />
    <glyph glyph-name="threequarters" unicode="&#xbe;" horiz-adv-x="1020" 
d="M53 339v75c33 -6 89 -16 130 -16c40 0 92 3 92 56c0 52 -44 55 -85 55h-93v73h142l13 17c13 17 19 28 19 46c0 44 -44 46 -78 46c-53 0 -113 -15 -137 -21v75c28 7 88 20 142 20c59 0 95 -10 120 -30c22 -18 36 -48 36 -76c0 -42 -21 -73 -47 -104c36 -26 53 -58 53 -103
c0 -101 -84 -128 -171 -128c-44 0 -105 9 -136 15zM272 0l392 754h100l-393 -754h-99zM624 156l196 263h103l-195 -263h136v79h83v-235h-83v79h-240v77z" />
    <glyph glyph-name="onethird" unicode="&#x2153;" horiz-adv-x="896" 
d="M519 4v75c33 -6 89 -16 130 -16c40 0 92 3 92 56c0 52 -44 55 -85 55h-93v73h142l13 17c13 17 19 28 19 46c0 44 -44 46 -78 46c-53 0 -113 -15 -137 -21v75c28 7 88 20 142 20c59 0 95 -10 120 -30c22 -18 36 -48 36 -76c0 -42 -21 -73 -47 -104c36 -26 53 -58 53 -103
c0 -101 -84 -128 -171 -128c-44 0 -105 9 -136 15zM242 0h-99l392 754h100zM25 707l202 60v-432h-86v323l-116 -33v82z" />
    <glyph glyph-name="twothirds" unicode="&#x2154;" horiz-adv-x="1005" 
d="M628 79c33 -6 89 -16 130 -16c40 0 92 3 92 56c0 52 -44 55 -85 55h-93v73h142l13 17c13 17 19 28 19 46c0 44 -44 46 -78 46c-53 0 -113 -15 -137 -21v75c28 7 88 20 142 20c59 0 95 -10 120 -30c22 -18 36 -48 36 -76c0 -42 -21 -73 -47 -104c36 -26 53 -58 53 -103
c0 -101 -84 -128 -171 -128c-44 0 -105 9 -136 15v75zM350 0h-99l392 754h100zM362 335h-321v75c52 45 129 113 168 152c34 34 46 53 46 75c0 41 -31 50 -66 50c-53 0 -115 -16 -138 -22v80c28 7 87 20 141 20c77 0 147 -31 147 -118c0 -44 -13 -71 -47 -109
c-46 -52 -100 -98 -132 -126h202v-77z" />
    <glyph glyph-name="oneeighth" unicode="&#x215b;" horiz-adv-x="947" 
d="M709 -11c-85 0 -174 19 -174 121c0 48 30 77 67 102c-43 21 -53 56 -53 102c0 92 83 116 159 116s158 -25 158 -115c0 -43 -27 -75 -56 -104c43 -22 68 -49 68 -100c0 -97 -88 -122 -169 -122zM143 0l392 754h100l-393 -754h-99zM141 658l-116 -33v82l202 60v-432h-86
v323zM666 183c-24 -18 -49 -37 -49 -69c0 -50 52 -56 92 -56c39 0 87 9 87 57c0 21 -10 36 -38 46c-22 8 -60 16 -92 22zM708 361c-37 0 -79 -7 -79 -53c0 -31 10 -42 27 -51c18 -9 50 -15 87 -22c18 18 43 46 43 73c0 44 -41 53 -78 53z" />
    <glyph glyph-name="threeeighths" unicode="&#x215c;" horiz-adv-x="1077" 
d="M839 -11c-85 0 -174 19 -174 121c0 48 30 77 67 102c-43 21 -53 56 -53 102c0 92 83 116 159 116s158 -25 158 -115c0 -43 -27 -75 -56 -104c43 -22 68 -49 68 -100c0 -97 -88 -122 -169 -122zM189 324c-44 0 -105 9 -136 15v75c33 -6 89 -16 130 -16c40 0 92 3 92 56
c0 52 -44 55 -85 55h-93v73h142l13 17c13 17 19 28 19 46c0 44 -44 46 -78 46c-53 0 -113 -15 -137 -21v75c28 7 88 20 142 20c59 0 95 -10 120 -30c22 -18 36 -48 36 -76c0 -42 -21 -73 -47 -104c36 -26 53 -58 53 -103c0 -101 -84 -128 -171 -128zM371 0h-99l392 754h100z
M747 114c0 -50 52 -56 92 -56c39 0 87 9 87 57c0 21 -10 36 -38 46c-22 8 -60 16 -92 22c-24 -18 -49 -37 -49 -69zM838 361c-37 0 -79 -7 -79 -53c0 -31 10 -42 27 -51c18 -9 50 -15 87 -22c18 18 43 46 43 73c0 44 -41 53 -78 53z" />
    <glyph glyph-name="fiveeighths" unicode="&#x215d;" horiz-adv-x="1071" 
d="M833 -11c-85 0 -174 19 -174 121c0 48 30 77 67 102c-43 21 -53 56 -53 102c0 92 83 116 159 116s158 -25 158 -115c0 -43 -27 -75 -56 -104c43 -22 68 -49 68 -100c0 -97 -88 -122 -169 -122zM190 324c-47 0 -91 7 -121 12v75c34 -6 76 -13 121 -13c47 0 90 6 90 62
c0 17 -6 31 -20 40c-18 11 -45 14 -120 14h-66v240h274v-77h-192v-90h44c85 0 164 -22 164 -124c0 -111 -74 -139 -174 -139zM266 0l392 754h100l-393 -754h-99zM790 183c-24 -18 -49 -37 -49 -69c0 -50 52 -56 92 -56c39 0 87 9 87 57c0 21 -10 36 -38 46
c-22 8 -60 16 -92 22zM832 361c-37 0 -79 -7 -79 -53c0 -31 10 -42 27 -51c18 -9 50 -15 87 -22c18 18 43 46 43 73c0 44 -41 53 -78 53z" />
    <glyph glyph-name="seveneighths" unicode="&#x215e;" horiz-adv-x="1019" 
d="M606 110c0 48 30 77 67 102c-43 21 -53 56 -53 102c0 92 83 116 159 116s158 -25 158 -115c0 -43 -27 -75 -56 -104c43 -22 68 -49 68 -100c0 -97 -88 -122 -169 -122c-85 0 -174 19 -174 121zM313 0h-99l392 754h100zM15 754h336v-74l-198 -345h-98l196 342h-236v77z
M737 183c-24 -18 -49 -37 -49 -69c0 -50 52 -56 92 -56c39 0 87 9 87 57c0 21 -10 36 -38 46c-22 8 -60 16 -92 22zM700 308c0 -31 10 -42 27 -51c18 -9 50 -15 87 -22c18 18 43 46 43 73c0 44 -41 53 -78 53s-79 -7 -79 -53z" />
    <glyph glyph-name="uni215F" unicode="&#x215f;" horiz-adv-x="466" 
d="M242 0h-99l392 754h100zM227 335h-86v323l-116 -33v82l202 60v-432z" />
    <glyph glyph-name="fraction" unicode="&#x2044;" horiz-adv-x="165" 
d="M-59 0h-99l392 754h100z" />
    <glyph glyph-name="uni2070" unicode="&#x2070;" horiz-adv-x="465" 
d="M232 439c-148 0 -171 88 -171 219c0 81 7 131 37 169c27 34 76 53 134 53c143 0 172 -98 172 -222c0 -120 -35 -219 -172 -219zM145 658c0 -56 2 -95 21 -118c15 -18 34 -23 66 -23c85 0 88 74 88 141c0 54 -2 90 -19 114c-15 21 -37 30 -69 30s-54 -7 -68 -27
c-17 -25 -19 -59 -19 -117z" />
    <glyph glyph-name="onesuperior" unicode="&#xb9;" horiz-adv-x="301" 
d="M227 450h-86v323l-116 -33v82l202 60v-432z" />
    <glyph glyph-name="twosuperior" unicode="&#xb2;" horiz-adv-x="409" 
d="M41 525c52 45 129 113 168 152c34 34 46 53 46 75c0 41 -31 50 -66 50c-53 0 -115 -16 -138 -22v80c28 7 87 20 141 20c77 0 147 -31 147 -118c0 -44 -13 -71 -47 -109c-46 -52 -100 -98 -132 -126h202v-77h-321v75z" />
    <glyph glyph-name="threesuperior" unicode="&#xb3;" horiz-adv-x="430" 
d="M53 529c33 -6 89 -16 130 -16c40 0 92 3 92 56c0 52 -44 55 -85 55h-93v73h142l13 17c13 17 19 28 19 46c0 44 -44 46 -78 46c-53 0 -113 -15 -137 -21v75c28 7 88 20 142 20c59 0 95 -10 120 -30c22 -18 36 -48 36 -76c0 -42 -21 -73 -47 -104c36 -26 53 -58 53 -103
c0 -101 -84 -128 -171 -128c-44 0 -105 9 -136 15v75z" />
    <glyph glyph-name="uni2074" unicode="&#x2074;" horiz-adv-x="424" 
d="M28 529v77l196 263h103l-195 -263h136v79h83v-235h-83v79h-240z" />
    <glyph glyph-name="uni2075" unicode="&#x2075;" horiz-adv-x="424" 
d="M69 451v75c34 -6 76 -13 121 -13c47 0 90 6 90 62c0 17 -6 31 -20 40c-18 11 -45 14 -120 14h-66v240h274v-77h-192v-90h44c85 0 164 -22 164 -124c0 -111 -74 -139 -174 -139c-47 0 -91 7 -121 12z" />
    <glyph glyph-name="uni2076" unicode="&#x2076;" horiz-adv-x="443" 
d="M224 439c-109 0 -163 49 -163 158c0 97 9 160 72 211c50 41 126 62 226 73v-75c-63 -8 -190 -26 -206 -104c27 1 60 2 94 2c88 0 142 -36 142 -128c0 -98 -76 -137 -165 -137zM144 592c0 -58 20 -82 80 -82c45 0 82 15 82 66c0 50 -28 61 -74 61c-33 0 -61 -1 -86 -2
c-2 -14 -2 -28 -2 -43z" />
    <glyph glyph-name="uni2077" unicode="&#x2077;" horiz-adv-x="372" 
d="M153 450h-98l196 342h-236v77h336v-74z" />
    <glyph glyph-name="uni2078" unicode="&#x2078;" horiz-adv-x="481" 
d="M243 439c-85 0 -174 19 -174 121c0 48 30 77 67 102c-43 21 -53 56 -53 102c0 92 83 116 159 116s158 -25 158 -115c0 -43 -27 -75 -56 -104c43 -22 68 -49 68 -100c0 -97 -88 -122 -169 -122zM151 564c0 -50 52 -56 92 -56c39 0 87 9 87 57c0 21 -10 36 -38 46
c-22 8 -60 16 -92 22c-24 -18 -49 -37 -49 -69zM242 811c-37 0 -79 -7 -79 -53c0 -31 10 -42 27 -51c18 -9 50 -15 87 -22c18 18 43 46 43 73c0 44 -41 53 -78 53z" />
    <glyph glyph-name="uni2079" unicode="&#x2079;" horiz-adv-x="443" 
d="M190 602c-99 0 -135 38 -135 135c0 99 67 143 161 143c131 0 166 -85 166 -203c0 -53 -1 -91 -14 -131c-24 -78 -94 -107 -171 -107c-46 0 -81 6 -121 13v75c37 -7 74 -14 114 -14c63 0 109 26 109 96c-26 -3 -62 -7 -109 -7zM216 809c-50 0 -78 -19 -78 -71
s15 -69 68 -69c35 0 74 4 93 7c0 66 0 133 -83 133z" />
    <glyph glyph-name="uni207D" unicode="&#x207d;" horiz-adv-x="275" 
d="M107 414c-38 46 -41 112 -41 179v133c0 67 3 133 41 179c36 44 90 68 147 80v-82c-104 -36 -104 -97 -104 -197v-93c0 -100 1 -162 104 -197v-82c-57 12 -111 36 -147 80z" />
    <glyph glyph-name="uni207E" unicode="&#x207e;" horiz-adv-x="275" 
d="M21 903v82c57 -12 111 -36 147 -80c38 -46 41 -112 41 -179v-133c0 -67 -3 -133 -41 -179c-36 -44 -90 -68 -147 -80v82c104 36 104 97 104 197v93c0 100 0 161 -104 197z" />
    <glyph glyph-name="uni2071" unicode="&#x2071;" horiz-adv-x="236" 
d="M160 450h-84v313h84v-313zM162 822h-88v117h88v-117z" />
    <glyph glyph-name="uni207F" unicode="&#x207f;" horiz-adv-x="466" 
d="M74 450v313h84v-28c30 14 77 36 118 36c98 0 117 -54 117 -142v-179h-84v158c0 25 0 54 -11 69c-10 13 -24 16 -42 16c-33 0 -76 -21 -98 -32v-211h-84z" />
    <glyph glyph-name="uni2080" unicode="&#x2080;" horiz-adv-x="465" 
d="M232 -141c-148 0 -171 88 -171 219c0 81 7 131 37 169c27 34 76 53 134 53c143 0 172 -98 172 -222c0 -120 -35 -219 -172 -219zM145 78c0 -56 2 -95 21 -118c15 -18 34 -23 66 -23c85 0 88 74 88 141c0 54 -2 90 -19 114c-15 21 -37 30 -69 30s-54 -7 -68 -27
c-17 -25 -19 -59 -19 -117z" />
    <glyph glyph-name="uni2081" unicode="&#x2081;" horiz-adv-x="301" 
d="M227 -130h-86v323l-116 -33v82l202 60v-432z" />
    <glyph glyph-name="uni2082" unicode="&#x2082;" horiz-adv-x="409" 
d="M41 -55c52 45 129 113 168 152c34 34 46 53 46 75c0 41 -31 50 -66 50c-53 0 -115 -16 -138 -22v80c28 7 87 20 141 20c77 0 147 -31 147 -118c0 -44 -13 -71 -47 -109c-46 -52 -100 -98 -132 -126h202v-77h-321v75z" />
    <glyph glyph-name="uni2083" unicode="&#x2083;" horiz-adv-x="430" 
d="M53 -51c33 -6 89 -16 130 -16c40 0 92 3 92 56c0 52 -44 55 -85 55h-93v73h142l13 17c13 17 19 28 19 46c0 44 -44 46 -78 46c-53 0 -113 -15 -137 -21v75c28 7 88 20 142 20c59 0 95 -10 120 -30c22 -18 36 -48 36 -76c0 -42 -21 -73 -47 -104c36 -26 53 -58 53 -103
c0 -101 -84 -128 -171 -128c-44 0 -105 9 -136 15v75z" />
    <glyph glyph-name="uni2084" unicode="&#x2084;" horiz-adv-x="424" 
d="M28 -52v77l196 263h103l-195 -263h136v79h83v-235h-83v79h-240z" />
    <glyph glyph-name="uni2085" unicode="&#x2085;" horiz-adv-x="424" 
d="M69 -129v75c34 -6 76 -13 121 -13c47 0 90 6 90 62c0 17 -6 31 -20 40c-18 11 -45 14 -120 14h-66v240h274v-77h-192v-90h44c85 0 164 -22 164 -124c0 -111 -74 -139 -174 -139c-47 0 -91 7 -121 12z" />
    <glyph glyph-name="uni2086" unicode="&#x2086;" horiz-adv-x="443" 
d="M224 -141c-109 0 -163 49 -163 158c0 97 9 160 72 211c50 41 126 62 226 73v-75c-63 -8 -190 -26 -206 -104c27 1 60 2 94 2c88 0 142 -36 142 -128c0 -98 -76 -137 -165 -137zM144 12c0 -58 20 -82 80 -82c45 0 82 15 82 66c0 50 -28 61 -74 61c-33 0 -61 -1 -86 -2
c-2 -14 -2 -28 -2 -43z" />
    <glyph glyph-name="uni2087" unicode="&#x2087;" horiz-adv-x="372" 
d="M153 -130h-98l196 342h-236v77h336v-74z" />
    <glyph glyph-name="uni2088" unicode="&#x2088;" horiz-adv-x="481" 
d="M243 -141c-85 0 -174 19 -174 121c0 48 30 77 67 102c-43 21 -53 56 -53 102c0 92 83 116 159 116s158 -25 158 -115c0 -43 -27 -75 -56 -104c43 -22 68 -49 68 -100c0 -97 -88 -122 -169 -122zM151 -16c0 -50 52 -56 92 -56c39 0 87 9 87 57c0 21 -10 36 -38 46
c-22 8 -60 16 -92 22c-24 -18 -49 -37 -49 -69zM242 231c-37 0 -79 -7 -79 -53c0 -31 10 -42 27 -51c18 -9 50 -15 87 -22c18 18 43 46 43 73c0 44 -41 53 -78 53z" />
    <glyph glyph-name="uni2089" unicode="&#x2089;" horiz-adv-x="443" 
d="M190 22c-99 0 -135 38 -135 135c0 99 67 143 161 143c131 0 166 -85 166 -203c0 -53 -1 -91 -14 -131c-24 -78 -94 -107 -171 -107c-46 0 -81 6 -121 13v75c37 -7 74 -14 114 -14c63 0 109 26 109 96c-26 -3 -62 -7 -109 -7zM216 229c-50 0 -78 -19 -78 -71
s15 -69 68 -69c35 0 74 4 93 7c0 66 0 133 -83 133z" />
    <glyph glyph-name="uni208D" unicode="&#x208d;" horiz-adv-x="275" 
d="M107 -166c-38 46 -41 112 -41 179v133c0 67 3 133 41 179c36 44 90 68 147 80v-82c-104 -36 -104 -97 -104 -197v-93c0 -100 1 -162 104 -197v-82c-57 12 -111 36 -147 80z" />
    <glyph glyph-name="uni208E" unicode="&#x208e;" horiz-adv-x="275" 
d="M21 323v82c57 -12 111 -36 147 -80c38 -46 41 -112 41 -179v-133c0 -67 -3 -133 -41 -179c-36 -44 -90 -68 -147 -80v82c104 36 104 97 104 197v93c0 100 0 161 -104 197z" />
    <glyph glyph-name="uni2093" unicode="&#x2093;" horiz-adv-x="418" 
d="M122 -130h-102l127 161l-123 152h105l78 -100l77 100h103l-120 -150l130 -163h-104l-86 110z" />
    <glyph glyph-name="zero.numr" horiz-adv-x="465" 
d="M232 324c-148 0 -171 88 -171 219c0 81 7 131 37 169c27 34 76 53 134 53c143 0 172 -98 172 -222c0 -120 -35 -219 -172 -219zM145 543c0 -56 2 -95 21 -118c15 -18 34 -23 66 -23c85 0 88 74 88 141c0 54 -2 90 -19 114c-15 21 -37 30 -69 30s-54 -7 -68 -27
c-17 -25 -19 -59 -19 -117z" />
    <glyph glyph-name="one.numr" horiz-adv-x="301" 
d="M227 335h-86v323l-116 -33v82l202 60v-432z" />
    <glyph glyph-name="two.numr" horiz-adv-x="409" 
d="M41 410c52 45 129 113 168 152c34 34 46 53 46 75c0 41 -31 50 -66 50c-53 0 -115 -16 -138 -22v80c28 7 87 20 141 20c77 0 147 -31 147 -118c0 -44 -13 -71 -47 -109c-46 -52 -100 -98 -132 -126h202v-77h-321v75z" />
    <glyph glyph-name="three.numr" horiz-adv-x="430" 
d="M53 414c33 -6 89 -16 130 -16c40 0 92 3 92 56c0 52 -44 55 -85 55h-93v73h142l13 17c13 17 19 28 19 46c0 44 -44 46 -78 46c-53 0 -113 -15 -137 -21v75c28 7 88 20 142 20c59 0 95 -10 120 -30c22 -18 36 -48 36 -76c0 -42 -21 -73 -47 -104c36 -26 53 -58 53 -103
c0 -101 -84 -128 -171 -128c-44 0 -105 9 -136 15v75z" />
    <glyph glyph-name="four.numr" horiz-adv-x="424" 
d="M28 414v77l196 263h103l-195 -263h136v79h83v-235h-83v79h-240z" />
    <glyph glyph-name="five.numr" horiz-adv-x="424" 
d="M69 336v75c34 -6 76 -13 121 -13c47 0 90 6 90 62c0 17 -6 31 -20 40c-18 11 -45 14 -120 14h-66v240h274v-77h-192v-90h44c85 0 164 -22 164 -124c0 -111 -74 -139 -174 -139c-47 0 -91 7 -121 12z" />
    <glyph glyph-name="six.numr" horiz-adv-x="443" 
d="M224 324c-109 0 -163 49 -163 158c0 97 9 160 72 211c50 41 126 62 226 73v-75c-63 -8 -190 -26 -206 -104c27 1 60 2 94 2c88 0 142 -36 142 -128c0 -98 -76 -137 -165 -137zM144 477c0 -58 20 -82 80 -82c45 0 82 15 82 66c0 50 -28 61 -74 61c-33 0 -61 -1 -86 -2
c-2 -14 -2 -28 -2 -43z" />
    <glyph glyph-name="seven.numr" horiz-adv-x="372" 
d="M153 335h-98l196 342h-236v77h336v-74z" />
    <glyph glyph-name="eight.numr" horiz-adv-x="481" 
d="M243 324c-85 0 -174 19 -174 121c0 48 30 77 67 102c-43 21 -53 56 -53 102c0 92 83 116 159 116s158 -25 158 -115c0 -43 -27 -75 -56 -104c43 -22 68 -49 68 -100c0 -97 -88 -122 -169 -122zM151 449c0 -50 52 -56 92 -56c39 0 87 9 87 57c0 21 -10 36 -38 46
c-22 8 -60 16 -92 22c-24 -18 -49 -37 -49 -69zM242 696c-37 0 -79 -7 -79 -53c0 -31 10 -42 27 -51c18 -9 50 -15 87 -22c18 18 43 46 43 73c0 44 -41 53 -78 53z" />
    <glyph glyph-name="nine.numr" horiz-adv-x="443" 
d="M190 487c-99 0 -135 38 -135 135c0 99 67 143 161 143c131 0 166 -85 166 -203c0 -53 -1 -91 -14 -131c-24 -78 -94 -107 -171 -107c-46 0 -81 6 -121 13v75c37 -7 74 -14 114 -14c63 0 109 26 109 96c-26 -3 -62 -7 -109 -7zM216 694c-50 0 -78 -19 -78 -71
s15 -69 68 -69c35 0 74 4 93 7c0 66 0 133 -83 133z" />
    <glyph glyph-name="zero.dnom" horiz-adv-x="465" 
d="M232 -11c-148 0 -171 88 -171 219c0 81 7 131 37 169c27 34 76 53 134 53c143 0 172 -98 172 -222c0 -120 -35 -219 -172 -219zM145 208c0 -56 2 -95 21 -118c15 -18 34 -23 66 -23c85 0 88 74 88 141c0 54 -2 90 -19 114c-15 21 -37 30 -69 30s-54 -7 -68 -27
c-17 -25 -19 -59 -19 -117z" />
    <glyph glyph-name="one.dnom" horiz-adv-x="301" 
d="M227 0h-86v323l-116 -33v82l202 60v-432z" />
    <glyph glyph-name="two.dnom" horiz-adv-x="409" 
d="M41 75c52 45 129 113 168 152c34 34 46 53 46 75c0 41 -31 50 -66 50c-53 0 -115 -16 -138 -22v80c28 7 87 20 141 20c77 0 147 -31 147 -118c0 -44 -13 -71 -47 -109c-46 -52 -100 -98 -132 -126h202v-77h-321v75z" />
    <glyph glyph-name="three.dnom" horiz-adv-x="430" 
d="M53 79c33 -6 89 -16 130 -16c40 0 92 3 92 56c0 52 -44 55 -85 55h-93v73h142l13 17c13 17 19 28 19 46c0 44 -44 46 -78 46c-53 0 -113 -15 -137 -21v75c28 7 88 20 142 20c59 0 95 -10 120 -30c22 -18 36 -48 36 -76c0 -42 -21 -73 -47 -104c36 -26 53 -58 53 -103
c0 -101 -84 -128 -171 -128c-44 0 -105 9 -136 15v75z" />
    <glyph glyph-name="four.dnom" horiz-adv-x="424" 
d="M28 79v77l196 263h103l-195 -263h136v79h83v-235h-83v79h-240z" />
    <glyph glyph-name="five.dnom" horiz-adv-x="424" 
d="M69 1v75c34 -6 76 -13 121 -13c47 0 90 6 90 62c0 17 -6 31 -20 40c-18 11 -45 14 -120 14h-66v240h274v-77h-192v-90h44c85 0 164 -22 164 -124c0 -111 -74 -139 -174 -139c-47 0 -91 7 -121 12z" />
    <glyph glyph-name="six.dnom" horiz-adv-x="443" 
d="M224 -11c-109 0 -163 49 -163 158c0 97 9 160 72 211c50 41 126 62 226 73v-75c-63 -8 -190 -26 -206 -104c27 1 60 2 94 2c88 0 142 -36 142 -128c0 -98 -76 -137 -165 -137zM144 142c0 -58 20 -82 80 -82c45 0 82 15 82 66c0 50 -28 61 -74 61c-33 0 -61 -1 -86 -2
c-2 -14 -2 -28 -2 -43z" />
    <glyph glyph-name="seven.dnom" horiz-adv-x="372" 
d="M153 0h-98l196 342h-236v77h336v-74z" />
    <glyph glyph-name="eight.dnom" horiz-adv-x="481" 
d="M243 -11c-85 0 -174 19 -174 121c0 48 30 77 67 102c-43 21 -53 56 -53 102c0 92 83 116 159 116s158 -25 158 -115c0 -43 -27 -75 -56 -104c43 -22 68 -49 68 -100c0 -97 -88 -122 -169 -122zM151 114c0 -50 52 -56 92 -56c39 0 87 9 87 57c0 21 -10 36 -38 46
c-22 8 -60 16 -92 22c-24 -18 -49 -37 -49 -69zM242 361c-37 0 -79 -7 -79 -53c0 -31 10 -42 27 -51c18 -9 50 -15 87 -22c18 18 43 46 43 73c0 44 -41 53 -78 53z" />
    <glyph glyph-name="nine.dnom" horiz-adv-x="443" 
d="M190 152c-99 0 -135 38 -135 135c0 99 67 143 161 143c131 0 166 -85 166 -203c0 -53 -1 -91 -14 -131c-24 -78 -94 -107 -171 -107c-46 0 -81 6 -121 13v75c37 -7 74 -14 114 -14c63 0 109 26 109 96c-26 -3 -62 -7 -109 -7zM216 359c-50 0 -78 -19 -78 -71
s15 -69 68 -69c35 0 74 4 93 7c0 66 0 133 -83 133z" />
    <glyph glyph-name="plus" unicode="+" horiz-adv-x="700" 
d="M76 423h227v232h94v-232h227v-92h-227v-232h-94v232h-227v92z" />
    <glyph glyph-name="minus" unicode="&#x2212;" horiz-adv-x="700" 
d="M624 331h-548v92h548v-92z" />
    <glyph glyph-name="plusminus" unicode="&#xb1;" horiz-adv-x="700" 
d="M76 423h227v232h94v-232h227v-92h-227v-205h-94v205h-227v92zM624 0h-548v92h548v-92z" />
    <glyph glyph-name="multiply" unicode="&#xd7;" horiz-adv-x="700" 
d="M86 622h115l149 -180l150 180h114l-205 -245l205 -245h-115l-149 180l-150 -180h-114l205 245z" />
    <glyph glyph-name="divide" unicode="&#xf7;" horiz-adv-x="700" 
d="M76 423h548v-92h-548v92zM297 512v132h106v-132h-106zM297 110v132h106v-132h-106z" />
    <glyph glyph-name="less" unicode="&#x3c;" horiz-adv-x="700" 
d="M624 100l-548 233v88l548 233v-98l-424 -179l424 -179v-98z" />
    <glyph glyph-name="greater" unicode="&#x3e;" horiz-adv-x="700" 
d="M76 654l548 -233v-88l-548 -233v98l424 179l-424 179v98z" />
    <glyph glyph-name="lessequal" unicode="&#x2264;" horiz-adv-x="700" 
d="M76 430l548 224v-97l-420 -171l420 -173v-97l-548 226v88zM624 0h-548v90h548v-90z" />
    <glyph glyph-name="greaterequal" unicode="&#x2265;" horiz-adv-x="700" 
d="M624 342l-548 -226v97l420 173l-420 171v97l548 -224v-88zM624 0h-548v90h548v-90z" />
    <glyph glyph-name="equal" unicode="=" horiz-adv-x="700" 
d="M624 225h-548v91h548v-91zM624 437h-548v91h548v-91z" />
    <glyph glyph-name="notequal" unicode="&#x2260;" horiz-adv-x="700" 
d="M76 528h317l96 153h94l-95 -153h136v-91h-191l-78 -121h269v-91h-324l-95 -152h-94l95 152h-130v91h184l78 121h-262v91z" />
    <glyph glyph-name="approxequal" unicode="&#x2248;" horiz-adv-x="700" 
d="M213 475c-67 0 -109 -42 -137 -70v103c30 29 68 58 137 58c48 0 76 -4 157 -41c59 -27 74 -34 114 -34c67 0 111 42 140 70v-102c-30 -30 -74 -59 -140 -59c-50 0 -71 9 -152 44c-60 26 -79 31 -119 31zM76 295c30 29 68 58 137 58c48 0 76 -4 157 -41
c59 -27 74 -34 114 -34c67 0 111 42 140 70v-102c-30 -30 -74 -59 -140 -59c-50 0 -71 9 -152 44c-60 26 -79 31 -119 31c-67 0 -109 -42 -137 -70v103z" />
    <glyph glyph-name="radical" unicode="&#x221a;" horiz-adv-x="700" 
d="M367 0h-117l-131 331h-94v90h161l123 -313l304 741h103z" />
    <glyph glyph-name="infinity" unicode="&#x221e;" horiz-adv-x="982" 
d="M258 180c-131 0 -192 67 -192 182c0 114 66 181 189 181c92 0 162 -49 238 -121c78 71 141 121 233 121c125 0 190 -73 190 -181c0 -110 -71 -182 -186 -182c-89 0 -159 40 -240 121c-78 -74 -143 -121 -232 -121zM153 362c0 -64 36 -98 105 -98c57 0 98 30 173 97
c-87 78 -120 98 -176 98c-66 0 -102 -40 -102 -97zM552 361c80 -73 116 -97 178 -97c64 0 99 44 99 98c0 60 -37 97 -103 97c-58 0 -100 -29 -174 -98z" />
    <glyph glyph-name="integral" unicode="&#x222b;" horiz-adv-x="600" 
d="M54 -193v90c22 -5 76 -17 114 -17c40 0 69 9 79 60c6 31 6 69 6 148v489c0 160 68 194 166 194c51 0 107 -12 127 -17v-89c-17 4 -79 17 -120 17c-51 0 -75 -18 -78 -106c-1 -26 -1 -76 -1 -207v-268c0 -27 0 -114 -2 -154c-6 -119 -77 -156 -160 -156
c-62 0 -105 10 -131 16z" />
    <glyph glyph-name="logicalnot" unicode="&#xac;" horiz-adv-x="700" 
d="M624 197h-94v241h-454v90h548v-331z" />
    <glyph glyph-name="numbersign" unicode="#" horiz-adv-x="650" 
d="M137 192h-109v80h121l34 212h-109v80h121l30 191h83l-30 -191h152l30 191h83l-30 -191h109v-80h-121l-34 -212h109v-80h-121l-30 -192h-83l30 192h-152l-30 -192h-83zM266 484l-34 -212h152l34 212h-152z" />
    <glyph glyph-name="uni2116" unicode="&#x2116;" horiz-adv-x="1179" 
d="M185 0h-95v754h119l362 -615v615h95v-754h-119l-362 615v-615zM952 355c-138 0 -191 74 -191 206c0 127 52 210 191 210c136 0 191 -80 191 -209c0 -126 -57 -207 -191 -207zM952 691c-88 0 -106 -52 -106 -129s20 -127 106 -127c83 0 106 54 106 129
c0 76 -23 127 -106 127z" />
    <glyph glyph-name="uni2113" unicode="&#x2113;" horiz-adv-x="455" 
d="M76 525c0 129 1 246 163 246c115 0 156 -66 156 -175c0 -101 -66 -209 -225 -392v-22c0 -54 0 -75 18 -93c16 -16 43 -17 66 -17c50 0 114 19 151 32v-93c-45 -15 -100 -28 -152 -28c-173 0 -177 70 -177 220v322zM184 655c-13 -25 -14 -59 -14 -119v-203
c70 90 130 167 130 257c0 45 -5 95 -62 95c-27 0 -43 -8 -54 -30z" />
    <glyph glyph-name="ampersand" unicode="&#x26;" horiz-adv-x="765" 
d="M55 186c0 116 69 177 153 243c-42 44 -71 100 -71 162c0 137 93 180 217 180c59 0 138 -16 186 -28v-96c-52 13 -128 31 -186 31c-68 0 -119 -17 -119 -94c0 -40 18 -62 50 -100c37 -44 121 -128 177 -184h-129l-63 63c-59 -44 -118 -90 -118 -170
c0 -88 52 -117 133 -117c90 0 143 46 199 112l95 112h117l-109 -131l164 -169h-133l-93 96c-71 -73 -134 -113 -240 -113c-132 0 -230 60 -230 203z" />
    <glyph glyph-name="at" unicode="@" horiz-adv-x="955" 
d="M78 230c0 120 26 247 100 328c60 66 139 100 301 100c127 0 297 -63 386 -96v-301c0 -64 -6 -128 -42 -175c-54 -71 -156 -97 -242 -97v77c-42 -39 -93 -79 -153 -79c-139 0 -154 135 -154 243c0 60 8 128 37 171c35 52 79 71 166 71c59 0 123 -22 193 -46v-347
c105 32 111 94 111 192v236c-60 21 -202 71 -302 71c-123 0 -183 -21 -230 -68c-64 -64 -86 -169 -86 -280c0 -187 41 -313 231 -359v-85c-241 53 -316 203 -316 444zM385 346c-16 -29 -21 -74 -21 -116c0 -44 4 -89 15 -115c12 -29 28 -41 61 -41c29 0 52 15 79 35
c23 17 45 35 62 50v208c-31 10 -66 21 -101 21c-47 0 -76 -8 -95 -42z" />
    <glyph glyph-name="A" unicode="A" horiz-adv-x="710" 
d="M11 0l280 754h126l282 -754h-105l-65 175h-352l-65 -175h-101zM209 267h287l-143 389z" />
    <glyph glyph-name="B" unicode="B" horiz-adv-x="728" 
d="M401 0h-311v754h318c77 0 128 -6 170 -31c47 -28 75 -80 75 -143c0 -47 -16 -82 -39 -123c-13 -23 -29 -47 -41 -66c66 -44 97 -93 97 -175c0 -168 -120 -216 -269 -216zM424 339h-238v-247h216c91 0 170 17 170 124c0 95 -65 123 -148 123zM186 431h307
c11 18 22 36 32 53c18 31 30 56 30 88c0 89 -85 90 -153 90h-216v-231z" />
    <glyph glyph-name="C" unicode="C" horiz-adv-x="658" 
d="M372 -17c-251 0 -297 175 -297 387c0 218 42 401 300 401c78 0 158 -18 233 -39v-96c-38 10 -80 21 -122 29c-35 7 -69 13 -104 13c-93 0 -144 -25 -176 -89c-24 -48 -33 -130 -33 -218c0 -84 9 -158 30 -203c30 -64 83 -92 179 -92c69 0 157 19 226 34v-95
c-70 -15 -154 -32 -236 -32z" />
    <glyph glyph-name="D" unicode="D" horiz-adv-x="742" 
d="M344 0h-254v754h262c108 0 174 -17 228 -72c60 -61 87 -163 87 -302c0 -140 -30 -245 -97 -309c-56 -54 -124 -71 -226 -71zM186 661v-568h159c86 0 133 19 170 64s54 124 54 223c0 97 -15 180 -57 230c-37 44 -89 51 -160 51h-166z" />
    <glyph glyph-name="E" unicode="E" horiz-adv-x="654" 
d="M90 754h510v-93h-414v-230h392v-93h-392v-245h430v-93h-526v754z" />
    <glyph glyph-name="F" unicode="F" horiz-adv-x="627" 
d="M90 754h508v-93h-412v-240h377v-93h-377v-327h-96v753z" />
    <glyph glyph-name="G" unicode="G" horiz-adv-x="731" 
d="M121 112c-31 58 -46 146 -46 258c0 218 43 401 301 401c77 0 166 -21 241 -40v-96c-40 10 -89 22 -136 31c-33 6 -66 12 -98 12c-94 0 -144 -24 -176 -89c-24 -48 -34 -128 -34 -218c0 -91 9 -160 31 -206c29 -61 83 -89 178 -89c57 0 126 8 165 13v314h96v-395
c-77 -12 -179 -25 -271 -25c-149 0 -210 53 -251 129z" />
    <glyph glyph-name="H" unicode="H" horiz-adv-x="757" 
d="M186 0h-96v754h96v-310h385v310h96v-754h-96v351h-385v-351z" />
    <glyph glyph-name="I" unicode="I" horiz-adv-x="276" 
d="M186 0h-96v754h96v-754z" />
    <glyph glyph-name="J" unicode="J" horiz-adv-x="385" 
d="M-16 -104v98c38 12 110 37 153 62c27 16 44 30 53 56c10 29 10 75 10 118v524h96v-527c0 -67 1 -118 -14 -159c-10 -28 -30 -54 -63 -74c-64 -39 -178 -81 -235 -98z" />
    <glyph glyph-name="K" unicode="K" horiz-adv-x="661" 
d="M186 0h-96v754h96v-358l333 358h128l-345 -371l377 -383h-134l-359 364v-364z" />
    <glyph glyph-name="L" unicode="L" horiz-adv-x="612" 
d="M584 0h-494v754h96v-661h398v-93z" />
    <glyph glyph-name="M" unicode="M" horiz-adv-x="881" 
d="M90 754h134l217 -490l217 490h133v-754h-95v623l-209 -473h-93l-209 473v-623h-95v754z" />
    <glyph glyph-name="N" unicode="N" horiz-adv-x="756" 
d="M90 754h119l362 -615v615h95v-754h-119l-362 615v-615h-95v754z" />
    <glyph glyph-name="O" unicode="O" horiz-adv-x="789" 
d="M132 96c-40 64 -57 171 -57 280c0 228 58 395 320 395c128 0 200 -35 253 -109c49 -68 66 -182 66 -286c0 -226 -64 -393 -319 -393c-146 0 -217 39 -263 113zM173 376c0 -78 9 -173 38 -224c37 -65 105 -76 184 -76c195 0 221 132 221 300c0 84 -10 170 -43 223
c-37 60 -98 79 -178 79s-148 -18 -186 -86c-27 -49 -36 -136 -36 -216z" />
    <glyph glyph-name="P" unicode="P" horiz-adv-x="670" 
d="M90 0v754h298c152 0 238 -71 238 -228c0 -152 -67 -231 -219 -241c-44 -3 -130 -3 -221 -3v-282h-96zM186 661v-286c80 0 160 0 211 4c101 8 131 48 131 147c0 45 -12 83 -36 106c-25 24 -60 29 -113 29h-193z" />
    <glyph glyph-name="Q" unicode="Q" horiz-adv-x="789" 
d="M75 376c0 228 58 395 320 395c128 0 200 -35 253 -109c49 -68 66 -182 66 -286c0 -139 -25 -306 -168 -367l161 -40v-90l-374 96c-69 19 -143 44 -186 102c-61 82 -72 201 -72 299zM173 376c0 -78 9 -173 38 -224c37 -65 105 -76 184 -76c195 0 221 132 221 300
c0 84 -10 170 -43 223c-37 60 -98 79 -178 79s-148 -18 -186 -86c-27 -49 -36 -136 -36 -216z" />
    <glyph glyph-name="R" unicode="R" horiz-adv-x="704" 
d="M186 0h-96v754h287c98 0 156 -10 203 -46c45 -34 68 -93 68 -158c0 -67 -29 -112 -67 -158c-26 -31 -61 -65 -82 -86l187 -306h-114l-177 291h-209v-291zM186 384h262c20 21 39 41 55 60c26 30 47 63 47 106c0 111 -96 111 -181 111h-183v-277z" />
    <glyph glyph-name="S" unicode="S" horiz-adv-x="644" 
d="M52 562c0 62 18 117 65 158c45 39 104 51 191 51c84 0 184 -24 263 -43v-96c-70 17 -190 46 -261 46c-81 0 -160 -13 -160 -112c0 -33 5 -56 24 -73c18 -16 49 -27 93 -42l150 -50c108 -36 175 -76 175 -202c0 -63 -22 -117 -65 -156c-48 -44 -113 -60 -212 -60
c-85 0 -190 22 -257 36v95c74 -16 185 -38 261 -38c83 0 175 18 175 120c0 30 -5 53 -23 72c-19 20 -52 30 -103 47l-151 51c-104 35 -165 75 -165 196z" />
    <glyph glyph-name="Germandbls" unicode="&#x1e9e;" horiz-adv-x="770" 
d="M184 0h-96v370c0 239 7 401 300 401c97 0 204 -21 281 -41v-92l-130 -218l38 -21c88 -48 147 -90 147 -201c0 -62 -18 -116 -62 -156c-49 -45 -111 -59 -209 -59c-63 0 -125 11 -160 18v96c42 -9 101 -21 163 -21c86 0 170 15 170 119c0 29 -5 51 -22 71s-47 39 -92 62
l-105 54l162 274c-37 10 -111 22 -175 22c-98 0 -153 -14 -186 -78c-24 -46 -24 -123 -24 -213v-387z" />
    <glyph glyph-name="T" unicode="T" horiz-adv-x="668" 
d="M19 661v93h630v-93h-267v-661h-96v661h-267z" />
    <glyph glyph-name="U" unicode="U" horiz-adv-x="739" 
d="M88 754h96v-467c0 -153 26 -211 186 -211s185 62 185 211v467h96v-467c0 -114 -10 -190 -71 -243c-51 -45 -116 -61 -210 -61c-220 0 -282 91 -282 304v467z" />
    <glyph glyph-name="V" unicode="V" horiz-adv-x="680" 
d="M281 0l-282 754h105l236 -638l237 638h104l-282 -754h-118z" />
    <glyph glyph-name="W" unicode="W" horiz-adv-x="914" 
d="M180 0l-156 754h98l133 -641l148 527h109l149 -527l132 641h97l-155 -754h-133l-145 514l-144 -514h-133z" />
    <glyph glyph-name="X" unicode="X" horiz-adv-x="668" 
d="M116 0h-115l259 382l-244 372h117l201 -308l202 308h114l-242 -366l259 -388h-118l-215 324z" />
    <glyph glyph-name="Y" unicode="Y" horiz-adv-x="628" 
d="M266 287l-277 467h113l213 -362l213 362h111l-277 -467v-287h-96v287z" />
    <glyph glyph-name="Z" unicode="Z" horiz-adv-x="653" 
d="M608 0h-563v94l433 567h-418v93h541v-94l-433 -567h440v-93z" />
    <glyph glyph-name="a" unicode="a" 
d="M234 -17c-156 0 -178 154 -178 278c0 164 45 284 231 284c72 0 142 -25 227 -56v-489h-94v81c-52 -46 -113 -98 -186 -98zM291 456c-124 0 -140 -91 -140 -195c0 -53 5 -108 18 -138c15 -35 38 -50 78 -50c32 0 67 21 99 46c26 20 53 43 74 61v246c-39 14 -84 30 -129 30
z" />
    <glyph glyph-name="b" unicode="b" horiz-adv-x="594" 
d="M76 21v733h94v-270c54 30 116 61 179 61c157 0 189 -150 189 -278c0 -84 -15 -149 -46 -197c-37 -57 -86 -87 -184 -87c-78 0 -157 19 -232 38zM170 93c44 -12 89 -21 135 -21c116 0 138 96 138 193c0 78 -6 191 -109 191c-49 0 -121 -39 -164 -63v-300z" />
    <glyph glyph-name="c" unicode="c" horiz-adv-x="487" 
d="M98 70c-29 47 -42 118 -42 191c0 70 9 135 31 179c33 67 83 105 197 105c54 0 120 -17 166 -29v-92c-42 12 -112 32 -158 32c-63 0 -99 -13 -121 -61c-15 -33 -20 -83 -20 -132c0 -52 8 -104 25 -137c21 -41 59 -54 116 -54c50 0 116 17 158 28v-92
c-44 -10 -113 -25 -165 -25c-104 0 -152 29 -187 87z" />
    <glyph glyph-name="d" unicode="d" horiz-adv-x="595" 
d="M56 263c0 147 30 282 206 282c57 0 124 -20 163 -32v241h94v-754h-94v66c-55 -42 -119 -83 -190 -83c-156 0 -179 157 -179 280zM173 402c-17 -36 -22 -81 -22 -138c0 -62 5 -104 19 -139c14 -36 36 -51 81 -51c56 0 130 55 174 89v261c-48 15 -103 32 -148 32
c-50 0 -85 -13 -104 -54z" />
    <glyph glyph-name="e" unicode="e" horiz-adv-x="567" 
d="M56 261c0 166 45 284 235 284c150 0 223 -71 223 -217c0 -27 -4 -74 -10 -106h-355c0 -110 50 -153 161 -153c64 0 134 13 177 21v-87c-43 -8 -116 -20 -183 -20c-198 0 -248 99 -248 278zM149 297h270c1 7 3 25 3 42c0 85 -45 123 -131 123c-110 0 -142 -65 -142 -165z
" />
    <glyph glyph-name="f" unicode="f" horiz-adv-x="319" 
d="M76 520c0 30 0 71 8 107c7 31 23 59 50 80c45 35 114 53 180 68v-92c-42 -10 -92 -22 -120 -50c-16 -16 -20 -33 -22 -51c-3 -24 -2 -43 -2 -61h145v-89h-145v-432h-94v520z" />
    <glyph glyph-name="g" unicode="g" horiz-adv-x="591" 
d="M57 267c0 79 11 145 38 191c38 65 95 87 188 87c72 0 164 -31 232 -54v-443c0 -176 -90 -257 -265 -257c-63 0 -126 8 -173 14v88c36 -5 110 -15 173 -15c104 0 171 48 171 156v18c-55 -27 -117 -52 -179 -52c-158 0 -185 137 -185 267zM152 267c0 -56 6 -99 20 -131
c15 -35 41 -47 86 -47c30 0 60 9 89 20c30 11 51 22 74 33v285c-33 11 -92 29 -136 29c-57 0 -91 -14 -111 -55c-16 -32 -22 -78 -22 -134z" />
    <glyph glyph-name="h" unicode="h" horiz-adv-x="587" 
d="M76 0v754h94v-257c58 23 121 48 176 48c144 0 166 -86 166 -212v-333h-94v329c0 75 -2 125 -90 125c-48 0 -114 -28 -158 -47v-407h-94z" />
    <glyph glyph-name="i" unicode="i" horiz-adv-x="246" 
d="M170 0h-94v528h94v-528zM171 613h-96v141h96v-141z" />
    <glyph glyph-name="j" unicode="j" horiz-adv-x="258" 
d="M-46 -117c48 16 111 41 128 94c7 22 6 57 6 88v463h94v-473c0 -35 -1 -87 -10 -114c-28 -87 -139 -128 -218 -152v94zM87 613v141h96v-141h-96z" />
    <glyph glyph-name="k" unicode="k" horiz-adv-x="531" 
d="M170 0h-94v754h94v-454l222 228h128l-237 -243l257 -285h-127l-243 270v-270z" />
    <glyph glyph-name="l" unicode="l" horiz-adv-x="246" 
d="M170 0h-94v754h94v-754z" />
    <glyph glyph-name="m" unicode="m" horiz-adv-x="889" 
d="M76 0v528h94v-37c50 24 115 54 170 54c50 0 109 -13 130 -65c48 27 119 65 183 65c143 0 161 -89 161 -213v-332h-94v328c0 43 -1 79 -17 101c-15 21 -37 25 -65 25c-46 0 -109 -34 -146 -54v-400h-94v339c0 42 -2 72 -14 90c-14 21 -34 25 -63 25
c-46 0 -109 -31 -151 -52v-402h-94z" />
    <glyph glyph-name="n" unicode="n" 
d="M76 0v528h94v-35c55 23 128 52 182 52c141 0 163 -89 163 -212v-333h-94v330c0 72 -2 124 -87 124c-50 0 -119 -30 -164 -50v-404h-94z" />
    <glyph glyph-name="o" unicode="o" 
d="M295 -17c-185 0 -239 110 -239 278c0 165 51 284 239 284c185 0 239 -114 239 -281c0 -164 -55 -281 -239 -281zM151 262c0 -54 8 -103 26 -135c24 -43 63 -55 118 -55c124 0 144 90 144 195c0 104 -22 189 -144 189c-125 0 -144 -89 -144 -194z" />
    <glyph glyph-name="p" unicode="p" horiz-adv-x="594" 
d="M76 528h94v-54c50 36 109 71 173 71c159 0 195 -149 195 -280c0 -142 -40 -282 -208 -282c-56 0 -117 23 -160 43v-218h-94v720zM170 380v-261c41 -20 96 -46 146 -46c111 0 127 101 127 191c0 82 -10 192 -115 192c-27 0 -54 -10 -80 -26s-55 -34 -78 -50z" />
    <glyph glyph-name="q" unicode="q" horiz-adv-x="595" 
d="M241 -17c-160 0 -185 151 -185 279c0 165 44 283 231 283c77 0 188 -38 232 -53v-684h-94v237c-56 -33 -118 -62 -184 -62zM288 456c-123 0 -137 -92 -137 -194c0 -60 7 -107 19 -137c15 -37 41 -52 87 -52c56 0 122 34 168 65v290c-42 14 -92 28 -137 28z" />
    <glyph glyph-name="r" unicode="r" horiz-adv-x="365" 
d="M76 528h94v-64c63 47 108 64 187 76v-95c-67 -12 -131 -38 -187 -77v-368h-94v528z" />
    <glyph glyph-name="s" unicode="s" horiz-adv-x="515" 
d="M51 391c0 124 94 154 201 154c62 0 155 -21 191 -31v-90c-40 10 -133 33 -189 33c-48 0 -108 -3 -108 -66c0 -20 5 -36 21 -46c14 -9 34 -15 64 -24l96 -29c81 -25 137 -55 137 -150c0 -129 -108 -159 -217 -159c-68 0 -151 17 -190 25v90c48 -10 130 -27 196 -27
c49 0 116 5 116 70c0 18 -5 32 -17 43c-14 12 -40 20 -74 30l-93 28c-82 25 -134 54 -134 149z" />
    <glyph glyph-name="germandbls" unicode="&#xdf;" horiz-adv-x="616" 
d="M170 0h-94v511c0 31 0 68 8 105c22 100 112 148 210 148c106 0 199 -47 199 -166c0 -52 -18 -83 -42 -116c-22 -30 -45 -54 -62 -72l88 -78c55 -49 96 -95 96 -173c0 -118 -104 -168 -209 -168c-41 0 -76 4 -112 9v90c37 -6 67 -10 105 -10c52 0 121 16 121 80
c0 21 -3 33 -13 49c-9 15 -30 35 -58 61l-147 129c31 33 72 77 99 110s39 52 39 83c0 65 -46 83 -104 83c-41 0 -81 -15 -103 -47c-21 -30 -21 -86 -21 -122v-506z" />
    <glyph glyph-name="t" unicode="t" horiz-adv-x="345" 
d="M75 664h94v-143h162v-89h-162v-219c0 -35 0 -56 3 -78c3 -20 12 -33 36 -41c25 -8 61 -10 98 -12v-89c-59 3 -116 8 -154 20c-37 12 -56 30 -66 58c-11 31 -11 64 -11 140v453z" />
    <glyph glyph-name="u" unicode="u" horiz-adv-x="583" 
d="M75 528h94v-319c0 -84 2 -137 100 -137c59 0 108 12 144 22v434h94v-503c-72 -20 -152 -42 -246 -42c-155 0 -186 85 -186 224v321z" />
    <glyph glyph-name="v" unicode="v" horiz-adv-x="519" 
d="M193 0l-188 528h102l154 -442l154 442h99l-188 -528h-133z" />
    <glyph glyph-name="w" unicode="w" horiz-adv-x="813" 
d="M159 0l-147 528h96l119 -431l125 431h111l125 -431l120 431h93l-148 -528h-126l-121 420l-121 -420h-126z" />
    <glyph glyph-name="x" unicode="x" horiz-adv-x="531" 
d="M113 0h-109l195 269l-186 259h113l139 -197l143 197h110l-186 -252l195 -276h-113l-148 213z" />
    <glyph glyph-name="y" unicode="y" horiz-adv-x="537" 
d="M218 2l-212 526h103l160 -403l160 403h102l-291 -720h-100z" />
    <glyph glyph-name="z" unicode="z" horiz-adv-x="516" 
d="M483 0h-448v82l308 357h-294v89h423v-82l-308 -357h319v-89z" />
    <glyph glyph-name="fi" unicode="&#xfb01;" horiz-adv-x="575" 
d="M170 0h-94v520c0 30 0 71 8 107c7 31 23 59 50 80c45 35 114 53 180 68v-92c-42 -10 -92 -22 -120 -50c-16 -16 -20 -33 -22 -51c-3 -24 -2 -43 -2 -61h145v-89h-145v-432zM499 0h-94v528h94v-528zM404 754h96v-141h-96v141z" />
    <glyph glyph-name="fl" unicode="&#xfb02;" horiz-adv-x="575" 
d="M76 0v520c0 30 0 71 8 107c7 31 23 59 50 80c45 35 114 53 180 68v-92c-42 -10 -92 -22 -120 -50c-16 -16 -20 -33 -22 -51c-3 -24 -2 -43 -2 -61h145v-89h-145v-432h-94zM405 754h94v-754h-94v754z" />
    <glyph glyph-name="guillemotleft" unicode="&#xab;" horiz-adv-x="580" 
d="M451 58l-172 206l172 206h115l-172 -206l172 -206h-115zM223 58l-172 206l172 206h115l-172 -206l172 -206h-115z" />
    <glyph glyph-name="guillemotright" unicode="&#xbb;" horiz-adv-x="580" 
d="M357 58h-115l172 206l-172 206h115l172 -206zM14 58l172 206l-172 206h115l172 -206l-172 -206h-115z" />
    <glyph glyph-name="guilsinglleft" unicode="&#x2039;" horiz-adv-x="352" 
d="M338 58h-115l-172 206l172 206h115l-172 -206z" />
    <glyph glyph-name="guilsinglright" unicode="&#x203a;" horiz-adv-x="352" 
d="M129 58h-115l172 206l-172 206h115l172 -206z" />
    <glyph glyph-name="quotedblbase" unicode="&#x201e;" horiz-adv-x="450" 
d="M322 -179h-74c13 60 24 112 24 211v115h99v-122c0 -83 -26 -153 -49 -204zM143 -179h-74c13 60 24 112 24 211v115h99v-122c0 -83 -26 -153 -49 -204z" />
    <glyph glyph-name="quotedblleft" unicode="&#x201c;" horiz-adv-x="450" 
d="M357 428h-99v122c0 84 26 153 49 204h74c-13 -60 -24 -112 -24 -211v-115zM79 428v122c0 84 26 153 49 204h74c-13 -60 -24 -112 -24 -211v-115h-99z" />
    <glyph glyph-name="quotedblright" unicode="&#x201d;" horiz-adv-x="450" 
d="M322 428h-74c13 61 24 112 24 211v115h99v-122c0 -83 -26 -153 -49 -204zM143 428h-74c13 61 24 112 24 211v115h99v-122c0 -83 -26 -153 -49 -204z" />
    <glyph glyph-name="quotesinglbase" unicode="&#x201a;" horiz-adv-x="271" 
d="M143 -179h-74c13 60 24 112 24 211v115h99v-122c0 -83 -26 -153 -49 -204z" />
    <glyph glyph-name="quoteleft" unicode="&#x2018;" horiz-adv-x="271" 
d="M178 428h-99v122c0 84 26 153 49 204h74c-13 -60 -24 -112 -24 -211v-115z" />
    <glyph glyph-name="quoteright" unicode="&#x2019;" horiz-adv-x="271" 
d="M143 428h-74c13 61 24 112 24 211v115h99v-122c0 -83 -26 -153 -49 -204z" />
    <glyph glyph-name="questiondown" unicode="&#xbf;" horiz-adv-x="528" 
d="M271 -209c-118 0 -214 50 -214 181c0 63 18 108 58 159c26 33 51 63 90 106c38 42 50 67 57 85h106c-14 -40 -29 -72 -71 -119c-35 -39 -68 -76 -94 -109c-28 -36 -49 -71 -49 -117c0 -78 62 -94 128 -94c52 0 120 16 178 30v-94c-53 -13 -120 -28 -189 -28zM260 562h111
v-152h-111v152z" />
    <glyph glyph-name="question" unicode="?" horiz-adv-x="528" 
d="M68 649v94c53 13 120 28 189 28c118 0 214 -50 214 -181c0 -63 -18 -108 -58 -159c-26 -33 -51 -63 -90 -106c-38 -42 -50 -67 -57 -85h-106c14 40 29 72 71 119c35 39 68 76 94 109c28 36 49 71 49 117c0 78 -62 94 -128 94c-52 0 -120 -16 -178 -30zM157 152h111v-152
h-111v152z" />
    <glyph glyph-name="exclamdown" unicode="&#xa1;" horiz-adv-x="291" 
d="M87 -192v144c0 144 1 340 2 370h94c1 -30 2 -226 2 -370v-144h-98zM81 410v152h110v-152h-110z" />
    <glyph glyph-name="exclam" unicode="!" horiz-adv-x="291" 
d="M106 754h98v-144c0 -144 -1 -340 -2 -370h-94c-1 30 -2 226 -2 370v144zM100 0v152h110v-152h-110z" />
    <glyph glyph-name="section" unicode="&#xa7;" horiz-adv-x="650" 
d="M80 359c0 54 45 109 80 147c-42 34 -54 62 -54 117c0 131 117 148 222 148c59 0 161 -18 216 -28v-89c-51 10 -157 30 -217 30c-55 0 -82 -4 -102 -17c-17 -11 -23 -28 -23 -48c0 -21 6 -31 20 -42c16 -12 43 -27 76 -43l119 -58c50 -24 85 -43 110 -64
c28 -23 43 -57 43 -94c0 -32 -10 -60 -33 -88c-18 -22 -35 -44 -51 -61c41 -34 58 -64 58 -119c0 -128 -130 -155 -233 -155c-60 0 -154 15 -207 24v90c60 -11 153 -27 210 -27c48 0 134 2 134 69c0 17 -5 30 -19 44c-15 15 -42 28 -73 43l-136 66c-44 21 -84 46 -107 67
c-20 18 -33 47 -33 88zM233 467c-26 -26 -59 -60 -59 -99c0 -24 7 -36 24 -49c15 -12 40 -26 69 -40l147 -71c14 16 25 29 37 44c16 21 25 39 25 58s-8 35 -27 48c-17 11 -36 23 -76 42z" />
    <glyph glyph-name="dollar" unicode="$" horiz-adv-x="678" 
d="M238 365c-102 35 -165 72 -165 191c0 144 89 197 221 203v98h89v-100c67 -7 149 -25 199 -37v-95c-71 17 -177 42 -250 42c-83 0 -161 -6 -161 -107c0 -31 4 -54 25 -70s53 -27 100 -43l136 -45c102 -34 173 -78 173 -197c0 -139 -95 -199 -222 -208v-110h-89v109
c-73 4 -157 20 -214 31v95c74 -15 169 -34 253 -34c81 0 174 12 174 114c0 30 -5 50 -22 67c-19 19 -51 30 -102 47z" />
    <glyph glyph-name="cent" unicode="&#xa2;" horiz-adv-x="529" 
d="M73 261c0 123 25 258 175 270v107h87v-106c45 -5 94 -18 130 -28v-92c-46 13 -110 31 -160 31c-57 0 -99 -8 -121 -59c-14 -32 -16 -74 -16 -121c0 -104 15 -177 137 -177c52 0 115 15 160 26v-91c-35 -9 -85 -19 -130 -23v-111h-87v112c-142 13 -175 141 -175 262z" />
    <glyph glyph-name="Euro" unicode="&#x20ac;" horiz-adv-x="698" 
d="M93 375c0 231 35 396 306 396c85 0 174 -15 234 -28v-94c-67 14 -150 30 -228 30c-146 0 -201 -45 -209 -187h320v-83h-325c-1 -11 -1 -20 -1 -28s0 -17 1 -30h325v-83h-321c7 -142 52 -193 206 -193c76 0 163 10 232 19v-93c-66 -8 -156 -18 -240 -18
c-156 0 -226 50 -264 133c-23 51 -36 144 -36 259z" />
    <glyph glyph-name="sterling" unicode="&#xa3;" horiz-adv-x="628" 
d="M567 0h-462v570c0 50 6 106 41 146c37 43 83 55 164 55c62 0 148 -16 218 -32v-94c-66 15 -156 34 -211 34c-88 0 -116 -27 -116 -114v-91h212v-87h-212v-295h366v-92z" />
    <glyph glyph-name="yen" unicode="&#xa5;" horiz-adv-x="678" 
d="M14 754h113l215 -362l211 362h111l-166 -280h134v-87h-185l-59 -100v-287h-96v287l-59 100h-186v87h134z" />
    <glyph glyph-name="uni20BA" unicode="&#x20ba;" horiz-adv-x="616" 
d="M105 -13v767h96v-193l252 79v-87l-252 -79v-59l252 79v-87l-252 -79v-253c169 0 241 54 251 226h98c-3 -68 -17 -151 -65 -213c-54 -69 -129 -105 -285 -105c-44 0 -78 2 -95 4z" />
    <glyph glyph-name="uni20BD" unicode="&#x20bd;" horiz-adv-x="699" 
d="M105 0v754h297c148 0 238 -70 238 -224c0 -151 -69 -226 -219 -236c-44 -3 -129 -3 -220 -3v-59h324v-83h-324v-149h-96zM394 662h-193v-279c80 0 160 0 211 4c97 8 130 46 130 143c0 104 -53 132 -148 132z" />
    <glyph glyph-name="currency" unicode="&#xa4;" horiz-adv-x="777" 
d="M189 94h-106l126 142c-23 34 -33 82 -33 140c0 64 9 105 33 140l-126 144h106l81 -92c32 16 75 25 119 25c42 0 84 -10 117 -27l82 94h106l-127 -143c26 -36 38 -80 38 -138s-12 -106 -37 -142l125 -143h-106l-79 90c-31 -17 -73 -24 -119 -24s-89 8 -121 24zM389 507
c-89 0 -126 -42 -126 -130c0 -90 37 -131 127 -131c89 0 128 46 128 134c0 85 -46 127 -129 127z" />
    <glyph glyph-name="copyright" unicode="&#xa9;" horiz-adv-x="930" 
d="M72 377c0 238 147 394 393 394s393 -156 393 -394c0 -237 -147 -394 -393 -394s-393 157 -393 394zM465 699c-203 0 -318 -125 -318 -322s115 -322 318 -322s318 125 318 322s-115 322 -318 322zM269 376c0 143 46 230 202 230c51 0 106 -10 155 -24v-72
c-49 12 -101 25 -152 25c-114 0 -130 -59 -130 -159c0 -99 22 -151 133 -151c47 0 109 12 149 20v-72c-48 -9 -103 -19 -155 -19c-152 0 -202 82 -202 222z" />
    <glyph glyph-name="registered" unicode="&#xae;" horiz-adv-x="930" 
d="M72 377c0 237 147 394 393 394s393 -157 393 -394c0 -238 -147 -394 -393 -394s-393 156 -393 394zM147 377c0 -197 115 -322 318 -322c202 0 318 125 318 322c0 196 -116 322 -318 322c-203 0 -318 -126 -318 -322zM300 595h190c82 0 164 -19 164 -118
c0 -39 -12 -67 -36 -95c-16 -19 -38 -41 -48 -51l99 -167h-86l-89 153h-121v-153h-73v431zM483 526h-110v-140h155c22 22 51 54 51 87c0 50 -42 53 -81 53h-15z" />
    <glyph glyph-name="trademark" unicode="&#x2122;" horiz-adv-x="1060" 
d="M588 325h-75v429h104l125 -256l128 256h100v-429h-75v329l-120 -244h-68l-119 246v-331zM44 682v72h395v-72h-158v-357h-78v357h-159z" />
    <glyph glyph-name="ordfeminine" unicode="&#xaa;" horiz-adv-x="486" 
d="M194 355c-120 0 -142 111 -142 208c0 129 44 208 185 208c57 0 118 -19 185 -40v-365h-83v64l-41 -33c-31 -25 -63 -42 -104 -42zM240 691c-89 0 -103 -50 -103 -128c0 -39 2 -70 12 -92c11 -24 26 -32 57 -32c42 0 101 49 132 78v154c-35 11 -64 20 -98 20z" />
    <glyph glyph-name="ordmasculine" unicode="&#xba;" horiz-adv-x="484" 
d="M242 355c-138 0 -191 74 -191 206c0 127 52 210 191 210c136 0 191 -80 191 -209c0 -126 -57 -207 -191 -207zM136 562c0 -77 20 -127 106 -127c83 0 106 54 106 129c0 76 -23 127 -106 127c-88 0 -106 -52 -106 -129z" />
    <glyph glyph-name="paragraph" unicode="&#xb6;" horiz-adv-x="701" 
d="M54 515c0 159 74 239 233 239h318v-946h-78v871h-105v-871h-78v465c-110 0 -172 7 -223 53c-48 44 -67 114 -67 189z" />
    <glyph glyph-name="Aacute" unicode="&#xc1;" horiz-adv-x="710" 
d="M11 0l280 754h126l282 -754h-105l-65 175h-352l-65 -175h-101zM209 267h287l-143 389zM292 806l128 144h111l-131 -144h-108z" />
    <glyph glyph-name="aacute" unicode="&#xe1;" 
d="M234 -17c-156 0 -178 154 -178 278c0 164 45 284 231 284c72 0 142 -25 227 -56v-489h-94v81c-52 -46 -113 -98 -186 -98zM291 456c-124 0 -140 -91 -140 -195c0 -53 5 -108 18 -138c15 -35 38 -50 78 -50c32 0 67 21 99 46c26 20 53 43 74 61v246c-39 14 -84 30 -129 30
zM323 610h-108l128 144h111z" />
    <glyph glyph-name="Agrave" unicode="&#xc0;" horiz-adv-x="710" 
d="M11 0l280 754h126l282 -754h-105l-65 175h-352l-65 -175h-101zM209 267h287l-143 389zM313 806l-129 144h112l124 -144h-107z" />
    <glyph glyph-name="agrave" unicode="&#xe0;" 
d="M234 -17c-156 0 -178 154 -178 278c0 164 45 284 231 284c72 0 142 -25 227 -56v-489h-94v81c-52 -46 -113 -98 -186 -98zM151 261c0 -53 5 -108 18 -138c15 -35 38 -50 78 -50c32 0 67 21 99 46c26 20 53 43 74 61v246c-39 14 -84 30 -129 30c-124 0 -140 -91 -140 -195
zM149 754h112l124 -144h-107z" />
    <glyph glyph-name="Acircumflex" unicode="&#xc2;" horiz-adv-x="710" 
d="M11 0l280 754h126l282 -754h-105l-65 175h-352l-65 -175h-101zM353 656l-144 -389h287zM270 792h-104l134 144h108l135 -144h-105l-84 88z" />
    <glyph glyph-name="acircumflex" unicode="&#xe2;" 
d="M234 -17c-156 0 -178 154 -178 278c0 164 45 284 231 284c72 0 142 -25 227 -56v-489h-94v81c-52 -46 -113 -98 -186 -98zM291 456c-124 0 -140 -91 -140 -195c0 -53 5 -108 18 -138c15 -35 38 -50 78 -50c32 0 67 21 99 46c26 20 53 43 74 61v246c-39 14 -84 30 -129 30
zM215 610h-104l134 144h108l135 -144h-105l-84 88z" />
    <glyph glyph-name="Adieresis" unicode="&#xc4;" horiz-adv-x="710" 
d="M11 0l280 754h126l282 -754h-105l-65 175h-352l-65 -175h-101zM353 656l-144 -389h287zM425 809v141h92v-141h-92zM194 950h92v-141h-92v141z" />
    <glyph glyph-name="adieresis" unicode="&#xe4;" 
d="M56 261c0 164 45 284 231 284c72 0 142 -25 227 -56v-489h-94v81c-52 -46 -113 -98 -186 -98c-156 0 -178 154 -178 278zM151 261c0 -53 5 -108 18 -138c15 -35 38 -50 78 -50c32 0 67 21 99 46c26 20 53 43 74 61v246c-39 14 -84 30 -129 30c-124 0 -140 -91 -140 -195z
M444 613h-92v141h92v-141zM148 754h92v-141h-92v141z" />
    <glyph glyph-name="Atilde" unicode="&#xc3;" horiz-adv-x="710" 
d="M11 0l280 754h126l282 -754h-105l-65 175h-352l-65 -175h-101zM353 656l-144 -389h287zM233 812h-76c36 97 63 130 128 130c30 0 56 -10 94 -36c31 -21 43 -29 63 -29c25 0 35 17 51 51h77c-30 -69 -57 -123 -127 -123c-31 0 -58 9 -90 31c-31 22 -49 34 -67 34
c-28 0 -37 -21 -53 -58z" />
    <glyph glyph-name="atilde" unicode="&#xe3;" 
d="M56 261c0 164 45 284 231 284c72 0 142 -25 227 -56v-489h-94v81c-52 -46 -113 -98 -186 -98c-156 0 -178 154 -178 278zM151 261c0 -53 5 -108 18 -138c15 -35 38 -50 78 -50c32 0 67 21 99 46c26 20 53 43 74 61v246c-39 14 -84 30 -129 30c-124 0 -140 -91 -140 -195z
M176 619h-76c36 97 63 130 128 130c30 0 56 -10 94 -36c31 -21 43 -29 63 -29c25 0 35 17 51 51h77c-30 -69 -57 -123 -127 -123c-31 0 -58 9 -90 31c-31 22 -49 34 -67 34c-28 0 -37 -21 -53 -58z" />
    <glyph glyph-name="Aring" unicode="&#xc5;" horiz-adv-x="710" 
d="M112 0h-101l265 712c-32 19 -49 60 -49 96c0 77 53 120 128 120c76 0 128 -42 128 -120c0 -42 -15 -74 -50 -96l266 -712h-105l-65 175h-352zM353 656l-144 -389h287zM355 867c-38 0 -62 -21 -62 -59c0 -37 26 -57 62 -57s63 19 63 57c0 39 -25 59 -63 59z" />
    <glyph glyph-name="aring" unicode="&#xe5;" 
d="M234 -17c-156 0 -178 154 -178 278c0 164 45 284 231 284c72 0 142 -25 227 -56v-489h-94v81c-52 -46 -113 -98 -186 -98zM291 456c-124 0 -140 -91 -140 -195c0 -53 5 -108 18 -138c15 -35 38 -50 78 -50c32 0 67 21 99 46c26 20 53 43 74 61v246c-39 14 -84 30 -129 30
zM170 700c0 77 53 120 128 120c76 0 128 -42 128 -120c0 -76 -55 -118 -128 -118s-128 42 -128 118zM236 700c0 -37 26 -57 62 -57s63 19 63 57c0 39 -25 59 -63 59s-62 -21 -62 -59z" />
    <glyph glyph-name="Aringacute" unicode="&#x1fa;" horiz-adv-x="710" 
d="M112 0h-101l265 712c-32 19 -49 60 -49 96c0 77 53 120 128 120c76 0 128 -42 128 -120c0 -42 -15 -74 -50 -96l266 -712h-105l-65 175h-352zM209 267h287l-143 389zM355 867c-38 0 -62 -21 -62 -59c0 -37 26 -57 62 -57s63 19 63 57c0 39 -25 59 -63 59zM397 962h-108
l90 100h110z" />
    <glyph glyph-name="aringacute" unicode="&#x1fb;" 
d="M234 -17c-156 0 -178 154 -178 278c0 164 45 284 231 284c72 0 142 -25 227 -56v-489h-94v81c-52 -46 -113 -98 -186 -98zM291 456c-124 0 -140 -91 -140 -195c0 -53 5 -108 18 -138c15 -35 38 -50 78 -50c32 0 67 21 99 46c26 20 53 43 74 61v246c-39 14 -84 30 -129 30
zM171 700c0 77 53 120 128 120c76 0 128 -42 128 -120c0 -76 -55 -118 -128 -118s-128 42 -128 118zM348 835h-108l101 115h111zM237 700c0 -37 26 -57 62 -57s63 19 63 57c0 39 -25 59 -63 59s-62 -21 -62 -59z" />
    <glyph glyph-name="AE" unicode="&#xc6;" horiz-adv-x="1123" 
d="M115 0h-117l506 754h565v-93h-414v-230h392v-93h-392v-246h430v-92h-526v174h-328zM293 266h266v398z" />
    <glyph glyph-name="ae" unicode="&#xe6;" horiz-adv-x="918" 
d="M52 138c0 145 95 159 215 159h143v55c0 89 -34 108 -122 108c-63 0 -167 -22 -210 -33v87c51 13 151 31 215 31c84 0 147 -17 176 -68c30 40 82 68 173 68c148 0 223 -72 223 -217c0 -27 -4 -74 -10 -106h-355c0 -113 45 -153 161 -153c64 0 134 13 177 21v-87
c-45 -8 -121 -20 -183 -20c-103 0 -175 23 -214 96c-63 -47 -134 -96 -216 -96c-108 0 -173 39 -173 155zM642 462c-113 0 -142 -64 -142 -165h270c1 7 3 25 3 42c0 83 -47 123 -131 123zM146 141c0 -60 29 -76 85 -76c41 0 77 17 112 38c23 14 44 28 67 44v75h-130
c-48 0 -85 0 -110 -19c-19 -14 -24 -36 -24 -62z" />
    <glyph glyph-name="AEacute" unicode="&#x1fc;" horiz-adv-x="1123" 
d="M115 0h-117l506 754h565v-93h-414v-230h392v-93h-392v-246h430v-92h-526v174h-328zM293 266h266v398zM660 806h-108l128 144h111z" />
    <glyph glyph-name="aeacute" unicode="&#x1fd;" horiz-adv-x="918" 
d="M52 138c0 145 95 159 215 159h143v55c0 89 -34 108 -122 108c-63 0 -167 -22 -210 -33v87c51 13 151 31 215 31c84 0 147 -17 176 -68c30 40 82 68 173 68c148 0 223 -72 223 -217c0 -27 -4 -74 -10 -106h-355c0 -113 45 -153 161 -153c64 0 134 13 177 21v-87
c-45 -8 -121 -20 -183 -20c-103 0 -175 23 -214 96c-63 -47 -134 -96 -216 -96c-108 0 -173 39 -173 155zM642 462c-113 0 -142 -64 -142 -165h270c1 7 3 25 3 42c0 83 -47 123 -131 123zM170 203c-19 -14 -24 -36 -24 -62c0 -60 29 -76 85 -76c41 0 77 17 112 38
c23 14 44 28 67 44v75h-130c-48 0 -85 0 -110 -19zM382 610l128 144h111l-131 -144h-108z" />
    <glyph glyph-name="Amacron" unicode="&#x100;" horiz-adv-x="710" 
d="M11 0l280 754h126l282 -754h-105l-65 175h-352l-65 -175h-101zM353 656l-144 -389h287zM523 832h-337v73h337v-73z" />
    <glyph glyph-name="amacron" unicode="&#x101;" 
d="M234 -17c-156 0 -178 154 -178 278c0 164 45 284 231 284c72 0 142 -25 227 -56v-489h-94v81c-52 -46 -113 -98 -186 -98zM151 261c0 -53 5 -108 18 -138c15 -35 38 -50 78 -50c32 0 67 21 99 46c26 20 53 43 74 61v246c-39 14 -84 30 -129 30c-124 0 -140 -91 -140 -195
zM469 637h-337v73h337v-73z" />
    <glyph glyph-name="Abreve" unicode="&#x102;" horiz-adv-x="710" 
d="M112 0h-101l280 754h126l282 -754h-105l-65 175h-352zM353 656l-144 -389h287zM186 940h84c5 -18 12 -40 24 -54c14 -19 32 -26 60 -26c53 0 73 34 85 80h84c-10 -39 -26 -82 -54 -107c-27 -27 -63 -41 -115 -41c-102 0 -145 55 -168 148z" />
    <glyph glyph-name="abreve" unicode="&#x103;" 
d="M234 -17c-156 0 -178 154 -178 278c0 164 45 284 231 284c72 0 142 -25 227 -56v-489h-94v81c-52 -46 -113 -98 -186 -98zM291 456c-124 0 -140 -91 -140 -195c0 -53 5 -108 18 -138c15 -35 38 -50 78 -50c32 0 67 21 99 46c26 20 53 43 74 61v246c-39 14 -84 30 -129 30
zM293 606c-102 0 -145 55 -168 148h84c5 -18 12 -40 24 -54c14 -19 32 -26 60 -26c53 0 73 34 85 80h84c-10 -39 -26 -82 -54 -107c-27 -27 -63 -41 -115 -41z" />
    <glyph glyph-name="Aogonek" unicode="&#x104;" horiz-adv-x="710" 
d="M112 0h-101l280 754h126l282 -754c-21 -16 -51 -40 -71 -60c-19 -19 -25 -33 -25 -48c0 -16 10 -21 28 -21c21 0 50 11 72 20v-74c-24 -9 -59 -19 -92 -19c-58 0 -104 16 -104 82c0 54 46 95 85 125l-63 170h-352zM209 267h287l-143 389z" />
    <glyph glyph-name="aogonek" unicode="&#x105;" 
d="M56 261c0 164 45 284 231 284c72 0 142 -25 227 -56v-489c-21 -16 -53 -40 -74 -61c-18 -18 -25 -32 -25 -47c0 -16 10 -21 28 -21c22 0 49 11 71 20v-74c-25 -10 -57 -19 -91 -19c-58 0 -104 16 -104 82c0 24 9 46 30 69c19 21 51 44 71 58v74
c-52 -46 -113 -98 -186 -98c-156 0 -178 154 -178 278zM151 261c0 -53 5 -108 18 -138c15 -35 38 -50 78 -50c32 0 67 21 99 46c26 20 53 43 74 61v246c-39 14 -84 30 -129 30c-124 0 -140 -91 -140 -195z" />
    <glyph glyph-name="uni1EA0" unicode="&#x1ea0;" horiz-adv-x="710" 
d="M11 0l280 754h126l282 -754h-105l-65 175h-352l-65 -175h-101zM353 656l-144 -389h287zM307 -193v141h97v-141h-97z" />
    <glyph glyph-name="uni1EA1" unicode="&#x1ea1;" 
d="M234 -17c-156 0 -178 154 -178 278c0 164 45 284 231 284c72 0 142 -25 227 -56v-489h-94v81c-52 -46 -113 -98 -186 -98zM291 456c-124 0 -140 -91 -140 -195c0 -53 5 -108 18 -138c15 -35 38 -50 78 -50c32 0 67 21 99 46c26 20 53 43 74 61v246c-39 14 -84 30 -129 30
zM334 -193h-97v141h97v-141z" />
    <glyph glyph-name="Cacute" unicode="&#x106;" horiz-adv-x="658" 
d="M372 -17c-251 0 -297 175 -297 387c0 218 42 401 300 401c78 0 158 -18 233 -39v-96c-38 10 -80 21 -122 29c-35 7 -69 13 -104 13c-93 0 -144 -25 -176 -89c-24 -48 -33 -130 -33 -218c0 -84 9 -158 30 -203c30 -64 83 -92 179 -92c69 0 157 19 226 34v-95
c-70 -15 -154 -32 -236 -32zM385 806h-108l128 144h111z" />
    <glyph glyph-name="cacute" unicode="&#x107;" horiz-adv-x="487" 
d="M98 70c-29 47 -42 118 -42 191c0 70 9 135 31 179c33 67 83 105 197 105c54 0 120 -17 166 -29v-92c-42 12 -112 32 -158 32c-63 0 -99 -13 -121 -61c-15 -33 -20 -83 -20 -132c0 -52 8 -104 25 -137c21 -41 59 -54 116 -54c50 0 116 17 158 28v-92
c-44 -10 -113 -25 -165 -25c-104 0 -152 29 -187 87zM286 610h-108l128 144h111z" />
    <glyph glyph-name="Ccircumflex" unicode="&#x108;" horiz-adv-x="658" 
d="M75 370c0 218 42 401 300 401c78 0 158 -18 233 -39v-96c-38 10 -80 21 -122 29c-35 7 -69 13 -104 13c-93 0 -144 -25 -176 -89c-24 -48 -33 -130 -33 -218c0 -84 9 -158 30 -203c30 -64 83 -92 179 -92c69 0 157 19 226 34v-95c-70 -15 -154 -32 -236 -32
c-251 0 -297 175 -297 387zM283 806h-104l134 144h108l135 -144h-105l-84 88z" />
    <glyph glyph-name="ccircumflex" unicode="&#x109;" horiz-adv-x="487" 
d="M56 261c0 70 9 135 31 179c33 67 83 105 197 105c54 0 120 -17 166 -29v-92c-42 12 -112 32 -158 32c-63 0 -99 -13 -121 -61c-15 -33 -20 -83 -20 -132c0 -52 8 -104 25 -137c21 -41 59 -54 116 -54c50 0 116 17 158 28v-92c-44 -10 -113 -25 -165 -25
c-104 0 -151 29 -187 87c-29 47 -42 118 -42 191zM184 610h-104l134 144h108l135 -144h-105l-84 88z" />
    <glyph glyph-name="Ccaron" unicode="&#x10c;" horiz-adv-x="658" 
d="M372 -17c-251 0 -297 175 -297 387c0 218 42 401 300 401c78 0 158 -18 233 -39v-96c-38 10 -80 21 -122 29c-35 7 -69 13 -104 13c-93 0 -144 -25 -176 -89c-24 -48 -33 -130 -33 -218c0 -84 9 -158 30 -203c30 -64 83 -92 179 -92c69 0 157 19 226 34v-95
c-70 -15 -154 -32 -236 -32zM308 806l-134 144h105l84 -88l84 88h104l-135 -144h-108z" />
    <glyph glyph-name="ccaron" unicode="&#x10d;" horiz-adv-x="487" 
d="M56 261c0 70 9 135 31 179c33 67 83 105 197 105c54 0 120 -17 166 -29v-92c-42 12 -112 32 -158 32c-63 0 -99 -13 -121 -61c-15 -33 -20 -83 -20 -132c0 -52 8 -104 25 -137c21 -41 59 -54 116 -54c50 0 116 17 158 28v-92c-44 -10 -113 -25 -165 -25
c-104 0 -151 29 -187 87c-29 47 -42 118 -42 191zM76 754h105l84 -88l84 88h104l-135 -144h-108z" />
    <glyph glyph-name="Ccedilla" unicode="&#xc7;" horiz-adv-x="658" 
d="M372 -17c-251 0 -297 175 -297 387c0 218 42 401 300 401c78 0 158 -18 233 -39v-96c-38 10 -80 21 -122 29c-35 7 -69 13 -104 13c-93 0 -144 -25 -176 -89c-24 -48 -33 -130 -33 -218c0 -84 9 -158 30 -203c30 -64 83 -92 179 -92c69 0 157 19 226 34v-95
c-70 -15 -154 -32 -236 -32zM344 -197h-102l86 137h101z" />
    <glyph glyph-name="ccedilla" unicode="&#xe7;" horiz-adv-x="487" 
d="M56 261c0 70 9 135 31 179c33 67 83 105 197 105c54 0 120 -17 166 -29v-92c-42 12 -112 32 -158 32c-63 0 -99 -13 -121 -61c-15 -33 -20 -83 -20 -132c0 -52 8 -104 25 -137c21 -41 59 -54 116 -54c50 0 116 17 158 28v-92c-44 -10 -113 -25 -165 -25
c-104 0 -151 29 -187 87c-29 47 -42 118 -42 191zM144 -197l86 137h101l-85 -137h-102z" />
    <glyph glyph-name="Cdotaccent" unicode="&#x10a;" horiz-adv-x="658" 
d="M372 -17c-251 0 -297 175 -297 387c0 218 42 401 300 401c78 0 158 -18 233 -39v-96c-38 10 -80 21 -122 29c-35 7 -69 13 -104 13c-93 0 -144 -25 -176 -89c-24 -48 -33 -130 -33 -218c0 -84 9 -158 30 -203c30 -64 83 -92 179 -92c69 0 157 19 226 34v-95
c-70 -15 -154 -32 -236 -32zM408 809h-97v141h97v-141z" />
    <glyph glyph-name="cdotaccent" unicode="&#x10b;" horiz-adv-x="487" 
d="M56 261c0 70 9 135 31 179c33 67 83 105 197 105c54 0 120 -17 166 -29v-92c-42 12 -112 32 -158 32c-63 0 -99 -13 -121 -61c-15 -33 -20 -83 -20 -132c0 -52 8 -104 25 -137c21 -41 59 -54 116 -54c50 0 116 17 158 28v-92c-44 -10 -113 -25 -165 -25
c-104 0 -151 29 -187 87c-29 47 -42 118 -42 191zM219 613v141h97v-141h-97z" />
    <glyph glyph-name="Dcaron" unicode="&#x10e;" horiz-adv-x="742" 
d="M90 0v754h262c108 0 174 -17 228 -72c60 -61 87 -163 87 -302c0 -140 -30 -245 -97 -309c-56 -54 -124 -71 -226 -71h-254zM352 661h-166v-568h159c86 0 133 19 170 64s54 124 54 223c0 97 -15 180 -57 230c-37 44 -89 51 -160 51zM143 950h105l84 -88l84 88h104
l-135 -144h-108z" />
    <glyph glyph-name="dcaron" unicode="&#x10f;" horiz-adv-x="648" 
d="M235 -17c-156 0 -179 157 -179 280c0 147 30 282 206 282c57 0 124 -20 163 -32v241h94v-754h-94v66c-55 -42 -119 -83 -190 -83zM151 264c0 -62 5 -104 19 -139c14 -36 36 -51 81 -51c56 0 130 55 174 89v261c-48 15 -103 32 -148 32c-50 0 -85 -13 -104 -54
c-17 -36 -22 -81 -22 -138zM643 557h-67v197h84v-65c0 -43 -6 -84 -17 -132z" />
    <glyph glyph-name="Dcroat" unicode="&#x110;" horiz-adv-x="756" 
d="M30 343v91h74v320h262c108 0 174 -17 228 -72c60 -61 87 -163 87 -302c0 -140 -30 -245 -97 -309c-56 -54 -124 -71 -226 -71h-254v343h-74zM200 434h204v-91h-204v-250h159c86 0 133 19 170 64s54 124 54 223c0 97 -14 180 -57 230c-37 43 -89 51 -160 51h-166v-227z
" />
    <glyph glyph-name="dcroat" unicode="&#x111;" horiz-adv-x="595" 
d="M56 263c0 149 30 281 207 281c54 0 124 -20 162 -31v79h-161v77h161v85h94v-85h79v-77h-79v-592h-93v66c-55 -42 -119 -83 -190 -83c-156 0 -180 156 -180 280zM173 401c-17 -36 -22 -80 -22 -137c0 -62 5 -104 20 -139c15 -36 36 -51 81 -51c35 0 69 18 98 36
c30 19 54 37 75 53v261c-49 15 -102 31 -148 31c-50 0 -84 -13 -104 -54z" />
    <glyph glyph-name="Eth" unicode="&#xd0;" horiz-adv-x="756" 
d="M30 343v91h74v320h262c108 0 174 -17 228 -72c60 -61 87 -163 87 -302c0 -140 -30 -245 -97 -309c-56 -54 -124 -71 -226 -71h-254v343h-74zM200 434h204v-91h-204v-250h159c86 0 133 19 170 64s54 124 54 223c0 97 -14 180 -57 230c-37 43 -89 51 -160 51h-166v-227z
" />
    <glyph glyph-name="eth" unicode="&#xf0;" horiz-adv-x="601" 
d="M295 -17c-176 0 -239 97 -239 261c0 62 9 111 31 154c32 62 81 98 188 98c48 0 100 -15 139 -27c-7 32 -23 91 -64 137l-164 -73v73l107 49c-35 21 -76 33 -107 39v81c72 -12 140 -35 199 -80l130 59v-74l-78 -36c78 -99 97 -263 97 -395c0 -159 -65 -266 -239 -266z
M285 409c-112 0 -134 -66 -134 -164c0 -53 7 -87 25 -119c24 -43 63 -54 119 -54c117 0 144 75 144 178c0 53 -3 89 -10 126c-28 11 -94 33 -144 33z" />
    <glyph glyph-name="Eacute" unicode="&#xc9;" horiz-adv-x="654" 
d="M90 0v754h510v-93h-414v-230h392v-93h-392v-245h430v-93h-526zM252 806l128 144h111l-131 -144h-108z" />
    <glyph glyph-name="eacute" unicode="&#xe9;" horiz-adv-x="567" 
d="M304 -17c-198 0 -248 99 -248 278c0 166 45 284 235 284c150 0 223 -71 223 -217c0 -27 -4 -74 -10 -106h-355c0 -110 50 -153 161 -153c64 0 134 13 177 21v-87c-43 -8 -116 -20 -183 -20zM149 297h270c1 7 3 25 3 42c0 85 -45 123 -131 123c-110 0 -142 -65 -142 -165z
M313 610h-108l128 144h111z" />
    <glyph glyph-name="Egrave" unicode="&#xc8;" horiz-adv-x="654" 
d="M90 0v754h510v-93h-414v-230h392v-93h-392v-245h430v-93h-526zM186 950h112l124 -144h-107z" />
    <glyph glyph-name="egrave" unicode="&#xe8;" horiz-adv-x="567" 
d="M304 -17c-198 0 -248 99 -248 278c0 166 45 284 235 284c150 0 223 -71 223 -217c0 -27 -4 -74 -10 -106h-355c0 -110 50 -153 161 -153c64 0 134 13 177 21v-87c-43 -8 -116 -20 -183 -20zM149 297h270c1 7 3 25 3 42c0 85 -45 123 -131 123c-110 0 -142 -65 -142 -165z
M138 754h112l124 -144h-107z" />
    <glyph glyph-name="Ecircumflex" unicode="&#xca;" horiz-adv-x="654" 
d="M90 754h510v-93h-414v-230h392v-93h-392v-245h430v-93h-526v754zM258 797h-104l134 144h108l135 -144h-105l-84 88z" />
    <glyph glyph-name="ecircumflex" unicode="&#xea;" horiz-adv-x="567" 
d="M304 -17c-198 0 -248 99 -248 278c0 166 45 284 235 284c150 0 223 -71 223 -217c0 -27 -4 -74 -10 -106h-355c0 -110 50 -153 161 -153c64 0 134 13 177 21v-87c-43 -8 -116 -20 -183 -20zM149 297h270c1 7 3 25 3 42c0 85 -45 123 -131 123c-110 0 -142 -65 -142 -165z
M205 610h-104l134 144h108l135 -144h-105l-84 88z" />
    <glyph glyph-name="Ecaron" unicode="&#x11a;" horiz-adv-x="654" 
d="M90 754h510v-93h-414v-230h392v-93h-392v-245h430v-93h-526v754zM153 950h105l84 -88l84 88h104l-135 -144h-108z" />
    <glyph glyph-name="ecaron" unicode="&#x11b;" horiz-adv-x="567" 
d="M304 -17c-198 0 -248 99 -248 278c0 166 45 284 235 284c150 0 223 -71 223 -217c0 -27 -4 -74 -10 -106h-355c0 -110 50 -153 161 -153c64 0 134 13 177 21v-87c-43 -8 -116 -20 -183 -20zM291 462c-110 0 -142 -65 -142 -165h270c1 7 3 25 3 42c0 85 -45 123 -131 123z
M231 610l-134 144h105l84 -88l84 88h104l-135 -144h-108z" />
    <glyph glyph-name="Edieresis" unicode="&#xcb;" horiz-adv-x="654" 
d="M90 0v754h510v-93h-414v-230h392v-93h-392v-245h430v-93h-526zM506 809h-92v141h92v-141zM184 809v141h92v-141h-92z" />
    <glyph glyph-name="edieresis" unicode="&#xeb;" horiz-adv-x="567" 
d="M304 -17c-198 0 -248 99 -248 278c0 166 45 284 235 284c150 0 223 -71 223 -217c0 -27 -4 -74 -10 -106h-355c0 -110 50 -153 161 -153c64 0 134 13 177 21v-87c-43 -8 -116 -20 -183 -20zM149 297h270c1 7 3 25 3 42c0 85 -45 123 -131 123c-110 0 -142 -65 -142 -165z
M342 754h92v-141h-92v141zM144 754h92v-141h-92v141z" />
    <glyph glyph-name="uni1EBC" unicode="&#x1ebc;" horiz-adv-x="654" 
d="M90 0v754h510v-93h-414v-230h392v-93h-392v-245h430v-93h-526zM145 813c36 97 63 130 128 130c30 0 56 -10 94 -36c31 -21 43 -29 63 -29c25 0 35 17 51 51h77c-30 -69 -57 -123 -127 -123c-31 0 -58 9 -90 31c-31 22 -49 34 -67 34c-28 0 -37 -21 -53 -58h-76z" />
    <glyph glyph-name="uni1EBD" unicode="&#x1ebd;" horiz-adv-x="567" 
d="M304 -17c-198 0 -248 99 -248 278c0 166 45 284 235 284c150 0 223 -71 223 -217c0 -27 -4 -74 -10 -106h-355c0 -110 50 -153 161 -153c64 0 134 13 177 21v-87c-43 -8 -116 -20 -183 -20zM291 462c-110 0 -142 -65 -142 -165h270c1 7 3 25 3 42c0 85 -45 123 -131 123z
M164 621h-76c36 97 63 130 128 130c30 0 56 -10 94 -36c31 -21 43 -29 63 -29c25 0 35 17 51 51h77c-30 -69 -57 -123 -127 -123c-31 0 -58 9 -90 31c-31 22 -49 34 -67 34c-28 0 -37 -21 -53 -58z" />
    <glyph glyph-name="Emacron" unicode="&#x112;" horiz-adv-x="654" 
d="M90 0v754h510v-93h-414v-230h392v-93h-392v-245h430v-93h-526zM513 832h-337v73h337v-73z" />
    <glyph glyph-name="emacron" unicode="&#x113;" horiz-adv-x="567" 
d="M304 -17c-198 0 -248 99 -248 278c0 166 45 284 235 284c150 0 223 -71 223 -217c0 -27 -4 -74 -10 -106h-355c0 -110 50 -153 161 -153c64 0 134 13 177 21v-87c-43 -8 -116 -20 -183 -20zM291 462c-110 0 -142 -65 -142 -165h270c1 7 3 25 3 42c0 85 -45 123 -131 123z
M123 637v73h337v-73h-337z" />
    <glyph glyph-name="Ebreve" unicode="&#x114;" horiz-adv-x="654" 
d="M616 0h-526v754h510v-93h-414v-230h392v-93h-392v-245h430v-93zM170 950h84c5 -18 12 -40 24 -54c14 -19 32 -26 60 -26c53 0 73 34 85 80h84c-10 -39 -26 -82 -54 -107c-27 -27 -63 -41 -115 -41c-102 0 -145 55 -168 148z" />
    <glyph glyph-name="ebreve" unicode="&#x115;" horiz-adv-x="567" 
d="M304 -17c-198 0 -248 99 -248 278c0 166 45 284 235 284c150 0 223 -71 223 -217c0 -27 -4 -74 -10 -106h-355c0 -110 50 -153 161 -153c64 0 134 13 177 21v-87c-43 -8 -116 -20 -183 -20zM291 462c-110 0 -142 -65 -142 -165h270c1 7 3 25 3 42c0 85 -45 123 -131 123z
M289 606c-102 0 -145 55 -168 148h84c5 -18 12 -40 24 -54c14 -19 32 -26 60 -26c53 0 73 34 85 80h84c-10 -39 -26 -82 -54 -107c-27 -27 -63 -41 -115 -41z" />
    <glyph glyph-name="Eogonek" unicode="&#x118;" horiz-adv-x="654" 
d="M90 0v754h510v-93h-414v-230h392v-93h-392v-245h430v-93c-21 -16 -53 -39 -75 -61c-18 -18 -25 -32 -25 -47c0 -16 10 -21 28 -21c21 0 50 11 72 20v-74c-25 -9 -59 -19 -92 -19c-58 0 -104 16 -104 82c0 24 7 46 30 69c20 20 46 38 64 51h-424z" />
    <glyph glyph-name="eogonek" unicode="&#x119;" horiz-adv-x="567" 
d="M56 261c0 166 45 284 235 284c150 0 223 -71 223 -217c0 -27 -4 -74 -10 -106h-355c0 -110 50 -153 161 -153c64 0 134 13 177 21v-87c-21 -16 -52 -41 -74 -63c-18 -18 -25 -33 -25 -48c0 -16 10 -21 28 -21c21 0 50 11 72 20v-74c-25 -9 -59 -19 -92 -19
c-58 0 -104 16 -104 82c0 24 7 46 30 69c12 12 29 26 43 37c-20 -2 -41 -3 -61 -3c-198 0 -248 99 -248 278zM291 462c-110 0 -142 -65 -142 -165h270c1 7 3 25 3 42c0 85 -45 123 -131 123z" />
    <glyph glyph-name="Edotaccent" unicode="&#x116;" horiz-adv-x="654" 
d="M90 0v754h510v-93h-414v-230h392v-93h-392v-245h430v-93h-526zM292 950h97v-141h-97v141z" />
    <glyph glyph-name="edotaccent" unicode="&#x117;" horiz-adv-x="567" 
d="M304 -17c-198 0 -248 99 -248 278c0 166 45 284 235 284c150 0 223 -71 223 -217c0 -27 -4 -74 -10 -106h-355c0 -110 50 -153 161 -153c64 0 134 13 177 21v-87c-43 -8 -116 -20 -183 -20zM149 297h270c1 7 3 25 3 42c0 85 -45 123 -131 123c-110 0 -142 -65 -142 -165z
M238 613v141h97v-141h-97z" />
    <glyph glyph-name="uni1EB8" unicode="&#x1eb8;" horiz-adv-x="654" 
d="M90 0v754h510v-93h-414v-230h392v-93h-392v-245h430v-93h-526zM299 -52h97v-141h-97v141z" />
    <glyph glyph-name="uni1EB9" unicode="&#x1eb9;" horiz-adv-x="567" 
d="M304 -17c-198 0 -248 99 -248 278c0 166 45 284 235 284c150 0 223 -71 223 -217c0 -27 -4 -74 -10 -106h-355c0 -110 50 -153 161 -153c64 0 134 13 177 21v-87c-43 -8 -116 -20 -183 -20zM149 297h270c1 7 3 25 3 42c0 85 -45 123 -131 123c-110 0 -142 -65 -142 -165z
M235 -198v141h97v-141h-97z" />
    <glyph glyph-name="uni018F" unicode="&#x18f;" horiz-adv-x="725" 
d="M73 269c0 56 4 104 9 142h469c0 72 -10 136 -33 180c-34 65 -86 87 -179 87c-84 0 -164 -20 -240 -39v95c76 20 160 37 248 37c264 0 303 -182 303 -404c0 -206 -54 -384 -298 -384c-195 0 -279 94 -279 286zM174 319c-2 -13 -3 -29 -3 -60c0 -128 52 -184 182 -184
c151 0 198 112 198 244h-377z" />
    <glyph glyph-name="uni0259" unicode="&#x259;" horiz-adv-x="567" 
d="M53 200c0 27 4 74 10 106h355c0 110 -50 153 -161 153c-64 0 -134 -13 -177 -21v87c43 8 116 20 183 20c198 0 248 -99 248 -278c0 -166 -45 -284 -235 -284c-150 0 -223 71 -223 217zM145 189c0 -85 45 -123 131 -123c110 0 142 65 142 165h-270c-1 -7 -3 -25 -3 -42z
" />
    <glyph glyph-name="Gcircumflex" unicode="&#x11c;" horiz-adv-x="731" 
d="M75 370c0 218 43 401 301 401c77 0 166 -21 241 -40v-96c-40 10 -89 22 -136 31c-33 6 -66 12 -98 12c-94 0 -144 -24 -176 -89c-24 -48 -34 -128 -34 -218c0 -91 9 -160 31 -206c29 -61 83 -89 178 -89c57 0 126 8 165 13v314h96v-395c-77 -12 -179 -25 -271 -25
c-149 0 -210 53 -251 129c-31 57 -46 146 -46 258zM288 806h-104l134 144h108l135 -144h-105l-84 88z" />
    <glyph glyph-name="gcircumflex" unicode="&#x11d;" horiz-adv-x="591" 
d="M57 267c0 79 11 145 38 191c38 65 95 87 188 87c72 0 164 -31 232 -54v-443c0 -176 -90 -257 -265 -257c-63 0 -126 8 -173 14v88c36 -5 110 -15 173 -15c104 0 171 48 171 156v18c-55 -27 -117 -52 -179 -52c-158 0 -185 137 -185 267zM174 401
c-16 -32 -22 -78 -22 -134s6 -99 20 -131c15 -35 41 -47 86 -47c30 0 60 9 89 20c30 11 51 22 74 33v285c-33 11 -92 29 -136 29c-57 0 -91 -14 -111 -55zM210 610h-104l134 144h108l135 -144h-105l-84 88z" />
    <glyph glyph-name="Gcaron" unicode="&#x1e6;" horiz-adv-x="731" 
d="M121 112c-31 58 -46 146 -46 258c0 218 43 401 301 401c77 0 166 -21 241 -40v-96c-40 10 -89 22 -136 31c-33 6 -66 12 -98 12c-94 0 -144 -24 -176 -89c-24 -48 -34 -128 -34 -218c0 -91 9 -160 31 -206c29 -61 83 -89 178 -89c57 0 126 8 165 13v314h96v-395
c-77 -12 -179 -25 -271 -25c-149 0 -210 53 -251 129zM181 950h105l84 -88l84 88h104l-135 -144h-108z" />
    <glyph glyph-name="gcaron" unicode="&#x1e7;" horiz-adv-x="591" 
d="M57 267c0 79 11 145 38 191c38 65 95 87 188 87c72 0 164 -31 232 -54v-443c0 -176 -90 -257 -265 -257c-63 0 -126 8 -173 14v88c36 -5 110 -15 173 -15c104 0 171 48 171 156v18c-55 -27 -117 -52 -179 -52c-158 0 -185 137 -185 267zM152 267c0 -56 6 -99 20 -131
c15 -35 41 -47 86 -47c30 0 60 9 89 20c30 11 51 22 74 33v285c-33 11 -92 29 -136 29c-57 0 -91 -14 -111 -55c-16 -32 -22 -78 -22 -134zM104 754h105l84 -88l84 88h104l-135 -144h-108z" />
    <glyph glyph-name="Gbreve" unicode="&#x11e;" horiz-adv-x="731" 
d="M75 370c0 218 43 401 301 401c77 0 166 -21 241 -40v-96c-40 10 -89 22 -136 31c-33 6 -66 12 -98 12c-94 0 -144 -24 -176 -89c-24 -48 -34 -128 -34 -218c0 -91 9 -160 31 -206c29 -61 83 -89 178 -89c57 0 126 8 165 13v314h96v-395c-77 -12 -179 -25 -271 -25
c-149 0 -210 53 -251 129c-31 58 -46 146 -46 258zM371 802c-102 0 -145 55 -168 148h84c5 -18 12 -40 24 -54c14 -19 32 -26 60 -26c53 0 73 34 85 80h84c-10 -39 -26 -82 -54 -107c-27 -27 -63 -41 -115 -41z" />
    <glyph glyph-name="gbreve" unicode="&#x11f;" horiz-adv-x="591" 
d="M57 267c0 79 11 145 38 191c38 65 95 87 188 87c72 0 164 -31 232 -54v-443c0 -176 -90 -257 -265 -257c-63 0 -126 8 -173 14v88c36 -5 110 -15 173 -15c104 0 171 48 171 156v18c-55 -27 -117 -52 -179 -52c-158 0 -185 137 -185 267zM174 401
c-16 -32 -22 -78 -22 -134s6 -99 20 -131c15 -35 41 -47 86 -47c30 0 60 9 89 20c30 11 51 22 74 33v285c-33 11 -92 29 -136 29c-57 0 -91 -14 -111 -55zM291 606c-102 0 -145 55 -168 148h84c5 -18 12 -40 24 -54c14 -19 32 -26 60 -26c53 0 73 34 85 80h84
c-10 -39 -26 -82 -54 -107c-27 -27 -63 -41 -115 -41z" />
    <glyph glyph-name="uni0122" unicode="&#x122;" horiz-adv-x="731" 
d="M75 370c0 218 43 401 301 401c77 0 166 -21 241 -40v-96c-40 10 -89 22 -136 31c-33 6 -66 12 -98 12c-94 0 -144 -24 -176 -89c-24 -48 -34 -128 -34 -218c0 -91 9 -160 31 -206c29 -61 83 -89 178 -89c57 0 126 8 165 13v314h96v-395c-77 -12 -179 -25 -271 -25
c-149 0 -210 53 -251 129c-31 57 -46 146 -46 258zM323 -279c13 57 16 97 16 161v63h85v-59c0 -67 -12 -117 -32 -165h-69z" />
    <glyph glyph-name="uni0123" unicode="&#x123;" horiz-adv-x="591" 
d="M57 267c0 79 11 145 38 191c38 65 95 87 188 87c72 0 164 -31 232 -54v-443c0 -176 -90 -257 -265 -257c-63 0 -126 8 -173 14v88c36 -5 110 -15 173 -15c104 0 171 48 171 156v18c-55 -27 -117 -52 -179 -52c-158 0 -185 137 -185 267zM152 267c0 -56 6 -99 20 -131
c15 -35 41 -47 86 -47c30 0 60 9 89 20c30 11 51 22 74 33v285c-33 11 -92 29 -136 29c-57 0 -91 -14 -111 -55c-16 -32 -22 -78 -22 -134zM331 596h-85v67c0 67 12 121 32 168h69c-13 -57 -16 -100 -16 -164v-71z" />
    <glyph glyph-name="Gdotaccent" unicode="&#x120;" horiz-adv-x="731" 
d="M75 370c0 218 43 401 301 401c77 0 166 -21 241 -40v-96c-40 10 -89 22 -136 31c-33 6 -66 12 -98 12c-94 0 -144 -24 -176 -89c-24 -48 -34 -128 -34 -218c0 -91 9 -160 31 -206c29 -61 83 -89 178 -89c57 0 126 8 165 13v314h96v-395c-77 -12 -179 -25 -271 -25
c-149 0 -210 53 -251 129c-31 57 -46 146 -46 258zM322 950h97v-141h-97v141z" />
    <glyph glyph-name="gdotaccent" unicode="&#x121;" horiz-adv-x="591" 
d="M57 267c0 79 11 145 38 191c38 65 95 87 188 87c72 0 164 -31 232 -54v-443c0 -176 -90 -257 -265 -257c-63 0 -126 8 -173 14v88c36 -5 110 -15 173 -15c104 0 171 48 171 156v18c-55 -27 -117 -52 -179 -52c-158 0 -185 137 -185 267zM174 401
c-16 -32 -22 -78 -22 -134s6 -99 20 -131c15 -35 41 -47 86 -47c30 0 60 9 89 20c30 11 51 22 74 33v285c-33 11 -92 29 -136 29c-57 0 -91 -14 -111 -55zM243 754h97v-141h-97v141z" />
    <glyph glyph-name="Hcircumflex" unicode="&#x124;" horiz-adv-x="757" 
d="M90 0v754h96v-310h385v310h96v-754h-96v351h-385v-351h-96zM190 806l134 144h108l135 -144h-105l-84 88l-84 -88h-104z" />
    <glyph glyph-name="hcircumflex" unicode="&#x125;" horiz-adv-x="587" 
d="M76 0v754h94v-257c58 23 121 48 176 48c144 0 166 -86 166 -212v-333h-94v329c0 75 -2 125 -90 125c-48 0 -114 -28 -158 -47v-407h-94zM41 806h-104l134 144h108l135 -144h-105l-84 88z" />
    <glyph glyph-name="Hbar" unicode="&#x126;" horiz-adv-x="757" 
d="M186 0h-96v755h96v-128h385v128h96v-755h-96v337h-385v-337zM186 429h385v106h-385v-106z" />
    <glyph glyph-name="hbar" unicode="&#x127;" horiz-adv-x="587" 
d="M0 669h76v84h94v-84h165v-77h-165v-94c57 22 120 46 176 46c144 0 166 -85 166 -211v-333h-94v328c0 75 -2 125 -90 125c-48 0 -113 -27 -158 -46v-407h-94v592h-76v77z" />
    <glyph glyph-name="Iacute" unicode="&#xcd;" horiz-adv-x="276" 
d="M186 0h-96v754h96v-754zM187 806h-108l128 144h111z" />
    <glyph glyph-name="iacute" unicode="&#xed;" horiz-adv-x="246" 
d="M166 610h-108l128 144h111zM170 0h-94v528h94v-528z" />
    <glyph glyph-name="Igrave" unicode="&#xcc;" horiz-adv-x="276" 
d="M186 0h-96v754h96v-754zM201 806h-107l-129 144h112z" />
    <glyph glyph-name="igrave" unicode="&#xec;" horiz-adv-x="246" 
d="M185 610h-107l-129 144h112zM170 0h-94v528h94v-528z" />
    <glyph glyph-name="Icircumflex" unicode="&#xce;" horiz-adv-x="276" 
d="M186 0h-96v754h96v-754zM55 806h-104l134 144h108l135 -144h-105l-84 88z" />
    <glyph glyph-name="icircumflex" unicode="&#xee;" horiz-adv-x="246" 
d="M76 0v528h94v-528h-94zM39 610h-104l134 144h108l135 -144h-105l-84 88z" />
    <glyph glyph-name="Idieresis" unicode="&#xcf;" horiz-adv-x="276" 
d="M90 754h96v-754h-96v754zM177 950h92v-141h-92v141zM7 950h92v-141h-92v141z" />
    <glyph glyph-name="idieresis" unicode="&#xef;" horiz-adv-x="246" 
d="M170 0h-94v528h94v-528zM156 754h93v-141h-93v141zM89 613h-92v141h92v-141z" />
    <glyph glyph-name="Itilde" unicode="&#x128;" horiz-adv-x="276" 
d="M90 0v754h96v-754h-96zM-64 818c36 97 63 130 128 130c30 0 56 -10 94 -36c31 -21 43 -29 63 -29c25 0 35 17 51 51h77c-30 -69 -57 -123 -127 -123c-31 0 -58 9 -90 31c-31 22 -49 34 -67 34c-28 0 -37 -21 -53 -58h-76z" />
    <glyph glyph-name="itilde" unicode="&#x129;" horiz-adv-x="246" 
d="M76 0v528h94v-528h-94zM-81 619c36 97 63 130 128 130c30 0 56 -10 94 -36c31 -21 43 -29 63 -29c25 0 35 17 51 51h77c-30 -69 -57 -123 -127 -123c-31 0 -58 9 -90 31c-31 22 -49 34 -67 34c-28 0 -37 -21 -53 -58h-76z" />
    <glyph glyph-name="Imacron" unicode="&#x12a;" horiz-adv-x="276" 
d="M186 0h-96v754h96v-754zM306 832h-337v73h337v-73z" />
    <glyph glyph-name="imacron" unicode="&#x12b;" horiz-adv-x="246" 
d="M170 0h-94v528h94v-528zM292 637h-337v73h337v-73z" />
    <glyph glyph-name="Ibreve" unicode="&#x12c;" horiz-adv-x="276" 
d="M90 754h96v-754h-96v754zM-30 950h84c5 -18 12 -40 24 -54c14 -19 32 -26 60 -26c53 0 73 34 85 80h84c-10 -39 -26 -82 -54 -107c-27 -27 -63 -41 -115 -41c-102 0 -145 55 -168 148z" />
    <glyph glyph-name="ibreve" unicode="&#x12d;" horiz-adv-x="246" 
d="M76 528h94v-528h-94v528zM-45 754h84c5 -18 12 -40 24 -54c14 -19 32 -26 60 -26c53 0 73 34 85 80h84c-10 -39 -26 -82 -54 -107c-27 -27 -63 -41 -115 -41c-102 0 -145 55 -168 148z" />
    <glyph glyph-name="Iogonek" unicode="&#x12e;" horiz-adv-x="276" 
d="M141 -202c-57 0 -104 13 -104 79c0 46 25 88 53 123v754h96v-754c-22 -28 -53 -71 -53 -108c0 -15 10 -21 28 -21c21 0 49 11 71 20v-74c-24 -9 -58 -19 -91 -19z" />
    <glyph glyph-name="iogonek" unicode="&#x12f;" horiz-adv-x="246" 
d="M21 -123c0 49 26 86 55 123v528h94v-528c-24 -31 -53 -67 -53 -108c0 -15 10 -21 28 -21c21 0 50 11 72 20v-74c-24 -9 -59 -19 -92 -19c-55 0 -104 16 -104 79zM171 610h-96v144h96v-144z" />
    <glyph glyph-name="Idotaccent" unicode="&#x130;" horiz-adv-x="276" 
d="M90 0v754h96v-754h-96zM187 809h-97v141h97v-141z" />
    <glyph glyph-name="dotlessi" unicode="&#x131;" horiz-adv-x="246" 
d="M170 0h-94v528h94v-528z" />
    <glyph glyph-name="uni1ECA" unicode="&#x1eca;" horiz-adv-x="276" 
d="M186 0h-96v754h96v-754zM186 -193h-97v141h97v-141z" />
    <glyph glyph-name="uni1ECB" unicode="&#x1ecb;" horiz-adv-x="246" 
d="M76 0v528h94v-528h-94zM172 -193h-97v141h97v-141zM75 613v141h96v-141h-96z" />
    <glyph glyph-name="IJ" unicode="&#x132;" horiz-adv-x="646" 
d="M245 -104v98c38 12 110 37 153 62c27 16 44 30 53 56c10 29 10 75 10 118v524h96v-527c0 -67 1 -118 -14 -159c-10 -28 -30 -54 -63 -74c-64 -39 -178 -81 -235 -98zM90 754h96v-754h-96v754z" />
    <glyph glyph-name="ij" unicode="&#x133;" horiz-adv-x="496" 
d="M192 -211v94c48 16 111 41 128 94c7 22 6 57 6 88v463h94v-473c0 -35 -1 -87 -10 -114c-28 -87 -139 -128 -218 -152zM76 0v528h94v-528h-94zM325 754h96v-141h-96v141zM171 613h-96v141h96v-141z" />
    <glyph glyph-name="IJacute" horiz-adv-x="646" 
d="M245 -6c38 12 110 37 153 62c27 16 44 30 53 56c10 29 10 75 10 118v524h96v-527c0 -67 1 -118 -14 -159c-10 -28 -30 -54 -63 -74c-64 -39 -178 -81 -235 -98v98zM186 0h-96v754h96v-754zM445 806l128 144h111l-131 -144h-108zM75 806l128 144h111l-131 -144h-108z" />
    <glyph glyph-name="ijacute" horiz-adv-x="496" 
d="M192 -212v89c48 18 109 42 126 96c7 22 7 60 7 91v464h95v-475c0 -35 0 -87 -8 -113c-27 -87 -142 -128 -220 -152zM76 0v528h94v-528h-94zM416 610h-108l128 144h111zM169 610h-108l128 144h111z" />
    <glyph glyph-name="Jcircumflex" unicode="&#x134;" horiz-adv-x="385" 
d="M-16 -6c38 12 110 37 153 62c27 16 44 30 53 56c10 29 10 75 10 118v524h96v-527c0 -67 1 -118 -14 -159c-10 -28 -30 -54 -63 -74c-64 -39 -178 -81 -235 -98v98zM158 806h-104l134 144h108l135 -144h-105l-84 88z" />
    <glyph glyph-name="jcircumflex" unicode="&#x135;" horiz-adv-x="258" 
d="M-46 -212v89c48 18 109 42 126 96c7 22 7 60 7 91v464h95v-475c0 -35 0 -87 -8 -113c-27 -87 -142 -128 -220 -152zM-62 610l135 144h108l135 -144h-105l-84 88l-84 -88h-105z" />
    <glyph glyph-name="uni0237" unicode="&#x237;" horiz-adv-x="258" 
d="M-46 -212v89c48 18 109 42 126 96c7 22 7 60 7 91v464h95v-475c0 -35 0 -87 -8 -113c-27 -87 -142 -128 -220 -152z" />
    <glyph glyph-name="uni0136" unicode="&#x136;" horiz-adv-x="661" 
d="M90 0v754h96v-358l333 358h128l-345 -371l377 -383h-134l-359 364v-364h-96zM324 -280h-69c13 57 16 97 16 161v63h85v-59c0 -67 -12 -117 -32 -165z" />
    <glyph glyph-name="uni0137" unicode="&#x137;" horiz-adv-x="531" 
d="M170 0h-94v754h94v-454l222 228h128l-237 -243l257 -285h-127l-243 270v-270zM198 -280c13 57 16 97 16 161v63h85v-59c0 -67 -12 -117 -32 -165h-69z" />
    <glyph glyph-name="kgreenlandic" unicode="&#x138;" horiz-adv-x="541" 
d="M170 0h-94v528h94v-234c55 18 126 46 175 92c31 29 52 79 65 142h96c-29 -146 -66 -209 -198 -275l235 -253h-128l-245 265v-265z" />
    <glyph glyph-name="Lacute" unicode="&#x139;" horiz-adv-x="612" 
d="M584 0h-494v754h96v-661h398v-93zM187 806h-108l128 144h111z" />
    <glyph glyph-name="lacute" unicode="&#x13a;" horiz-adv-x="246" 
d="M170 0h-94v754h94v-754zM166 806h-108l128 144h111z" />
    <glyph glyph-name="Lcaron" unicode="&#x13d;" horiz-adv-x="612" 
d="M584 0h-494v754h96v-661h398v-93zM332 557v197h84v-65c0 -43 -6 -84 -17 -132h-67z" />
    <glyph glyph-name="lcaron" unicode="&#x13e;" horiz-adv-x="299" 
d="M76 754h94v-754h-94v754zM227 557v197h84v-65c0 -43 -6 -84 -17 -132h-67z" />
    <glyph glyph-name="uni013B" unicode="&#x13b;" horiz-adv-x="612" 
d="M584 0h-494v754h96v-661h398v-93zM339 -280h-69c13 57 16 97 16 161v63h85v-59c0 -67 -12 -117 -32 -165z" />
    <glyph glyph-name="uni013C" unicode="&#x13c;" horiz-adv-x="246" 
d="M76 754h94v-754h-94v754zM135 -280h-69c13 57 16 97 16 161v63h85v-59c0 -67 -12 -117 -32 -165z" />
    <glyph glyph-name="Ldot" unicode="&#x13f;" horiz-adv-x="612" 
d="M584 0h-494v754h96v-661h398v-93zM490 319h-97v141h97v-141z" />
    <glyph glyph-name="ldot" unicode="&#x140;" horiz-adv-x="343" 
d="M170 0h-94v754h94v-754zM343 319h-97v141h97v-141z" />
    <glyph glyph-name="Lslash" unicode="&#x141;" horiz-adv-x="612" 
d="M10 343l80 52v359h96v-299l156 100v-92l-156 -101v-269h398v-93h-494v302l-80 -52v93z" />
    <glyph glyph-name="lslash" unicode="&#x142;" horiz-adv-x="276" 
d="M13 357l78 50v347h94v-286l78 51v-92l-78 -51v-376h-94v316l-78 -50v91z" />
    <glyph glyph-name="Nacute" unicode="&#x143;" horiz-adv-x="756" 
d="M185 0h-95v754h119l362 -615v615h95v-754h-119l-362 615v-615zM394 806h-108l128 144h111z" />
    <glyph glyph-name="nacute" unicode="&#x144;" 
d="M76 0v528h94v-35c55 23 128 52 182 52c141 0 163 -89 163 -212v-333h-94v330c0 72 -2 124 -87 124c-50 0 -119 -30 -164 -50v-404h-94zM302 610h-108l128 144h111z" />
    <glyph glyph-name="Ncaron" unicode="&#x147;" horiz-adv-x="756" 
d="M185 0h-95v754h119l362 -615v615h95v-754h-119l-362 615v-615zM321 806l-134 144h105l84 -88l84 88h104l-135 -144h-108z" />
    <glyph glyph-name="ncaron" unicode="&#x148;" 
d="M76 0v528h94v-35c55 23 128 52 182 52c141 0 163 -89 163 -212v-333h-94v330c0 72 -2 124 -87 124c-50 0 -119 -30 -164 -50v-404h-94zM105 754h105l84 -88l84 88h104l-135 -144h-108z" />
    <glyph glyph-name="Ntilde" unicode="&#xd1;" horiz-adv-x="756" 
d="M90 754h119l362 -615v615h95v-754h-119l-362 615v-615h-95v754zM179 812c36 97 63 130 128 130c30 0 56 -10 94 -36c31 -21 43 -29 63 -29c25 0 35 17 51 51h77c-30 -69 -57 -123 -127 -123c-31 0 -58 9 -90 31c-31 22 -49 34 -67 34c-28 0 -37 -21 -53 -58h-76z" />
    <glyph glyph-name="ntilde" unicode="&#xf1;" 
d="M170 0h-94v528h94v-35c55 23 128 52 182 52c141 0 163 -89 163 -212v-333h-94v330c0 72 -2 124 -87 124c-50 0 -119 -30 -164 -50v-404zM171 619h-76c36 97 63 130 128 130c30 0 56 -10 94 -36c31 -21 43 -29 63 -29c25 0 35 17 51 51h77c-30 -69 -57 -123 -127 -123
c-31 0 -58 9 -90 31c-31 22 -49 34 -67 34c-28 0 -37 -21 -53 -58z" />
    <glyph glyph-name="uni0145" unicode="&#x145;" horiz-adv-x="756" 
d="M185 0h-95v754h119l362 -615v615h95v-754h-119l-362 615v-615zM322 -280c13 57 16 97 16 161v63h85v-59c0 -67 -12 -117 -32 -165h-69z" />
    <glyph glyph-name="uni0146" unicode="&#x146;" 
d="M76 0v528h94v-35c55 23 128 52 182 52c141 0 163 -89 163 -212v-333h-94v330c0 72 -2 124 -87 124c-50 0 -119 -30 -164 -50v-404h-94zM297 -280h-69c13 57 16 97 16 161v63h85v-59c0 -67 -12 -117 -32 -165z" />
    <glyph glyph-name="napostrophe" unicode="&#x149;" horiz-adv-x="634" 
d="M214 0h-94v528h94v-35c55 23 128 52 182 52c141 0 163 -89 163 -212v-333h-94v330c0 72 -2 124 -87 124c-50 0 -119 -30 -164 -50v-404zM61 530h-69c13 57 16 97 16 161v63h85v-59c0 -67 -12 -117 -32 -165z" />
    <glyph glyph-name="uni019D" unicode="&#x19d;" horiz-adv-x="758" 
d="M-83 -215v97c29 10 76 27 112 48c26 15 44 31 53 58c9 28 10 74 10 117v649h119l362 -615v615h95v-754h-119l-362 615v-513c0 -67 0 -118 -15 -159c-11 -29 -28 -53 -62 -74c-63 -39 -137 -67 -193 -84z" />
    <glyph glyph-name="uni0272" unicode="&#x272;" 
d="M160 -59c-29 -89 -136 -125 -217 -152v94c24 8 74 29 94 46c38 34 39 59 39 108v491h94v-35c56 23 128 52 182 52c141 0 163 -89 163 -212v-333h-94v330c0 72 -2 124 -87 124c-50 0 -119 -30 -164 -50v-342c0 -45 -1 -94 -10 -121z" />
    <glyph glyph-name="Eng" unicode="&#x14a;" horiz-adv-x="756" 
d="M90 754h119l362 -615v615h95v-649c0 -61 0 -110 -13 -148c-10 -29 -30 -54 -64 -75c-62 -38 -177 -80 -235 -97v98c35 11 109 37 150 58c26 13 44 24 50 47l-369 627v-615h-95v754z" />
    <glyph glyph-name="eng" unicode="&#x14b;" 
d="M76 0v528h94v-35c56 23 128 52 182 52c141 0 163 -89 163 -212v-278c0 -37 0 -79 -10 -114c-25 -85 -142 -128 -218 -152v94c24 8 74 29 94 46c26 20 35 40 38 71c2 20 2 43 2 65v265c0 72 -2 124 -87 124c-50 0 -119 -30 -164 -50v-404h-94z" />
    <glyph glyph-name="Oacute" unicode="&#xd3;" horiz-adv-x="789" 
d="M75 376c0 228 58 395 320 395c128 0 200 -35 253 -109c49 -68 66 -182 66 -286c0 -226 -64 -393 -319 -393c-146 0 -217 39 -263 113c-40 64 -57 171 -57 280zM209 592c-27 -50 -36 -136 -36 -216c0 -78 9 -173 38 -224c37 -65 105 -76 184 -76c195 0 221 132 221 300
c0 84 -10 170 -43 223c-37 60 -98 79 -178 79s-149 -18 -186 -86zM416 806h-108l128 144h111z" />
    <glyph glyph-name="oacute" unicode="&#xf3;" 
d="M56 261c0 165 51 284 239 284c185 0 239 -114 239 -281c0 -164 -55 -281 -239 -281c-185 0 -239 110 -239 278zM295 456c-125 0 -144 -89 -144 -194c0 -54 8 -103 26 -135c24 -43 63 -55 118 -55c124 0 144 90 144 195c0 104 -22 189 -144 189zM311 610h-108l128 144h111
z" />
    <glyph glyph-name="Ograve" unicode="&#xd2;" horiz-adv-x="789" 
d="M75 376c0 228 58 395 320 395c128 0 200 -35 253 -109c49 -68 66 -182 66 -286c0 -226 -64 -393 -319 -393c-146 0 -217 39 -263 113c-40 64 -57 171 -57 280zM209 592c-27 -50 -36 -136 -36 -216c0 -78 9 -173 38 -224c37 -65 105 -76 184 -76c195 0 221 132 221 300
c0 84 -10 170 -43 223c-37 60 -98 79 -178 79s-149 -18 -186 -86zM364 806l-129 144h112l124 -144h-107z" />
    <glyph glyph-name="ograve" unicode="&#xf2;" 
d="M295 -17c-185 0 -239 110 -239 278c0 165 51 284 239 284c185 0 239 -114 239 -281c0 -164 -55 -281 -239 -281zM295 456c-125 0 -144 -89 -144 -194c0 -54 8 -103 26 -135c24 -43 63 -55 118 -55c124 0 144 90 144 195c0 104 -22 189 -144 189zM268 610l-129 144h112
l124 -144h-107z" />
    <glyph glyph-name="Ocircumflex" unicode="&#xd4;" horiz-adv-x="789" 
d="M75 376c0 228 58 395 320 395c128 0 200 -35 253 -109c49 -68 66 -182 66 -286c0 -226 -64 -393 -319 -393c-146 0 -217 39 -263 113c-40 64 -57 171 -57 280zM173 376c0 -78 9 -173 38 -224c37 -65 105 -76 184 -76c195 0 221 132 221 300c0 84 -10 170 -43 223
c-37 60 -98 79 -178 79s-149 -18 -186 -86c-27 -50 -36 -136 -36 -216zM311 804h-104l134 144h108l135 -144h-105l-84 88z" />
    <glyph glyph-name="ocircumflex" unicode="&#xf4;" 
d="M295 -17c-185 0 -239 110 -239 278c0 165 51 284 239 284c185 0 239 -114 239 -281c0 -164 -55 -281 -239 -281zM151 262c0 -54 8 -103 26 -135c24 -43 63 -55 118 -55c124 0 144 90 144 195c0 104 -22 189 -144 189c-125 0 -144 -89 -144 -194zM211 610h-104l134 144
h108l135 -144h-105l-84 88z" />
    <glyph glyph-name="Odieresis" unicode="&#xd6;" horiz-adv-x="789" 
d="M75 376c0 228 58 395 320 395c128 0 200 -35 253 -109c49 -68 66 -182 66 -286c0 -226 -64 -393 -319 -393c-146 0 -217 39 -263 113c-40 64 -57 171 -57 280zM209 592c-27 -50 -36 -136 -36 -216c0 -78 9 -173 38 -224c37 -65 105 -76 184 -76c195 0 221 132 221 300
c0 84 -10 170 -43 223c-37 60 -98 79 -178 79s-149 -18 -186 -86zM565 809h-92v141h92v-141zM225 809v141h92v-141h-92z" />
    <glyph glyph-name="odieresis" unicode="&#xf6;" 
d="M56 261c0 165 51 284 239 284c185 0 239 -114 239 -281c0 -164 -55 -281 -239 -281c-185 0 -239 110 -239 278zM295 456c-125 0 -144 -89 -144 -194c0 -54 8 -103 26 -135c24 -43 63 -55 118 -55c124 0 144 90 144 195c0 104 -22 189 -144 189zM443 613h-92v141h92v-141z
M148 613v141h92v-141h-92z" />
    <glyph glyph-name="Otilde" unicode="&#xd5;" horiz-adv-x="789" 
d="M75 376c0 228 58 395 320 395c128 0 200 -35 253 -109c49 -68 66 -182 66 -286c0 -226 -64 -393 -319 -393c-146 0 -217 39 -263 113c-40 64 -57 171 -57 280zM173 376c0 -78 9 -173 38 -224c37 -65 105 -76 184 -76c195 0 221 132 221 300c0 84 -10 170 -43 223
c-37 60 -98 79 -178 79s-148 -18 -186 -86c-27 -49 -36 -136 -36 -216zM267 812h-76c36 97 63 130 128 130c30 0 56 -10 94 -36c31 -21 43 -29 63 -29c25 0 35 17 51 51h77c-30 -69 -57 -123 -127 -123c-31 0 -58 9 -90 31c-31 22 -49 34 -67 34c-28 0 -37 -21 -53 -58z" />
    <glyph glyph-name="otilde" unicode="&#xf5;" 
d="M56 261c0 165 51 284 239 284c185 0 239 -114 239 -281c0 -164 -55 -281 -239 -281c-185 0 -239 110 -239 278zM151 262c0 -54 8 -103 26 -135c24 -43 63 -55 118 -55c124 0 144 90 144 195c0 104 -22 189 -144 189c-125 0 -144 -89 -144 -194zM169 619h-76
c36 97 63 130 128 130c30 0 56 -10 94 -36c31 -21 43 -29 63 -29c25 0 35 17 51 51h77c-30 -69 -57 -123 -127 -123c-31 0 -58 9 -90 31c-31 22 -49 34 -67 34c-28 0 -37 -21 -53 -58z" />
    <glyph glyph-name="Oslash" unicode="&#xd8;" horiz-adv-x="789" 
d="M75 376c0 228 58 395 320 395c128 0 200 -35 253 -109c49 -69 66 -182 66 -286c0 -226 -64 -393 -319 -393c-146 0 -217 39 -263 113c-40 64 -57 171 -57 280zM262 102c36 -22 83 -27 133 -27c193 0 222 135 222 301c0 81 -11 165 -40 217zM395 679
c-203 0 -223 -133 -223 -303c0 -77 8 -170 35 -216l314 490c-34 21 -76 29 -126 29z" />
    <glyph glyph-name="oslash" unicode="&#xf8;" 
d="M56 261c0 165 51 284 239 284c185 0 239 -114 239 -281c0 -164 -55 -281 -239 -281c-185 0 -239 110 -239 278zM149 262c0 -49 7 -96 22 -126l205 305c-22 12 -48 17 -81 17c-128 0 -146 -89 -146 -196zM214 86c22 -13 48 -16 81 -16c127 0 146 89 146 197
c0 60 -7 101 -20 127z" />
    <glyph glyph-name="Oslashacute" unicode="&#x1fe;" horiz-adv-x="789" 
d="M75 376c0 228 58 395 320 395c128 0 200 -35 253 -109c49 -69 66 -182 66 -286c0 -226 -64 -393 -319 -393c-146 0 -217 39 -263 113c-40 64 -57 171 -57 280zM577 593l-315 -491c36 -22 83 -27 133 -27c193 0 222 135 222 301c0 81 -11 165 -40 217zM172 376
c0 -77 8 -170 35 -216l314 490c-34 21 -76 29 -126 29c-204 0 -223 -133 -223 -303zM416 806h-108l128 144h111z" />
    <glyph glyph-name="oslashacute" unicode="&#x1ff;" 
d="M295 -17c-185 0 -239 110 -239 278c0 165 51 284 239 284c185 0 239 -114 239 -281c0 -164 -55 -281 -239 -281zM149 262c0 -49 7 -96 22 -126l205 305c-22 12 -48 17 -81 17c-128 0 -146 -89 -146 -196zM214 86c22 -13 48 -16 81 -16c127 0 146 89 146 197
c0 60 -7 101 -20 127zM203 610l128 144h111l-131 -144h-108z" />
    <glyph glyph-name="OE" unicode="&#x152;" horiz-adv-x="1149" 
d="M132 96c-41 65 -57 171 -57 280c0 228 57 395 320 395c68 0 113 -8 148 -17h551v-93h-443c41 -57 54 -162 54 -230h367v-93h-367c0 -69 -9 -187 -54 -245h460v-93h-572c-37 -10 -84 -17 -144 -17c-146 0 -217 40 -263 113zM173 376c0 -78 8 -173 38 -223
c38 -63 105 -77 184 -77c76 0 134 8 172 63c36 52 42 133 42 237c0 90 -4 170 -32 223c-33 62 -87 79 -182 79c-202 0 -222 -133 -222 -302z" />
    <glyph glyph-name="oe" unicode="&#x153;" horiz-adv-x="945" 
d="M295 -17c-184 0 -239 110 -239 278c0 165 51 284 239 284c85 0 150 -24 187 -89c32 54 84 89 187 89c150 0 223 -71 223 -217c0 -27 -4 -74 -10 -106h-355c0 -113 47 -153 161 -153c57 0 132 13 177 21v-87c-44 -8 -121 -20 -183 -20c-123 0 -171 32 -201 88
c-35 -58 -93 -88 -186 -88zM151 263c0 -55 8 -104 26 -136c24 -43 63 -55 118 -55c123 0 144 91 144 195s-22 189 -144 189c-125 0 -144 -88 -144 -193zM669 464c-109 0 -142 -69 -142 -167h270c1 7 3 25 3 42c0 85 -43 125 -131 125z" />
    <glyph glyph-name="Omacron" unicode="&#x14c;" horiz-adv-x="789" 
d="M75 376c0 228 58 395 320 395c128 0 200 -35 253 -109c49 -68 66 -182 66 -286c0 -226 -64 -393 -319 -393c-146 0 -217 39 -263 113c-40 64 -57 171 -57 280zM173 376c0 -78 9 -173 38 -224c37 -65 105 -76 184 -76c195 0 221 132 221 300c0 84 -10 170 -43 223
c-37 60 -98 79 -178 79s-149 -18 -186 -86c-27 -50 -36 -136 -36 -216zM562 832h-337v73h337v-73z" />
    <glyph glyph-name="omacron" unicode="&#x14d;" 
d="M295 -17c-185 0 -239 110 -239 278c0 165 51 284 239 284c185 0 239 -114 239 -281c0 -164 -55 -281 -239 -281zM151 262c0 -54 8 -103 26 -135c24 -43 63 -55 118 -55c124 0 144 90 144 195c0 104 -22 189 -144 189c-125 0 -144 -89 -144 -194zM128 710h337v-73h-337v73
z" />
    <glyph glyph-name="Obreve" unicode="&#x14e;" horiz-adv-x="789" 
d="M75 376c0 228 58 395 320 395c128 0 200 -35 253 -109c49 -68 66 -182 66 -286c0 -226 -64 -393 -319 -393c-146 0 -217 39 -263 113c-40 64 -57 171 -57 280zM173 376c0 -78 9 -173 38 -224c37 -65 105 -76 184 -76c195 0 221 132 221 300c0 84 -10 170 -43 223
c-37 60 -98 79 -178 79s-148 -18 -186 -86c-27 -49 -36 -136 -36 -216zM394 802c-102 0 -145 55 -168 148h84c5 -18 12 -40 24 -54c14 -19 32 -26 60 -26c53 0 73 34 85 80h84c-10 -39 -26 -82 -54 -107c-27 -27 -63 -41 -115 -41z" />
    <glyph glyph-name="obreve" unicode="&#x14f;" 
d="M295 -17c-185 0 -239 110 -239 278c0 165 51 284 239 284c185 0 239 -114 239 -281c0 -164 -55 -281 -239 -281zM295 456c-125 0 -144 -89 -144 -194c0 -54 8 -103 26 -135c24 -43 63 -55 118 -55c124 0 144 90 144 195c0 104 -22 189 -144 189zM295 606
c-102 0 -145 55 -168 148h84c5 -18 12 -40 24 -54c14 -19 32 -26 60 -26c53 0 73 34 85 80h84c-10 -39 -26 -82 -54 -107c-27 -27 -63 -41 -115 -41z" />
    <glyph glyph-name="uni01EA" unicode="&#x1ea;" horiz-adv-x="789" 
d="M132 96c-40 64 -57 171 -57 280c0 228 58 395 320 395c128 0 200 -35 253 -109c49 -68 66 -182 66 -286c0 -101 -17 -214 -64 -281c-31 -44 -67 -69 -113 -90c-30 -14 -106 -75 -106 -113c0 -16 10 -21 28 -21c21 0 50 11 72 20v-74c-24 -9 -59 -19 -92 -19
c-58 0 -104 16 -104 82c0 47 36 79 72 104c-10 -1 -15 -1 -22 -1c-100 0 -193 18 -253 113zM173 376c0 -78 9 -173 38 -224c37 -65 105 -76 184 -76c195 0 221 132 221 300c0 84 -10 170 -43 223c-37 60 -98 79 -178 79s-149 -18 -186 -86c-27 -50 -36 -136 -36 -216z" />
    <glyph glyph-name="uni01EB" unicode="&#x1eb;" 
d="M56 261c0 165 51 284 239 284c185 0 239 -114 239 -281c0 -111 -19 -205 -123 -260c-28 -15 -102 -76 -102 -112c0 -16 10 -21 28 -21c21 0 50 11 72 20v-74c-25 -9 -59 -19 -92 -19c-58 0 -104 16 -104 82c0 43 36 79 69 103c-176 0 -226 122 -226 278zM151 262
c0 -54 8 -103 26 -135c24 -43 63 -55 118 -55c124 0 144 90 144 195c0 104 -22 189 -144 189c-125 0 -144 -89 -144 -194z" />
    <glyph glyph-name="Ohungarumlaut" unicode="&#x150;" horiz-adv-x="789" 
d="M75 376c0 228 58 395 320 395c128 0 200 -35 253 -109c49 -68 66 -182 66 -286c0 -226 -64 -393 -319 -393c-146 0 -217 39 -263 113c-40 64 -57 171 -57 280zM209 592c-27 -50 -36 -136 -36 -216c0 -78 9 -173 38 -224c37 -65 105 -76 184 -76c195 0 221 132 221 300
c0 84 -10 170 -43 223c-37 60 -98 79 -178 79s-149 -18 -186 -86zM507 806h-92l95 144h96zM340 806h-92l95 144h96z" />
    <glyph glyph-name="ohungarumlaut" unicode="&#x151;" 
d="M295 -17c-185 0 -239 110 -239 278c0 165 51 284 239 284c185 0 239 -114 239 -281c0 -164 -55 -281 -239 -281zM151 262c0 -54 8 -103 26 -135c24 -43 63 -55 118 -55c124 0 144 90 144 195c0 104 -22 189 -144 189c-125 0 -144 -89 -144 -194zM406 610h-92l95 144h96z
M239 610h-92l95 144h96z" />
    <glyph glyph-name="uni1ECC" unicode="&#x1ecc;" horiz-adv-x="789" 
d="M75 376c0 228 58 395 320 395c128 0 200 -35 253 -109c49 -68 66 -182 66 -286c0 -226 -64 -393 -319 -393c-146 0 -217 39 -263 113c-40 64 -57 171 -57 280zM173 376c0 -78 9 -173 38 -224c37 -65 105 -76 184 -76c195 0 221 132 221 300c0 84 -10 170 -43 223
c-37 60 -98 79 -178 79s-149 -18 -186 -86c-27 -50 -36 -136 -36 -216zM439 -189h-97v141h97v-141z" />
    <glyph glyph-name="uni1ECD" unicode="&#x1ecd;" 
d="M56 261c0 165 51 284 239 284c185 0 239 -114 239 -281c0 -164 -55 -281 -239 -281c-185 0 -239 110 -239 278zM151 262c0 -54 8 -103 26 -135c24 -43 63 -55 118 -55c124 0 144 90 144 195c0 104 -22 189 -144 189c-125 0 -144 -89 -144 -194zM343 -189h-97v141h97v-141
z" />
    <glyph glyph-name="Racute" unicode="&#x154;" horiz-adv-x="704" 
d="M186 0h-96v754h287c98 0 156 -10 203 -46c45 -34 68 -93 68 -158c0 -67 -29 -112 -67 -158c-26 -31 -61 -65 -82 -86l187 -306h-114l-177 291h-209v-291zM186 661v-277h262c20 21 39 41 55 60c26 30 47 63 47 106c0 111 -96 111 -181 111h-183zM252 806l128 144h111
l-131 -144h-108z" />
    <glyph glyph-name="racute" unicode="&#x155;" horiz-adv-x="365" 
d="M170 0h-94v528h94v-64c63 47 108 64 187 76v-95c-67 -12 -131 -38 -187 -77v-368zM182 610h-108l128 144h111z" />
    <glyph glyph-name="Rcaron" unicode="&#x158;" horiz-adv-x="704" 
d="M186 0h-96v754h287c98 0 156 -10 203 -46c45 -34 68 -93 68 -158c0 -67 -29 -112 -67 -158c-26 -31 -61 -65 -82 -86l187 -306h-114l-177 291h-209v-291zM186 384h262c20 21 39 41 55 60c26 30 47 63 47 106c0 111 -96 111 -181 111h-183v-277zM147 950h105l84 -88l84 88
h104l-135 -144h-108z" />
    <glyph glyph-name="rcaron" unicode="&#x159;" horiz-adv-x="365" 
d="M170 0h-94v528h94v-64c63 47 108 64 187 76v-95c-67 -12 -131 -38 -187 -77v-368zM133 610l-134 144h105l84 -88l84 88h104l-135 -144h-108z" />
    <glyph glyph-name="uni0156" unicode="&#x156;" horiz-adv-x="704" 
d="M186 0h-96v754h287c98 0 156 -10 203 -46c45 -34 68 -93 68 -158c0 -67 -29 -112 -67 -158c-26 -31 -61 -65 -82 -86l187 -306h-114l-177 291h-209v-291zM186 661v-277h262c20 21 39 41 55 60c26 30 47 63 47 106c0 111 -96 111 -181 111h-183zM352 -280h-69
c13 57 16 97 16 161v63h85v-59c0 -67 -12 -117 -32 -165z" />
    <glyph glyph-name="uni0157" unicode="&#x157;" horiz-adv-x="365" 
d="M170 0h-94v528h94v-64c63 47 108 64 187 76v-95c-67 -12 -131 -38 -187 -77v-368zM66 -280c13 57 16 97 16 161v63h85v-59c0 -67 -12 -117 -32 -165h-69z" />
    <glyph glyph-name="Sacute" unicode="&#x15a;" horiz-adv-x="644" 
d="M217 366c-104 35 -165 75 -165 196c0 62 18 117 65 158c45 39 104 51 191 51c84 0 184 -24 263 -43v-96c-70 17 -190 46 -261 46c-81 0 -160 -13 -160 -112c0 -33 5 -56 24 -73c18 -16 49 -27 93 -42l150 -50c108 -36 175 -76 175 -202c0 -63 -22 -117 -65 -156
c-48 -44 -113 -60 -212 -60c-85 0 -190 22 -257 36v95c74 -16 185 -38 261 -38c83 0 175 18 175 120c0 30 -5 53 -23 72c-19 20 -52 30 -103 47zM225 806l128 144h111l-131 -144h-108z" />
    <glyph glyph-name="sacute" unicode="&#x15b;" horiz-adv-x="515" 
d="M185 242c-82 25 -134 54 -134 149c0 124 94 154 201 154c62 0 155 -21 191 -31v-90c-40 10 -133 33 -189 33c-48 0 -108 -3 -108 -66c0 -20 5 -36 21 -46c14 -9 34 -15 64 -24l96 -29c81 -25 137 -55 137 -150c0 -129 -108 -159 -217 -159c-68 0 -151 17 -190 25v90
c48 -10 130 -27 196 -27c49 0 116 5 116 70c0 18 -5 32 -17 43c-14 12 -40 20 -74 30zM272 610h-108l128 144h111z" />
    <glyph glyph-name="Scircumflex" unicode="&#x15c;" horiz-adv-x="644" 
d="M52 562c0 62 18 117 65 158c45 39 104 51 191 51c84 0 184 -24 263 -43v-96c-70 17 -190 46 -261 46c-81 0 -160 -13 -160 -112c0 -33 5 -56 24 -73c18 -16 49 -27 93 -42l150 -50c108 -36 175 -76 175 -202c0 -63 -22 -117 -65 -156c-48 -44 -113 -60 -212 -60
c-85 0 -190 22 -257 36v95c74 -16 185 -38 261 -38c83 0 175 18 175 120c0 30 -5 53 -23 72c-19 20 -52 30 -103 47l-151 51c-104 35 -165 75 -165 196zM237 806h-104l134 144h108l135 -144h-105l-84 88z" />
    <glyph glyph-name="scircumflex" unicode="&#x15d;" horiz-adv-x="515" 
d="M51 391c0 124 94 154 201 154c62 0 155 -21 191 -31v-90c-40 10 -133 33 -189 33c-48 0 -108 -3 -108 -66c0 -20 5 -36 21 -46c14 -9 34 -15 64 -24l96 -29c81 -25 137 -55 137 -150c0 -129 -108 -159 -217 -159c-68 0 -151 17 -190 25v90c48 -10 130 -27 196 -27
c49 0 116 5 116 70c0 18 -5 32 -17 43c-14 12 -40 20 -74 30l-93 28c-82 25 -134 54 -134 149zM173 610h-104l134 144h108l135 -144h-105l-84 88z" />
    <glyph glyph-name="Scaron" unicode="&#x160;" horiz-adv-x="644" 
d="M52 562c0 62 18 117 65 158c45 39 104 51 191 51c84 0 184 -24 263 -43v-96c-70 17 -190 46 -261 46c-81 0 -160 -13 -160 -112c0 -33 5 -56 24 -73c18 -16 49 -27 93 -42l150 -50c108 -36 175 -76 175 -202c0 -63 -22 -117 -65 -156c-48 -44 -113 -60 -212 -60
c-85 0 -190 22 -257 36v95c74 -16 185 -38 261 -38c83 0 175 18 175 120c0 30 -5 53 -23 72c-19 20 -52 30 -103 47l-151 51c-104 35 -165 75 -165 196zM133 950h105l84 -88l84 88h104l-135 -144h-108z" />
    <glyph glyph-name="scaron" unicode="&#x161;" horiz-adv-x="515" 
d="M51 391c0 124 94 154 201 154c62 0 155 -21 191 -31v-90c-40 10 -133 33 -189 33c-48 0 -108 -3 -108 -66c0 -20 5 -36 21 -46c14 -9 34 -15 64 -24l96 -29c81 -25 137 -55 137 -150c0 -129 -108 -159 -217 -159c-68 0 -151 17 -190 25v90c48 -10 130 -27 196 -27
c49 0 116 5 116 70c0 18 -5 32 -17 43c-14 12 -40 20 -74 30l-93 28c-82 25 -134 54 -134 149zM65 754h105l84 -88l84 88h104l-135 -144h-108z" />
    <glyph glyph-name="Scedilla" unicode="&#x15e;" horiz-adv-x="644" 
d="M217 366c-104 35 -165 75 -165 196c0 62 18 117 65 158c45 39 104 51 191 51c84 0 184 -24 263 -43v-96c-70 17 -190 46 -261 46c-81 0 -160 -13 -160 -112c0 -33 5 -56 24 -73c18 -16 49 -27 93 -42l150 -50c108 -36 175 -76 175 -202c0 -63 -22 -117 -65 -156
c-48 -44 -113 -60 -212 -60c-85 0 -190 22 -257 36v95c74 -16 185 -38 261 -38c83 0 175 18 175 120c0 30 -5 53 -23 72c-19 20 -52 30 -103 47zM203 -197l86 137h101l-85 -137h-102z" />
    <glyph glyph-name="scedilla" unicode="&#x15f;" horiz-adv-x="515" 
d="M51 391c0 124 94 154 201 154c62 0 155 -21 191 -31v-90c-40 10 -133 33 -189 33c-48 0 -108 -3 -108 -66c0 -20 5 -36 21 -46c14 -9 34 -15 64 -24l96 -29c81 -25 137 -55 137 -150c0 -129 -108 -159 -217 -159c-68 0 -151 17 -190 25v90c48 -10 130 -27 196 -27
c49 0 116 5 116 70c0 18 -5 32 -17 43c-14 12 -40 20 -74 30l-93 28c-82 25 -134 54 -134 149zM139 -197l86 137h101l-85 -137h-102z" />
    <glyph glyph-name="uni0218" unicode="&#x218;" horiz-adv-x="644" 
d="M217 366c-104 35 -165 75 -165 196c0 62 18 117 65 158c45 39 104 51 191 51c84 0 184 -24 263 -43v-96c-70 17 -190 46 -261 46c-81 0 -160 -13 -160 -112c0 -33 5 -56 24 -73c18 -16 49 -27 93 -42l150 -50c108 -36 175 -76 175 -202c0 -63 -22 -117 -65 -156
c-48 -44 -113 -60 -212 -60c-85 0 -190 22 -257 36v95c74 -16 185 -38 261 -38c83 0 175 18 175 120c0 30 -5 53 -23 72c-19 20 -52 30 -103 47zM333 -280h-69c13 57 16 97 16 161v63h85v-59c0 -67 -12 -117 -32 -165z" />
    <glyph glyph-name="uni0219" unicode="&#x219;" horiz-adv-x="515" 
d="M185 242c-82 25 -134 54 -134 149c0 124 94 154 201 154c62 0 155 -21 191 -31v-90c-40 10 -133 33 -189 33c-48 0 -108 -3 -108 -66c0 -20 5 -36 21 -46c14 -9 34 -15 64 -24l96 -29c81 -25 137 -55 137 -150c0 -129 -108 -159 -217 -159c-68 0 -151 17 -190 25v90
c48 -10 130 -27 196 -27c49 0 116 5 116 70c0 18 -5 32 -17 43c-14 12 -40 20 -74 30zM200 -280c13 57 16 97 16 161v63h85v-59c0 -67 -12 -117 -32 -165h-69z" />
    <glyph glyph-name="Thorn" unicode="&#xde;" horiz-adv-x="662" 
d="M90 754h96v-134h198c82 0 136 -16 176 -58c37 -39 55 -100 55 -164c0 -148 -70 -225 -217 -235c-44 -3 -121 -3 -212 -3v-160h-96v754zM186 527v-274c79 0 153 0 204 4c48 4 80 12 101 41c19 27 26 60 26 100c0 104 -53 129 -148 129h-183z" />
    <glyph glyph-name="thorn" unicode="&#xfe;" horiz-adv-x="594" 
d="M76 754h94v-280c53 36 107 71 173 71c159 0 195 -149 195 -280c0 -142 -40 -282 -208 -282c-56 0 -116 23 -160 43v-218h-94v946zM170 380v-261c44 -20 96 -46 146 -46c111 0 127 101 127 191c0 82 -10 192 -115 192c-27 0 -54 -10 -80 -26s-55 -34 -78 -50z" />
    <glyph glyph-name="Tcaron" unicode="&#x164;" horiz-adv-x="668" 
d="M286 661h-267v93h630v-93h-267v-661h-96v661zM282 806l-134 144h105l84 -88l84 88h104l-135 -144h-108z" />
    <glyph glyph-name="tcaron" unicode="&#x165;" horiz-adv-x="345" 
d="M75 664h94v-143h162v-89h-162v-219c0 -35 0 -56 3 -78c3 -20 12 -33 36 -41c25 -8 61 -10 98 -12v-89c-59 3 -116 8 -154 20c-37 12 -56 30 -66 58c-11 31 -11 64 -11 140v453zM292 570h-67v184h84v-62c0 -39 -6 -74 -17 -122z" />
    <glyph glyph-name="uni0162" unicode="&#x162;" horiz-adv-x="668" 
d="M19 661v93h630v-93h-267v-661h-96v661h-267zM216 -197l86 137h101l-85 -137h-102z" />
    <glyph glyph-name="uni0163" unicode="&#x163;" horiz-adv-x="345" 
d="M75 664h94v-143h162v-89h-162v-219c0 -35 0 -56 3 -78c3 -20 12 -33 36 -41c25 -8 61 -10 98 -12v-89c-59 3 -116 8 -154 20c-37 12 -56 30 -66 58c-11 31 -11 64 -11 140v453zM162 -197h-102l86 137h101z" />
    <glyph glyph-name="uni021A" unicode="&#x21a;" horiz-adv-x="668" 
d="M19 754h630v-93h-267v-661h-96v661h-267v93zM346 -280h-69c13 57 16 97 16 161v63h85v-59c0 -67 -12 -117 -32 -165z" />
    <glyph glyph-name="uni021B" unicode="&#x21b;" horiz-adv-x="345" 
d="M75 664h94v-143h162v-89h-162v-219c0 -35 0 -56 3 -78c3 -20 12 -33 36 -41c25 -8 61 -10 98 -12v-89c-59 3 -116 8 -154 20c-37 12 -56 30 -66 58c-11 31 -11 64 -11 140v453zM113 -280c13 57 16 97 16 161v63h85v-59c0 -67 -12 -117 -32 -165h-69z" />
    <glyph glyph-name="Tbar" unicode="&#x166;" horiz-adv-x="668" 
d="M19 754h630v-92h-267v-233h140v-91h-140v-338h-96v338h-140v91h140v233h-267v92z" />
    <glyph glyph-name="tbar" unicode="&#x167;" horiz-adv-x="362" 
d="M75 664h94v-143h162v-87h-162v-74h161v-87h-161v-60c0 -35 0 -56 3 -78c3 -20 12 -33 36 -41c25 -8 61 -10 98 -12v-89c-59 3 -116 8 -154 20c-37 12 -56 30 -66 58c-11 31 -11 64 -11 140v453z" />
    <glyph glyph-name="Uacute" unicode="&#xda;" horiz-adv-x="739" 
d="M88 287v467h96v-467c0 -153 26 -211 186 -211s185 62 185 211v467h96v-467c0 -114 -10 -190 -71 -243c-51 -45 -116 -61 -210 -61c-220 0 -282 91 -282 304zM388 806h-108l128 144h111z" />
    <glyph glyph-name="uacute" unicode="&#xfa;" horiz-adv-x="583" 
d="M75 528h94v-319c0 -84 2 -137 100 -137c59 0 108 12 144 22v434h94v-503c-72 -20 -152 -42 -246 -42c-155 0 -186 85 -186 224v321zM314 610h-108l128 144h111z" />
    <glyph glyph-name="Ugrave" unicode="&#xd9;" horiz-adv-x="739" 
d="M88 754h96v-467c0 -153 26 -211 186 -211s185 62 185 211v467h96v-467c0 -114 -10 -190 -71 -243c-51 -45 -116 -61 -210 -61c-220 0 -282 91 -282 304v467zM222 950h112l124 -144h-107z" />
    <glyph glyph-name="ugrave" unicode="&#xf9;" horiz-adv-x="583" 
d="M75 528h94v-319c0 -84 2 -137 100 -137c59 0 108 12 144 22v434h94v-503c-72 -20 -152 -42 -246 -42c-155 0 -186 85 -186 224v321zM274 610l-129 144h112l124 -144h-107z" />
    <glyph glyph-name="Ucircumflex" unicode="&#xdb;" horiz-adv-x="739" 
d="M88 754h96v-467c0 -153 26 -211 186 -211s185 62 185 211v467h96v-467c0 -114 -10 -190 -71 -243c-51 -45 -116 -61 -210 -61c-220 0 -282 91 -282 304v467zM286 806h-104l134 144h108l135 -144h-105l-84 88z" />
    <glyph glyph-name="ucircumflex" unicode="&#xfb;" horiz-adv-x="583" 
d="M75 528h94v-319c0 -84 2 -137 100 -137c59 0 108 12 144 22v434h94v-503c-72 -20 -152 -42 -246 -42c-155 0 -186 85 -186 224v321zM205 610h-104l134 144h108l135 -144h-105l-84 88z" />
    <glyph glyph-name="Udieresis" unicode="&#xdc;" horiz-adv-x="739" 
d="M88 754h96v-467c0 -153 26 -211 186 -211s185 62 185 211v467h96v-467c0 -114 -10 -190 -71 -243c-51 -45 -116 -61 -210 -61c-220 0 -282 91 -282 304v467zM442 809v141h92v-141h-92zM205 809v141h92v-141h-92z" />
    <glyph glyph-name="udieresis" unicode="&#xfc;" horiz-adv-x="583" 
d="M75 528h94v-319c0 -84 2 -137 100 -137c59 0 108 12 144 22v434h94v-503c-72 -20 -152 -42 -246 -42c-155 0 -186 85 -186 224v321zM349 754h92v-141h-92v141zM142 754h92v-141h-92v141z" />
    <glyph glyph-name="Utilde" unicode="&#x168;" horiz-adv-x="739" 
d="M88 287v467h96v-467c0 -153 26 -211 186 -211s185 62 185 211v467h96v-467c0 -114 -10 -190 -71 -243c-51 -45 -116 -61 -210 -61c-220 0 -282 91 -282 304zM169 813c36 97 63 130 128 130c30 0 56 -10 94 -36c31 -21 43 -29 63 -29c25 0 35 17 51 51h77
c-30 -69 -57 -123 -127 -123c-31 0 -58 9 -90 31c-31 22 -49 34 -67 34c-28 0 -37 -21 -53 -58h-76z" />
    <glyph glyph-name="utilde" unicode="&#x169;" horiz-adv-x="583" 
d="M75 528h94v-319c0 -84 2 -137 100 -137c59 0 108 12 144 22v434h94v-503c-72 -20 -152 -42 -246 -42c-155 0 -186 85 -186 224v321zM91 619c36 97 63 130 128 130c30 0 56 -10 94 -36c31 -21 43 -29 63 -29c25 0 35 17 51 51h77c-30 -69 -57 -123 -127 -123
c-31 0 -58 9 -90 31c-31 22 -49 34 -67 34c-28 0 -37 -21 -53 -58h-76z" />
    <glyph glyph-name="Umacron" unicode="&#x16a;" horiz-adv-x="739" 
d="M88 754h96v-467c0 -153 26 -211 186 -211s185 62 185 211v467h96v-467c0 -114 -10 -190 -71 -243c-51 -45 -116 -61 -210 -61c-220 0 -282 91 -282 304v467zM201 905h337v-73h-337v73z" />
    <glyph glyph-name="umacron" unicode="&#x16b;" horiz-adv-x="583" 
d="M75 528h94v-319c0 -84 2 -137 100 -137c59 0 108 12 144 22v434h94v-503c-72 -20 -152 -42 -246 -42c-155 0 -186 85 -186 224v321zM122 710h337v-73h-337v73z" />
    <glyph glyph-name="Ubreve" unicode="&#x16c;" horiz-adv-x="739" 
d="M88 754h96v-467c0 -153 26 -211 186 -211s185 62 185 211v467h96v-467c0 -114 -10 -190 -71 -243c-51 -45 -116 -61 -210 -61c-220 0 -282 91 -282 304v467zM370 802c-102 0 -145 55 -168 148h84c5 -18 12 -40 24 -54c14 -19 32 -26 60 -26c53 0 73 34 85 80h84
c-10 -39 -26 -82 -54 -107c-27 -27 -63 -41 -115 -41z" />
    <glyph glyph-name="ubreve" unicode="&#x16d;" horiz-adv-x="583" 
d="M75 528h94v-319c0 -84 2 -137 100 -137c59 0 108 12 144 22v434h94v-503c-72 -20 -152 -42 -246 -42c-155 0 -186 85 -186 224v321zM291 606c-102 0 -145 55 -168 148h84c5 -18 12 -40 24 -54c14 -19 32 -26 60 -26c53 0 73 34 85 80h84c-10 -39 -26 -82 -54 -107
c-27 -27 -63 -41 -115 -41z" />
    <glyph glyph-name="Uogonek" unicode="&#x172;" horiz-adv-x="739" 
d="M88 287v467h96v-467c0 -153 26 -211 186 -211s185 62 185 211v467h96v-467c0 -132 -9 -221 -133 -283c-30 -15 -108 -73 -108 -112c0 -16 10 -21 28 -21c21 0 50 11 72 20v-74c-25 -9 -59 -19 -92 -19c-58 0 -104 16 -104 82c0 45 37 80 71 104c-11 -1 -16 -1 -24 -1
c-215 0 -273 101 -273 304z" />
    <glyph glyph-name="uogonek" unicode="&#x173;" horiz-adv-x="583" 
d="M75 528h94v-319c0 -84 2 -137 100 -137c59 0 108 12 144 22v434h94v-503c-22 -22 -99 -101 -99 -133c0 -16 10 -21 28 -21c21 0 49 11 71 20v-74c-25 -9 -58 -19 -91 -19c-58 0 -104 16 -104 82c0 45 50 91 82 119c-43 -10 -86 -16 -133 -16c-155 0 -186 85 -186 224v321
z" />
    <glyph glyph-name="Uhungarumlaut" unicode="&#x170;" horiz-adv-x="739" 
d="M88 754h96v-467c0 -153 26 -211 186 -211s185 62 185 211v467h96v-467c0 -114 -10 -190 -71 -243c-51 -45 -116 -61 -210 -61c-220 0 -282 91 -282 304v467zM384 806l95 144h96l-99 -144h-92zM309 806h-92l95 144h96z" />
    <glyph glyph-name="uhungarumlaut" unicode="&#x171;" horiz-adv-x="583" 
d="M75 528h94v-319c0 -84 2 -137 100 -137c59 0 108 12 144 22v434h94v-503c-72 -20 -152 -42 -246 -42c-155 0 -186 85 -186 224v321zM403 610h-92l95 144h96zM236 610h-92l95 144h96z" />
    <glyph glyph-name="Uring" unicode="&#x16e;" horiz-adv-x="739" 
d="M88 754h96v-467c0 -153 26 -211 186 -211s185 62 185 211v467h96v-467c0 -114 -10 -190 -71 -243c-51 -45 -116 -61 -210 -61c-220 0 -282 91 -282 304v467zM240 884c0 77 53 120 128 120c76 0 128 -42 128 -120c0 -76 -55 -118 -128 -118s-128 42 -128 118zM306 884
c0 -37 26 -57 62 -57s63 19 63 57c0 39 -25 59 -63 59s-62 -21 -62 -59z" />
    <glyph glyph-name="uring" unicode="&#x16f;" horiz-adv-x="583" 
d="M75 528h94v-319c0 -84 2 -137 100 -137c59 0 108 12 144 22v434h94v-503c-72 -20 -152 -42 -246 -42c-155 0 -186 85 -186 224v321zM165 700c0 77 53 120 128 120c76 0 128 -42 128 -120c0 -76 -55 -118 -128 -118s-128 42 -128 118zM293 759c-38 0 -62 -21 -62 -59
c0 -37 26 -57 62 -57s63 19 63 57c0 39 -25 59 -63 59z" />
    <glyph glyph-name="uni1EE4" unicode="&#x1ee4;" horiz-adv-x="739" 
d="M88 754h96v-467c0 -153 26 -211 186 -211s185 62 185 211v467h96v-467c0 -114 -10 -190 -71 -243c-51 -45 -116 -61 -210 -61c-220 0 -282 91 -282 304v467zM321 -52h97v-141h-97v141z" />
    <glyph glyph-name="uni1EE5" unicode="&#x1ee5;" horiz-adv-x="583" 
d="M75 528h94v-319c0 -84 2 -137 100 -137c59 0 108 12 144 22v434h94v-503c-72 -20 -152 -42 -246 -42c-155 0 -186 85 -186 224v321zM338 -193h-97v141h97v-141z" />
    <glyph glyph-name="Wacute" unicode="&#x1e82;" horiz-adv-x="914" 
d="M180 0l-156 754h98l133 -641l148 527h109l149 -527l132 641h97l-155 -754h-133l-145 514l-144 -514h-133zM478 806h-108l128 144h111z" />
    <glyph glyph-name="wacute" unicode="&#x1e83;" horiz-adv-x="813" 
d="M159 0l-147 528h96l119 -431l125 431h111l125 -431l120 431h93l-148 -528h-126l-121 420l-121 -420h-126zM433 610h-108l128 144h111z" />
    <glyph glyph-name="Wgrave" unicode="&#x1e80;" horiz-adv-x="914" 
d="M24 754h98l133 -641l148 527h109l149 -527l132 641h97l-155 -754h-133l-145 514l-144 -514h-133zM431 806l-129 144h112l124 -144h-107z" />
    <glyph glyph-name="wgrave" unicode="&#x1e81;" horiz-adv-x="813" 
d="M12 528h96l119 -431l125 431h111l125 -431l120 431h93l-148 -528h-126l-121 420l-121 -420h-126zM388 610l-129 144h112l124 -144h-107z" />
    <glyph glyph-name="Wcircumflex" unicode="&#x174;" horiz-adv-x="914" 
d="M24 754h98l133 -641l148 527h109l149 -527l132 641h97l-155 -754h-133l-145 514l-144 -514h-133zM372 806h-104l134 144h108l135 -144h-105l-84 88z" />
    <glyph glyph-name="wcircumflex" unicode="&#x175;" horiz-adv-x="813" 
d="M159 0l-147 528h96l119 -431l125 431h111l125 -431l120 431h93l-148 -528h-126l-121 420l-121 -420h-126zM324 610h-104l134 144h108l135 -144h-105l-84 88z" />
    <glyph glyph-name="Wdieresis" unicode="&#x1e84;" horiz-adv-x="914" 
d="M24 754h98l133 -641l148 527h109l149 -527l132 641h97l-155 -754h-133l-145 514l-144 -514h-133zM607 809h-92v141h92v-141zM398 809h-92v141h92v-141z" />
    <glyph glyph-name="wdieresis" unicode="&#x1e85;" horiz-adv-x="813" 
d="M12 528h96l119 -431l125 431h111l125 -431l120 431h93l-148 -528h-126l-121 420l-121 -420h-126zM465 754h92v-141h-92v141zM348 613h-92v141h92v-141z" />
    <glyph glyph-name="Yacute" unicode="&#xdd;" horiz-adv-x="628" 
d="M-11 754h113l213 -362l213 362h111l-277 -467v-287h-96v287zM224 806l128 144h111l-131 -144h-108z" />
    <glyph glyph-name="yacute" unicode="&#xfd;" horiz-adv-x="537" 
d="M6 528h103l160 -403l160 403h102l-291 -720h-100l78 194zM288 610h-108l128 144h111z" />
    <glyph glyph-name="Ygrave" unicode="&#x1ef2;" horiz-adv-x="628" 
d="M-11 754h113l213 -362l213 362h111l-277 -467v-287h-96v287zM296 806l-129 144h112l124 -144h-107z" />
    <glyph glyph-name="ygrave" unicode="&#x1ef3;" horiz-adv-x="537" 
d="M6 528h103l160 -403l160 403h102l-291 -720h-100l78 194zM247 610l-129 144h112l124 -144h-107z" />
    <glyph glyph-name="Ycircumflex" unicode="&#x176;" horiz-adv-x="628" 
d="M266 287l-277 467h113l213 -362l213 362h111l-277 -467v-287h-96v287zM128 806l134 144h108l135 -144h-105l-84 88l-84 -88h-104z" />
    <glyph glyph-name="ycircumflex" unicode="&#x177;" horiz-adv-x="537" 
d="M218 2l-212 526h103l160 -403l160 403h102l-291 -720h-100zM184 610h-104l134 144h108l135 -144h-105l-84 88z" />
    <glyph glyph-name="Ydieresis" unicode="&#x178;" horiz-adv-x="628" 
d="M266 287l-277 467h113l213 -362l213 362h111l-277 -467v-287h-96v287zM382 809v141h92v-141h-92zM155 809v141h92v-141h-92z" />
    <glyph glyph-name="ydieresis" unicode="&#xff;" horiz-adv-x="537" 
d="M6 528h103l160 -403l160 403h102l-291 -720h-100l78 194zM416 613h-92v141h92v-141zM212 613h-92v141h92v-141z" />
    <glyph glyph-name="uni1EF8" unicode="&#x1ef8;" horiz-adv-x="628" 
d="M-11 754h113l213 -362l213 362h111l-277 -467v-287h-96v287zM191 813h-76c36 97 63 130 128 130c30 0 56 -10 94 -36c31 -21 43 -29 63 -29c25 0 35 17 51 51h77c-30 -69 -57 -123 -127 -123c-31 0 -58 9 -90 31c-31 22 -49 34 -67 34c-28 0 -37 -21 -53 -58z" />
    <glyph glyph-name="uni1EF9" unicode="&#x1ef9;" horiz-adv-x="537" 
d="M218 2l-212 526h103l160 -403l160 403h102l-291 -720h-100zM73 621c36 97 63 130 128 130c30 0 56 -10 94 -36c31 -21 43 -29 63 -29c25 0 35 17 51 51h77c-30 -69 -57 -123 -127 -123c-31 0 -58 9 -90 31c-31 22 -49 34 -67 34c-28 0 -37 -21 -53 -58h-76z" />
    <glyph glyph-name="uni0232" unicode="&#x232;" horiz-adv-x="628" 
d="M266 287l-277 467h113l213 -362l213 362h111l-277 -467v-287h-96v287zM149 833v73h337v-73h-337z" />
    <glyph glyph-name="uni0233" unicode="&#x233;" horiz-adv-x="537" 
d="M6 528h103l160 -403l160 403h102l-291 -720h-100l78 194zM100 637v73h337v-73h-337z" />
    <glyph glyph-name="Zacute" unicode="&#x179;" horiz-adv-x="653" 
d="M608 0h-563v94l433 567h-418v93h541v-94l-433 -567h440v-93zM349 806h-108l128 144h111z" />
    <glyph glyph-name="zacute" unicode="&#x17a;" horiz-adv-x="516" 
d="M483 0h-448v82l308 357h-294v89h423v-82l-308 -357h319v-89zM283 610h-108l128 144h111z" />
    <glyph glyph-name="Zcaron" unicode="&#x17d;" horiz-adv-x="653" 
d="M45 94l433 567h-418v93h541v-94l-433 -567h440v-93h-563v94zM272 806l-134 144h105l84 -88l84 88h104l-135 -144h-108z" />
    <glyph glyph-name="zcaron" unicode="&#x17e;" horiz-adv-x="516" 
d="M35 82l308 357h-294v89h423v-82l-308 -357h319v-89h-448v82zM207 610l-134 144h105l84 -88l84 88h104l-135 -144h-108z" />
    <glyph glyph-name="Zdotaccent" unicode="&#x17b;" horiz-adv-x="653" 
d="M608 0h-563v94l433 567h-418v93h541v-94l-433 -567h440v-93zM374 809h-97v141h97v-141z" />
    <glyph glyph-name="zdotaccent" unicode="&#x17c;" horiz-adv-x="516" 
d="M483 0h-448v82l308 357h-294v89h423v-82l-308 -357h319v-89zM308 613h-97v141h97v-141z" />
    <glyph glyph-name="acute" unicode="&#xb4;" horiz-adv-x="439" 
d="M217 610h-108l128 144h111z" />
    <glyph glyph-name="grave" unicode="`" horiz-adv-x="439" 
d="M324 610h-107l-129 144h112z" />
    <glyph glyph-name="circumflex" unicode="&#x2c6;" horiz-adv-x="439" 
d="M31 610l134 144h108l135 -144h-105l-84 88l-84 -88h-104z" />
    <glyph glyph-name="caron" unicode="&#x2c7;" horiz-adv-x="439" 
d="M165 610l-134 144h105l84 -88l84 88h104l-135 -144h-108z" />
    <glyph glyph-name="dieresis" unicode="&#xa8;" horiz-adv-x="439" 
d="M69 754h92v-141h-92v141zM278 754h92v-141h-92v141z" />
    <glyph glyph-name="tilde" unicode="&#x2dc;" horiz-adv-x="439" 
d="M89 621h-76c36 97 63 130 128 130c30 0 56 -10 94 -36c31 -21 43 -29 63 -29c25 0 35 17 51 51h77c-30 -69 -57 -123 -127 -123c-31 0 -58 9 -90 31c-31 22 -49 34 -67 34c-28 0 -37 -21 -53 -58z" />
    <glyph glyph-name="ring" unicode="&#x2da;" horiz-adv-x="439" 
d="M221 582c-73 0 -128 42 -128 118c0 77 53 120 128 120c76 0 128 -42 128 -120c0 -76 -55 -118 -128 -118zM159 700c0 -37 26 -57 62 -57s63 19 63 57c0 39 -25 59 -63 59s-62 -21 -62 -59z" />
    <glyph glyph-name="macron" unicode="&#xaf;" horiz-adv-x="439" 
d="M388 637h-337v73h337v-73z" />
    <glyph glyph-name="breve" unicode="&#x2d8;" horiz-adv-x="439" 
d="M51 754h84c5 -18 12 -40 24 -54c14 -19 32 -26 60 -26c53 0 73 34 85 80h84c-10 -39 -26 -82 -54 -107c-27 -27 -63 -41 -115 -41c-102 0 -145 55 -168 148z" />
    <glyph glyph-name="ogonek" unicode="&#x2db;" horiz-adv-x="439" 
d="M243 -120c0 24 9 46 30 69c19 21 46 38 64 51h102c-21 -16 -53 -39 -75 -61c-18 -18 -25 -32 -25 -47c0 -16 10 -21 28 -21c21 0 50 11 72 20v-74c-24 -9 -59 -19 -92 -19c-58 0 -104 16 -104 82z" />
    <glyph glyph-name="hungarumlaut" unicode="&#x2dd;" horiz-adv-x="439" 
d="M217 610l95 144h96l-99 -144h-92zM142 610h-92l95 144h96z" />
    <glyph glyph-name="cedilla" unicode="&#xb8;" horiz-adv-x="439" 
d="M226 -197h-102l86 137h101z" />
    <glyph glyph-name="uni0326" unicode="&#x326;" horiz-adv-x="439" 
d="M232 -280h-69c13 57 16 97 16 161v63h85v-59c0 -67 -12 -117 -32 -165z" />
    <glyph glyph-name="dotaccent" unicode="&#x2d9;" horiz-adv-x="439" 
d="M268 613h-97v141h97v-141z" />
    <glyph glyph-name="asciicircum" unicode="^" horiz-adv-x="819" 
d="M52 335l314 419h89l312 -419h-120l-237 320l-238 -320h-120z" />
    <glyph glyph-name="asciitilde" unicode="~" horiz-adv-x="819" 
d="M134 198h-97c12 86 34 158 64 199s77 62 137 62c62 0 114 -27 169 -75l59 -52c34 -30 70 -57 115 -57c36 0 56 16 73 52c14 29 23 66 31 114h97c-16 -122 -50 -261 -200 -261c-69 0 -119 26 -179 79l-54 48c-34 30 -65 57 -109 57c-82 0 -97 -104 -106 -166z" />
    <glyph glyph-name="lozenge" unicode="&#x25ca;" horiz-adv-x="700" 
d="M350 -17l-296 395l296 397l296 -397zM350 137l178 241l-178 243l-178 -243z" />
    <glyph glyph-name="uni2206" unicode="&#x2206;" horiz-adv-x="768" 
d="M751 0h-734l312 754h108zM607 93l-224 542l-223 -542h447z" />
    <glyph glyph-name="uni2126" unicode="&#x2126;" horiz-adv-x="793" 
d="M348 0h-302v89h162c-108 79 -131 206 -131 333c0 61 12 155 49 219c46 80 125 130 271 130c127 0 200 -36 253 -109c49 -68 66 -170 66 -240c0 -136 -27 -242 -131 -333h162v-89h-302v88c136 85 173 174 173 334c0 49 -9 125 -43 177c-38 59 -99 79 -178 79
c-80 0 -149 -18 -187 -86c-27 -49 -35 -124 -35 -170c0 -164 32 -249 173 -334v-88z" />
    <glyph glyph-name="summation" unicode="&#x2211;" horiz-adv-x="615" 
d="M570 -130h-520v93l272 353l-265 347v91h503v-93h-380l265 -345l-272 -353h397v-93z" />
    <glyph glyph-name="product" unicode="&#x220f;" horiz-adv-x="705" 
d="M90 754h525v-884h-96v791h-333v-791h-96v884z" />
    <glyph glyph-name="uni00B5" unicode="&#xb5;" horiz-adv-x="579" 
d="M76 528h94v-202c0 -46 0 -98 5 -145c5 -50 33 -109 108 -109c51 0 91 11 126 21v435h94v-503c-69 -20 -146 -42 -220 -42c-48 0 -92 13 -113 46v-221h-94v720z" />
    <glyph glyph-name="pi" unicode="&#x3c0;" horiz-adv-x="628" 
d="M13 528h597v-89h-104v-232c0 -38 0 -62 3 -83c3 -20 9 -31 30 -38c19 -6 36 -8 54 -10v-83c-36 2 -68 4 -104 14c-37 10 -57 30 -66 58c-10 31 -11 66 -11 142v232h-201v-439h-94v439h-104v89z" />
    <glyph glyph-name="partialdiff" unicode="&#x2202;" horiz-adv-x="596" 
d="M56 244c0 149 52 254 219 254c48 0 99 -16 138 -29c-33 149 -102 195 -247 222v84c85 -14 178 -37 251 -108c98 -95 117 -283 117 -418c0 -159 -65 -266 -239 -266c-176 0 -239 97 -239 261zM151 245c0 -53 7 -89 25 -121c24 -43 63 -54 119 -54c118 0 144 76 144 180
c0 53 -3 91 -10 128c-28 11 -94 33 -144 33c-113 0 -134 -68 -134 -166z" />
    <glyph glyph-name="florin" unicode="&#x192;" horiz-adv-x="380" 
d="M-13 -211v95c21 8 72 31 93 46c18 13 27 28 33 48c7 22 7 60 7 91v451c0 30 0 70 9 107c24 102 140 128 229 147v-92c-41 -9 -92 -21 -119 -48c-17 -17 -20 -35 -22 -52c-3 -24 -3 -43 -3 -61h146v-89h-146v-363c0 -51 -1 -102 -9 -128c-10 -33 -31 -60 -68 -84
c-40 -26 -109 -54 -150 -68z" />
    <glyph glyph-name="arrowleft" unicode="&#x2190;" horiz-adv-x="873" 
d="M324 139l-287 238l287 238h139l-234 -193h579v-90h-579l234 -193h-139z" />
    <glyph glyph-name="arrowup" unicode="&#x2191;" horiz-adv-x="600" 
d="M345 0h-90v579l-193 -234v139l238 287l238 -287v-139l-193 234v-579z" />
    <glyph glyph-name="arrowright" unicode="&#x2192;" horiz-adv-x="873" 
d="M548 139h-139l234 193h-579v90h579l-234 193h139l287 -238z" />
    <glyph glyph-name="arrowdown" unicode="&#x2193;" horiz-adv-x="600" 
d="M300 -17l-238 287v139l193 -234v579h90v-579l193 234v-139z" />
    <glyph glyph-name="uni2196" unicode="&#x2196;" horiz-adv-x="673" 
d="M600 73l-434 434l25 -252h-89l-38 418l419 -38v-89l-253 25l371 -370z" />
    <glyph glyph-name="uni2197" unicode="&#x2197;" horiz-adv-x="673" 
d="M72 73l-1 128l371 370l-253 -25v89l419 38l-38 -418h-89l25 252z" />
    <glyph glyph-name="uni2198" unicode="&#x2198;" horiz-adv-x="673" 
d="M593 106l-419 38v89l253 -25l-371 370l1 128l434 -434l-25 252h89z" />
    <glyph glyph-name="uni2199" unicode="&#x2199;" horiz-adv-x="673" 
d="M498 144l-419 -38l38 418h89l-25 -252l434 434l1 -128l-371 -370l253 25v-89z" />
    <glyph glyph-name="arrowboth" unicode="&#x2194;" horiz-adv-x="1082" 
d="M324 139l-287 238l287 238h139l-234 -193h624l-234 193h139l287 -238l-287 -238h-139l234 193h-624l234 -193h-139z" />
    <glyph glyph-name="arrowupdn" unicode="&#x2195;" horiz-adv-x="600" 
d="M62 594l238 287l238 -287v-139l-193 234v-624l193 234v-139l-238 -287l-238 287v139l193 -234v624l-193 -234v139z" />
    <glyph glyph-name="space.tf" horiz-adv-x="325" 
 />
    <glyph glyph-name="period.tf" horiz-adv-x="325" 
d="M220 0h-115v152h115v-152z" />
    <glyph glyph-name="comma.tf" horiz-adv-x="325" 
d="M166 -179h-76c13 60 24 112 24 211v120h106v-127c0 -83 -31 -153 -54 -204z" />
    <glyph glyph-name="colon.tf" horiz-adv-x="325" 
d="M220 0h-115v152h115v-152zM220 376h-115v152h115v-152z" />
    <glyph glyph-name="estimated" unicode="&#x212e;" horiz-adv-x="770" 
d="M142 70c-61 58 -92 132 -92 221s32 162 94 221c61 58 133 85 241 85c200 0 327 -112 335 -315h-533c-7 0 -14 0 -14 -16v-149c0 -31 85 -108 212 -108c84 0 163 42 212 97h63c-78 -89 -158 -121 -275 -121c-107 0 -181 26 -243 85zM173 309c0 -5 4 -8 15 -8h393
c13 0 15 4 15 15v146c0 49 -115 114 -211 114c-120 0 -212 -80 -212 -107v-160z" />
    <glyph glyph-name="dollar.tf" horiz-adv-x="650" 
d="M69 556c0 61 17 116 62 156c36 32 84 44 150 47v98h89v-100c61 -7 141 -25 187 -36v-96c-73 18 -174 42 -239 42c-81 0 -151 -10 -151 -107c0 -31 4 -55 25 -72s50 -27 90 -41l132 -45c103 -35 166 -79 166 -197c0 -130 -88 -198 -210 -208v-110h-89v109
c-68 4 -148 19 -205 30v96c76 -17 165 -34 244 -34c80 0 162 16 162 114c0 29 -5 52 -22 70c-18 19 -47 29 -91 44l-141 48c-101 34 -159 77 -159 192z" />
    <glyph glyph-name="Euro.tf" horiz-adv-x="650" 
d="M77 375c0 227 33 395 302 395c82 0 160 -16 214 -27v-92c-58 12 -131 27 -208 27c-143 0 -197 -47 -205 -186h306v-83h-311c-1 -12 -1 -20 -1 -28s0 -16 1 -30h311v-83h-307c7 -139 51 -192 202 -192c75 0 143 8 212 18v-93c-63 -8 -136 -17 -220 -17
c-154 0 -221 49 -260 133c-24 52 -36 148 -36 258z" />
    <glyph glyph-name="sterling.tf" horiz-adv-x="650" 
d="M588 0h-483v570c0 50 6 106 41 146c37 43 84 55 169 55c66 0 164 -17 234 -32v-94c-66 14 -166 34 -227 34c-90 0 -121 -23 -121 -113v-92h249v-87h-249v-295h387v-92z" />
    <glyph glyph-name="yen.tf" horiz-adv-x="650" 
d="M15 754h112l200 -362l200 362h108l-158 -280h127v-87h-173l-57 -100v-287h-96v287l-58 100h-173v87h126z" />
    <glyph glyph-name="uni20BA.tf" horiz-adv-x="650" 
d="M107 -13v767h96v-193l273 84v-87l-273 -84v-59l273 84v-87l-273 -84v-253c179 0 264 42 274 232h98c-3 -73 -19 -160 -67 -220c-53 -67 -125 -104 -306 -104c-44 0 -78 2 -95 4z" />
    <glyph glyph-name="uni20BD.tf" horiz-adv-x="650" 
d="M101 0v754h262c148 0 238 -70 238 -224c0 -69 -14 -125 -55 -172c-38 -44 -92 -59 -160 -64c-45 -3 -110 -3 -189 -3v-59h289v-83h-289v-149h-96zM355 662h-158v-279c70 0 128 0 179 4c96 8 127 49 127 143c0 43 -11 78 -35 102s-58 30 -113 30z" />
    <glyph glyph-name="parenleft.case" horiz-adv-x="326" 
d="M122 -21c-38 46 -43 106 -43 170v456c0 159 60 228 216 265v-88c-111 -40 -121 -89 -121 -200v-410c0 -113 9 -160 121 -200v-88c-64 15 -129 41 -173 95z" />
    <glyph glyph-name="parenright.case" horiz-adv-x="326" 
d="M31 782v88c64 -15 129 -41 173 -95c38 -46 43 -106 43 -170v-456c0 -159 -60 -228 -216 -265v88c112 40 121 87 121 200v410c0 112 -10 160 -121 200z" />
    <glyph glyph-name="bracketleft.case" horiz-adv-x="334" 
d="M299 -96h-216v946h216v-89h-121v-768h121v-89z" />
    <glyph glyph-name="bracketright.case" horiz-adv-x="334" 
d="M155 761h-121v89h216v-946h-216v89h121v768z" />
    <glyph glyph-name="braceleft.case" horiz-adv-x="373" 
d="M29 429c20 4 35 7 53 14c29 11 43 29 43 63v209c0 93 41 135 131 135h84v-88h-52c-61 0 -68 -25 -68 -79v-199c0 -66 -32 -96 -92 -107c62 -14 92 -41 92 -109v-197c0 -54 7 -79 68 -79h52v-88h-84c-91 0 -131 45 -131 135v207c0 37 -13 55 -49 66c-16 5 -32 10 -47 13
v104z" />
    <glyph glyph-name="braceright.case" horiz-adv-x="373" 
d="M33 -8h52c61 0 68 25 68 79v197c0 68 30 95 92 109c-61 11 -92 41 -92 107v199c0 54 -7 79 -68 79h-52v88h84c90 0 131 -42 131 -135v-209c0 -34 14 -52 43 -63c18 -7 33 -10 53 -14v-104c-48 -10 -96 -20 -96 -79v-207c0 -90 -40 -135 -131 -135h-84v88z" />
    <glyph glyph-name="hyphen.case" horiz-adv-x="429" 
d="M366 330h-304v95h304v-95z" />
    <glyph glyph-name="endash.case" horiz-adv-x="600" 
d="M550 331h-500v93h500v-93z" />
    <glyph glyph-name="emdash.case" horiz-adv-x="1000" 
d="M1000 331h-1000v93h1000v-93z" />
    <glyph glyph-name="guillemotleft.case" horiz-adv-x="580" 
d="M451 170l-172 206l172 206h115l-172 -206l172 -206h-115zM223 170l-172 206l172 206h115l-172 -206l172 -206h-115z" />
    <glyph glyph-name="guillemotright.case" horiz-adv-x="580" 
d="M357 170h-115l172 206l-172 206h115l172 -206zM14 170l172 206l-172 206h115l172 -206l-172 -206h-115z" />
    <glyph glyph-name="guilsinglleft.case" horiz-adv-x="352" 
d="M338 170h-115l-172 206l172 206h115l-172 -206z" />
    <glyph glyph-name="guilsinglright.case" horiz-adv-x="352" 
d="M129 170h-115l172 206l-172 206h115l172 -206z" />
    <glyph glyph-name="questiondown.case" horiz-adv-x="528" 
d="M271 -17c-118 0 -214 50 -214 181c0 63 18 108 58 159c26 33 51 63 90 106c38 42 50 67 57 85h106c-14 -40 -29 -72 -71 -119c-35 -39 -68 -76 -94 -109c-28 -36 -49 -71 -49 -117c0 -78 62 -94 128 -94c52 0 120 16 178 30v-94c-53 -13 -120 -28 -189 -28zM260 754h111
v-152h-111v152z" />
    <glyph glyph-name="exclamdown.case" horiz-adv-x="291" 
d="M87 0v144c0 144 1 340 2 370h94c1 -30 2 -226 2 -370v-144h-98zM81 602v152h110v-152h-110z" />
    <glyph glyph-name="gravecomb" unicode="&#x300;" horiz-adv-x="439" 
d="M324 610h-107l-129 144h112z" />
    <glyph glyph-name="acutecomb" unicode="&#x301;" horiz-adv-x="439" 
d="M217 610h-108l128 144h111z" />
    <glyph glyph-name="uni0302" unicode="&#x302;" horiz-adv-x="439" 
d="M31 610l134 144h108l135 -144h-105l-84 88l-84 -88h-104z" />
    <glyph glyph-name="tildecomb" unicode="&#x303;" horiz-adv-x="439" 
d="M89 621h-76c36 97 63 130 128 130c30 0 56 -10 94 -36c31 -21 43 -29 63 -29c25 0 35 17 51 51h77c-30 -69 -57 -123 -127 -123c-31 0 -58 9 -90 31c-31 22 -49 34 -67 34c-28 0 -37 -21 -53 -58z" />
    <glyph glyph-name="uni0306" unicode="&#x306;" horiz-adv-x="439" 
d="M51 754h84c5 -18 12 -40 24 -54c14 -19 32 -26 60 -26c53 0 73 34 85 80h84c-10 -39 -26 -82 -54 -107c-27 -27 -63 -41 -115 -41c-102 0 -145 55 -168 148z" />
    <glyph glyph-name="hookabovecomb" unicode="&#x309;" horiz-adv-x="333" 
d="M68 725v68l9 4c20 6 40 10 59 10c58 -1 106 -30 106 -83c0 -31 -10 -45 -42 -71c-5 -4 -10 -6 -15 -11c-3 -3 -15 -9 -17 -15v-5l-1 -16h-67c-5 25 -8 28 4 51s43 31 61 49c5 5 6 11 6 16c0 7 -17 18 -44 18c-11 0 -23 -2 -37 -7z" />
    <glyph glyph-name="uni031B" unicode="&#x31b;" horiz-adv-x="333" 
d="M88 644h26c21 0 43 6 50 22v108h80v-110c0 -42 -43 -100 -130 -100h-26v80z" />
    <glyph glyph-name="dotbelowcomb" unicode="&#x323;" horiz-adv-x="439" 
d="M268 -203h-97v141h97v-141z" />
    <glyph glyph-name="Ohorn" unicode="&#x1a0;" horiz-adv-x="833" 
d="M132 96c-40 64 -57 171 -57 280c0 228 58 395 320 395c128 0 203 -33 253 -109l12 -18h17c21 0 44 6 50 22v108h80v-110c0 -40 -38 -93 -115 -99c16 -59 22 -126 22 -189c0 -226 -64 -393 -319 -393c-146 0 -217 39 -263 113zM209 592c-27 -49 -36 -136 -36 -216
c0 -78 9 -173 38 -224c37 -65 105 -76 184 -76c195 0 221 132 221 300c0 84 -10 170 -43 223c-37 60 -98 79 -178 79s-148 -18 -186 -86z" />
    <glyph glyph-name="Uhorn" unicode="&#x1af;" horiz-adv-x="827" 
d="M88 287v467h96v-467c0 -153 26 -211 186 -211s185 62 185 211v467h96v-108h22c21 0 43 6 49 21l1 109h80v-110c0 -43 -44 -100 -130 -100h-22v-279c0 -114 -10 -190 -71 -243c-51 -45 -116 -61 -210 -61c-220 0 -282 91 -282 304z" />
    <glyph glyph-name="ohorn" unicode="&#x1a1;" horiz-adv-x="646" 
d="M295 -17c-185 0 -239 110 -239 278c0 165 51 284 239 284c82 0 162 -27 204 -101c20 0 42 7 48 22v108h80v-110c0 -37 -34 -87 -102 -98c7 -33 9 -67 9 -102c0 -164 -55 -281 -239 -281zM295 456c-125 0 -144 -89 -144 -194c0 -54 8 -103 26 -135c24 -43 63 -55 118 -55
c124 0 144 90 144 195c0 104 -22 189 -144 189z" />
    <glyph glyph-name="uhorn" unicode="&#x1b0;" horiz-adv-x="671" 
d="M75 528h94v-319c0 -84 2 -137 100 -137c59 0 108 12 144 22v434h94v-84h18c21 0 43 6 50 22v108h80v-110c0 -42 -43 -100 -130 -100h-18v-339c-72 -20 -152 -42 -246 -42c-155 0 -186 85 -186 224v321z" />
    <glyph glyph-name="uni1EA2" unicode="&#x1ea2;" horiz-adv-x="710" 
d="M112 0h-101l280 754h126l282 -754h-105l-65 175h-352zM353 656l-144 -389h287zM287 917v68l9 4c20 6 40 10 59 10c58 -1 106 -30 106 -83c0 -31 -6 -50 -42 -72c-7 -4 -30 -19 -32 -25v-5l-1 -16h-67c-5 24 -8 28 4 51s41 33 61 49c5 4 6 11 6 16c0 7 -18 18 -44 18
c-11 -1 -24 -2 -37 -7z" />
    <glyph glyph-name="uni1EA4" unicode="&#x1ea4;" horiz-adv-x="710" 
d="M11 0l280 754h126l282 -754h-105l-65 175h-352l-65 -175h-101zM353 656l-144 -389h287zM166 792l134 144h108l135 -144h-105l-84 88l-84 -88h-104zM466 933l128 144h111l-131 -144h-108z" />
    <glyph glyph-name="uni1EA6" unicode="&#x1ea6;" horiz-adv-x="710" 
d="M11 0l280 754h126l282 -754h-105l-65 175h-352l-65 -175h-101zM353 656l-144 -389h287zM166 792l134 144h108l135 -144h-105l-84 88l-84 -88h-104zM497 940l-129 144h112l124 -144h-107z" />
    <glyph glyph-name="uni1EA8" unicode="&#x1ea8;" horiz-adv-x="710" 
d="M112 0h-101l280 754h126l282 -754h-105l-65 175h-352zM209 267h287l-143 389zM270 792h-104l134 144h108l135 -144h-105l-84 88zM476 1032v68l9 4c20 6 40 10 59 10c58 -1 106 -30 106 -83c0 -40 -26 -61 -57 -82c-3 -2 -15 -9 -17 -14v-6l-1 -16h-67c-5 25 -8 29 4 52
c12 22 41 33 61 49c5 4 6 10 6 15c0 7 -18 18 -44 18c-11 -1 -24 -2 -37 -7z" />
    <glyph glyph-name="uni1EAA" unicode="&#x1eaa;" horiz-adv-x="710" 
d="M11 0l280 754h126l282 -754h-105l-65 175h-352l-65 -175h-101zM353 656l-144 -389h287zM225 980h-76c36 97 63 130 128 130c30 0 55 -10 94 -36c31 -21 43 -29 63 -29c25 0 35 17 51 51h77c-30 -69 -57 -123 -127 -123c-31 0 -59 10 -90 31s-49 34 -67 34
c-28 0 -37 -21 -53 -58zM270 792h-104l134 144h108l135 -144h-105l-84 88z" />
    <glyph glyph-name="uni1EAC" unicode="&#x1eac;" horiz-adv-x="710" 
d="M11 0l280 754h126l282 -754h-105l-65 175h-352l-65 -175h-101zM353 656l-144 -389h287zM271 793h-104l134 144h108l135 -144h-105l-84 88zM307 -52h97v-141h-97v141z" />
    <glyph glyph-name="uni1EAE" unicode="&#x1eae;" horiz-adv-x="710" 
d="M112 0h-101l280 754h126l282 -754h-105l-65 175h-352zM353 656l-144 -389h287zM354 792c-102 0 -145 55 -168 148h84c5 -18 12 -40 24 -54c14 -19 32 -26 60 -26c53 0 73 34 85 80h84c-10 -39 -26 -82 -54 -107c-27 -27 -63 -41 -115 -41zM289 960l128 144h111l-131 -144
h-108z" />
    <glyph glyph-name="uni1EB0" unicode="&#x1eb0;" horiz-adv-x="710" 
d="M11 0l280 754h126l282 -754h-105l-65 175h-352l-65 -175h-101zM209 267h287l-143 389zM186 940h84c5 -18 12 -40 24 -54c14 -19 32 -26 60 -26c53 0 73 34 85 80h84c-10 -39 -26 -82 -54 -107c-27 -27 -63 -41 -115 -41c-102 0 -145 55 -168 148zM311 955l-129 144h112
l124 -144h-107z" />
    <glyph glyph-name="uni1EB2" unicode="&#x1eb2;" horiz-adv-x="710" 
d="M11 0l280 754h126l282 -754h-105l-65 175h-352l-65 -175h-101zM209 267h287l-143 389zM186 940h84c5 -18 12 -40 24 -54c14 -19 32 -26 60 -26c53 0 73 34 85 80h84c-10 -39 -26 -82 -54 -107c-27 -27 -63 -41 -115 -41c-102 0 -145 55 -168 148zM287 1062v68l9 4
c20 6 40 10 59 10c58 -1 106 -30 106 -83c0 -31 -10 -45 -42 -71c-5 -4 -10 -7 -15 -11c-4 -3 -15 -9 -17 -14v-6l-1 -16h-67c-5 25 -9 29 4 52c12 22 41 33 61 49c5 4 6 10 6 15c0 7 -18 18 -44 18c-11 -1 -24 -2 -37 -7z" />
    <glyph glyph-name="uni1EB4" unicode="&#x1eb4;" horiz-adv-x="710" 
d="M11 0l280 754h126l282 -754h-105l-65 175h-352l-65 -175h-101zM209 267h287l-143 389zM152 990c36 97 63 130 128 130c30 0 55 -10 94 -36c31 -21 43 -29 63 -29c25 0 35 17 51 51h77c-30 -69 -58 -123 -127 -123c-31 0 -59 10 -90 31s-50 34 -67 34
c-28 0 -37 -21 -53 -58h-76zM354 792c-102 0 -145 55 -168 148h84c5 -18 12 -40 24 -54c14 -19 32 -26 60 -26c53 0 73 34 85 80h84c-10 -39 -26 -82 -54 -107c-27 -27 -63 -41 -115 -41z" />
    <glyph glyph-name="uni1EB6" unicode="&#x1eb6;" horiz-adv-x="710" 
d="M112 0h-101l280 754h126l282 -754h-105l-65 175h-352zM353 656l-144 -389h287zM187 943h84c5 -18 12 -40 24 -54c14 -19 32 -26 60 -26c53 0 73 34 85 80h84c-10 -39 -26 -82 -54 -107c-27 -27 -63 -41 -115 -41c-102 0 -145 55 -168 148zM307 -193v141h97v-141h-97z" />
    <glyph glyph-name="uni1EBA" unicode="&#x1eba;" horiz-adv-x="654" 
d="M90 754h510v-93h-414v-230h392v-93h-392v-245h430v-93h-526v754zM274 996l9 5c19 6 39 9 58 9c58 0 107 -29 107 -83c0 -43 -25 -57 -57 -81c-4 -3 -15 -10 -17 -15v-6l-1 -16h-67c-5 25 -8 29 4 52s41 33 61 49c5 4 6 11 6 15c0 8 -18 19 -44 19c-11 1 -24 -2 -37 -7
l-22 -9v68z" />
    <glyph glyph-name="uni1EBE" unicode="&#x1ebe;" horiz-adv-x="654" 
d="M90 754h510v-93h-414v-230h392v-93h-392v-245h430v-93h-526v754zM258 797h-104l134 144h108l135 -144h-105l-84 88zM465 937l128 144h111l-131 -144h-108z" />
    <glyph glyph-name="uni1EC0" unicode="&#x1ec0;" horiz-adv-x="654" 
d="M90 754h510v-93h-414v-230h392v-93h-392v-245h430v-93h-526v754zM258 797h-104l134 144h108l135 -144h-105l-84 88zM346 1090h112l124 -144h-107z" />
    <glyph glyph-name="uni1EC2" unicode="&#x1ec2;" horiz-adv-x="654" 
d="M90 754h510v-93h-414v-230h392v-93h-392v-245h430v-93h-526v754zM258 797h-104l134 144h108l135 -144h-105l-84 88zM449 1030v68l9 4c20 6 40 10 59 10c58 -1 107 -30 107 -83c0 -31 -7 -48 -42 -71c-6 -4 -31 -21 -33 -25c0 -1 1 -3 1 -6l-2 -16h-67c-4 25 -8 29 4 52
c12 22 40 35 61 49c6 4 7 10 7 15c0 7 -18 18 -44 18c-12 0 -24 -2 -38 -7z" />
    <glyph glyph-name="uni1EC4" unicode="&#x1ec4;" horiz-adv-x="654" 
d="M90 0v754h510v-93h-414v-230h392v-93h-392v-245h430v-93h-526zM134 989c35 96 62 130 125 130c39 0 66 -15 97 -36s43 -29 63 -29c25 0 35 17 51 51h77c-30 -69 -57 -123 -127 -123c-31 0 -58 9 -90 31c-31 22 -49 34 -67 34c-28 0 -37 -21 -53 -58h-76zM154 797l134 144
h108l135 -144h-105l-84 88l-84 -88h-104z" />
    <glyph glyph-name="uni1EC6" unicode="&#x1ec6;" horiz-adv-x="654" 
d="M90 754h510v-93h-414v-230h392v-93h-392v-245h430v-93h-526v754zM140 800l134 144h108l135 -144h-105l-84 88l-84 -88h-104zM299 -193v141h97v-141h-97z" />
    <glyph glyph-name="uni1EC8" unicode="&#x1ec8;" horiz-adv-x="276" 
d="M90 754h96v-754h-96v754zM67 929v68l9 5c19 6 39 9 58 9c58 0 107 -29 107 -83c0 -31 -10 -45 -42 -71c-5 -4 -11 -6 -15 -10c-3 -3 -15 -10 -17 -15v-6l-1 -16h-67c-5 25 -8 29 4 52s41 33 61 49c5 4 6 10 6 15c0 8 -18 19 -44 19c-11 1 -24 -2 -37 -7z" />
    <glyph glyph-name="uni1ECE" unicode="&#x1ece;" horiz-adv-x="789" 
d="M132 96c-40 64 -57 171 -57 280c0 228 58 395 320 395c128 0 200 -35 253 -109c49 -68 66 -182 66 -286c0 -226 -64 -393 -319 -393c-146 0 -217 39 -263 113zM173 376c0 -78 9 -173 38 -224c37 -65 105 -76 184 -76c195 0 221 132 221 300c0 84 -10 170 -43 223
c-37 60 -98 79 -178 79s-148 -18 -186 -86c-27 -49 -36 -136 -36 -216zM332 944l-22 -8v68l10 4c19 6 39 10 58 10c58 -1 107 -30 107 -83c0 -31 -10 -45 -42 -71c-5 -4 -10 -8 -15 -11c-4 -3 -15 -9 -18 -15c0 0 1 -2 1 -5l-1 -16h-68c-4 25 -8 29 4 51c13 23 42 33 61 49
c6 5 7 11 7 16c0 7 -18 18 -44 18c-12 0 -24 -2 -38 -7z" />
    <glyph glyph-name="uni1ED0" unicode="&#x1ed0;" horiz-adv-x="789" 
d="M75 376c0 228 58 395 320 395c128 0 200 -35 253 -109c49 -68 66 -182 66 -286c0 -226 -64 -393 -319 -393c-146 0 -217 39 -263 113c-40 64 -57 171 -57 280zM209 592c-27 -50 -36 -136 -36 -216c0 -78 9 -173 38 -224c37 -65 105 -76 184 -76c195 0 221 132 221 300
c0 84 -10 170 -43 223c-37 60 -98 79 -178 79s-149 -18 -186 -86zM207 804l134 144h108l135 -144h-105l-84 88l-84 -88h-104zM511 947l128 144h111l-131 -144h-108z" />
    <glyph glyph-name="uni1ED2" unicode="&#x1ed2;" horiz-adv-x="789" 
d="M75 376c0 228 58 395 320 395c128 0 200 -35 253 -109c49 -68 66 -182 66 -286c0 -226 -64 -393 -319 -393c-146 0 -217 39 -263 113c-40 64 -57 171 -57 280zM209 592c-27 -50 -36 -136 -36 -216c0 -78 9 -173 38 -224c37 -65 105 -76 184 -76c195 0 221 132 221 300
c0 84 -10 170 -43 223c-37 60 -98 79 -178 79s-149 -18 -186 -86zM207 804l134 144h108l135 -144h-105l-84 88l-84 -88h-104zM410 1096h112l124 -144h-107z" />
    <glyph glyph-name="uni1ED4" unicode="&#x1ed4;" horiz-adv-x="789" 
d="M75 376c0 228 58 395 320 395c128 0 200 -35 253 -109c49 -68 66 -182 66 -286c0 -226 -64 -393 -319 -393c-146 0 -217 39 -263 113c-40 64 -57 171 -57 280zM209 592c-27 -50 -36 -136 -36 -216c0 -78 9 -173 38 -224c37 -65 105 -76 184 -76c195 0 221 132 221 300
c0 84 -10 170 -43 223c-37 60 -98 79 -178 79s-149 -18 -186 -86zM311 804h-104l134 144h108l135 -144h-105l-84 88zM521 1038v68l9 4c20 6 40 10 59 10c58 -1 106 -30 106 -83c0 -31 -6 -51 -42 -72c-7 -4 -30 -19 -32 -25v-5l-1 -16h-67c-5 24 -8 28 4 51s41 33 61 49
c5 4 6 11 6 16c0 7 -18 18 -44 18c-11 -1 -24 -2 -37 -7z" />
    <glyph glyph-name="uni1ED6" unicode="&#x1ed6;" horiz-adv-x="789" 
d="M75 376c0 228 58 395 320 395c128 0 200 -35 253 -109c49 -68 66 -182 66 -286c0 -226 -64 -393 -319 -393c-146 0 -217 39 -263 113c-40 64 -57 171 -57 280zM173 376c0 -78 9 -173 38 -224c37 -65 105 -76 184 -76c195 0 221 132 221 300c0 84 -10 170 -43 223
c-37 60 -98 79 -178 79s-149 -18 -186 -86c-27 -50 -36 -136 -36 -216zM190 990c36 97 63 130 128 130c30 0 56 -10 94 -36c29 -20 42 -29 60 -29h3c25 0 35 17 51 51h77c-30 -69 -57 -123 -127 -123c-31 0 -57 9 -90 31c-31 21 -49 34 -67 34c-28 0 -37 -21 -53 -58h-76z
M311 804h-104l134 144h108l135 -144h-105l-84 88z" />
    <glyph glyph-name="uni1ED8" unicode="&#x1ed8;" horiz-adv-x="789" 
d="M132 96c-40 64 -57 171 -57 280c0 228 58 395 320 395c128 0 200 -35 253 -109c49 -68 66 -182 66 -286c0 -226 -64 -393 -319 -393c-146 0 -217 39 -263 113zM209 592c-27 -50 -36 -136 -36 -216c0 -78 9 -173 38 -224c37 -65 105 -76 184 -76c195 0 221 132 221 300
c0 84 -10 170 -43 223c-37 60 -98 79 -178 79s-149 -18 -186 -86zM315 804h-104l134 144h108l135 -144h-105l-84 88zM342 -189v141h97v-141h-97z" />
    <glyph glyph-name="uni1EDA" unicode="&#x1eda;" horiz-adv-x="833" 
d="M132 96c-40 64 -57 171 -57 280c0 228 58 395 320 395c128 0 203 -33 253 -109l12 -18h17c21 0 44 6 50 22v108h80v-110c0 -40 -38 -93 -115 -99c16 -59 22 -126 22 -189c0 -226 -64 -393 -319 -393c-146 0 -217 39 -263 113zM209 592c-27 -49 -36 -136 -36 -216
c0 -78 9 -173 38 -224c37 -65 105 -76 184 -76c195 0 221 132 221 300c0 84 -10 170 -43 223c-37 60 -98 79 -178 79s-148 -18 -186 -86zM333 836l128 144h111l-131 -144h-108z" />
    <glyph glyph-name="uni1EDC" unicode="&#x1edc;" horiz-adv-x="833" 
d="M132 96c-40 64 -57 171 -57 280c0 228 58 395 320 395c128 0 203 -33 253 -109l12 -18h17c21 0 44 6 50 22v108h80v-110c0 -40 -38 -93 -115 -99c16 -59 22 -126 22 -189c0 -226 -64 -393 -319 -393c-146 0 -217 39 -263 113zM209 592c-27 -49 -36 -136 -36 -216
c0 -78 9 -173 38 -224c37 -65 105 -76 184 -76c195 0 221 132 221 300c0 84 -10 170 -43 223c-37 60 -98 79 -178 79s-148 -18 -186 -86zM268 980h112l124 -144h-107z" />
    <glyph glyph-name="uni1EDE" unicode="&#x1ede;" horiz-adv-x="833" 
d="M75 376c0 228 58 395 320 395c128 0 203 -33 253 -109l12 -18h17c21 0 44 6 50 22v108h80v-110c0 -40 -38 -93 -115 -99c16 -59 22 -126 22 -189c0 -226 -64 -393 -319 -393c-146 0 -217 39 -263 113c-40 64 -57 171 -57 280zM209 592c-27 -49 -36 -136 -36 -216
c0 -78 9 -173 38 -224c37 -65 105 -76 184 -76c195 0 221 132 221 300c0 84 -10 170 -43 223c-37 60 -98 79 -178 79s-148 -18 -186 -86zM327 1013l10 4c19 6 39 10 58 10c58 -1 107 -30 107 -83c0 -31 -10 -45 -42 -71c-5 -4 -10 -8 -15 -11c-4 -3 -15 -9 -18 -15
c0 0 1 -2 1 -5l-1 -16h-68c-4 25 -8 29 4 51c13 23 42 33 61 49c6 5 7 11 7 16c0 7 -18 18 -44 18c-12 0 -24 -2 -38 -7l-22 -8v68z" />
    <glyph glyph-name="uni1EE0" unicode="&#x1ee0;" horiz-adv-x="833" 
d="M132 96c-40 64 -57 171 -57 280c0 228 58 395 320 395c128 0 203 -33 253 -109l12 -18h17c21 0 44 6 50 22v108h80v-110c0 -40 -38 -93 -115 -99c16 -59 22 -126 22 -189c0 -226 -64 -393 -319 -393c-146 0 -217 39 -263 113zM173 376c0 -78 9 -173 38 -224
c37 -65 105 -76 184 -76c195 0 221 132 221 300c0 84 -10 170 -43 223c-37 60 -98 79 -178 79s-148 -18 -186 -86c-27 -49 -36 -136 -36 -216zM210 847c36 97 63 130 128 130c30 0 56 -10 94 -36c31 -21 43 -29 63 -29c25 0 35 17 51 51h77c-30 -69 -57 -123 -127 -123
c-31 0 -58 9 -90 31c-31 22 -49 34 -67 34c-28 0 -37 -21 -53 -58h-76z" />
    <glyph glyph-name="uni1EE2" unicode="&#x1ee2;" horiz-adv-x="833" 
d="M132 96c-40 64 -57 171 -57 280c0 228 58 395 320 395c128 0 203 -33 253 -109l12 -18h17c21 0 44 6 50 22v108h80v-110c0 -40 -38 -93 -115 -99c16 -59 22 -126 22 -189c0 -226 -64 -393 -319 -393c-146 0 -217 39 -263 113zM209 592c-27 -49 -36 -136 -36 -216
c0 -78 9 -173 38 -224c37 -65 105 -76 184 -76c195 0 221 132 221 300c0 84 -10 170 -43 223c-37 60 -98 79 -178 79s-148 -18 -186 -86zM465 -203h-97v141h97v-141z" />
    <glyph glyph-name="uni1EE6" unicode="&#x1ee6;" horiz-adv-x="739" 
d="M88 754h96v-467c0 -153 26 -211 186 -211s185 62 185 211v467h96v-467c0 -114 -10 -190 -71 -243c-51 -45 -116 -61 -210 -61c-220 0 -282 91 -282 304v467zM292 1015l10 4c19 6 39 10 58 10c58 -1 107 -30 107 -83c0 -31 -10 -45 -42 -71c-5 -4 -10 -8 -15 -11
c-4 -3 -15 -9 -18 -15c0 0 1 -2 1 -5l-1 -16h-68c-4 25 -8 29 4 51c13 23 42 33 61 49c6 5 7 11 7 16c0 7 -18 18 -44 18c-12 0 -24 -2 -38 -7l-22 -8v68z" />
    <glyph glyph-name="uni1EE8" unicode="&#x1ee8;" horiz-adv-x="827" 
d="M88 287v467h96v-467c0 -153 26 -211 186 -211s185 62 185 211v467h96v-108h22c21 0 43 6 49 21l1 109h80v-110c0 -43 -44 -100 -130 -100h-22v-279c0 -114 -10 -190 -71 -243c-51 -45 -116 -61 -210 -61c-220 0 -282 91 -282 304zM294 836l128 144h111l-131 -144h-108z
" />
    <glyph glyph-name="uni1EEA" unicode="&#x1eea;" horiz-adv-x="827" 
d="M88 287v467h96v-467c0 -153 26 -211 186 -211s185 62 185 211v467h96v-108h22c21 0 43 6 49 21l1 109h80v-110c0 -43 -44 -100 -130 -100h-22v-279c0 -114 -10 -190 -71 -243c-51 -45 -116 -61 -210 -61c-220 0 -282 91 -282 304zM425 836l-129 144h112l124 -144h-107z
" />
    <glyph glyph-name="uni1EEC" unicode="&#x1eec;" horiz-adv-x="827" 
d="M88 754h96v-467c0 -153 26 -211 186 -211s185 62 185 211v467h96v-108h22c21 0 43 6 49 21l1 109h80v-110c0 -43 -44 -100 -130 -100h-22v-279c0 -114 -10 -190 -71 -243c-51 -45 -116 -61 -210 -61c-220 0 -282 91 -282 304v467zM326 1019l10 4c19 6 39 10 58 10
c58 -1 107 -30 107 -83c0 -31 -10 -45 -42 -71c-5 -4 -10 -8 -15 -11c-4 -3 -15 -9 -18 -15c0 0 1 -2 1 -5l-1 -16h-68c-4 25 -8 29 4 51c13 23 42 33 61 49c6 5 7 11 7 16c0 7 -18 18 -44 18c-12 0 -24 -2 -38 -7l-22 -8v68z" />
    <glyph glyph-name="uni1EEE" unicode="&#x1eee;" horiz-adv-x="827" 
d="M88 754h96v-467c0 -153 26 -211 186 -211s185 62 185 211v467h96v-108h22c21 0 43 6 49 21l1 109h80v-110c0 -43 -44 -100 -130 -100h-22v-279c0 -114 -10 -190 -71 -243c-51 -45 -116 -61 -210 -61c-220 0 -282 91 -282 304v467zM207 847c36 97 63 130 128 130
c30 0 56 -10 94 -36c31 -21 43 -29 63 -29c25 0 35 17 51 51h77c-30 -69 -57 -123 -127 -123c-31 0 -58 9 -90 31c-31 22 -49 34 -67 34c-28 0 -37 -21 -53 -58h-76z" />
    <glyph glyph-name="uni1EF0" unicode="&#x1ef0;" horiz-adv-x="827" 
d="M88 754h96v-467c0 -153 26 -211 186 -211s185 62 185 211v467h96v-108h22c21 0 43 6 49 21l1 109h80v-110c0 -43 -44 -100 -130 -100h-22v-279c0 -114 -10 -190 -71 -243c-51 -45 -116 -61 -210 -61c-220 0 -282 91 -282 304v467zM308 -62h97v-141h-97v141z" />
    <glyph glyph-name="uni1EF4" unicode="&#x1ef4;" horiz-adv-x="628" 
d="M266 287l-277 467h113l213 -362l213 362h111l-277 -467v-287h-96v287zM363 -203h-97v141h97v-141z" />
    <glyph glyph-name="uni1EF6" unicode="&#x1ef6;" horiz-adv-x="628" 
d="M266 287l-277 467h113l213 -362l213 362h111l-277 -467v-287h-96v287zM249 959l-22 -8v68l9 4c20 6 40 10 59 10c58 -1 106 -30 106 -83c0 -31 -10 -45 -42 -71c-5 -4 -10 -6 -15 -11c-3 -3 -15 -9 -17 -15v-5l-1 -16h-67c-5 25 -8 28 4 51s43 31 61 49c5 5 6 11 6 16
c0 7 -18 18 -44 18c-11 -1 -24 -2 -37 -7z" />
    <glyph glyph-name="uni1EA3" unicode="&#x1ea3;" 
d="M234 -17c-156 0 -178 154 -178 278c0 164 45 284 231 284c72 0 142 -25 227 -56v-489h-94v81c-52 -46 -113 -98 -186 -98zM291 456c-124 0 -140 -91 -140 -195c0 -53 5 -108 18 -138c15 -35 38 -50 78 -50c32 0 67 21 99 46c26 20 53 43 74 61v246c-39 14 -84 30 -129 30
zM222 793l9 4c20 6 40 10 59 10c58 -1 106 -30 106 -83c0 -31 -10 -45 -42 -71c-5 -4 -10 -6 -15 -11c-3 -3 -15 -9 -17 -15v-5l-1 -16h-67c-5 25 -8 28 4 51s43 31 61 49c5 5 6 11 6 16c0 7 -18 18 -44 18c-11 -1 -24 -2 -37 -7l-22 -8v68z" />
    <glyph glyph-name="uni1EA5" unicode="&#x1ea5;" 
d="M234 -17c-156 0 -178 154 -178 278c0 164 45 284 231 284c72 0 142 -25 227 -56v-489h-94v81c-52 -46 -113 -98 -186 -98zM291 456c-124 0 -140 -91 -140 -195c0 -53 5 -108 18 -138c15 -35 38 -50 78 -50c32 0 67 21 99 46c26 20 53 43 74 61v246c-39 14 -84 30 -129 30
zM215 610h-104l134 144h108l135 -144h-105l-84 88zM414 754l128 144h111l-131 -144h-108z" />
    <glyph glyph-name="uni1EA7" unicode="&#x1ea7;" 
d="M234 -17c-156 0 -178 154 -178 278c0 164 45 284 231 284c72 0 142 -25 227 -56v-489h-94v81c-52 -46 -113 -98 -186 -98zM291 456c-124 0 -140 -91 -140 -195c0 -53 5 -108 18 -138c15 -35 38 -50 78 -50c32 0 67 21 99 46c26 20 53 43 74 61v246c-39 14 -84 30 -129 30
zM215 610h-104l134 144h108l135 -144h-105l-84 88zM334 898h112l124 -144h-107z" />
    <glyph glyph-name="uni1EA9" unicode="&#x1ea9;" 
d="M56 261c0 164 45 284 231 284c72 0 142 -25 227 -56v-489h-94v81c-52 -46 -113 -98 -186 -98c-156 0 -178 154 -178 278zM151 261c0 -53 5 -108 18 -138c15 -35 38 -50 78 -50c32 0 67 21 99 46c26 20 53 43 74 61v246c-39 14 -84 30 -129 30c-124 0 -140 -91 -140 -195z
M215 610h-104l134 144h108l135 -144h-105l-84 88zM423 911l9 4c20 6 40 10 59 10c58 -1 106 -30 106 -83c0 -31 -7 -49 -41 -72c-6 -4 -12 -6 -16 -10c-3 -3 -14 -9 -17 -15v-5l-1 -16h-67c-4 24 -8 28 4 51s41 33 61 49c5 4 6 11 6 16c0 7 -17 18 -44 18
c-11 0 -23 -2 -37 -7l-22 -8v68z" />
    <glyph glyph-name="uni1EAB" unicode="&#x1eab;" 
d="M234 -17c-156 0 -178 154 -178 278c0 164 45 284 231 284c72 0 142 -25 227 -56v-489h-94v81c-52 -46 -113 -98 -186 -98zM291 456c-124 0 -140 -91 -140 -195c0 -53 5 -108 18 -138c15 -35 38 -50 78 -50c32 0 67 21 99 46c26 20 53 43 74 61v246c-39 14 -84 30 -129 30
zM101 802c36 97 63 130 128 130c30 0 56 -10 94 -36c29 -20 42 -29 60 -29h3c25 0 35 17 51 51h77c-30 -69 -57 -123 -127 -123c-31 0 -58 9 -90 31c-31 21 -49 34 -67 34c-28 0 -37 -21 -53 -58h-76zM215 610h-104l134 144h108l135 -144h-105l-84 88z" />
    <glyph glyph-name="uni1EAD" unicode="&#x1ead;" 
d="M234 -17c-156 0 -178 154 -178 278c0 164 45 284 231 284c72 0 142 -25 227 -56v-489h-94v81c-52 -46 -113 -98 -186 -98zM151 261c0 -53 5 -108 18 -138c15 -35 38 -50 78 -50c32 0 67 21 99 46c26 20 53 43 74 61v246c-39 14 -84 30 -129 30c-124 0 -140 -91 -140 -195
zM211 610h-104l134 144h108l135 -144h-105l-84 88zM237 -52h97v-141h-97v141z" />
    <glyph glyph-name="uni1EAF" unicode="&#x1eaf;" 
d="M56 261c0 164 45 284 231 284c72 0 142 -25 227 -56v-489h-94v81c-52 -46 -113 -98 -186 -98c-156 0 -178 154 -178 278zM291 456c-124 0 -140 -91 -140 -195c0 -53 5 -108 18 -138c15 -35 38 -50 78 -50c32 0 67 21 99 46c26 20 53 43 74 61v246c-39 14 -84 30 -129 30z
M293 606c-102 0 -145 55 -168 148h84c5 -18 12 -40 24 -54c14 -19 32 -26 60 -26c53 0 73 34 85 80h84c-10 -39 -26 -82 -54 -107c-27 -27 -63 -41 -115 -41zM225 776l128 144h111l-131 -144h-108z" />
    <glyph glyph-name="uni1EB1" unicode="&#x1eb1;" 
d="M234 -17c-156 0 -178 154 -178 278c0 164 45 284 231 284c72 0 142 -25 227 -56v-489h-94v81c-52 -46 -113 -98 -186 -98zM291 456c-124 0 -140 -91 -140 -195c0 -53 5 -108 18 -138c15 -35 38 -50 78 -50c32 0 67 21 99 46c26 20 53 43 74 61v246c-39 14 -84 30 -129 30
zM293 606c-102 0 -145 55 -168 148h84c5 -18 12 -40 24 -54c14 -19 32 -26 60 -26c53 0 73 34 85 80h84c-10 -39 -26 -82 -54 -107c-27 -27 -63 -41 -115 -41zM135 921h112l124 -144h-107z" />
    <glyph glyph-name="uni1EB3" unicode="&#x1eb3;" 
d="M234 -17c-156 0 -178 154 -178 278c0 164 45 284 231 284c72 0 142 -25 227 -56v-489h-94v81c-52 -46 -113 -98 -186 -98zM291 456c-124 0 -140 -91 -140 -195c0 -53 5 -108 18 -138c15 -35 38 -50 78 -50c32 0 67 21 99 46c26 20 53 43 74 61v246c-39 14 -84 30 -129 30
zM125 754h84c5 -18 12 -40 24 -54c14 -19 32 -26 60 -26c53 0 73 34 85 80h84c-10 -39 -26 -82 -54 -107c-27 -27 -63 -41 -115 -41c-102 0 -145 55 -168 148zM247 900l-22 -8v68l9 4c20 6 40 10 59 10c58 -1 106 -30 106 -83c0 -44 -23 -60 -57 -82c-3 -2 -15 -10 -17 -15
v-5l-1 -16h-67c-5 24 -8 28 4 51s41 33 61 49c5 4 6 11 6 16c0 7 -18 18 -44 18c-11 -1 -24 -2 -37 -7z" />
    <glyph glyph-name="uni1EB5" unicode="&#x1eb5;" 
d="M56 261c0 164 45 284 231 284c72 0 142 -25 227 -56v-489h-94v81c-52 -46 -113 -98 -186 -98c-156 0 -178 154 -178 278zM151 261c0 -53 5 -108 18 -138c15 -35 38 -50 78 -50c32 0 67 21 99 46c26 20 53 43 74 61v246c-39 14 -84 30 -129 30c-124 0 -140 -91 -140 -195z
M94 806c36 97 63 130 128 130c30 0 56 -10 94 -36c31 -21 43 -29 63 -29c25 0 35 17 51 51h77c-30 -69 -57 -123 -127 -123c-31 0 -58 9 -90 31c-31 22 -49 34 -67 34c-28 0 -37 -21 -53 -58h-76zM125 754h84c5 -18 12 -40 24 -54c14 -19 32 -26 60 -26c53 0 73 34 85 80h84
c-10 -39 -26 -82 -54 -107c-27 -27 -63 -41 -115 -41c-102 0 -145 55 -168 148z" />
    <glyph glyph-name="uni1EB7" unicode="&#x1eb7;" 
d="M234 -17c-156 0 -178 154 -178 278c0 164 45 284 231 284c72 0 142 -25 227 -56v-489h-94v81c-52 -46 -113 -98 -186 -98zM151 261c0 -53 5 -108 18 -138c15 -35 38 -50 78 -50c32 0 67 21 99 46c26 20 53 43 74 61v246c-39 14 -84 30 -129 30c-124 0 -140 -91 -140 -195
zM295 606c-102 0 -145 55 -168 148h84c5 -18 12 -40 24 -54c14 -19 32 -26 60 -26c53 0 73 34 85 80h84c-10 -39 -26 -82 -54 -107c-27 -27 -63 -41 -115 -41zM334 -193h-97v141h97v-141z" />
    <glyph glyph-name="uni1EBB" unicode="&#x1ebb;" horiz-adv-x="567" 
d="M56 261c0 166 45 284 235 284c150 0 223 -71 223 -217c0 -27 -4 -74 -10 -106h-355c0 -110 50 -153 161 -153c64 0 134 13 177 21v-87c-43 -8 -116 -20 -183 -20c-198 0 -248 99 -248 278zM291 462c-110 0 -142 -65 -142 -165h270c1 7 3 25 3 42c0 85 -45 123 -131 123z
M214 725v68l10 4c19 6 39 10 58 10c58 -1 107 -30 107 -83c0 -31 -10 -45 -42 -71c-5 -4 -10 -8 -15 -11c-4 -3 -15 -9 -18 -15c0 0 1 -2 1 -5l-1 -16h-68c-4 25 -8 29 4 51c13 23 42 33 61 49c6 5 7 11 7 16c0 7 -18 18 -44 18c-12 0 -24 -2 -38 -7z" />
    <glyph glyph-name="uni1EBF" unicode="&#x1ebf;" horiz-adv-x="567" 
d="M304 -17c-198 0 -248 99 -248 278c0 166 45 284 235 284c150 0 223 -71 223 -217c0 -27 -4 -74 -10 -106h-355c0 -110 50 -153 161 -153c64 0 134 13 177 21v-87c-43 -8 -116 -20 -183 -20zM149 297h270c1 7 3 25 3 42c0 85 -45 123 -131 123c-110 0 -142 -65 -142 -165z
M101 610l134 144h108l135 -144h-105l-84 88l-84 -88h-104zM509 756h-108l128 144h111z" />
    <glyph glyph-name="uni1EC1" unicode="&#x1ec1;" horiz-adv-x="567" 
d="M304 -17c-198 0 -248 99 -248 278c0 166 45 284 235 284c150 0 223 -71 223 -217c0 -27 -4 -74 -10 -106h-355c0 -110 50 -153 161 -153c64 0 134 13 177 21v-87c-43 -8 -116 -20 -183 -20zM149 297h270c1 7 3 25 3 42c0 85 -45 123 -131 123c-110 0 -142 -65 -142 -165z
M101 610l134 144h108l135 -144h-105l-84 88l-84 -88h-104zM314 898h112l124 -144h-107z" />
    <glyph glyph-name="uni1EC3" unicode="&#x1ec3;" horiz-adv-x="567" 
d="M304 -17c-198 0 -248 99 -248 278c0 166 45 284 235 284c150 0 223 -71 223 -217c0 -27 -4 -74 -10 -106h-355c0 -110 50 -153 161 -153c64 0 134 13 177 21v-87c-43 -8 -116 -20 -183 -20zM149 297h270c1 7 3 25 3 42c0 85 -45 123 -131 123c-110 0 -142 -65 -142 -165z
M101 610l134 144h108l135 -144h-105l-84 88l-84 -88h-104zM412 843v68l9 4c20 6 40 10 59 10c58 -1 107 -30 107 -83c-1 -31 -8 -49 -42 -72c-6 -4 -12 -6 -16 -10c-3 -3 -14 -9 -17 -15v-5l-1 -16h-67c-4 24 -8 28 4 51s41 33 61 49c5 4 7 11 7 16c0 7 -18 18 -44 18
c-12 0 -24 -2 -38 -7z" />
    <glyph glyph-name="uni1EC5" unicode="&#x1ec5;" horiz-adv-x="567" 
d="M304 -17c-198 0 -248 99 -248 278c0 166 45 284 235 284c150 0 223 -71 223 -217c0 -27 -4 -74 -10 -106h-355c0 -110 50 -153 161 -153c64 0 134 13 177 21v-87c-43 -8 -116 -20 -183 -20zM149 297h270c1 7 3 25 3 42c0 85 -45 123 -131 123c-110 0 -142 -65 -142 -165z
M162 808h-76c36 97 63 130 128 130c30 0 56 -10 94 -36c31 -21 43 -29 63 -29c25 0 35 17 51 51h77c-30 -69 -57 -123 -127 -123c-31 0 -58 9 -90 31c-31 22 -49 34 -67 34c-28 0 -37 -21 -53 -58zM101 610l134 144h108l135 -144h-105l-84 88l-84 -88h-104z" />
    <glyph glyph-name="uni1EC7" unicode="&#x1ec7;" horiz-adv-x="567" 
d="M56 261c0 166 45 284 235 284c150 0 223 -71 223 -217c0 -27 -4 -74 -10 -106h-355c0 -110 50 -153 161 -153c64 0 134 13 177 21v-87c-43 -8 -116 -20 -183 -20c-198 0 -248 99 -248 278zM149 297h270c1 7 3 25 3 42c0 85 -45 123 -131 123c-110 0 -142 -65 -142 -165z
M199 610h-104l134 144h108l135 -144h-105l-84 88zM235 -57h97v-141h-97v141z" />
    <glyph glyph-name="uni1ECF" unicode="&#x1ecf;" 
d="M295 -17c-185 0 -239 110 -239 278c0 165 51 284 239 284c185 0 239 -114 239 -281c0 -164 -55 -281 -239 -281zM151 262c0 -54 8 -103 26 -135c24 -43 63 -55 118 -55c124 0 144 90 144 195c0 104 -22 189 -144 189c-125 0 -144 -89 -144 -194zM230 733l-22 -8v68l9 4
c20 6 40 10 59 10c58 -1 106 -30 106 -83c0 -31 -10 -45 -42 -71c-5 -4 -10 -6 -15 -11c-3 -3 -15 -9 -17 -15v-5l-1 -16h-67c-5 25 -8 28 4 51s43 31 61 49c5 5 6 11 6 16c0 7 -18 18 -44 18c-11 -1 -24 -2 -37 -7z" />
    <glyph glyph-name="uni1ED1" unicode="&#x1ed1;" 
d="M56 261c0 165 51 284 239 284c185 0 239 -114 239 -281c0 -164 -55 -281 -239 -281c-185 0 -239 110 -239 278zM151 262c0 -54 8 -103 26 -135c24 -43 63 -55 118 -55c124 0 144 90 144 195c0 104 -22 189 -144 189c-125 0 -144 -89 -144 -194zM211 610h-104l134 144h108
l135 -144h-105l-84 88zM423 751l128 144h111l-131 -144h-108z" />
    <glyph glyph-name="uni1ED3" unicode="&#x1ed3;" 
d="M56 261c0 165 51 284 239 284c185 0 239 -114 239 -281c0 -164 -55 -281 -239 -281c-185 0 -239 110 -239 278zM151 262c0 -54 8 -103 26 -135c24 -43 63 -55 118 -55c124 0 144 90 144 195c0 104 -22 189 -144 189c-125 0 -144 -89 -144 -194zM211 610h-104l134 144h108
l135 -144h-105l-84 88zM441 754l-129 144h112l124 -144h-107z" />
    <glyph glyph-name="uni1ED5" unicode="&#x1ed5;" 
d="M56 261c0 165 51 284 239 284c185 0 239 -114 239 -281c0 -164 -55 -281 -239 -281c-185 0 -239 110 -239 278zM295 456c-125 0 -144 -89 -144 -194c0 -54 8 -103 26 -135c24 -43 63 -55 118 -55c124 0 144 90 144 195c0 104 -22 189 -144 189zM211 610h-104l134 144h108
l135 -144h-105l-84 88zM422 910l10 5c19 6 39 9 57 9c58 0 108 -29 108 -83c0 -31 -10 -45 -42 -71c-5 -4 -11 -7 -15 -10s-15 -10 -17 -15c-1 -1 0 -3 0 -6l-1 -16h-68c-4 25 -9 29 4 52s41 33 62 49c5 4 6 11 6 15c0 8 -18 19 -45 19c-11 1 -24 -2 -37 -7l-22 -9v68z" />
    <glyph glyph-name="uni1ED7" unicode="&#x1ed7;" 
d="M295 -17c-185 0 -239 110 -239 278c0 165 51 284 239 284c185 0 239 -114 239 -281c0 -164 -55 -281 -239 -281zM295 456c-125 0 -144 -89 -144 -194c0 -54 8 -103 26 -135c24 -43 63 -55 118 -55c124 0 144 90 144 195c0 104 -22 189 -144 189zM92 805
c35 96 62 130 125 130c39 0 66 -15 97 -36s43 -29 63 -29c25 0 35 17 51 51h77c-30 -69 -58 -122 -127 -123c-31 0 -59 9 -90 31s-50 34 -67 34c-28 0 -37 -21 -53 -58h-76zM211 610h-104l134 144h108l135 -144h-105l-84 88z" />
    <glyph glyph-name="uni1ED9" unicode="&#x1ed9;" 
d="M295 -17c-185 0 -239 110 -239 278c0 165 51 284 239 284c185 0 239 -114 239 -281c0 -164 -55 -281 -239 -281zM295 456c-125 0 -144 -89 -144 -194c0 -54 8 -103 26 -135c24 -43 63 -55 118 -55c124 0 144 90 144 195c0 104 -22 189 -144 189zM211 610h-104l134 144
h108l135 -144h-105l-84 88zM246 -189v141h97v-141h-97z" />
    <glyph glyph-name="uni1EDB" unicode="&#x1edb;" horiz-adv-x="646" 
d="M295 -17c-185 0 -239 110 -239 278c0 165 51 284 239 284c82 0 162 -27 204 -101c20 0 42 7 48 22v108h80v-110c0 -37 -34 -87 -102 -98c7 -33 9 -67 9 -102c0 -164 -55 -281 -239 -281zM295 456c-125 0 -144 -89 -144 -194c0 -54 8 -103 26 -135c24 -43 63 -55 118 -55
c124 0 144 90 144 195c0 104 -22 189 -144 189zM327 610h-108l128 144h111z" />
    <glyph glyph-name="uni1EDD" unicode="&#x1edd;" horiz-adv-x="646" 
d="M295 -17c-185 0 -239 110 -239 278c0 165 51 284 239 284c82 0 162 -27 204 -101c20 0 42 7 48 22v108h80v-110c0 -37 -34 -87 -102 -98c7 -33 9 -67 9 -102c0 -164 -55 -281 -239 -281zM295 456c-125 0 -144 -89 -144 -194c0 -54 8 -103 26 -135c24 -43 63 -55 118 -55
c124 0 144 90 144 195c0 104 -22 189 -144 189zM179 754h112l124 -144h-107z" />
    <glyph glyph-name="uni1EDF" unicode="&#x1edf;" horiz-adv-x="646" 
d="M56 261c0 165 51 284 239 284c82 0 162 -27 204 -101c20 0 42 7 48 22v108h80v-110c0 -37 -34 -87 -102 -98c7 -33 9 -67 9 -102c0 -164 -55 -281 -239 -281c-185 0 -239 110 -239 278zM295 456c-125 0 -144 -89 -144 -194c0 -54 8 -103 26 -135c24 -43 63 -55 118 -55
c124 0 144 90 144 195c0 104 -22 189 -144 189zM236 793l9 4c20 6 40 10 59 10c58 -1 106 -30 106 -83c0 -31 -10 -45 -42 -71c-5 -4 -10 -6 -15 -11c-3 -3 -15 -9 -17 -15v-5l-1 -16h-67c-5 25 -8 28 4 51s43 31 61 49c5 5 6 11 6 16c0 7 -18 18 -44 18
c-11 -1 -24 -2 -37 -7l-22 -8v68z" />
    <glyph glyph-name="uni1EE1" unicode="&#x1ee1;" horiz-adv-x="646" 
d="M295 -17c-185 0 -239 110 -239 278c0 165 51 284 239 284c82 0 162 -27 204 -101c20 0 42 7 48 22v108h80v-110c0 -37 -34 -87 -102 -98c7 -33 9 -67 9 -102c0 -164 -55 -281 -239 -281zM151 262c0 -54 8 -103 26 -135c24 -43 63 -55 118 -55c124 0 144 90 144 195
c0 104 -22 189 -144 189c-125 0 -144 -89 -144 -194zM94 621c36 97 63 130 128 130c30 0 55 -10 94 -36c31 -21 43 -29 63 -29c25 0 35 17 51 51h77c-30 -69 -57 -123 -127 -123c-31 0 -59 10 -90 31s-49 34 -67 34c-28 0 -37 -21 -53 -58h-76z" />
    <glyph glyph-name="uni1EE3" unicode="&#x1ee3;" horiz-adv-x="646" 
d="M295 -17c-185 0 -239 110 -239 278c0 165 51 284 239 284c82 0 162 -27 204 -101c20 0 42 7 48 22v108h80v-110c0 -37 -34 -87 -102 -98c7 -33 9 -67 9 -102c0 -164 -55 -281 -239 -281zM295 456c-125 0 -144 -89 -144 -194c0 -54 8 -103 26 -135c24 -43 63 -55 118 -55
c124 0 144 90 144 195c0 104 -22 189 -144 189zM341 -203h-97v141h97v-141z" />
    <glyph glyph-name="uni1EE7" unicode="&#x1ee7;" horiz-adv-x="583" 
d="M75 528h94v-319c0 -84 2 -137 100 -137c59 0 108 12 144 22v434h94v-503c-72 -20 -152 -42 -246 -42c-155 0 -186 85 -186 224v321zM204 793l10 4c19 6 39 10 58 10c58 -1 107 -30 107 -83c0 -31 -10 -45 -42 -71c-5 -4 -10 -8 -15 -11c-4 -3 -15 -9 -18 -15
c0 0 1 -2 1 -5l-1 -16h-68c-4 25 -8 29 4 51c13 23 42 33 61 49c6 5 7 11 7 16c0 7 -18 18 -44 18c-12 0 -24 -2 -38 -7l-22 -8v68z" />
    <glyph glyph-name="uni1EE9" unicode="&#x1ee9;" horiz-adv-x="671" 
d="M75 528h94v-319c0 -84 2 -137 100 -137c59 0 108 12 144 22v434h94v-84h18c21 0 43 6 50 22v108h80v-110c0 -42 -43 -100 -130 -100h-18v-339c-72 -20 -152 -42 -246 -42c-155 0 -186 85 -186 224v321zM216 610l128 144h111l-131 -144h-108z" />
    <glyph glyph-name="uni1EEB" unicode="&#x1eeb;" horiz-adv-x="671" 
d="M75 528h94v-319c0 -84 2 -137 100 -137c59 0 108 12 144 22v434h94v-84h18c21 0 43 6 50 22v108h80v-110c0 -42 -43 -100 -130 -100h-18v-339c-72 -20 -152 -42 -246 -42c-155 0 -186 85 -186 224v321zM307 610l-129 144h112l124 -144h-107z" />
    <glyph glyph-name="uni1EED" unicode="&#x1eed;" horiz-adv-x="671" 
d="M75 528h94v-319c0 -84 2 -137 100 -137c59 0 108 12 144 22v434h94v-84h18c21 0 43 6 50 22v108h80v-110c0 -42 -43 -100 -130 -100h-18v-339c-72 -20 -152 -42 -246 -42c-155 0 -186 85 -186 224v321zM227 793l10 4c19 6 39 10 58 10c58 -1 107 -30 107 -83
c0 -31 -10 -45 -42 -71c-5 -4 -10 -8 -15 -11c-4 -3 -15 -9 -18 -15c0 0 1 -2 1 -5l-1 -16h-68c-4 25 -8 29 4 51c13 23 42 33 61 49c6 5 7 11 7 16c0 7 -18 18 -44 18c-12 0 -24 -2 -38 -7l-22 -8v68z" />
    <glyph glyph-name="uni1EEF" unicode="&#x1eef;" horiz-adv-x="671" 
d="M75 528h94v-319c0 -84 2 -137 100 -137c59 0 108 12 144 22v434h94v-84h18c21 0 43 6 50 22v108h80v-110c0 -42 -43 -100 -130 -100h-18v-339c-72 -20 -152 -42 -246 -42c-155 0 -186 85 -186 224v321zM182 621h-76c36 97 63 130 128 130c30 0 56 -10 94 -36
c31 -21 43 -29 63 -29c25 0 35 17 51 51h77c-30 -69 -57 -123 -127 -123c-31 0 -58 9 -90 31c-31 22 -49 34 -67 34c-28 0 -37 -21 -53 -58z" />
    <glyph glyph-name="uni1EF1" unicode="&#x1ef1;" horiz-adv-x="671" 
d="M75 528h94v-319c0 -84 2 -137 100 -137c59 0 108 12 144 22v434h94v-84h18c21 0 43 6 50 22v108h80v-110c0 -42 -43 -100 -130 -100h-18v-339c-72 -20 -152 -42 -246 -42c-155 0 -186 85 -186 224v321zM287 -203v141h97v-141h-97z" />
    <glyph glyph-name="uni1EF5" unicode="&#x1ef5;" horiz-adv-x="537" 
d="M6 528h103l160 -403l160 403h102l-291 -720h-100l78 194zM341 -203v141h97v-141h-97z" />
    <glyph glyph-name="uni1EF7" unicode="&#x1ef7;" horiz-adv-x="537" 
d="M218 2l-212 526h103l160 -403l160 403h102l-291 -720h-100zM181 793l10 4c19 6 39 10 58 10c58 -1 107 -30 107 -83c0 -31 -10 -45 -42 -71c-5 -4 -10 -8 -15 -11c-4 -3 -15 -9 -18 -15c0 0 1 -2 1 -5l-1 -16h-68c-4 25 -8 29 4 51c13 23 42 33 61 49c6 5 7 11 7 16
c0 7 -18 18 -44 18c-12 0 -24 -2 -38 -7l-22 -8v68z" />
    <glyph glyph-name="uni1EC9" unicode="&#x1ec9;" horiz-adv-x="246" 
d="M76 0v528h94v-528h-94zM78 733l-22 -8v68l9 4c20 6 40 10 59 10c58 -1 106 -30 106 -83c0 -31 -10 -45 -42 -71c-5 -4 -10 -6 -15 -11c-3 -3 -15 -9 -17 -15v-5l-1 -16h-67c-5 25 -8 28 4 51s43 31 61 49c5 5 6 11 6 16c0 7 -18 18 -44 18c-11 -1 -24 -2 -37 -7z" />
    </font>
</defs>
</svg>
