<?xml version="1.0" standalone="no"?>
<!DOCTYPE svg PUBLIC "-//W3C//DTD SVG 1.1//EN" "http://www.w3.org/Graphics/SVG/1.1/DTD/svg11.dtd" >
<svg xmlns="http://www.w3.org/2000/svg" xmlns:xlink="http://www.w3.org/1999/xlink" version="1.1">
<metadata>
Created by FontForge 20170910 at Fri Apr 26 02:00:03 2019
 By Jimmy Wärting
Copyright (c) 2019 by Phuoc Nguyen. All rights reserved.
</metadata>
<defs>
<font id="MazdaTypeUnicode-Bold" horiz-adv-x="600" >
  <font-face 
    font-family="Mazda Type Unicode"
    font-weight="700"
    font-stretch="normal"
    units-per-em="1000"
    panose-1="1 0 0 0 0 0 0 0 0 0"
    ascent="800"
    descent="-200"
    x-height="480"
    cap-height="680"
    bbox="-293 -240 1132 1146"
    underline-thickness="50"
    underline-position="-100"
    unicode-range="U+000D-FEFF"
  />
<missing-glyph horiz-adv-x="572" 
d="M50 0v680h472v-680h-472zM148 618l138 -228l138 228h-276zM116 109l140 231l-140 231v-462zM316 340l140 -231v462zM148 62h276l-138 228z" />
    <glyph glyph-name=".notdef" horiz-adv-x="572" 
d="M50 0v680h472v-680h-472zM148 618l138 -228l138 228h-276zM116 109l140 231l-140 231v-462zM316 340l140 -231v462zM148 62h276l-138 228z" />
    <glyph glyph-name=".null" horiz-adv-x="0" 
 />
    <glyph glyph-name=".null" horiz-adv-x="0" 
 />
    <glyph glyph-name="nonmarkingreturn" unicode="&#xd;" horiz-adv-x="254" 
 />
    <glyph glyph-name="space" unicode=" " horiz-adv-x="254" 
 />
    <glyph glyph-name="A" unicode="A" horiz-adv-x="674" 
d="M191 236l-96 -236h-94l287 670l110 13l275 -683h-151l-91 236h-240zM408 309l-89 237h-5l-95 -237h189z" />
    <glyph glyph-name="Aacute" unicode="&#xc1;" horiz-adv-x="674" 
d="M336 756h-63l103 129h130zM191 236l-96 -236h-94l287 670l110 13l275 -683h-151l-91 236h-240zM408 309l-89 237h-5l-95 -237h189z" />
    <glyph glyph-name="Abreve" unicode="&#x102;" horiz-adv-x="674" 
d="M242 885q5 -31 30.5 -49.5t63.5 -18.5q43 0 67.5 18t33.5 50h57q-9 -63 -49 -98.5t-112 -35.5q-69 0 -106 36t-44 98h59zM191 236l-96 -236h-94l287 670l110 13l275 -683h-151l-91 236h-240zM408 309l-89 237h-5l-95 -237h189z" />
    <glyph glyph-name="Acircumflex" unicode="&#xc2;" horiz-adv-x="674" 
d="M503 756h-65l-100 66l-102 -66h-62l111 129h107zM191 236l-96 -236h-94l287 670l110 13l275 -683h-151l-91 236h-240zM408 309l-89 237h-5l-95 -237h189z" />
    <glyph glyph-name="Adieresis" unicode="&#xc4;" horiz-adv-x="674" 
d="M302 764h-116v114h116v-114zM492 764h-116v114h116v-114zM191 236l-96 -236h-94l287 670l110 13l275 -683h-151l-91 236h-240zM408 309l-89 237h-5l-95 -237h189z" />
    <glyph glyph-name="Agrave" unicode="&#xc0;" horiz-adv-x="674" 
d="M302 885l103 -129h-63l-170 129h130zM191 236l-96 -236h-94l287 670l110 13l275 -683h-151l-91 236h-240zM408 309l-89 237h-5l-95 -237h189z" />
    <glyph glyph-name="Amacron" unicode="&#x100;" horiz-adv-x="674" 
d="M503 790h-329v64h329v-64zM191 236l-96 -236h-94l287 670l110 13l275 -683h-151l-91 236h-240zM408 309l-89 237h-5l-95 -237h189z" />
    <glyph glyph-name="Aogonek" unicode="&#x104;" horiz-adv-x="674" 
d="M288 670l110 13l275 -683q-61 -26 -86.5 -49.5t-25.5 -52.5q0 -18 12 -27.5t33 -9.5q17 0 32 4t27 9h7l-16 -40q-15 -8 -34 -13.5t-45 -5.5q-41 0 -69 18t-28 54q0 66 114 113h-72l-91 236h-240l-96 -236h-94zM408 309l-89 237h-5l-95 -237h189z" />
    <glyph glyph-name="Aring" unicode="&#xc5;" horiz-adv-x="674" 
d="M339 729q-26 0 -47 9t-37 24.5t-24.5 36t-8.5 43.5q0 24 8.5 44.5t24.5 35.5t37 23.5t47 8.5q25 0 46.5 -8.5t37.5 -23.5t24.5 -35.5t8.5 -44.5t-8.5 -44.5t-24.5 -36t-37.5 -24t-46.5 -8.5zM339 771q34 0 49.5 21t15.5 50q0 26 -15.5 48t-50.5 22q-32 0 -48 -20t-16 -50
q0 -28 16.5 -49.5t48.5 -21.5zM191 236l-96 -236h-94l287 670l110 13l275 -683h-151l-91 236h-240zM408 309l-89 237h-5l-95 -237h189z" />
    <glyph glyph-name="Aringacute" unicode="&#x1fa;" horiz-adv-x="674" 
d="M673 0h-151l-91 236h-240l-96 -236h-94l272 636q-25 15 -39 40t-14 54q0 36 21.5 65t58.5 40l72 86h130l-125 -87q35 -11 56 -39.5t21 -64.5q0 -53 -41 -85zM336 798q-32 0 -48 -19.5t-16 -48.5q0 -26 16.5 -47.5t48.5 -21.5q34 0 49.5 20.5t15.5 48.5q0 25 -15.5 46.5
t-50.5 21.5zM408 309l-89 237h-5l-95 -237h189z" />
    <glyph glyph-name="Atilde" unicode="&#xc3;" horiz-adv-x="674" 
d="M347 862q20 -11 37 -17.5t30 -6.5q18 0 27.5 9t14.5 31h52q-7 -57 -32.5 -85.5t-64.5 -28.5q-20 0 -37.5 6t-40.5 17t-37.5 16.5t-29.5 5.5q-17 0 -28.5 -10t-16.5 -33h-52q2 22 9.5 43.5t20 38t30 26.5t39.5 10q17 0 36 -4.5t43 -17.5zM191 236l-96 -236h-94l287 670
l110 13l275 -683h-151l-91 236h-240zM408 309l-89 237h-5l-95 -237h189z" />
    <glyph glyph-name="AE" unicode="&#xc6;" horiz-adv-x="914" 
d="M899 82l-42 -82h-357v234h-246l-152 -234h-104l451 680h396v-75h-212v-222h189v-71h-189v-236h108h48t38.5 0.5t33 2t32.5 3.5h6zM500 309v296h-6l-192 -296h198z" />
    <glyph glyph-name="AEacute" unicode="&#x1fc;" horiz-adv-x="914" 
d="M595 756h-63l103 129h130zM899 82l-42 -82h-357v234h-246l-152 -234h-104l451 680h396v-75h-212v-222h189v-71h-189v-236h108h48t38.5 0.5t33 2t32.5 3.5h6zM500 309v296h-6l-192 -296h198z" />
    <glyph glyph-name="B" unicode="B" horiz-adv-x="599" 
d="M287 680q47 0 88 -8.5t71 -27.5t47 -49.5t17 -73.5q0 -57 -35 -93t-101 -53v-5q35 -5 67 -16.5t57 -32t39.5 -49t14.5 -67.5q0 -57 -21 -96t-56.5 -63t-81 -35t-94.5 -11h-213v680h201zM267 396q55 0 86.5 29.5t31.5 80.5q0 53 -28 78t-89 25h-50v-213h49zM279 73
q139 0 139 131q0 62 -42.5 94t-108.5 32h-49v-257h61z" />
    <glyph glyph-name="C" unicode="C" horiz-adv-x="717" 
d="M645 552q-42 36 -86.5 50t-94.5 14q-56 0 -104 -19t-83 -55t-55 -88t-20 -117q0 -64 20 -113.5t54.5 -83t81 -51t100.5 -17.5q69 0 123.5 17.5t89.5 48.5h15l-28 -97q-42 -25 -97 -39.5t-118 -14.5q-80 0 -150.5 22t-123.5 66t-84 109.5t-31 153.5q0 89 33 155.5
t87.5 111t125.5 66.5t148 22q25 0 53 -3t55.5 -9.5t52 -16t44.5 -22.5l8 -90h-16v0z" />
    <glyph glyph-name="Cacute" unicode="&#x106;" horiz-adv-x="717" 
d="M426 756h-63l103 129h130zM645 552q-42 36 -86.5 50t-94.5 14q-56 0 -104 -19t-83 -55t-55 -88t-20 -117q0 -64 20 -113.5t54.5 -83t81 -51t100.5 -17.5q69 0 123.5 17.5t89.5 48.5h15l-28 -97q-42 -25 -97 -39.5t-118 -14.5q-80 0 -150.5 22t-123.5 66t-84 109.5
t-31 153.5q0 89 33 155.5t87.5 111t125.5 66.5t148 22q25 0 53 -3t55.5 -9.5t52 -16t44.5 -22.5l8 -90h-16z" />
    <glyph glyph-name="Ccaron" unicode="&#x10c;" horiz-adv-x="717" 
d="M264 885h66l100 -66l102 66h61l-111 -129h-107zM645 552q-42 36 -86.5 50t-94.5 14q-56 0 -104 -19t-83 -55t-55 -88t-20 -117q0 -64 20 -113.5t54.5 -83t81 -51t100.5 -17.5q69 0 123.5 17.5t89.5 48.5h15l-28 -97q-42 -25 -97 -39.5t-118 -14.5q-80 0 -150.5 22
t-123.5 66t-84 109.5t-31 153.5q0 89 33 155.5t87.5 111t125.5 66.5t148 22q25 0 53 -3t55.5 -9.5t52 -16t44.5 -22.5l8 -90h-16z" />
    <glyph glyph-name="Ccedilla" unicode="&#xc7;" horiz-adv-x="717" 
d="M54 338q0 89 33 155.5t87.5 111t125.5 66.5t148 22q25 0 53 -3t55.5 -9.5t52 -16t44.5 -22.5l8 -90h-16q-42 36 -86.5 50t-94.5 14q-56 0 -104 -19t-83 -55t-55 -88t-20 -117q0 -64 20 -113.5t54.5 -83t81 -51t100.5 -17.5q69 0 123.5 17.5t89.5 48.5h15l-28 -97
q-41 -24 -93.5 -38.5t-112.5 -15.5l-15 -30l11 -3q31 -8 53.5 -25t22.5 -52q0 -27 -15 -45.5t-38.5 -30t-52.5 -17t-57 -5.5l-15 37l3 5q14 0 31 1.5t32 7t25 14.5t10 24q0 24 -22 34t-51 15l-1 7l36 64q-74 4 -138.5 28.5t-112.5 68t-76 107t-28 146.5z" />
    <glyph glyph-name="Ccircumflex" unicode="&#x108;" horiz-adv-x="717" 
d="M593 756h-65l-100 66l-102 -66h-62l111 129h107zM645 552q-42 36 -86.5 50t-94.5 14q-56 0 -104 -19t-83 -55t-55 -88t-20 -117q0 -64 20 -113.5t54.5 -83t81 -51t100.5 -17.5q69 0 123.5 17.5t89.5 48.5h15l-28 -97q-42 -25 -97 -39.5t-118 -14.5q-80 0 -150.5 22
t-123.5 66t-84 109.5t-31 153.5q0 89 33 155.5t87.5 111t125.5 66.5t148 22q25 0 53 -3t55.5 -9.5t52 -16t44.5 -22.5l8 -90h-16z" />
    <glyph glyph-name="Cdotaccent" unicode="&#x10a;" horiz-adv-x="717" 
d="M494 760h-130v118h130v-118zM645 552q-42 36 -86.5 50t-94.5 14q-56 0 -104 -19t-83 -55t-55 -88t-20 -117q0 -64 20 -113.5t54.5 -83t81 -51t100.5 -17.5q69 0 123.5 17.5t89.5 48.5h15l-28 -97q-42 -25 -97 -39.5t-118 -14.5q-80 0 -150.5 22t-123.5 66t-84 109.5
t-31 153.5q0 89 33 155.5t87.5 111t125.5 66.5t148 22q25 0 53 -3t55.5 -9.5t52 -16t44.5 -22.5l8 -90h-16z" />
    <glyph glyph-name="D" unicode="D" horiz-adv-x="777" 
d="M355 680q175 0 271.5 -85.5t96.5 -255.5q0 -81 -27.5 -144t-77.5 -106.5t-120.5 -66t-157.5 -22.5h-254v680h269zM325 75q127 0 189.5 70t62.5 194q0 128 -59.5 197.5t-187.5 69.5h-109v-531h104z" />
    <glyph glyph-name="Eth" unicode="&#xd0;" horiz-adv-x="781" 
d="M359 680q175 0 271.5 -85.5t96.5 -255.5q0 -81 -27.5 -144t-77.5 -106.5t-120.5 -66t-157.5 -22.5h-254v314h-68v69h68v297h269zM329 75q127 0 189.5 70t62.5 194q0 128 -59.5 197.5t-187.5 69.5h-109v-223h170v-69h-170v-239h104z" />
    <glyph glyph-name="Dcaron" unicode="&#x10e;" horiz-adv-x="777" 
d="M204 885h66l100 -66l102 66h61l-111 -129h-107zM355 680q175 0 271.5 -85.5t96.5 -255.5q0 -81 -27.5 -144t-77.5 -106.5t-120.5 -66t-157.5 -22.5h-254v680h269zM325 75q127 0 189.5 70t62.5 194q0 128 -59.5 197.5t-187.5 69.5h-109v-531h104z" />
    <glyph glyph-name="Dcroat" unicode="&#x110;" horiz-adv-x="781" 
d="M359 680q175 0 271.5 -85.5t96.5 -255.5q0 -81 -27.5 -144t-77.5 -106.5t-120.5 -66t-157.5 -22.5h-254v314h-68v69h68v297h269zM329 75q127 0 189.5 70t62.5 194q0 128 -59.5 197.5t-187.5 69.5h-109v-223h170v-69h-170v-239h104z" />
    <glyph glyph-name="E" unicode="E" horiz-adv-x="500" 
d="M327 76h48t38.5 0.5t33 2t32.5 3.5h6l-42 -82h-357v680h345v-75h-212v-222h189v-71h-189v-236h108v0z" />
    <glyph glyph-name="Eacute" unicode="&#xc9;" horiz-adv-x="500" 
d="M252 756h-63l103 129h130zM327 76h48t38.5 0.5t33 2t32.5 3.5h6l-42 -82h-357v680h345v-75h-212v-222h189v-71h-189v-236h108z" />
    <glyph glyph-name="Ebreve" unicode="&#x114;" horiz-adv-x="500" 
d="M158 885q5 -31 30.5 -49.5t63.5 -18.5q43 0 67.5 18t33.5 50h57q-9 -63 -49 -98.5t-112 -35.5q-69 0 -106 36t-44 98h59zM327 76h48t38.5 0.5t33 2t32.5 3.5h6l-42 -82h-357v680h345v-75h-212v-222h189v-71h-189v-236h108z" />
    <glyph glyph-name="Ecaron" unicode="&#x11a;" horiz-adv-x="500" 
d="M90 885h66l100 -66l102 66h61l-111 -129h-107zM327 76h48t38.5 0.5t33 2t32.5 3.5h6l-42 -82h-357v680h345v-75h-212v-222h189v-71h-189v-236h108z" />
    <glyph glyph-name="Ecircumflex" unicode="&#xca;" horiz-adv-x="500" 
d="M419 756h-65l-100 66l-102 -66h-62l111 129h107zM327 76h48t38.5 0.5t33 2t32.5 3.5h6l-42 -82h-357v680h345v-75h-212v-222h189v-71h-189v-236h108z" />
    <glyph glyph-name="Edieresis" unicode="&#xcb;" horiz-adv-x="500" 
d="M218 764h-116v114h116v-114zM408 764h-116v114h116v-114zM327 76h48t38.5 0.5t33 2t32.5 3.5h6l-42 -82h-357v680h345v-75h-212v-222h189v-71h-189v-236h108z" />
    <glyph glyph-name="Edotaccent" unicode="&#x116;" horiz-adv-x="500" 
d="M320 760h-130v118h130v-118zM327 76h48t38.5 0.5t33 2t32.5 3.5h6l-42 -82h-357v680h345v-75h-212v-222h189v-71h-189v-236h108z" />
    <glyph glyph-name="Egrave" unicode="&#xc8;" horiz-adv-x="500" 
d="M218 885l103 -129h-63l-170 129h130zM327 76h48t38.5 0.5t33 2t32.5 3.5h6l-42 -82h-357v680h345v-75h-212v-222h189v-71h-189v-236h108z" />
    <glyph glyph-name="Emacron" unicode="&#x112;" horiz-adv-x="500" 
d="M419 790h-329v64h329v-64zM327 76h48t38.5 0.5t33 2t32.5 3.5h6l-42 -82h-357v680h345v-75h-212v-222h189v-71h-189v-236h108z" />
    <glyph glyph-name="Eogonek" unicode="&#x118;" horiz-adv-x="500" 
d="M86 680h345v-75h-212v-222h189v-71h-189v-236h108h48t38.5 0.5t33 2t32.5 3.5h6l-42 -82q-60 -32 -80 -56t-20 -46q0 -18 12 -27.5t33 -9.5q17 0 32 4t27 9h7l-16 -40q-15 -8 -34 -13.5t-45 -5.5q-41 0 -69 18t-28 54q0 66 114 113h-290v680z" />
    <glyph glyph-name="F" unicode="F" horiz-adv-x="468" 
d="M444 604h-223v-231h199v-72h-199v-301h-135v680h358v-76z" />
    <glyph glyph-name="G" unicode="G" horiz-adv-x="737" 
d="M436 -13q-77 0 -146 22t-121.5 66t-83.5 109.5t-31 153.5q0 89 33 155.5t88 111t125.5 66.5t144.5 22q65 0 120 -13t90 -37l8 -91h-17q-34 31 -78 48t-107 17q-58 0 -105.5 -20.5t-82 -57.5t-53.5 -89t-19 -114q0 -65 19.5 -115t53 -84.5t77.5 -52t94 -17.5q30 0 53.5 4
t41.5 10v253h134v-290q-42 -25 -103.5 -41t-134.5 -16z" />
    <glyph glyph-name="Gbreve" unicode="&#x11e;" horiz-adv-x="737" 
d="M322 885q5 -31 30.5 -49.5t63.5 -18.5q43 0 67.5 18t33.5 50h57q-9 -63 -49 -98.5t-112 -35.5q-69 0 -106 36t-44 98h59zM436 -13q-77 0 -146 22t-121.5 66t-83.5 109.5t-31 153.5q0 89 33 155.5t88 111t125.5 66.5t144.5 22q65 0 120 -13t90 -37l8 -91h-17
q-34 31 -78 48t-107 17q-58 0 -105.5 -20.5t-82 -57.5t-53.5 -89t-19 -114q0 -65 19.5 -115t53 -84.5t77.5 -52t94 -17.5q30 0 53.5 4t41.5 10v253h134v-290q-42 -25 -103.5 -41t-134.5 -16z" />
    <glyph glyph-name="Gcircumflex" unicode="&#x11c;" horiz-adv-x="737" 
d="M583 756h-65l-100 66l-102 -66h-62l111 129h107zM436 -13q-77 0 -146 22t-121.5 66t-83.5 109.5t-31 153.5q0 89 33 155.5t88 111t125.5 66.5t144.5 22q65 0 120 -13t90 -37l8 -91h-17q-34 31 -78 48t-107 17q-58 0 -105.5 -20.5t-82 -57.5t-53.5 -89t-19 -114
q0 -65 19.5 -115t53 -84.5t77.5 -52t94 -17.5q30 0 53.5 4t41.5 10v253h134v-290q-42 -25 -103.5 -41t-134.5 -16z" />
    <glyph glyph-name="uni0122" unicode="&#x122;" horiz-adv-x="737" 
d="M436 -13q-77 0 -146 22t-121.5 66t-83.5 109.5t-31 153.5q0 89 33 155.5t88 111t125.5 66.5t144.5 22q65 0 120 -13t90 -37l8 -91h-17q-34 31 -78 48t-107 17q-58 0 -105.5 -20.5t-82 -57.5t-53.5 -89t-19 -114q0 -65 19.5 -115t53 -84.5t77.5 -52t94 -17.5q30 0 53.5 4
t41.5 10v253h134v-290q-42 -25 -103.5 -41t-134.5 -16zM483 -69q-2 -17 -9 -37t-16.5 -40t-21 -38.5t-22.5 -32.5h-53q12 35 16.5 72.5t4.5 75.5h101z" />
    <glyph glyph-name="Gdotaccent" unicode="&#x120;" horiz-adv-x="737" 
d="M484 760h-130v118h130v-118zM436 -13q-77 0 -146 22t-121.5 66t-83.5 109.5t-31 153.5q0 89 33 155.5t88 111t125.5 66.5t144.5 22q65 0 120 -13t90 -37l8 -91h-17q-34 31 -78 48t-107 17q-58 0 -105.5 -20.5t-82 -57.5t-53.5 -89t-19 -114q0 -65 19.5 -115t53 -84.5
t77.5 -52t94 -17.5q30 0 53.5 4t41.5 10v253h134v-290q-42 -25 -103.5 -41t-134.5 -16z" />
    <glyph glyph-name="H" unicode="H" horiz-adv-x="749" 
d="M221 397h307v283h135v-680h-135v316h-307v-316h-135v680h135v-283z" />
    <glyph glyph-name="Hbar" unicode="&#x126;" horiz-adv-x="757" 
d="M737 507h-70v-507h-135v316h-307v-316h-135v507h-70v74h70v99h135v-99h307v99h135v-99h70v-74zM532 507h-307v-110h307v110z" />
    <glyph glyph-name="Hcircumflex" unicode="&#x124;" horiz-adv-x="749" 
d="M539 756h-65l-100 66l-102 -66h-62l111 129h107zM221 397h307v283h135v-680h-135v316h-307v-316h-135v680h135v-283z" />
    <glyph glyph-name="I" unicode="I" horiz-adv-x="309" 
d="M223 0h-137v680h137v-680z" />
    <glyph glyph-name="IJ" unicode="&#x132;" horiz-adv-x="614" 
d="M223 0h-137v680h137v-680zM538 143q0 -75 -19.5 -127.5t-51.5 -87t-72 -54t-82 -29.5l-72 25v8q42 16 72.5 39t50 56t28.5 77.5t9 104.5v525h137v-537z" />
    <glyph glyph-name="Iacute" unicode="&#xcd;" horiz-adv-x="309" 
d="M152 756h-63l103 129h130zM223 0h-137v680h137v-680z" />
    <glyph glyph-name="Ibreve" unicode="&#x12c;" horiz-adv-x="309" 
d="M58 885q5 -31 30.5 -49.5t63.5 -18.5q43 0 67.5 18t33.5 50h57q-9 -63 -49 -98.5t-112 -35.5q-69 0 -106 36t-44 98h59zM223 0h-137v680h137v-680z" />
    <glyph glyph-name="Icircumflex" unicode="&#xce;" horiz-adv-x="309" 
d="M319 756h-65l-100 66l-102 -66h-62l111 129h107zM223 0h-137v680h137v-680z" />
    <glyph glyph-name="Idieresis" unicode="&#xcf;" horiz-adv-x="309" 
d="M118 764h-116v114h116v-114zM308 764h-116v114h116v-114zM223 0h-137v680h137v-680z" />
    <glyph glyph-name="Idotaccent" unicode="&#x130;" horiz-adv-x="309" 
d="M220 760h-130v118h130v-118zM223 0h-137v680h137v-680z" />
    <glyph glyph-name="Igrave" unicode="&#xcc;" horiz-adv-x="309" 
d="M118 885l103 -129h-63l-170 129h130zM223 0h-137v680h137v-680z" />
    <glyph glyph-name="Imacron" unicode="&#x12a;" horiz-adv-x="309" 
d="M319 790h-329v64h329v-64zM223 0h-137v680h137v-680z" />
    <glyph glyph-name="Iogonek" unicode="&#x12e;" horiz-adv-x="309" 
d="M50 -113q0 33 26.5 60t80.5 53h-71v680h137l-1 -680q-55 -33 -73 -56.5t-18 -45.5q0 -18 12 -27.5t33 -9.5q17 0 32 4t27 9h7l-16 -40q-15 -8 -34 -13.5t-45 -5.5q-41 0 -69 18t-28 54z" />
    <glyph glyph-name="Itilde" unicode="&#x128;" horiz-adv-x="309" 
d="M163 862q20 -11 37 -17.5t30 -6.5q18 0 27.5 9t14.5 31h52q-7 -57 -32.5 -85.5t-64.5 -28.5q-20 0 -37.5 6t-40.5 17t-37.5 16.5t-29.5 5.5q-17 0 -28.5 -10t-16.5 -33h-52q2 22 9.5 43.5t20 38t30 26.5t39.5 10q17 0 36 -4.5t43 -17.5zM223 0h-137v680h137v-680z" />
    <glyph glyph-name="J" unicode="J" horiz-adv-x="305" 
d="M229 143q0 -75 -19.5 -127.5t-51.5 -87t-72 -54t-82 -29.5l-72 25v8q42 16 72.5 39t50 56t28.5 77.5t9 104.5v525h137v-537z" />
    <glyph glyph-name="Jcircumflex" unicode="&#x134;" horiz-adv-x="305" 
d="M317 756h-65l-100 66l-102 -66h-62l111 129h107zM229 143q0 -75 -19.5 -127.5t-51.5 -87t-72 -54t-82 -29.5l-72 25v8q42 16 72.5 39t50 56t28.5 77.5t9 104.5v525h137v-537z" />
    <glyph glyph-name="K" unicode="K" horiz-adv-x="652" 
d="M222 0h-136v680h136v-680zM229 369q71 73 141.5 153t135.5 158h114l-266 -278q52 -73 99.5 -136.5t87.5 -115t71.5 -88.5t52.5 -57v-5h-183q-48 66 -111 157.5t-142 203.5v8z" />
    <glyph glyph-name="uni0136" unicode="&#x136;" horiz-adv-x="652" 
d="M222 0h-136v680h136v-680zM229 369q71 73 141.5 153t135.5 158h114l-266 -278q52 -73 99.5 -136.5t87.5 -115t71.5 -88.5t52.5 -57v-5h-183q-48 66 -111 157.5t-142 203.5v8zM392 -69q-2 -17 -9 -37t-16.5 -40t-21 -38.5t-22.5 -32.5h-53q12 35 16.5 72.5t4.5 75.5h101z
" />
    <glyph glyph-name="L" unicode="L" horiz-adv-x="447" 
d="M291 76q53 0 84 1t60 5h6l-41 -82h-314v680h135v-604h70v0z" />
    <glyph glyph-name="Lacute" unicode="&#x139;" horiz-adv-x="447" 
d="M171 756h-63l103 129h130zM291 76q53 0 84 1t60 5h6l-41 -82h-314v680h135v-604h70z" />
    <glyph glyph-name="Lcaron" unicode="&#x13d;" horiz-adv-x="447" 
d="M404 722q-5 -31 -13 -61.5t-17 -58.5t-19 -51t-20 -39h-59q8 50 12 103t4 107h112zM291 76q53 0 84 1t60 5h6l-41 -82h-314v680h135v-604h70z" />
    <glyph glyph-name="uni013B" unicode="&#x13b;" horiz-adv-x="447" 
d="M291 76q53 0 84 1t60 5h6l-41 -82h-314v680h135v-604h70zM295 -69q-2 -17 -9 -37t-16.5 -40t-21 -38.5t-22.5 -32.5h-53q12 35 16.5 72.5t4.5 75.5h101z" />
    <glyph glyph-name="Ldot" unicode="&#x13f;" horiz-adv-x="447" 
d="M291 76q53 0 84 1t60 5h6l-41 -82h-314v680h135v-604h70zM442 279h-130v118h130v-118z" />
    <glyph glyph-name="Lslash" unicode="&#x141;" horiz-adv-x="451" 
d="M445 82l-41 -82h-314v270l-75 -42v75l75 42v335h135v-266l122 68v-75l-122 -68v-263h70q53 0 84 1t60 5h6z" />
    <glyph glyph-name="M" unicode="M" horiz-adv-x="943" 
d="M474 232l215 448h132l72 -680h-139l-50 521h-4l-235 -480h-47l-234 478h-4l-43 -519h-89l73 680h131l219 -448h3z" />
    <glyph glyph-name="N" unicode="N" horiz-adv-x="738" 
d="M566 680h86v-683h-74l-403 502h-5l2 -499h-86v680h116l362 -455h4z" />
    <glyph glyph-name="Nacute" unicode="&#x143;" horiz-adv-x="738" 
d="M376 756h-63l103 129h130zM566 680h86v-683h-74l-403 502h-5l2 -499h-86v680h116l362 -455h4z" />
    <glyph glyph-name="Ncaron" unicode="&#x147;" horiz-adv-x="738" 
d="M214 885h66l100 -66l102 66h61l-111 -129h-107zM566 680h86v-683h-74l-403 502h-5l2 -499h-86v680h116l362 -455h4z" />
    <glyph glyph-name="uni0145" unicode="&#x145;" horiz-adv-x="738" 
d="M566 680h86v-683h-74l-403 502h-5l2 -499h-86v680h116l362 -455h4zM430 -69q-2 -17 -9 -37t-16.5 -40t-21 -38.5t-22.5 -32.5h-53q12 35 16.5 72.5t4.5 75.5h101z" />
    <glyph glyph-name="Eng" unicode="&#x14a;" horiz-adv-x="738" 
d="M86 680h116l362 -455h4l-2 455h86v-616q0 -68 -16.5 -116.5t-46 -82.5t-70.5 -55.5t-89 -33.5l-50 21v6q79 33 120.5 86.5t52.5 138.5l-378 471h-5l2 -499h-86v680z" />
    <glyph glyph-name="Ntilde" unicode="&#xd1;" horiz-adv-x="738" 
d="M387 862q20 -11 37 -17.5t30 -6.5q18 0 27.5 9t14.5 31h52q-7 -57 -32.5 -85.5t-64.5 -28.5q-20 0 -37.5 6t-40.5 17t-37.5 16.5t-29.5 5.5q-17 0 -28.5 -10t-16.5 -33h-52q2 22 9.5 43.5t20 38t30 26.5t39.5 10q17 0 36 -4.5t43 -17.5zM566 680h86v-683h-74l-403 502h-5
l2 -499h-86v680h116l362 -455h4z" />
    <glyph glyph-name="O" unicode="O" horiz-adv-x="825" 
d="M411 692q67 0 131.5 -20.5t115.5 -63.5t82 -109.5t31 -158.5q0 -90 -31 -156t-81 -110t-113.5 -65.5t-128.5 -21.5q-68 0 -133 20.5t-116 64t-82.5 110t-31.5 158.5q0 90 31 156t81.5 109.5t114.5 65t130 21.5zM416 62q48 0 86.5 21.5t65.5 59t41.5 88.5t14.5 110
q0 57 -15 107.5t-43 88.5t-68 60.5t-89 22.5q-48 0 -86.5 -21.5t-65.5 -59t-41.5 -88.5t-14.5 -110q0 -57 15 -107.5t42.5 -89t67.5 -60.5t90 -22z" />
    <glyph glyph-name="Oacute" unicode="&#xd3;" horiz-adv-x="825" 
d="M410 756h-63l103 129h130zM411 692q67 0 131.5 -20.5t115.5 -63.5t82 -109.5t31 -158.5q0 -90 -31 -156t-81 -110t-113.5 -65.5t-128.5 -21.5q-68 0 -133 20.5t-116 64t-82.5 110t-31.5 158.5q0 90 31 156t81.5 109.5t114.5 65t130 21.5zM416 62q48 0 86.5 21.5t65.5 59
t41.5 88.5t14.5 110q0 57 -15 107.5t-43 88.5t-68 60.5t-89 22.5q-48 0 -86.5 -21.5t-65.5 -59t-41.5 -88.5t-14.5 -110q0 -57 15 -107.5t42.5 -89t67.5 -60.5t90 -22z" />
    <glyph glyph-name="Obreve" unicode="&#x14e;" horiz-adv-x="825" 
d="M316 885q5 -31 30.5 -49.5t63.5 -18.5q43 0 67.5 18t33.5 50h57q-9 -63 -49 -98.5t-112 -35.5q-69 0 -106 36t-44 98h59zM411 692q67 0 131.5 -20.5t115.5 -63.5t82 -109.5t31 -158.5q0 -90 -31 -156t-81 -110t-113.5 -65.5t-128.5 -21.5q-68 0 -133 20.5t-116 64
t-82.5 110t-31.5 158.5q0 90 31 156t81.5 109.5t114.5 65t130 21.5zM416 62q48 0 86.5 21.5t65.5 59t41.5 88.5t14.5 110q0 57 -15 107.5t-43 88.5t-68 60.5t-89 22.5q-48 0 -86.5 -21.5t-65.5 -59t-41.5 -88.5t-14.5 -110q0 -57 15 -107.5t42.5 -89t67.5 -60.5t90 -22z" />
    <glyph glyph-name="Ocircumflex" unicode="&#xd4;" horiz-adv-x="825" 
d="M577 756h-65l-100 66l-102 -66h-62l111 129h107zM411 692q67 0 131.5 -20.5t115.5 -63.5t82 -109.5t31 -158.5q0 -90 -31 -156t-81 -110t-113.5 -65.5t-128.5 -21.5q-68 0 -133 20.5t-116 64t-82.5 110t-31.5 158.5q0 90 31 156t81.5 109.5t114.5 65t130 21.5zM416 62
q48 0 86.5 21.5t65.5 59t41.5 88.5t14.5 110q0 57 -15 107.5t-43 88.5t-68 60.5t-89 22.5q-48 0 -86.5 -21.5t-65.5 -59t-41.5 -88.5t-14.5 -110q0 -57 15 -107.5t42.5 -89t67.5 -60.5t90 -22z" />
    <glyph glyph-name="Odieresis" unicode="&#xd6;" horiz-adv-x="825" 
d="M376 764h-116v114h116v-114zM566 764h-116v114h116v-114zM411 692q67 0 131.5 -20.5t115.5 -63.5t82 -109.5t31 -158.5q0 -90 -31 -156t-81 -110t-113.5 -65.5t-128.5 -21.5q-68 0 -133 20.5t-116 64t-82.5 110t-31.5 158.5q0 90 31 156t81.5 109.5t114.5 65t130 21.5z
M416 62q48 0 86.5 21.5t65.5 59t41.5 88.5t14.5 110q0 57 -15 107.5t-43 88.5t-68 60.5t-89 22.5q-48 0 -86.5 -21.5t-65.5 -59t-41.5 -88.5t-14.5 -110q0 -57 15 -107.5t42.5 -89t67.5 -60.5t90 -22z" />
    <glyph glyph-name="Ograve" unicode="&#xd2;" horiz-adv-x="825" 
d="M376 885l103 -129h-63l-170 129h130zM411 692q67 0 131.5 -20.5t115.5 -63.5t82 -109.5t31 -158.5q0 -90 -31 -156t-81 -110t-113.5 -65.5t-128.5 -21.5q-68 0 -133 20.5t-116 64t-82.5 110t-31.5 158.5q0 90 31 156t81.5 109.5t114.5 65t130 21.5zM416 62
q48 0 86.5 21.5t65.5 59t41.5 88.5t14.5 110q0 57 -15 107.5t-43 88.5t-68 60.5t-89 22.5q-48 0 -86.5 -21.5t-65.5 -59t-41.5 -88.5t-14.5 -110q0 -57 15 -107.5t42.5 -89t67.5 -60.5t90 -22z" />
    <glyph glyph-name="Ohungarumlaut" unicode="&#x150;" horiz-adv-x="825" 
d="M332 756h-60l94 129h120zM517 756h-60l94 129h120zM411 692q67 0 131.5 -20.5t115.5 -63.5t82 -109.5t31 -158.5q0 -90 -31 -156t-81 -110t-113.5 -65.5t-128.5 -21.5q-68 0 -133 20.5t-116 64t-82.5 110t-31.5 158.5q0 90 31 156t81.5 109.5t114.5 65t130 21.5zM416 62
q48 0 86.5 21.5t65.5 59t41.5 88.5t14.5 110q0 57 -15 107.5t-43 88.5t-68 60.5t-89 22.5q-48 0 -86.5 -21.5t-65.5 -59t-41.5 -88.5t-14.5 -110q0 -57 15 -107.5t42.5 -89t67.5 -60.5t90 -22z" />
    <glyph glyph-name="Omacron" unicode="&#x14c;" horiz-adv-x="825" 
d="M577 790h-329v64h329v-64zM411 692q67 0 131.5 -20.5t115.5 -63.5t82 -109.5t31 -158.5q0 -90 -31 -156t-81 -110t-113.5 -65.5t-128.5 -21.5q-68 0 -133 20.5t-116 64t-82.5 110t-31.5 158.5q0 90 31 156t81.5 109.5t114.5 65t130 21.5zM416 62q48 0 86.5 21.5t65.5 59
t41.5 88.5t14.5 110q0 57 -15 107.5t-43 88.5t-68 60.5t-89 22.5q-48 0 -86.5 -21.5t-65.5 -59t-41.5 -88.5t-14.5 -110q0 -57 15 -107.5t42.5 -89t67.5 -60.5t90 -22z" />
    <glyph glyph-name="Oslash" unicode="&#xd8;" horiz-adv-x="825" 
d="M669 598q46 -43 74 -106.5t28 -151.5q0 -90 -31 -156t-81 -110t-113.5 -65.5t-128.5 -21.5q-60 0 -118.5 16t-107.5 51l-66 -75l-46 40l66 75q-42 43 -66.5 104t-24.5 142q0 90 31 156t81.5 109.5t114.5 65t130 21.5q55 0 109 -14t100 -43l59 67l46 -40zM201 341
q0 -41 7.5 -79t22.5 -70l320 364q-27 30 -63 47t-79 17q-48 0 -86.5 -21.5t-65.5 -59t-41.5 -88.5t-14.5 -110zM416 62q48 0 86.5 21.5t65.5 59t41.5 88.5t14.5 110q0 45 -9.5 86.5t-28.5 76.5l-322 -367q28 -35 66 -55t86 -20z" />
    <glyph glyph-name="Oslashacute" unicode="&#x1fe;" horiz-adv-x="825" 
d="M410 756h-63l103 129h130zM669 598q46 -43 74 -106.5t28 -151.5q0 -90 -31 -156t-81 -110t-113.5 -65.5t-128.5 -21.5q-60 0 -118.5 16t-107.5 51l-66 -75l-46 40l66 75q-42 43 -66.5 104t-24.5 142q0 90 31 156t81.5 109.5t114.5 65t130 21.5q55 0 109 -14t100 -43
l59 67l46 -40zM201 341q0 -41 7.5 -79t22.5 -70l320 364q-27 30 -63 47t-79 17q-48 0 -86.5 -21.5t-65.5 -59t-41.5 -88.5t-14.5 -110zM416 62q48 0 86.5 21.5t65.5 59t41.5 88.5t14.5 110q0 45 -9.5 86.5t-28.5 76.5l-322 -367q28 -35 66 -55t86 -20z" />
    <glyph glyph-name="Otilde" unicode="&#xd5;" horiz-adv-x="825" 
d="M421 862q20 -11 37 -17.5t30 -6.5q18 0 27.5 9t14.5 31h52q-7 -57 -32.5 -85.5t-64.5 -28.5q-20 0 -37.5 6t-40.5 17t-37.5 16.5t-29.5 5.5q-17 0 -28.5 -10t-16.5 -33h-52q2 22 9.5 43.5t20 38t30 26.5t39.5 10q17 0 36 -4.5t43 -17.5zM411 692q67 0 131.5 -20.5
t115.5 -63.5t82 -109.5t31 -158.5q0 -90 -31 -156t-81 -110t-113.5 -65.5t-128.5 -21.5q-68 0 -133 20.5t-116 64t-82.5 110t-31.5 158.5q0 90 31 156t81.5 109.5t114.5 65t130 21.5zM416 62q48 0 86.5 21.5t65.5 59t41.5 88.5t14.5 110q0 57 -15 107.5t-43 88.5t-68 60.5
t-89 22.5q-48 0 -86.5 -21.5t-65.5 -59t-41.5 -88.5t-14.5 -110q0 -57 15 -107.5t42.5 -89t67.5 -60.5t90 -22z" />
    <glyph glyph-name="OE" unicode="&#x152;" horiz-adv-x="948" 
d="M54 340q0 90 30.5 155t82 107t120.5 62.5t146 20.5q15 0 33 -1t36.5 -1.5t37 -1.5t33.5 -1h306v-75h-212v-222h189v-71h-189v-236h108h48t38.5 0.5t33 2t32.5 3.5h6l-42 -82h-333q-30 0 -60.5 -2.5t-59.5 -2.5q-75 0 -144.5 19.5t-122.5 61t-85 107t-32 157.5zM201 341
q0 -57 15 -106.5t45 -86.5t74 -58t101 -21q26 0 51.5 1t46.5 3v535q-27 2 -52 3.5t-51 1.5q-59 0 -102 -20.5t-71.5 -56.5t-42.5 -86t-14 -109z" />
    <glyph glyph-name="P" unicode="P" horiz-adv-x="587" 
d="M291 680q54 0 100 -11t79 -35t52 -63t19 -95q0 -53 -20 -91.5t-54 -63.5t-80.5 -36.5t-98.5 -11.5h-67v-273h-135v680h205zM267 340q64 0 100 33.5t36 105.5q0 71 -35.5 101t-100.5 30h-46v-270h46z" />
    <glyph glyph-name="Thorn" unicode="&#xde;" 
d="M291 560q54 0 100 -11t79 -35t52 -63t19 -95q0 -53 -20 -91.5t-54 -63.5t-80.5 -36.5t-98.5 -11.5h-67v-153h-135v680h135v-120h70zM267 220q63 0 99.5 33.5t36.5 105.5q0 71 -35.5 101t-100.5 30h-46v-270h46z" />
    <glyph glyph-name="Q" unicode="Q" horiz-adv-x="825" 
d="M586 26q26 -18 59.5 -37.5t70 -38t74 -35.5t71.5 -30v-9l-172 -50q-26 12 -57 31.5t-63.5 42t-62.5 46t-53 43.5q-9 -1 -18 -1.5t-18 -0.5q-68 0 -133 20.5t-116 64t-82.5 110t-31.5 158.5q0 90 31 156t81.5 110t114.5 65.5t130 21.5q67 0 131.5 -20.5t115.5 -64t82 -110
t31 -158.5q0 -60 -14 -109t-39 -88.5t-59 -68.5t-73 -48zM416 62q48 0 86.5 21.5t65.5 59t41.5 88.5t14.5 110q0 57 -15 107.5t-43 88.5t-68 60.5t-89 22.5q-48 0 -86.5 -21.5t-65.5 -59t-41.5 -88.5t-14.5 -110q0 -57 15 -107.5t42.5 -89t67.5 -60.5t90 -22z" />
    <glyph glyph-name="R" unicode="R" horiz-adv-x="617" 
d="M291 680q49 0 93.5 -8.5t78 -30t53.5 -58.5t20 -94q0 -68 -41 -112t-107 -67v-4q24 -33 56 -73t67 -80.5t70.5 -79t67.5 -68.5v-5h-178q-21 26 -48 61.5t-54.5 74.5t-54.5 78.5t-49 73.5h-44v-288h-135v680h205zM291 349q53 5 81.5 43t28.5 98q0 35 -9 58t-25.5 37
t-40.5 20t-54 6h-51v-262h70z" />
    <glyph glyph-name="Racute" unicode="&#x154;" horiz-adv-x="617" 
d="M306 756h-63l103 129h130zM291 680q49 0 93.5 -8.5t78 -30t53.5 -58.5t20 -94q0 -68 -41 -112t-107 -67v-4q24 -33 56 -73t67 -80.5t70.5 -79t67.5 -68.5v-5h-178q-21 26 -48 61.5t-54.5 74.5t-54.5 78.5t-49 73.5h-44v-288h-135v680h205zM291 349q53 5 81.5 43t28.5 98
q0 35 -9 58t-25.5 37t-40.5 20t-54 6h-51v-262h70z" />
    <glyph glyph-name="Rcaron" unicode="&#x158;" horiz-adv-x="617" 
d="M144 885h66l100 -66l102 66h61l-111 -129h-107zM291 680q49 0 93.5 -8.5t78 -30t53.5 -58.5t20 -94q0 -68 -41 -112t-107 -67v-4q24 -33 56 -73t67 -80.5t70.5 -79t67.5 -68.5v-5h-178q-21 26 -48 61.5t-54.5 74.5t-54.5 78.5t-49 73.5h-44v-288h-135v680h205zM291 349
q53 5 81.5 43t28.5 98q0 35 -9 58t-25.5 37t-40.5 20t-54 6h-51v-262h70z" />
    <glyph glyph-name="uni0156" unicode="&#x156;" horiz-adv-x="617" 
d="M291 680q49 0 93.5 -8.5t78 -30t53.5 -58.5t20 -94q0 -68 -41 -112t-107 -67v-4q24 -33 56 -73t67 -80.5t70.5 -79t67.5 -68.5v-5h-178q-21 26 -48 61.5t-54.5 74.5t-54.5 78.5t-49 73.5h-44v-288h-135v680h205zM291 349q53 5 81.5 43t28.5 98q0 35 -9 58t-25.5 37
t-40.5 20t-54 6h-51v-262h70zM370 -69q-2 -17 -9 -37t-16.5 -40t-21 -38.5t-22.5 -32.5h-53q12 35 16.5 72.5t4.5 75.5h101z" />
    <glyph glyph-name="S" unicode="S" horiz-adv-x="520" 
d="M425 573q-30 28 -60.5 39t-67.5 11q-17 0 -34 -5t-31.5 -15.5t-23.5 -27.5t-9 -40q0 -18 5.5 -33t17.5 -28.5t32 -28t49 -31.5q42 -25 74 -49.5t54.5 -51.5t34 -58.5t11.5 -70.5q0 -51 -19 -88t-50.5 -61.5t-73 -36t-86.5 -11.5q-27 0 -55.5 6t-54.5 16.5t-49 24.5
t-39 29l-17 116h15q50 -59 101.5 -84.5t96.5 -25.5q46 0 74 25t28 72q0 24 -10 44t-28 38t-42.5 35t-52.5 34q-35 21 -61 40.5t-44 41t-27 48t-9 62.5q0 47 20 82t50.5 57.5t68 33.5t72.5 11q52 0 88 -9.5t59 -23.5l8 -87h-15v0z" />
    <glyph glyph-name="Sacute" unicode="&#x15a;" horiz-adv-x="520" 
d="M257 756h-63l103 129h130zM425 573q-30 28 -60.5 39t-67.5 11q-17 0 -34 -5t-31.5 -15.5t-23.5 -27.5t-9 -40q0 -18 5.5 -33t17.5 -28.5t32 -28t49 -31.5q42 -25 74 -49.5t54.5 -51.5t34 -58.5t11.5 -70.5q0 -51 -19 -88t-50.5 -61.5t-73 -36t-86.5 -11.5q-27 0 -55.5 6
t-54.5 16.5t-49 24.5t-39 29l-17 116h15q50 -59 101.5 -84.5t96.5 -25.5q46 0 74 25t28 72q0 24 -10 44t-28 38t-42.5 35t-52.5 34q-35 21 -61 40.5t-44 41t-27 48t-9 62.5q0 47 20 82t50.5 57.5t68 33.5t72.5 11q52 0 88 -9.5t59 -23.5l8 -87h-15z" />
    <glyph glyph-name="Scaron" unicode="&#x160;" horiz-adv-x="520" 
d="M95 885h66l100 -66l102 66h61l-111 -129h-107zM425 573q-30 28 -60.5 39t-67.5 11q-17 0 -34 -5t-31.5 -15.5t-23.5 -27.5t-9 -40q0 -18 5.5 -33t17.5 -28.5t32 -28t49 -31.5q42 -25 74 -49.5t54.5 -51.5t34 -58.5t11.5 -70.5q0 -51 -19 -88t-50.5 -61.5t-73 -36
t-86.5 -11.5q-27 0 -55.5 6t-54.5 16.5t-49 24.5t-39 29l-17 116h15q50 -59 101.5 -84.5t96.5 -25.5q46 0 74 25t28 72q0 24 -10 44t-28 38t-42.5 35t-52.5 34q-35 21 -61 40.5t-44 41t-27 48t-9 62.5q0 47 20 82t50.5 57.5t68 33.5t72.5 11q52 0 88 -9.5t59 -23.5l8 -87
h-15z" />
    <glyph glyph-name="Scedilla" unicode="&#x15e;" horiz-adv-x="520" 
d="M48 179q50 -59 101.5 -84.5t96.5 -25.5q46 0 74 25t28 72q0 24 -10 44t-28 38t-42.5 35t-52.5 34q-35 21 -61 40.5t-44 41t-27 48t-9 62.5q0 47 20 82t50.5 57.5t68 33.5t72.5 11q52 0 88 -9.5t59 -23.5l8 -87h-15q-30 28 -60.5 39t-67.5 11q-17 0 -34 -5t-31.5 -15.5
t-23.5 -27.5t-9 -40q0 -18 5.5 -33t17.5 -28.5t32 -28t49 -31.5q42 -25 74 -49.5t54.5 -51.5t34 -58.5t11.5 -70.5q0 -47 -16 -82t-43 -59t-63 -37.5t-76 -17.5l-15 -31l11 -3q31 -8 53.5 -25t22.5 -52q0 -27 -15 -45.5t-38.5 -30t-52.5 -17t-57 -5.5l-15 37l3 5
q14 0 31 1.5t32 7t25 14.5t10 24q0 24 -22 34t-51 15l-1 7l36 63q-53 3 -103.5 25t-82.5 51l-17 116h15z" />
    <glyph glyph-name="Scircumflex" unicode="&#x15c;" horiz-adv-x="520" 
d="M424 756h-65l-100 66l-102 -66h-62l111 129h107zM425 573q-30 28 -60.5 39t-67.5 11q-17 0 -34 -5t-31.5 -15.5t-23.5 -27.5t-9 -40q0 -18 5.5 -33t17.5 -28.5t32 -28t49 -31.5q42 -25 74 -49.5t54.5 -51.5t34 -58.5t11.5 -70.5q0 -51 -19 -88t-50.5 -61.5t-73 -36
t-86.5 -11.5q-27 0 -55.5 6t-54.5 16.5t-49 24.5t-39 29l-17 116h15q50 -59 101.5 -84.5t96.5 -25.5q46 0 74 25t28 72q0 24 -10 44t-28 38t-42.5 35t-52.5 34q-35 21 -61 40.5t-44 41t-27 48t-9 62.5q0 47 20 82t50.5 57.5t68 33.5t72.5 11q52 0 88 -9.5t59 -23.5l8 -87
h-15z" />
    <glyph glyph-name="uni0218" unicode="&#x218;" horiz-adv-x="520" 
d="M425 573q-30 28 -60.5 39t-67.5 11q-17 0 -34 -5t-31.5 -15.5t-23.5 -27.5t-9 -40q0 -18 5.5 -33t17.5 -28.5t32 -28t49 -31.5q42 -25 74 -49.5t54.5 -51.5t34 -58.5t11.5 -70.5q0 -51 -19 -88t-50.5 -61.5t-73 -36t-86.5 -11.5q-27 0 -55.5 6t-54.5 16.5t-49 24.5
t-39 29l-17 116h15q50 -59 101.5 -84.5t96.5 -25.5q46 0 74 25t28 72q0 24 -10 44t-28 38t-42.5 35t-52.5 34q-35 21 -61 40.5t-44 41t-27 48t-9 62.5q0 47 20 82t50.5 57.5t68 33.5t72.5 11q52 0 88 -9.5t59 -23.5l8 -87h-15zM321 -69q-2 -17 -9 -37t-16.5 -40t-21 -38.5
t-22.5 -32.5h-53q12 35 16.5 72.5t4.5 75.5h101z" />
    <glyph glyph-name="uni1E9E" unicode="&#x1e9e;" horiz-adv-x="715" 
d="M466 -13q-46 0 -86.5 14.5t-69.5 37.5l-17 112h15q45 -48 79.5 -67t69.5 -19q41 0 63 24t22 60q0 13 -4.5 25t-15.5 26t-29 31t-45 40q-32 27 -52.5 51.5t-32.5 47.5t-17 45t-5 45q0 51 29 89.5t91 64.5q-9 1 -28.5 1.5t-36.5 0.5q-48 0 -81.5 -9t-54.5 -30t-31 -55
t-10 -83v-439h-137v451q0 122 73.5 181t213.5 59q68 0 125.5 -4t100.5 -10l9 -68q-72 -14 -104 -43t-32 -76q0 -15 2.5 -28t10.5 -27t22.5 -30.5t37.5 -37.5q37 -33 62 -58.5t40 -48t21.5 -45.5t6.5 -51q0 -40 -15 -72.5t-42 -56t-65 -36t-83 -12.5z" />
    <glyph glyph-name="uni018F" unicode="&#x18f;" horiz-adv-x="755" 
d="M335 693q73 0 139 -22t116.5 -66.5t80.5 -111t30 -155.5q0 -87 -28.5 -153t-75.5 -110t-109 -66.5t-128 -22.5q-68 0 -123.5 23.5t-94.5 67t-60.5 104.5t-21.5 136q0 25 3 54h491q-12 123 -77.5 184t-164.5 61q-61 0 -108.5 -19.5t-85.5 -54.5h-17l7 88q38 27 97 45
t130 18zM375 55q34 0 66 15.5t56.5 46t40 76.5t18.5 107h-346q-1 -8 -1 -16v-16q0 -49 11.5 -88.5t33.5 -67t52.5 -42.5t68.5 -15z" />
    <glyph glyph-name="T" unicode="T" horiz-adv-x="500" 
d="M10 680h479v-75h-171v-605h-137v605h-171v75z" />
    <glyph glyph-name="Tbar" unicode="&#x166;" horiz-adv-x="500" 
d="M318 605v-222h103v-69h-103v-314h-137v314h-103v69h103v222h-171v75h479v-75h-171z" />
    <glyph glyph-name="Tcaron" unicode="&#x164;" horiz-adv-x="500" 
d="M85 885h66l100 -66l102 66h61l-111 -129h-107zM10 680h479v-75h-171v-605h-137v605h-171v75z" />
    <glyph glyph-name="uni0162" unicode="&#x162;" horiz-adv-x="500" 
d="M10 680h479v-75h-171v-605h-43l-21 -43l11 -3q31 -8 53.5 -25t22.5 -52q0 -27 -15 -45.5t-38.5 -30t-52.5 -17t-57 -5.5l-15 37l3 5q14 0 31 1.5t32 7t25 14.5t10 24q0 24 -22 34t-51 15l-1 7l43 76h-52v605h-171v75z" />
    <glyph glyph-name="uni021A" unicode="&#x21a;" horiz-adv-x="500" 
d="M10 680h479v-75h-171v-605h-137v605h-171v75zM311 -69q-2 -17 -9 -37t-16.5 -40t-21 -38.5t-22.5 -32.5h-53q12 35 16.5 72.5t4.5 75.5h101z" />
    <glyph glyph-name="U" unicode="U" horiz-adv-x="723" 
d="M369 -13q-71 0 -125 17.5t-90.5 50.5t-55 79.5t-18.5 104.5v441h137v-422q0 -96 42 -144t120 -48q82 0 127.5 47t45.5 145v422h91v-441q0 -58 -19 -104.5t-54.5 -79.5t-86 -50.5t-114.5 -17.5z" />
    <glyph glyph-name="Uacute" unicode="&#xda;" horiz-adv-x="723" 
d="M364 756h-63l103 129h130zM369 -13q-71 0 -125 17.5t-90.5 50.5t-55 79.5t-18.5 104.5v441h137v-422q0 -96 42 -144t120 -48q82 0 127.5 47t45.5 145v422h91v-441q0 -58 -19 -104.5t-54.5 -79.5t-86 -50.5t-114.5 -17.5z" />
    <glyph glyph-name="Ubreve" unicode="&#x16c;" horiz-adv-x="723" 
d="M270 885q5 -31 30.5 -49.5t63.5 -18.5q43 0 67.5 18t33.5 50h57q-9 -63 -49 -98.5t-112 -35.5q-69 0 -106 36t-44 98h59zM369 -13q-71 0 -125 17.5t-90.5 50.5t-55 79.5t-18.5 104.5v441h137v-422q0 -96 42 -144t120 -48q82 0 127.5 47t45.5 145v422h91v-441
q0 -58 -19 -104.5t-54.5 -79.5t-86 -50.5t-114.5 -17.5z" />
    <glyph glyph-name="Ucircumflex" unicode="&#xdb;" horiz-adv-x="723" 
d="M531 756h-65l-100 66l-102 -66h-62l111 129h107zM369 -13q-71 0 -125 17.5t-90.5 50.5t-55 79.5t-18.5 104.5v441h137v-422q0 -96 42 -144t120 -48q82 0 127.5 47t45.5 145v422h91v-441q0 -58 -19 -104.5t-54.5 -79.5t-86 -50.5t-114.5 -17.5z" />
    <glyph glyph-name="Udieresis" unicode="&#xdc;" horiz-adv-x="723" 
d="M330 764h-116v114h116v-114zM520 764h-116v114h116v-114zM369 -13q-71 0 -125 17.5t-90.5 50.5t-55 79.5t-18.5 104.5v441h137v-422q0 -96 42 -144t120 -48q82 0 127.5 47t45.5 145v422h91v-441q0 -58 -19 -104.5t-54.5 -79.5t-86 -50.5t-114.5 -17.5z" />
    <glyph glyph-name="Ugrave" unicode="&#xd9;" horiz-adv-x="723" 
d="M330 885l103 -129h-63l-170 129h130zM369 -13q-71 0 -125 17.5t-90.5 50.5t-55 79.5t-18.5 104.5v441h137v-422q0 -96 42 -144t120 -48q82 0 127.5 47t45.5 145v422h91v-441q0 -58 -19 -104.5t-54.5 -79.5t-86 -50.5t-114.5 -17.5z" />
    <glyph glyph-name="Uhungarumlaut" unicode="&#x170;" horiz-adv-x="723" 
d="M286 756h-60l94 129h120zM471 756h-60l94 129h120zM369 -13q-71 0 -125 17.5t-90.5 50.5t-55 79.5t-18.5 104.5v441h137v-422q0 -96 42 -144t120 -48q82 0 127.5 47t45.5 145v422h91v-441q0 -58 -19 -104.5t-54.5 -79.5t-86 -50.5t-114.5 -17.5z" />
    <glyph glyph-name="Umacron" unicode="&#x16a;" horiz-adv-x="723" 
d="M531 790h-329v64h329v-64zM369 -13q-71 0 -125 17.5t-90.5 50.5t-55 79.5t-18.5 104.5v441h137v-422q0 -96 42 -144t120 -48q82 0 127.5 47t45.5 145v422h91v-441q0 -58 -19 -104.5t-54.5 -79.5t-86 -50.5t-114.5 -17.5z" />
    <glyph glyph-name="Uogonek" unicode="&#x172;" horiz-adv-x="723" 
d="M80 680h137v-422q0 -96 42 -144t120 -48q82 0 127.5 47t45.5 145v422h91v-441q0 -93 -45 -150.5t-121 -86.5q-31 -12 -51.5 -25.5t-32.5 -27.5t-17 -27t-5 -24q0 -37 45 -37q17 0 32 4t27 9h7l-16 -40q-15 -8 -34 -13.5t-45 -5.5q-41 0 -69 18t-28 54q0 29 22 53.5
t63 46.5h-6q-71 0 -125 17.5t-90.5 50.5t-55 79.5t-18.5 104.5v441z" />
    <glyph glyph-name="Uring" unicode="&#x16e;" horiz-adv-x="723" 
d="M367 729q-26 0 -47 9t-37 24.5t-24.5 36t-8.5 43.5q0 24 8.5 44.5t24.5 35.5t37 23.5t47 8.5q25 0 46.5 -8.5t37.5 -23.5t24.5 -35.5t8.5 -44.5t-8.5 -44.5t-24.5 -36t-37.5 -24t-46.5 -8.5zM367 771q34 0 49.5 21t15.5 50q0 26 -15.5 48t-50.5 22q-32 0 -48 -20t-16 -50
q0 -28 16.5 -49.5t48.5 -21.5zM369 -13q-71 0 -125 17.5t-90.5 50.5t-55 79.5t-18.5 104.5v441h137v-422q0 -96 42 -144t120 -48q82 0 127.5 47t45.5 145v422h91v-441q0 -58 -19 -104.5t-54.5 -79.5t-86 -50.5t-114.5 -17.5z" />
    <glyph glyph-name="Utilde" unicode="&#x168;" horiz-adv-x="723" 
d="M375 862q20 -11 37 -17.5t30 -6.5q18 0 27.5 9t14.5 31h52q-7 -57 -32.5 -85.5t-64.5 -28.5q-20 0 -37.5 6t-40.5 17t-37.5 16.5t-29.5 5.5q-17 0 -28.5 -10t-16.5 -33h-52q2 22 9.5 43.5t20 38t30 26.5t39.5 10q17 0 36 -4.5t43 -17.5zM369 -13q-71 0 -125 17.5
t-90.5 50.5t-55 79.5t-18.5 104.5v441h137v-422q0 -96 42 -144t120 -48q82 0 127.5 47t45.5 145v422h91v-441q0 -58 -19 -104.5t-54.5 -79.5t-86 -50.5t-114.5 -17.5z" />
    <glyph glyph-name="V" unicode="V" horiz-adv-x="658" 
d="M272 0l-270 680h151l202 -533h5l198 533h98l-268 -680h-116z" />
    <glyph glyph-name="W" unicode="W" horiz-adv-x="984" 
d="M488 495l-174 -495h-106l-192 680h141l138 -508h3l167 508h93l180 -510h3l127 510h100l-194 -680h-101l-180 495h-5z" />
    <glyph glyph-name="Wacute" unicode="&#x1e82;" horiz-adv-x="984" 
d="M507 756h-63l103 129h130zM488 495l-174 -495h-106l-192 680h141l138 -508h3l167 508h93l180 -510h3l127 510h100l-194 -680h-101l-180 495h-5z" />
    <glyph glyph-name="Wcircumflex" unicode="&#x174;" horiz-adv-x="984" 
d="M674 756h-65l-100 66l-102 -66h-62l111 129h107zM488 495l-174 -495h-106l-192 680h141l138 -508h3l167 508h93l180 -510h3l127 510h100l-194 -680h-101l-180 495h-5z" />
    <glyph glyph-name="Wdieresis" unicode="&#x1e84;" horiz-adv-x="984" 
d="M473 764h-116v114h116v-114zM663 764h-116v114h116v-114zM488 495l-174 -495h-106l-192 680h141l138 -508h3l167 508h93l180 -510h3l127 510h100l-194 -680h-101l-180 495h-5z" />
    <glyph glyph-name="Wgrave" unicode="&#x1e80;" horiz-adv-x="984" 
d="M473 885l103 -129h-63l-170 129h130zM488 495l-174 -495h-106l-192 680h141l138 -508h3l167 508h93l180 -510h3l127 510h100l-194 -680h-101l-180 495h-5z" />
    <glyph glyph-name="X" unicode="X" horiz-adv-x="636" 
d="M33 680h163l145 -253h4l152 253h102l-207 -321l138 -225q27 -44 49.5 -77.5t38.5 -50.5v-6h-170l-157 270h-4l-165 -270h-105l223 343z" />
    <glyph glyph-name="Y" unicode="Y" horiz-adv-x="595" 
d="M165 680l168 -280h6l162 280h96l-225 -369v-311h-137v305l-237 375h167z" />
    <glyph glyph-name="Yacute" unicode="&#xdd;" horiz-adv-x="595" 
d="M305 756h-63l103 129h130zM165 680l168 -280h6l162 280h96l-225 -369v-311h-137v305l-237 375h167z" />
    <glyph glyph-name="Ycircumflex" unicode="&#x176;" horiz-adv-x="595" 
d="M472 756h-65l-100 66l-102 -66h-62l111 129h107zM165 680l168 -280h6l162 280h96l-225 -369v-311h-137v305l-237 375h167z" />
    <glyph glyph-name="Ydieresis" unicode="&#x178;" horiz-adv-x="595" 
d="M271 764h-116v114h116v-114zM461 764h-116v114h116v-114zM165 680l168 -280h6l162 280h96l-225 -369v-311h-137v305l-237 375h167z" />
    <glyph glyph-name="Ygrave" unicode="&#x1ef2;" horiz-adv-x="595" 
d="M271 885l103 -129h-63l-170 129h130zM165 680l168 -280h6l162 280h96l-225 -369v-311h-137v305l-237 375h167z" />
    <glyph glyph-name="Z" unicode="Z" horiz-adv-x="690" 
d="M625 680v-32l-390 -565v-6q110 0 182 0.5t119.5 1.5t77 3t55.5 5h6l-47 -87h-584v36l387 563v6h-353l18 75h529z" />
    <glyph glyph-name="Zacute" unicode="&#x179;" horiz-adv-x="690" 
d="M342 756h-63l103 129h130zM625 680v-32l-390 -565v-6q110 0 182 0.5t119.5 1.5t77 3t55.5 5h6l-47 -87h-584v36l387 563v6h-353l18 75h529z" />
    <glyph glyph-name="Zcaron" unicode="&#x17d;" horiz-adv-x="690" 
d="M180 885h66l100 -66l102 66h61l-111 -129h-107zM625 680v-32l-390 -565v-6q110 0 182 0.5t119.5 1.5t77 3t55.5 5h6l-47 -87h-584v36l387 563v6h-353l18 75h529z" />
    <glyph glyph-name="Zdotaccent" unicode="&#x17b;" horiz-adv-x="690" 
d="M410 760h-130v118h130v-118zM625 680v-32l-390 -565v-6q110 0 182 0.5t119.5 1.5t77 3t55.5 5h6l-47 -87h-584v36l387 563v6h-353l18 75h529z" />
    <glyph glyph-name="a" unicode="a" horiz-adv-x="527" 
d="M342 69q-26 -39 -58.5 -59t-81.5 -20q-74 0 -112 36.5t-38 94.5q0 31 10 53.5t27.5 38t41 25.5t50.5 17q48 12 78 20t47.5 14.5t24 13t6.5 14.5v5q0 56 -27 79t-76 23q-15 0 -33 -3.5t-37 -11t-36.5 -19t-31.5 -27.5h-10l8 75q35 28 80.5 40t83.5 12q106 0 152.5 -46.5
t46.5 -123.5v-229q0 -23 1.5 -45.5t6.5 -45.5h-107zM246 59q35 0 60.5 25.5t30.5 63.5v101q-48 -13 -79.5 -24t-51 -24t-27 -29t-7.5 -39q0 -33 20 -53.5t54 -20.5z" />
    <glyph glyph-name="aacute" unicode="&#xe1;" horiz-adv-x="527" 
d="M253 571h-61l96 142h128zM342 69q-26 -39 -58.5 -59t-81.5 -20q-74 0 -112 36.5t-38 94.5q0 31 10 53.5t27.5 38t41 25.5t50.5 17q48 12 78 20t47.5 14.5t24 13t6.5 14.5v5q0 56 -27 79t-76 23q-15 0 -33 -3.5t-37 -11t-36.5 -19t-31.5 -27.5h-10l8 75q35 28 80.5 40
t83.5 12q106 0 152.5 -46.5t46.5 -123.5v-229q0 -23 1.5 -45.5t6.5 -45.5h-107zM246 59q35 0 60.5 25.5t30.5 63.5v101q-48 -13 -79.5 -24t-51 -24t-27 -29t-7.5 -39q0 -33 20 -53.5t54 -20.5z" />
    <glyph glyph-name="abreve" unicode="&#x103;" horiz-adv-x="527" 
d="M167 709q4 -34 30 -53t64 -19q86 0 101 72h57q-8 -66 -48.5 -102t-112.5 -36q-69 0 -107 36.5t-43 101.5h59zM342 69q-26 -39 -58.5 -59t-81.5 -20q-74 0 -112 36.5t-38 94.5q0 31 10 53.5t27.5 38t41 25.5t50.5 17q48 12 78 20t47.5 14.5t24 13t6.5 14.5v5q0 56 -27 79
t-76 23q-15 0 -33 -3.5t-37 -11t-36.5 -19t-31.5 -27.5h-10l8 75q35 28 80.5 40t83.5 12q106 0 152.5 -46.5t46.5 -123.5v-229q0 -23 1.5 -45.5t6.5 -45.5h-107zM246 59q35 0 60.5 25.5t30.5 63.5v101q-48 -13 -79.5 -24t-51 -24t-27 -29t-7.5 -39q0 -33 20 -53.5t54 -20.5z
" />
    <glyph glyph-name="acircumflex" unicode="&#xe2;" horiz-adv-x="527" 
d="M426 571h-64l-100 79l-102 -79h-59l109 142h107zM342 69q-26 -39 -58.5 -59t-81.5 -20q-74 0 -112 36.5t-38 94.5q0 31 10 53.5t27.5 38t41 25.5t50.5 17q48 12 78 20t47.5 14.5t24 13t6.5 14.5v5q0 56 -27 79t-76 23q-15 0 -33 -3.5t-37 -11t-36.5 -19t-31.5 -27.5h-10
l8 75q35 28 80.5 40t83.5 12q106 0 152.5 -46.5t46.5 -123.5v-229q0 -23 1.5 -45.5t6.5 -45.5h-107zM246 59q35 0 60.5 25.5t30.5 63.5v101q-48 -13 -79.5 -24t-51 -24t-27 -29t-7.5 -39q0 -33 20 -53.5t54 -20.5z" />
    <glyph glyph-name="adieresis" unicode="&#xe4;" horiz-adv-x="527" 
d="M227 585h-116v114h116v-114zM417 585h-116v114h116v-114zM342 69q-26 -39 -58.5 -59t-81.5 -20q-74 0 -112 36.5t-38 94.5q0 31 10 53.5t27.5 38t41 25.5t50.5 17q48 12 78 20t47.5 14.5t24 13t6.5 14.5v5q0 56 -27 79t-76 23q-15 0 -33 -3.5t-37 -11t-36.5 -19
t-31.5 -27.5h-10l8 75q35 28 80.5 40t83.5 12q106 0 152.5 -46.5t46.5 -123.5v-229q0 -23 1.5 -45.5t6.5 -45.5h-107zM246 59q35 0 60.5 25.5t30.5 63.5v101q-48 -13 -79.5 -24t-51 -24t-27 -29t-7.5 -39q0 -33 20 -53.5t54 -20.5z" />
    <glyph glyph-name="agrave" unicode="&#xe0;" horiz-adv-x="527" 
d="M336 571h-61l-163 142h127zM342 69q-26 -39 -58.5 -59t-81.5 -20q-74 0 -112 36.5t-38 94.5q0 31 10 53.5t27.5 38t41 25.5t50.5 17q48 12 78 20t47.5 14.5t24 13t6.5 14.5v5q0 56 -27 79t-76 23q-15 0 -33 -3.5t-37 -11t-36.5 -19t-31.5 -27.5h-10l8 75q35 28 80.5 40
t83.5 12q106 0 152.5 -46.5t46.5 -123.5v-229q0 -23 1.5 -45.5t6.5 -45.5h-107zM246 59q35 0 60.5 25.5t30.5 63.5v101q-48 -13 -79.5 -24t-51 -24t-27 -29t-7.5 -39q0 -33 20 -53.5t54 -20.5z" />
    <glyph glyph-name="amacron" unicode="&#x101;" horiz-adv-x="527" 
d="M428 610h-329v64h329v-64zM342 69q-26 -39 -58.5 -59t-81.5 -20q-74 0 -112 36.5t-38 94.5q0 31 10 53.5t27.5 38t41 25.5t50.5 17q48 12 78 20t47.5 14.5t24 13t6.5 14.5v5q0 56 -27 79t-76 23q-15 0 -33 -3.5t-37 -11t-36.5 -19t-31.5 -27.5h-10l8 75q35 28 80.5 40
t83.5 12q106 0 152.5 -46.5t46.5 -123.5v-229q0 -23 1.5 -45.5t6.5 -45.5h-107zM246 59q35 0 60.5 25.5t30.5 63.5v101q-48 -13 -79.5 -24t-51 -24t-27 -29t-7.5 -39q0 -33 20 -53.5t54 -20.5z" />
    <glyph glyph-name="aogonek" unicode="&#x105;" horiz-adv-x="527" 
d="M52 121q0 31 10 53.5t27.5 38t41 25.5t50.5 17q48 12 78 20t47.5 14.5t24 13t6.5 14.5v5q0 56 -27 79t-76 23q-15 0 -33 -3.5t-37 -11t-36.5 -19t-31.5 -27.5h-10l8 75q35 28 80.5 40t83.5 12q106 0 152.5 -46.5t46.5 -123.5v-229q0 -23 1.5 -45.5t6.5 -45.5
q-61 -28 -84.5 -51t-23.5 -51q0 -18 12 -27.5t33 -9.5q17 0 32 4t27 9h7l-16 -40q-15 -8 -34.5 -13.5t-45.5 -5.5q-41 0 -68.5 18t-27.5 54q0 33 28.5 60.5t85.5 52.5h-32l-16 69q-26 -39 -58.5 -59t-81.5 -20q-74 0 -112 36.5t-38 94.5zM172 133q0 -33 20 -53.5t54 -20.5
q35 0 60.5 25.5t30.5 63.5v101q-48 -13 -79.5 -24t-51 -24t-27 -29t-7.5 -39z" />
    <glyph glyph-name="aring" unicode="&#xe5;" horiz-adv-x="527" 
d="M264 547q-26 0 -47.5 9.5t-37 25t-24 36.5t-8.5 45t8.5 45t24 36.5t37 24.5t47.5 9t47.5 -9t37 -24.5t24 -36.5t8.5 -45q0 -49 -32.5 -82.5t-84.5 -33.5zM264 589q35 0 50 22t15 52q0 27 -15.5 50t-50.5 23q-32 0 -48 -21t-16 -52q0 -29 16 -51.5t49 -22.5zM342 69
q-26 -39 -58.5 -59t-81.5 -20q-74 0 -112 36.5t-38 94.5q0 31 10 53.5t27.5 38t41 25.5t50.5 17q48 12 78 20t47.5 14.5t24 13t6.5 14.5v5q0 56 -27 79t-76 23q-15 0 -33 -3.5t-37 -11t-36.5 -19t-31.5 -27.5h-10l8 75q35 28 80.5 40t83.5 12q106 0 152.5 -46.5t46.5 -123.5
v-229q0 -23 1.5 -45.5t6.5 -45.5h-107zM246 59q35 0 60.5 25.5t30.5 63.5v101q-48 -13 -79.5 -24t-51 -24t-27 -29t-7.5 -39q0 -33 20 -53.5t54 -20.5z" />
    <glyph glyph-name="aringacute" unicode="&#x1fb;" horiz-adv-x="527" 
d="M264 547q-26 0 -47.5 9.5t-37 25t-24 36.5t-8.5 45q0 33 16 60t43 41l82 121h128l-126 -110q42 -8 66.5 -39t24.5 -73q0 -49 -32.5 -82.5t-84.5 -33.5zM329 663q0 27 -15.5 50t-50.5 23q-32 0 -48 -21t-16 -52q0 -29 16 -51.5t49 -22.5q35 0 50 22t15 52zM457 91
q0 -23 1.5 -45.5t6.5 -45.5h-107l-16 69q-26 -39 -58.5 -59t-81.5 -20q-74 0 -112 36.5t-38 94.5q0 31 10 53.5t27.5 38t41 25.5t50.5 17q48 12 78 20t47.5 14.5t24 13t6.5 14.5v5q0 56 -27 79t-76 23q-15 0 -33 -3.5t-37 -11t-36.5 -19t-31.5 -27.5h-10l8 75q35 28 80.5 40
t83.5 12q106 0 152.5 -46.5t46.5 -123.5v-229zM337 249q-48 -13 -79.5 -24t-51 -24t-27 -29t-7.5 -39q0 -33 20 -53.5t54 -20.5q35 0 60.5 25.5t30.5 63.5v101z" />
    <glyph glyph-name="atilde" unicode="&#xe3;" horiz-adv-x="527" 
d="M273 683q20 -11 37 -17.5t30 -6.5q18 0 27.5 9t14.5 31h52q-7 -57 -32.5 -85.5t-64.5 -28.5q-20 0 -37.5 6t-40.5 17t-37.5 16.5t-29.5 5.5q-17 0 -28.5 -10t-16.5 -33h-52q2 22 9.5 43.5t20 38t30 26.5t39.5 10q17 0 36 -4.5t43 -17.5zM342 69q-26 -39 -58.5 -59
t-81.5 -20q-74 0 -112 36.5t-38 94.5q0 31 10 53.5t27.5 38t41 25.5t50.5 17q48 12 78 20t47.5 14.5t24 13t6.5 14.5v5q0 56 -27 79t-76 23q-15 0 -33 -3.5t-37 -11t-36.5 -19t-31.5 -27.5h-10l8 75q35 28 80.5 40t83.5 12q106 0 152.5 -46.5t46.5 -123.5v-229
q0 -23 1.5 -45.5t6.5 -45.5h-107zM246 59q35 0 60.5 25.5t30.5 63.5v101q-48 -13 -79.5 -24t-51 -24t-27 -29t-7.5 -39q0 -33 20 -53.5t54 -20.5z" />
    <glyph glyph-name="ae" unicode="&#xe6;" horiz-adv-x="817" 
d="M771 246h-314q3 -49 17 -83.5t35.5 -56.5t50 -32.5t59.5 -10.5q39 0 74.5 12.5t60.5 41.5h12l-17 -83q-26 -21 -68 -32.5t-93 -11.5q-71 0 -121.5 23.5t-81.5 68.5h-2q-25 -43 -66 -67.5t-109 -24.5q-72 0 -114 34.5t-42 96.5q0 31 10 53.5t27.5 38t41 25.5t50.5 17
q48 12 78 20t47.5 14.5t24 12.5t6.5 14v5q0 57 -27 80t-76 23q-15 0 -33 -3.5t-37 -11t-36.5 -19t-31.5 -27.5h-10l8 75q35 28 80.5 40t83.5 12q63 0 100.5 -16t60.5 -45h2q22 26 59.5 43.5t87.5 17.5q104 0 153.5 -56t49.5 -149v-39zM658 312q0 56 -23.5 89t-66.5 33
q-17 0 -34.5 -6.5t-33 -22t-27 -41t-15.5 -62.5h200v10zM337 246q-48 -13 -79.5 -23.5t-51 -22.5t-27 -28t-7.5 -39q0 -33 20 -53.5t54 -20.5q35 0 60.5 25.5t30.5 63.5v98z" />
    <glyph glyph-name="aeacute" unicode="&#x1fd;" horiz-adv-x="817" 
d="M413 571h-61l96 142h128zM771 246h-314q3 -49 17 -83.5t35.5 -56.5t50 -32.5t59.5 -10.5q39 0 74.5 12.5t60.5 41.5h12l-17 -83q-26 -21 -68 -32.5t-93 -11.5q-71 0 -121.5 23.5t-81.5 68.5h-2q-25 -43 -66 -67.5t-109 -24.5q-72 0 -114 34.5t-42 96.5q0 31 10 53.5
t27.5 38t41 25.5t50.5 17q48 12 78 20t47.5 14.5t24 12.5t6.5 14v5q0 57 -27 80t-76 23q-15 0 -33 -3.5t-37 -11t-36.5 -19t-31.5 -27.5h-10l8 75q35 28 80.5 40t83.5 12q63 0 100.5 -16t60.5 -45h2q22 26 59.5 43.5t87.5 17.5q104 0 153.5 -56t49.5 -149v-39zM658 312
q0 56 -23.5 89t-66.5 33q-17 0 -34.5 -6.5t-33 -22t-27 -41t-15.5 -62.5h200v10zM337 246q-48 -13 -79.5 -23.5t-51 -22.5t-27 -28t-7.5 -39q0 -33 20 -53.5t54 -20.5q35 0 60.5 25.5t30.5 63.5v98z" />
    <glyph glyph-name="b" unicode="b" horiz-adv-x="596" 
d="M76 709l125 13v-325h2q20 39 58 66t95 27q91 0 139.5 -62.5t48.5 -178.5q0 -58 -14 -105.5t-41 -81.5t-66.5 -53t-89.5 -19q-85 0 -130 66h-2v-56h-125v709zM317 417q-26 0 -49 -15.5t-40 -42.5t-27.5 -63t-10.5 -78v-10q0 -38 9 -65.5t25 -45.5t36.5 -26.5t43.5 -8.5
q51 0 81 49t30 135q0 81 -25.5 126t-72.5 45z" />
    <glyph glyph-name="c" unicode="c" horiz-adv-x="477" 
d="M304 490q43 0 73.5 -8t53.5 -22l11 -67h-12q-22 18 -47 26t-52 8q-34 0 -61 -13.5t-46.5 -38t-30 -58.5t-10.5 -75q0 -42 10.5 -76.5t30 -58.5t46.5 -37.5t60 -13.5q35 0 65.5 12.5t50.5 34.5h12l-16 -76q-22 -17 -56.5 -27t-81.5 -10q-52 0 -98 15.5t-80.5 46.5
t-54.5 77t-20 108q0 58 19 105t52.5 80t80 50.5t101.5 17.5z" />
    <glyph glyph-name="cacute" unicode="&#x107;" horiz-adv-x="477" 
d="M272 571h-61l96 142h128zM304 490q43 0 73.5 -8t53.5 -22l11 -67h-12q-22 18 -47 26t-52 8q-34 0 -61 -13.5t-46.5 -38t-30 -58.5t-10.5 -75q0 -42 10.5 -76.5t30 -58.5t46.5 -37.5t60 -13.5q35 0 65.5 12.5t50.5 34.5h12l-16 -76q-22 -17 -56.5 -27t-81.5 -10
q-52 0 -98 15.5t-80.5 46.5t-54.5 77t-20 108q0 58 19 105t52.5 80t80 50.5t101.5 17.5z" />
    <glyph glyph-name="ccaron" unicode="&#x10d;" horiz-adv-x="477" 
d="M120 713h64l100 -79l102 79h59l-109 -142h-107zM304 490q43 0 73.5 -8t53.5 -22l11 -67h-12q-22 18 -47 26t-52 8q-34 0 -61 -13.5t-46.5 -38t-30 -58.5t-10.5 -75q0 -42 10.5 -76.5t30 -58.5t46.5 -37.5t60 -13.5q35 0 65.5 12.5t50.5 34.5h12l-16 -76
q-22 -17 -56.5 -27t-81.5 -10q-52 0 -98 15.5t-80.5 46.5t-54.5 77t-20 108q0 58 19 105t52.5 80t80 50.5t101.5 17.5z" />
    <glyph glyph-name="ccedilla" unicode="&#xe7;" horiz-adv-x="476" 
d="M52 237q0 58 19 105t52.5 80t80 50.5t101.5 17.5q43 0 73.5 -8t53.5 -22l11 -67h-12q-22 18 -47 26t-52 8q-34 0 -61 -13.5t-46.5 -38t-30 -58.5t-10.5 -75q0 -42 10.5 -76.5t30 -58.5t46.5 -37.5t60 -13.5q35 0 65.5 12.5t50.5 34.5h12l-16 -76q-22 -17 -55 -27t-80 -10
l-16 -33l11 -3q31 -8 53.5 -25.5t22.5 -51.5q0 -27 -15 -45.5t-38.5 -30t-52.5 -17t-57 -5.5l-15 37l3 5q14 0 31 1.5t32 7t25 14.5t10 24q0 24 -22 34t-51 15l-1 7l39 68q-45 5 -84.5 23t-68.5 49t-45.5 74t-16.5 99z" />
    <glyph glyph-name="ccircumflex" unicode="&#x109;" horiz-adv-x="477" 
d="M445 571h-64l-100 79l-102 -79h-59l109 142h107zM304 490q43 0 73.5 -8t53.5 -22l11 -67h-12q-22 18 -47 26t-52 8q-34 0 -61 -13.5t-46.5 -38t-30 -58.5t-10.5 -75q0 -42 10.5 -76.5t30 -58.5t46.5 -37.5t60 -13.5q35 0 65.5 12.5t50.5 34.5h12l-16 -76
q-22 -17 -56.5 -27t-81.5 -10q-52 0 -98 15.5t-80.5 46.5t-54.5 77t-20 108q0 58 19 105t52.5 80t80 50.5t101.5 17.5z" />
    <glyph glyph-name="cdotaccent" unicode="&#x10b;" horiz-adv-x="477" 
d="M348 581h-130v118h130v-118zM304 490q43 0 73.5 -8t53.5 -22l11 -67h-12q-22 18 -47 26t-52 8q-34 0 -61 -13.5t-46.5 -38t-30 -58.5t-10.5 -75q0 -42 10.5 -76.5t30 -58.5t46.5 -37.5t60 -13.5q35 0 65.5 12.5t50.5 34.5h12l-16 -76q-22 -17 -56.5 -27t-81.5 -10
q-52 0 -98 15.5t-80.5 46.5t-54.5 77t-20 108q0 58 19 105t52.5 80t80 50.5t101.5 17.5z" />
    <glyph glyph-name="d" unicode="d" horiz-adv-x="597" 
d="M521 0h-125v82h-2q-20 -39 -58.5 -65.5t-95.5 -26.5q-91 0 -139.5 62t-48.5 179q0 58 14.5 105.5t41.5 81.5t66.5 52.5t89.5 18.5q86 0 130 -65h2v285l125 13v-722zM279 62q25 0 48.5 15.5t40.5 42.5t27.5 63.5t10.5 78.5v9q0 37 -9.5 65t-25 46t-36 27t-42.5 9
q-52 0 -82.5 -49t-30.5 -136q0 -81 26 -126t73 -45z" />
    <glyph glyph-name="eth" unicode="&#xf0;" horiz-adv-x="591" 
d="M382 607q71 -54 114 -141t43 -208q0 -66 -20 -116.5t-54 -84t-78.5 -50.5t-93.5 -17q-47 0 -90.5 15.5t-77 47t-53.5 79t-20 111.5q0 63 18 109.5t47.5 77t68 45.5t79.5 15q32 0 62.5 -9.5t47.5 -25.5l1 1q-10 31 -33 57.5t-55 48.5l-116 -57l-27 56l76 37
q-54 24 -115 35l52 60q44 -5 84.5 -16t78.5 -31l96 47l26 -56zM296 54q53 0 84 50.5t31 138.5q0 86 -31 134.5t-84 48.5t-84 -48.5t-31 -134.5q0 -88 31 -138.5t84 -50.5z" />
    <glyph glyph-name="dcaron" unicode="&#x10f;" horiz-adv-x="597" 
d="M521 0h-125v82h-2q-20 -39 -58.5 -65.5t-95.5 -26.5q-91 0 -139.5 62t-48.5 179q0 58 14.5 105.5t41.5 81.5t66.5 52.5t89.5 18.5q86 0 130 -65h2v285l125 13v-722zM699 722q-5 -31 -13 -61.5t-17 -58.5t-19 -51t-20 -39h-59q8 50 12 103t4 107h112zM279 62
q25 0 48.5 15.5t40.5 42.5t27.5 63.5t10.5 78.5v9q0 37 -9.5 65t-25 46t-36 27t-42.5 9q-52 0 -82.5 -49t-30.5 -136q0 -81 26 -126t73 -45z" />
    <glyph glyph-name="dcroat" unicode="&#x111;" horiz-adv-x="599" 
d="M581 556h-60v-556h-125v82h-2q-20 -39 -58.5 -65.5t-95.5 -26.5q-91 0 -139.5 62t-48.5 179q0 58 14.5 105.5t41.5 81.5t66.5 52.5t89.5 18.5q86 0 130 -65h2v132h-138v63h138v90l125 13v-103h60v-63zM406 271q0 37 -9.5 65t-25 46t-36 27t-42.5 9q-52 0 -82.5 -49
t-30.5 -136q0 -81 26 -126t73 -45q25 0 48.5 15.5t40.5 42.5t27.5 63.5t10.5 78.5v9z" />
    <glyph glyph-name="e" unicode="e" horiz-adv-x="538" 
d="M178 246q1 -38 11.5 -71.5t31 -58.5t50.5 -39t69 -14t74.5 12.5t60.5 41.5h12l-17 -83q-26 -21 -68 -32.5t-93 -11.5q-118 0 -187.5 64t-69.5 184q0 60 20 106.5t52.5 79t75 49.5t87.5 17q106 0 155.5 -56t49.5 -149v-39h-314zM379 312q0 56 -23.5 89t-66.5 33
t-74.5 -35.5t-35.5 -96.5h200v10z" />
    <glyph glyph-name="eacute" unicode="&#xe9;" horiz-adv-x="538" 
d="M278 571h-61l96 142h128zM178 246q1 -38 11.5 -71.5t31 -58.5t50.5 -39t69 -14t74.5 12.5t60.5 41.5h12l-17 -83q-26 -21 -68 -32.5t-93 -11.5q-118 0 -187.5 64t-69.5 184q0 60 20 106.5t52.5 79t75 49.5t87.5 17q106 0 155.5 -56t49.5 -149v-39h-314zM379 312
q0 56 -23.5 89t-66.5 33t-74.5 -35.5t-35.5 -96.5h200v10z" />
    <glyph glyph-name="ebreve" unicode="&#x115;" horiz-adv-x="538" 
d="M192 709q4 -34 30 -53t64 -19q86 0 101 72h57q-8 -66 -48.5 -102t-112.5 -36q-69 0 -107 36.5t-43 101.5h59zM178 246q1 -38 11.5 -71.5t31 -58.5t50.5 -39t69 -14t74.5 12.5t60.5 41.5h12l-17 -83q-26 -21 -68 -32.5t-93 -11.5q-118 0 -187.5 64t-69.5 184
q0 60 20 106.5t52.5 79t75 49.5t87.5 17q106 0 155.5 -56t49.5 -149v-39h-314zM379 312q0 56 -23.5 89t-66.5 33t-74.5 -35.5t-35.5 -96.5h200v10z" />
    <glyph glyph-name="ecaron" unicode="&#x11b;" horiz-adv-x="538" 
d="M126 713h64l100 -79l102 79h59l-109 -142h-107zM178 246q1 -38 11.5 -71.5t31 -58.5t50.5 -39t69 -14t74.5 12.5t60.5 41.5h12l-17 -83q-26 -21 -68 -32.5t-93 -11.5q-118 0 -187.5 64t-69.5 184q0 60 20 106.5t52.5 79t75 49.5t87.5 17q106 0 155.5 -56t49.5 -149v-39
h-314zM379 312q0 56 -23.5 89t-66.5 33t-74.5 -35.5t-35.5 -96.5h200v10z" />
    <glyph glyph-name="ecircumflex" unicode="&#xea;" horiz-adv-x="538" 
d="M451 571h-64l-100 79l-102 -79h-59l109 142h107zM178 246q1 -38 11.5 -71.5t31 -58.5t50.5 -39t69 -14t74.5 12.5t60.5 41.5h12l-17 -83q-26 -21 -68 -32.5t-93 -11.5q-118 0 -187.5 64t-69.5 184q0 60 20 106.5t52.5 79t75 49.5t87.5 17q106 0 155.5 -56t49.5 -149v-39
h-314zM379 312q0 56 -23.5 89t-66.5 33t-74.5 -35.5t-35.5 -96.5h200v10z" />
    <glyph glyph-name="edieresis" unicode="&#xeb;" horiz-adv-x="538" 
d="M252 585h-116v114h116v-114zM442 585h-116v114h116v-114zM178 246q1 -38 11.5 -71.5t31 -58.5t50.5 -39t69 -14t74.5 12.5t60.5 41.5h12l-17 -83q-26 -21 -68 -32.5t-93 -11.5q-118 0 -187.5 64t-69.5 184q0 60 20 106.5t52.5 79t75 49.5t87.5 17q106 0 155.5 -56
t49.5 -149v-39h-314zM379 312q0 56 -23.5 89t-66.5 33t-74.5 -35.5t-35.5 -96.5h200v10z" />
    <glyph glyph-name="edotaccent" unicode="&#x117;" horiz-adv-x="538" 
d="M354 581h-130v118h130v-118zM178 246q1 -38 11.5 -71.5t31 -58.5t50.5 -39t69 -14t74.5 12.5t60.5 41.5h12l-17 -83q-26 -21 -68 -32.5t-93 -11.5q-118 0 -187.5 64t-69.5 184q0 60 20 106.5t52.5 79t75 49.5t87.5 17q106 0 155.5 -56t49.5 -149v-39h-314zM379 312
q0 56 -23.5 89t-66.5 33t-74.5 -35.5t-35.5 -96.5h200v10z" />
    <glyph glyph-name="egrave" unicode="&#xe8;" horiz-adv-x="538" 
d="M361 571h-61l-163 142h127zM178 246q1 -38 11.5 -71.5t31 -58.5t50.5 -39t69 -14t74.5 12.5t60.5 41.5h12l-17 -83q-26 -21 -68 -32.5t-93 -11.5q-118 0 -187.5 64t-69.5 184q0 60 20 106.5t52.5 79t75 49.5t87.5 17q106 0 155.5 -56t49.5 -149v-39h-314zM379 312
q0 56 -23.5 89t-66.5 33t-74.5 -35.5t-35.5 -96.5h200v10z" />
    <glyph glyph-name="emacron" unicode="&#x113;" horiz-adv-x="538" 
d="M453 610h-329v64h329v-64zM178 246q1 -38 11.5 -71.5t31 -58.5t50.5 -39t69 -14t74.5 12.5t60.5 41.5h12l-17 -83q-26 -21 -68 -32.5t-93 -11.5q-118 0 -187.5 64t-69.5 184q0 60 20 106.5t52.5 79t75 49.5t87.5 17q106 0 155.5 -56t49.5 -149v-39h-314zM379 312
q0 56 -23.5 89t-66.5 33t-74.5 -35.5t-35.5 -96.5h200v10z" />
    <glyph glyph-name="eogonek" unicode="&#x119;" horiz-adv-x="538" 
d="M52 238q0 60 20 106.5t52.5 79t75 49.5t87.5 17q106 0 155.5 -56t49.5 -149v-39h-314q1 -38 11.5 -71.5t31 -58.5t50.5 -39t69 -14t74.5 12.5t60.5 41.5h12l-17 -83q-44 -28 -68.5 -49.5t-36.5 -37.5t-14.5 -27.5t-2.5 -20.5q0 -38 45 -38q17 0 32 4t27 9h7l-16 -40
q-15 -8 -34 -13.5t-45 -5.5q-41 0 -69 18t-28 54q0 26 18.5 50.5t63.5 53.5q-8 -1 -19.5 -1h-20.5q-118 0 -187.5 64t-69.5 184zM379 302v10q0 56 -23.5 89t-66.5 33t-74.5 -35.5t-35.5 -96.5h200z" />
    <glyph glyph-name="uni0259" unicode="&#x259;" horiz-adv-x="547" 
d="M247 490q58 0 104 -17.5t78 -50t49 -78.5t17 -104q0 -60 -19.5 -106.5t-51.5 -78.5t-74 -48.5t-87 -16.5q-102 0 -155.5 61.5t-53.5 171.5v14.5t1 16.5h314q-5 81 -45 123.5t-109 42.5q-37 0 -72.5 -14.5t-60.5 -43.5h-12l17 83q27 19 65 32t95 13zM264 49q19 0 37 8
t32 26t23.5 46t12.5 69h-202v-13q0 -59 25 -97.5t72 -38.5z" />
    <glyph glyph-name="f" unicode="f" horiz-adv-x="308" 
d="M283 732q18 0 34 -2t33 -8l6 -73h-9q-14 9 -25.5 12t-26.5 3q-29 0 -46 -11.5t-25.5 -34t-11 -54.5t-2.5 -73v-11h92l-7 -64h-85v-416h-126v416h-70v64h70v25q0 49 11.5 91t35.5 72t61.5 47t90.5 17z" />
    <glyph glyph-name="g" unicode="g" horiz-adv-x="530" 
d="M330 79q55 0 92.5 -5t61 -18t34 -35.5t10.5 -57.5q0 -42 -24 -78.5t-64.5 -63.5t-92.5 -42t-109 -15q-40 0 -75 7t-61.5 22.5t-41.5 40.5t-15 60q0 24 17 44t53 56q-31 6 -52 30t-21 53q0 8 3.5 18t11.5 24t22 33.5t35 47.5q-26 19 -44.5 48t-18.5 74q0 38 15.5 69t42 53
t62.5 34t77 12q51 0 99 -16h166l-5 -60h-98v-4q16 -15 25.5 -36t9.5 -50q0 -36 -14.5 -66t-40.5 -51t-63.5 -32.5t-82.5 -11.5q-26 0 -48.5 4.5t-37.5 12.5q-8 -18 -12.5 -35.5t-4.5 -28.5q0 -20 18.5 -28.5t63.5 -8.5h107zM168 324q0 -52 19 -79.5t57 -27.5q41 0 62.5 28
t21.5 82q0 52 -19 80t-61 28q-40 0 -60 -29.5t-20 -81.5zM239 -179q36 0 67 7.5t54.5 21.5t37 33.5t13.5 43.5q0 29 -14 37.5t-45 13.5q-23 4 -73.5 5t-118.5 1q-12 -22 -18 -39.5t-6 -40.5q0 -37 26 -60t77 -23z" />
    <glyph glyph-name="gbreve" unicode="&#x11f;" horiz-adv-x="530" 
d="M163 709q4 -34 30 -53t64 -19q86 0 101 72h57q-8 -66 -48.5 -102t-112.5 -36q-69 0 -107 36.5t-43 101.5h59zM330 79q55 0 92.5 -5t61 -18t34 -35.5t10.5 -57.5q0 -42 -24 -78.5t-64.5 -63.5t-92.5 -42t-109 -15q-40 0 -75 7t-61.5 22.5t-41.5 40.5t-15 60q0 24 17 44
t53 56q-31 6 -52 30t-21 53q0 8 3.5 18t11.5 24t22 33.5t35 47.5q-26 19 -44.5 48t-18.5 74q0 38 15.5 69t42 53t62.5 34t77 12q51 0 99 -16h166l-5 -60h-98v-4q16 -15 25.5 -36t9.5 -50q0 -36 -14.5 -66t-40.5 -51t-63.5 -32.5t-82.5 -11.5q-26 0 -48.5 4.5t-37.5 12.5
q-8 -18 -12.5 -35.5t-4.5 -28.5q0 -20 18.5 -28.5t63.5 -8.5h107zM168 324q0 -52 19 -79.5t57 -27.5q41 0 62.5 28t21.5 82q0 52 -19 80t-61 28q-40 0 -60 -29.5t-20 -81.5zM239 -179q36 0 67 7.5t54.5 21.5t37 33.5t13.5 43.5q0 29 -14 37.5t-45 13.5q-23 4 -73.5 5
t-118.5 1q-12 -22 -18 -39.5t-6 -40.5q0 -37 26 -60t77 -23z" />
    <glyph glyph-name="gcircumflex" unicode="&#x11d;" horiz-adv-x="530" 
d="M422 571h-64l-100 79l-102 -79h-59l109 142h107zM330 79q55 0 92.5 -5t61 -18t34 -35.5t10.5 -57.5q0 -42 -24 -78.5t-64.5 -63.5t-92.5 -42t-109 -15q-40 0 -75 7t-61.5 22.5t-41.5 40.5t-15 60q0 24 17 44t53 56q-31 6 -52 30t-21 53q0 8 3.5 18t11.5 24t22 33.5
t35 47.5q-26 19 -44.5 48t-18.5 74q0 38 15.5 69t42 53t62.5 34t77 12q51 0 99 -16h166l-5 -60h-98v-4q16 -15 25.5 -36t9.5 -50q0 -36 -14.5 -66t-40.5 -51t-63.5 -32.5t-82.5 -11.5q-26 0 -48.5 4.5t-37.5 12.5q-8 -18 -12.5 -35.5t-4.5 -28.5q0 -20 18.5 -28.5t63.5 -8.5
h107zM168 324q0 -52 19 -79.5t57 -27.5q41 0 62.5 28t21.5 82q0 52 -19 80t-61 28q-40 0 -60 -29.5t-20 -81.5zM239 -179q36 0 67 7.5t54.5 21.5t37 33.5t13.5 43.5q0 29 -14 37.5t-45 13.5q-23 4 -73.5 5t-118.5 1q-12 -22 -18 -39.5t-6 -40.5q0 -37 26 -60t77 -23z" />
    <glyph glyph-name="uni0123" unicode="&#x123;" horiz-adv-x="530" 
d="M199 589q5 34 25.5 73.5t43.5 68.5h53q-12 -35 -16.5 -69.5t-4.5 -72.5h-101zM330 79q55 0 92.5 -5t61 -18t34 -35.5t10.5 -57.5q0 -42 -24 -78.5t-64.5 -63.5t-92.5 -42t-109 -15q-40 0 -75 7t-61.5 22.5t-41.5 40.5t-15 60q0 24 17 44t53 56q-31 6 -52 30t-21 53
q0 8 3.5 18t11.5 24t22 33.5t35 47.5q-26 19 -44.5 48t-18.5 74q0 38 15.5 69t42 53t62.5 34t77 12q51 0 99 -16h166l-5 -60h-98v-4q16 -15 25.5 -36t9.5 -50q0 -36 -14.5 -66t-40.5 -51t-63.5 -32.5t-82.5 -11.5q-26 0 -48.5 4.5t-37.5 12.5q-8 -18 -12.5 -35.5t-4.5 -28.5
q0 -20 18.5 -28.5t63.5 -8.5h107zM168 324q0 -52 19 -79.5t57 -27.5q41 0 62.5 28t21.5 82q0 52 -19 80t-61 28q-40 0 -60 -29.5t-20 -81.5zM239 -179q36 0 67 7.5t54.5 21.5t37 33.5t13.5 43.5q0 29 -14 37.5t-45 13.5q-23 4 -73.5 5t-118.5 1q-12 -22 -18 -39.5t-6 -40.5
q0 -37 26 -60t77 -23z" />
    <glyph glyph-name="gdotaccent" unicode="&#x121;" horiz-adv-x="530" 
d="M325 581h-130v118h130v-118zM330 79q55 0 92.5 -5t61 -18t34 -35.5t10.5 -57.5q0 -42 -24 -78.5t-64.5 -63.5t-92.5 -42t-109 -15q-40 0 -75 7t-61.5 22.5t-41.5 40.5t-15 60q0 24 17 44t53 56q-31 6 -52 30t-21 53q0 8 3.5 18t11.5 24t22 33.5t35 47.5q-26 19 -44.5 48
t-18.5 74q0 38 15.5 69t42 53t62.5 34t77 12q51 0 99 -16h166l-5 -60h-98v-4q16 -15 25.5 -36t9.5 -50q0 -36 -14.5 -66t-40.5 -51t-63.5 -32.5t-82.5 -11.5q-26 0 -48.5 4.5t-37.5 12.5q-8 -18 -12.5 -35.5t-4.5 -28.5q0 -20 18.5 -28.5t63.5 -8.5h107zM168 324
q0 -52 19 -79.5t57 -27.5q41 0 62.5 28t21.5 82q0 52 -19 80t-61 28q-40 0 -60 -29.5t-20 -81.5zM239 -179q36 0 67 7.5t54.5 21.5t37 33.5t13.5 43.5q0 29 -14 37.5t-45 13.5q-23 4 -73.5 5t-118.5 1q-12 -22 -18 -39.5t-6 -40.5q0 -37 26 -60t77 -23z" />
    <glyph glyph-name="h" unicode="h" horiz-adv-x="583" 
d="M385 293q0 22 -3 42.5t-10.5 36.5t-21.5 25t-35 9q-27 0 -48 -13t-36 -35.5t-22.5 -53t-7.5 -64.5v-240h-125v709l125 13v-343h3q10 21 25.5 41.5t36 36t46 24.5t55.5 9t56.5 -6.5t45.5 -25.5t30 -53.5t11 -89.5v-315h-125v293z" />
    <glyph glyph-name="hbar" unicode="&#x127;" horiz-adv-x="585" 
d="M369 490q30 0 56.5 -6.5t45.5 -25.5t30 -53.5t11 -89.5v-315h-125v293q0 22 -3 42.5t-10.5 36.5t-21.5 25t-35 9q-27 0 -48 -13t-36 -35.5t-22.5 -53t-7.5 -64.5v-240h-125v556h-60v63h60v90l125 13v-103h138v-63h-138v-177h3q10 21 25.5 41.5t36 36t46 24.5t55.5 9z" />
    <glyph glyph-name="hcircumflex" unicode="&#x125;" horiz-adv-x="583" 
d="M309 756h-65l-100 66l-102 -66h-62l111 129h107zM385 293q0 22 -3 42.5t-10.5 36.5t-21.5 25t-35 9q-27 0 -48 -13t-36 -35.5t-22.5 -53t-7.5 -64.5v-240h-125v709l125 13v-343h3q10 21 25.5 41.5t36 36t46 24.5t55.5 9t56.5 -6.5t45.5 -25.5t30 -53.5t11 -89.5v-315
h-125v293z" />
    <glyph glyph-name="i" unicode="i" horiz-adv-x="276" 
d="M203 581h-130v118h130v-118zM201 0h-126v480h126v-480z" />
    <glyph glyph-name="dotlessi" unicode="&#x131;" horiz-adv-x="276" 
d="M201 0h-126v480h126v-480z" />
    <glyph glyph-name="iacute" unicode="&#xed;" horiz-adv-x="276" 
d="M127 571h-61l96 142h128zM201 0h-126v480h126v-480z" />
    <glyph glyph-name="ibreve" unicode="&#x12d;" horiz-adv-x="276" 
d="M41 709q4 -34 30 -53t64 -19q86 0 101 72h57q-8 -66 -48.5 -102t-112.5 -36q-69 0 -107 36.5t-43 101.5h59zM201 0h-126v480h126v-480z" />
    <glyph glyph-name="icircumflex" unicode="&#xee;" horiz-adv-x="276" 
d="M300 571h-64l-100 79l-102 -79h-59l109 142h107zM201 0h-126v480h126v-480z" />
    <glyph glyph-name="idieresis" unicode="&#xef;" horiz-adv-x="276" 
d="M101 585h-116v114h116v-114zM291 585h-116v114h116v-114zM201 0h-126v480h126v-480z" />
    <glyph glyph-name="i.loclTRK" horiz-adv-x="276" 
d="M203 581h-130v118h130v-118zM201 0h-126v480h126v-480z" />
    <glyph glyph-name="igrave" unicode="&#xec;" horiz-adv-x="276" 
d="M210 571h-61l-163 142h127zM201 0h-126v480h126v-480z" />
    <glyph glyph-name="ij" unicode="&#x133;" horiz-adv-x="553" 
d="M203 581h-130v118h130v-118zM482 581h-130v118h130v-118zM201 0h-126v480h126v-480zM480 52q0 -68 -17.5 -115t-48 -79t-71 -51.5t-86.5 -30.5l-50 21v6q39 17 67 36.5t46 49t26.5 71.5t8.5 103v417h125v-428z" />
    <glyph glyph-name="imacron" unicode="&#x12b;" horiz-adv-x="276" 
d="M302 610h-329v64h329v-64zM201 0h-126v480h126v-480z" />
    <glyph glyph-name="iogonek" unicode="&#x12f;" horiz-adv-x="276" 
d="M73 699h130v-118h-130v118zM32 -113q0 33 26 59.5t78 53.5h-61v480h126v-480q-28 -18 -45.5 -33t-27 -27t-12.5 -22t-3 -20q0 -18 12 -27.5t33 -9.5q17 0 32 4t27 9h7l-16 -40q-15 -8 -34 -13.5t-45 -5.5q-41 0 -69 18t-28 54z" />
    <glyph glyph-name="itilde" unicode="&#x129;" horiz-adv-x="276" 
d="M147 683q20 -11 37 -17.5t30 -6.5q18 0 27.5 9t14.5 31h52q-7 -57 -32.5 -85.5t-64.5 -28.5q-20 0 -37.5 6t-40.5 17t-37.5 16.5t-29.5 5.5q-17 0 -28.5 -10t-16.5 -33h-52q2 22 9.5 43.5t20 38t30 26.5t39.5 10q17 0 36 -4.5t43 -17.5zM201 0h-126v480h126v-480z" />
    <glyph glyph-name="j" unicode="j" horiz-adv-x="277" 
d="M206 581h-130v118h130v-118zM204 52q0 -68 -17.5 -115t-48 -79t-71 -51.5t-86.5 -30.5l-50 21v6q39 17 67 36.5t46 49t26.5 71.5t8.5 103v417h125v-428z" />
    <glyph glyph-name="uni0237" unicode="&#x237;" horiz-adv-x="277" 
d="M203 52q0 -68 -17.5 -115t-47.5 -79t-70.5 -51.5t-86.5 -30.5l-50 21v6q39 17 67 36.5t46 49t26.5 71.5t8.5 103v413h124v-424z" />
    <glyph glyph-name="jcircumflex" unicode="&#x135;" horiz-adv-x="277" 
d="M301 571h-64l-100 79l-102 -79h-59l109 142h107zM203 52q0 -68 -17.5 -115t-47.5 -79t-70.5 -51.5t-86.5 -30.5l-50 21v6q39 17 67 36.5t46 49t26.5 71.5t8.5 103v413h124v-424z" />
    <glyph glyph-name="k" unicode="k" horiz-adv-x="535" 
d="M201 0h-125v709l125 13v-722zM211 258q49 55 94 110.5t86 111.5h113l-179 -193q31 -45 63.5 -90.5t61 -84t51 -67t34.5 -40.5v-5h-162l-36 54t-41.5 62.5t-43 65.5t-41.5 64v12z" />
    <glyph glyph-name="uni0137" unicode="&#x137;" horiz-adv-x="535" 
d="M201 0h-125v709l125 13v-722zM211 258q49 55 94 110.5t86 111.5h113l-179 -193q31 -45 63.5 -90.5t61 -84t51 -67t34.5 -40.5v-5h-162l-36 54t-41.5 62.5t-43 65.5t-41.5 64v12zM329 -69q-2 -17 -9 -37t-16.5 -40t-21 -38.5t-22.5 -32.5h-53q12 35 16.5 72.5t4.5 75.5
h101z" />
    <glyph glyph-name="kgreenlandic" unicode="&#x138;" horiz-adv-x="535" 
d="M201 0h-125v480h125v-480zM211 258q49 55 94 110.5t86 111.5h113l-179 -193q31 -45 63.5 -90.5t61 -84t51 -67t34.5 -40.5v-5h-162l-36 54t-41.5 62.5t-43 65.5t-41.5 64v12z" />
    <glyph glyph-name="l" unicode="l" horiz-adv-x="278" 
d="M76 709l126 13v-722h-126v709z" />
    <glyph glyph-name="lacute" unicode="&#x13a;" horiz-adv-x="278" 
d="M137 756h-63l103 129h130zM76 709l126 13v-722h-126v709z" />
    <glyph glyph-name="lcaron" unicode="&#x13e;" horiz-adv-x="278" 
d="M76 709l126 13v-722h-126v709zM380 722q-5 -31 -13 -61.5t-17 -58.5t-19 -51t-20 -39h-59q8 50 12 103t4 107h112z" />
    <glyph glyph-name="uni013C" unicode="&#x13c;" horiz-adv-x="278" 
d="M76 709l126 13v-722h-126v709zM200 -69q-2 -17 -9 -37t-16.5 -40t-21 -38.5t-22.5 -32.5h-53q12 35 16.5 72.5t4.5 75.5h101z" />
    <glyph glyph-name="ldot" unicode="&#x140;" horiz-adv-x="400" 
d="M76 709l126 13v-722h-126v709zM404 279h-130v118h130v-118z" />
    <glyph glyph-name="lslash" unicode="&#x142;" horiz-adv-x="296" 
d="M287 416l-76 -43v-373h-126v307l-73 -41v75l73 41v327l126 13v-274l76 43v-75z" />
    <glyph glyph-name="m" unicode="m" horiz-adv-x="887" 
d="M665 490q30 0 57.5 -7.5t47.5 -27.5t32 -54t12 -86v-315h-125v290q0 22 -3 43t-10.5 37.5t-21 26t-35.5 9.5q-29 0 -50 -14t-35 -37t-21 -54t-7 -65v-236h-124v290q0 22 -2.5 43t-10 37.5t-21.5 26t-36 9.5q-28 0 -49 -14t-34.5 -37t-20.5 -54t-7 -65v-236h-125v480h119
l4 -99h3q10 21 25.5 41t35 35t43.5 24t52 9q26 0 49 -4.5t41 -16.5t31 -33.5t19 -54.5h3q10 22 26.5 42t37.5 35t46.5 23.5t53.5 8.5z" />
    <glyph glyph-name="n" unicode="n" horiz-adv-x="583" 
d="M385 293q0 22 -3 42.5t-10.5 36.5t-21.5 25t-35 9q-27 0 -48 -13t-36 -35.5t-22.5 -53t-7.5 -64.5v-240h-125v480h118l5 -101h3q10 22 26 42t37 35.5t46.5 24.5t55.5 9t56.5 -6.5t45.5 -25.5t30 -53.5t11 -89.5v-315h-125v293z" />
    <glyph glyph-name="nacute" unicode="&#x144;" horiz-adv-x="583" 
d="M281 571h-61l96 142h128zM385 293q0 22 -3 42.5t-10.5 36.5t-21.5 25t-35 9q-27 0 -48 -13t-36 -35.5t-22.5 -53t-7.5 -64.5v-240h-125v480h118l5 -101h3q10 22 26 42t37 35.5t46.5 24.5t55.5 9t56.5 -6.5t45.5 -25.5t30 -53.5t11 -89.5v-315h-125v293z" />
    <glyph glyph-name="napostrophe" unicode="&#x149;" horiz-adv-x="583" 
d="M112 722q-5 -31 -13 -61.5t-17 -58.5t-19 -51t-20 -39h-59q8 50 12 103t4 107h112zM385 293q0 22 -3 42.5t-10.5 36.5t-21.5 25t-35 9q-27 0 -48 -13t-36 -35.5t-22.5 -53t-7.5 -64.5v-240h-125v480h118l5 -101h3q10 22 26 42t37 35.5t46.5 24.5t55.5 9t56.5 -6.5
t45.5 -25.5t30 -53.5t11 -89.5v-315h-125v293z" />
    <glyph glyph-name="ncaron" unicode="&#x148;" horiz-adv-x="583" 
d="M129 713h64l100 -79l102 79h59l-109 -142h-107zM385 293q0 22 -3 42.5t-10.5 36.5t-21.5 25t-35 9q-27 0 -48 -13t-36 -35.5t-22.5 -53t-7.5 -64.5v-240h-125v480h118l5 -101h3q10 22 26 42t37 35.5t46.5 24.5t55.5 9t56.5 -6.5t45.5 -25.5t30 -53.5t11 -89.5v-315h-125
v293z" />
    <glyph glyph-name="uni0146" unicode="&#x146;" horiz-adv-x="583" 
d="M385 293q0 22 -3 42.5t-10.5 36.5t-21.5 25t-35 9q-27 0 -48 -13t-36 -35.5t-22.5 -53t-7.5 -64.5v-240h-125v480h118l5 -101h3q10 22 26 42t37 35.5t46.5 24.5t55.5 9t56.5 -6.5t45.5 -25.5t30 -53.5t11 -89.5v-315h-125v293zM353 -69q-2 -17 -9 -37t-16.5 -40
t-21 -38.5t-22.5 -32.5h-53q12 35 16.5 72.5t4.5 75.5h101z" />
    <glyph glyph-name="eng" unicode="&#x14b;" horiz-adv-x="583" 
d="M76 480h118l5 -101h3q10 22 26 42t37 35.5t46.5 24.5t55.5 9t56.5 -6.5t45.5 -25.5t30 -53.5t11 -89.5v-253q0 -68 -17.5 -116.5t-47.5 -82.5t-70.5 -55t-86.5 -32l-50 21v6q39 17 67 38.5t45.5 52.5t26 74.5t8.5 104.5v220q0 22 -3 42.5t-10.5 36.5t-21.5 25t-35 9
q-27 0 -48 -13t-36 -35.5t-22.5 -53t-7.5 -64.5v-240h-125v480z" />
    <glyph glyph-name="ntilde" unicode="&#xf1;" horiz-adv-x="583" 
d="M301 683q20 -11 37 -17.5t30 -6.5q18 0 27.5 9t14.5 31h52q-7 -57 -32.5 -85.5t-64.5 -28.5q-20 0 -37.5 6t-40.5 17t-37.5 16.5t-29.5 5.5q-17 0 -28.5 -10t-16.5 -33h-52q2 22 9.5 43.5t20 38t30 26.5t39.5 10q17 0 36 -4.5t43 -17.5zM385 293q0 22 -3 42.5t-10.5 36.5
t-21.5 25t-35 9q-27 0 -48 -13t-36 -35.5t-22.5 -53t-7.5 -64.5v-240h-125v480h118l5 -101h3q10 22 26 42t37 35.5t46.5 24.5t55.5 9t56.5 -6.5t45.5 -25.5t30 -53.5t11 -89.5v-315h-125v293z" />
    <glyph glyph-name="o" unicode="o" horiz-adv-x="595" 
d="M299 490q45 0 88.5 -15t78 -45.5t56 -77t21.5 -109.5q0 -64 -21.5 -111.5t-56 -79t-78 -47t-88.5 -15.5t-89.5 15.5t-79.5 47t-56.5 79t-21.5 111.5q0 63 21.5 109.5t56.5 77t79.5 45.5t89.5 15zM298 54q53 0 85 50.5t32 138.5q0 86 -32 134.5t-85 48.5t-85 -48.5
t-32 -134.5q0 -88 32 -138.5t85 -50.5z" />
    <glyph glyph-name="oacute" unicode="&#xf3;" horiz-adv-x="595" 
d="M287 571h-61l96 142h128zM299 490q45 0 88.5 -15t78 -45.5t56 -77t21.5 -109.5q0 -64 -21.5 -111.5t-56 -79t-78 -47t-88.5 -15.5t-89.5 15.5t-79.5 47t-56.5 79t-21.5 111.5q0 63 21.5 109.5t56.5 77t79.5 45.5t89.5 15zM298 54q53 0 85 50.5t32 138.5q0 86 -32 134.5
t-85 48.5t-85 -48.5t-32 -134.5q0 -88 32 -138.5t85 -50.5z" />
    <glyph glyph-name="obreve" unicode="&#x14f;" horiz-adv-x="595" 
d="M201 709q4 -34 30 -53t64 -19q86 0 101 72h57q-8 -66 -48.5 -102t-112.5 -36q-69 0 -107 36.5t-43 101.5h59zM299 490q45 0 88.5 -15t78 -45.5t56 -77t21.5 -109.5q0 -64 -21.5 -111.5t-56 -79t-78 -47t-88.5 -15.5t-89.5 15.5t-79.5 47t-56.5 79t-21.5 111.5
q0 63 21.5 109.5t56.5 77t79.5 45.5t89.5 15zM298 54q53 0 85 50.5t32 138.5q0 86 -32 134.5t-85 48.5t-85 -48.5t-32 -134.5q0 -88 32 -138.5t85 -50.5z" />
    <glyph glyph-name="ocircumflex" unicode="&#xf4;" horiz-adv-x="595" 
d="M460 571h-64l-100 79l-102 -79h-59l109 142h107zM299 490q45 0 88.5 -15t78 -45.5t56 -77t21.5 -109.5q0 -64 -21.5 -111.5t-56 -79t-78 -47t-88.5 -15.5t-89.5 15.5t-79.5 47t-56.5 79t-21.5 111.5q0 63 21.5 109.5t56.5 77t79.5 45.5t89.5 15zM298 54q53 0 85 50.5
t32 138.5q0 86 -32 134.5t-85 48.5t-85 -48.5t-32 -134.5q0 -88 32 -138.5t85 -50.5z" />
    <glyph glyph-name="odieresis" unicode="&#xf6;" horiz-adv-x="595" 
d="M261 585h-116v114h116v-114zM451 585h-116v114h116v-114zM299 490q45 0 88.5 -15t78 -45.5t56 -77t21.5 -109.5q0 -64 -21.5 -111.5t-56 -79t-78 -47t-88.5 -15.5t-89.5 15.5t-79.5 47t-56.5 79t-21.5 111.5q0 63 21.5 109.5t56.5 77t79.5 45.5t89.5 15zM298 54
q53 0 85 50.5t32 138.5q0 86 -32 134.5t-85 48.5t-85 -48.5t-32 -134.5q0 -88 32 -138.5t85 -50.5z" />
    <glyph glyph-name="ograve" unicode="&#xf2;" horiz-adv-x="595" 
d="M370 571h-61l-163 142h127zM299 490q45 0 88.5 -15t78 -45.5t56 -77t21.5 -109.5q0 -64 -21.5 -111.5t-56 -79t-78 -47t-88.5 -15.5t-89.5 15.5t-79.5 47t-56.5 79t-21.5 111.5q0 63 21.5 109.5t56.5 77t79.5 45.5t89.5 15zM298 54q53 0 85 50.5t32 138.5q0 86 -32 134.5
t-85 48.5t-85 -48.5t-32 -134.5q0 -88 32 -138.5t85 -50.5z" />
    <glyph glyph-name="ohungarumlaut" unicode="&#x151;" horiz-adv-x="595" 
d="M213 571h-60l94 142h121zM398 571h-60l94 142h121zM299 490q45 0 88.5 -15t78 -45.5t56 -77t21.5 -109.5q0 -64 -21.5 -111.5t-56 -79t-78 -47t-88.5 -15.5t-89.5 15.5t-79.5 47t-56.5 79t-21.5 111.5q0 63 21.5 109.5t56.5 77t79.5 45.5t89.5 15zM298 54q53 0 85 50.5
t32 138.5q0 86 -32 134.5t-85 48.5t-85 -48.5t-32 -134.5q0 -88 32 -138.5t85 -50.5z" />
    <glyph glyph-name="omacron" unicode="&#x14d;" horiz-adv-x="595" 
d="M462 610h-329v64h329v-64zM299 490q45 0 88.5 -15t78 -45.5t56 -77t21.5 -109.5q0 -64 -21.5 -111.5t-56 -79t-78 -47t-88.5 -15.5t-89.5 15.5t-79.5 47t-56.5 79t-21.5 111.5q0 63 21.5 109.5t56.5 77t79.5 45.5t89.5 15zM298 54q53 0 85 50.5t32 138.5q0 86 -32 134.5
t-85 48.5t-85 -48.5t-32 -134.5q0 -88 32 -138.5t85 -50.5z" />
    <glyph glyph-name="oslash" unicode="&#xf8;" horiz-adv-x="595" 
d="M485 411q26 -30 42 -72t16 -96q0 -64 -21.5 -111.5t-56 -79t-78 -47t-88.5 -15.5q-38 0 -75.5 10.5t-69.5 33.5l-48 -55l-40 35l48 55q-29 31 -45.5 74t-16.5 100q0 63 21.5 109.5t56.5 77t79.5 45.5t89.5 15q38 0 76 -10.5t70 -33.5l44 51l40 -36zM181 243
q0 -24 2.5 -45.5t7.5 -40.5l192 219q-31 50 -85 50q-53 0 -85 -48.5t-32 -134.5zM298 54q53 0 85 50.5t32 138.5q0 43 -9 78l-191 -218q31 -49 83 -49z" />
    <glyph glyph-name="oslashacute" unicode="&#x1ff;" horiz-adv-x="595" 
d="M287 571h-61l96 142h128zM485 411q26 -30 42 -72t16 -96q0 -64 -21.5 -111.5t-56 -79t-78 -47t-88.5 -15.5q-38 0 -75.5 10.5t-69.5 33.5l-48 -55l-40 35l48 55q-29 31 -45.5 74t-16.5 100q0 63 21.5 109.5t56.5 77t79.5 45.5t89.5 15q38 0 76 -10.5t70 -33.5l44 51
l40 -36zM181 243q0 -24 2.5 -45.5t7.5 -40.5l192 219q-31 50 -85 50q-53 0 -85 -48.5t-32 -134.5zM298 54q53 0 85 50.5t32 138.5q0 43 -9 78l-191 -218q31 -49 83 -49z" />
    <glyph glyph-name="otilde" unicode="&#xf5;" horiz-adv-x="595" 
d="M307 683q20 -11 37 -17.5t30 -6.5q18 0 27.5 9t14.5 31h52q-7 -57 -32.5 -85.5t-64.5 -28.5q-20 0 -37.5 6t-40.5 17t-37.5 16.5t-29.5 5.5q-17 0 -28.5 -10t-16.5 -33h-52q2 22 9.5 43.5t20 38t30 26.5t39.5 10q17 0 36 -4.5t43 -17.5zM299 490q45 0 88.5 -15t78 -45.5
t56 -77t21.5 -109.5q0 -64 -21.5 -111.5t-56 -79t-78 -47t-88.5 -15.5t-89.5 15.5t-79.5 47t-56.5 79t-21.5 111.5q0 63 21.5 109.5t56.5 77t79.5 45.5t89.5 15zM298 54q53 0 85 50.5t32 138.5q0 86 -32 134.5t-85 48.5t-85 -48.5t-32 -134.5q0 -88 32 -138.5t85 -50.5z" />
    <glyph glyph-name="oe" unicode="&#x153;" horiz-adv-x="901" 
d="M52 242q0 63 21.5 110t56 77.5t79 45.5t89.5 15q58 0 106.5 -22.5t74.5 -62.5h2q23 38 69.5 61.5t101.5 23.5q104 0 153.5 -56t49.5 -149v-39h-314q1 -38 11.5 -71.5t31 -58.5t50.5 -39t69 -14t74.5 12.5t60.5 41.5h12l-17 -83q-26 -21 -68 -32.5t-93 -11.5
q-65 0 -114.5 19.5t-80.5 63.5h-2q-30 -44 -78 -63.5t-99 -19.5q-46 0 -90.5 15t-79 46t-55.5 78.5t-21 112.5zM742 302v10q0 56 -23.5 89t-66.5 33t-74.5 -35.5t-35.5 -96.5h200zM181 242q0 -88 32 -138t85 -50t85 50t32 138q0 86 -32 135t-85 49t-85 -49t-32 -135z" />
    <glyph glyph-name="p" unicode="p" horiz-adv-x="596" 
d="M76 480h125v-83h2q20 39 58 65.5t95 26.5q91 0 139.5 -63t48.5 -180q0 -57 -14 -104t-41 -80.5t-66.5 -52t-89.5 -18.5q-44 0 -75.5 17t-54.5 45h-2v-276h-125v703zM317 417q-26 0 -49 -15.5t-40 -42.5t-27.5 -63t-10.5 -78v-9q0 -38 9 -65.5t25 -45.5t36.5 -27t43.5 -9
q51 0 81 47.5t30 134.5q0 81 -25.5 127t-72.5 46z" />
    <glyph glyph-name="thorn" unicode="&#xfe;" horiz-adv-x="596" 
d="M76 709l125 13v-325h2q20 39 58 66t95 27q91 0 139.5 -62.5t48.5 -178.5q0 -58 -14 -105.5t-41 -81.5t-66.5 -53t-89.5 -19q-85 0 -130 66h-2v-279h-125v932zM317 417q-26 0 -49 -15.5t-40 -42.5t-27.5 -63t-10.5 -78v-9q0 -38 9 -65.5t25 -45.5t36.5 -27t43.5 -9
q51 0 81 47.5t30 134.5q0 81 -25.5 127t-72.5 46z" />
    <glyph glyph-name="q" unicode="q" horiz-adv-x="597" 
d="M521 -223h-125v308h-2q-20 -39 -58.5 -67t-95.5 -28q-94 0 -141 62t-47 179q0 58 14.5 105.5t41.5 81.5t66.5 53t89.5 19q86 0 130 -64h2v54h125v-703zM279 60q25 0 48.5 16.5t40.5 44t27.5 64.5t10.5 79v9q0 38 -9.5 65.5t-25 45t-36 26t-42.5 8.5q-52 0 -82.5 -49
t-30.5 -136q0 -81 25 -127t74 -46z" />
    <glyph glyph-name="r" unicode="r" horiz-adv-x="370" 
d="M196 348h3q18 72 59.5 107t92.5 35l-11 -105q-66 -2 -102 -41.5t-36 -113.5v-230h-126v480h116z" />
    <glyph glyph-name="racute" unicode="&#x155;" horiz-adv-x="370" 
d="M198 571h-61l96 142h128zM196 348h3q18 72 59.5 107t92.5 35l-11 -105q-66 -2 -102 -41.5t-36 -113.5v-230h-126v480h116z" />
    <glyph glyph-name="rcaron" unicode="&#x159;" horiz-adv-x="370" 
d="M46 713h64l100 -79l102 79h59l-109 -142h-107zM196 348h3q18 72 59.5 107t92.5 35l-11 -105q-66 -2 -102 -41.5t-36 -113.5v-230h-126v480h116z" />
    <glyph glyph-name="uni0157" unicode="&#x157;" horiz-adv-x="370" 
d="M196 348h3q18 72 59.5 107t92.5 35l-11 -105q-66 -2 -102 -41.5t-36 -113.5v-230h-126v480h116zM190 -69q-2 -17 -9 -37t-16.5 -40t-21 -38.5t-22.5 -32.5h-53q12 35 16.5 72.5t4.5 75.5h101z" />
    <glyph glyph-name="s" unicode="s" horiz-adv-x="408" 
d="M333 395q-21 21 -44.5 29t-47.5 8t-46 -12t-22 -43q0 -13 4 -23t13 -19t24.5 -19t38.5 -23q28 -16 49.5 -32t36.5 -34.5t23 -41t8 -50.5q0 -36 -14.5 -63.5t-39.5 -45.5t-57.5 -27t-69.5 -9q-45 0 -80.5 13t-64.5 35l-13 91h13q30 -38 68.5 -55.5t72.5 -17.5
q31 0 49.5 18t18.5 47q0 30 -26 52t-82 53q-50 27 -68.5 57t-18.5 73q0 33 14.5 58.5t38.5 42t54 25t62 8.5q38 0 62 -6.5t47 -19.5l9 -69h-12v0z" />
    <glyph glyph-name="sacute" unicode="&#x15b;" horiz-adv-x="408" 
d="M193 571h-61l96 142h128zM333 395q-21 21 -44.5 29t-47.5 8t-46 -12t-22 -43q0 -13 4 -23t13 -19t24.5 -19t38.5 -23q28 -16 49.5 -32t36.5 -34.5t23 -41t8 -50.5q0 -36 -14.5 -63.5t-39.5 -45.5t-57.5 -27t-69.5 -9q-45 0 -80.5 13t-64.5 35l-13 91h13
q30 -38 68.5 -55.5t72.5 -17.5q31 0 49.5 18t18.5 47q0 30 -26 52t-82 53q-50 27 -68.5 57t-18.5 73q0 33 14.5 58.5t38.5 42t54 25t62 8.5q38 0 62 -6.5t47 -19.5l9 -69h-12z" />
    <glyph glyph-name="scaron" unicode="&#x161;" horiz-adv-x="408" 
d="M41 713h64l100 -79l102 79h59l-109 -142h-107zM333 395q-21 21 -44.5 29t-47.5 8t-46 -12t-22 -43q0 -13 4 -23t13 -19t24.5 -19t38.5 -23q28 -16 49.5 -32t36.5 -34.5t23 -41t8 -50.5q0 -36 -14.5 -63.5t-39.5 -45.5t-57.5 -27t-69.5 -9q-45 0 -80.5 13t-64.5 35l-13 91
h13q30 -38 68.5 -55.5t72.5 -17.5q31 0 49.5 18t18.5 47q0 30 -26 52t-82 53q-50 27 -68.5 57t-18.5 73q0 33 14.5 58.5t38.5 42t54 25t62 8.5q38 0 62 -6.5t47 -19.5l9 -69h-12z" />
    <glyph glyph-name="scedilla" unicode="&#x15f;" horiz-adv-x="408" 
d="M44 129q30 -38 68.5 -55.5t72.5 -17.5q31 0 49.5 18t18.5 47q0 30 -26 52t-82 53q-50 27 -68.5 57t-18.5 73q0 33 14.5 58.5t38.5 42t54 25t62 8.5q38 0 62 -6.5t47 -19.5l9 -69h-12q-21 21 -44.5 29t-47.5 8t-46 -12t-22 -43q0 -13 4 -23t13 -19t24.5 -19t38.5 -23
q28 -16 49.5 -32t36.5 -34.5t23 -41t8 -50.5q0 -62 -41 -98t-101 -45l-17 -35l11 -3q31 -8 53.5 -25t22.5 -52q0 -27 -15 -45.5t-38.5 -30t-52.5 -17t-57 -5.5l-15 37l3 5q14 0 31 1.5t32 7t25 14.5t10 24q0 24 -22 34t-51 15l-1 7l37 66q-42 1 -76.5 14t-63.5 34l-13 91h13
z" />
    <glyph glyph-name="scircumflex" unicode="&#x15d;" horiz-adv-x="408" 
d="M366 571h-64l-100 79l-102 -79h-59l109 142h107zM333 395q-21 21 -44.5 29t-47.5 8t-46 -12t-22 -43q0 -13 4 -23t13 -19t24.5 -19t38.5 -23q28 -16 49.5 -32t36.5 -34.5t23 -41t8 -50.5q0 -36 -14.5 -63.5t-39.5 -45.5t-57.5 -27t-69.5 -9q-45 0 -80.5 13t-64.5 35
l-13 91h13q30 -38 68.5 -55.5t72.5 -17.5q31 0 49.5 18t18.5 47q0 30 -26 52t-82 53q-50 27 -68.5 57t-18.5 73q0 33 14.5 58.5t38.5 42t54 25t62 8.5q38 0 62 -6.5t47 -19.5l9 -69h-12z" />
    <glyph glyph-name="uni0219" unicode="&#x219;" horiz-adv-x="408" 
d="M333 395q-21 21 -44.5 29t-47.5 8t-46 -12t-22 -43q0 -13 4 -23t13 -19t24.5 -19t38.5 -23q28 -16 49.5 -32t36.5 -34.5t23 -41t8 -50.5q0 -36 -14.5 -63.5t-39.5 -45.5t-57.5 -27t-69.5 -9q-45 0 -80.5 13t-64.5 35l-13 91h13q30 -38 68.5 -55.5t72.5 -17.5
q31 0 49.5 18t18.5 47q0 30 -26 52t-82 53q-50 27 -68.5 57t-18.5 73q0 33 14.5 58.5t38.5 42t54 25t62 8.5q38 0 62 -6.5t47 -19.5l9 -69h-12zM268 -69q-2 -17 -9 -37t-16.5 -40t-21 -38.5t-22.5 -32.5h-53q12 35 16.5 72.5t4.5 75.5h101z" />
    <glyph glyph-name="germandbls" unicode="&#xdf;" horiz-adv-x="630" 
d="M74 0v510q0 50 17 91t48 70t75 45t98 16q44 0 80.5 -6.5t62.5 -20.5t40.5 -36.5t14.5 -53.5q0 -30 -18 -51.5t-40 -39t-40 -33.5t-18 -35q0 -13 3.5 -23.5t12.5 -21t23.5 -22.5t37.5 -28q35 -26 58.5 -48t37.5 -44t20 -46t6 -55q0 -35 -12.5 -67t-36.5 -56.5t-59 -39.5
t-80 -15q-38 0 -71.5 13t-59.5 35l-13 91h13q29 -38 59.5 -55.5t60.5 -17.5q39 0 59 26t20 61q0 30 -21 63.5t-77 73.5q-48 34 -76 63t-27 68q0 22 9.5 39.5t23 32t29 27.5t28.5 27.5t22 31t9 38.5q0 32 -23 45.5t-58 13.5q-53 0 -82.5 -41.5t-29.5 -120.5v-504h-126z" />
    <glyph glyph-name="longs" unicode="&#x17f;" horiz-adv-x="308" 
d="M283 732q18 0 34 -2t33 -8l6 -73h-9q-14 9 -25.5 12t-26.5 3q-29 0 -46 -11.5t-25.5 -34t-11 -54.5t-2.5 -73v-491h-126v416h-70v64h70v25q0 49 11.5 91t35.5 72t61.5 47t90.5 17z" />
    <glyph glyph-name="t" unicode="t" horiz-adv-x="337" 
d="M207 140q0 -40 9.5 -60.5t35.5 -20.5q35 0 70 21l-4 -55q-17 -14 -45.5 -23.5t-61.5 -9.5q-65 0 -96 29.5t-31 101.5v293h-65v64h65v119l123 13v-132h116l-6 -64h-110v-276v0z" />
    <glyph glyph-name="tbar" unicode="&#x167;" horiz-adv-x="337" 
d="M207 140q0 -40 9.5 -60.5t35.5 -20.5q35 0 70 21l-4 -55q-17 -14 -45.5 -23.5t-61.5 -9.5q-65 0 -96 29.5t-31 101.5v140h-65v62h65v91h-65v64h65v119l123 13v-132h116l-6 -64h-110v-91h86v-62h-86v-123v0z" />
    <glyph glyph-name="tcaron" unicode="&#x165;" horiz-adv-x="337" 
d="M385 722q-5 -31 -13 -61.5t-17 -58.5t-19 -51t-20 -39h-59q8 50 12 103t4 107h112zM207 140q0 -40 9.5 -60.5t35.5 -20.5q35 0 70 21l-4 -55q-17 -14 -45.5 -23.5t-61.5 -9.5q-65 0 -96 29.5t-31 101.5v293h-65v64h65v119l123 13v-132h116l-6 -64h-110v-276z" />
    <glyph glyph-name="uni0163" unicode="&#x163;" horiz-adv-x="337" 
d="M19 480h65v119l123 13v-132h116l-6 -64h-110v-276q0 -40 9.5 -60.5t35.5 -20.5q35 0 70 21l-4 -55q-17 -14 -45.5 -23.5t-61.5 -9.5h-4l-17 -35l11 -3q31 -8 53.5 -25t22.5 -52q0 -27 -15 -45.5t-38.5 -30t-52.5 -17t-57 -5.5l-15 37l3 5q14 0 31 1.5t32 7t25 14.5t10 24
q0 24 -22 34t-51 15l-1 7l41 72q-42 9 -62.5 38.5t-20.5 88.5v293h-65v64z" />
    <glyph glyph-name="uni021B" unicode="&#x21b;" horiz-adv-x="337" 
d="M207 140q0 -40 9.5 -60.5t35.5 -20.5q35 0 70 21l-4 -55q-17 -14 -45.5 -23.5t-61.5 -9.5q-65 0 -96 29.5t-31 101.5v293h-65v64h65v119l123 13v-132h116l-6 -64h-110v-276zM237 -69q-2 -17 -9 -37t-16.5 -40t-21 -38.5t-22.5 -32.5h-53q12 35 16.5 72.5t4.5 75.5h101z
" />
    <glyph glyph-name="u" unicode="u" horiz-adv-x="583" 
d="M198 192q0 -23 3 -43t10.5 -35t21 -24t34.5 -9q28 0 49.5 13t36.5 35.5t22.5 52.5t7.5 64v234h124v-480h-118l-6 105h-3q-10 -21 -25.5 -41.5t-35.5 -36.5t-45.5 -26t-55.5 -10t-56.5 6.5t-46 25.5t-31 53t-11.5 89v315h125v-288z" />
    <glyph glyph-name="uacute" unicode="&#xfa;" horiz-adv-x="583" 
d="M281 571h-61l96 142h128zM198 192q0 -23 3 -43t10.5 -35t21 -24t34.5 -9q28 0 49.5 13t36.5 35.5t22.5 52.5t7.5 64v234h124v-480h-118l-6 105h-3q-10 -21 -25.5 -41.5t-35.5 -36.5t-45.5 -26t-55.5 -10t-56.5 6.5t-46 25.5t-31 53t-11.5 89v315h125v-288z" />
    <glyph glyph-name="ubreve" unicode="&#x16d;" horiz-adv-x="583" 
d="M195 709q4 -34 30 -53t64 -19q86 0 101 72h57q-8 -66 -48.5 -102t-112.5 -36q-69 0 -107 36.5t-43 101.5h59zM198 192q0 -23 3 -43t10.5 -35t21 -24t34.5 -9q28 0 49.5 13t36.5 35.5t22.5 52.5t7.5 64v234h124v-480h-118l-6 105h-3q-10 -21 -25.5 -41.5t-35.5 -36.5
t-45.5 -26t-55.5 -10t-56.5 6.5t-46 25.5t-31 53t-11.5 89v315h125v-288z" />
    <glyph glyph-name="ucircumflex" unicode="&#xfb;" horiz-adv-x="583" 
d="M454 571h-64l-100 79l-102 -79h-59l109 142h107zM198 192q0 -23 3 -43t10.5 -35t21 -24t34.5 -9q28 0 49.5 13t36.5 35.5t22.5 52.5t7.5 64v234h124v-480h-118l-6 105h-3q-10 -21 -25.5 -41.5t-35.5 -36.5t-45.5 -26t-55.5 -10t-56.5 6.5t-46 25.5t-31 53t-11.5 89v315
h125v-288z" />
    <glyph glyph-name="udieresis" unicode="&#xfc;" horiz-adv-x="583" 
d="M255 585h-116v114h116v-114zM445 585h-116v114h116v-114zM198 192q0 -23 3 -43t10.5 -35t21 -24t34.5 -9q28 0 49.5 13t36.5 35.5t22.5 52.5t7.5 64v234h124v-480h-118l-6 105h-3q-10 -21 -25.5 -41.5t-35.5 -36.5t-45.5 -26t-55.5 -10t-56.5 6.5t-46 25.5t-31 53
t-11.5 89v315h125v-288z" />
    <glyph glyph-name="ugrave" unicode="&#xf9;" horiz-adv-x="583" 
d="M364 571h-61l-163 142h127zM198 192q0 -23 3 -43t10.5 -35t21 -24t34.5 -9q28 0 49.5 13t36.5 35.5t22.5 52.5t7.5 64v234h124v-480h-118l-6 105h-3q-10 -21 -25.5 -41.5t-35.5 -36.5t-45.5 -26t-55.5 -10t-56.5 6.5t-46 25.5t-31 53t-11.5 89v315h125v-288z" />
    <glyph glyph-name="uhungarumlaut" unicode="&#x171;" horiz-adv-x="583" 
d="M207 571h-60l94 142h121zM392 571h-60l94 142h121zM198 192q0 -23 3 -43t10.5 -35t21 -24t34.5 -9q28 0 49.5 13t36.5 35.5t22.5 52.5t7.5 64v234h124v-480h-118l-6 105h-3q-10 -21 -25.5 -41.5t-35.5 -36.5t-45.5 -26t-55.5 -10t-56.5 6.5t-46 25.5t-31 53t-11.5 89v315
h125v-288z" />
    <glyph glyph-name="umacron" unicode="&#x16b;" horiz-adv-x="583" 
d="M456 610h-329v64h329v-64zM198 192q0 -23 3 -43t10.5 -35t21 -24t34.5 -9q28 0 49.5 13t36.5 35.5t22.5 52.5t7.5 64v234h124v-480h-118l-6 105h-3q-10 -21 -25.5 -41.5t-35.5 -36.5t-45.5 -26t-55.5 -10t-56.5 6.5t-46 25.5t-31 53t-11.5 89v315h125v-288z" />
    <glyph glyph-name="uogonek" unicode="&#x173;" horiz-adv-x="583" 
d="M73 480h125v-288q0 -23 3 -43t10.5 -35t21 -24t34.5 -9q28 0 49.5 13t36.5 35.5t22.5 52.5t7.5 64v234h124v-480q-59 -29 -81 -53t-22 -49q0 -18 12 -27.5t33 -9.5q17 0 32 4t27 9h7l-16 -40q-15 -8 -34 -13.5t-45 -5.5q-41 0 -69 18t-28 54q0 65 113 113h-47l-6 105h-3
q-10 -21 -25.5 -41.5t-35.5 -36.5t-45.5 -26t-55.5 -10t-56.5 6.5t-46 25.5t-31 53t-11.5 89v315z" />
    <glyph glyph-name="uring" unicode="&#x16f;" horiz-adv-x="583" 
d="M292 547q-26 0 -47.5 9.5t-37 25t-24 36.5t-8.5 45t8.5 45t24 36.5t37 24.5t47.5 9t47.5 -9t37 -24.5t24 -36.5t8.5 -45q0 -49 -32.5 -82.5t-84.5 -33.5zM292 589q35 0 50 22t15 52q0 27 -15.5 50t-50.5 23q-32 0 -48 -21t-16 -52q0 -29 16 -51.5t49 -22.5zM198 192
q0 -23 3 -43t10.5 -35t21 -24t34.5 -9q28 0 49.5 13t36.5 35.5t22.5 52.5t7.5 64v234h124v-480h-118l-6 105h-3q-10 -21 -25.5 -41.5t-35.5 -36.5t-45.5 -26t-55.5 -10t-56.5 6.5t-46 25.5t-31 53t-11.5 89v315h125v-288z" />
    <glyph glyph-name="utilde" unicode="&#x169;" horiz-adv-x="583" 
d="M301 683q20 -11 37 -17.5t30 -6.5q18 0 27.5 9t14.5 31h52q-7 -57 -32.5 -85.5t-64.5 -28.5q-20 0 -37.5 6t-40.5 17t-37.5 16.5t-29.5 5.5q-17 0 -28.5 -10t-16.5 -33h-52q2 22 9.5 43.5t20 38t30 26.5t39.5 10q17 0 36 -4.5t43 -17.5zM198 192q0 -23 3 -43t10.5 -35
t21 -24t34.5 -9q28 0 49.5 13t36.5 35.5t22.5 52.5t7.5 64v234h124v-480h-118l-6 105h-3q-10 -21 -25.5 -41.5t-35.5 -36.5t-45.5 -26t-55.5 -10t-56.5 6.5t-46 25.5t-31 53t-11.5 89v315h125v-288z" />
    <glyph glyph-name="v" unicode="v" horiz-adv-x="481" 
d="M185 0l-179 480h141l120 -357h2l116 357h90l-180 -480h-110z" />
    <glyph glyph-name="w" unicode="w" horiz-adv-x="807" 
d="M623 0h-101l-123 319h-5l-115 -319h-101l-159 480h134l105 -348h3l119 348h80l131 -348h3l102 348h92z" />
    <glyph glyph-name="wacute" unicode="&#x1e83;" horiz-adv-x="807" 
d="M398 571h-61l96 142h128zM623 0h-101l-123 319h-5l-115 -319h-101l-159 480h134l105 -348h3l119 348h80l131 -348h3l102 348h92z" />
    <glyph glyph-name="wcircumflex" unicode="&#x175;" horiz-adv-x="807" 
d="M571 571h-64l-100 79l-102 -79h-59l109 142h107zM623 0h-101l-123 319h-5l-115 -319h-101l-159 480h134l105 -348h3l119 348h80l131 -348h3l102 348h92z" />
    <glyph glyph-name="wdieresis" unicode="&#x1e85;" horiz-adv-x="807" 
d="M372 585h-116v114h116v-114zM562 585h-116v114h116v-114zM623 0h-101l-123 319h-5l-115 -319h-101l-159 480h134l105 -348h3l119 348h80l131 -348h3l102 348h92z" />
    <glyph glyph-name="wgrave" unicode="&#x1e81;" horiz-adv-x="807" 
d="M481 571h-61l-163 142h127zM623 0h-101l-123 319h-5l-115 -319h-101l-159 480h134l105 -348h3l119 348h80l131 -348h3l102 348h92z" />
    <glyph glyph-name="x" unicode="x" horiz-adv-x="511" 
d="M33 480h145l99 -168h4l100 168h94l-149 -224l92 -146q23 -37 42 -64.5t30 -40.5v-5h-148l-106 180h-5l-111 -180h-98l162 243z" />
    <glyph glyph-name="y" unicode="y" horiz-adv-x="490" 
d="M86 -223q67 117 117 239l-196 464h144l118 -328h3l116 328h94l-288 -703h-108z" />
    <glyph glyph-name="yacute" unicode="&#xfd;" horiz-adv-x="490" 
d="M241 571h-61l96 142h128zM86 -223q67 117 117 239l-196 464h144l118 -328h3l116 328h94l-288 -703h-108z" />
    <glyph glyph-name="ycircumflex" unicode="&#x177;" horiz-adv-x="490" 
d="M414 571h-64l-100 79l-102 -79h-59l109 142h107zM86 -223q67 117 117 239l-196 464h144l118 -328h3l116 328h94l-288 -703h-108z" />
    <glyph glyph-name="ydieresis" unicode="&#xff;" horiz-adv-x="490" 
d="M215 585h-116v114h116v-114zM405 585h-116v114h116v-114zM86 -223q67 117 117 239l-196 464h144l118 -328h3l116 328h94l-288 -703h-108z" />
    <glyph glyph-name="ygrave" unicode="&#x1ef3;" horiz-adv-x="490" 
d="M324 571h-61l-163 142h127zM86 -223q67 117 117 239l-196 464h144l118 -328h3l116 328h94l-288 -703h-108z" />
    <glyph glyph-name="z" unicode="z" horiz-adv-x="486" 
d="M457 480v-19l-270 -391v-6h117t79 1t53 3.5t39 6.5h6l-43 -75h-420v21l271 388v6h-240l28 65h380z" />
    <glyph glyph-name="zacute" unicode="&#x17a;" horiz-adv-x="486" 
d="M236 571h-61l96 142h128zM457 480v-19l-270 -391v-6h117t79 1t53 3.5t39 6.5h6l-43 -75h-420v21l271 388v6h-240l28 65h380z" />
    <glyph glyph-name="zcaron" unicode="&#x17e;" horiz-adv-x="486" 
d="M84 713h64l100 -79l102 79h59l-109 -142h-107zM457 480v-19l-270 -391v-6h117t79 1t53 3.5t39 6.5h6l-43 -75h-420v21l271 388v6h-240l28 65h380z" />
    <glyph glyph-name="zdotaccent" unicode="&#x17c;" horiz-adv-x="486" 
d="M312 581h-130v118h130v-118zM457 480v-19l-270 -391v-6h117t79 1t53 3.5t39 6.5h6l-43 -75h-420v21l271 388v6h-240l28 65h380z" />
    <glyph glyph-name="f_f" unicode="&#xfb00;" horiz-adv-x="610" 
d="M597 664q-29 0 -46 -11.5t-25.5 -34t-11 -54.5t-2.5 -73v-11h92l-7 -64h-85v-416h-126v416h-176v-416h-126v416h-70v64h70v25q0 49 11.5 91t35.5 72t61.5 47t90.5 17q18 0 34 -2t33 -8l6 -73h-9q-14 9 -25.5 12t-26.5 3q-29 0 -46 -11.5t-25.5 -34t-11 -54.5t-2.5 -73
v-11h176v25q0 49 11.5 91t35.5 72t61.5 47t90.5 17q18 0 34 -2t33 -8l6 -73h-9q-14 9 -25.5 12t-26.5 3z" />
    <glyph glyph-name="f_f_i" unicode="&#xfb03;" horiz-adv-x="882" 
d="M14 480h70v25q0 49 11.5 91t35.5 72t61.5 47t90.5 17q18 0 34 -2t33 -8l6 -73h-9q-14 9 -25.5 12t-26.5 3q-29 0 -46 -11.5t-25.5 -34t-11 -54.5t-2.5 -73v-11h176v24q0 49 12 91t35.5 72.5t59.5 47.5t84 17q14 0 29.5 -1.5t29.5 -6.5l3 -68h-10q-10 5 -18.5 7t-20.5 2
q-27 0 -42.5 -12t-23.5 -34.5t-10 -55t-2 -72.5v-11h92l-7 -64h-85v-416h-126v416h-176v-416h-126v416h-70v64zM679 699h130v-118h-130v118zM681 480h126v-480h-126v480z" />
    <glyph glyph-name="f_f_l" unicode="&#xfb04;" horiz-adv-x="883" 
d="M14 480h70v25q0 49 11.5 91t35.5 72t61.5 47t90.5 17q18 0 34 -2t33 -8l6 -73h-9q-14 9 -25.5 12t-26.5 3q-29 0 -46 -11.5t-25.5 -34t-11 -54.5t-2.5 -73v-11h176v24q0 49 12 91t35.5 72.5t59.5 47.5t84 17q14 0 29.5 -1.5t29.5 -6.5l3 -68h-10q-10 5 -18.5 7t-20.5 2
q-27 0 -42.5 -12t-23.5 -34.5t-10 -55t-2 -72.5v-11h92l-7 -64h-85v-416h-126v416h-176v-416h-126v416h-70v64zM681 708l126 14v-722h-126v708z" />
    <glyph glyph-name="fi" unicode="&#xfb01;" horiz-adv-x="580" 
d="M275 732q14 0 29.5 -1.5t29.5 -6.5l3 -68h-10q-10 5 -18.5 7t-20.5 2q-27 0 -42.5 -12t-23.5 -34.5t-10 -55t-2 -72.5v-11h92l-7 -64h-85v-416h-126v416h-70v64h70v24q0 49 12 91t35.5 72.5t59.5 47.5t84 17zM507 581h-130v118h130v-118zM505 0h-126v480h126v-480z" />
    <glyph glyph-name="fl" unicode="&#xfb02;" horiz-adv-x="581" 
d="M275 732q14 0 29.5 -1.5t29.5 -6.5l3 -68h-10q-10 5 -18.5 7t-20.5 2q-27 0 -42.5 -12t-23.5 -34.5t-10 -55t-2 -72.5v-11h92l-7 -64h-85v-416h-126v416h-70v64h70v24q0 49 12 91t35.5 72.5t59.5 47.5t84 17zM379 708l126 14v-722h-126v708z" />
    <glyph glyph-name="ordfeminine" unicode="&#xaa;" horiz-adv-x="406" 
d="M253 397q-17 -27 -41 -41t-59 -14q-49 0 -77.5 25.5t-28.5 66.5q0 43 28 65.5t66 31.5q33 8 54.5 13.5t33.5 10t16.5 9t4.5 10.5v3q0 32 -19 46.5t-53 14.5q-20 0 -46.5 -9t-46.5 -32h-11l6 59q25 20 56.5 28t58.5 8q74 0 110.5 -32.5t36.5 -86.5v-160q0 -16 1 -32t5 -32
h-83zM187 397q24 0 41.5 16.5t21.5 42.5v65q-32 -9 -53.5 -15.5t-34.5 -15t-18.5 -19.5t-5.5 -27q0 -22 13.5 -34.5t35.5 -12.5z" />
    <glyph glyph-name="ordmasculine" unicode="&#xba;" horiz-adv-x="466" 
d="M234 692q31 0 62.5 -10.5t57 -32t41.5 -54t16 -76.5q0 -45 -16 -78.5t-41.5 -55t-57 -32.5t-62.5 -11q-32 0 -64 11t-57.5 32.5t-41.5 55t-16 78.5q0 44 16 76.5t41.5 54t57.5 32t64 10.5zM233 391q37 0 58.5 33t21.5 95q0 60 -21.5 92.5t-58.5 32.5t-58.5 -32.5
t-21.5 -92.5q0 -62 21.5 -95t58.5 -33z" />
    <glyph glyph-name="uni207F" unicode="&#x207f;" horiz-adv-x="424" 
d="M278 552q0 41 -12.5 59t-37.5 18q-33 0 -55 -30t-22 -81v-169h-97v336h91l3 -71h2q16 38 45.5 58t67.5 20q111 0 111 -124v-219h-96v203z" />
    <glyph glyph-name="uni0394" unicode="&#x394;" horiz-adv-x="681" 
d="M23 44l268 626l110 13l257 -639v-44h-635v44zM504 73l-182 473h-5l-192 -473h379z" />
    <glyph glyph-name="uni03A9" unicode="&#x3a9;" horiz-adv-x="823" 
d="M762 370q0 -85 -41.5 -154.5t-128.5 -117.5v-5h184v-93h-278v88q36 27 59.5 56t36.5 62.5t18 72.5t5 85q0 52 -14 99t-40.5 82.5t-64.5 56.5t-85 21q-48 0 -86 -20.5t-64.5 -56t-40.5 -82.5t-14 -100q0 -43 3 -80.5t15 -71.5t35.5 -64.5t65.5 -59.5v-88h-280v93h180v5
q-82 45 -123.5 114t-41.5 158q0 70 27.5 129.5t75 102t111.5 66.5t137 24q74 0 137.5 -24t110.5 -67t74 -102t27 -129z" />
    <glyph glyph-name="uni03BC" unicode="&#x3bc;" 
d="M208 192q0 -23 3 -43t10.5 -35t21 -24t34.5 -9q28 0 49.5 13t36.5 35.5t22.5 52.5t7.5 64v234h124v-480h-118l-6 105h-3q-6 -21 -16 -41.5t-24 -36.5t-32.5 -26t-40.5 -10q-20 0 -40 9t-30 23h-4v-172h-120v629h125v-288z" />
    <glyph glyph-name="pi" unicode="&#x3c0;" 
d="M544 59q16 0 28 5t27 16l-4 -55q-17 -14 -38 -23.5t-50 -9.5q-62 0 -96.5 27.5t-34.5 99.5v287h-144v-406h-126v406h-87v74h571l-6 -74h-85v-270q0 -77 45 -77z" />
    <glyph glyph-name="uni2099" unicode="&#x2099;" horiz-adv-x="424" 
d="M278 203q0 41 -12.5 59t-37.5 18q-33 0 -55 -30t-22 -81v-169h-97v336h91l3 -71h2q16 38 45.5 58t67.5 20q111 0 111 -124v-219h-96v203z" />
    <glyph glyph-name="zero" unicode="0" horiz-adv-x="632" 
d="M317 693q61 0 111.5 -25.5t86.5 -72.5t56 -112.5t20 -146.5q0 -80 -20 -144.5t-56.5 -110t-87 -70t-110.5 -24.5q-61 0 -111.5 24.5t-87 70t-57 110t-20.5 144.5q0 81 20 146.5t56.5 112.5t87.5 72.5t112 25.5zM317 614q-32 0 -56 -19.5t-40.5 -56t-25 -88t-8.5 -114.5
q0 -129 33 -198.5t97 -69.5q62 0 95 69.5t33 198.5q0 63 -8.5 114.5t-25 88t-40 56t-54.5 19.5z" />
    <glyph glyph-name="one" unicode="1" horiz-adv-x="632" 
d="M285 574l-151 -59l11 84l198 81h81v-680h-139v574z" />
    <glyph glyph-name="two" unicode="2" horiz-adv-x="632" 
d="M62 46l109 113q101 105 157.5 185.5t56.5 150.5q0 21 -7 41.5t-20.5 36t-34.5 25t-48 9.5q-37 0 -70.5 -14t-68.5 -46h-10l8 99q36 21 76 34t95 13q108 0 165 -51.5t57 -135.5q0 -42 -14 -80t-42 -77t-70.5 -82.5t-99.5 -98.5l-56 -54v-4h171q57 0 93 0.5t65 5.5h10
l-47 -116h-475v46z" />
    <glyph glyph-name="three" unicode="3" horiz-adv-x="632" 
d="M408 202q0 64 -43 94.5t-119 30.5h-37l6 77h14q87 0 124 28t37 78q0 47 -27.5 75.5t-80.5 28.5q-35 0 -70 -9.5t-64 -31.5h-10l7 82q35 20 76.5 29t82.5 9q45 0 84 -10t68 -31t45.5 -53t16.5 -76q0 -53 -21.5 -90.5t-67.5 -57.5v-6q24 -9 44.5 -23.5t36 -35t24 -48
t8.5 -64.5q0 -53 -21 -92.5t-56.5 -66t-82.5 -39.5t-100 -13q-52 0 -102.5 14.5t-85.5 38.5l-13 100h10q36 -29 81 -45t94 -16q28 0 54 7.5t45.5 23t31 38.5t11.5 54z" />
    <glyph glyph-name="four" unicode="4" horiz-adv-x="632" 
d="M600 274l-14 -92h-92v-182h-136v182h-319v59l340 439h115v-406h106zM358 544h-6l-194 -265v-5h200v270z" />
    <glyph glyph-name="five" unicode="5" horiz-adv-x="632" 
d="M412 210q0 62 -33.5 97.5t-99.5 35.5q-26 0 -53.5 -9.5t-45.5 -23.5l-64 12l41 358h355l-12 -110h-260l-18 -157q23 8 46 10.5t44 2.5q105 0 168 -53.5t63 -156.5q0 -59 -20.5 -102t-56 -71.5t-83 -42t-101.5 -13.5q-48 0 -97.5 14.5t-85.5 38.5l-11 101h10
q36 -28 80 -46t94 -18q25 0 50 7.5t45 23t32.5 41t12.5 61.5z" />
    <glyph glyph-name="six" unicode="6" horiz-adv-x="632" 
d="M229 383q23 17 55 28.5t70 11.5q39 0 78 -12t70 -38t50.5 -66t19.5 -95q0 -49 -19 -90t-52 -71t-77.5 -47t-95.5 -17q-53 0 -99.5 15.5t-81.5 48t-55.5 82.5t-20.5 119q0 96 31.5 173t84 133.5t122 90.5t145.5 44l52 -53q-56 -9 -103 -33t-83.5 -58t-61 -76.5
t-33.5 -89.5h4zM212 206q0 -34 9 -60.5t24.5 -44.5t36.5 -27.5t44 -9.5q51 0 79 39t28 103q0 69 -28 106.5t-75 37.5q-49 0 -83.5 -36.5t-34.5 -107.5z" />
    <glyph glyph-name="seven" unicode="7" horiz-adv-x="632" 
d="M124 0q72 139 145 283.5t143 286.5h-340l14 110h471v-28q-35 -73 -74.5 -157.5t-79 -170.5t-77 -169.5t-68.5 -154.5h-134v0z" />
    <glyph glyph-name="eight" unicode="8" horiz-adv-x="632" 
d="M524 537q0 -46 -28.5 -84.5t-81.5 -64.5v-3q36 -18 64.5 -38.5t48.5 -45.5t30.5 -54.5t10.5 -66.5q0 -49 -23.5 -85.5t-60.5 -60.5t-83 -35.5t-92 -11.5q-45 0 -88.5 11t-78 33.5t-55.5 57.5t-21 84q0 34 12.5 63t33 52.5t47 41.5t54.5 31v3q-61 34 -86 70.5t-26 90.5
q-1 41 18.5 72.5t51 52.5t70.5 32t78 11q43 0 80.5 -10t65 -29.5t43.5 -48.5t16 -68zM422 537q0 39 -28.5 63t-70.5 24q-15 0 -31 -6t-29 -17t-21 -28t-8 -39q0 -35 24.5 -60.5t79.5 -51.5q84 42 84 115zM422 173q0 53 -36.5 86t-102.5 61q-45 -23 -73 -57t-28 -86
q0 -51 34 -83t87 -32q25 0 47 8.5t38 23.5t25 35.5t9 43.5z" />
    <glyph glyph-name="nine" unicode="9" horiz-adv-x="632" 
d="M406 305q-25 -20 -57.5 -30.5t-71.5 -10.5q-38 0 -76 12t-68 37t-49 64.5t-19 95.5q0 49 19.5 89.5t53.5 69.5t79 45t96 16q54 0 99.5 -17t79.5 -50t53 -83t19 -116q0 -101 -31.5 -179t-85 -133t-122.5 -87t-144 -41l-60 66q60 8 111 32.5t89 59t61 76.5t28 84h-4z
M423 477q0 64 -31 102t-78 38q-53 0 -81 -40t-28 -101q0 -62 27.5 -97.5t72.5 -35.5q54 0 86 36.5t32 97.5z" />
    <glyph glyph-name="zero.lf" horiz-adv-x="655" 
d="M328 693q61 0 111.5 -25.5t86.5 -72.5t56 -112.5t20 -146.5q0 -80 -20 -144.5t-56.5 -110t-87 -70t-110.5 -24.5q-61 0 -111.5 24.5t-87 70t-57 110t-20.5 144.5q0 81 20 146.5t56.5 112.5t87.5 72.5t112 25.5zM328 614q-32 0 -56 -19.5t-40.5 -56t-25 -88t-8.5 -114.5
q0 -129 33 -198.5t97 -69.5q62 0 95 69.5t33 198.5q0 63 -8.5 114.5t-25 88t-40 56t-54.5 19.5z" />
    <glyph glyph-name="one.lf" horiz-adv-x="438" 
d="M191 574l-151 -59l11 84l198 81h81v-680h-139v574z" />
    <glyph glyph-name="two.lf" horiz-adv-x="564" 
d="M28 46l109 113q101 105 157.5 185.5t56.5 150.5q0 21 -7 41.5t-20.5 36t-34.5 25t-48 9.5q-37 0 -70.5 -14t-68.5 -46h-10l8 99q36 21 76 34t95 13q108 0 165 -51.5t57 -135.5q0 -42 -14 -80t-42 -77t-70.5 -82.5t-99.5 -98.5l-56 -54v-4h171q57 0 93 0.5t65 5.5h10
l-47 -116h-475v46z" />
    <glyph glyph-name="three.lf" horiz-adv-x="538" 
d="M349 202q0 64 -43 94.5t-119 30.5h-37l6 77h14q87 0 124 28t37 78q0 47 -27.5 75.5t-80.5 28.5q-35 0 -70 -9.5t-64 -31.5h-10l7 82q35 20 76.5 29t82.5 9q45 0 84 -10t68 -31t45.5 -53t16.5 -76q0 -53 -21.5 -90.5t-67.5 -57.5v-6q24 -9 44.5 -23.5t36 -35t24 -48
t8.5 -64.5q0 -53 -21 -92.5t-56.5 -66t-82.5 -39.5t-100 -13q-52 0 -102.5 14.5t-85.5 38.5l-13 100h10q36 -29 81 -45t94 -16q28 0 54 7.5t45.5 23t31 38.5t11.5 54z" />
    <glyph glyph-name="four.lf" horiz-adv-x="623" 
d="M588 274l-14 -92h-92v-182h-136v182h-319v59l340 439h115v-406h106zM346 544h-6l-194 -265v-5h200v270z" />
    <glyph glyph-name="five.lf" horiz-adv-x="539" 
d="M353 210q0 62 -33.5 97.5t-99.5 35.5q-26 0 -53.5 -9.5t-45.5 -23.5l-64 12l41 358h355l-12 -110h-260l-18 -157q23 8 46 10.5t44 2.5q105 0 168 -53.5t63 -156.5q0 -59 -20.5 -102t-56 -71.5t-83 -42t-101.5 -13.5q-48 0 -97.5 14.5t-85.5 38.5l-11 101h10
q36 -28 80 -46t94 -18q25 0 50 7.5t45 23t32.5 41t12.5 61.5z" />
    <glyph glyph-name="six.lf" horiz-adv-x="610" 
d="M215 383q23 17 55 28.5t70 11.5q39 0 78 -12t70 -38t50.5 -66t19.5 -95q0 -49 -19 -90t-52 -71t-77.5 -47t-95.5 -17q-53 0 -99.5 15.5t-81.5 48t-55.5 82.5t-20.5 119q0 96 31.5 173t84 133.5t122 90.5t145.5 44l52 -53q-56 -9 -103 -33t-83.5 -58t-61 -76.5
t-33.5 -89.5h4zM198 206q0 -34 9 -60.5t24.5 -44.5t36.5 -27.5t44 -9.5q51 0 79 39t28 103q0 69 -28 106.5t-75 37.5q-49 0 -83.5 -36.5t-34.5 -107.5z" />
    <glyph glyph-name="seven.lf" horiz-adv-x="580" 
d="M110 0q72 139 145 283.5t143 286.5h-340l14 110h471v-28q-35 -73 -74.5 -157.5t-79 -170.5t-77 -169.5t-68.5 -154.5h-134v0z" />
    <glyph glyph-name="eight.lf" horiz-adv-x="606" 
d="M510 537q0 -46 -28.5 -84.5t-81.5 -64.5v-3q36 -18 64.5 -38.5t48.5 -45.5t30.5 -54.5t10.5 -66.5q0 -49 -23.5 -85.5t-60.5 -60.5t-83 -35.5t-92 -11.5q-45 0 -88.5 11t-78 33.5t-55.5 57.5t-21 84q0 34 12.5 63t33 52.5t47 41.5t54.5 31v3q-61 34 -86 70.5t-26 90.5
q-1 41 18.5 72.5t51 52.5t70.5 32t78 11q43 0 80.5 -10t65 -29.5t43.5 -48.5t16 -68zM408 537q0 39 -28.5 63t-70.5 24q-15 0 -31 -6t-29 -17t-21 -28t-8 -39q0 -35 24.5 -60.5t79.5 -51.5q84 42 84 115zM408 173q0 53 -36.5 86t-102.5 61q-45 -23 -73 -57t-28 -86
q0 -51 34 -83t87 -32q25 0 47 8.5t38 23.5t25 35.5t9 43.5z" />
    <glyph glyph-name="nine.lf" horiz-adv-x="620" 
d="M400 305q-25 -20 -57.5 -30.5t-71.5 -10.5q-38 0 -76 12t-68 37t-49 64.5t-19 95.5q0 49 19.5 89.5t53.5 69.5t79 45t96 16q54 0 99.5 -17t79.5 -50t53 -83t19 -116q0 -101 -31.5 -179t-85 -133t-122.5 -87t-144 -41l-60 66q60 8 111 32.5t89 59t61 76.5t28 84h-4z
M417 477q0 64 -31 102t-78 38q-53 0 -81 -40t-28 -101q0 -62 27.5 -97.5t72.5 -35.5q54 0 86 36.5t32 97.5z" />
    <glyph glyph-name="zero.ss01" unicode="&#x1e00;" horiz-adv-x="743" 
d="M374 707q64 0 120 -26t97 -74t64.5 -115t23.5 -149t-23.5 -148t-64.5 -112t-97 -71t-120 -25q-65 0 -121.5 25t-98.5 71t-66 112t-24 148t24 149t66 115t98.5 74t121.5 26zM374 630q-41 0 -71.5 -22t-50.5 -60.5t-30 -91t-10 -113.5q0 -62 10 -113t30 -87.5t50.5 -56.5
t71.5 -20q39 0 68 21.5t49 59t30 88t10 108.5q0 61 -10 113.5t-30 91t-49 60.5t-68 22z" />
    <glyph glyph-name="one.ss01" unicode="&#x1e01;" horiz-adv-x="543" 
d="M69 511l11 90l207 93h93v-694h-138v581z" />
    <glyph glyph-name="two.ss01" unicode="&#x1e02;" horiz-adv-x="677" 
d="M200 162q69 54 116 99t76.5 85.5t42.5 77.5t13 76q0 51 -32.5 83.5t-102.5 32.5q-46 0 -92 -20.5t-89 -57.5h-12l10 105q46 29 99 46.5t116 17.5q132 0 193.5 -51t61.5 -145q0 -50 -15.5 -91.5t-48.5 -81.5t-84.5 -81.5t-124.5 -90.5l-75 -51v-4h206q34 0 59.5 1
t45.5 2.5t37 4t35 6.5h12l-39 -125h-554v47z" />
    <glyph glyph-name="three.ss01" unicode="&#x1e03;" horiz-adv-x="661" 
d="M445 206q0 66 -56.5 93t-155.5 27h-44l7 91h17q56 0 95.5 4.5t65 15.5t37.5 31t12 51q0 28 -10.5 47t-29.5 30t-45.5 15.5t-57.5 4.5q-42 0 -83.5 -13t-79.5 -39h-12l8 94q43 25 91.5 37t96.5 12q54 0 101.5 -10.5t83 -31.5t56 -54t20.5 -78q0 -107 -108 -150v-7
q67 -23 101.5 -63t34.5 -111q0 -56 -23 -96.5t-63.5 -67t-96 -39t-119.5 -12.5q-31 0 -63 5t-62 14t-56.5 21.5t-47.5 27.5l-17 112h14q43 -37 101.5 -58t120.5 -21q37 0 67.5 6t52.5 20t34.5 36.5t12.5 55.5z" />
    <glyph glyph-name="four.ss01" unicode="&#x1e04;" horiz-adv-x="714" 
d="M660 183h-104v-183h-133v183h-375v41l388 470h120v-415h119zM416 561l-228 -274v-8h235v282h-7z" />
    <glyph glyph-name="five.ss01" unicode="&#x1e05;" horiz-adv-x="648" 
d="M435 217q0 63 -34.5 99t-107.5 36q-16 0 -33.5 -3t-34.5 -8.5t-32.5 -12.5t-26.5 -15l-79 12l49 369h407l-15 -111h-309l-24 -169q27 9 60.5 15t58.5 6q125 0 195.5 -53t70.5 -162q0 -57 -22.5 -100.5t-63 -73t-95.5 -44.5t-121 -15q-115 0 -210 59l-13 102h12
q44 -35 95.5 -51t112.5 -16q74 0 117 33.5t43 102.5z" />
    <glyph glyph-name="six.ss01" unicode="&#x1e06;" horiz-adv-x="699" 
d="M233 373q30 29 67.5 47t88.5 18q43 0 87 -11.5t79 -38t57 -68t22 -101.5q0 -55 -20.5 -98t-57.5 -73t-87.5 -45.5t-111.5 -15.5q-62 0 -115.5 16t-92.5 50t-61 85.5t-22 123.5q0 100 37.5 179t101 135.5t147 89.5t174.5 41l34 -59q-68 -11 -124 -36.5t-98.5 -62
t-70.5 -82t-38 -94.5h4zM216 215q0 -68 36.5 -109t102.5 -41q63 0 98.5 39t35.5 109q0 73 -34.5 110.5t-94.5 37.5q-66 0 -105 -40t-39 -106z" />
    <glyph glyph-name="seven.ss01" unicode="&#x1e07;" horiz-adv-x="666" 
d="M133 0q39 67 80 139.5t83 147.5t83.5 150t80.5 146h-405l18 111h546v-29q-41 -74 -86.5 -160t-89.5 -174t-85.5 -173.5t-74.5 -157.5h-150v0z" />
    <glyph glyph-name="eight.ss01" unicode="&#x1e08;" horiz-adv-x="680" 
d="M565 543q0 -50 -34.5 -87.5t-91.5 -55.5v-3q45 -16 78 -34t55.5 -41.5t33.5 -53.5t11 -70q0 -54 -24 -93.5t-64.5 -66t-92.5 -39t-107 -12.5q-53 0 -101.5 10.5t-85 33.5t-58 60.5t-21.5 90.5q0 38 13 68t35 52.5t50.5 38.5t59.5 25v3q-62 23 -89 64t-27 93
q0 42 20.5 75.5t54.5 57t77 36t88 12.5q99 0 159.5 -40.5t60.5 -123.5zM455 543q0 38 -25 65.5t-81 27.5q-48 0 -78.5 -26t-30.5 -71q0 -19 6 -35t21 -29.5t39.5 -25.5t61.5 -22q45 17 66 46t21 70zM467 182q0 54 -42.5 87.5t-124.5 60.5q-52 -20 -82 -54t-30 -89
q0 -60 39.5 -92t100.5 -32q67 0 103 30.5t36 88.5z" />
    <glyph glyph-name="nine.ss01" unicode="&#x1e09;" horiz-adv-x="676" 
d="M446 331q-22 -26 -59.5 -45.5t-86.5 -19.5q-42 0 -83.5 12.5t-75 38.5t-54.5 66t-21 96q0 52 20.5 94.5t56 72t84.5 45.5t106 16q60 0 111 -16t88 -50t57.5 -85.5t20.5 -123.5q0 -104 -37 -184t-98 -135.5t-139.5 -87t-160.5 -38.5l-51 64q69 10 125 36.5t97 64
t67.5 83.5t37.5 96h-5zM464 483q0 70 -32.5 110t-95.5 40q-30 0 -54 -11.5t-40 -31t-24.5 -46.5t-8.5 -57q0 -66 31 -104t88 -38q24 0 48.5 9.5t44 27.5t31.5 43.5t12 57.5z" />
    <glyph glyph-name="zero.subs" unicode="&#x2080;" horiz-adv-x="476" 
d="M239 290q41 0 76 -16.5t61 -47t41 -73.5t15 -95t-15 -94t-41 -71t-61.5 -45t-75.5 -16q-41 0 -76.5 16t-62 45t-41.5 71t-15 94t15 95t41.5 73.5t62 47t76.5 16.5zM239 234q-42 0 -59.5 -46.5t-17.5 -129.5q0 -84 17.5 -126.5t59.5 -42.5q40 0 58 42.5t18 126.5
q0 83 -18 129.5t-58 46.5z" />
    <glyph glyph-name="one.subs" unicode="&#x2081;" horiz-adv-x="320" 
d="M121 207l-101 -39l5 57l145 57h65v-442h-114v367z" />
    <glyph glyph-name="two.subs" unicode="&#x2082;" horiz-adv-x="402" 
d="M20 -130l73 74q34 34 58.5 62.5t40.5 53.5t24 48t8 46q0 29 -17.5 52t-52.5 23q-23 0 -45.5 -8t-44.5 -28h-11l4 59q26 20 57.5 29t68.5 9q72 0 114 -32.5t42 -89.5q0 -28 -9.5 -52t-28 -49.5t-47 -53.5t-66.5 -64l-17 -16v-3h99h33.5t26.5 1t21.5 2.5t19.5 3.5h9
l-42 -97h-318v30z" />
    <glyph glyph-name="three.subs" unicode="&#x2083;" horiz-adv-x="377" 
d="M222 -28q0 79 -95 79h-17l5 51h13q46 0 66 19t20 51q0 30 -18 46t-50 16q-46 0 -87 -30h-11l8 60q26 15 56.5 20.5t57.5 5.5q32 0 59.5 -6.5t47.5 -20t31.5 -34.5t11.5 -49q0 -41 -18.5 -63t-50.5 -33v-4q15 -5 29.5 -13.5t26.5 -21.5t19 -31.5t7 -43.5q0 -66 -50 -102
t-133 -36q-35 0 -66.5 9t-53.5 26l-9 64h11q23 -20 51.5 -28.5t54.5 -8.5q44 0 64 23t20 55z" />
    <glyph glyph-name="four.subs" unicode="&#x2084;" horiz-adv-x="422" 
d="M404 21l-9 -68h-57v-113h-106v113h-214v44l228 285h92v-261h66zM232 191h-6l-127 -165v-5h133v170z" />
    <glyph glyph-name="five.subs" unicode="&#x2085;" horiz-adv-x="394" 
d="M243 -22q0 41 -19.5 62t-55.5 21q-35 0 -60 -20l-53 9l31 232h246l-8 -83h-170l-13 -86q6 2 22.5 4.5t30.5 2.5q76 0 117.5 -36.5t41.5 -102.5t-47.5 -107.5t-131.5 -41.5q-41 0 -73.5 10.5t-54.5 24.5l-7 66h12q26 -21 54 -30t54 -9q41 0 62.5 24t21.5 60z" />
    <glyph glyph-name="six.subs" unicode="&#x2086;" horiz-adv-x="434" 
d="M222 -168q-84 0 -131 46t-47 127q0 57 19.5 106t54 86.5t83 61.5t105.5 31l41 -43q-32 -6 -63 -19.5t-56.5 -34t-43.5 -46.5t-24 -58l2 -1q11 12 32 20.5t49 8.5q68 0 109.5 -38t41.5 -100q0 -31 -13 -58t-36.5 -46.5t-55 -31t-67.5 -11.5zM222 -114q26 0 41.5 22
t15.5 67t-15 67.5t-41 22.5q-29 0 -46 -23t-17 -67t17 -66.5t45 -22.5z" />
    <glyph glyph-name="seven.subs" unicode="&#x2087;" horiz-adv-x="406" 
d="M73 -160q48 91 94 181t94 186h-224l10 75h329v-21q-20 -41 -43.5 -90t-49 -104t-51.5 -112.5t-51 -114.5h-108v0z" />
    <glyph glyph-name="eight.subs" unicode="&#x2088;" horiz-adv-x="438" 
d="M366 189q0 -59 -77 -97v-2q57 -29 81 -59t24 -72q0 -27 -13 -50.5t-36.5 -40.5t-57 -26.5t-73.5 -9.5q-79 0 -124.5 33.5t-45.5 88.5q0 74 99 121v2q-41 23 -58.5 46.5t-17.5 58.5q0 46 40.5 77t112.5 31q74 0 110 -28t36 -73zM276 189q0 23 -14.5 37.5t-36.5 14.5
q-21 0 -35 -15.5t-14 -38.5q0 -24 13.5 -37.5t42.5 -28.5q22 13 33 29t11 39zM276 -46q0 35 -22 53t-57 34q-27 -16 -41 -36t-14 -48q0 -32 19 -52t49 -20q28 0 47 19.5t19 49.5z" />
    <glyph glyph-name="nine.subs" unicode="&#x2089;" horiz-adv-x="433" 
d="M83 -119q81 19 128.5 55.5t59.5 97.5h-3q-13 -13 -35 -19t-47 -6q-68 0 -107 36.5t-39 100.5q0 32 12.5 58.5t35.5 45.5t55 29.5t71 10.5q82 0 128.5 -46t46.5 -127q0 -59 -19 -108t-53.5 -86t-83 -60.5t-106.5 -30.5zM209 65q31 0 47.5 22t16.5 62q0 42 -16 65t-43 23
q-28 0 -43.5 -23t-15.5 -66q0 -38 14 -60.5t40 -22.5z" />
    <glyph glyph-name="zero.dnom" horiz-adv-x="476" 
d="M239 450q41 0 76 -16.5t61 -47t41 -73.5t15 -95t-15 -94t-41 -71t-61.5 -45t-75.5 -16q-41 0 -76.5 16t-62 45t-41.5 71t-15 94t15 95t41.5 73.5t62 47t76.5 16.5zM239 394q-42 0 -59.5 -46.5t-17.5 -129.5q0 -84 17.5 -126.5t59.5 -42.5q40 0 58 42.5t18 126.5
q0 83 -18 129.5t-58 46.5z" />
    <glyph glyph-name="one.dnom" horiz-adv-x="320" 
d="M121 367l-101 -39l5 57l145 57h65v-442h-114v367z" />
    <glyph glyph-name="two.dnom" horiz-adv-x="402" 
d="M20 30l73 74q34 34 58.5 62.5t40.5 53.5t24 48t8 46q0 29 -17.5 52t-52.5 23q-23 0 -45.5 -8t-44.5 -28h-11l4 59q26 20 57.5 29t68.5 9q72 0 114 -32.5t42 -89.5q0 -28 -9.5 -52t-28 -49.5t-47 -53.5t-66.5 -64l-17 -16v-3h99h33.5t26.5 1t21.5 2.5t19.5 3.5h9l-42 -97
h-318v30z" />
    <glyph glyph-name="three.dnom" horiz-adv-x="377" 
d="M222 132q0 79 -95 79h-17l5 51h13q46 0 66 19t20 51q0 30 -18 46t-50 16q-46 0 -87 -30h-11l8 60q26 15 56.5 20.5t57.5 5.5q32 0 59.5 -6.5t47.5 -20t31.5 -34.5t11.5 -49q0 -41 -18.5 -63t-50.5 -33v-4q15 -5 29.5 -13.5t26.5 -21.5t19 -31.5t7 -43.5q0 -66 -50 -102
t-133 -36q-35 0 -66.5 9t-53.5 26l-9 64h11q23 -20 51.5 -28.5t54.5 -8.5q44 0 64 23t20 55z" />
    <glyph glyph-name="four.dnom" horiz-adv-x="422" 
d="M404 181l-9 -68h-57v-113h-106v113h-214v44l228 285h92v-261h66zM232 351h-6l-127 -165v-5h133v170z" />
    <glyph glyph-name="five.dnom" horiz-adv-x="394" 
d="M243 138q0 41 -19.5 62t-55.5 21q-35 0 -60 -20l-53 9l31 232h246l-8 -83h-170l-13 -86q6 2 22.5 4.5t30.5 2.5q76 0 117.5 -36.5t41.5 -102.5t-47.5 -107.5t-131.5 -41.5q-41 0 -73.5 10.5t-54.5 24.5l-7 66h12q26 -21 54 -30t54 -9q41 0 62.5 24t21.5 60z" />
    <glyph glyph-name="six.dnom" horiz-adv-x="434" 
d="M222 -8q-84 0 -131 46t-47 127q0 57 19.5 106t54 86.5t83 61.5t105.5 31l41 -43q-32 -6 -63 -19.5t-56.5 -34t-43.5 -46.5t-24 -58l2 -1q11 12 32 20.5t49 8.5q68 0 109.5 -38t41.5 -100q0 -31 -13 -58t-36.5 -46.5t-55 -31t-67.5 -11.5zM222 46q26 0 41.5 22t15.5 67
t-15 67.5t-41 22.5q-29 0 -46 -23t-17 -67t17 -66.5t45 -22.5z" />
    <glyph glyph-name="seven.dnom" horiz-adv-x="406" 
d="M73 0q48 91 94 181t94 186h-224l10 75h329v-21q-20 -41 -43.5 -90t-49 -104t-51.5 -112.5t-51 -114.5h-108v0z" />
    <glyph glyph-name="eight.dnom" horiz-adv-x="438" 
d="M366 349q0 -59 -77 -97v-2q57 -29 81 -59t24 -72q0 -27 -13 -50.5t-36.5 -40.5t-57 -26.5t-73.5 -9.5q-79 0 -124.5 33.5t-45.5 88.5q0 74 99 121v2q-41 23 -58.5 46.5t-17.5 58.5q0 46 40.5 77t112.5 31q74 0 110 -28t36 -73zM276 349q0 23 -14.5 37.5t-36.5 14.5
q-21 0 -35 -15.5t-14 -38.5q0 -24 13.5 -37.5t42.5 -28.5q22 13 33 29t11 39zM276 114q0 35 -22 53t-57 34q-27 -16 -41 -36t-14 -48q0 -32 19 -52t49 -20q28 0 47 19.5t19 49.5z" />
    <glyph glyph-name="nine.dnom" horiz-adv-x="433" 
d="M83 41q81 19 128.5 55.5t59.5 97.5h-3q-13 -13 -35 -19t-47 -6q-68 0 -107 36.5t-39 100.5q0 32 12.5 58.5t35.5 45.5t55 29.5t71 10.5q82 0 128.5 -46t46.5 -127q0 -59 -19 -108t-53.5 -86t-83 -60.5t-106.5 -30.5zM209 225q31 0 47.5 22t16.5 62q0 42 -16 65t-43 23
q-28 0 -43.5 -23t-15.5 -66q0 -38 14 -60.5t40 -22.5z" />
    <glyph glyph-name="zero.numr" horiz-adv-x="476" 
d="M239 688q41 0 76 -16.5t61 -47t41 -73.5t15 -95t-15 -94t-41 -71t-61.5 -45t-75.5 -16q-41 0 -76.5 16t-62 45t-41.5 71t-15 94t15 95t41.5 73.5t62 47t76.5 16.5zM239 632q-42 0 -59.5 -46.5t-17.5 -129.5q0 -84 17.5 -126.5t59.5 -42.5q40 0 58 42.5t18 126.5
q0 83 -18 129.5t-58 46.5z" />
    <glyph glyph-name="one.numr" horiz-adv-x="320" 
d="M121 605l-101 -39l5 57l145 57h65v-442h-114v367z" />
    <glyph glyph-name="two.numr" horiz-adv-x="402" 
d="M20 268l73 74q34 34 58.5 62.5t40.5 53.5t24 48t8 46q0 29 -17.5 52t-52.5 23q-23 0 -45.5 -8t-44.5 -28h-11l4 59q26 20 57.5 29t68.5 9q72 0 114 -32.5t42 -89.5q0 -28 -9.5 -52t-28 -49.5t-47 -53.5t-66.5 -64l-17 -16v-3h99h33.5t26.5 1t21.5 2.5t19.5 3.5h9l-42 -97
h-318v30z" />
    <glyph glyph-name="three.numr" horiz-adv-x="377" 
d="M222 370q0 79 -95 79h-17l5 51h13q46 0 66 19t20 51q0 30 -18 46t-50 16q-46 0 -87 -30h-11l8 60q26 15 56.5 20.5t57.5 5.5q32 0 59.5 -6.5t47.5 -20t31.5 -34.5t11.5 -49q0 -41 -18.5 -63t-50.5 -33v-4q15 -5 29.5 -13.5t26.5 -21.5t19 -31.5t7 -43.5q0 -66 -50 -102
t-133 -36q-35 0 -66.5 9t-53.5 26l-9 64h11q23 -20 51.5 -28.5t54.5 -8.5q44 0 64 23t20 55z" />
    <glyph glyph-name="four.numr" horiz-adv-x="422" 
d="M404 419l-9 -68h-57v-113h-106v113h-214v44l228 285h92v-261h66zM232 589h-6l-127 -165v-5h133v170z" />
    <glyph glyph-name="five.numr" horiz-adv-x="394" 
d="M243 376q0 41 -19.5 62t-55.5 21q-35 0 -60 -20l-53 9l31 232h246l-8 -83h-170l-13 -86q6 2 22.5 4.5t30.5 2.5q76 0 117.5 -36.5t41.5 -102.5t-47.5 -107.5t-131.5 -41.5q-41 0 -73.5 10.5t-54.5 24.5l-7 66h12q26 -21 54 -30t54 -9q41 0 62.5 24t21.5 60z" />
    <glyph glyph-name="six.numr" horiz-adv-x="434" 
d="M222 230q-84 0 -131 46t-47 127q0 57 19.5 106t54 86.5t83 61.5t105.5 31l41 -43q-32 -6 -63 -19.5t-56.5 -34t-43.5 -46.5t-24 -58l2 -1q11 12 32 20.5t49 8.5q68 0 109.5 -38t41.5 -100q0 -31 -13 -58t-36.5 -46.5t-55 -31t-67.5 -11.5zM222 284q26 0 41.5 22t15.5 67
t-15 67.5t-41 22.5q-29 0 -46 -23t-17 -67t17 -66.5t45 -22.5z" />
    <glyph glyph-name="seven.numr" horiz-adv-x="406" 
d="M73 238q48 91 94 181t94 186h-224l10 75h329v-21q-20 -41 -43.5 -90t-49 -104t-51.5 -112.5t-51 -114.5h-108v0z" />
    <glyph glyph-name="eight.numr" horiz-adv-x="438" 
d="M366 587q0 -59 -77 -97v-2q57 -29 81 -59t24 -72q0 -27 -13 -50.5t-36.5 -40.5t-57 -26.5t-73.5 -9.5q-79 0 -124.5 33.5t-45.5 88.5q0 74 99 121v2q-41 23 -58.5 46.5t-17.5 58.5q0 46 40.5 77t112.5 31q74 0 110 -28t36 -73zM276 587q0 23 -14.5 37.5t-36.5 14.5
q-21 0 -35 -15.5t-14 -38.5q0 -24 13.5 -37.5t42.5 -28.5q22 13 33 29t11 39zM276 352q0 35 -22 53t-57 34q-27 -16 -41 -36t-14 -48q0 -32 19 -52t49 -20q28 0 47 19.5t19 49.5z" />
    <glyph glyph-name="nine.numr" horiz-adv-x="433" 
d="M83 279q81 19 128.5 55.5t59.5 97.5h-3q-13 -13 -35 -19t-47 -6q-68 0 -107 36.5t-39 100.5q0 32 12.5 58.5t35.5 45.5t55 29.5t71 10.5q82 0 128.5 -46t46.5 -127q0 -59 -19 -108t-53.5 -86t-83 -60.5t-106.5 -30.5zM209 463q31 0 47.5 22t16.5 62q0 42 -16 65t-43 23
q-28 0 -43.5 -23t-15.5 -66q0 -38 14 -60.5t40 -22.5z" />
    <glyph glyph-name="zero.sups" unicode="&#x2070;" horiz-adv-x="476" 
d="M239 880q41 0 76 -16.5t61 -47t41 -73.5t15 -95t-15 -94t-41 -71t-61.5 -45t-75.5 -16q-41 0 -76.5 16t-62 45t-41.5 71t-15 94t15 95t41.5 73.5t62 47t76.5 16.5zM239 824q-42 0 -59.5 -46.5t-17.5 -129.5q0 -84 17.5 -126.5t59.5 -42.5q40 0 58 42.5t18 126.5
q0 83 -18 129.5t-58 46.5z" />
    <glyph glyph-name="one.sups" unicode="&#xb9;" horiz-adv-x="320" 
d="M121 797l-101 -39l5 57l145 57h65v-442h-114v367z" />
    <glyph glyph-name="two.sups" unicode="&#xb2;" horiz-adv-x="402" 
d="M20 460l73 74q34 34 58.5 62.5t40.5 53.5t24 48t8 46q0 29 -17.5 52t-52.5 23q-23 0 -45.5 -8t-44.5 -28h-11l4 59q26 20 57.5 29t68.5 9q72 0 114 -32.5t42 -89.5q0 -28 -9.5 -52t-28 -49.5t-47 -53.5t-66.5 -64l-17 -16v-3h99h33.5t26.5 1t21.5 2.5t19.5 3.5h9l-42 -97
h-318v30z" />
    <glyph glyph-name="three.sups" unicode="&#xb3;" horiz-adv-x="377" 
d="M222 562q0 79 -95 79h-17l5 51h13q46 0 66 19t20 51q0 30 -18 46t-50 16q-46 0 -87 -30h-11l8 60q26 15 56.5 20.5t57.5 5.5q32 0 59.5 -6.5t47.5 -20t31.5 -34.5t11.5 -49q0 -41 -18.5 -63t-50.5 -33v-4q15 -5 29.5 -13.5t26.5 -21.5t19 -31.5t7 -43.5q0 -66 -50 -102
t-133 -36q-35 0 -66.5 9t-53.5 26l-9 64h11q23 -20 51.5 -28.5t54.5 -8.5q44 0 64 23t20 55z" />
    <glyph glyph-name="four.sups" unicode="&#x2074;" horiz-adv-x="422" 
d="M404 611l-9 -68h-57v-113h-106v113h-214v44l228 285h92v-261h66zM232 781h-6l-127 -165v-5h133v170z" />
    <glyph glyph-name="five.sups" unicode="&#x2075;" horiz-adv-x="394" 
d="M243 568q0 41 -19.5 62t-55.5 21q-35 0 -60 -20l-53 9l31 232h246l-8 -83h-170l-13 -86q6 2 22.5 4.5t30.5 2.5q76 0 117.5 -36.5t41.5 -102.5t-47.5 -107.5t-131.5 -41.5q-41 0 -73.5 10.5t-54.5 24.5l-7 66h12q26 -21 54 -30t54 -9q41 0 62.5 24t21.5 60z" />
    <glyph glyph-name="six.sups" unicode="&#x2076;" horiz-adv-x="434" 
d="M222 422q-84 0 -131 46t-47 127q0 57 19.5 106t54 86.5t83 61.5t105.5 31l41 -43q-32 -6 -63 -19.5t-56.5 -34t-43.5 -46.5t-24 -58l2 -1q11 12 32 20.5t49 8.5q68 0 109.5 -38t41.5 -100q0 -31 -13 -58t-36.5 -46.5t-55 -31t-67.5 -11.5zM222 476q26 0 41.5 22t15.5 67
t-15 67.5t-41 22.5q-29 0 -46 -23t-17 -67t17 -66.5t45 -22.5z" />
    <glyph glyph-name="seven.sups" unicode="&#x2077;" horiz-adv-x="406" 
d="M73 430q48 91 94 181t94 186h-224l10 75h329v-21q-20 -41 -43.5 -90t-49 -104t-51.5 -112.5t-51 -114.5h-108v0z" />
    <glyph glyph-name="eight.sups" unicode="&#x2078;" horiz-adv-x="438" 
d="M366 779q0 -59 -77 -97v-2q57 -29 81 -59t24 -72q0 -27 -13 -50.5t-36.5 -40.5t-57 -26.5t-73.5 -9.5q-79 0 -124.5 33.5t-45.5 88.5q0 74 99 121v2q-41 23 -58.5 46.5t-17.5 58.5q0 46 40.5 77t112.5 31q74 0 110 -28t36 -73zM276 779q0 23 -14.5 37.5t-36.5 14.5
q-21 0 -35 -15.5t-14 -38.5q0 -24 13.5 -37.5t42.5 -28.5q22 13 33 29t11 39zM276 544q0 35 -22 53t-57 34q-27 -16 -41 -36t-14 -48q0 -32 19 -52t49 -20q28 0 47 19.5t19 49.5z" />
    <glyph glyph-name="nine.sups" unicode="&#x2079;" horiz-adv-x="433" 
d="M83 471q81 19 128.5 55.5t59.5 97.5h-3q-13 -13 -35 -19t-47 -6q-68 0 -107 36.5t-39 100.5q0 32 12.5 58.5t35.5 45.5t55 29.5t71 10.5q82 0 128.5 -46t46.5 -127q0 -59 -19 -108t-53.5 -86t-83 -60.5t-106.5 -30.5zM209 655q31 0 47.5 22t16.5 62q0 42 -16 65t-43 23
q-28 0 -43.5 -23t-15.5 -66q0 -38 14 -60.5t40 -22.5z" />
    <glyph glyph-name="fraction" unicode="&#x2044;" horiz-adv-x="159" 
d="M299 673l-390 -699l-49 26l389 699z" />
    <glyph glyph-name="onehalf" unicode="&#xbd;" horiz-adv-x="881" 
d="M619 673l-390 -699l-49 26l389 699zM121 605l-101 -39l5 57l145 57h65v-442h-114v367zM499 30l73 74q34 34 58.5 62.5t40.5 53.5t24 48t8 46q0 29 -17.5 52t-52.5 23q-23 0 -45.5 -8t-44.5 -28h-11l4 59q26 20 57.5 29t68.5 9q72 0 114 -32.5t42 -89.5q0 -28 -9.5 -52
t-28 -49.5t-47 -53.5t-66.5 -64l-17 -16v-3h99h33.5t26.5 1t21.5 2.5t19.5 3.5h9l-42 -97h-318v30z" />
    <glyph glyph-name="onequarter" unicode="&#xbc;" horiz-adv-x="867" 
d="M619 673l-390 -699l-49 26l389 699zM121 605l-101 -39l5 57l145 57h65v-442h-114v367zM849 181l-9 -68h-57v-113h-106v113h-214v44l228 285h92v-261h66zM677 351h-6l-127 -165v-5h133v170z" />
    <glyph glyph-name="threequarters" unicode="&#xbe;" horiz-adv-x="924" 
d="M676 673l-390 -699l-49 26l389 699zM222 370q0 79 -95 79h-17l5 51h13q46 0 66 19t20 51q0 30 -18 46t-50 16q-46 0 -87 -30h-11l8 60q26 15 56.5 20.5t57.5 5.5q32 0 59.5 -6.5t47.5 -20t31.5 -34.5t11.5 -49q0 -41 -18.5 -63t-50.5 -33v-4q15 -5 29.5 -13.5t26.5 -21.5
t19 -31.5t7 -43.5q0 -66 -50 -102t-133 -36q-35 0 -66.5 9t-53.5 26l-9 64h11q23 -20 51.5 -28.5t54.5 -8.5q44 0 64 23t20 55zM906 181l-9 -68h-57v-113h-106v113h-214v44l228 285h92v-261h66zM734 351h-6l-127 -165v-5h133v170z" />
    <glyph glyph-name="oneeighth" unicode="&#x215b;" horiz-adv-x="917" 
d="M619 673l-390 -699l-49 26l389 699zM121 605l-101 -39l5 57l145 57h65v-442h-114v367zM845 349q0 -59 -77 -97v-2q57 -29 81 -59t24 -72q0 -27 -13 -50.5t-36.5 -40.5t-57 -26.5t-73.5 -9.5q-79 0 -124.5 33.5t-45.5 88.5q0 74 99 121v2q-41 23 -58.5 46.5t-17.5 58.5
q0 46 40.5 77t112.5 31q74 0 110 -28t36 -73zM755 349q0 23 -14.5 37.5t-36.5 14.5q-21 0 -35 -15.5t-14 -38.5q0 -24 13.5 -37.5t42.5 -28.5q22 13 33 29t11 39zM755 114q0 35 -22 53t-57 34q-27 -16 -41 -36t-14 -48q0 -32 19 -52t49 -20q28 0 47 19.5t19 49.5z" />
    <glyph glyph-name="threeeighths" unicode="&#x215c;" horiz-adv-x="974" 
d="M676 673l-390 -699l-49 26l389 699zM222 370q0 79 -95 79h-17l5 51h13q46 0 66 19t20 51q0 30 -18 46t-50 16q-46 0 -87 -30h-11l8 60q26 15 56.5 20.5t57.5 5.5q32 0 59.5 -6.5t47.5 -20t31.5 -34.5t11.5 -49q0 -41 -18.5 -63t-50.5 -33v-4q15 -5 29.5 -13.5t26.5 -21.5
t19 -31.5t7 -43.5q0 -66 -50 -102t-133 -36q-35 0 -66.5 9t-53.5 26l-9 64h11q23 -20 51.5 -28.5t54.5 -8.5q44 0 64 23t20 55zM902 349q0 -59 -77 -97v-2q57 -29 81 -59t24 -72q0 -27 -13 -50.5t-36.5 -40.5t-57 -26.5t-73.5 -9.5q-79 0 -124.5 33.5t-45.5 88.5
q0 74 99 121v2q-41 23 -58.5 46.5t-17.5 58.5q0 46 40.5 77t112.5 31q74 0 110 -28t36 -73zM812 349q0 23 -14.5 37.5t-36.5 14.5q-21 0 -35 -15.5t-14 -38.5q0 -24 13.5 -37.5t42.5 -28.5q22 13 33 29t11 39zM812 114q0 35 -22 53t-57 34q-27 -16 -41 -36t-14 -48
q0 -32 19 -52t49 -20q28 0 47 19.5t19 49.5z" />
    <glyph glyph-name="fiveeighths" unicode="&#x215d;" horiz-adv-x="1001" 
d="M703 673l-390 -699l-49 26l389 699zM243 376q0 41 -19.5 62t-55.5 21q-35 0 -60 -20l-53 9l31 232h246l-8 -83h-170l-13 -86q6 2 22.5 4.5t30.5 2.5q76 0 117.5 -36.5t41.5 -102.5t-47.5 -107.5t-131.5 -41.5q-41 0 -73.5 10.5t-54.5 24.5l-7 66h12q26 -21 54 -30t54 -9
q41 0 62.5 24t21.5 60zM929 349q0 -59 -77 -97v-2q57 -29 81 -59t24 -72q0 -27 -13 -50.5t-36.5 -40.5t-57 -26.5t-73.5 -9.5q-79 0 -124.5 33.5t-45.5 88.5q0 74 99 121v2q-41 23 -58.5 46.5t-17.5 58.5q0 46 40.5 77t112.5 31q74 0 110 -28t36 -73zM839 349
q0 23 -14.5 37.5t-36.5 14.5q-21 0 -35 -15.5t-14 -38.5q0 -24 13.5 -37.5t42.5 -28.5q22 13 33 29t11 39zM839 114q0 35 -22 53t-57 34q-27 -16 -41 -36t-14 -48q0 -32 19 -52t49 -20q28 0 47 19.5t19 49.5z" />
    <glyph glyph-name="seveneighths" unicode="&#x215e;" horiz-adv-x="923" 
d="M625 673l-390 -699l-49 26l389 699zM73 238q48 91 94 181t94 186h-224l10 75h329v-21q-20 -41 -43.5 -90t-49 -104t-51.5 -112.5t-51 -114.5h-108zM851 349q0 -59 -77 -97v-2q57 -29 81 -59t24 -72q0 -27 -13 -50.5t-36.5 -40.5t-57 -26.5t-73.5 -9.5q-79 0 -124.5 33.5
t-45.5 88.5q0 74 99 121v2q-41 23 -58.5 46.5t-17.5 58.5q0 46 40.5 77t112.5 31q74 0 110 -28t36 -73zM761 349q0 23 -14.5 37.5t-36.5 14.5q-21 0 -35 -15.5t-14 -38.5q0 -24 13.5 -37.5t42.5 -28.5q22 13 33 29t11 39zM761 114q0 35 -22 53t-57 34q-27 -16 -41 -36
t-14 -48q0 -32 19 -52t49 -20q28 0 47 19.5t19 49.5z" />
    <glyph glyph-name="period" unicode="." horiz-adv-x="320" 
d="M234 0h-149v147h149v-147z" />
    <glyph glyph-name="comma" unicode="," horiz-adv-x="320" 
d="M242 147q-3 -23 -13.5 -60t-25 -78.5t-31 -82t-31.5 -69.5h-71q10 35 17.5 76.5t13 82t8.5 75.5t3 56h130v0z" />
    <glyph glyph-name="colon" unicode=":" horiz-adv-x="357" 
d="M252 340h-147v140h147v-140zM252 0h-147v139h147v-139z" />
    <glyph glyph-name="semicolon" unicode=";" horiz-adv-x="357" 
d="M252 337h-147v143h147v-143zM248 147q-3 -23 -12.5 -60t-23 -78.5t-29.5 -82t-31 -69.5h-81q10 35 18 76.5t14 82t10 75.5t6 56h129z" />
    <glyph glyph-name="ellipsis" unicode="&#x2026;" horiz-adv-x="959" 
d="M234 0h-149v147h149v-147zM554 0h-149v147h149v-147zM874 0h-149v147h149v-147z" />
    <glyph glyph-name="exclam" unicode="!" horiz-adv-x="384" 
d="M234 224h-84l-29 456h142zM261 0h-138v144h138v-144z" />
    <glyph glyph-name="exclamdown" unicode="&#xa1;" horiz-adv-x="384" 
d="M123 480h138v-144h-138v144zM150 256h84l29 -456h-142z" />
    <glyph glyph-name="question" unicode="?" horiz-adv-x="515" 
d="M180 244q0 24 7.5 43t19 35t26 29.5t28.5 27.5q14 13 27 26.5t23 29t16 34t6 41.5q0 53 -30 76.5t-78 23.5q-34 0 -67 -12.5t-67 -39.5h-14l13 90q32 21 75.5 31t91.5 10q49 0 89.5 -12.5t70 -35.5t45.5 -54.5t16 -70.5q0 -36 -11.5 -63.5t-30.5 -48.5t-43 -37.5
t-49 -31.5q-14 -9 -27.5 -17.5t-24 -20t-16.5 -27t-6 -37.5v-11h-90v22zM301 -3h-138v144h138v-144z" />
    <glyph glyph-name="questiondown" unicode="&#xbf;" horiz-adv-x="515" 
d="M214 480h138v-144h-138v144zM335 233q0 -24 -7.5 -43t-19 -35t-26 -30t-28.5 -27q-28 -26 -50 -55.5t-22 -75.5q0 -53 30 -76.5t78 -23.5q34 0 67 12.5t67 39.5h14l-13 -90q-32 -21 -75.5 -31t-91.5 -10q-49 0 -89.5 12.5t-70 35.5t-45.5 54.5t-16 70.5q0 36 11.5 63.5
t30.5 48.5t43 37.5t49 31.5q14 9 27.5 17.5t24 20t16.5 27t6 37.5v11h90v-22z" />
    <glyph glyph-name="periodcentered" unicode="&#xb7;" horiz-adv-x="319" 
d="M234 220h-149v147h149v-147z" />
    <glyph glyph-name="bullet" unicode="&#x2022;" 
d="M136 328q0 34 13 64t35 52.5t52 35.5t64 13t64 -13t52.5 -35.5t35.5 -52.5t13 -64t-13 -64t-35.5 -52t-52.5 -35t-64 -13t-64 13t-52 35t-35 52t-13 64z" />
    <glyph glyph-name="asterisk" unicode="*" horiz-adv-x="367" 
d="M312 671l-88 -38l88 -40l-27 -52l-81 58l15 -100h-70l16 101l-83 -59l-27 52l89 40l-88 38l27 51l81 -58l-15 101h70l-16 -101l82 59z" />
    <glyph glyph-name="numbersign" unicode="#" horiz-adv-x="500" 
d="M114 184h-82l23 75h71l36 185h-83l23 74h71l30 162h49l-30 -162h110l29 162h50l-29 -162h81l-23 -74h-71l-35 -185h82l-23 -75h-72l-32 -184h-50l34 184h-110l-34 -184h-49zM285 259l34 185h-109l-34 -185h109z" />
    <glyph glyph-name="slash" unicode="/" horiz-adv-x="609" 
d="M67 -186l400 908l6 3h61l3 -5l-402 -908l-5 -3h-60z" />
    <glyph glyph-name="backslash" unicode="\" 
d="M130 725l5 -3l402 -908l-3 -5h-61l-6 3l-400 908l3 5h60z" />
    <glyph glyph-name="colon.ss01" unicode="&#x1e0a;" horiz-adv-x="357" 
d="M252 459h-147v140h147v-140zM252 119h-147v139h147v-139z" />
    <glyph glyph-name="parenleft" unicode="(" horiz-adv-x="321" 
d="M149 281q0 -70 8 -135.5t23.5 -122.5t39.5 -104.5t57 -80.5h-64q-30 29 -60.5 72t-54.5 99t-39 124t-15 148q0 78 15 145.5t39 123.5t54.5 99t60.5 72h64q-33 -33 -57 -80t-39.5 -104t-23.5 -122t-8 -134z" />
    <glyph glyph-name="parenright" unicode=")" horiz-adv-x="321" 
d="M172 278q0 70 -8 135.5t-23.5 122.5t-39.5 104.5t-57 80.5h64q30 -29 60.5 -72t54.5 -99t39 -124.5t15 -147.5q0 -78 -15 -145.5t-39 -123.5t-54.5 -99t-60.5 -72h-64q33 33 57 80t39.5 104t23.5 122t8 134z" />
    <glyph glyph-name="braceleft" unicode="{" horiz-adv-x="360" 
d="M287 680q-35 0 -50 -21t-15 -77v-158q0 -52 -23.5 -87.5t-85.5 -56.5v-2q60 -19 84.5 -54t24.5 -89v-156q0 -48 13 -74.5t51 -26.5h19v-40h-50q-20 0 -42 7t-41 21.5t-31 37t-12 53.5v156q0 74 -18.5 107.5t-62.5 33.5v50q45 0 63 34t18 106v160q0 22 10.5 43t27.5 37.5
t40 26t49 9.5h49v-40h-18z" />
    <glyph glyph-name="braceright" unicode="}" horiz-adv-x="360" 
d="M73 -122q35 0 50 21t15 77v158q0 52 23.5 87.5t85.5 56.5v2q-60 19 -84.5 54t-24.5 89v156q0 48 -13 74.5t-51 26.5h-19v40h50q20 0 42 -7t41 -21.5t31 -37t12 -53.5v-156q0 -74 18.5 -107.5t62.5 -33.5v-50q-45 0 -63 -34t-18 -106v-160q0 -23 -10.5 -43.5t-27.5 -37
t-40.5 -26t-48.5 -9.5h-49v40h18z" />
    <glyph glyph-name="bracketleft" unicode="[" horiz-adv-x="360" 
d="M281 672h-112v-786h112v-48h-204v882h204v-48z" />
    <glyph glyph-name="bracketright" unicode="]" horiz-adv-x="360" 
d="M79 -114h112v786h-112v48h204v-882h-204v48z" />
    <glyph glyph-name="hyphen" unicode="-" horiz-adv-x="404" 
d="M348 223h-299l7 91h299z" />
    <glyph glyph-name="uni00AD" unicode="&#xad;" horiz-adv-x="404" 
d="M348 223h-299l7 91h299z" />
    <glyph glyph-name="endash" unicode="&#x2013;" horiz-adv-x="500" 
d="M491 224h-482v89h482v-89z" />
    <glyph glyph-name="emdash" unicode="&#x2014;" horiz-adv-x="918" 
d="M818 224h-718v89h718v-89z" />
    <glyph glyph-name="uni2011" unicode="&#x2011;" horiz-adv-x="404" 
d="M348 223h-299l7 91h299z" />
    <glyph glyph-name="underscore" unicode="_" horiz-adv-x="500" 
d="M0 -91h500v-54h-500v54z" />
    <glyph glyph-name="hyphen.ss01" unicode="&#x1e0b;" horiz-adv-x="404" 
d="M348 311h-299l7 91h299z" />
    <glyph glyph-name="uni00AD.ss01" horiz-adv-x="404" 
d="M348 311h-299l7 91h299z" />
    <glyph glyph-name="endash.ss01" horiz-adv-x="500" 
d="M491 312h-482v89h482v-89z" />
    <glyph glyph-name="emdash.ss01" horiz-adv-x="918" 
d="M818 312h-718v89h718v-89z" />
    <glyph glyph-name="uni2011.ss01" horiz-adv-x="404" 
d="M348 311h-299l7 91h299z" />
    <glyph glyph-name="quotesinglbase" unicode="&#x201a;" horiz-adv-x="267" 
d="M218 125q-3 -20 -13.5 -56t-24.5 -75t-27.5 -74.5t-22.5 -55.5h-81q8 26 14.5 63t12 74.5t9 70.5t4.5 53h129v0z" />
    <glyph glyph-name="quotedblbase" unicode="&#x201e;" horiz-adv-x="460" 
d="M218 125q-3 -20 -13.5 -56t-24.5 -75t-27.5 -74.5t-22.5 -55.5h-81q8 26 14.5 62.5t12 74t9 71t4.5 53.5h129zM411 125q-3 -20 -13.5 -56t-24.5 -75t-27.5 -74.5t-22.5 -55.5h-81q8 26 14.5 62.5t12 74t9 71t4.5 53.5h129z" />
    <glyph glyph-name="quotedblleft" unicode="&#x201c;" horiz-adv-x="460" 
d="M49 419q3 20 13.5 56t24.5 75t27.5 74.5t22.5 55.5h81q-8 -26 -15 -62.5t-12 -74t-8.5 -71t-4.5 -53.5h-129zM242 419q3 20 13.5 56t24.5 75t27.5 74.5t22.5 55.5h81q-8 -26 -15 -62.5t-12 -74t-8.5 -71t-4.5 -53.5h-129z" />
    <glyph glyph-name="quotedblright" unicode="&#x201d;" horiz-adv-x="460" 
d="M218 680q-3 -20 -13.5 -56t-24.5 -75t-27.5 -74.5t-22.5 -55.5h-81q8 26 14.5 62.5t12 74t9 71t4.5 53.5h129zM411 680q-3 -20 -13.5 -56t-24.5 -75t-27.5 -74.5t-22.5 -55.5h-81q8 26 14.5 62.5t12 74t9 71t4.5 53.5h129z" />
    <glyph glyph-name="quoteleft" unicode="&#x2018;" horiz-adv-x="267" 
d="M49 419q3 20 13.5 56t24.5 75t27.5 74.5t22.5 55.5h81q-8 -26 -15 -62.5t-12 -74t-8.5 -71t-4.5 -53.5h-129v0z" />
    <glyph glyph-name="quoteright" unicode="&#x2019;" horiz-adv-x="267" 
d="M218 680q-3 -20 -13.5 -56t-24.5 -75t-27.5 -74.5t-22.5 -55.5h-81q8 26 14.5 63t12 74.5t9 70.5t4.5 53h129v0z" />
    <glyph glyph-name="guillemotleft" unicode="&#xab;" horiz-adv-x="423" 
d="M210 374l-81 -99l81 -99v-67l-164 130v72l164 130v-67zM367 374l-81 -99l81 -99v-67l-159 130v72l159 130v-67z" />
    <glyph glyph-name="guillemotright" unicode="&#xbb;" horiz-adv-x="423" 
d="M56 176l81 99l-81 99v67l159 -130v-72l-159 -130v67zM213 176l81 99l-81 99v67l164 -130v-72l-164 -130v67z" />
    <glyph glyph-name="guilsinglleft" unicode="&#x2039;" horiz-adv-x="266" 
d="M210 374l-81 -99l81 -99v-67l-164 130v72l164 130v-67z" />
    <glyph glyph-name="guilsinglright" unicode="&#x203a;" horiz-adv-x="266" 
d="M56 176l81 99l-81 99v67l164 -130v-72l-164 -130v67z" />
    <glyph glyph-name="quotedbl" unicode="&#x22;" 
d="M234 454h-84l-29 256h142zM450 454h-84l-29 256h142z" />
    <glyph glyph-name="quotesingle" unicode="'" horiz-adv-x="384" 
d="M234 454h-84l-29 256h142z" />
    <glyph glyph-name="guillemotleft.ss01" unicode="&#x1e0c;" horiz-adv-x="423" 
d="M210 454l-81 -99l81 -99v-67l-164 130v72l164 130v-67zM367 454l-81 -99l81 -99v-67l-159 130v72l159 130v-67z" />
    <glyph glyph-name="guillemotright.ss01" unicode="&#x1e0d;" horiz-adv-x="423" 
d="M56 256l81 99l-81 99v67l159 -130v-72l-159 -130v67zM213 256l81 99l-81 99v67l164 -130v-72l-164 -130v67z" />
    <glyph glyph-name="guilsinglleft.ss01" unicode="&#x1e0e;" horiz-adv-x="266" 
d="M210 454l-81 -99l81 -99v-67l-164 130v72l164 130v-67z" />
    <glyph glyph-name="guilsinglright.ss01" unicode="&#x1e0f;" horiz-adv-x="266" 
d="M56 256l81 99l-81 99v67l164 -130v-72l-164 -130v67z" />
    <glyph glyph-name="uni00A0" unicode="&#xa0;" horiz-adv-x="254" 
 />
    <glyph glyph-name="uniFEFF" unicode="&#xfeff;" horiz-adv-x="0" 
 />
    <glyph glyph-name="cent" unicode="&#xa2;" 
d="M500 27q-33 -27 -94 -34v-113h-55v110q-51 1 -97 17t-80 46.5t-54 76.5t-20 107q0 57 19 103.5t52.5 79.5t79.5 51t100 19v100h55v-103q52 -8 83 -27l11 -67h-12q-17 14 -38.5 22t-43.5 11v-368q29 3 55 15t43 30h12zM232 242q0 -74 32.5 -122.5t86.5 -60.5v365
q-54 -12 -86.5 -61t-32.5 -121z" />
    <glyph glyph-name="currency" unicode="&#xa4;" 
d="M157 547q26 23 64.5 36.5t79.5 13.5q36 0 73 -12t65 -37l56 56l52 -52l-54 -55q24 -29 35.5 -68t11.5 -80q0 -46 -12.5 -84t-35.5 -65l53 -56l-48 -49l-54 57q-26 -24 -62.5 -37.5t-79.5 -13.5q-42 0 -79 12.5t-66 38.5l-55 -57l-49 49l55 58q-24 30 -36 67t-12 79
q0 43 12 81.5t36 66.5l-55 57l50 50zM301 190q31 0 57 12.5t44 34t28 50.5t10 62q0 30 -9.5 58.5t-27.5 50.5t-43.5 35.5t-58.5 13.5q-30 0 -56 -12t-45 -33t-30 -50.5t-11 -63.5q0 -33 10 -61.5t29 -50t45 -34t58 -12.5z" />
    <glyph glyph-name="dollar" unicode="$" horiz-adv-x="550" 
d="M495 187q0 -41 -13.5 -72.5t-36.5 -54t-54 -36t-66 -18.5v-106h-55v102q-62 2 -111 25t-80 50l-17 108h14q41 -49 92.5 -77t101.5 -30v220l-30 17q-33 19 -58.5 37.5t-43.5 40t-27 47.5t-9 60q0 40 14.5 70.5t38.5 51.5t54 33t61 17v97h55v-94q42 -2 72 -10.5t50 -20.5
l10 -89h-14q-23 29 -53.5 41.5t-64.5 14.5v-208q81 -44 125.5 -93t44.5 -123zM211 525q0 -27 13.5 -47t45.5 -43v170q-26 -8 -42.5 -28t-16.5 -52zM325 84q58 17 58 85q0 30 -14.5 51.5t-43.5 42.5v-179z" />
    <glyph glyph-name="Euro" unicode="&#x20ac;" horiz-adv-x="713" 
d="M652 123l-24 -88q-27 -20 -71.5 -34t-98.5 -14q-62 0 -121 16.5t-108 50t-84.5 84t-49.5 117.5h-75l10 54h58q-1 7 -1 14v15q0 27 3 51h-58l10 54h58q17 66 54.5 113t86 77.5t104 44.5t108.5 14q56 0 101.5 -11.5t72.5 -30.5l8 -82h-14q-29 26 -69 39t-85 13
q-73 0 -132.5 -45t-84.5 -132h263l-10 -54h-264q-3 -26 -3 -52v-14.5t1 -13.5h264l-10 -54h-247q10 -48 31.5 -83t51.5 -58.5t66.5 -35t76.5 -11.5q97 0 168 56h14z" />
    <glyph glyph-name="florin" unicode="&#x192;" horiz-adv-x="594" 
d="M564 609h-9q-14 9 -25.5 12.5t-26.5 3.5q-21 0 -37.5 -7t-29.5 -23.5t-23 -44t-19 -68.5l-21 -99h91l-7 -64h-97l-69 -332q-12 -56 -29 -98.5t-43.5 -71t-63 -43t-87.5 -14.5q-23 0 -41.5 3t-31.5 8l-6 73h9q14 -9 25.5 -12.5t26.5 -3.5q21 0 37.5 7t29.5 23.5t23 44
t19 68.5l72 348h-79v64h93l17 83q12 56 29 98.5t43.5 71t63 43t87.5 14.5q23 0 41.5 -3t31.5 -8z" />
    <glyph glyph-name="uni20BA" unicode="&#x20ba;" horiz-adv-x="639" 
d="M593 329q0 -168 -83.5 -248.5t-254.5 -80.5h-131v261l-84 -35v60l84 35v84l-84 -35v60l84 35v215h135v-159l194 80v-60l-194 -80v-84l194 80v-60l-194 -80v-242h14q41 0 75 17.5t58.5 50t38 79.5t13.5 107h135z" />
    <glyph glyph-name="uni20BC" unicode="&#x20bc;" horiz-adv-x="798" 
d="M467 551q59 -11 108 -43t84 -89t54 -141.5t19 -199.5v-39t-1 -38h-138q2 17 2 38.5v38.5q0 166 -28.5 265.5t-99.5 128.5v-392h-139v391q-69 -31 -97 -129.5t-28 -263.5v-38.5t2 -38.5h-138q-1 16 -1 38v39q0 114 19 198t53.5 141.5t82.5 90t107 43.5v129h139v-129v0z
" />
    <glyph glyph-name="uni20B9" unicode="&#x20b9;" horiz-adv-x="561" 
d="M345 626q21 -19 34.5 -46t17.5 -65h124l-10 -54h-115q-9 -57 -48.5 -96.5t-99.5 -59.5v-4q24 -33 56 -72.5t66.5 -79t69.5 -77t65 -67.5v-5h-178q-20 24 -45.5 60t-53 76.5t-54.5 81.5t-49 75h-55v54h73q48 8 80 35.5t40 78.5h-193v54h194q-5 59 -41 85t-91 26h-62v54
h451l-10 -54h-166v0z" />
    <glyph glyph-name="sterling" unicode="&#xa3;" 
d="M34 31q27 19 52 43.5t44 53.5t30.5 62t11.5 68q0 21 -2.5 42.5t-9.5 41.5h-99v59h84q-10 26 -15 47t-5 48q0 40 17 75.5t48 62.5t74.5 42.5t96.5 15.5q81 0 131 -22l15 -79h-13q-22 14 -47 20t-51 6q-69 0 -98 -33.5t-29 -90.5q0 -24 4 -45.5t9 -46.5h174v-59h-165
q3 -17 5 -31.5t2 -31.5q0 -48 -27.5 -87.5t-83.5 -77.5v-4q149 0 239.5 1.5t132.5 7.5h6l-42 -119h-489v31v0z" />
    <glyph glyph-name="yen" unicode="&#xa5;" 
d="M401 375h134v-54h-162v-67h162v-54h-162v-200h-137v200h-158v54h158v67h-158v54h129l-208 305h163l171 -275h6l165 275h94z" />
    <glyph glyph-name="uni2219" unicode="&#x2219;" horiz-adv-x="319" 
d="M234 220h-149v147h149v-147z" />
    <glyph glyph-name="uni2215" unicode="&#x2215;" horiz-adv-x="159" 
d="M299 673l-390 -699l-49 26l389 699z" />
    <glyph glyph-name="plus" unicode="+" 
d="M345 296h200v-88h-200v-208h-88v208h-200v88h200v208h88v-208z" />
    <glyph glyph-name="minus" unicode="&#x2212;" 
d="M545 208h-488v88h488v-88z" />
    <glyph glyph-name="multiply" unicode="&#xd7;" 
d="M301 314l164 171l62 -62l-165 -171l165 -170l-62 -62l-164 170l-165 -170l-62 62l165 170l-163 171l61 62z" />
    <glyph glyph-name="divide" unicode="&#xf7;" 
d="M374 457q0 -28 -21.5 -50.5t-50.5 -22.5q-30 0 -52.5 21.5t-22.5 51.5q0 16 6 29.5t16.5 23.5t23.5 16t28 6q29 0 51 -21.5t22 -53.5zM545 208h-488v88h488v-88zM374 47q0 -15 -6 -28.5t-16 -24t-23 -16.5t-27 -6q-31 0 -53 22.5t-22 52.5q0 15 6 28.5t16.5 23.5t23.5 16
t28 6q30 0 51.5 -22t21.5 -52z" />
    <glyph glyph-name="equal" unicode="=" 
d="M545 313h-488v88h488v-88zM545 104h-488v89h488v-89z" />
    <glyph glyph-name="notequal" unicode="&#x2260;" 
d="M428 400h117v-86h-168l-62 -123h230v-86h-278l-75 -142l-73 37l56 105h-118v86h169l61 123h-230v86h278l75 141l73 -37z" />
    <glyph glyph-name="greater" unicode="&#x3e;" 
d="M546 300v-94l-492 -214v94l378 167l-378 167v94z" />
    <glyph glyph-name="less" unicode="&#x3c;" 
d="M168 253l378 -167v-94l-492 214v94l492 214v-94z" />
    <glyph glyph-name="greaterequal" unicode="&#x2265;" 
d="M545 360v-90l-488 -160v91l372 113l-372 113v93zM545 0h-488v88h488v-88z" />
    <glyph glyph-name="lessequal" unicode="&#x2264;" 
d="M173 315l372 -113v-92l-489 160v90l489 160v-92zM545 0h-489v88h489v-88z" />
    <glyph glyph-name="plusminus" unicode="&#xb1;" 
d="M345 357h200v-88h-200v-148h-88v148h-200v88h200v148h88v-148zM545 0h-488v88h488v-88z" />
    <glyph glyph-name="approxequal" unicode="&#x2248;" 
d="M306 396q40 -17 65 -25.5t46 -8.5q26 0 42.5 16.5t21.5 50.5h72q-7 -74 -43 -113t-98 -39q-26 0 -52.5 8t-67.5 25q-35 16 -60 24.5t-48 8.5q-26 0 -42.5 -16.5t-21.5 -49.5h-72q7 73 42.5 112t97.5 39q23 0 49.5 -7.5t68.5 -24.5zM311 185q41 -17 64.5 -24t41.5 -7
q25 0 42 16t22 50h72q-8 -75 -44 -113t-97 -38q-22 0 -49 7t-72 27q-43 20 -67 26t-41 6q-24 0 -41 -16t-22 -50h-72q7 71 42 111t98 40q26 0 54 -9t69 -26z" />
    <glyph glyph-name="asciitilde" unicode="~" 
d="M526 261q-29 -44 -57 -65t-64 -21q-23 0 -47 8t-58 25q-35 17 -59 25.5t-47 8.5q-26 0 -45.5 -16.5t-35.5 -54.5l-38 73q44 86 121 86q28 0 57 -10.5t64 -27.5q33 -16 52 -22.5t34 -6.5q23 0 42.5 16.5t42.5 54.5l38 -73v0z" />
    <glyph glyph-name="logicalnot" unicode="&#xac;" 
d="M540 103h-87v205h-402v89h489v-294z" />
    <glyph glyph-name="asciicircum" unicode="^" 
d="M351 697l187 -410h-95l-143 316l-142 -316h-95l186 410h102z" />
    <glyph glyph-name="infinity" unicode="&#x221e;" horiz-adv-x="813" 
d="M761 264q0 -40 -11.5 -74t-33.5 -58.5t-52.5 -38.5t-69.5 -14q-45 0 -90 25.5t-97 88.5q-26 -30 -49 -51t-45 -34.5t-44.5 -20t-46.5 -6.5q-40 0 -71.5 14t-53.5 38.5t-33.5 57.5t-11.5 71q0 39 11.5 72.5t33 57.5t52.5 37.5t69 13.5q24 0 46.5 -6t45 -20t46.5 -37
t51 -56q45 58 89 89t98 31q39 0 69.5 -14t52.5 -38t33.5 -57t11.5 -71zM595 178q34 0 54 23.5t20 59.5q0 38 -20.5 61.5t-56.5 23.5q-28 0 -58.5 -20.5t-69.5 -66.5q38 -43 69 -62t62 -19zM220 178q30 0 62.5 21t66.5 60q-38 42 -70.5 64t-60.5 22q-35 0 -54.5 -25
t-19.5 -59q0 -36 20.5 -59.5t55.5 -23.5z" />
    <glyph glyph-name="integral" unicode="&#x222b;" 
d="M481 712q0 -24 -15 -39.5t-38 -15.5q-21 0 -31 12.5t-17 31.5q-7 17 -11 22.5t-10 5.5q-22 0 -22 -56q0 -9 0.5 -28.5t1.5 -41.5t1.5 -43t0.5 -33v-501q0 -120 -35.5 -179.5t-113.5 -59.5q-18 0 -36 5t-33 14.5t-24 24t-9 32.5q0 23 16.5 36t36.5 13q17 0 28 -10t19 -36
q8 -25 19 -25t16.5 17t5.5 42q0 5 -1 21t-1.5 35t-1.5 37t-1 26v527q0 73 10.5 118.5t31.5 73.5q39 47 110 47q18 0 36.5 -4.5t33 -13.5t24 -23t9.5 -32z" />
    <glyph glyph-name="uni2126" unicode="&#x2126;" horiz-adv-x="823" 
d="M762 370q0 -85 -41.5 -154.5t-128.5 -117.5v-5h184v-93h-278v88q36 27 59.5 56t36.5 62.5t18 72.5t5 85q0 52 -14 99t-40.5 82.5t-64.5 56.5t-85 21q-48 0 -86 -20.5t-64.5 -56t-40.5 -82.5t-14 -100q0 -43 3 -80.5t15 -71.5t35.5 -64.5t65.5 -59.5v-88h-280v93h180v5
q-82 45 -123.5 114t-41.5 158q0 70 27.5 129.5t75 102t111.5 66.5t137 24q74 0 137.5 -24t110.5 -67t74 -102t27 -129z" />
    <glyph glyph-name="uni2206" unicode="&#x2206;" horiz-adv-x="681" 
d="M23 44l268 626l110 13l257 -639v-44h-635v44zM504 73l-182 473h-5l-192 -473h379z" />
    <glyph glyph-name="product" unicode="&#x220f;" horiz-adv-x="735" 
d="M668 -214h-111v893h-378v-893h-112v1000h601v-1000z" />
    <glyph glyph-name="summation" unicode="&#x2211;" 
d="M576 679h-391l267 -387l-285 -399h421v-107h-563v93l295 412l-283 402v93h539v-107z" />
    <glyph glyph-name="radical" unicode="&#x221a;" 
d="M342 -214h-103l-148 314l-49 -24l-42 88l148 69l124 -277l165 830h114z" />
    <glyph glyph-name="partialdiff" unicode="&#x2202;" 
d="M244 721q69 0 118 -29.5t80.5 -79t46 -115t14.5 -138.5q0 -88 -15 -157t-45 -117t-75.5 -73t-106.5 -25q-48 0 -87.5 17.5t-67.5 48.5t-43.5 73t-15.5 91q0 47 15 87t42.5 69.5t65.5 46.5t84 17q76 0 141 -59q-1 53 -9 100t-25.5 81.5t-45.5 54.5t-67 20q-30 0 -57 -12.5
t-57 -38.5l-60 69q45 40 86 54.5t84 14.5zM263 71q61 0 91.5 55.5t37.5 158.5q-27 33 -57.5 50.5t-64.5 17.5q-54 0 -85.5 -40.5t-31.5 -101.5q0 -27 7 -52.5t21 -45t34.5 -31t47.5 -11.5z" />
    <glyph glyph-name="uni00B5" unicode="&#xb5;" 
d="M208 192q0 -23 3 -43t10.5 -35t21 -24t34.5 -9q28 0 49.5 13t36.5 35.5t22.5 52.5t7.5 64v234h124v-480h-118l-6 105h-3q-6 -21 -16 -41.5t-24 -36.5t-32.5 -26t-40.5 -10q-20 0 -40 9t-30 23h-4v-172h-120v629h125v-288z" />
    <glyph glyph-name="percent" unicode="%" horiz-adv-x="800" 
d="M616 679l-390 -699l-49 20l389 699zM205 691q31 0 58.5 -12t48.5 -35t33 -56t12 -75q0 -41 -12.5 -73t-33.5 -54.5t-48.5 -34t-57.5 -11.5q-31 0 -59.5 11.5t-50 34t-34.5 54.5t-13 73q0 42 12.5 75t34.5 56t50 35t60 12zM205 648q-35 0 -50 -37t-15 -98q0 -60 15 -94.5
t50 -34.5q34 0 48 34.5t14 94.5q0 61 -14 98t-48 37zM600 346q31 0 58.5 -12t48.5 -35t33 -56t12 -75q0 -41 -12.5 -73t-33.5 -54.5t-48.5 -34t-57.5 -11.5q-31 0 -59.5 11.5t-50 34t-34.5 54.5t-13 73q0 42 12.5 75t34.5 56t50 35t60 12zM600 303q-35 0 -50 -37t-15 -98
q0 -60 15 -94.5t50 -34.5q34 0 48 34.5t14 94.5q0 61 -14 98t-48 37z" />
    <glyph glyph-name="perthousand" unicode="&#x2030;" horiz-adv-x="1176" 
d="M616 679l-390 -699l-49 20l389 699zM205 691q31 0 58.5 -12t48.5 -35t33 -56t12 -75q0 -41 -12.5 -73t-33.5 -54.5t-48.5 -34t-57.5 -11.5q-31 0 -59.5 11.5t-50 34t-34.5 54.5t-13 73q0 42 12.5 75t34.5 56t50 35t60 12zM205 648q-35 0 -50 -37t-15 -98q0 -60 15 -94.5
t50 -34.5q34 0 48 34.5t14 94.5q0 61 -14 98t-48 37zM600 346q31 0 58.5 -12t48.5 -35t33 -56t12 -75q0 -41 -12.5 -73t-33.5 -54.5t-48.5 -34t-57.5 -11.5q-31 0 -59.5 11.5t-50 34t-34.5 54.5t-13 73q0 42 12.5 75t34.5 56t50 35t60 12zM980 346q31 0 58.5 -12t48.5 -35
t33 -56t12 -75q0 -41 -12.5 -73t-33.5 -54.5t-48.5 -34t-57.5 -11.5q-31 0 -59.5 11.5t-50 34t-34.5 54.5t-13 73q0 42 12.5 75t34.5 56t50 35t60 12zM600 303q-35 0 -50 -37t-15 -98q0 -60 15 -94.5t50 -34.5q34 0 48 34.5t14 94.5q0 61 -14 98t-48 37zM980 303
q-35 0 -50 -37t-15 -98q0 -60 15 -94.5t50 -34.5q34 0 48 34.5t14 94.5q0 61 -14 98t-48 37z" />
    <glyph glyph-name="lozenge" unicode="&#x25ca;" 
d="M522 356l-176 -391h-100l-175 391l176 391h99zM296 75l116 281l-116 280l-114 -280z" />
    <glyph glyph-name="at" unicode="@" horiz-adv-x="950" 
d="M867 355q0 -59 -15 -113t-45 -95t-76.5 -65.5t-109.5 -24.5q-23 0 -39 7.5t-25.5 19.5t-13.5 27.5t-4 31.5q-8 -14 -20.5 -29.5t-28.5 -28t-35 -20.5t-40 -8q-33 0 -55.5 13t-37 34.5t-20.5 48t-6 53.5q0 46 11.5 99t37 98t66.5 74.5t100 29.5q26 0 53 -7.5t44 -20.5h79
l-60 -282q-3 -12 -4 -24t-1 -20q0 -15 7 -24t21 -9q37 0 65 18t47 49.5t28.5 75t9.5 95.5q0 64 -21 113.5t-58.5 84t-90.5 52.5t-117 18q-84 0 -148 -30t-108 -82t-66.5 -120.5t-22.5 -145.5q0 -72 25.5 -129.5t71 -97t107.5 -60.5t135 -21q66 0 117 11.5t79 25.5v-57
q-34 -16 -90.5 -28t-114.5 -12q-91 0 -167.5 27.5t-131.5 76.5t-85.5 116.5t-30.5 148.5q0 79 26.5 156t80 138t134.5 99t190 38q68 0 132 -21t113 -62.5t78.5 -102t29.5 -139.5zM574 437q-10 11 -24 14t-28 3q-31 0 -53.5 -23.5t-37 -58.5t-21.5 -75t-7 -73q0 -15 2.5 -31
t8.5 -28.5t15.5 -21t23.5 -8.5t27 9.5t23.5 22.5t17 26t8.5 20z" />
    <glyph glyph-name="ampersand" unicode="&#x26;" horiz-adv-x="767" 
d="M557 0q-12 11 -21.5 20l-19 18t-19 19t-21.5 22q-36 -48 -89 -70t-119 -22q-41 0 -81.5 11.5t-73 35t-53 59.5t-20.5 86q0 71 42 119t126 81q-36 41 -50.5 75.5t-14.5 75.5q0 42 17 71.5t44 49t60 28.5t65 9q35 0 64.5 -9.5t50.5 -27.5t33 -43t12 -56q0 -54 -35.5 -92.5
t-107.5 -73.5q37 -45 70.5 -80.5t73.5 -76.5q4 10 8 28t7 39.5t5 45.5t2 45h87q-2 -22 -6.5 -49.5t-11 -56.5t-15.5 -56t-18 -47q19 -19 44 -42.5t52 -47t53.5 -45.5t48.5 -39v-5zM398 548q0 40 -20.5 64t-50.5 24q-33 0 -51.5 -25t-18.5 -59q0 -31 14 -62.5t40 -62.5
q52 26 69.5 57.5t17.5 63.5zM238 336q-32 -22 -52 -52.5t-20 -83.5q0 -61 34 -99t90 -38q48 0 82 15.5t58 45.5q-54 56 -100.5 107t-91.5 105z" />
    <glyph glyph-name="paragraph" unicode="&#xb6;" 
d="M433 -163v786h-107v-786h-88v501q-48 0 -86.5 13t-65.5 36t-41.5 55t-14.5 71q0 91 57 135.5t168 44.5h265v-856h-87z" />
    <glyph glyph-name="section" unicode="&#xa7;" 
d="M528 270q0 -57 -34 -93.5t-88 -56.5q29 -26 42.5 -56t13.5 -69t-17 -67t-44 -47t-61 -28t-68 -9q-54 0 -102 20t-77 44l-16 99h15q37 -48 82.5 -70.5t90.5 -22.5q32 0 55 18.5t23 57.5q0 18 -8 32.5t-23.5 28t-39 27.5t-54.5 31q-32 18 -57 35.5t-41.5 37t-25 43
t-8.5 53.5q0 28 10.5 51t27.5 41t39 30.5t46 21.5q-30 23 -48.5 51t-18.5 73q0 39 17 67.5t44.5 47.5t62.5 28t71 9q45 0 76.5 -9t50.5 -21l8 -77h-12q-19 22 -49 35.5t-64 13.5q-17 0 -33.5 -4t-29.5 -13t-20.5 -23t-7.5 -33t7 -33t20.5 -26t33 -24t45.5 -26
q42 -24 73.5 -44t52 -41t30.5 -45.5t10 -57.5zM357 158q26 16 38 36.5t12 50.5q0 21 -8.5 37.5t-25 31.5t-40 30.5t-54.5 33.5q-4 2 -7.5 4.5t-8.5 4.5q-23 -9 -42 -29.5t-19 -49.5q0 -18 4.5 -33t15.5 -28.5t30.5 -27t48.5 -29.5q16 -8 29.5 -16t26.5 -16z" />
    <glyph glyph-name="copyright" unicode="&#xa9;" horiz-adv-x="797" 
d="M759 346q0 -75 -27 -141t-75 -114.5t-114 -77t-144 -28.5q-77 0 -143 28t-114.5 76.5t-76 114.5t-27.5 142t28 142t76.5 114.5t114.5 76t142 27.5q75 0 141 -27.5t114.5 -76t76.5 -114.5t28 -142zM399 36q65 0 121 24t96.5 66t63.5 98.5t23 121.5t-23.5 121.5t-65 98
t-97 65.5t-119.5 24q-66 0 -121.5 -24t-96 -66t-63.5 -98.5t-23 -120.5q0 -63 22 -119.5t62.5 -98.5t96.5 -67t124 -25zM540 460q-19 16 -46.5 24t-56.5 8q-25 0 -48.5 -9t-41.5 -27t-29 -45.5t-11 -64.5t10.5 -63.5t29 -44t43 -25.5t52.5 -8q35 0 60 8t44 24h11l-15 -66
q-19 -12 -49.5 -19t-62.5 -7q-48 0 -89.5 12.5t-72 37.5t-48.5 63t-18 88q0 51 19 89t50 63.5t71.5 38.5t84.5 13q29 0 62 -7t53 -18l8 -65h-10z" />
    <glyph glyph-name="registered" unicode="&#xae;" horiz-adv-x="527" 
d="M477 464q0 -45 -16 -84t-44.5 -68t-67.5 -45.5t-85 -16.5t-85 16.5t-67.5 45t-45 68t-16.5 84.5t16.5 84t45 67.5t68 45t84.5 16.5t83.5 -16.5t67.5 -45t45.5 -67.5t16.5 -84zM264 280q39 0 72 14.5t57 39.5t37.5 58.5t13.5 71.5q0 39 -14 72t-38 58t-57 39t-72 14
t-72 -14.5t-57 -39t-37.5 -58t-13.5 -71.5t13.5 -71.5t37.5 -58.5t57 -39.5t73 -14.5zM268 587q39 0 66.5 -13t27.5 -48q0 -28 -12.5 -44.5t-44.5 -24.5l86 -117h-62l-76 110h-20v-110h-50v247h85zM247 476q8 0 18.5 0.5t20 4.5t16 13t6.5 25q0 21 -13.5 32t-33.5 11h-28
v-86h14z" />
    <glyph glyph-name="uni2117" unicode="&#x2117;" horiz-adv-x="797" 
d="M759 346q0 -75 -27 -141t-75 -114.5t-114 -77t-144 -28.5q-77 0 -143 28t-114.5 76.5t-76 114.5t-27.5 142t28 142t76.5 114.5t114.5 76t142 27.5q75 0 141 -27.5t114.5 -76t76.5 -114.5t28 -142zM399 36q65 0 121 24t96.5 66t63.5 98.5t23 121.5t-23.5 121.5t-65 98
t-97 65.5t-119.5 24q-66 0 -121.5 -24t-96 -66t-63.5 -98.5t-23 -120.5q0 -63 22 -119.5t62.5 -98.5t96.5 -67t124 -25zM420 542q74 0 113 -30.5t39 -93.5q0 -60 -41 -92t-113 -32h-52v-141h-94v389h148zM406 345q71 0 71 74q0 38 -17 54.5t-54 16.5h-40v-145h40z" />
    <glyph glyph-name="trademark" unicode="&#x2122;" horiz-adv-x="667" 
d="M30 680h198v-44h-67v-228h-67v228h-64v44zM438 512l74 168h82l29 -272h-73l-19 206h-4l-84 -189h-33l-84 189h-4l-18 -206h-52l29 272h82l72 -168h3z" />
    <glyph glyph-name="degree" unicode="&#xb0;" horiz-adv-x="410" 
d="M351 559q0 -30 -11.5 -57t-31 -46.5t-46 -31t-57.5 -11.5t-57.5 11.5t-46.5 31t-31.5 46t-11.5 57.5t11.5 57.5t31.5 46.5t46.5 31.5t57.5 11.5t57.5 -11.5t46 -31.5t31 -47t11.5 -57zM205 465q19 0 35.5 7.5t29 20.5t19.5 30t7 36t-7 36.5t-19.5 30.5t-29.5 20.5
t-36 7.5q-18 0 -34 -7.5t-28.5 -20t-20 -30t-7.5 -37.5t7.5 -37t20 -29.5t29 -20t34.5 -7.5z" />
    <glyph glyph-name="bar" unicode="|" horiz-adv-x="234" 
d="M74 -214v1000h87v-1000h-87z" />
    <glyph glyph-name="brokenbar" unicode="&#xa6;" horiz-adv-x="235" 
d="M161 661v-250h-87v250h87zM161 161v-250h-87v250h87z" />
    <glyph glyph-name="uni2113" unicode="&#x2113;" horiz-adv-x="500" 
d="M431 571q0 -37 -10 -73t-32 -72.5t-56.5 -74.5t-82.5 -80v-138q0 -38 15.5 -55t43.5 -17q9 0 22 3.5t28 9.5t29.5 14t26.5 17l17 -52q-41 -35 -82 -51t-86 -16q-72 0 -105.5 39t-33.5 108v45l-57 -49l-46 52l102 86v256q0 45 12 81.5t33.5 62.5t52 40t67.5 14
q66 0 104 -40.5t38 -109.5zM250 358q41 43 62 101t21 129q0 32 -11 51.5t-31 19.5q-41 0 -41 -76v-225z" />
    <glyph glyph-name="dagger" unicode="&#x2020;" horiz-adv-x="560" 
d="M334 493h185v-94h-185v-555h-110v555h-183v94h183v198h110v-198z" />
    <glyph glyph-name="daggerdbl" unicode="&#x2021;" horiz-adv-x="560" 
d="M334 501h185v-95h-185v-280h185v-94h-185v-188h-110v188h-183v94h183v280h-183v95h183v190h110v-190z" />
    <glyph glyph-name="estimated" unicode="&#x212e;" horiz-adv-x="904" 
d="M452 -9q-96 0 -170.5 28.5t-126 77.5t-78.5 112.5t-27 134.5q0 72 27.5 138.5t79 118t126 82.5t169.5 31q115 0 192.5 -34t124 -87.5t66 -120t19.5 -130.5h-652q-3 0 -4 -0.5t-1 -5.5v-184q0 -8 1 -16.5t6 -13.5q41 -50 103.5 -77.5t143.5 -27.5q43 0 79 9t68 24t60 35.5
t54 44.5h70q-29 -35 -61 -61.5t-71 -43.5t-87.5 -25.5t-110.5 -8.5zM700 363q7 0 7 7v189q0 6 -4 13.5t-8 12.5q-26 31 -57.5 51.5t-65 32.5t-66 16.5t-58.5 4.5q-60 0 -124 -24.5t-118 -78.5q-5 -5 -7 -13t-2 -15v-189q0 -7 5 -7h498z" />
    <glyph glyph-name="uni02C9" unicode="&#x2c9;" horiz-adv-x="246" 
d="M287 610h-329v64h329v-64z" />
    <glyph glyph-name="uni0308" unicode="&#x308;" horiz-adv-x="0" 
d="M-160 585h-116v114h116v-114zM30 585h-116v114h116v-114z" />
    <glyph glyph-name="uni0307" unicode="&#x307;" horiz-adv-x="0" 
d="M-58 581h-130v118h130v-118z" />
    <glyph glyph-name="gravecomb" unicode="&#x300;" horiz-adv-x="0" 
d="M-54 571h-61l-163 142h127z" />
    <glyph glyph-name="acutecomb" unicode="&#x301;" horiz-adv-x="0" 
d="M-131 571h-61l96 142h128z" />
    <glyph glyph-name="uni030B" unicode="&#x30b;" horiz-adv-x="0" 
d="M-224 571h-60l94 142h121zM-39 571h-60l94 142h121z" />
    <glyph glyph-name="caroncomb.alt" horiz-adv-x="0" 
d="M-54 722q-5 -31 -13 -61.5t-17 -58.5t-19 -51t-20 -39h-59q8 50 12 103t4 107h112v0z" />
    <glyph glyph-name="uni0302" unicode="&#x302;" horiz-adv-x="0" 
d="M38 571h-64l-100 79l-102 -79h-59l109 142h107z" />
    <glyph glyph-name="uni030C" unicode="&#x30c;" horiz-adv-x="0" 
d="M-287 713h64l100 -79l102 79h59l-109 -142h-107z" />
    <glyph glyph-name="uni0306" unicode="&#x306;" horiz-adv-x="0" 
d="M-220 709q4 -34 30 -53t64 -19q86 0 101 72h57q-8 -66 -48.5 -102t-112.5 -36q-69 0 -107 36.5t-43 101.5h59v0z" />
    <glyph glyph-name="uni030A" unicode="&#x30a;" horiz-adv-x="0" 
d="M-123 547q-26 0 -47.5 9.5t-37 25t-24 36.5t-8.5 45t8.5 45t24 36.5t37 24.5t47.5 9t47.5 -9t37 -24.5t24 -36.5t8.5 -45q0 -49 -32.5 -82.5t-84.5 -33.5zM-123 589q35 0 50 22t15 52q0 27 -15.5 50t-50.5 23q-32 0 -48 -21t-16 -52q0 -29 16 -51.5t49 -22.5z" />
    <glyph glyph-name="tildecomb" unicode="&#x303;" horiz-adv-x="0" 
d="M-114 683q20 -11 37 -17.5t30 -6.5q18 0 27.5 9t14.5 31h52q-7 -57 -32.5 -85.5t-64.5 -28.5q-20 0 -37.5 6t-40.5 17t-37.5 16.5t-29.5 5.5q-17 0 -28.5 -10t-16.5 -33h-52q2 22 9.5 43.5t20 38t30 26.5t39.5 10q17 0 36 -4.5t43 -17.5z" />
    <glyph glyph-name="uni0304" unicode="&#x304;" horiz-adv-x="0" 
d="M41 610h-329v64h329v-64z" />
    <glyph glyph-name="uni0312" unicode="&#x312;" horiz-adv-x="0" 
d="M-200 589q5 34 25.5 73.5t43.5 68.5h53q-12 -35 -16.5 -69.5t-4.5 -72.5h-101v0z" />
    <glyph glyph-name="uni0313" unicode="&#x313;" horiz-adv-x="0" 
d="M-54 722q-5 -31 -13 -61.5t-17 -58.5t-19 -51t-20 -39h-59q8 50 12 103t4 107h112v0z" />
    <glyph glyph-name="uni0326" unicode="&#x326;" horiz-adv-x="0" 
d="M-43 -69q-2 -17 -9 -37t-16.5 -40t-21 -38.5t-22.5 -32.5h-53q12 35 16.5 72.5t4.5 75.5h101v0z" />
    <glyph glyph-name="uni0327" unicode="&#x327;" horiz-adv-x="0" 
d="M-212 -184l3 5q14 0 31 1.5t32 7t25 14.5t10 24q0 24 -22 34t-51 15l-1 7l43 76h42l-21 -43l11 -3q31 -8 53.5 -25t22.5 -52q0 -27 -15 -45.5t-39 -30t-53 -17t-56 -5.5z" />
    <glyph glyph-name="uni0328" unicode="&#x328;" horiz-adv-x="0" 
d="M-8 0q-60 -32 -80 -56t-20 -46q0 -18 12 -27.5t33 -9.5q17 0 32 4t27 9h7l-16 -40q-15 -8 -34 -13.5t-45 -5.5q-41 0 -69 18t-28 54q0 66 114 113h67v0z" />
    <glyph glyph-name="acute" unicode="&#xb4;" horiz-adv-x="246" 
d="M115 571h-61l96 142h128z" />
    <glyph glyph-name="breve" unicode="&#x2d8;" horiz-adv-x="246" 
d="M26 709q4 -34 30 -53t64 -19q86 0 101 72h57q-8 -66 -48.5 -102t-112.5 -36q-69 0 -107 36.5t-43 101.5h59v0z" />
    <glyph glyph-name="caron" unicode="&#x2c7;" horiz-adv-x="246" 
d="M-41 713h64l100 -79l102 79h59l-109 -142h-107z" />
    <glyph glyph-name="cedilla" unicode="&#xb8;" horiz-adv-x="246" 
d="M34 -184l3 5q14 0 31 1.5t32 7t25 14.5t10 24q0 24 -22 34t-51 15l-1 7l43 76h42l-21 -43l11 -3q31 -8 53.5 -25t22.5 -52q0 -27 -15 -45.5t-38.5 -30t-52.5 -17t-57 -5.5z" />
    <glyph glyph-name="circumflex" unicode="&#x2c6;" horiz-adv-x="246" 
d="M284 571h-64l-100 79l-102 -79h-59l109 142h107z" />
    <glyph glyph-name="dieresis" unicode="&#xa8;" horiz-adv-x="246" 
d="M86 585h-116v114h116v-114zM276 585h-116v114h116v-114z" />
    <glyph glyph-name="dotaccent" unicode="&#x2d9;" horiz-adv-x="246" 
d="M188 581h-130v118h130v-118z" />
    <glyph glyph-name="grave" unicode="`" horiz-adv-x="246" 
d="M192 571h-61l-163 142h127z" />
    <glyph glyph-name="hungarumlaut" unicode="&#x2dd;" horiz-adv-x="246" 
d="M22 571h-60l94 142h121zM207 571h-60l94 142h121z" />
    <glyph glyph-name="macron" unicode="&#xaf;" horiz-adv-x="246" 
d="M287 610h-329v64h329v-64z" />
    <glyph glyph-name="ogonek" unicode="&#x2db;" horiz-adv-x="246" 
d="M238 0q-60 -32 -80 -56t-20 -46q0 -18 12 -27.5t33 -9.5q17 0 32 4t27 9h7l-16 -40q-15 -8 -34 -13.5t-45 -5.5q-41 0 -69 18t-28 54q0 66 114 113h67v0z" />
    <glyph glyph-name="ring" unicode="&#x2da;" horiz-adv-x="246" 
d="M123 547q-26 0 -47.5 9.5t-37 25t-24 36.5t-8.5 45t8.5 45t24 36.5t37 24.5t47.5 9t47.5 -9t37 -24.5t24 -36.5t8.5 -45q0 -49 -32.5 -82.5t-84.5 -33.5zM123 589q35 0 50 22t15 52q0 27 -15.5 50t-50.5 23q-32 0 -48 -21t-16 -52q0 -29 16 -51.5t49 -22.5z" />
    <glyph glyph-name="tilde" unicode="&#x2dc;" horiz-adv-x="246" 
d="M132 683q20 -11 37 -17.5t30 -6.5q18 0 27.5 9t14.5 31h52q-7 -57 -32.5 -85.5t-64.5 -28.5q-20 0 -37.5 6t-40.5 17t-37.5 16.5t-29.5 5.5q-17 0 -28.5 -10t-16.5 -33h-52q2 22 9.5 43.5t20 38t30 26.5t39.5 10q17 0 36 -4.5t43 -17.5z" />
    <glyph glyph-name="uni0308.case" horiz-adv-x="0" 
d="M-160 764h-116v114h116v-114zM30 764h-116v114h116v-114z" />
    <glyph glyph-name="uni0307.case" horiz-adv-x="0" 
d="M-58 760h-130v118h130v-118z" />
    <glyph glyph-name="gravecomb.case" horiz-adv-x="0" 
d="M-153 885l103 -129h-63l-170 129h130z" />
    <glyph glyph-name="acutecomb.case" horiz-adv-x="0" 
d="M-133 756h-63l103 129h130z" />
    <glyph glyph-name="uni030B.case" horiz-adv-x="0" 
d="M-224 756h-60l94 129h120zM-39 756h-60l94 129h120z" />
    <glyph glyph-name="uni0302.case" horiz-adv-x="0" 
d="M40 756h-65l-100 66l-102 -66h-62l111 129h107z" />
    <glyph glyph-name="uni030C.case" horiz-adv-x="0" 
d="M-289 885h66l100 -66l102 66h61l-111 -129h-107z" />
    <glyph glyph-name="uni0306.case" horiz-adv-x="0" 
d="M-220 885q5 -31 30.5 -49.5t63.5 -18.5q43 0 67.5 18t33.5 50h57q-9 -63 -49 -98.5t-112 -35.5q-69 0 -106 36t-44 98h59v0z" />
    <glyph glyph-name="uni030A.case" horiz-adv-x="0" 
d="M-123 729q-26 0 -47 9t-37 24.5t-24.5 36t-8.5 43.5q0 24 8.5 44.5t24.5 35.5t37 23.5t47 8.5q25 0 46.5 -8.5t37.5 -23.5t24.5 -35.5t8.5 -44.5t-8.5 -44.5t-24.5 -36t-37.5 -24t-46.5 -8.5zM-123 771q34 0 49.5 21t15.5 50q0 26 -15.5 48t-50.5 22q-32 0 -48 -20
t-16 -50q0 -28 16.5 -49.5t48.5 -21.5z" />
    <glyph glyph-name="tildecomb.case" horiz-adv-x="0" 
d="M-115 862q20 -11 37 -17.5t30 -6.5q18 0 27.5 9t14.5 31h52q-7 -57 -32.5 -85.5t-64.5 -28.5q-20 0 -37.5 6t-40.5 17t-37.5 16.5t-29.5 5.5q-17 0 -28.5 -10t-16.5 -33h-52q2 22 9.5 43.5t20 38t30 26.5t39.5 10q17 0 36 -4.5t43 -17.5z" />
    <glyph glyph-name="uni0304.case" horiz-adv-x="0" 
d="M41 790h-329v64h329v-64z" />
    <glyph glyph-name="Ohorn" unicode="&#x1a0;" horiz-adv-x="825" 
d="M411 692q67 0 131.5 -20.5t115.5 -63.5t82 -109.5t31 -158.5q0 -90 -31 -156t-81 -110t-113.5 -65.5t-128.5 -21.5q-68 0 -133 20.5t-116 64t-82.5 110t-31.5 158.5q0 90 31 156t81.5 109.5t114.5 65t130 21.5zM416 62q48 0 86.5 21.5t65.5 59t41.5 88.5t14.5 110
q0 57 -15 107.5t-43 88.5t-68 60.5t-89 22.5q-48 0 -86.5 -21.5t-65.5 -59t-41.5 -88.5t-14.5 -110q0 -57 15 -107.5t42.5 -89t67.5 -60.5t90 -22zM599 644q12 4 20 12t14 19q11 27 11 57h93l3 -7q-5 -24 -10.5 -41.5t-14.5 -31.5q-17 -26 -44 -42q-30 -17 -72 -23v57z" />
    <glyph glyph-name="ohorn" unicode="&#x1a1;" horiz-adv-x="595" 
d="M299 490q45 0 88.5 -15t78 -45.5t56 -77t21.5 -109.5q0 -64 -21.5 -111.5t-56 -79t-78 -47t-88.5 -15.5t-89.5 15.5t-79.5 47t-56.5 79t-21.5 111.5q0 63 21.5 109.5t56.5 77t79.5 45.5t89.5 15zM298 54q53 0 85 50.5t32 138.5q0 86 -32 134.5t-85 48.5t-85 -48.5
t-32 -134.5q0 -88 32 -138.5t85 -50.5zM434 443q25 8 38 35t13 65h105l5 -9q-10 -53 -29 -83q-10 -14 -22 -26t-29 -20q-31 -19 -81 -27v65z" />
    <glyph glyph-name="Uhorn" unicode="&#x1af;" horiz-adv-x="723" 
d="M369 -13q-71 0 -125 17.5t-90.5 50.5t-55 79.5t-18.5 104.5v441h137v-422q0 -96 42 -144t120 -48q82 0 127.5 47t45.5 145v422h91v-441q0 -58 -19 -104.5t-54.5 -79.5t-86 -50.5t-114.5 -17.5zM623 644q12 4 20 12t14 19q11 27 11 57h93l3 -7q-5 -24 -10.5 -41.5
t-14.5 -31.5q-17 -26 -44 -42q-30 -17 -72 -23v57z" />
    <glyph glyph-name="uhorn" unicode="&#x1b0;" horiz-adv-x="583" 
d="M198 192q0 -23 3 -43t10.5 -35t21 -24t34.5 -9q28 0 49.5 13t36.5 35.5t22.5 52.5t7.5 64v234h124v-480h-118l-6 105h-3q-10 -21 -25.5 -41.5t-35.5 -36.5t-45.5 -26t-55.5 -10t-56.5 6.5t-46 25.5t-31 53t-11.5 89v315h125v-288zM504 444q26 9 39 36q13 31 13 66h107
l4 -9q-10 -54 -29 -84q-20 -30 -52 -48q-16 -10 -37 -16.5t-45 -10.5v66z" />
    <glyph glyph-name="uni1EA0" unicode="&#x1ea0;" horiz-adv-x="674" 
d="M396 -60v-116h-117v116h117zM191 236l-96 -236h-94l287 670l110 13l275 -683h-151l-91 236h-240zM408 309l-89 237h-5l-95 -237h189z" />
    <glyph glyph-name="uni1EA1" unicode="&#x1ea1;" horiz-adv-x="527" 
d="M312 -171h-107v105h107v-105zM342 69q-26 -39 -58.5 -59t-81.5 -20q-74 0 -112 36.5t-38 94.5q0 31 10 53.5t27.5 38t41 25.5t50.5 17q48 12 78 20t47.5 14.5t24 13t6.5 14.5v5q0 56 -27 79t-76 23q-15 0 -33 -3.5t-37 -11t-36.5 -19t-31.5 -27.5h-10l8 75q35 28 80.5 40
t83.5 12q106 0 152.5 -46.5t46.5 -123.5v-229q0 -23 1.5 -45.5t6.5 -45.5h-107zM246 59q35 0 60.5 25.5t30.5 63.5v101q-48 -13 -79.5 -24t-51 -24t-27 -29t-7.5 -39q0 -33 20 -53.5t54 -20.5z" />
    <glyph glyph-name="uni1EA2" unicode="&#x1ea2;" horiz-adv-x="674" 
d="M191 236l-96 -236h-94l287 670l110 13l275 -683h-151l-91 236h-240zM408 309l-89 237h-5l-95 -237h189zM320 762q0 26 13.5 42t28.5 30t27 29.5t12 40.5q0 27 -16 39.5t-42 12.5q-37 0 -70 -27h-8l7 47q17 11 39.5 16.5t48.5 5.5q52 0 84.5 -25t32.5 -67q0 -19 -6 -33
t-16 -25.5t-23 -20t-26 -16.5q-15 -9 -27 -20t-12 -34v-6h-47v11z" />
    <glyph glyph-name="uni1EA3" unicode="&#x1ea3;" horiz-adv-x="527" 
d="M342 69q-26 -39 -58.5 -59t-81.5 -20q-74 0 -112 36.5t-38 94.5q0 31 10 53.5t27.5 38t41 25.5t50.5 17q48 12 78 20t47.5 14.5t24 13t6.5 14.5v5q0 56 -27 79t-76 23q-15 0 -33 -3.5t-37 -11t-36.5 -19t-31.5 -27.5h-10l8 75q35 28 80.5 40t83.5 12q106 0 152.5 -46.5
t46.5 -123.5v-229q0 -23 1.5 -45.5t6.5 -45.5h-107zM246 59q35 0 60.5 25.5t30.5 63.5v101q-48 -13 -79.5 -24t-51 -24t-27 -29t-7.5 -39q0 -33 20 -53.5t54 -20.5zM247 557q0 26 13.5 42t28.5 30t27 29.5t12 40.5q0 27 -16 39.5t-42 12.5q-37 0 -70 -27h-8l7 47
q17 11 39.5 16.5t48.5 5.5q52 0 84.5 -25t32.5 -67q0 -19 -6 -33t-16 -25.5t-23 -20t-26 -16.5q-15 -9 -27 -20t-12 -34v-6h-47v11z" />
    <glyph glyph-name="uni1EA4" unicode="&#x1ea4;" horiz-adv-x="674" 
d="M503 756h-65l-100 66l-102 -66h-62l111 129h107zM191 236l-96 -236h-94l287 670l110 13l275 -683h-151l-91 236h-240zM408 309l-89 237h-5l-95 -237h189zM514 871h-61l96 142h128z" />
    <glyph glyph-name="uni1EA5" unicode="&#x1ea5;" horiz-adv-x="527" 
d="M426 571h-64l-100 79l-102 -79h-59l109 142h107zM342 69q-26 -39 -58.5 -59t-81.5 -20q-74 0 -112 36.5t-38 94.5q0 31 10 53.5t27.5 38t41 25.5t50.5 17q48 12 78 20t47.5 14.5t24 13t6.5 14.5v5q0 56 -27 79t-76 23q-15 0 -33 -3.5t-37 -11t-36.5 -19t-31.5 -27.5h-10
l8 75q35 28 80.5 40t83.5 12q106 0 152.5 -46.5t46.5 -123.5v-229q0 -23 1.5 -45.5t6.5 -45.5h-107zM246 59q35 0 60.5 25.5t30.5 63.5v101q-48 -13 -79.5 -24t-51 -24t-27 -29t-7.5 -39q0 -33 20 -53.5t54 -20.5zM441 711h-61l96 142h128z" />
    <glyph glyph-name="uni1EA6" unicode="&#x1ea6;" horiz-adv-x="674" 
d="M503 756h-65l-100 66l-102 -66h-62l111 129h107zM191 236l-96 -236h-94l287 670l110 13l275 -683h-151l-91 236h-240zM408 309l-89 237h-5l-95 -237h189zM597 852h-61l-163 142h127z" />
    <glyph glyph-name="uni1EA7" unicode="&#x1ea7;" horiz-adv-x="527" 
d="M426 571h-64l-100 79l-102 -79h-59l109 142h107zM342 69q-26 -39 -58.5 -59t-81.5 -20q-74 0 -112 36.5t-38 94.5q0 31 10 53.5t27.5 38t41 25.5t50.5 17q48 12 78 20t47.5 14.5t24 13t6.5 14.5v5q0 56 -27 79t-76 23q-15 0 -33 -3.5t-37 -11t-36.5 -19t-31.5 -27.5h-10
l8 75q35 28 80.5 40t83.5 12q106 0 152.5 -46.5t46.5 -123.5v-229q0 -23 1.5 -45.5t6.5 -45.5h-107zM246 59q35 0 60.5 25.5t30.5 63.5v101q-48 -13 -79.5 -24t-51 -24t-27 -29t-7.5 -39q0 -33 20 -53.5t54 -20.5zM487 710h-61l-163 142h127z" />
    <glyph glyph-name="uni1EA8" unicode="&#x1ea8;" horiz-adv-x="674" 
d="M480 876q0 26 13.5 42t28.5 30t27 29.5t12 40.5q0 27 -16 39.5t-42 12.5q-37 0 -70 -27h-8l7 47q17 11 39.5 16.5t48.5 5.5q52 0 84.5 -25t32.5 -67q0 -19 -6 -33t-16 -25.5t-23 -20t-26 -16.5q-15 -9 -27 -20t-12 -34v-6h-47v11zM503 756h-65l-100 66l-102 -66h-62
l111 129h107zM191 236l-96 -236h-94l287 670l110 13l275 -683h-151l-91 236h-240zM408 309l-89 237h-5l-95 -237h189z" />
    <glyph glyph-name="uni1EA9" unicode="&#x1ea9;" horiz-adv-x="527" 
d="M377 722q0 26 13.5 42t28.5 30t27 29.5t12 40.5q0 27 -16 39.5t-42 12.5q-37 0 -70 -27h-8l7 47q17 11 39.5 16.5t48.5 5.5q52 0 84.5 -25t32.5 -67q0 -19 -6 -33t-16 -25.5t-23 -20t-26 -16.5q-15 -9 -27 -20t-12 -34v-6h-47v11zM426 571h-64l-100 79l-102 -79h-59
l109 142h107zM342 69q-26 -39 -58.5 -59t-81.5 -20q-74 0 -112 36.5t-38 94.5q0 31 10 53.5t27.5 38t41 25.5t50.5 17q48 12 78 20t47.5 14.5t24 13t6.5 14.5v5q0 56 -27 79t-76 23q-15 0 -33 -3.5t-37 -11t-36.5 -19t-31.5 -27.5h-10l8 75q35 28 80.5 40t83.5 12
q106 0 152.5 -46.5t46.5 -123.5v-229q0 -23 1.5 -45.5t6.5 -45.5h-107zM246 59q35 0 60.5 25.5t30.5 63.5v101q-48 -13 -79.5 -24t-51 -24t-27 -29t-7.5 -39q0 -33 20 -53.5t54 -20.5z" />
    <glyph glyph-name="uni1EAA" unicode="&#x1eaa;" horiz-adv-x="674" 
d="M503 756h-65l-100 66l-102 -66h-62l111 129h107zM191 236l-96 -236h-94l287 670l110 13l275 -683h-151l-91 236h-240zM408 309l-89 237h-5l-95 -237h189zM358 1013q20 -11 37 -17.5t30 -6.5q18 0 27.5 9t14.5 31h52q-7 -57 -32.5 -85.5t-64.5 -28.5q-20 0 -37.5 6
t-40.5 17t-37.5 16.5t-29.5 5.5q-17 0 -28.5 -10t-16.5 -33h-52q2 22 9.5 43.5t20 38t30 26.5t39.5 10q17 0 36 -4.5t43 -17.5z" />
    <glyph glyph-name="uni1EAB" unicode="&#x1eab;" horiz-adv-x="527" 
d="M426 571h-64l-100 79l-102 -79h-59l109 142h107zM342 69q-26 -39 -58.5 -59t-81.5 -20q-74 0 -112 36.5t-38 94.5q0 31 10 53.5t27.5 38t41 25.5t50.5 17q48 12 78 20t47.5 14.5t24 13t6.5 14.5v5q0 56 -27 79t-76 23q-15 0 -33 -3.5t-37 -11t-36.5 -19t-31.5 -27.5h-10
l8 75q35 28 80.5 40t83.5 12q106 0 152.5 -46.5t46.5 -123.5v-229q0 -23 1.5 -45.5t6.5 -45.5h-107zM246 59q35 0 60.5 25.5t30.5 63.5v101q-48 -13 -79.5 -24t-51 -24t-27 -29t-7.5 -39q0 -33 20 -53.5t54 -20.5zM273 853q20 -11 37 -17.5t30 -6.5q18 0 27.5 9t14.5 31h52
q-7 -57 -32.5 -85.5t-64.5 -28.5q-20 0 -37.5 6t-40.5 17t-37.5 16.5t-29.5 5.5q-17 0 -28.5 -10t-16.5 -33h-52q2 22 9.5 43.5t20 38t30 26.5t39.5 10q17 0 36 -4.5t43 -17.5z" />
    <glyph glyph-name="uni1EAC" unicode="&#x1eac;" horiz-adv-x="674" 
d="M431 236h-240l-96 -236h-94l287 670l110 13l275 -683h-151zM219 309h189l-89 237h-5zM396 -60v-116h-117v116h117zM499 751h-64l-100 79l-102 -79h-59l109 142h107z" />
    <glyph glyph-name="uni1EAD" unicode="&#x1ead;" horiz-adv-x="527" 
d="M342 69q-26 -39 -58.5 -59t-81.5 -20q-74 0 -112 36.5t-38 94.5q0 31 10 53.5t27.5 38t41 25.5t50.5 17q48 12 78 20t47.5 14.5t24 13t6.5 14.5v5q0 56 -27 79t-76 23q-15 0 -33 -3.5t-37 -11t-36.5 -19t-31.5 -27.5h-10l8 75q35 28 80.5 40t83.5 12q106 0 152.5 -46.5
t46.5 -123.5v-229q0 -23 1.5 -45.5t6.5 -45.5h-107zM246 59q35 0 60.5 25.5t30.5 63.5v101q-48 -13 -79.5 -24t-51 -24t-27 -29t-7.5 -39q0 -33 20 -53.5t54 -20.5zM312 -171h-107v105h107v-105zM426 571h-64l-100 79l-102 -79h-59l109 142h107z" />
    <glyph glyph-name="uni1EAE" unicode="&#x1eae;" horiz-adv-x="674" 
d="M242 885q5 -31 30.5 -49.5t63.5 -18.5q43 0 67.5 18t33.5 50h57q-9 -63 -49 -98.5t-112 -35.5q-69 0 -106 36t-44 98h59zM191 236l-96 -236h-94l287 670l110 13l275 -683h-151l-91 236h-240zM408 309l-89 237h-5l-95 -237h189zM358 930h-61l96 142h128z" />
    <glyph glyph-name="uni1EAF" unicode="&#x1eaf;" horiz-adv-x="527" 
d="M167 709q4 -34 30 -53t64 -19q86 0 101 72h57q-8 -66 -48.5 -102t-112.5 -36q-69 0 -107 36.5t-43 101.5h59zM342 69q-26 -39 -58.5 -59t-81.5 -20q-74 0 -112 36.5t-38 94.5q0 31 10 53.5t27.5 38t41 25.5t50.5 17q48 12 78 20t47.5 14.5t24 13t6.5 14.5v5q0 56 -27 79
t-76 23q-15 0 -33 -3.5t-37 -11t-36.5 -19t-31.5 -27.5h-10l8 75q35 28 80.5 40t83.5 12q106 0 152.5 -46.5t46.5 -123.5v-229q0 -23 1.5 -45.5t6.5 -45.5h-107zM246 59q35 0 60.5 25.5t30.5 63.5v101q-48 -13 -79.5 -24t-51 -24t-27 -29t-7.5 -39q0 -33 20 -53.5t54 -20.5z
M283 750h-61l96 142h128z" />
    <glyph glyph-name="uni1EB0" unicode="&#x1eb0;" horiz-adv-x="674" 
d="M242 885q5 -31 30.5 -49.5t63.5 -18.5q43 0 67.5 18t33.5 50h57q-9 -63 -49 -98.5t-112 -35.5q-69 0 -106 36t-44 98h59zM191 236l-96 -236h-94l287 670l110 13l275 -683h-151l-91 236h-240zM408 309l-89 237h-5l-95 -237h189zM401 940h-61l-163 142h127z" />
    <glyph glyph-name="uni1EB1" unicode="&#x1eb1;" horiz-adv-x="527" 
d="M167 709q4 -34 30 -53t64 -19q86 0 101 72h57q-8 -66 -48.5 -102t-112.5 -36q-69 0 -107 36.5t-43 101.5h59zM342 69q-26 -39 -58.5 -59t-81.5 -20q-74 0 -112 36.5t-38 94.5q0 31 10 53.5t27.5 38t41 25.5t50.5 17q48 12 78 20t47.5 14.5t24 13t6.5 14.5v5q0 56 -27 79
t-76 23q-15 0 -33 -3.5t-37 -11t-36.5 -19t-31.5 -27.5h-10l8 75q35 28 80.5 40t83.5 12q106 0 152.5 -46.5t46.5 -123.5v-229q0 -23 1.5 -45.5t6.5 -45.5h-107zM246 59q35 0 60.5 25.5t30.5 63.5v101q-48 -13 -79.5 -24t-51 -24t-27 -29t-7.5 -39q0 -33 20 -53.5t54 -20.5z
M336 750h-61l-163 142h127z" />
    <glyph glyph-name="uni1EB2" unicode="&#x1eb2;" horiz-adv-x="674" 
d="M322 910q0 26 13.5 42t28.5 30t27 29.5t12 40.5q0 27 -16 39.5t-42 12.5q-37 0 -70 -27h-8l7 47q17 11 39.5 16.5t48.5 5.5q52 0 84.5 -25t32.5 -67q0 -19 -6 -33t-16 -25.5t-23 -20t-26 -16.5q-15 -9 -27 -20t-12 -34v-6h-47v11zM242 885q5 -31 30.5 -49.5t63.5 -18.5
q43 0 67.5 18t33.5 50h57q-9 -63 -49 -98.5t-112 -35.5q-69 0 -106 36t-44 98h59zM191 236l-96 -236h-94l287 670l110 13l275 -683h-151l-91 236h-240zM408 309l-89 237h-5l-95 -237h189z" />
    <glyph glyph-name="uni1EB3" unicode="&#x1eb3;" horiz-adv-x="527" 
d="M245 733q0 26 13.5 42t28.5 30t27 29.5t12 40.5q0 27 -16 39.5t-42 12.5q-37 0 -70 -27h-8l7 47q17 11 39.5 16.5t48.5 5.5q52 0 84.5 -25t32.5 -67q0 -19 -6 -33t-16 -25.5t-23 -20t-26 -16.5q-15 -9 -27 -20t-12 -34v-6h-47v11zM167 709q4 -34 30 -53t64 -19
q86 0 101 72h57q-8 -66 -48.5 -102t-112.5 -36q-69 0 -107 36.5t-43 101.5h59zM342 69q-26 -39 -58.5 -59t-81.5 -20q-74 0 -112 36.5t-38 94.5q0 31 10 53.5t27.5 38t41 25.5t50.5 17q48 12 78 20t47.5 14.5t24 13t6.5 14.5v5q0 56 -27 79t-76 23q-15 0 -33 -3.5t-37 -11
t-36.5 -19t-31.5 -27.5h-10l8 75q35 28 80.5 40t83.5 12q106 0 152.5 -46.5t46.5 -123.5v-229q0 -23 1.5 -45.5t6.5 -45.5h-107zM246 59q35 0 60.5 25.5t30.5 63.5v101q-48 -13 -79.5 -24t-51 -24t-27 -29t-7.5 -39q0 -33 20 -53.5t54 -20.5z" />
    <glyph glyph-name="uni1EB4" unicode="&#x1eb4;" horiz-adv-x="674" 
d="M242 885q5 -31 30.5 -49.5t63.5 -18.5q43 0 67.5 18t33.5 50h57q-9 -63 -49 -98.5t-112 -35.5q-69 0 -106 36t-44 98h59zM191 236l-96 -236h-94l287 670l110 13l275 -683h-151l-91 236h-240zM408 309l-89 237h-5l-95 -237h189zM348 1042q20 -11 37 -17.5t30 -6.5
q18 0 27.5 9t14.5 31h52q-7 -57 -32.5 -85.5t-64.5 -28.5q-20 0 -37.5 6t-40.5 17t-37.5 16.5t-29.5 5.5q-17 0 -28.5 -10t-16.5 -33h-52q2 22 9.5 43.5t20 38t30 26.5t39.5 10q17 0 36 -4.5t43 -17.5z" />
    <glyph glyph-name="uni1EB5" unicode="&#x1eb5;" horiz-adv-x="527" 
d="M167 709q4 -34 30 -53t64 -19q86 0 101 72h57q-8 -66 -48.5 -102t-112.5 -36q-69 0 -107 36.5t-43 101.5h59zM342 69q-26 -39 -58.5 -59t-81.5 -20q-74 0 -112 36.5t-38 94.5q0 31 10 53.5t27.5 38t41 25.5t50.5 17q48 12 78 20t47.5 14.5t24 13t6.5 14.5v5q0 56 -27 79
t-76 23q-15 0 -33 -3.5t-37 -11t-36.5 -19t-31.5 -27.5h-10l8 75q35 28 80.5 40t83.5 12q106 0 152.5 -46.5t46.5 -123.5v-229q0 -23 1.5 -45.5t6.5 -45.5h-107zM246 59q35 0 60.5 25.5t30.5 63.5v101q-48 -13 -79.5 -24t-51 -24t-27 -29t-7.5 -39q0 -33 20 -53.5t54 -20.5z
M273 850q20 -11 37 -17.5t30 -6.5q18 0 27.5 9t14.5 31h52q-7 -57 -32.5 -85.5t-64.5 -28.5q-20 0 -37.5 6t-40.5 17t-37.5 16.5t-29.5 5.5q-17 0 -28.5 -10t-16.5 -33h-52q2 22 9.5 43.5t20 38t30 26.5t39.5 10q17 0 36 -4.5t43 -17.5z" />
    <glyph glyph-name="uni1EB6" unicode="&#x1eb6;" horiz-adv-x="674" 
d="M191 236l-96 -236h-94l287 670l110 13l275 -683h-151l-91 236h-240zM408 309l-89 237h-5l-95 -237h189zM396 -176h-117v116h117v-116zM240 889q4 -34 30 -53t64 -19q86 0 101 72h57q-8 -66 -48.5 -102t-112.5 -36q-69 0 -107 36.5t-43 101.5h59z" />
    <glyph glyph-name="uni1EB7" unicode="&#x1eb7;" horiz-adv-x="527" 
d="M342 69q-26 -39 -58.5 -59t-81.5 -20q-74 0 -112 36.5t-38 94.5q0 31 10 53.5t27.5 38t41 25.5t50.5 17q48 12 78 20t47.5 14.5t24 13t6.5 14.5v5q0 56 -27 79t-76 23q-15 0 -33 -3.5t-37 -11t-36.5 -19t-31.5 -27.5h-10l8 75q35 28 80.5 40t83.5 12q106 0 152.5 -46.5
t46.5 -123.5v-229q0 -23 1.5 -45.5t6.5 -45.5h-107zM246 59q35 0 60.5 25.5t30.5 63.5v101q-48 -13 -79.5 -24t-51 -24t-27 -29t-7.5 -39q0 -33 20 -53.5t54 -20.5zM312 -171h-107v105h107v-105zM167 709q4 -34 30 -53t64 -19q86 0 101 72h57q-8 -66 -48.5 -102t-112.5 -36
q-69 0 -107 36.5t-43 101.5h59z" />
    <glyph glyph-name="uni1EB8" unicode="&#x1eb8;" horiz-adv-x="500" 
d="M345 -176h-117v116h117v-116zM327 76h48t38.5 0.5t33 2t32.5 3.5h6l-42 -82h-357v680h345v-75h-212v-222h189v-71h-189v-236h108z" />
    <glyph glyph-name="uni1EB9" unicode="&#x1eb9;" horiz-adv-x="538" 
d="M328 -171h-107v105h107v-105zM178 246q1 -38 11.5 -71.5t31 -58.5t50.5 -39t69 -14t74.5 12.5t60.5 41.5h12l-17 -83q-26 -21 -68 -32.5t-93 -11.5q-118 0 -187.5 64t-69.5 184q0 60 20 106.5t52.5 79t75 49.5t87.5 17q106 0 155.5 -56t49.5 -149v-39h-314zM379 312
q0 56 -23.5 89t-66.5 33t-74.5 -35.5t-35.5 -96.5h200v10z" />
    <glyph glyph-name="uni1EBC" unicode="&#x1ebc;" horiz-adv-x="500" 
d="M327 76h48t38.5 0.5t33 2t32.5 3.5h6l-42 -82h-357v680h345v-75h-212v-222h189v-71h-189v-236h108zM269 850q20 -11 37 -17.5t30 -6.5q18 0 27.5 9t14.5 31h52q-7 -57 -32.5 -85.5t-64.5 -28.5q-20 0 -37.5 6t-40.5 17t-37.5 16.5t-29.5 5.5q-17 0 -28.5 -10t-16.5 -33
h-52q2 22 9.5 43.5t20 38t30 26.5t39.5 10q17 0 36 -4.5t43 -17.5z" />
    <glyph glyph-name="uni1EBD" unicode="&#x1ebd;" horiz-adv-x="538" 
d="M178 246q1 -38 11.5 -71.5t31 -58.5t50.5 -39t69 -14t74.5 12.5t60.5 41.5h12l-17 -83q-26 -21 -68 -32.5t-93 -11.5q-118 0 -187.5 64t-69.5 184q0 60 20 106.5t52.5 79t75 49.5t87.5 17q106 0 155.5 -56t49.5 -149v-39h-314zM379 312q0 56 -23.5 89t-66.5 33
t-74.5 -35.5t-35.5 -96.5h200v10zM298 683q20 -11 37 -17.5t30 -6.5q18 0 27.5 9t14.5 31h52q-7 -57 -32.5 -85.5t-64.5 -28.5q-20 0 -37.5 6t-40.5 17t-37.5 16.5t-29.5 5.5q-17 0 -28.5 -10t-16.5 -33h-52q2 22 9.5 43.5t20 38t30 26.5t39.5 10q17 0 36 -4.5t43 -17.5z
" />
    <glyph glyph-name="uni1EBE" unicode="&#x1ebe;" horiz-adv-x="500" 
d="M419 756h-65l-100 66l-102 -66h-62l111 129h107zM327 76h48t38.5 0.5t33 2t32.5 3.5h6l-42 -82h-357v680h345v-75h-212v-222h189v-71h-189v-236h108zM425 872h-61l96 142h128z" />
    <glyph glyph-name="uni1EBF" unicode="&#x1ebf;" horiz-adv-x="538" 
d="M451 571h-64l-100 79l-102 -79h-59l109 142h107zM178 246q1 -38 11.5 -71.5t31 -58.5t50.5 -39t69 -14t74.5 12.5t60.5 41.5h12l-17 -83q-26 -21 -68 -32.5t-93 -11.5q-118 0 -187.5 64t-69.5 184q0 60 20 106.5t52.5 79t75 49.5t87.5 17q106 0 155.5 -56t49.5 -149v-39
h-314zM379 312q0 56 -23.5 89t-66.5 33t-74.5 -35.5t-35.5 -96.5h200v10zM458 711h-61l96 142h128z" />
    <glyph glyph-name="uni1EC0" unicode="&#x1ec0;" horiz-adv-x="500" 
d="M419 756h-65l-100 66l-102 -66h-62l111 129h107zM327 76h48t38.5 0.5t33 2t32.5 3.5h6l-42 -82h-357v680h345v-75h-212v-222h189v-71h-189v-236h108zM497 851h-61l-163 142h127z" />
    <glyph glyph-name="uni1EC1" unicode="&#x1ec1;" horiz-adv-x="538" 
d="M451 571h-64l-100 79l-102 -79h-59l109 142h107zM178 246q1 -38 11.5 -71.5t31 -58.5t50.5 -39t69 -14t74.5 12.5t60.5 41.5h12l-17 -83q-26 -21 -68 -32.5t-93 -11.5q-118 0 -187.5 64t-69.5 184q0 60 20 106.5t52.5 79t75 49.5t87.5 17q106 0 155.5 -56t49.5 -149v-39
h-314zM379 312q0 56 -23.5 89t-66.5 33t-74.5 -35.5t-35.5 -96.5h200v10zM501 710h-61l-163 142h127z" />
    <glyph glyph-name="uni1EC2" unicode="&#x1ec2;" horiz-adv-x="500" 
d="M377 882q0 26 13.5 42t28.5 30t27 29.5t12 40.5q0 27 -16 39.5t-42 12.5q-37 0 -70 -27h-8l7 47q17 11 39.5 16.5t48.5 5.5q52 0 84.5 -25t32.5 -67q0 -19 -6 -33t-16 -25.5t-23 -20t-26 -16.5q-15 -9 -27 -20t-12 -34v-6h-47v11zM419 756h-65l-100 66l-102 -66h-62
l111 129h107zM327 76h48t38.5 0.5t33 2t32.5 3.5h6l-42 -82h-357v680h345v-75h-212v-222h189v-71h-189v-236h108z" />
    <glyph glyph-name="uni1EC3" unicode="&#x1ec3;" horiz-adv-x="538" 
d="M418 721q0 26 13.5 42t28.5 30t27 29.5t12 40.5q0 27 -16 39.5t-42 12.5q-37 0 -70 -27h-8l7 47q17 11 39.5 16.5t48.5 5.5q52 0 84.5 -25t32.5 -67q0 -19 -6 -33t-16 -25.5t-23 -20t-26 -16.5q-15 -9 -27 -20t-12 -34v-6h-47v11zM451 571h-64l-100 79l-102 -79h-59
l109 142h107zM178 246q1 -38 11.5 -71.5t31 -58.5t50.5 -39t69 -14t74.5 12.5t60.5 41.5h12l-17 -83q-26 -21 -68 -32.5t-93 -11.5q-118 0 -187.5 64t-69.5 184q0 60 20 106.5t52.5 79t75 49.5t87.5 17q106 0 155.5 -56t49.5 -149v-39h-314zM379 312q0 56 -23.5 89t-66.5 33
t-74.5 -35.5t-35.5 -96.5h200v10z" />
    <glyph glyph-name="uni1EC4" unicode="&#x1ec4;" horiz-adv-x="500" 
d="M419 756h-65l-100 66l-102 -66h-62l111 129h107zM327 76h48t38.5 0.5t33 2t32.5 3.5h6l-42 -82h-357v680h345v-75h-212v-222h189v-71h-189v-236h108zM264 1033q20 -11 37 -17.5t30 -6.5q18 0 27.5 9t14.5 31h52q-7 -57 -32.5 -85.5t-64.5 -28.5q-20 0 -37.5 6t-40.5 17
t-37.5 16.5t-29.5 5.5q-17 0 -28.5 -10t-16.5 -33h-52q2 22 9.5 43.5t20 38t30 26.5t39.5 10q17 0 36 -4.5t43 -17.5z" />
    <glyph glyph-name="uni1EC5" unicode="&#x1ec5;" horiz-adv-x="538" 
d="M451 571h-64l-100 79l-102 -79h-59l109 142h107zM178 246q1 -38 11.5 -71.5t31 -58.5t50.5 -39t69 -14t74.5 12.5t60.5 41.5h12l-17 -83q-26 -21 -68 -32.5t-93 -11.5q-118 0 -187.5 64t-69.5 184q0 60 20 106.5t52.5 79t75 49.5t87.5 17q106 0 155.5 -56t49.5 -149v-39
h-314zM379 312q0 56 -23.5 89t-66.5 33t-74.5 -35.5t-35.5 -96.5h200v10zM298 850q20 -11 37 -17.5t30 -6.5q18 0 27.5 9t14.5 31h52q-7 -57 -32.5 -85.5t-64.5 -28.5q-20 0 -37.5 6t-40.5 17t-37.5 16.5t-29.5 5.5q-17 0 -28.5 -10t-16.5 -33h-52q2 22 9.5 43.5t20 38
t30 26.5t39.5 10q17 0 36 -4.5t43 -17.5z" />
    <glyph glyph-name="uni1EC6" unicode="&#x1ec6;" horiz-adv-x="500" 
d="M327 76h48t38.5 0.5t33 2t32.5 3.5h6l-42 -82h-357v680h345v-75h-212v-222h189v-71h-189v-236h108zM345 -176h-117v116h117v-116zM418 751h-64l-100 79l-102 -79h-59l109 142h107z" />
    <glyph glyph-name="uni1EC7" unicode="&#x1ec7;" horiz-adv-x="538" 
d="M178 246q1 -38 11.5 -71.5t31 -58.5t50.5 -39t69 -14t74.5 12.5t60.5 41.5h12l-17 -83q-26 -21 -68 -32.5t-93 -11.5q-118 0 -187.5 64t-69.5 184q0 60 20 106.5t52.5 79t75 49.5t87.5 17q106 0 155.5 -56t49.5 -149v-39h-314zM379 312q0 56 -23.5 89t-66.5 33
t-74.5 -35.5t-35.5 -96.5h200v10zM328 -171h-107v105h107v-105zM451 571h-64l-100 79l-102 -79h-59l109 142h107z" />
    <glyph glyph-name="uni1EC8" unicode="&#x1ec8;" horiz-adv-x="309" 
d="M129 763q0 26 13.5 42t28.5 30t27 29.5t12 40.5q0 27 -16 39.5t-42 12.5q-37 0 -70 -27h-8l7 47q17 11 39.5 16.5t48.5 5.5q52 0 84.5 -25t32.5 -67q0 -19 -6 -33t-16 -25.5t-23 -20t-26 -16.5q-15 -9 -27 -20t-12 -34v-6h-47v11zM223 0h-137v680h137v-680z" />
    <glyph glyph-name="uni1EC9" unicode="&#x1ec9;" horiz-adv-x="276" 
d="M107 557q0 26 13.5 42t28.5 30t27 29.5t12 40.5q0 27 -16 39.5t-42 12.5q-37 0 -70 -27h-8l7 47q17 11 39.5 16.5t48.5 5.5q52 0 84.5 -25t32.5 -67q0 -19 -6 -33t-16 -25.5t-23 -20t-26 -16.5q-15 -9 -27 -20t-12 -34v-6h-47v11zM201 0h-126v480h126v-480z" />
    <glyph glyph-name="uni1ECA" unicode="&#x1eca;" horiz-adv-x="309" 
d="M215 -60v-116h-117v116h117zM223 0h-137v680h137v-680z" />
    <glyph glyph-name="uni1ECB" unicode="&#x1ecb;" horiz-adv-x="276" 
d="M198 -60v-116h-117v116h117zM203 581h-130v118h130v-118zM201 0h-126v480h126v-480z" />
    <glyph glyph-name="uni1ECD" unicode="&#x1ecd;" horiz-adv-x="595" 
d="M355 -176h-117v116h117v-116zM299 490q45 0 88.5 -15t78 -45.5t56 -77t21.5 -109.5q0 -64 -21.5 -111.5t-56 -79t-78 -47t-88.5 -15.5t-89.5 15.5t-79.5 47t-56.5 79t-21.5 111.5q0 63 21.5 109.5t56.5 77t79.5 45.5t89.5 15zM298 54q53 0 85 50.5t32 138.5
q0 86 -32 134.5t-85 48.5t-85 -48.5t-32 -134.5q0 -88 32 -138.5t85 -50.5z" />
    <glyph glyph-name="uni1ECC" unicode="&#x1ecc;" horiz-adv-x="825" 
d="M470 -176h-117v116h117v-116zM411 692q67 0 131.5 -20.5t115.5 -63.5t82 -109.5t31 -158.5q0 -90 -31 -156t-81 -110t-113.5 -65.5t-128.5 -21.5q-68 0 -133 20.5t-116 64t-82.5 110t-31.5 158.5q0 90 31 156t81.5 109.5t114.5 65t130 21.5zM416 62q48 0 86.5 21.5
t65.5 59t41.5 88.5t14.5 110q0 57 -15 107.5t-43 88.5t-68 60.5t-89 22.5q-48 0 -86.5 -21.5t-65.5 -59t-41.5 -88.5t-14.5 -110q0 -57 15 -107.5t42.5 -89t67.5 -60.5t90 -22z" />
    <glyph glyph-name="uni1ECE" unicode="&#x1ece;" horiz-adv-x="825" 
d="M396 762q0 26 13.5 42t28.5 30t27 29.5t12 40.5q0 27 -16 39.5t-42 12.5q-37 0 -70 -27h-8l7 47q17 11 39.5 16.5t48.5 5.5q52 0 84.5 -25t32.5 -67q0 -19 -6 -33t-16 -25.5t-23 -20t-26 -16.5q-15 -9 -27 -20t-12 -34v-6h-47v11zM411 692q67 0 131.5 -20.5t115.5 -63.5
t82 -109.5t31 -158.5q0 -90 -31 -156t-81 -110t-113.5 -65.5t-128.5 -21.5q-68 0 -133 20.5t-116 64t-82.5 110t-31.5 158.5q0 90 31 156t81.5 109.5t114.5 65t130 21.5zM416 62q48 0 86.5 21.5t65.5 59t41.5 88.5t14.5 110q0 57 -15 107.5t-43 88.5t-68 60.5t-89 22.5
q-48 0 -86.5 -21.5t-65.5 -59t-41.5 -88.5t-14.5 -110q0 -57 15 -107.5t42.5 -89t67.5 -60.5t90 -22z" />
    <glyph glyph-name="uni1ECF" unicode="&#x1ecf;" horiz-adv-x="595" 
d="M277 557q0 26 13.5 42t28.5 30t27 29.5t12 40.5q0 27 -16 39.5t-42 12.5q-37 0 -70 -27h-8l7 47q17 11 39.5 16.5t48.5 5.5q52 0 84.5 -25t32.5 -67q0 -19 -6 -33t-16 -25.5t-23 -20t-26 -16.5q-15 -9 -27 -20t-12 -34v-6h-47v11zM299 490q45 0 88.5 -15t78 -45.5t56 -77
t21.5 -109.5q0 -64 -21.5 -111.5t-56 -79t-78 -47t-88.5 -15.5t-89.5 15.5t-79.5 47t-56.5 79t-21.5 111.5q0 63 21.5 109.5t56.5 77t79.5 45.5t89.5 15zM298 54q53 0 85 50.5t32 138.5q0 86 -32 134.5t-85 48.5t-85 -48.5t-32 -134.5q0 -88 32 -138.5t85 -50.5z" />
    <glyph glyph-name="uni1ED0" unicode="&#x1ed0;" horiz-adv-x="825" 
d="M577 756h-65l-100 66l-102 -66h-62l111 129h107zM411 692q67 0 131.5 -20.5t115.5 -63.5t82 -109.5t31 -158.5q0 -90 -31 -156t-81 -110t-113.5 -65.5t-128.5 -21.5q-68 0 -133 20.5t-116 64t-82.5 110t-31.5 158.5q0 90 31 156t81.5 109.5t114.5 65t130 21.5zM416 62
q48 0 86.5 21.5t65.5 59t41.5 88.5t14.5 110q0 57 -15 107.5t-43 88.5t-68 60.5t-89 22.5q-48 0 -86.5 -21.5t-65.5 -59t-41.5 -88.5t-14.5 -110q0 -57 15 -107.5t42.5 -89t67.5 -60.5t90 -22zM592 871h-61l96 142h128z" />
    <glyph glyph-name="uni1ED1" unicode="&#x1ed1;" horiz-adv-x="595" 
d="M460 571h-64l-100 79l-102 -79h-59l109 142h107zM299 490q45 0 88.5 -15t78 -45.5t56 -77t21.5 -109.5q0 -64 -21.5 -111.5t-56 -79t-78 -47t-88.5 -15.5t-89.5 15.5t-79.5 47t-56.5 79t-21.5 111.5q0 63 21.5 109.5t56.5 77t79.5 45.5t89.5 15zM298 54q53 0 85 50.5
t32 138.5q0 86 -32 134.5t-85 48.5t-85 -48.5t-32 -134.5q0 -88 32 -138.5t85 -50.5zM465 711h-61l96 142h128z" />
    <glyph glyph-name="uni1ED2" unicode="&#x1ed2;" horiz-adv-x="825" 
d="M577 756h-65l-100 66l-102 -66h-62l111 129h107zM411 692q67 0 131.5 -20.5t115.5 -63.5t82 -109.5t31 -158.5q0 -90 -31 -156t-81 -110t-113.5 -65.5t-128.5 -21.5q-68 0 -133 20.5t-116 64t-82.5 110t-31.5 158.5q0 90 31 156t81.5 109.5t114.5 65t130 21.5zM416 62
q48 0 86.5 21.5t65.5 59t41.5 88.5t14.5 110q0 57 -15 107.5t-43 88.5t-68 60.5t-89 22.5q-48 0 -86.5 -21.5t-65.5 -59t-41.5 -88.5t-14.5 -110q0 -57 15 -107.5t42.5 -89t67.5 -60.5t90 -22zM695 841h-61l-163 142h127z" />
    <glyph glyph-name="uni1ED3" unicode="&#x1ed3;" horiz-adv-x="595" 
d="M460 571h-64l-100 79l-102 -79h-59l109 142h107zM299 490q45 0 88.5 -15t78 -45.5t56 -77t21.5 -109.5q0 -64 -21.5 -111.5t-56 -79t-78 -47t-88.5 -15.5t-89.5 15.5t-79.5 47t-56.5 79t-21.5 111.5q0 63 21.5 109.5t56.5 77t79.5 45.5t89.5 15zM298 54q53 0 85 50.5
t32 138.5q0 86 -32 134.5t-85 48.5t-85 -48.5t-32 -134.5q0 -88 32 -138.5t85 -50.5zM506 710h-61l-163 142h127z" />
    <glyph glyph-name="uni1ED4" unicode="&#x1ed4;" horiz-adv-x="825" 
d="M557 882q0 26 13.5 42t28.5 30t27 29.5t12 40.5q0 27 -16 39.5t-42 12.5q-37 0 -70 -27h-8l7 47q17 11 39.5 16.5t48.5 5.5q52 0 84.5 -25t32.5 -67q0 -19 -6 -33t-16 -25.5t-23 -20t-26 -16.5q-15 -9 -27 -20t-12 -34v-6h-47v11zM577 756h-65l-100 66l-102 -66h-62
l111 129h107zM411 692q67 0 131.5 -20.5t115.5 -63.5t82 -109.5t31 -158.5q0 -90 -31 -156t-81 -110t-113.5 -65.5t-128.5 -21.5q-68 0 -133 20.5t-116 64t-82.5 110t-31.5 158.5q0 90 31 156t81.5 109.5t114.5 65t130 21.5zM416 62q48 0 86.5 21.5t65.5 59t41.5 88.5
t14.5 110q0 57 -15 107.5t-43 88.5t-68 60.5t-89 22.5q-48 0 -86.5 -21.5t-65.5 -59t-41.5 -88.5t-14.5 -110q0 -57 15 -107.5t42.5 -89t67.5 -60.5t90 -22z" />
    <glyph glyph-name="uni1ED5" unicode="&#x1ed5;" horiz-adv-x="595" 
d="M424 723q0 26 13.5 42t28.5 30t27 29.5t12 40.5q0 27 -16 39.5t-42 12.5q-37 0 -70 -27h-8l7 47q17 11 39.5 16.5t48.5 5.5q52 0 84.5 -25t32.5 -67q0 -19 -6 -33t-16 -25.5t-23 -20t-26 -16.5q-15 -9 -27 -20t-12 -34v-6h-47v11zM460 571h-64l-100 79l-102 -79h-59
l109 142h107zM299 490q45 0 88.5 -15t78 -45.5t56 -77t21.5 -109.5q0 -64 -21.5 -111.5t-56 -79t-78 -47t-88.5 -15.5t-89.5 15.5t-79.5 47t-56.5 79t-21.5 111.5q0 63 21.5 109.5t56.5 77t79.5 45.5t89.5 15zM298 54q53 0 85 50.5t32 138.5q0 86 -32 134.5t-85 48.5
t-85 -48.5t-32 -134.5q0 -88 32 -138.5t85 -50.5z" />
    <glyph glyph-name="uni1ED6" unicode="&#x1ed6;" horiz-adv-x="825" 
d="M577 756h-65l-100 66l-102 -66h-62l111 129h107zM411 692q67 0 131.5 -20.5t115.5 -63.5t82 -109.5t31 -158.5q0 -90 -31 -156t-81 -110t-113.5 -65.5t-128.5 -21.5q-68 0 -133 20.5t-116 64t-82.5 110t-31.5 158.5q0 90 31 156t81.5 109.5t114.5 65t130 21.5zM416 62
q48 0 86.5 21.5t65.5 59t41.5 88.5t14.5 110q0 57 -15 107.5t-43 88.5t-68 60.5t-89 22.5q-48 0 -86.5 -21.5t-65.5 -59t-41.5 -88.5t-14.5 -110q0 -57 15 -107.5t42.5 -89t67.5 -60.5t90 -22zM422 1023q20 -11 37 -17.5t30 -6.5q18 0 27.5 9t14.5 31h52q-7 -57 -32.5 -85.5
t-64.5 -28.5q-20 0 -37.5 6t-40.5 17t-37.5 16.5t-29.5 5.5q-17 0 -28.5 -10t-16.5 -33h-52q2 22 9.5 43.5t20 38t30 26.5t39.5 10q17 0 36 -4.5t43 -17.5z" />
    <glyph glyph-name="uni1ED7" unicode="&#x1ed7;" horiz-adv-x="595" 
d="M460 571h-64l-100 79l-102 -79h-59l109 142h107zM299 490q45 0 88.5 -15t78 -45.5t56 -77t21.5 -109.5q0 -64 -21.5 -111.5t-56 -79t-78 -47t-88.5 -15.5t-89.5 15.5t-79.5 47t-56.5 79t-21.5 111.5q0 63 21.5 109.5t56.5 77t79.5 45.5t89.5 15zM298 54q53 0 85 50.5
t32 138.5q0 86 -32 134.5t-85 48.5t-85 -48.5t-32 -134.5q0 -88 32 -138.5t85 -50.5zM307 846q20 -11 37 -17.5t30 -6.5q18 0 27.5 9t14.5 31h52q-7 -57 -32.5 -85.5t-64.5 -28.5q-20 0 -37.5 6t-40.5 17t-37.5 16.5t-29.5 5.5q-17 0 -28.5 -10t-16.5 -33h-52q2 22 9.5 43.5
t20 38t30 26.5t39.5 10q17 0 36 -4.5t43 -17.5z" />
    <glyph glyph-name="uni1ED8" unicode="&#x1ed8;" horiz-adv-x="825" 
d="M411 692q67 0 131.5 -20.5t115.5 -63.5t82 -109.5t31 -158.5q0 -90 -31 -156t-81 -110t-113.5 -65.5t-128.5 -21.5q-68 0 -133 20.5t-116 64t-82.5 110t-31.5 158.5q0 90 31 156t81.5 109.5t114.5 65t130 21.5zM416 62q48 0 86.5 21.5t65.5 59t41.5 88.5t14.5 110
q0 57 -15 107.5t-43 88.5t-68 60.5t-89 22.5q-48 0 -86.5 -21.5t-65.5 -59t-41.5 -88.5t-14.5 -110q0 -57 15 -107.5t42.5 -89t67.5 -60.5t90 -22zM470 -176h-117v116h117v-116zM575 751h-64l-100 79l-102 -79h-59l109 142h107z" />
    <glyph glyph-name="uni1ED9" unicode="&#x1ed9;" horiz-adv-x="595" 
d="M355 -176h-117v116h117v-116zM299 490q45 0 88.5 -15t78 -45.5t56 -77t21.5 -109.5q0 -64 -21.5 -111.5t-56 -79t-78 -47t-88.5 -15.5t-89.5 15.5t-79.5 47t-56.5 79t-21.5 111.5q0 63 21.5 109.5t56.5 77t79.5 45.5t89.5 15zM298 54q53 0 85 50.5t32 138.5
q0 86 -32 134.5t-85 48.5t-85 -48.5t-32 -134.5q0 -88 32 -138.5t85 -50.5zM460 571h-64l-100 79l-102 -79h-59l109 142h107z" />
    <glyph glyph-name="uni1EDA" unicode="&#x1eda;" horiz-adv-x="825" 
d="M411 692q67 0 131.5 -20.5t115.5 -63.5t82 -109.5t31 -158.5q0 -90 -31 -156t-81 -110t-113.5 -65.5t-128.5 -21.5q-68 0 -133 20.5t-116 64t-82.5 110t-31.5 158.5q0 90 31 156t81.5 109.5t114.5 65t130 21.5zM416 62q48 0 86.5 21.5t65.5 59t41.5 88.5t14.5 110
q0 57 -15 107.5t-43 88.5t-68 60.5t-89 22.5q-48 0 -86.5 -21.5t-65.5 -59t-41.5 -88.5t-14.5 -110q0 -57 15 -107.5t42.5 -89t67.5 -60.5t90 -22zM599 644q12 4 20 12t14 19q11 27 11 57h93l3 -7q-5 -24 -10.5 -41.5t-14.5 -31.5q-17 -26 -44 -42q-30 -17 -72 -23v57z
M451 751h-61l96 142h128z" />
    <glyph glyph-name="uni1EDB" unicode="&#x1edb;" horiz-adv-x="595" 
d="M299 490q45 0 88.5 -15t78 -45.5t56 -77t21.5 -109.5q0 -64 -21.5 -111.5t-56 -79t-78 -47t-88.5 -15.5t-89.5 15.5t-79.5 47t-56.5 79t-21.5 111.5q0 63 21.5 109.5t56.5 77t79.5 45.5t89.5 15zM298 54q53 0 85 50.5t32 138.5q0 86 -32 134.5t-85 48.5t-85 -48.5
t-32 -134.5q0 -88 32 -138.5t85 -50.5zM434 443q25 8 38 35t13 65h105l5 -9q-10 -53 -29 -83q-10 -14 -22 -26t-29 -20q-31 -19 -81 -27v65zM316 571h-61l96 142h128z" />
    <glyph glyph-name="uni1EDC" unicode="&#x1edc;" horiz-adv-x="825" 
d="M411 692q67 0 131.5 -20.5t115.5 -63.5t82 -109.5t31 -158.5q0 -90 -31 -156t-81 -110t-113.5 -65.5t-128.5 -21.5q-68 0 -133 20.5t-116 64t-82.5 110t-31.5 158.5q0 90 31 156t81.5 109.5t114.5 65t130 21.5zM416 62q48 0 86.5 21.5t65.5 59t41.5 88.5t14.5 110
q0 57 -15 107.5t-43 88.5t-68 60.5t-89 22.5q-48 0 -86.5 -21.5t-65.5 -59t-41.5 -88.5t-14.5 -110q0 -57 15 -107.5t42.5 -89t67.5 -60.5t90 -22zM599 644q12 4 20 12t14 19q11 27 11 57h93l3 -7q-5 -24 -10.5 -41.5t-14.5 -31.5q-17 -26 -44 -42q-30 -17 -72 -23v57z
M524 751h-61l-163 142h127z" />
    <glyph glyph-name="uni1EDD" unicode="&#x1edd;" horiz-adv-x="595" 
d="M299 490q45 0 88.5 -15t78 -45.5t56 -77t21.5 -109.5q0 -64 -21.5 -111.5t-56 -79t-78 -47t-88.5 -15.5t-89.5 15.5t-79.5 47t-56.5 79t-21.5 111.5q0 63 21.5 109.5t56.5 77t79.5 45.5t89.5 15zM298 54q53 0 85 50.5t32 138.5q0 86 -32 134.5t-85 48.5t-85 -48.5
t-32 -134.5q0 -88 32 -138.5t85 -50.5zM434 443q25 8 38 35t13 65h105l5 -9q-10 -53 -29 -83q-10 -14 -22 -26t-29 -20q-31 -19 -81 -27v65zM409 571h-61l-163 142h127z" />
    <glyph glyph-name="uni1EDE" unicode="&#x1ede;" horiz-adv-x="825" 
d="M396 762q0 26 13.5 42t28.5 30t27 29.5t12 40.5q0 27 -16 39.5t-42 12.5q-37 0 -70 -27h-8l7 47q17 11 39.5 16.5t48.5 5.5q52 0 84.5 -25t32.5 -67q0 -19 -6 -33t-16 -25.5t-23 -20t-26 -16.5q-15 -9 -27 -20t-12 -34v-6h-47v11zM411 692q67 0 131.5 -20.5t115.5 -63.5
t82 -109.5t31 -158.5q0 -90 -31 -156t-81 -110t-113.5 -65.5t-128.5 -21.5q-68 0 -133 20.5t-116 64t-82.5 110t-31.5 158.5q0 90 31 156t81.5 109.5t114.5 65t130 21.5zM416 62q48 0 86.5 21.5t65.5 59t41.5 88.5t14.5 110q0 57 -15 107.5t-43 88.5t-68 60.5t-89 22.5
q-48 0 -86.5 -21.5t-65.5 -59t-41.5 -88.5t-14.5 -110q0 -57 15 -107.5t42.5 -89t67.5 -60.5t90 -22zM599 644q12 4 20 12t14 19q11 27 11 57h93l3 -7q-5 -24 -10.5 -41.5t-14.5 -31.5q-17 -26 -44 -42q-30 -17 -72 -23v57z" />
    <glyph glyph-name="uni1EDF" unicode="&#x1edf;" horiz-adv-x="595" 
d="M277 557q0 26 13.5 42t28.5 30t27 29.5t12 40.5q0 27 -16 39.5t-42 12.5q-37 0 -70 -27h-8l7 47q17 11 39.5 16.5t48.5 5.5q52 0 84.5 -25t32.5 -67q0 -19 -6 -33t-16 -25.5t-23 -20t-26 -16.5q-15 -9 -27 -20t-12 -34v-6h-47v11zM299 490q45 0 88.5 -15t78 -45.5t56 -77
t21.5 -109.5q0 -64 -21.5 -111.5t-56 -79t-78 -47t-88.5 -15.5t-89.5 15.5t-79.5 47t-56.5 79t-21.5 111.5q0 63 21.5 109.5t56.5 77t79.5 45.5t89.5 15zM298 54q53 0 85 50.5t32 138.5q0 86 -32 134.5t-85 48.5t-85 -48.5t-32 -134.5q0 -88 32 -138.5t85 -50.5zM434 443
q25 8 38 35t13 65h105l5 -9q-10 -53 -29 -83q-10 -14 -22 -26t-29 -20q-31 -19 -81 -27v65z" />
    <glyph glyph-name="uni1EE0" unicode="&#x1ee0;" horiz-adv-x="825" 
d="M411 692q67 0 131.5 -20.5t115.5 -63.5t82 -109.5t31 -158.5q0 -90 -31 -156t-81 -110t-113.5 -65.5t-128.5 -21.5q-68 0 -133 20.5t-116 64t-82.5 110t-31.5 158.5q0 90 31 156t81.5 109.5t114.5 65t130 21.5zM416 62q48 0 86.5 21.5t65.5 59t41.5 88.5t14.5 110
q0 57 -15 107.5t-43 88.5t-68 60.5t-89 22.5q-48 0 -86.5 -21.5t-65.5 -59t-41.5 -88.5t-14.5 -110q0 -57 15 -107.5t42.5 -89t67.5 -60.5t90 -22zM599 644q12 4 20 12t14 19q11 27 11 57h93l3 -7q-5 -24 -10.5 -41.5t-14.5 -31.5q-17 -26 -44 -42q-30 -17 -72 -23v57z
M421 850q20 -11 37 -17.5t30 -6.5q18 0 27.5 9t14.5 31h52q-7 -57 -32.5 -85.5t-64.5 -28.5q-20 0 -37.5 6t-40.5 17t-37.5 16.5t-29.5 5.5q-17 0 -28.5 -10t-16.5 -33h-52q2 22 9.5 43.5t20 38t30 26.5t39.5 10q17 0 36 -4.5t43 -17.5z" />
    <glyph glyph-name="uni1EE1" unicode="&#x1ee1;" horiz-adv-x="595" 
d="M299 490q45 0 88.5 -15t78 -45.5t56 -77t21.5 -109.5q0 -64 -21.5 -111.5t-56 -79t-78 -47t-88.5 -15.5t-89.5 15.5t-79.5 47t-56.5 79t-21.5 111.5q0 63 21.5 109.5t56.5 77t79.5 45.5t89.5 15zM298 54q53 0 85 50.5t32 138.5q0 86 -32 134.5t-85 48.5t-85 -48.5
t-32 -134.5q0 -88 32 -138.5t85 -50.5zM434 443q25 8 38 35t13 65h105l5 -9q-10 -53 -29 -83q-10 -14 -22 -26t-29 -20q-31 -19 -81 -27v65zM306 683q20 -11 37 -17.5t30 -6.5q18 0 27.5 9t14.5 31h52q-7 -57 -32.5 -85.5t-64.5 -28.5q-20 0 -37.5 6t-40.5 17t-37.5 16.5
t-29.5 5.5q-17 0 -28.5 -10t-16.5 -33h-52q2 22 9.5 43.5t20 38t30 26.5t39.5 10q17 0 36 -4.5t43 -17.5z" />
    <glyph glyph-name="uni1EE2" unicode="&#x1ee2;" horiz-adv-x="825" 
d="M470 -176h-117v116h117v-116zM411 692q67 0 131.5 -20.5t115.5 -63.5t82 -109.5t31 -158.5q0 -90 -31 -156t-81 -110t-113.5 -65.5t-128.5 -21.5q-68 0 -133 20.5t-116 64t-82.5 110t-31.5 158.5q0 90 31 156t81.5 109.5t114.5 65t130 21.5zM416 62q48 0 86.5 21.5
t65.5 59t41.5 88.5t14.5 110q0 57 -15 107.5t-43 88.5t-68 60.5t-89 22.5q-48 0 -86.5 -21.5t-65.5 -59t-41.5 -88.5t-14.5 -110q0 -57 15 -107.5t42.5 -89t67.5 -60.5t90 -22zM599 644q12 4 20 12t14 19q11 27 11 57h93l3 -7q-5 -24 -10.5 -41.5t-14.5 -31.5
q-17 -26 -44 -42q-30 -17 -72 -23v57z" />
    <glyph glyph-name="uni1EE3" unicode="&#x1ee3;" horiz-adv-x="595" 
d="M355 -176h-117v116h117v-116zM299 490q45 0 88.5 -15t78 -45.5t56 -77t21.5 -109.5q0 -64 -21.5 -111.5t-56 -79t-78 -47t-88.5 -15.5t-89.5 15.5t-79.5 47t-56.5 79t-21.5 111.5q0 63 21.5 109.5t56.5 77t79.5 45.5t89.5 15zM298 54q53 0 85 50.5t32 138.5
q0 86 -32 134.5t-85 48.5t-85 -48.5t-32 -134.5q0 -88 32 -138.5t85 -50.5zM434 443q25 8 38 35t13 65h105l5 -9q-10 -53 -29 -83q-10 -14 -22 -26t-29 -20q-31 -19 -81 -27v65z" />
    <glyph glyph-name="uni1EE4" unicode="&#x1ee4;" horiz-adv-x="723" 
d="M419 -176h-117v116h117v-116zM369 -13q-71 0 -125 17.5t-90.5 50.5t-55 79.5t-18.5 104.5v441h137v-422q0 -96 42 -144t120 -48q82 0 127.5 47t45.5 145v422h91v-441q0 -58 -19 -104.5t-54.5 -79.5t-86 -50.5t-114.5 -17.5z" />
    <glyph glyph-name="uni1EE5" unicode="&#x1ee5;" horiz-adv-x="583" 
d="M348 -176h-117v116h117v-116zM198 192q0 -23 3 -43t10.5 -35t21 -24t34.5 -9q28 0 49.5 13t36.5 35.5t22.5 52.5t7.5 64v234h124v-480h-118l-6 105h-3q-10 -21 -25.5 -41.5t-35.5 -36.5t-45.5 -26t-55.5 -10t-56.5 6.5t-46 25.5t-31 53t-11.5 89v315h125v-288z" />
    <glyph glyph-name="uni1EE6" unicode="&#x1ee6;" horiz-adv-x="723" 
d="M373 761q0 26 13.5 42t28.5 30t27 29.5t12 40.5q0 27 -16 39.5t-42 12.5q-37 0 -70 -27h-8l7 47q17 11 39.5 16.5t48.5 5.5q52 0 84.5 -25t32.5 -67q0 -19 -6 -33t-16 -25.5t-23 -20t-26 -16.5q-15 -9 -27 -20t-12 -34v-6h-47v11zM369 -13q-71 0 -125 17.5t-90.5 50.5
t-55 79.5t-18.5 104.5v441h137v-422q0 -96 42 -144t120 -48q82 0 127.5 47t45.5 145v422h91v-441q0 -58 -19 -104.5t-54.5 -79.5t-86 -50.5t-114.5 -17.5z" />
    <glyph glyph-name="uni1EE7" unicode="&#x1ee7;" horiz-adv-x="583" 
d="M268 567q0 26 13.5 42t28.5 30t27 29.5t12 40.5q0 27 -16 39.5t-42 12.5q-37 0 -70 -27h-8l7 47q17 11 39.5 16.5t48.5 5.5q52 0 84.5 -25t32.5 -67q0 -19 -6 -33t-16 -25.5t-23 -20t-26 -16.5q-15 -9 -27 -20t-12 -34v-6h-47v11zM198 192q0 -23 3 -43t10.5 -35t21 -24
t34.5 -9q28 0 49.5 13t36.5 35.5t22.5 52.5t7.5 64v234h124v-480h-118l-6 105h-3q-10 -21 -25.5 -41.5t-35.5 -36.5t-45.5 -26t-55.5 -10t-56.5 6.5t-46 25.5t-31 53t-11.5 89v315h125v-288z" />
    <glyph glyph-name="uni1EE8" unicode="&#x1ee8;" horiz-adv-x="723" 
d="M369 -13q-71 0 -125 17.5t-90.5 50.5t-55 79.5t-18.5 104.5v441h137v-422q0 -96 42 -144t120 -48q82 0 127.5 47t45.5 145v422h91v-441q0 -58 -19 -104.5t-54.5 -79.5t-86 -50.5t-114.5 -17.5zM623 644q12 4 20 12t14 19q11 27 11 57h93l3 -7q-5 -24 -10.5 -41.5
t-14.5 -31.5q-17 -26 -44 -42q-30 -17 -72 -23v57zM400 751h-61l96 142h128z" />
    <glyph glyph-name="uni1EE9" unicode="&#x1ee9;" horiz-adv-x="583" 
d="M198 192q0 -23 3 -43t10.5 -35t21 -24t34.5 -9q28 0 49.5 13t36.5 35.5t22.5 52.5t7.5 64v234h124v-480h-118l-6 105h-3q-10 -21 -25.5 -41.5t-35.5 -36.5t-45.5 -26t-55.5 -10t-56.5 6.5t-46 25.5t-31 53t-11.5 89v315h125v-288zM504 444q26 9 39 36q13 31 13 66h107
l4 -9q-10 -54 -29 -84q-20 -30 -52 -48q-16 -10 -37 -16.5t-45 -10.5v66zM310 571h-61l96 142h128z" />
    <glyph glyph-name="uni1EEA" unicode="&#x1eea;" horiz-adv-x="723" 
d="M369 -13q-71 0 -125 17.5t-90.5 50.5t-55 79.5t-18.5 104.5v441h137v-422q0 -96 42 -144t120 -48q82 0 127.5 47t45.5 145v422h91v-441q0 -58 -19 -104.5t-54.5 -79.5t-86 -50.5t-114.5 -17.5zM623 644q12 4 20 12t14 19q11 27 11 57h93l3 -7q-5 -24 -10.5 -41.5
t-14.5 -31.5q-17 -26 -44 -42q-30 -17 -72 -23v57zM473 751h-61l-163 142h127z" />
    <glyph glyph-name="uni1EEB" unicode="&#x1eeb;" horiz-adv-x="583" 
d="M198 192q0 -23 3 -43t10.5 -35t21 -24t34.5 -9q28 0 49.5 13t36.5 35.5t22.5 52.5t7.5 64v234h124v-480h-118l-6 105h-3q-10 -21 -25.5 -41.5t-35.5 -36.5t-45.5 -26t-55.5 -10t-56.5 6.5t-46 25.5t-31 53t-11.5 89v315h125v-288zM504 444q26 9 39 36q13 31 13 66h107
l4 -9q-10 -54 -29 -84q-20 -30 -52 -48q-16 -10 -37 -16.5t-45 -10.5v66zM403 571h-61l-163 142h127z" />
    <glyph glyph-name="uni1EEC" unicode="&#x1eec;" horiz-adv-x="723" 
d="M373 761q0 26 13.5 42t28.5 30t27 29.5t12 40.5q0 27 -16 39.5t-42 12.5q-37 0 -70 -27h-8l7 47q17 11 39.5 16.5t48.5 5.5q52 0 84.5 -25t32.5 -67q0 -19 -6 -33t-16 -25.5t-23 -20t-26 -16.5q-15 -9 -27 -20t-12 -34v-6h-47v11zM369 -13q-71 0 -125 17.5t-90.5 50.5
t-55 79.5t-18.5 104.5v441h137v-422q0 -96 42 -144t120 -48q82 0 127.5 47t45.5 145v422h91v-441q0 -58 -19 -104.5t-54.5 -79.5t-86 -50.5t-114.5 -17.5zM623 644q12 4 20 12t14 19q11 27 11 57h93l3 -7q-5 -24 -10.5 -41.5t-14.5 -31.5q-17 -26 -44 -42q-30 -17 -72 -23
v57z" />
    <glyph glyph-name="uni1EED" unicode="&#x1eed;" horiz-adv-x="583" 
d="M268 567q0 26 13.5 42t28.5 30t27 29.5t12 40.5q0 27 -16 39.5t-42 12.5q-37 0 -70 -27h-8l7 47q17 11 39.5 16.5t48.5 5.5q52 0 84.5 -25t32.5 -67q0 -19 -6 -33t-16 -25.5t-23 -20t-26 -16.5q-15 -9 -27 -20t-12 -34v-6h-47v11zM198 192q0 -23 3 -43t10.5 -35t21 -24
t34.5 -9q28 0 49.5 13t36.5 35.5t22.5 52.5t7.5 64v234h124v-480h-118l-6 105h-3q-10 -21 -25.5 -41.5t-35.5 -36.5t-45.5 -26t-55.5 -10t-56.5 6.5t-46 25.5t-31 53t-11.5 89v315h125v-288zM504 444q26 9 39 36q13 31 13 66h107l4 -9q-10 -54 -29 -84q-20 -30 -52 -48
q-16 -10 -37 -16.5t-45 -10.5v66z" />
    <glyph glyph-name="uni1EEE" unicode="&#x1eee;" horiz-adv-x="723" 
d="M369 -13q-71 0 -125 17.5t-90.5 50.5t-55 79.5t-18.5 104.5v441h137v-422q0 -96 42 -144t120 -48q82 0 127.5 47t45.5 145v422h91v-441q0 -58 -19 -104.5t-54.5 -79.5t-86 -50.5t-114.5 -17.5zM623 644q12 4 20 12t14 19q11 27 11 57h93l3 -7q-5 -24 -10.5 -41.5
t-14.5 -31.5q-17 -26 -44 -42q-30 -17 -72 -23v57zM370 850q20 -11 37 -17.5t30 -6.5q18 0 27.5 9t14.5 31h52q-7 -57 -32.5 -85.5t-64.5 -28.5q-20 0 -37.5 6t-40.5 17t-37.5 16.5t-29.5 5.5q-17 0 -28.5 -10t-16.5 -33h-52q2 22 9.5 43.5t20 38t30 26.5t39.5 10
q17 0 36 -4.5t43 -17.5z" />
    <glyph glyph-name="uni1EEF" unicode="&#x1eef;" horiz-adv-x="583" 
d="M198 192q0 -23 3 -43t10.5 -35t21 -24t34.5 -9q28 0 49.5 13t36.5 35.5t22.5 52.5t7.5 64v234h124v-480h-118l-6 105h-3q-10 -21 -25.5 -41.5t-35.5 -36.5t-45.5 -26t-55.5 -10t-56.5 6.5t-46 25.5t-31 53t-11.5 89v315h125v-288zM504 444q26 9 39 36q13 31 13 66h107
l4 -9q-10 -54 -29 -84q-20 -30 -52 -48q-16 -10 -37 -16.5t-45 -10.5v66zM300 683q20 -11 37 -17.5t30 -6.5q18 0 27.5 9t14.5 31h52q-7 -57 -32.5 -85.5t-64.5 -28.5q-20 0 -37.5 6t-40.5 17t-37.5 16.5t-29.5 5.5q-17 0 -28.5 -10t-16.5 -33h-52q2 22 9.5 43.5t20 38
t30 26.5t39.5 10q17 0 36 -4.5t43 -17.5z" />
    <glyph glyph-name="uni1EF0" unicode="&#x1ef0;" horiz-adv-x="723" 
d="M419 -176h-117v116h117v-116zM369 -13q-71 0 -125 17.5t-90.5 50.5t-55 79.5t-18.5 104.5v441h137v-422q0 -96 42 -144t120 -48q82 0 127.5 47t45.5 145v422h91v-441q0 -58 -19 -104.5t-54.5 -79.5t-86 -50.5t-114.5 -17.5zM623 644q12 4 20 12t14 19q11 27 11 57h93
l3 -7q-5 -24 -10.5 -41.5t-14.5 -31.5q-17 -26 -44 -42q-30 -17 -72 -23v57z" />
    <glyph glyph-name="uni1EF1" unicode="&#x1ef1;" horiz-adv-x="583" 
d="M348 -176h-117v116h117v-116zM198 192q0 -23 3 -43t10.5 -35t21 -24t34.5 -9q28 0 49.5 13t36.5 35.5t22.5 52.5t7.5 64v234h124v-480h-118l-6 105h-3q-10 -21 -25.5 -41.5t-35.5 -36.5t-45.5 -26t-55.5 -10t-56.5 6.5t-46 25.5t-31 53t-11.5 89v315h125v-288zM504 444
q26 9 39 36q13 31 13 66h107l4 -9q-10 -54 -29 -84q-20 -30 -52 -48q-16 -10 -37 -16.5t-45 -10.5v66z" />
    <glyph glyph-name="uni1EF4" unicode="&#x1ef4;" horiz-adv-x="595" 
d="M361 -60v-116h-117v116h117zM165 680l168 -280h6l162 280h96l-225 -369v-311h-137v305l-237 375h167z" />
    <glyph glyph-name="uni1EF5" unicode="&#x1ef5;" horiz-adv-x="490" 
d="M438 -176h-117v116h117v-116zM86 -223q67 117 117 239l-196 464h144l118 -328h3l116 328h94l-288 -703h-108z" />
    <glyph glyph-name="uni1EF6" unicode="&#x1ef6;" horiz-adv-x="595" 
d="M293 767q0 26 13.5 42t28.5 30t27 29.5t12 40.5q0 27 -16 39.5t-42 12.5q-37 0 -70 -27h-8l7 47q17 11 39.5 16.5t48.5 5.5q52 0 84.5 -25t32.5 -67q0 -19 -6 -33t-16 -25.5t-23 -20t-26 -16.5q-15 -9 -27 -20t-12 -34v-6h-47v11zM165 680l168 -280h6l162 280h96
l-225 -369v-311h-137v305l-237 375h167z" />
    <glyph glyph-name="uni1EF7" unicode="&#x1ef7;" horiz-adv-x="490" 
d="M228 567q0 26 13.5 42t28.5 30t27 29.5t12 40.5q0 27 -16 39.5t-42 12.5q-37 0 -70 -27h-8l7 47q17 11 39.5 16.5t48.5 5.5q52 0 84.5 -25t32.5 -67q0 -19 -6 -33t-16 -25.5t-23 -20t-26 -16.5q-15 -9 -27 -20t-12 -34v-6h-47v11zM86 -223q67 117 117 239l-196 464h144
l118 -328h3l116 328h94l-288 -703h-108z" />
    <glyph glyph-name="uni1EF8" unicode="&#x1ef8;" horiz-adv-x="595" 
d="M165 680l168 -280h6l162 280h96l-225 -369v-311h-137v305l-237 375h167zM327 850q20 -11 37 -17.5t30 -6.5q18 0 27.5 9t14.5 31h52q-7 -57 -32.5 -85.5t-64.5 -28.5q-20 0 -37.5 6t-40.5 17t-37.5 16.5t-29.5 5.5q-17 0 -28.5 -10t-16.5 -33h-52q2 22 9.5 43.5t20 38
t30 26.5t39.5 10q17 0 36 -4.5t43 -17.5z" />
    <glyph glyph-name="uni1EF9" unicode="&#x1ef9;" horiz-adv-x="490" 
d="M86 -223q67 117 117 239l-196 464h144l118 -328h3l116 328h94l-288 -703h-108zM261 683q20 -11 37 -17.5t30 -6.5q18 0 27.5 9t14.5 31h52q-7 -57 -32.5 -85.5t-64.5 -28.5q-20 0 -37.5 6t-40.5 17t-37.5 16.5t-29.5 5.5q-17 0 -28.5 -10t-16.5 -33h-52q2 22 9.5 43.5
t20 38t30 26.5t39.5 10q17 0 36 -4.5t43 -17.5z" />
    <glyph glyph-name="uni1EBA" unicode="&#x1eba;" horiz-adv-x="500" 
d="M248 762q0 26 13.5 42t28.5 30t27 29.5t12 40.5q0 27 -16 39.5t-42 12.5q-37 0 -70 -27h-8l7 47q17 11 39.5 16.5t48.5 5.5q52 0 84.5 -25t32.5 -67q0 -19 -6 -33t-16 -25.5t-23 -20t-26 -16.5q-15 -9 -27 -20t-12 -34v-6h-47v11zM327 76h48t38.5 0.5t33 2t32.5 3.5h6
l-42 -82h-357v680h345v-75h-212v-222h189v-71h-189v-236h108z" />
    <glyph glyph-name="uni1EBB" unicode="&#x1ebb;" horiz-adv-x="538" 
d="M277 557q0 26 13.5 42t28.5 30t27 29.5t12 40.5q0 27 -16 39.5t-42 12.5q-37 0 -70 -27h-8l7 47q17 11 39.5 16.5t48.5 5.5q52 0 84.5 -25t32.5 -67q0 -19 -6 -33t-16 -25.5t-23 -20t-26 -16.5q-15 -9 -27 -20t-12 -34v-6h-47v11zM178 246q1 -38 11.5 -71.5t31 -58.5
t50.5 -39t69 -14t74.5 12.5t60.5 41.5h12l-17 -83q-26 -21 -68 -32.5t-93 -11.5q-118 0 -187.5 64t-69.5 184q0 60 20 106.5t52.5 79t75 49.5t87.5 17q106 0 155.5 -56t49.5 -149v-39h-314zM379 312q0 56 -23.5 89t-66.5 33t-74.5 -35.5t-35.5 -96.5h200v10z" />
    </font>
</defs>
</svg>
