<?xml version="1.0" standalone="no"?>
<!DOCTYPE svg PUBLIC "-//W3C//DTD SVG 1.1//EN" "http://www.w3.org/Graphics/SVG/1.1/DTD/svg11.dtd" >
<svg xmlns="http://www.w3.org/2000/svg" xmlns:xlink="http://www.w3.org/1999/xlink" version="1.1">
<metadata>
Created by FontForge 20170910 at Thu Sep 22 03:15:10 2011
 By Jimmy Wärting
Copyright (c) 2011 by VietSoft. All rights reserved.
</metadata>
<defs>
<font id="VIE-ImagoBookItalic" horiz-adv-x="521" >
  <font-face 
    font-family="VIE-ImagoBook Italic"
    font-weight="400"
    font-style="italic"
    font-stretch="normal"
    units-per-em="1000"
    panose-1="2 0 0 0 0 0 0 0 0 0"
    ascent="800"
    descent="-200"
    x-height="500"
    cap-height="706"
    bbox="-152 -250 1150 1072"
    underline-thickness="50"
    underline-position="-125"
    slope="14"
    unicode-range="U+0020-F002"
  />
<missing-glyph horiz-adv-x="500" 
d="M31 0v750h438v-750h-438zM438 31v688h-376v-688h376z" />
    <glyph glyph-name=".notdef" horiz-adv-x="500" 
d="M31 0v750h438v-750h-438zM438 31v688h-376v-688h376z" />
    <glyph glyph-name=".null" horiz-adv-x="0" 
 />
    <glyph glyph-name="nonmarkingreturn" horiz-adv-x="271" 
 />
    <glyph glyph-name="space" unicode=" " horiz-adv-x="271" 
 />
    <glyph glyph-name="numbersign" unicode="#" horiz-adv-x="667" 
d="M477 259l-37 -259h-60l38 259h-102l-38 -259h-58l36 259h-168v54h176l13 97h-167v57h174l32 241h63l-34 -241h100l32 241h59l-33 -241h168v-57h-175l-13 -97h168v-54h-174zM323 313h101l13 97h-100z" />
    <glyph glyph-name="dollar" unicode="$" horiz-adv-x="458" 
d="M493 554q-22 10 -40.5 16.5t-32.5 11.5q-47 15 -82 15q-53 0 -85 -29q-28 -25 -28 -61q0 -43 43 -86q6 -6 17.5 -16.5t28.5 -24.5l37 -30q36 -32 57 -54q55 -59 55 -124q0 -68 -48 -116q-63 -63 -186 -63l-24 -93h-55l25 98q-42 6 -70.5 15.5t-55.5 25.5l16 64
q67 -30 103 -39q37 -9 75 -9q67 0 102 35q28 28 28 70q0 37 -22 66q-14 19 -65 64l-29 25q-29 23 -48.5 42.5t-30.5 33.5q-38 50 -38 103q0 42 23 79q28 43 80 65q19 8 44.5 12.5t60.5 4.5h12l21 79h52l-22 -86q21 -5 35.5 -9t25 -8t19 -8t17.5 -9z" />
    <glyph glyph-name="percent" unicode="%" horiz-adv-x="792" 
d="M413 546q0 -35 -14 -105q-7 -34 -15.5 -65t-19.5 -60q-25 -68 -65 -94q-32 -21 -82 -21q-31 0 -50.5 7t-33.5 19q-20 17 -26.5 38.5t-6.5 46.5q0 39 15 107q8 35 15 62t14 47q18 52 42 79q40 46 108 46q12 0 24.5 -2t20.5 -4q35 -10 54.5 -34.5t19.5 -66.5zM351 555
q0 36 -25 49q-13 7 -30 7q-31 0 -50 -19q-14 -12 -24 -36q-17 -35 -39 -124q-21 -89 -21 -126q0 -24 7 -37q13 -27 49 -27q16 0 29 5.5t24 18.5t20.5 35t20.5 55q39 124 39 199zM816 340q0 -35 -14 -105q-13 -67 -34 -123.5t-48 -81.5q-38 -35 -100 -35q-29 0 -48 6t-36 20
q-20 17 -26.5 38.5t-6.5 46.5q0 39 15 107q15 69 30.5 114t40.5 73q40 46 108 46q12 0 24.5 -2t20.5 -4q35 -10 54.5 -35t19.5 -65zM754 349q0 35 -25 48q-13 7 -30 7q-31 0 -50 -19q-11 -11 -24 -35q-17 -35 -39 -124q-21 -89 -21 -126q0 -24 7 -37q13 -27 49 -27
q16 0 29 5.5t24 18.5t20.5 35.5t20.5 55.5q39 124 39 198zM690 648l-410 -648h-54l411 648h53z" />
    <glyph glyph-name="ampersand" unicode="&#x26;" horiz-adv-x="667" 
d="M584 355h80l-21 -85q-19 -65 -33 -94q-19 -37 -57 -77l49 -99h-96l-21 44q-45 -26 -86 -39.5t-97 -13.5q-20 0 -36 1.5t-29 3.5q-50 10 -87 39q-32 25 -51 64.5t-19 87.5q0 66 33 116t94 83q36 19 98 38q-19 39 -27.5 70.5t-8.5 57.5q0 72 46 115q49 48 135 48
q70 0 110 -34t40 -97q0 -72 -63 -118q-38 -29 -129 -60l116 -244q15 26 24 52q5 14 11.5 38t14.5 59zM389 445q58 19 85 40q49 37 49 99q0 36 -18 57q-21 25 -60 25q-42 0 -67 -25t-25 -70q0 -29 10 -60.5t26 -65.5zM325 382q-64 -23 -97 -50q-58 -48 -58 -128
q0 -33 11.5 -61.5t32.5 -48.5t52 -31.5t70 -11.5q43 0 76 13q21 7 51 27z" />
    <glyph glyph-name="quotesingle" unicode="'" horiz-adv-x="208" 
d="M203 445h-19l-33 242l-1 17q0 22 14 33.5t32 11.5q42 0 42 -49z" />
    <glyph glyph-name="parenleft" unicode="(" horiz-adv-x="375" 
d="M545 705l-14 -53q-34 0 -51.5 -1t-35.5 -6q-67 -17 -104 -70q-21 -30 -42 -93q-26 -78 -57 -202q-36 -149 -36 -210q0 -88 51 -128q28 -22 83 -33l-13 -51q-94 0 -146.5 56t-52.5 152q0 67 29 197q15 65 32.5 126t37.5 119q34 100 85 142q68 56 197 56z" />
    <glyph glyph-name="parenright" unicode=")" horiz-adv-x="375" 
d="M-66 -140l14 53h14q44 0 73 7q67 17 104 70q22 30 42 93q28 82 57 201q36 148 36 211q0 87 -51 128q-28 22 -83 33l14 51q94 0 146 -55.5t52 -152.5q0 -74 -28 -193q-14 -60 -31.5 -122t-39.5 -128q-35 -101 -84 -141q-67 -56 -197 -56z" />
    <glyph glyph-name="asterisk" unicode="*" horiz-adv-x="354" 
d="M316 497l-28 -109l-56 16l28 106l-106 -34l-18 59l111 29l-83 77l44 44l76 -81l28 108l56 -13l-28 -108l105 32l16 -59l-107 -29l80 -76l-43 -43z" />
    <glyph glyph-name="plus" unicode="+" horiz-adv-x="667" 
d="M411 261v-261h-60v261h-262v60h262v260h60v-260h261v-60h-261z" />
    <glyph glyph-name="comma" unicode="," horiz-adv-x="208" 
d="M133 0l-89 -132h-56l90 132h-48l23 88h103z" />
    <glyph glyph-name="hyphen" unicode="-" horiz-adv-x="396" 
d="M398 291l-17 -66h-293l17 66h293z" />
    <glyph glyph-name="period" unicode="." horiz-adv-x="208" 
d="M154 93l-24 -93h-97l24 93h97z" />
    <glyph glyph-name="slash" unicode="/" horiz-adv-x="375" 
d="M515 706l-434 -706h-82l435 706h81z" />
    <glyph glyph-name="zero" unicode="0" horiz-adv-x="500" 
d="M542 501q0 -30 -4.5 -68.5t-14.5 -86.5q-20 -96 -52 -181q-33 -87 -73 -124q-53 -48 -144 -48q-38 0 -68 8t-55 29q-30 27 -40 65q-7 24 -7 59q0 53 24 163q21 97 43.5 163t60.5 108q60 67 157 67q18 0 31.5 -1.5t34.5 -7.5q107 -29 107 -145zM459 515q0 51 -35 72
q-23 14 -52 14q-46 0 -77 -30q-10 -10 -19.5 -23t-18.5 -30q-26 -51 -58 -186q-31 -131 -31 -187q0 -23 1.5 -32t7.5 -22q10 -22 31.5 -34t46.5 -12q53 0 83 36q31 37 62 137q26 82 42 166q17 88 17 131z" />
    <glyph glyph-name="one" unicode="1" horiz-adv-x="500" 
d="M287 0h-87l140 564h-127l14 54q69 8 120.5 16.5t103.5 21.5z" />
    <glyph glyph-name="two" unicode="2" horiz-adv-x="500" 
d="M467 67l-18 -67h-428l18 69q14 13 36.5 33t54.5 48q29 25 54.5 46.5t47.5 39.5l56 46q37 29 62.5 51.5t40.5 37.5q69 67 69 137q0 49 -32 73q-28 20 -70 20q-46 0 -74.5 -21t-44.5 -56q-3 -8 -6 -17.5t-7 -21.5q-2 -5 -4 -16.5t-6 -28.5h-86q15 92 50 140q57 75 182 75
q69 0 115 -25q72 -38 72 -127q0 -54 -28 -100q-34 -55 -141 -143l-43 -35q-62 -48 -96 -75q-28 -23 -53.5 -43.5t-48.5 -39.5h328z" />
    <glyph glyph-name="three" unicode="3" horiz-adv-x="500" 
d="M146 494q5 21 11 37t12 27q21 38 60 64q50 33 128 33q75 0 121 -31q56 -38 56 -113q0 -49 -23.5 -90t-68.5 -66q-15 -8 -33.5 -14t-43.5 -10q16 -3 28.5 -7t28.5 -13q38 -23 53 -59q11 -27 11 -59q0 -83 -61 -141q-39 -36 -90 -49q-36 -10 -84 -10t-82.5 9.5t-61.5 30.5
q-32 26 -45 65q-8 27 -8 58l2 22h84v-32q2 -18 10.5 -37.5t25.5 -33.5q31 -25 81 -25q24 0 44 5q39 11 61 39q16 19 25.5 48.5t9.5 55.5q0 49 -28 76q-23 22 -60 29q-8 1 -15.5 2t-17.5 2t-23.5 1h-32.5h-16l14 56h50q24 0 42 1.5t30 3.5q45 9 70 37q17 19 26.5 48t9.5 55
q0 45 -23.5 69t-69.5 24q-60 0 -93 -42q-17 -21 -30 -66h-84z" />
    <glyph glyph-name="four" unicode="4" horiz-adv-x="500" 
d="M434 212h72l-17 -66h-72l-38 -146h-84l38 146h-278l13 49q18 26 41 59t51 75q25 37 51 77t54 83q32 49 56.5 88.5t43.5 70.5h98q-32 -50 -65 -99t-65 -99q-25 -37 -46 -68t-38 -56q-11 -17 -32 -45.5t-51 -68.5h184l61 235l85 7z" />
    <glyph glyph-name="five" unicode="5" horiz-adv-x="500" 
d="M558 648l-18 -70h-270l-53 -181q19 15 42 24q36 15 78 15q33 0 62 -9.5t49 -25.5q32 -28 44 -69q7 -24 7 -61q0 -49 -13.5 -97.5t-40.5 -86.5q-38 -53 -93 -75q-45 -19 -106 -19q-37 0 -70.5 8.5t-58.5 27.5q-30 24 -41 59q-7 21 -7 56q0 8 0.5 14.5t1.5 11.5h81l-1 -17
q0 -62 36 -87q25 -18 62 -18q75 0 117 63q46 67 46 161q0 43 -16 68q-25 40 -83 40q-39 0 -70 -19.5t-53 -65.5h-73l102 353h339z" />
    <glyph glyph-name="six" unicode="6" horiz-adv-x="500" 
d="M573 485h-85l2 30q0 28 -11 48q-12 17 -33 28t-55 11q-60 0 -100 -43q-39 -42 -83 -198q24 20 48 31q40 18 89 18q50 0 87 -19q32 -17 48 -41q13 -19 18.5 -42t5.5 -50q0 -36 -14 -89q-7 -25 -14.5 -45.5t-17.5 -36.5q-35 -56 -92 -78q-39 -16 -95 -16q-29 0 -57 5
q-40 7 -69 29q-33 24 -46 56.5t-13 78.5q0 21 3 45t8 52t14.5 64.5t22.5 84.5q12 39 24.5 72t30.5 61q38 63 88 88.5t116 25.5q70 0 115 -24q67 -36 67 -117zM419 260q0 47 -26.5 73t-74.5 26q-70 0 -110 -58q-40 -56 -40 -145q0 -26 3.5 -41t10.5 -26q13 -22 36 -33t51 -11
q66 0 103 52q9 13 17.5 32.5t15 41t10.5 45t4 44.5z" />
    <glyph glyph-name="seven" unicode="7" horiz-adv-x="500" 
d="M561 648l-15 -62l-352 -586h-101q38 60 70 111t60 96q64 103 102 165q14 23 45 74.5t80 132.5h-332l18 69h425z" />
    <glyph glyph-name="eight" unicode="8" horiz-adv-x="500" 
d="M391 339l18 -4q51 -15 70 -51q15 -27 15 -69q0 -37 -11 -75t-32 -66q-37 -51 -100 -70q-38 -11 -85 -11q-51 0 -83 9t-55 26q-34 23 -46.5 54.5t-12.5 67.5q0 54 21 99t57 71q23 17 49 24t48 7q-37 10 -55 25q-34 28 -34 89q0 67 41 120q55 70 166 70q33 0 61.5 -4.5
t58.5 -20.5q31 -15 48.5 -41.5t17.5 -71.5q0 -39 -15 -75q-19 -49 -56 -75q-24 -17 -64 -25zM466 522q0 46 -35 69q-25 16 -61 16q-17 0 -30 -2.5t-29 -9.5q-33 -17 -53 -54.5t-20 -83.5q0 -86 93 -86q42 0 65.5 12t39.5 35q6 9 11.5 22t9.5 27.5t6.5 28.5t2.5 26zM408 229
q0 16 -2.5 27t-9.5 22q-13 19 -36.5 30t-57.5 11q-38 0 -61 -10q-32 -13 -55 -48q-16 -24 -23.5 -57.5t-7.5 -57.5q0 -51 29.5 -76.5t78.5 -25.5q39 0 67 14.5t47 49.5q31 52 31 121z" />
    <glyph glyph-name="nine" unicode="9" horiz-adv-x="500" 
d="M52 163h85l-1 -23q0 -35 12 -54q13 -20 35.5 -29.5t49.5 -9.5q75 0 119 66q30 47 65 175q-26 -21 -49 -32q-41 -18 -90 -18q-59 0 -99 26q-33 21 -46 55t-13 74q0 42 12.5 87.5t34.5 80.5q34 55 91 78q38 16 95 16q31 0 64 -6.5t63 -29.5q31 -22 44.5 -55.5t13.5 -81.5
q0 -47 -20 -138q-5 -22 -12 -47.5t-15 -56.5q-19 -65 -42.5 -111.5t-54 -76.5t-69.5 -44.5t-90 -14.5q-80 0 -127 29q-58 36 -58 113zM206 388q0 -20 5 -41.5t34 -40.5q26 -17 62 -17q25 0 45 7q30 11 50 31q30 32 45 91q11 46 11 80q0 36 -14 62q-11 17 -28 28
q-25 16 -60 16q-72 0 -111 -63t-39 -153z" />
    <glyph glyph-name="colon" unicode=":" horiz-adv-x="250" 
d="M196 93l-24 -93h-97l24 93h97zM302 500l-25 -92h-97l24 92h98z" />
    <glyph glyph-name="semicolon" unicode=";" horiz-adv-x="250" 
d="M174 0l-89 -132h-55l89 132h-47l23 88h102zM298 500l-25 -92h-97l24 92h98z" />
    <glyph glyph-name="less" unicode="&#x3c;" horiz-adv-x="667" 
d="M714 61v-64l-667 322v70l667 320v-64l-600 -291z" />
    <glyph glyph-name="equal" unicode="=" horiz-adv-x="667" 
d="M714 231v-58h-667v58h667zM714 408v-59h-667v59h667z" />
    <glyph glyph-name="greater" unicode="&#x3e;" horiz-adv-x="667" 
d="M714 319l-667 -322v64l600 293l-600 291v64l667 -320v-70z" />
    <glyph glyph-name="question" unicode="?" horiz-adv-x="479" 
d="M252 164h-73l34 131q55 0 91 10q53 13 91 51q23 24 37 60t14 73q0 54 -27.5 83t-72.5 29q-44 0 -70 -25q-28 -25 -50 -109h-83q18 85 46 122q49 66 155 66q87 0 139.5 -41.5t52.5 -121.5q0 -63 -30.5 -115.5t-90.5 -87.5q-33 -20 -78 -33q-14 -4 -30 -8t-35 -8zM153 91
h98l-24 -91h-97z" />
    <glyph glyph-name="at" unicode="@" horiz-adv-x="896" 
d="M864 34q-78 -76 -170 -117t-195 -41q-154 0 -260 84q-123 97 -123 273q0 190 129 331q135 148 332 148q134 0 216 -77q81 -77 81 -210q0 -135 -71 -245q-70 -109 -157 -109q-31 0 -51 16t-24.5 34t-4.5 32v11q-32 -45 -71 -68.5t-79 -23.5q-54 0 -89 38q-39 43 -39 121
q0 112 63 198t146 86q45 0 73 -23.5t46 -71.5l17 72h58l-32 -147q-9 -44 -15 -73.5t-9 -45.5q-2 -16 -3.5 -29.5t-1.5 -24.5q0 -52 36 -52q52 0 104 91q58 98 58 212q0 122 -76 186q-70 59 -179 59q-169 0 -291 -131q-120 -131 -120 -303q0 -155 106 -240q92 -74 230 -74
q71 0 142 23q55 18 108 51q31 19 53 38q10 9 36 33zM595 347q0 57 -26.5 86t-63.5 29q-66 0 -109 -76q-40 -67 -40 -151q0 -48 22 -78.5t65 -30.5q53 0 97 54q25 31 40 81q15 49 15 86z" />
    <glyph glyph-name="A" unicode="A" horiz-adv-x="646" 
d="M545 707l79 -707h-92l-29 271h-259l-169 -271h-96l452 707h114zM286 337h210l-23 220l-6 70l-34 -57z" />
    <glyph glyph-name="B" unicode="B" horiz-adv-x="604" 
d="M55 0l182 706h187q40 0 73 -5t62 -21q40 -22 57 -62q12 -29 12 -62q0 -51 -22 -91q-18 -32 -51 -58q-8 -6 -17.5 -11.5t-20.5 -10.5q-15 -8 -34 -12q64 -20 92 -66q25 -38 25 -92q0 -58 -28 -105.5t-74 -74.5q-37 -21 -79 -28t-90 -7h-274zM234 336l-71 -271h106h74
q48 2 82.5 17t58.5 48q28 37 28 88q0 54 -31 84q-22 20 -57 29q-12 2 -31.5 3.5t-45.5 1.5h-45h-68zM313 643l-63 -243h66h46t37 2t32.5 6t31.5 12q33 17 55 50.5t22 76.5q0 16 -2.5 29t-11.5 26q-19 27 -52 34q-16 4 -43.5 5.5t-66.5 1.5h-51z" />
    <glyph glyph-name="C" unicode="C" horiz-adv-x="625" 
d="M649 210q-14 -42 -31.5 -74.5t-39.5 -55.5q-83 -90 -228 -90q-58 0 -105.5 15t-78.5 42q-38 32 -55 81q-12 36 -12 83q0 91 36 210q43 146 115 216q49 48 113 67q42 13 102 13q117 0 176 -53t59 -147l-2 -32h-91l2 35q0 39 -12 68q-8 19 -22 34q-34 37 -107 37
q-67 0 -111 -31q-36 -25 -68 -79q-35 -59 -65 -169q-29 -111 -29 -175q0 -31 5 -53q9 -36 35 -62q17 -17 45.5 -29t66.5 -12q87 0 143 59q31 32 62 102h97z" />
    <glyph glyph-name="D" unicode="D" horiz-adv-x="688" 
d="M54 0l183 707h195q58 0 101.5 -6t79.5 -25q51 -26 78.5 -76.5t27.5 -128.5q0 -71 -22 -158q-23 -90 -58 -150q-60 -104 -159 -140q-64 -23 -175 -23h-251zM316 642l-150 -579h112q111 0 162 20q72 28 120 120q30 57 48 135q19 77 19 140q0 31 -4 48q-15 71 -77 100
q-23 10 -51 13t-81 3h-98z" />
    <glyph glyph-name="E" unicode="E" 
d="M509 68l-18 -68h-437l183 706h389l-18 -68h-292l-61 -236h286l-18 -68h-286l-68 -266h340z" />
    <glyph glyph-name="F" unicode="F" horiz-adv-x="479" 
d="M232 313l-81 -314h-97l183 707h387l-18 -68h-290l-66 -258h283l-17 -67h-284z" />
    <glyph glyph-name="G" unicode="G" horiz-adv-x="688" 
d="M417 354h275l-98 -354h-85l19 58l-20 -21q-56 -47 -166 -47q-111 0 -172 48q-71 56 -71 171q0 69 25 162q11 42 23.5 77.5t26.5 66.5q19 42 40.5 72.5t44.5 52.5q82 76 214 76q43 0 82.5 -7.5t77.5 -32.5q45 -27 62.5 -65t17.5 -89l-3 -40h-87l2 29q0 14 -1.5 30t-7.5 33
q-14 42 -51.5 62t-86.5 20q-60 0 -101 -24t-76 -73q-44 -62 -75 -177q-32 -116 -32 -181q0 -30 5 -52q9 -38 35 -62q8 -7 16.5 -12.5t16.5 -9.5q33 -16 86 -16q54 0 98 18q58 24 87 75q17 30 43 120l6 25h-189z" />
    <glyph glyph-name="H" unicode="H" horiz-adv-x="646" 
d="M732 706l-183 -706h-96l88 338h-302l-87 -338h-98l183 706h97l-79 -303h302l79 303h96z" />
    <glyph glyph-name="I" unicode="I" horiz-adv-x="250" 
d="M336 706l-187 -706h-95l183 706h99z" />
    <glyph glyph-name="J" unicode="J" horiz-adv-x="417" 
d="M407 707h97l-121 -467q-10 -35 -15 -54.5t-6 -21.5q-10 -35 -24 -62q-28 -54 -76 -83t-117 -29q-34 0 -70 7t-76 28l27 68q31 -16 59.5 -26t55.5 -10q57 0 89 39q17 21 34 69q5 13 10.5 32.5t12.5 47.5q4 13 7 26t7 26z" />
    <glyph glyph-name="K" unicode="K" horiz-adv-x="583" 
d="M740 706l-336 -288l198 -418h-102l-166 360l-119 -104l-67 -256h-94l183 706h94l-87 -333l380 333h116z" />
    <glyph glyph-name="L" unicode="L" horiz-adv-x="500" 
d="M496 69l-18 -69h-424l183 706h97l-165 -637h327z" />
    <glyph glyph-name="M" unicode="M" horiz-adv-x="854" 
d="M940 707l-182 -707h-91l129 500l45 171l-88 -155l-300 -516h-90l-37 498q0 16 -1 36.5t-3 46.5q-3 51 -3 90l-46 -168l-136 -503h-83l195 707h149l33 -517l4 -83q10 20 16 32.5t9 18.5q6 11 11 20t10 17l296 512h163z" />
    <glyph glyph-name="N" unicode="N" horiz-adv-x="667" 
d="M753 706l-183 -706h-99l-145 463q-7 23 -12 41.5t-9 31.5q-6 27 -15 66l-26 -114l-126 -488h-84l187 706h98l146 -478q10 -38 21 -78l8.5 -34l5.5 -22q10 53 18 85q3 13 18 75l116 452h81z" />
    <glyph glyph-name="O" unicode="O" horiz-adv-x="688" 
d="M704 336q-11 -48 -23.5 -86t-25.5 -68q-46 -106 -119.5 -149t-174.5 -43q-114 0 -180 48q-79 57 -79 177q0 32 6 71t17 87q10 41 21 75t23 63q44 102 112 151q76 55 196 55q60 0 104 -13.5t77 -40.5q42 -34 59 -85q11 -36 11 -82q0 -15 -1 -30.5t-3.5 -34t-7.5 -42
t-12 -53.5zM606 349q11 42 18 81t7 78q0 25 -3.5 43.5t-12.5 36.5q-14 22 -33 39q-42 33 -106 33q-48 0 -86.5 -17t-70.5 -55q-53 -64 -89 -199q-30 -113 -30 -184q0 -64 27 -100q20 -29 55 -42.5t77 -13.5q103 0 162 80q44 60 85 220z" />
    <glyph glyph-name="P" unicode="P" horiz-adv-x="542" 
d="M222 271l-70 -271h-98l183 706h156q80 0 120 -8q39 -8 73 -37q30 -27 42 -67q8 -29 8 -64q0 -69 -28 -126t-70.5 -87t-100.5 -40q-35 -6 -98 -6h-117zM317 641l-79 -305h79h17q19 0 43.5 0.5t48.5 9.5q66 22 96 90q20 48 20 93q0 75 -55 100q-16 7 -40 9.5t-73 2.5h-57z
" />
    <glyph glyph-name="Q" unicode="Q" horiz-adv-x="688" 
d="M597 -103q-4 30 -10.5 44.5t-22.5 31.5q-15 16 -36.5 27t-43.5 11l-16 -6q-50 -15 -114 -15q-51 0 -98.5 12t-80.5 38q-45 34 -64 94q-11 38 -11 82q0 85 36 205q42 140 100 202q51 57 130 80q51 14 110 14q110 0 171 -43q49 -34 69 -95q11 -36 11 -85q0 -34 -5 -72
t-15 -83q-12 -52 -28.5 -97t-36.5 -85q-10 -19 -21 -35t-22 -30q-13 -16 -36 -37q68 -18 96 -58q25 -34 31 -100h-93zM633 507q0 70 -36 109q-40 43 -119 43q-94 0 -152 -63q-45 -48 -76 -138q-11 -29 -20 -62t-17 -68t-12 -67t-4 -60t5 -50q9 -35 35 -61q16 -17 39 -27
q34 -15 79 -15q83 0 139 53q52 51 89 155q10 26 18 57t16 66t12 67t4 61z" />
    <glyph glyph-name="R" unicode="R" horiz-adv-x="604" 
d="M565 122q4 -24 6.5 -39.5t4.5 -22.5q7 -33 27 -60h-100q-13 17 -18.5 39t-9.5 53l-5 37q-5 34 -10 64.5t-12 47.5q-19 46 -56 57q-36 12 -115 12h-47l-80 -310h-96l183 706h190q43 0 78 -5t63 -21q47 -27 65 -75q10 -26 10 -63q0 -58 -23.5 -102.5t-68.5 -73.5
q-13 -8 -26 -14.5t-26 -10.5t-43 -8q49 -10 72 -52q20 -35 30 -116zM316 642l-69 -266h87q55 0 78 3q63 6 98.5 48t38.5 109q0 17 -3.5 33t-11.5 29q-19 28 -48 35.5t-72 7.5l-52 1h-46z" />
    <glyph glyph-name="S" unicode="S" horiz-adv-x="542" 
d="M294 347q-56 34 -81 63q-46 52 -46 120t40.5 117t120.5 64q31 6 70 6q92 0 148 -38q63 -44 63 -131l-3 -29h-86l1 26q0 65 -44 95q-31 22 -79 22q-66 0 -105 -40q-34 -34 -34 -81q0 -43 33 -77q21 -21 75 -54l33 -19q70 -43 95 -72q46 -52 46 -128q0 -81 -55 -136
q-65 -65 -182 -65q-29 0 -52.5 2.5t-56.5 11.5q-53 14 -82 37q-56 44 -56 125q0 19 1 27.5t4 18.5l88 -6l-3 -35q0 -66 51 -97q41 -26 101 -26q73 0 114 45q33 37 33 87q0 47 -28 81q-12 14 -31.5 28t-58.5 38z" />
    <glyph glyph-name="T" unicode="T" horiz-adv-x="479" 
d="M440 637l-165 -637h-98l165 637h-211l18 69h499l-18 -69h-190z" />
    <glyph glyph-name="U" unicode="U" horiz-adv-x="667" 
d="M668 706h86l-125 -481q-23 -75 -39 -108q-32 -59 -85 -90q-64 -37 -172 -37q-51 0 -87.5 7.5t-67.5 24.5q-43 25 -61 65q-13 27 -13 67q0 14 1.5 27.5t3.5 27.5l14 62l112 435h98l-108 -415q-11 -45 -17 -75.5t-6 -51.5q0 -18 3.5 -34t13.5 -29q14 -21 48 -34.5t79 -13.5
q28 0 50.5 4t44.5 16q48 25 75 81q9 19 20 52.5t24 83.5z" />
    <glyph glyph-name="V" unicode="V" horiz-adv-x="562" 
d="M721 706l-407 -706h-120l-36 706h97l20 -551l1 -79l33 59l316 571h96z" />
    <glyph glyph-name="W" unicode="W" horiz-adv-x="833" 
d="M991 706l-333 -706h-142l12 455q0 42 3.5 68t5.5 44q-18 -43 -29 -67q-1 -2 -6 -12.5t-14 -29.5l-227 -458h-142l39 706h93l-37 -561l-7 -87l52 103l269 545h90l-12 -511l-4 -137l59 126l241 522h89z" />
    <glyph glyph-name="X" unicode="X" horiz-adv-x="562" 
d="M412 375l145 -375h-98l-85 226l-28 72l-55 -63l-208 -235h-106l339 375l-129 331h98l98 -256l225 256h101z" />
    <glyph glyph-name="Y" unicode="Y" 
d="M357 259l-67 -259h-93l68 259l-126 447h99l74 -287l20 -74l55 74l214 287h99z" />
    <glyph glyph-name="Z" unicode="Z" horiz-adv-x="562" 
d="M567 70l-18 -70h-549l17 65l515 574h-377l18 67h493l-17 -67l-512 -569h430z" />
    <glyph glyph-name="bracketleft" unicode="[" horiz-adv-x="292" 
d="M29 -141l220 847h205l-13 -54h-129l-192 -739h129l-14 -54h-206z" />
    <glyph glyph-name="backslash" unicode="\" horiz-adv-x="417" 
d="M167 706h74l149 -706h-74z" />
    <glyph glyph-name="bracketright" unicode="]" horiz-adv-x="292" 
d="M362 706l-219 -847h-206l13 54h129l193 739h-129l13 54h206z" />
    <glyph glyph-name="asciicircum" unicode="^" horiz-adv-x="729" 
d="M446 706l175 -356h-77l-131 274l-134 -274h-76l180 356h63z" />
    <glyph glyph-name="underscore" unicode="_" horiz-adv-x="500" 
d="M510 -75v-50h-521v50h521z" />
    <glyph glyph-name="grave" unicode="`" horiz-adv-x="271" 
d="M148 694l65 -135h-64l-92 135h91z" />
    <glyph glyph-name="a" unicode="a" horiz-adv-x="479" 
d="M431 0h-58q-27 0 -36.5 10.5t-9.5 41.5q-55 -61 -144 -61q-29 -2 -54 7.5t-42 26.5t-26 40t-7 47q0 85 67 131q48 33 270 59l9 32q5 23 7 32t2 22q0 72 -86 72q-23 0 -45 -6.5t-44 -27.5q-15 -15 -24 -35q-5 -9 -12 -36h-84q4 16 8.5 30t10.5 25q19 38 55 63
q52 36 141 36q67 0 110 -23q55 -30 55 -93q0 -9 -0.5 -15t-1.5 -10t-2.5 -12t-4.5 -21l-62 -242q-4 -15 -6.5 -27t-2.5 -22q0 -17 8 -25q6 -6 13 -7zM380 255q-22 0 -46.5 -2.5t-50.5 -7.5t-47 -11.5t-35 -14.5q-59 -32 -59 -102q0 -31 17.5 -51.5t54.5 -20.5q31 0 58 13
q30 14 45.5 29.5t23.5 32.5q2 6 6.5 19t10.5 33z" />
    <glyph glyph-name="b" unicode="b" 
d="M128 0h-86l183 706h86l-68 -265q38 36 79 52t80 16q80 0 113 -57q22 -37 22 -98q0 -53 -17 -123q-25 -98 -75 -160q-66 -80 -166 -80q-32 0 -62.5 7.5t-53.5 29.5q-8 6 -21 23zM169 157q-6 -27 -7.5 -34t-1.5 -9q0 -21 23 -44q31 -29 78 -29q55 0 95 43q27 30 47 76
q8 19 16 42.5t15 52.5q15 58 15 103q0 33 -7.5 52.5t-19.5 30t-26.5 14t-28.5 3.5q-68 0 -120 -64q-7 -9 -14 -19t-13 -20z" />
    <glyph glyph-name="c" unicode="c" horiz-adv-x="479" 
d="M481 153q-5 -17 -9 -29t-9 -22t-12 -19t-16 -20q-30 -34 -72.5 -53t-102.5 -19q-39 0 -73.5 9.5t-59.5 29.5q-33 27 -46 73q-7 24 -7 57q0 65 24 145q13 40 30.5 72.5t40.5 57.5q41 45 91 62q34 12 81 12q32 0 62 -6.5t54 -21.5q60 -41 60 -115l-3 -36h-81l3 33
q0 47 -28 72q-23 22 -63 22q-42 0 -73 -21q-11 -8 -22 -19.5t-21 -25.5q-24 -37 -46 -107q-21 -69 -21 -125q0 -28 6 -47q10 -36 43 -56q23 -13 55 -13q52 0 83 31q27 27 46 79h86z" />
    <glyph glyph-name="d" unicode="d" 
d="M618 706l-182 -706h-86l13 47q-14 -11 -27 -20t-25 -15q-44 -21 -93 -21q-62 0 -100 34q-47 41 -47 123q0 117 55 220q75 141 217 141q49 0 86 -17q10 -5 20 -12t21 -17l63 243h85zM458 416l-11 12q-32 32 -84 32q-94 0 -154 -118q-50 -98 -50 -195q0 -46 20.5 -75.5
t65.5 -29.5q18 0 33 4t32 13q42 23 64 59q12 21 24 65z" />
    <glyph glyph-name="e" unicode="e" horiz-adv-x="500" 
d="M487 147q-5 -11 -9 -21.5t-9 -18.5q-16 -28 -33 -47q-38 -41 -91 -57q-39 -12 -85 -12q-44 0 -69 7q-39 10 -69.5 36t-42.5 68q-7 22 -7 58q0 64 27 148q29 86 71 131q39 42 91 58q37 12 82 12q76 0 121 -33q55 -40 55 -126q0 -21 -3.5 -48t-12.5 -57h-334
q-6 -20 -9.5 -43.5t-3.5 -43.5q0 -64 37 -92q28 -22 73 -22q63 0 101 41q10 11 18.5 26.5t15.5 35.5h86zM431 301q9 31 9 60q0 48 -26.5 73.5t-68.5 25.5q-68 0 -111 -58q-26 -33 -49 -101h246z" />
    <glyph glyph-name="f" unicode="f" horiz-adv-x="292" 
d="M282 452l-117 -452h-86l117 452h-79l12 48h79l19 74q16 60 40 90q40 51 116 51q31 0 52 -7q7 -2 15 -5.5t18 -8.5l-14 -53q-12 5 -28 10.5t-28 5.5q-42 0 -64 -36q-14 -23 -27 -74l-12 -47h94l-12 -48h-95z" />
    <glyph glyph-name="g" unicode="g" 
d="M481 501h85l-129 -498q-30 -101 -64 -141q-60 -69 -185 -69q-68 0 -114 26q-29 18 -43 42q-7 12 -10 31t-3 34v19h91v-25.5t2 -18.5q9 -32 40 -47q25 -11 53 -11q63 0 101 50q20 26 37 79q4 13 7.5 24t6.5 22q2 9 12 47q-17 -14 -30.5 -23.5t-24.5 -14.5q-42 -20 -91 -20
q-25 0 -39.5 3t-32.5 11q-35 17 -54 46q-24 37 -24 99q0 109 57 210q77 134 213 134q43 0 73.5 -12t55.5 -35zM458 414q-19 28 -53 39q-20 7 -43 7q-97 0 -155 -117q-47 -94 -47 -185q0 -99 88 -99q51 0 98 38q28 22 40 51q4 10 10.5 32.5t15.5 57.5z" />
    <glyph glyph-name="h" unicode="h" 
d="M436 0h-85l73 282q9 35 15 61.5t6 44.5q0 39 -28 55q-20 11 -45 11q-23 0 -47 -8t-44.5 -21t-35.5 -29.5t-21 -32.5q-7 -15 -20 -67l-76 -296h-86l183 707h85l-68 -264q40 28 66 41q55 26 110 26q48 0 79 -23q36 -27 36 -83q0 -27 -10 -68q-2 -11 -5.5 -24t-7.5 -27z" />
    <glyph glyph-name="i" unicode="i" horiz-adv-x="208" 
d="M255 500l-130 -500h-85l130 500h85zM305 695l-22 -84h-85l22 84h85z" />
    <glyph glyph-name="j" unicode="j" horiz-adv-x="208" 
d="M170 500h85l-122 -474q-33 -120 -62 -165q-47 -69 -137 -69h-14.5t-11 1t-12.5 2.5t-18 4.5l17 58q8 -1 15 -2.5t19 -1.5q49 0 75 42q18 31 46 137zM306 695l-22 -83h-85l22 83h85z" />
    <glyph glyph-name="k" unicode="k" horiz-adv-x="479" 
d="M335 309l150 -309h-95l-121 257l-99 -86l-44 -171h-84l183 706h83l-112 -431l264 225h100z" />
    <glyph glyph-name="l" unicode="l" horiz-adv-x="208" 
d="M307 706l-181 -706h-85l181 706h85z" />
    <glyph glyph-name="m" unicode="m" horiz-adv-x="792" 
d="M707 0h-85l79 306q4 13 9 42q6 28 6 41q0 29 -18 46t-52 17q-26 0 -54 -12t-48 -32q-10 -10 -17 -21t-12 -22t-11 -31.5t-14 -49.5l-73 -284h-85l77 298q4 18 10.5 43.5t6.5 45.5q0 27 -14 44q-18 22 -54 22q-54 0 -100 -43q-22 -19 -33 -43q-3 -8 -8 -24.5t-12 -42.5
l-77 -300h-86l129 500h86l-15 -58q33 30 75 48.5t85 18.5q42 0 71 -17.5t39 -60.5q14 14 28.5 24.5t34.5 21.5q59 32 116 32q47 0 78 -23q35 -27 35 -81q0 -28 -17 -94z" />
    <glyph glyph-name="n" unicode="n" horiz-adv-x="500" 
d="M418 0h-85l77 296q5 19 11.5 46.5t6.5 45.5q0 25 -13 41q-20 24 -58 24q-55 0 -101 -43q-18 -16 -28 -38q-10 -21 -23 -70l-78 -302h-85l129 500h86l-15 -58q18 14 33.5 25t29.5 18q46 24 96 24q60 0 90 -34q24 -29 24 -69q0 -28 -9 -68q-4 -14 -6.5 -24.5t-4.5 -17.5z
" />
    <glyph glyph-name="o" unicode="o" 
d="M524 248q-27 -132 -90 -194.5t-169 -62.5q-88 0 -140 44.5t-52 129.5q0 65 22 137t67 125q31 37 75 58q51 25 120 25q65 0 108 -28q28 -18 46 -46q13 -20 18.5 -45t5.5 -55q0 -20 -3 -43.5t-8 -44.5zM441 259q6 31 8.5 49.5t2.5 42.5q0 62 -40 89q-26 18 -63 18
q-25 0 -49 -8q-39 -15 -70 -53q-35 -44 -54 -124q-16 -63 -16 -114q0 -33 7 -51q10 -31 41 -49q11 -7 26 -11t34 -4q65 0 106 50q25 29 41 78q5 14 13 40.5t13 46.5z" />
    <glyph glyph-name="p" unicode="p" 
d="M75 -206h-86l183 706h86l-15 -57q38 30 79 48t84 18q53 0 88 -29q45 -38 45 -120q0 -69 -26 -155q-26 -85 -65 -133q-36 -45 -81 -64q-42 -17 -89 -17q-57 0 -95 22q-21 12 -42 36zM172 168q-1 -3 -2.5 -9.5t-3.5 -16.5q-4 -17 -4 -25q0 -17 8 -31t22 -24.5t31.5 -16.5
t37.5 -6q47 0 85 33q19 16 39 51q16 27 28 58.5t22 68.5q16 61 16 108q0 58 -33 84q-20 16 -50 16q-42 0 -82 -31q-58 -43 -67 -75z" />
    <glyph glyph-name="q" unicode="q" 
d="M480 500h85l-182 -706h-86l65 252q-33 -28 -70 -41.5t-74 -13.5q-57 0 -95 29q-52 40 -52 128q0 64 22 136q29 96 82 152q67 73 166 73q37 0 67 -10q11 -3 20.5 -7.5t17.5 -9.5q6 -4 12 -9l12 -10zM458 416q-33 43 -93 43q-44 0 -80 -24q-12 -8 -24 -19.5t-23 -27.5
q-19 -25 -33.5 -55t-25.5 -65q-21 -71 -21 -120q0 -51 23 -78.5t65 -27.5q30 0 61 14q43 21 66 60q16 27 23 62z" />
    <glyph glyph-name="r" unicode="r" horiz-adv-x="313" 
d="M127 0h-85l129 500h86l-23 -78q29 35 53 53q40 31 83 31q14 0 19.5 -1t22.5 -9l-24 -75q-12 8 -26 14t-30 6q-22 0 -41 -10q-31 -16 -56 -59q-12 -21 -20.5 -44.5t-15.5 -51.5z" />
    <glyph glyph-name="s" unicode="s" horiz-adv-x="417" 
d="M207 249q-19 13 -33 24t-22 21q-29 35 -29 79q0 55 37 92q44 44 129 44q23 0 33.5 -1.5t30.5 -6.5q53 -14 77 -48q20 -29 20 -66l-2 -27l-73 4l2 22q0 19 -7.5 33t-20 23t-28.5 13t-34 4q-36 0 -59.5 -18.5t-23.5 -49.5q0 -29 22 -51q12 -12 56 -42l36 -23q43 -28 60 -50
q28 -34 28 -81q0 -64 -44 -108q-29 -29 -75 -39q-26 -6 -60 -6q-91 0 -138.5 38.5t-47.5 101.5l3 30l81 -5l-1 -18q0 -48 30 -72.5t75 -24.5q48 0 74 27q22 22 22 56q0 35 -26 61q-18 17 -61 43z" />
    <glyph glyph-name="t" unicode="t" horiz-adv-x="292" 
d="M271 452l-76 -292q-3 -11 -7.5 -31t-4.5 -31q0 -50 55 -50q18 0 30 3.5t26 10.5l-15 -58q-18 -6 -32.5 -9.5t-41.5 -3.5q-45 0 -73 18q-22 14 -29 32.5t-7 38.5q0 26 15 82l75 290h-82l12 48h82l28 107l88 11l-31 -118h95l-12 -48h-95z" />
    <glyph glyph-name="u" unicode="u" 
d="M562 500l-129 -500h-86l15 57q-80 -66 -172 -66q-57 0 -85 25q-33 28 -33 80q0 20 4.5 43t11.5 50l80 311h85l-84 -324q-6 -24 -8 -34t-2 -26q0 -35 21 -51.5t55 -16.5q36 0 70 16.5t54 40.5q7 8 12.5 18t10.5 23q4 10 7.5 22.5t8.5 28.5l79 303h85z" />
    <glyph glyph-name="v" unicode="v" horiz-adv-x="417" 
d="M515 500l-295 -500h-87l-36 500h85l19 -347v-70l33 63l202 354h79z" />
    <glyph glyph-name="w" unicode="w" horiz-adv-x="688" 
d="M783 500l-272 -500h-92l-4 323v66l-34 -69l-173 -320h-92l-17 500h85l6 -372v-46l17 36l202 382h80l2 -360l-1 -58l29 58l187 360h77z" />
    <glyph glyph-name="x" unicode="x" horiz-adv-x="437" 
d="M306 259l105 -259h-92l-78 197l-177 -197h-87l240 259l-95 241h90l71 -178l157 178h80z" />
    <glyph glyph-name="y" unicode="y" horiz-adv-x="417" 
d="M431 501h82l-286 -533q-16 -27 -33 -56.5t-27 -42.5q-22 -31 -44 -47q-41 -29 -90 -29q-15 0 -35.5 3.5t-44.5 12.5l20 64q19 -8 32.5 -12t28.5 -4q24 0 43.5 12t38.5 43q26 43 26 85q0 9 -1 22.5t-4 48.5l-41 433h86l26 -355q0 -20 0.5 -33t1 -22t1 -16t0.5 -14
q7 21 17 41.5t19 38.5z" />
    <glyph glyph-name="z" unicode="z" horiz-adv-x="437" 
d="M413 59l-16 -59h-397l17 53l369 390h-263l14 57h364l-14 -57l-366 -384h292z" />
    <glyph glyph-name="braceleft" unicode="{" horiz-adv-x="354" 
d="M124 303q25 10 32 16q15 12 26 38q7 17 9 43t2 76q0 73 3 108q5 35 19 58q12 20 25 32.5t30 20t39 10t52 2.5v-36q-61 -16 -78 -56q-13 -29 -13 -114q0 -118 -14 -160q-13 -38 -66 -58q51 -18 65 -59q15 -41 15 -159q0 -85 12 -113q16 -40 79 -57v-36q-30 0 -52 2.5
t-39 9.5t-30 19.5t-25 33.5q-14 23 -19 58q-3 33 -3 108q0 90 -11 117t-26 39q-11 10 -32 17v40z" />
    <glyph glyph-name="bar" unicode="|" horiz-adv-x="229" 
d="M192 750v-1000h-60v1000h60z" />
    <glyph glyph-name="braceright" unicode="}" horiz-adv-x="354" 
d="M365 263q-25 -10 -32 -16q-15 -12 -26 -38q-7 -17 -9 -43t-2 -76q0 -37 -1 -64t-3 -44q-3 -34 -18 -58q-22 -40 -58 -54q-30 -11 -88 -11v36q61 16 78 56q13 29 13 114q0 121 13 159q13 39 67 59q-51 18 -66 59q-14 42 -14 159q0 84 -12 113q-16 40 -79 57v36
q30 0 52 -2.5t39 -9.5t30 -19.5t25 -33.5q15 -24 18 -58q2 -17 3 -43.5t1 -64.5q0 -93 10 -117q10 -26 27 -39q11 -10 32 -17v-40z" />
    <glyph glyph-name="asciitilde" unicode="~" horiz-adv-x="729" 
d="M642 301q-14 -18 -28 -31.5t-27 -22.5q-35 -23 -73 -23q-32 0 -97 31l-28 14q-56 25 -84 25q-32 0 -55 -23q-11 -11 -36 -42l-33 54q50 80 123 80q25 0 58 -11q14 -5 55 -24l32 -15q25 -11 39 -15.5t26 -4.5q29 0 55 20q18 15 42 43z" />
    <glyph glyph-name="quotesinglbase" unicode="&#x201a;" horiz-adv-x="208" 
d="M133 0l-89 -132h-56l90 132h-48l23 88h103z" />
    <glyph glyph-name="florin" unicode="&#x192;" horiz-adv-x="437" 
d="M256 393h-79l13 48h78l20 74q16 62 38 90q40 51 117 51q31 0 52 -7q7 -2 15 -5.5t18 -8.5l-14 -53q-18 8 -30 12t-28 4q-37 0 -57 -26q-11 -16 -26 -63l-18 -68h94l-12 -48h-95l-107 -409q-20 -65 -41 -92q-39 -49 -113 -49q-18 0 -27.5 1.5t-29.5 6.5l14 54q16 -4 29 -4
q19 0 38 10t35 50q4 11 11.5 35.5t18.5 62.5z" />
    <glyph glyph-name="quotedblbase" unicode="&#x201e;" horiz-adv-x="375" 
d="M133 0l-89 -132h-56l90 132h-48l23 88h103zM299 0l-89 -132h-55l90 132h-48l23 88h102z" />
    <glyph glyph-name="ellipsis" unicode="&#x2026;" horiz-adv-x="1000" 
d="M880 41q0 -20 -13 -33.5t-33 -13.5q-19 0 -33 13t-14 33q0 19 13 33t34 14q20 0 33 -13t13 -33zM546 41q0 -20 -13 -33.5t-33 -13.5q-19 0 -33 13t-14 33q0 19 13 33t34 14q20 0 33 -13t13 -33zM212 41q0 -20 -13 -33.5t-33 -13.5q-19 0 -33 13t-14 33q0 19 13 33t34 14
q20 0 33 -13t13 -33z" />
    <glyph glyph-name="dagger" unicode="&#x2020;" horiz-adv-x="396" 
d="M336 456l-118 -456h-82l118 456h-147l16 60h147l49 190h82l-50 -190h148l-16 -60h-147z" />
    <glyph glyph-name="daggerdbl" unicode="&#x2021;" horiz-adv-x="417" 
d="M270 167l-43 -167h-78l43 167h-146l15 58h146l66 254h-146l15 59h146l43 168h79l-44 -168h145l-15 -59h-145l-66 -254h145l-15 -58h-145z" />
    <glyph glyph-name="circumflex" unicode="&#x2c6;" horiz-adv-x="271" 
d="M215 694l41 -135h-60l-30 99l-79 -99h-72l111 135h89z" />
    <glyph glyph-name="perthousand" unicode="&#x2030;" horiz-adv-x="1125" 
d="M1150 340q0 -20 -3 -46t-10 -58q-12 -65 -36 -126q-20 -55 -48 -80q-38 -35 -100 -35q-25 -2 -47 5t-38 22t-25 36.5t-7 47.5q0 39 15 107q8 35 15 62t14 47q17 48 41 76q42 48 109 48q25 0 45 -6q36 -10 55.5 -35t19.5 -65zM1088 349q0 35 -25 48q-13 7 -31 7
q-30 0 -50 -19q-13 -12 -24 -35q-17 -37 -39 -124q-21 -89 -21 -126q0 -30 14 -47t42 -17q17 0 30 5.5t24 18.5t20.5 35t20.5 55q39 121 39 199zM413 547q0 -35 -14 -105q-13 -69 -34.5 -124.5t-46.5 -80.5q-38 -36 -101 -36q-31 0 -50.5 7t-33.5 19q-20 17 -26.5 38.5
t-6.5 46.5q0 37 15 108q8 35 15 62t14 47q18 51 42 78q40 46 108 46q12 0 24.5 -2t20.5 -4q35 -10 54.5 -35t19.5 -65zM351 556q0 35 -25 48q-13 7 -30 7q-31 0 -50 -19q-11 -11 -24 -35q-17 -36 -39 -125q-21 -90 -21 -126q0 -64 56 -64q16 0 29 5.5t24 18.5t20.5 35.5
t20.5 55.5q39 124 39 199zM816 340q0 -35 -14 -105q-13 -67 -34 -123.5t-48 -81.5q-38 -35 -101 -35q-29 0 -48 6t-36 20q-20 17 -26.5 38.5t-6.5 46.5q0 39 15 107q15 69 30.5 114t40.5 73q40 46 108 46q13 0 25.5 -2t20.5 -4q35 -9 54.5 -34.5t19.5 -65.5zM754 349
q0 35 -25 48q-13 7 -31 7q-31 0 -50 -19q-12 -10 -24 -35q-17 -37 -39 -124q-21 -89 -21 -126q0 -24 7 -37q13 -27 49 -27q17 0 30 5.5t24 18.5t20.5 35t20.5 55q39 124 39 199zM689 648l-410 -648h-53l411 648h52z" />
    <glyph glyph-name="guilsinglleft" unicode="&#x2039;" horiz-adv-x="229" 
d="M135 258l78 -184h-61l-81 184l148 187h72z" />
    <glyph glyph-name="OE" unicode="&#x152;" horiz-adv-x="1000" 
d="M637 69h352l-18 -69h-438l18 69q-40 -37 -75 -53q-57 -26 -132 -26q-48 0 -91 11.5t-77 37.5q-43 32 -59.5 76.5t-16.5 98.5q0 88 39 210q45 138 111 206q53 53 126 74q45 13 104 13q39 0 75 -6t72 -27q25 -13 42 -32q5 -5 11 -13.5t14 -19.5l22 87h382l-18 -69h-296
l-61 -236h290l-18 -68h-290zM645 524q0 27 -6 47q-10 32 -40 57q-41 33 -113 33q-66 0 -115 -32q-38 -26 -69 -75q-41 -60 -72 -169q-32 -110 -32 -181q0 -32 5 -54q9 -38 37 -63q41 -38 118 -38q76 0 131 41q19 14 35 33t29 43q29 51 61 176q31 121 31 182z" />
    <glyph glyph-name="quoteleft" unicode="&#x2018;" horiz-adv-x="208" 
d="M185 573l89 133h57l-92 -133h50l-23 -88h-104z" />
    <glyph glyph-name="quoteright" unicode="&#x2019;" horiz-adv-x="208" 
d="M295 619l-89 -134h-57l91 134h-49l22 87h105z" />
    <glyph glyph-name="quotedblleft" unicode="&#x201c;" horiz-adv-x="375" 
d="M185 573l89 133h57l-92 -133h50l-23 -88h-104zM353 573l89 133h57l-92 -133h50l-23 -88h-104z" />
    <glyph glyph-name="quotedblright" unicode="&#x201d;" horiz-adv-x="375" 
d="M295 618l-90 -132h-55l90 132h-48l23 88h102zM461 618l-89 -132h-55l89 132h-48l23 88h103z" />
    <glyph glyph-name="bullet" unicode="&#x2022;" horiz-adv-x="333" 
d="M353 353q0 -25 -8.5 -47t-24 -38t-37 -25t-47.5 -9q-54 0 -88 34t-34 85q0 48 34 83q34 36 87 36q25 0 47 -9t37.5 -25t24.5 -38t9 -47z" />
    <glyph glyph-name="endash" unicode="&#x2013;" horiz-adv-x="500" 
d="M502 291l-17 -66h-397l17 66h397z" />
    <glyph glyph-name="emdash" unicode="&#x2014;" horiz-adv-x="688" 
d="M690 291l-17 -66h-585l17 66h585z" />
    <glyph glyph-name="tilde" unicode="&#x2dc;" horiz-adv-x="271" 
d="M233 686h62l-14 -52q-13 -47 -28 -61t-40 -14q-20 0 -35 7.5t-39 24.5l-27 19q-28 22 -40 22q-11 0 -15 -7.5t-12 -37.5l-6 -27h-62l10 41q13 46 24 61q16 25 51 25q29 0 72 -31l31 -22q13 -9 22.5 -15t13.5 -6q11 0 15 11.5t11 33.5z" />
    <glyph glyph-name="trademark" unicode="&#x2122;" horiz-adv-x="687" 
d="M667 707v-332h-46v217l2 68l-17 -58l-72 -227h-42l-72 227l-17 57l2 -67l2 -217h-46v332h67l86 -273l86 273h67zM227 665v-290h-47v290h-109v42h262v-42h-106z" />
    <glyph glyph-name="guilsinglright" unicode="&#x203a;" horiz-adv-x="229" 
d="M180 261l-77 184h60l82 -184l-149 -187h-72z" />
    <glyph glyph-name="oe" unicode="&#x153;" horiz-adv-x="854" 
d="M843 147q-23 -69 -65 -105q-59 -51 -160 -51q-73 0 -116 27q-27 16 -51 52q-33 -37 -65 -54q-47 -25 -119 -25q-48 0 -83 11t-60 35q-31 29 -41 70q-7 25 -7 62q0 55 17 118q25 91 79 148q72 74 184 74q67 0 114 -30q13 -8 25 -20.5t25 -29.5q25 31 55 49q52 31 122 31
q85 0 131.5 -39.5t46.5 -119.5q0 -27 -4 -51.5t-11 -53.5h-336q-3 -13 -5 -22.5t-3 -16.5q-2 -14 -3.5 -26.5t-1.5 -23.5q0 -63 41 -92q30 -21 71 -21q59 0 95 37q22 22 40 67h85zM788 300q5 20 7 37t2 27q0 54 -36 78q-26 17 -59 17q-52 0 -91 -33q-47 -40 -70 -126h247z
M457 350q0 51 -27 79t-75 28q-34 0 -64 -15q-19 -10 -36 -25t-31 -36q-30 -42 -46 -107q-16 -64 -16 -113q0 -63 34 -93q28 -25 74 -25q48 0 83 26q26 20 47 57q22 39 39 108q18 70 18 116z" />
    <glyph glyph-name="Ydieresis" unicode="&#x178;" 
d="M357 259l-67 -259h-93l68 259l-126 447h99l74 -287l20 -74l55 74l214 287h99zM586 860l-22 -83h-86l22 83h86zM421 860l-21 -83h-86l22 83h85z" />
    <glyph glyph-name="nonbreakingspace" unicode="&#xa0;" horiz-adv-x="500" 
 />
    <glyph glyph-name="exclamdown" unicode="&#xa1;" horiz-adv-x="250" 
d="M176 557l24 91h98l-24 -91h-98zM32 0l137 485h73l-112 -485h-98z" />
    <glyph glyph-name="cent" unicode="&#xa2;" horiz-adv-x="479" 
d="M480 151q-6 -27 -7 -28q-9 -26 -33 -56q-42 -51 -99 -67q-32 -9 -77 -9l-26 -101h-55l27 103q-18 4 -31.5 8t-23.5 9q-80 41 -80 149q0 60 22 132q11 37 25 67.5t31 54.5q42 60 100 82q39 14 90 14l20 80h55l-22 -85q13 -3 20.5 -4.5t9.5 -2.5q18 -6 36 -18
q27 -19 40.5 -48.5t13.5 -63.5l-3 -37h-81q4 15 4 35q0 92 -88 92q-75 0 -117 -65q-27 -39 -48 -114q-20 -77 -20 -125q0 -58 32 -88q26 -25 71 -25q55 0 90 38q17 20 40 73h84z" />
    <glyph glyph-name="sterling" unicode="&#xa3;" horiz-adv-x="542" 
d="M533 65l-17 -65h-483l14 56q52 12 87 51q38 44 71 138h-109l13 50h109l32 114q30 105 70 157q69 90 188 90q31 0 57 -6q12 -3 41 -14l-16 -61q-23 10 -36 15q-21 7 -49 7q-71 0 -111 -52q-36 -45 -64 -148l-21 -79l-7 -23h177l-13 -50h-177q-24 -73 -55 -111
q-32 -39 -88 -69h387z" />
    <glyph glyph-name="currency" unicode="&#xa4;" horiz-adv-x="667" 
d="M672 569l-74 -73q23 -32 34 -55q20 -46 20 -101q0 -56 -20 -102q-5 -12 -13.5 -26t-21.5 -30l74 -74l-46 -46l-73 75q-16 -11 -30 -20t-26 -14q-46 -20 -100 -20q-55 0 -101 20q-14 6 -28 14.5t-28 19.5l-75 -73l-45 45l75 73q-25 32 -35 56q-20 48 -20 101q0 52 20 100
q13 30 34 57l-72 73l45 45l72 -73q16 11 30 19.5t27 14.5q48 21 101 21q52 0 100 -20q13 -5 27 -14t30 -20l73 73zM591 340q0 85 -57 141q-58 56 -138 56q-82 0 -140 -56q-57 -56 -57 -141q0 -84 57 -141t141 -57q81 0 137 56q57 57 57 142z" />
    <glyph glyph-name="yen" unicode="&#xa5;" horiz-adv-x="500" 
d="M326 187l-48 -187h-87l48 187h-176l13 51h177l-20 70h-139l13 51h112l-81 288h92l68 -263l18 -66l49 66l195 263h94l-220 -288h102l-13 -51h-129l-55 -70h166l-13 -51h-166z" />
    <glyph glyph-name="section" unicode="&#xa7;" horiz-adv-x="396" 
d="M361 465q17 -22 28.5 -38t17.5 -27q19 -34 19 -68q0 -52 -42 -98q-22 -25 -59 -48q12 -24 12 -52q0 -48 -32 -88q-45 -55 -135 -55q-40 0 -71.5 8.5t-61.5 29.5l16 63q34 -24 62.5 -34.5t55.5 -10.5q43 0 66 22t23 54q0 27 -19 55q-2 4 -9 12.5t-18 22.5l-32 42
q-13 17 -22.5 30.5t-14.5 23.5q-20 37 -20 69q0 27 13.5 54.5t39.5 49.5q8 8 14 12q5 4 37 22q-10 14 -15 28q-9 21 -9 43q-1 27 11 51.5t33.5 42t51 27t63.5 7.5q43 0 73 -10q17 -6 38 -17l-15 -56q-25 15 -48.5 22.5t-50.5 7.5q-37 0 -58 -18t-21 -47q0 -27 20 -58
q8 -10 15 -19t15 -19zM270 272l35 -45q11 8 18.5 16t12.5 15q18 24 18 50q0 23 -15 52q-5 8 -12.5 19.5t-18.5 25.5l-23 30l-33 45q-32 -24 -43 -43t-11 -41q0 -21 11 -41q3 -5 12.5 -18.5t25.5 -35.5z" />
    <glyph glyph-name="dieresis" unicode="&#xa8;" horiz-adv-x="271" 
d="M271 660l-21 -83h-86l21 83h86zM107 660l-22 -83h-85l21 83h86z" />
    <glyph glyph-name="copyright" unicode="&#xa9;" horiz-adv-x="833" 
d="M820 351q0 -149 -103 -252q-102 -102 -254 -102q-144 0 -247 99q-108 103 -108 257q0 151 104 253q104 103 251 103q153 0 255 -105t102 -253zM788 351q0 136 -92 231t-231 95q-136 0 -231 -95q-94 -94 -94 -229t95 -230q94 -94 229 -94q137 0 230 93q94 94 94 229z
M657 217q-39 -51 -95 -75q-44 -19 -92 -19q-95 0 -163 65q-67 64 -67 165q0 98 66 166q66 67 165 67q58 0 102.5 -22t83.5 -70l-42 -39q-27 31 -49 46q-44 29 -95 29q-70 0 -122 -50q-51 -50 -51 -126t51 -125q52 -50 123 -50q54 0 95 28q23 16 48 46z" />
    <glyph glyph-name="ordfeminine" unicode="&#xaa;" horiz-adv-x="333" 
d="M385 363h-41q-34 0 -34 31q-6 -6 -14 -11.5t-18 -10.5q-32 -15 -62 -15q-37 0 -59 16q-31 22 -31 69q0 37 20 65q5 7 11.5 13.5t14.5 11.5q28 19 87 28q27 5 95 12l5 20l5 22.5t1 12.5q0 46 -55 46q-42 0 -63 -27q-13 -16 -20 -44h-62q8 34 19 52t33 32q37 25 97 25
q48 0 81 -18.5t33 -61.5q0 -16 -6 -40l-42 -163q-6 -27 -6 -33q0 -18 15 -19zM345 535q-81 0 -118 -21t-37 -69q0 -20 11 -33t35 -13q19 0 38.5 9t29.5 19q11 10 15.5 20.5t11.5 35.5z" />
    <glyph glyph-name="guillemotleft" unicode="&#xab;" horiz-adv-x="375" 
d="M281 258l77 -184h-61l-81 184l149 187h72zM135 258l78 -184h-61l-81 184l148 187h72z" />
    <glyph glyph-name="logicalnot" unicode="&#xac;" horiz-adv-x="667" 
d="M654 0v262h-607v59h607h60v-321h-60z" />
    <glyph glyph-name="registered" unicode="&#xae;" horiz-adv-x="833" 
d="M320 577h137q24 0 52 -0.5t52 -9.5q33 -13 50.5 -40t17.5 -61q0 -45 -27.5 -72.5t-72.5 -34.5q35 -13 50 -35t22 -70q4 -23 7.5 -41t6.5 -30q6 -26 19 -51h-75q-7 13 -13 37q-1 4 -2 10t-3 14l-11 71q-5 23 -13 37.5t-21.5 23t-32.5 11.5t-46 3h-32v-207h-65v445z
M386 527v-136h75q39 0 61 8q41 17 41 62q0 31 -21 49q-14 13 -30 14q-17 3 -65 3h-61zM820 351q0 -148 -103 -251t-255 -103q-144 0 -247 99q-108 103 -108 257q0 151 104 253q104 103 252 103q153 0 255 -105t102 -253zM788 352q0 135 -93 230t-230 95t-232 -95
q-94 -94 -94 -229t95 -230q94 -94 229 -94t230 93q95 95 95 230z" />
    <glyph glyph-name="macron" unicode="&#xaf;" horiz-adv-x="271" 
d="M11 644h265l-14 -65h-266z" />
    <glyph glyph-name="degree" unicode="&#xb0;" horiz-adv-x="354" 
d="M190 601q0 -36 25.5 -61.5t61.5 -25.5t61.5 25.5t25.5 61.5t-25.5 61.5t-61.5 25.5t-61.5 -25.5t-25.5 -61.5zM130 601q0 61 43 104t104 43t104 -43t43 -104t-43 -104t-104 -43t-104 43t-43 104z" />
    <glyph glyph-name="plusminus" unicode="&#xb1;" horiz-adv-x="667" 
d="M411 379v-256h-59v256h-265v59h265v256h59v-256h262v-59h-262zM673 59v-59h-586v59h586z" />
    <glyph glyph-name="acute" unicode="&#xb4;" horiz-adv-x="271" 
d="M242 694l-143 -135h-70l109 135h104z" />
    <glyph glyph-name="mu" unicode="&#xb5;" 
d="M347 0l14 52q-32 -31 -64 -44.5t-71 -13.5q-33 0 -49 6q-25 9 -44 37l-63 -243h-85l95 361l8 34l80 312h85l-84 -325q-6 -24 -8 -34t-2 -26q0 -35 21 -51.5t56 -16.5t69 16.5t54 40.5q13 15 22 39t17 53l79 304h85l-129 -501h-86z" />
    <glyph glyph-name="paragraph" unicode="&#xb6;" horiz-adv-x="667" 
d="M579 706v-44h-34v-829h-46v829h-157v-829h-46v497q-19 3 -32.5 6t-23.5 7t-18.5 9t-17.5 13q-32 24 -49.5 64t-17.5 83q0 49 19 88q17 34 42 56q38 33 84 43q28 7 75 7h222z" />
    <glyph glyph-name="periodcentered" unicode="&#xb7;" horiz-adv-x="208" 
d="M210 304l-24 -93h-96l24 93h96z" />
    <glyph glyph-name="periodcentered" unicode="&#x2219;" horiz-adv-x="208" 
d="M210 304l-24 -93h-96l24 93h96z" />
    <glyph glyph-name="cedilla" unicode="&#xb8;" horiz-adv-x="271" 
d="M119 17h40l-21 -58q12 0 24 -0.5t25 -5.5q17 -10 24 -17q21 -23 21 -55q-4 -48 -34.5 -76t-105.5 -27l-53 3l13 49q14 -2 25 -3t21 -1q20 0 33 4q39 13 39 48q0 27 -24.5 34.5t-59.5 7.5z" />
    <glyph glyph-name="ordmasculine" unicode="&#xba;" horiz-adv-x="354" 
d="M446 532q-19 -91 -62.5 -133t-115.5 -42q-59 0 -94 29q-38 32 -38 90q0 46 15.5 95t45.5 84q47 57 133 57q45 0 74 -19q49 -31 49 -101q0 -26 -7 -60zM384 541q4 15 6 32t2 29q0 41 -26 58q-17 11 -41 11q-57 0 -92 -62q-33 -62 -33 -136q0 -35 17 -55t53 -20q38 0 64 26
q32 34 50 117z" />
    <glyph glyph-name="guillemotright" unicode="&#xbb;" horiz-adv-x="375" 
d="M180 261l-77 184h60l82 -184l-149 -187h-72zM326 261l-78 184h61l81 -184l-148 -187h-72z" />
    <glyph glyph-name="questiondown" unicode="&#xbf;" horiz-adv-x="479" 
d="M350 484h73l-34 -131q-55 0 -91 -10q-53 -13 -91 -51q-23 -24 -37 -60t-14 -73q0 -54 27.5 -83t72.5 -29q43 0 70 24q28 26 50 110h83q-20 -86 -47 -122q-50 -66 -154 -66q-89 0 -138 40q-54 43 -54 123q0 63 30.5 115.5t90.5 87.5q33 19 78 33q14 4 30 8t35 8zM449 556
h-98l24 92h97z" />
    <glyph glyph-name="Agrave" unicode="&#xc0;" horiz-adv-x="646" 
d="M286 337h210l-23 220l-6 70l-34 -57zM545 707l79 -707h-92l-29 271h-259l-169 -271h-96l452 707h114zM476 882l62 -130h-61l-87 130h86z" />
    <glyph glyph-name="Aacute" unicode="&#xc1;" horiz-adv-x="646" 
d="M286 337h210l-23 220l-6 70l-34 -57zM545 707l79 -707h-92l-29 271h-259l-169 -271h-96l452 707h114zM599 882l-88 -130h-60l62 130h86z" />
    <glyph glyph-name="Acircumflex" unicode="&#xc2;" horiz-adv-x="646" 
d="M545 707l79 -707h-92l-29 271h-259l-169 -271h-96l452 707h114zM286 337h210l-23 220l-6 70l-34 -57zM571 882l38 -130h-58l-27 94l-76 -94h-68l107 130h84z" />
    <glyph glyph-name="Atilde" unicode="&#xc3;" horiz-adv-x="646" 
d="M624 0h-92l-29 271h-259l-169 -271h-96l452 707h114zM496 337l-23 220l-6 70l-34 -57l-147 -233h210zM672 878l-13 -51q-14 -47 -29.5 -61t-38.5 -14q-10 0 -19 2.5t-19 7.5q-5 2 -14 7.5t-22 14.5l-25 20q-33 21 -41 21q-11 0 -15 -8t-12 -36l-6 -25h-61l11 39
q14 46 22 60q18 26 51 26q19 0 43 -12q4 -2 11.5 -7.5t17.5 -11.5l30 -23q15 -9 24 -14.5t12 -5.5q9 0 13.5 8.5t12.5 34.5l6 28h61z" />
    <glyph glyph-name="Adieresis" unicode="&#xc4;" horiz-adv-x="646" 
d="M545 707l79 -707h-92l-29 271h-259l-169 -271h-96l452 707h114zM286 337h210l-23 220l-6 70l-34 -57zM645 860l-22 -83h-86l22 83h86zM480 860l-21 -83h-86l22 83h85z" />
    <glyph glyph-name="Aring" unicode="&#xc5;" horiz-adv-x="646" 
d="M545 707l79 -707h-92l-29 271h-259l-169 -271h-96l452 707h114zM286 337h210l-23 220l-6 70l-34 -57zM603 837q0 -20 -7 -37t-19 -30t-28.5 -20t-35.5 -7q-35 0 -60 22q-29 26 -29 66t26.5 65.5t63.5 25.5t63 -24t26 -61zM558 836q-2 17 -14 29.5t-30 12.5t-31.5 -12.5
t-13.5 -33.5q0 -18 13 -31t31 -13q21 0 33 14t12 34z" />
    <glyph glyph-name="AE" unicode="&#xc6;" horiz-adv-x="917" 
d="M905 69l-18 -69h-439l86 335h-211l-244 -335h-100l524 706h512l-18 -67h-292l-61 -237h286l-17 -67h-286l-69 -266h347zM374 402h178l61 237h-66z" />
    <glyph glyph-name="Ccedilla" unicode="&#xc7;" horiz-adv-x="625" 
d="M649 210q-11 -29 -15 -42q-11 -27 -25 -48q-39 -60 -100 -93q-67 -37 -154 -37l-38 1l-11 -32q17 0 27.5 -1.5t21.5 -5.5q19 -8 32 -27t13 -44q-4 -48 -34.5 -76t-105.5 -27q-29 0 -53 3l12 49q14 -2 25 -3t21 -1q30 0 51.5 13t21.5 39q0 25 -30 36q-20 6 -54 6l26 77
q-19 4 -32.5 7.5t-21.5 6.5q-33 12 -60 36q-38 32 -52.5 74t-14.5 90q0 91 36 210q43 146 115 216q49 48 113 67q43 13 103 13q117 0 175.5 -53t58.5 -147l-2 -32h-91l2 35q0 39 -12 68q-8 19 -22 34q-34 37 -106 37q-68 0 -112 -31q-36 -25 -68 -79q-35 -59 -65 -169
q-29 -111 -29 -175q0 -31 5 -53q9 -36 35 -62q17 -17 46.5 -29t66.5 -12q86 0 142 59q32 36 62 102h97z" />
    <glyph glyph-name="Egrave" unicode="&#xc8;" 
d="M509 68l-18 -68h-437l183 706h389l-18 -68h-292l-61 -236h286l-18 -68h-286l-68 -266h340zM412 881l62 -130h-60l-88 130h86z" />
    <glyph glyph-name="Eacute" unicode="&#xc9;" 
d="M509 68l-18 -68h-437l183 706h389l-18 -68h-292l-61 -236h286l-18 -68h-286l-68 -266h340zM536 881l-87 -130h-61l62 130h86z" />
    <glyph glyph-name="Ecircumflex" unicode="&#xca;" 
d="M169 68h340l-18 -68h-437l183 706h389l-18 -68h-292l-61 -236h286l-18 -68h-286zM429 881h84l38 -130h-58l-27 94l-76 -94h-68z" />
    <glyph glyph-name="Edieresis" unicode="&#xcb;" 
d="M509 68l-18 -68h-437l183 706h389l-18 -68h-292l-61 -236h286l-18 -68h-286l-68 -266h340zM587 860l-22 -83h-86l22 83h86zM422 860l-21 -83h-86l22 83h85z" />
    <glyph glyph-name="Igrave" unicode="&#xcc;" horiz-adv-x="250" 
d="M237 706h99l-187 -706h-95zM187 881h87l62 -130h-61z" />
    <glyph glyph-name="Iacute" unicode="&#xcd;" horiz-adv-x="250" 
d="M336 706l-187 -706h-95l183 706h99zM309 752h-60l62 130h86z" />
    <glyph glyph-name="Icircumflex" unicode="&#xce;" horiz-adv-x="250" 
d="M336 706l-187 -706h-95l183 706h99zM375 895l41 -135h-60l-29 98l-79 -98h-71l111 135h87z" />
    <glyph glyph-name="Idieresis" unicode="&#xcf;" horiz-adv-x="250" 
d="M336 706l-187 -706h-95l183 706h99zM451 860l-22 -83h-86l22 83h86zM286 860l-21 -83h-86l22 83h85z" />
    <glyph glyph-name="Ntilde" unicode="&#xd1;" horiz-adv-x="667" 
d="M753 706l-183 -706h-99l-145 463q-7 23 -12 41.5t-9 31.5q-6 27 -15 66l-26 -114l-126 -488h-84l187 706h98l146 -478q10 -38 21 -78l8.5 -34l5.5 -22q10 53 18 85q3 13 18 75l116 452h81zM621 886h62l-14 -52q-13 -47 -28 -61t-40 -14q-19 0 -38 9q-9 4 -36 23l-26 20
q-32 21 -41 21q-10 0 -14.5 -8t-11.5 -37l-7 -26h-62l11 40q7 23 12.5 38t10.5 23q17 26 51 26q20 0 43 -12q5 -2 12 -7t18 -12l31 -23q29 -20 36 -20q9 0 13 8t12 36z" />
    <glyph glyph-name="Ograve" unicode="&#xd2;" horiz-adv-x="688" 
d="M704 336q-11 -48 -23.5 -86t-25.5 -68q-46 -106 -119.5 -149t-174.5 -43q-114 0 -180 48q-79 57 -79 177q0 32 6 71t17 87q10 41 21 75t23 63q44 102 112 151q76 55 196 55q60 0 104 -13.5t77 -40.5q42 -34 59 -85q11 -36 11 -82q0 -15 -1 -30.5t-3.5 -34t-7.5 -42
t-12 -53.5zM606 349q11 42 18 81t7 78q0 25 -3.5 43.5t-12.5 36.5q-14 22 -33 39q-42 33 -106 33q-48 0 -86.5 -17t-70.5 -55q-53 -64 -89 -199q-30 -113 -30 -184q0 -64 27 -100q20 -29 55 -42.5t77 -13.5q103 0 162 80q44 60 85 220zM549 752h-61l-87 130h86z" />
    <glyph glyph-name="Oacute" unicode="&#xd3;" horiz-adv-x="688" 
d="M704 336q-11 -48 -23.5 -86t-25.5 -68q-46 -106 -119.5 -149t-174.5 -43q-114 0 -180 48q-79 57 -79 177q0 32 6 71t17 87q10 41 21 75t23 63q44 102 112 151q76 55 196 55q60 0 104 -13.5t77 -40.5q42 -34 59 -85q11 -36 11 -82q0 -15 -1 -30.5t-3.5 -34t-7.5 -42
t-12 -53.5zM606 349q11 42 18 81t7 78q0 25 -3.5 43.5t-12.5 36.5q-14 22 -33 39q-42 33 -106 33q-48 0 -86.5 -17t-70.5 -55q-53 -64 -89 -199q-30 -113 -30 -184q0 -64 27 -100q20 -29 55 -42.5t77 -13.5q103 0 162 80q44 60 85 220zM625 892l-88 -130h-60l62 130h86z" />
    <glyph glyph-name="Ocircumflex" unicode="&#xd4;" horiz-adv-x="688" 
d="M704 336q-11 -48 -23.5 -86t-25.5 -68q-46 -106 -119.5 -149t-174.5 -43q-114 0 -180 48q-79 57 -79 177q0 32 6 71t17 87q10 41 21 75t23 63q44 102 112 151q76 55 196 55q60 0 104 -13.5t77 -40.5q42 -34 59 -85q11 -36 11 -82q0 -15 -1 -30.5t-3.5 -34t-7.5 -42
t-12 -53.5zM606 349q11 42 18 81t7 78q0 25 -3.5 43.5t-12.5 36.5q-14 22 -33 39q-42 33 -106 33q-48 0 -86.5 -17t-70.5 -55q-53 -64 -89 -199q-30 -113 -30 -184q0 -64 27 -100q20 -29 55 -42.5t77 -13.5q103 0 162 80q44 60 85 220zM598 892l38 -130h-58l-27 94l-76 -94
h-68l107 130h84z" />
    <glyph glyph-name="Otilde" unicode="&#xd5;" horiz-adv-x="688" 
d="M704 336q-11 -48 -23.5 -86t-25.5 -68q-46 -106 -119.5 -149t-174.5 -43q-114 0 -180 48q-79 57 -79 177q0 32 6 71t17 87q10 41 21 75t23 63q44 102 112 151q76 55 196 55q60 0 104 -13.5t77 -40.5q42 -34 59 -85q11 -36 11 -82q0 -15 -1 -30.5t-3.5 -34t-7.5 -42
t-12 -53.5zM606 349q11 42 18 81t7 78q0 25 -3.5 43.5t-12.5 36.5q-14 22 -33 39q-42 33 -106 33q-48 0 -86.5 -17t-70.5 -55q-53 -64 -89 -199q-30 -113 -30 -184q0 -64 27 -100q20 -29 55 -42.5t77 -13.5q103 0 162 80q44 60 85 220zM735 878l-13 -51q-14 -47 -29.5 -61
t-38.5 -14q-10 0 -19 2.5t-19 7.5q-5 2 -14 7.5t-22 14.5l-25 20q-33 21 -41 21q-11 0 -15 -8t-12 -36l-6 -25h-61l11 39q14 46 22 60q18 26 51 26q19 0 43 -12q4 -2 11.5 -7.5t17.5 -11.5l30 -23q15 -9 24 -14.5t12 -5.5q9 0 13.5 8.5t12.5 34.5l6 28h61z" />
    <glyph glyph-name="Odieresis" unicode="&#xd6;" horiz-adv-x="688" 
d="M704 336q-11 -48 -23.5 -86t-25.5 -68q-46 -106 -119.5 -149t-174.5 -43q-114 0 -180 48q-79 57 -79 177q0 32 6 71t17 87q10 41 21 75t23 63q44 102 112 151q76 55 196 55q60 0 104 -13.5t77 -40.5q42 -34 59 -85q11 -36 11 -82q0 -15 -1 -30.5t-3.5 -34t-7.5 -42
t-12 -53.5zM606 349q11 42 18 81t7 78q0 25 -3.5 43.5t-12.5 36.5q-14 22 -33 39q-42 33 -106 33q-48 0 -86.5 -17t-70.5 -55q-53 -64 -89 -199q-30 -113 -30 -184q0 -64 27 -100q20 -29 55 -42.5t77 -13.5q103 0 162 80q44 60 85 220zM669 860l-22 -83h-86l22 83h86z
M504 860l-21 -83h-86l22 83h85z" />
    <glyph glyph-name="Oslash" unicode="&#xd8;" horiz-adv-x="688" 
d="M730 719l32 -29l-65 -69q4 -7 7.5 -13.5t6.5 -13.5q17 -42 17 -96q0 -85 -37 -205q-38 -123 -79 -180q-53 -75 -132 -103q-55 -20 -130 -20q-69 0 -126 23q-30 13 -63 37l-63 -67l-31 31l66 70q-5 8 -9.5 14.5t-6.5 11.5q-14 31 -17 56.5t-3 44.5q0 82 40 208
q20 64 44 112t50 80q51 63 127 89q51 17 118 17q71 0 122 -22q16 -7 33.5 -17t36.5 -24zM634 553l-420 -446q10 -11 21 -20t22 -16q40 -24 93 -24q83 0 137 48q66 57 116 228q33 109 33 186zM615 597q-25 32 -56.5 47t-73.5 15q-65 0 -111 -27q-38 -23 -72 -67
q-47 -65 -80 -173q-33 -107 -33 -186q0 -14 1.5 -30t2.5 -26z" />
    <glyph glyph-name="Ugrave" unicode="&#xd9;" horiz-adv-x="667" 
d="M668 706h86l-125 -481q-23 -75 -39 -108q-32 -59 -85 -90q-64 -37 -172 -37q-51 0 -87.5 7.5t-67.5 24.5q-43 25 -61 65q-13 27 -13 67q0 14 1.5 27.5t3.5 27.5l14 62l112 435h98l-108 -415q-11 -45 -17 -75.5t-6 -51.5q0 -18 3.5 -34t13.5 -29q14 -21 48 -34.5t79 -13.5
q28 0 50.5 4t44.5 16q48 25 75 81q9 19 20 52.5t24 83.5zM487 881l62 -130h-61l-87 130h86z" />
    <glyph glyph-name="Uacute" unicode="&#xda;" horiz-adv-x="667" 
d="M668 706h86l-125 -481q-23 -75 -39 -108q-32 -59 -85 -90q-64 -37 -172 -37q-51 0 -87.5 7.5t-67.5 24.5q-43 25 -61 65q-13 27 -13 67q0 14 1.5 27.5t3.5 27.5l14 62l112 435h98l-108 -415q-11 -45 -17 -75.5t-6 -51.5q0 -18 3.5 -34t13.5 -29q14 -21 48 -34.5t79 -13.5
q28 0 50.5 4t44.5 16q48 25 75 81q9 19 20 52.5t24 83.5zM614 881l-88 -130h-60l62 130h86z" />
    <glyph glyph-name="Ucircumflex" unicode="&#xdb;" horiz-adv-x="667" 
d="M668 706h86l-125 -481q-23 -75 -39 -108q-32 -59 -85 -90q-64 -37 -172 -37q-51 0 -87.5 7.5t-67.5 24.5q-43 25 -61 65q-13 27 -13 67q0 14 1.5 27.5t3.5 27.5l14 62l112 435h98l-108 -415q-11 -45 -17 -75.5t-6 -51.5q0 -18 3.5 -34t13.5 -29q14 -21 48 -34.5t79 -13.5
q28 0 50.5 4t44.5 16q48 25 75 81q9 19 20 52.5t24 83.5zM583 895l41 -135h-60l-29 98l-79 -98h-71l111 135h87z" />
    <glyph glyph-name="Udieresis" unicode="&#xdc;" horiz-adv-x="667" 
d="M668 706h86l-125 -481q-23 -75 -39 -108q-32 -59 -85 -90q-64 -37 -172 -37q-51 0 -87.5 7.5t-67.5 24.5q-43 25 -61 65q-13 27 -13 67q0 14 1.5 27.5t3.5 27.5l14 62l112 435h98l-108 -415q-11 -45 -17 -75.5t-6 -51.5q0 -18 3.5 -34t13.5 -29q14 -21 48 -34.5t79 -13.5
q28 0 50.5 4t44.5 16q48 25 75 81q9 19 20 52.5t24 83.5zM656 860l-22 -83h-86l22 83h86zM491 860l-21 -83h-86l22 83h85z" />
    <glyph glyph-name="germandbls" unicode="&#xdf;" horiz-adv-x="562" 
d="M137 0h-85l112 474q13 57 23 85q16 45 42 77q42 51 110 69q36 10 82 10q71 0 117 -26q60 -35 60 -114q0 -38 -14 -74q-4 -9 -9.5 -19.5t-13.5 -21.5q-8 1 -19 2.5t-25 1.5l-23 -1q-46 -6 -65 -34q-14 -20 -14 -40q0 -30 30 -64q5 -6 13 -14l19 -19l17 -16q36 -34 52 -58
q25 -37 25 -80q0 -56 -36 -96q-45 -51 -131 -51q-54 0 -97 18q-76 31 -76 110q0 15 3 30l82 -4l-2 -23q0 -21 7.5 -37.5t33.5 -29.5q12 -6 25 -8.5t24 -2.5q40 0 61 23t21 53q0 39 -67 103l-20 20q-33 34 -45 54q-22 34 -22 73q0 43 24 75q19 25 51 42q19 10 43.5 15.5
t55.5 5.5q9 25 12.5 40t3.5 30q0 43 -28 66t-74 23q-21 0 -36 -2.5t-33 -11.5q-45 -21 -69 -71q-17 -37 -38 -123z" />
    <glyph glyph-name="agrave" unicode="&#xe0;" horiz-adv-x="479" 
d="M431 0h-58q-27 0 -36.5 10.5t-9.5 41.5q-56 -60 -144 -60q-29 -3 -54 6.5t-42 26.5t-26 40t-7 47q0 85 67 131q48 33 270 59l9 32q5 23 7 32t2 22q0 72 -86 72q-23 0 -45 -6.5t-44 -27.5q-15 -15 -24 -35q-5 -9 -12 -36h-84q4 16 8.5 30t10.5 25q19 38 55 63
q52 36 141 36q67 0 110 -23q55 -30 55 -93q0 -9 -0.5 -15t-1.5 -10t-2.5 -12t-4.5 -21l-62 -242q-4 -15 -6.5 -27t-2.5 -22q0 -17 8 -25q6 -6 13 -7zM380 255q-22 0 -46.5 -2.5t-50.5 -7.5t-47 -11.5t-35 -14.5q-59 -32 -59 -102q0 -31 17.5 -51.5t54.5 -20.5q31 0 58 13
q30 14 45.5 29.5t23.5 32.5q2 6 6.5 19t10.5 33zM402 554h-62l-88 130h88z" />
    <glyph glyph-name="aacute" unicode="&#xe1;" horiz-adv-x="479" 
d="M431 0h-58q-27 0 -36.5 10.5t-9.5 41.5q-56 -60 -144 -60q-29 -3 -54 6.5t-42 26.5t-26 40t-7 47q0 85 67 131q48 33 270 59l9 32q5 23 7 32t2 22q0 72 -86 72q-23 0 -45 -6.5t-44 -27.5q-15 -15 -24 -35q-5 -9 -12 -36h-84q4 16 8.5 30t10.5 25q19 38 55 63
q52 36 141 36q67 0 110 -23q55 -30 55 -93q0 -9 -0.5 -15t-1.5 -10t-2.5 -12t-4.5 -21l-62 -242q-4 -15 -6.5 -27t-2.5 -22q0 -17 8 -25q6 -6 13 -7zM380 255q-22 0 -46.5 -2.5t-50.5 -7.5t-47 -11.5t-35 -14.5q-59 -32 -59 -102q0 -31 17.5 -51.5t54.5 -20.5q31 0 58 13
q30 14 45.5 29.5t23.5 32.5q2 6 6.5 19t10.5 33zM376 554h-62l63 130h87z" />
    <glyph glyph-name="acircumflex" unicode="&#xe2;" horiz-adv-x="479" 
d="M431 0h-58q-27 0 -36.5 10.5t-9.5 41.5q-56 -60 -144 -60q-29 -3 -54 6.5t-42 26.5t-26 40t-7 47q0 85 67 131q48 33 270 59l9 32q5 23 7 32t2 22q0 72 -86 72q-23 0 -45 -6.5t-44 -27.5q-15 -15 -24 -35q-5 -9 -12 -36h-84q4 16 8.5 30t10.5 25q19 38 55 63
q52 36 141 36q67 0 110 -23q55 -30 55 -93q0 -9 -0.5 -15t-1.5 -10t-2.5 -12t-4.5 -21l-62 -242q-4 -15 -6.5 -27t-2.5 -22q0 -17 8 -25q6 -6 13 -7zM380 255q-22 0 -46.5 -2.5t-50.5 -7.5t-47 -11.5t-35 -14.5q-59 -32 -59 -102q0 -31 17.5 -51.5t54.5 -20.5q31 0 58 13
q30 14 45.5 29.5t23.5 32.5q2 6 6.5 19t10.5 33zM473 554h-57l-29 95l-76 -95h-69l106 130h86z" />
    <glyph glyph-name="atilde" unicode="&#xe3;" horiz-adv-x="479" 
d="M539 682l-14 -52q-12 -48 -27.5 -62t-40.5 -14q-8 0 -17 3t-19 7q-5 2 -14 7.5t-23 14.5l-26 20q-30 21 -40 21t-14 -7.5t-12 -36.5l-7 -26h-61l12 40q5 22 11 36.5t11 24.5q8 11 20.5 18t29.5 7q11 0 21 -3.5t21 -8.5q5 -2 12.5 -6.5t18.5 -12.5l30 -22q28 -20 36 -20
q9 0 13 8t12 35l5 29h62zM431 0h-58q-27 0 -36.5 10.5t-9.5 41.5q-56 -60 -144 -60q-29 -3 -54 6.5t-42 26.5t-26 40t-7 47q0 85 67 131q48 33 270 59l9 32q5 23 7 32t2 22q0 72 -86 72q-23 0 -45 -6.5t-44 -27.5q-15 -15 -24 -35q-5 -9 -12 -36h-84q4 16 8.5 30t10.5 25
q19 38 55 63q52 36 141 36q67 0 110 -23q55 -30 55 -93q0 -9 -0.5 -15t-1.5 -10t-2.5 -12t-4.5 -21l-62 -242q-4 -15 -6.5 -27t-2.5 -22q0 -17 8 -25q6 -6 13 -7zM380 255q-22 0 -46.5 -2.5t-50.5 -7.5t-47 -11.5t-35 -14.5q-59 -32 -59 -102q0 -31 17.5 -51.5t54.5 -20.5
q31 0 58 13q30 14 45.5 29.5t23.5 32.5q2 6 6.5 19t10.5 33z" />
    <glyph glyph-name="adieresis" unicode="&#xe4;" horiz-adv-x="479" 
d="M431 0h-58q-27 0 -36.5 10.5t-9.5 41.5q-56 -60 -144 -60q-29 -3 -54 6.5t-42 26.5t-26 40t-7 47q0 85 67 131q48 33 270 59l9 32q5 23 7 32t2 22q0 72 -86 72q-23 0 -45 -6.5t-44 -27.5q-15 -15 -24 -35q-5 -9 -12 -36h-84q4 16 8.5 30t10.5 25q19 38 55 63
q52 36 141 36q67 0 110 -23q55 -30 55 -93q0 -9 -0.5 -15t-1.5 -10t-2.5 -12t-4.5 -21l-62 -242q-4 -15 -6.5 -27t-2.5 -22q0 -17 8 -25q6 -6 13 -7zM380 255q-22 0 -46.5 -2.5t-50.5 -7.5t-47 -11.5t-35 -14.5q-59 -32 -59 -102q0 -31 17.5 -51.5t54.5 -20.5q31 0 58 13
q30 14 45.5 29.5t23.5 32.5q2 6 6.5 19t10.5 33zM505 660l-21 -83h-86l21 83h86zM341 660l-22 -83h-85l21 83h86z" />
    <glyph glyph-name="aring" unicode="&#xe5;" horiz-adv-x="479" 
d="M431 0h-58q-27 0 -36.5 10.5t-9.5 41.5q-56 -60 -144 -60q-29 -3 -54 6.5t-42 26.5t-26 40t-7 47q0 85 67 131q48 33 270 59l9 32q5 23 7 32t2 22q0 72 -86 72q-23 0 -45 -6.5t-44 -27.5q-15 -15 -24 -35q-5 -9 -12 -36h-84q4 16 8.5 30t10.5 25q19 38 55 63
q52 36 141 36q67 0 110 -23q55 -30 55 -93q0 -9 -0.5 -15t-1.5 -10t-2.5 -12t-4.5 -21l-62 -242q-4 -15 -6.5 -27t-2.5 -22q0 -17 8 -25q6 -6 13 -7zM380 255q-22 0 -46.5 -2.5t-50.5 -7.5t-47 -11.5t-35 -14.5q-59 -32 -59 -102q0 -31 17.5 -51.5t54.5 -20.5q31 0 58 13
q30 14 45.5 29.5t23.5 32.5q2 6 6.5 19t10.5 33zM464 637q0 -20 -7 -37t-19 -30t-28.5 -20t-35.5 -7q-35 0 -60 22q-29 26 -29 66t26.5 65.5t63.5 25.5t63 -24t26 -61zM419 636q-2 17 -14 29.5t-30 12.5t-31.5 -12.5t-13.5 -33.5q0 -18 13 -31t31 -13q21 0 33 14t12 34z" />
    <glyph glyph-name="ae" unicode="&#xe6;" horiz-adv-x="792" 
d="M776 147q-4 -19 -12 -34q-10 -23 -29 -46q-38 -45 -92 -62q-44 -14 -94 -14q-29 0 -50.5 3.5t-43.5 12.5q-30 13 -52 35q-9 9 -23 31q-36 -35 -66 -51q-56 -31 -129 -31q-36 0 -62 8q-48 17 -67 62q-6 13 -8 26t-2 26q0 48 26 89q20 32 54 52q38 23 96 33.5t127 10.5
l47 1l10 39q2 10 4.5 24t2.5 25q0 29 -18 49q-23 24 -71 24q-26 0 -45 -6q-37 -11 -58 -38q-18 -20 -29 -63h-85q16 59 48 94q59 62 172 62q30 0 66 -5t62 -28q9 -6 22 -26q27 27 57 40q42 19 103 19q81 0 126.5 -38.5t45.5 -116.5q0 -21 -2.5 -46.5t-13.5 -62.5h-333
l-3 -12q-5 -24 -7.5 -40.5t-2.5 -38.5q0 -57 33 -85q31 -26 78 -26q31 0 58 12t47 39q7 9 14 22.5t15 30.5h84zM722 299q1 4 1.5 11.5t2.5 18.5t3 20t1 15q0 54 -34 78q-25 17 -58 17q-70 0 -117 -62q-25 -34 -47 -98h248zM381 248l-83 -4q-39 0 -74 -11q-49 -17 -72 -53
q-16 -25 -16 -60q0 -37 22 -57t61 -20q30 0 61 14q40 19 60 54q14 23 27 74z" />
    <glyph glyph-name="ccedilla" unicode="&#xe7;" horiz-adv-x="479" 
d="M481 153q-5 -17 -9 -29t-9 -22t-12 -19t-16 -20q-35 -41 -88 -59q-36 -13 -78 -13l-39 2l-11 -34q17 0 27.5 -1.5t21.5 -5.5q19 -8 32 -27t13 -44q-4 -48 -34.5 -76t-105.5 -27q-29 0 -53 3l12 49q14 -2 25 -3t21 -1q30 0 51.5 13t21.5 39q0 25 -30 36q-20 6 -54 6l27 79
q-49 15 -75 38q-45 42 -45 123q0 47 15 109q24 100 74 159q69 81 179 81q89 0 136 -45q39 -39 39 -99l-3 -35h-81l3 33q0 48 -25.5 71t-65.5 23q-42 0 -73 -21q-23 -17 -42 -45q-26 -40 -47 -107q-21 -68 -21 -125q0 -63 36 -93q28 -23 69 -23q51 0 82 31q27 27 47 79h85z
" />
    <glyph glyph-name="egrave" unicode="&#xe8;" horiz-adv-x="500" 
d="M487 147q-5 -11 -9 -21.5t-9 -18.5q-16 -28 -33 -47q-38 -41 -91 -57q-41 -11 -85 -11t-69 7q-39 9 -69.5 35t-42.5 68q-7 22 -7 58q0 64 27 148q29 86 71 131q39 42 91 58q37 12 82 12q76 0 121 -33q55 -40 55 -126q0 -21 -3.5 -48t-12.5 -57h-334q-6 -20 -9.5 -43.5
t-3.5 -43.5q0 -64 37 -92q28 -22 73 -22q63 0 101 41q10 11 18.5 26.5t15.5 35.5h86zM431 301q9 31 9 60q0 48 -26.5 73.5t-68.5 25.5q-68 0 -111 -58q-26 -33 -49 -101h246zM355 684l62 -130h-62l-88 130h88z" />
    <glyph glyph-name="eacute" unicode="&#xe9;" horiz-adv-x="500" 
d="M487 147q-5 -11 -9 -21.5t-9 -18.5q-16 -28 -33 -47q-38 -41 -91 -57q-41 -11 -85 -11t-69 7q-39 9 -69.5 35t-42.5 68q-7 22 -7 58q0 64 27 148q29 86 71 131q39 42 91 58q37 12 82 12q76 0 121 -33q55 -40 55 -126q0 -21 -3.5 -48t-12.5 -57h-334q-6 -20 -9.5 -43.5
t-3.5 -43.5q0 -64 37 -92q28 -22 73 -22q63 0 101 41q10 11 18.5 26.5t15.5 35.5h86zM431 301q9 31 9 60q0 48 -26.5 73.5t-68.5 25.5q-68 0 -111 -58q-26 -33 -49 -101h246zM479 684l-88 -130h-62l63 130h87z" />
    <glyph glyph-name="ecircumflex" unicode="&#xea;" horiz-adv-x="500" 
d="M487 147q-5 -11 -9 -21.5t-9 -18.5q-16 -28 -33 -47q-38 -41 -91 -57q-41 -11 -85 -11t-69 7q-39 9 -69.5 35t-42.5 68q-7 22 -7 58q0 64 27 148q29 86 71 131q39 42 91 58q37 12 82 12q76 0 121 -33q55 -40 55 -126q0 -21 -3.5 -48t-12.5 -57h-334q-6 -20 -9.5 -43.5
t-3.5 -43.5q0 -64 37 -92q28 -22 73 -22q63 0 101 41q10 11 18.5 26.5t15.5 35.5h86zM431 301q9 31 9 60q0 48 -26.5 73.5t-68.5 25.5q-68 0 -111 -58q-26 -33 -49 -101h246zM453 684l39 -130h-57l-29 95l-76 -95h-69l106 130h86z" />
    <glyph glyph-name="edieresis" unicode="&#xeb;" horiz-adv-x="500" 
d="M487 147q-5 -11 -9 -21.5t-9 -18.5q-16 -28 -33 -47q-38 -41 -91 -57q-41 -11 -85 -11t-69 7q-39 9 -69.5 35t-42.5 68q-7 22 -7 58q0 64 27 148q29 86 71 131q39 42 91 58q37 12 82 12q76 0 121 -33q55 -40 55 -126q0 -21 -3.5 -48t-12.5 -57h-334q-6 -20 -9.5 -43.5
t-3.5 -43.5q0 -64 37 -92q28 -22 73 -22q63 0 101 41q10 11 18.5 26.5t15.5 35.5h86zM431 301q9 31 9 60q0 48 -26.5 73.5t-68.5 25.5q-68 0 -111 -58q-26 -33 -49 -101h246zM524 660l-21 -83h-86l21 83h86zM360 660l-22 -83h-85l21 83h86z" />
    <glyph glyph-name="igrave" unicode="&#xec;" horiz-adv-x="208" 
d="M170 500h85l-130 -500h-85zM105 675h88l62 -130h-62z" />
    <glyph glyph-name="iacute" unicode="&#xed;" horiz-adv-x="208" 
d="M255 500l-130 -500h-85l130 500h85zM323 657l-74 -108h-51l52 108h73z" />
    <glyph glyph-name="icircumflex" unicode="&#xee;" horiz-adv-x="208" 
d="M255 500l-130 -500h-85l130 500h85zM302 694l41 -135h-60l-30 99l-79 -99h-72l111 135h89z" />
    <glyph glyph-name="idieresis" unicode="&#xef;" horiz-adv-x="208" 
d="M255 500l-130 -500h-85l130 500h85zM377 660l-21 -83h-86l21 83h86zM213 660l-22 -83h-85l21 83h86z" />
    <glyph glyph-name="ntilde" unicode="&#xf1;" horiz-adv-x="500" 
d="M418 0h-85l77 296q5 19 11.5 46.5t6.5 45.5q0 25 -13 41q-20 24 -58 24q-55 0 -101 -43q-18 -16 -28 -38q-10 -21 -23 -70l-78 -302h-85l129 500h86l-15 -58q18 14 33.5 25t29.5 18q46 24 96 24q60 0 90 -34q24 -29 24 -69q0 -28 -9 -68q-4 -14 -6.5 -24.5t-4.5 -17.5z
M487 686h62l-14 -52q-13 -47 -28 -61t-40 -14q-20 0 -35 7.5t-39 24.5l-27 19q-28 22 -40 22q-11 0 -15 -7.5t-12 -37.5l-6 -27h-62l10 41q13 46 24 61q16 25 51 25q29 0 72 -31l31 -22q13 -9 22.5 -15t13.5 -6q11 0 15 11.5t11 33.5z" />
    <glyph glyph-name="ograve" unicode="&#xf2;" 
d="M524 248q-27 -132 -90 -194t-169 -62q-88 0 -140 44t-52 129q0 65 22 137t67 125q31 37 75 58q51 25 120 25q65 0 108 -28q28 -18 46 -46q13 -20 18.5 -45t5.5 -55q0 -20 -3 -43.5t-8 -44.5zM441 259q6 31 8.5 49.5t2.5 42.5q0 62 -40 89q-26 18 -63 18q-25 0 -49 -8
q-39 -15 -70 -53q-35 -44 -54 -124q-16 -63 -16 -114q0 -33 7 -51q10 -31 41 -49q11 -7 26 -11t34 -4q65 0 106 50q25 29 41 78q5 14 13 40.5t13 46.5zM419 554h-62l-88 130h88z" />
    <glyph glyph-name="oacute" unicode="&#xf3;" 
d="M524 248q-27 -132 -90 -194t-169 -62q-88 0 -140 44t-52 129q0 65 22 137t67 125q31 37 75 58q51 25 120 25q65 0 108 -28q28 -18 46 -46q13 -20 18.5 -45t5.5 -55q0 -20 -3 -43.5t-8 -44.5zM441 259q6 31 8.5 49.5t2.5 42.5q0 62 -40 89q-26 18 -63 18q-25 0 -49 -8
q-39 -15 -70 -53q-35 -44 -54 -124q-16 -63 -16 -114q0 -33 7 -51q10 -31 41 -49q11 -7 26 -11t34 -4q65 0 106 50q25 29 41 78q5 14 13 40.5t13 46.5zM408 554h-62l63 130h87z" />
    <glyph glyph-name="ocircumflex" unicode="&#xf4;" 
d="M524 248q-27 -132 -90 -194t-169 -62q-88 0 -140 44t-52 129q0 65 22 137t67 125q31 37 75 58q51 25 120 25q65 0 108 -28q28 -18 46 -46q13 -20 18.5 -45t5.5 -55q0 -20 -3 -43.5t-8 -44.5zM441 259q6 31 8.5 49.5t2.5 42.5q0 62 -40 89q-26 18 -63 18q-25 0 -49 -8
q-39 -15 -70 -53q-35 -44 -54 -124q-16 -63 -16 -114q0 -33 7 -51q10 -31 41 -49q11 -7 26 -11t34 -4q65 0 106 50q25 29 41 78q5 14 13 40.5t13 46.5zM499 554h-57l-29 95l-76 -95h-69l106 130h86z" />
    <glyph glyph-name="otilde" unicode="&#xf5;" 
d="M524 248q-27 -132 -90 -194t-169 -62q-88 0 -140 44t-52 129q0 65 22 137t67 125q31 37 75 58q51 25 120 25q65 0 108 -28q28 -18 46 -46q13 -20 18.5 -45t5.5 -55q0 -20 -3 -43.5t-8 -44.5zM441 259q6 31 8.5 49.5t2.5 42.5q0 62 -40 89q-26 18 -63 18q-25 0 -49 -8
q-39 -15 -70 -53q-35 -44 -54 -124q-16 -63 -16 -114q0 -33 7 -51q10 -31 41 -49q11 -7 26 -11t34 -4q65 0 106 50q25 29 41 78q5 14 13 40.5t13 46.5zM532 682l-14 -52q-12 -48 -27.5 -62t-40.5 -14q-8 0 -17 3t-19 7q-5 2 -14 7.5t-23 14.5l-26 20q-30 21 -40 21t-14 -7.5
t-12 -36.5l-7 -26h-61l12 40q5 22 11 36.5t11 24.5q8 11 20.5 18t29.5 7q11 0 21 -3.5t21 -8.5q5 -2 12.5 -6.5t18.5 -12.5l30 -22q28 -20 36 -20q9 0 13 8t12 35l5 29h62z" />
    <glyph glyph-name="odieresis" unicode="&#xf6;" 
d="M524 248q-27 -132 -90 -194t-169 -62q-88 0 -140 44t-52 129q0 65 22 137t67 125q31 37 75 58q51 25 120 25q65 0 108 -28q28 -18 46 -46q13 -20 18.5 -45t5.5 -55q0 -20 -3 -43.5t-8 -44.5zM441 259q6 31 8.5 49.5t2.5 42.5q0 62 -40 89q-26 18 -63 18q-25 0 -49 -8
q-39 -15 -70 -53q-35 -44 -54 -124q-16 -63 -16 -114q0 -33 7 -51q10 -31 41 -49q11 -7 26 -11t34 -4q65 0 106 50q25 29 41 78q5 14 13 40.5t13 46.5zM532 660l-21 -83h-86l21 83h86zM368 660l-22 -83h-85l21 83h86z" />
    <glyph glyph-name="divide" unicode="&#xf7;" horiz-adv-x="667" 
d="M428 160q0 -18 -12.5 -31.5t-33.5 -13.5q-20 0 -33 13t-13 32t12.5 32.5t33.5 13.5q20 0 33 -14t13 -32zM428 420q0 -18 -12.5 -31.5t-33.5 -13.5q-20 0 -33 13t-13 32t12.5 32.5t33.5 13.5q20 0 33 -14t13 -32zM713 320v-59h-666v59h666z" />
    <glyph glyph-name="oslash" unicode="&#xf8;" 
d="M549 522l26 -28l-61 -61q9 -17 16.5 -39.5t7.5 -54.5q0 -39 -11.5 -86t-31.5 -93q-32 -74 -72 -111q-61 -58 -157 -58q-52 0 -94 17q-11 5 -24 13t-27 19l-62 -61l-27 26l65 64q-13 21 -17 35q-8 26 -8 60q0 41 15 98q11 44 30 86q33 73 82 111q62 50 150 50q38 0 70 -10
t69 -38zM154 127l289 288q-13 16 -28 25q-25 16 -61 16q-25 0 -49.5 -9t-44.5 -25q-45 -35 -77 -115q-31 -78 -31 -146zM457 377l-289 -290q18 -22 43.5 -32.5t50.5 -10.5q48 0 86 30q42 32 77 118q34 84 34 149z" />
    <glyph glyph-name="ugrave" unicode="&#xf9;" 
d="M562 500l-129 -500h-86l15 57q-79 -65 -172 -65q-57 0 -85 24q-33 28 -33 80q0 20 4.5 43t11.5 50l80 311h85l-84 -324q-6 -24 -8 -34t-2 -26q0 -35 21 -51.5t55 -16.5q36 0 70 16.5t54 40.5q7 8 12.5 18t10.5 23q4 10 7.5 22.5t8.5 28.5l79 303h85zM364 675l62 -130h-62
l-88 130h88z" />
    <glyph glyph-name="uacute" unicode="&#xfa;" 
d="M562 500l-129 -500h-86l15 57q-79 -65 -172 -65q-57 0 -85 24q-33 28 -33 80q0 20 4.5 43t11.5 50l80 311h85l-84 -324q-6 -24 -8 -34t-2 -26q0 -35 21 -51.5t55 -16.5q36 0 70 16.5t54 40.5q7 8 12.5 18t10.5 23q4 10 7.5 22.5t8.5 28.5l79 303h85zM464 675l-88 -130
h-62l63 130h87z" />
    <glyph glyph-name="ucircumflex" unicode="&#xfb;" 
d="M562 500l-129 -500h-86l15 57q-79 -65 -172 -65q-57 0 -85 24q-33 28 -33 80q0 20 4.5 43t11.5 50l80 311h85l-84 -324q-6 -24 -8 -34t-2 -26q0 -35 21 -51.5t55 -16.5q36 0 70 16.5t54 40.5q7 8 12.5 18t10.5 23q4 10 7.5 22.5t8.5 28.5l79 303h85zM458 694l41 -135h-60
l-30 99l-79 -99h-72l111 135h89z" />
    <glyph glyph-name="udieresis" unicode="&#xfc;" 
d="M562 500l-129 -500h-86l15 57q-79 -65 -172 -65q-57 0 -85 24q-33 28 -33 80q0 20 4.5 43t11.5 50l80 311h85l-84 -324q-6 -24 -8 -34t-2 -26q0 -35 21 -51.5t55 -16.5q36 0 70 16.5t54 40.5q7 8 12.5 18t10.5 23q4 10 7.5 22.5t8.5 28.5l79 303h85zM529 660l-21 -83h-86
l21 83h86zM365 660l-22 -83h-85l21 83h86z" />
    <glyph glyph-name="ydieresis" unicode="&#xff;" horiz-adv-x="417" 
d="M431 501h82l-286 -532q-16 -27 -33 -56.5t-27 -42.5q-22 -31 -44 -47q-41 -29 -90 -29q-15 0 -35 3.5t-44 12.5l20 64q19 -8 32 -12t28 -4q24 0 43.5 12t38.5 43q26 43 26 85q0 8 -1 21.5t-4 48.5l-41 433h86l26 -355q0 -20 0.5 -33t1 -22t1 -16t0.5 -14q7 21 17 41.5
t19 38.5zM481 660l-21 -83h-86l21 83h86zM317 660l-22 -83h-85l21 83h86z" />
    <glyph glyph-name="breve" unicode="&#x2d8;" horiz-adv-x="271" 
d="M240 654q-30 -95 -121 -95q-37 0 -60.5 19.5t-23.5 53.5l3 22h46l-2 -16q0 -19 11.5 -29.5t31.5 -10.5q24 0 40 15t26 41h49z" />
    <glyph glyph-name="dotaccent" unicode="&#x2d9;" horiz-adv-x="271" 
d="M189 661l-22 -84h-86l22 84h86z" />
    <glyph glyph-name="dotlessi" unicode="&#x131;" horiz-adv-x="208" 
d="M255 500l-130 -500h-85l130 500h85z" />
    <glyph glyph-name="ring" unicode="&#x2da;" horiz-adv-x="271" 
d="M225 637q0 -20 -7 -37t-19 -30t-28.5 -20t-35.5 -7q-35 0 -60 22q-29 26 -29 66t26.5 65.5t63.5 25.5t63 -24t26 -61zM180 636q-2 17 -14 29.5t-30 12.5t-31.5 -12.5t-13.5 -33.5q0 -18 13 -31t31 -13q21 0 33 14t12 34z" />
    <glyph glyph-name="ogonek" unicode="&#x2db;" horiz-adv-x="271" 
d="M159 9h54l1 -9q-51 -35 -64 -53q-14 -19 -14 -37q0 -16 10.5 -25.5t33.5 -9.5q12 0 21 2t14 3l-15 -56q-14 -3 -25.5 -5t-29.5 -2q-43 0 -66 17t-23 46q0 28 31 63q31 34 72 57v9z" />
    <glyph glyph-name="caron" unicode="&#x2c7;" horiz-adv-x="271" 
d="M57 559l-41 135h60l29 -98l79 98h71l-111 -135h-87z" />
    <glyph glyph-name="uniE001" unicode="&#xe001;" horiz-adv-x="0" 
 />
    <glyph glyph-name="exclam" unicode="!" horiz-adv-x="250" 
d="M197 91l-24 -91h-98l23 91h99zM340 648l-137 -485h-72l111 485h98z" />
    <glyph glyph-name="Scaron" unicode="&#x160;" horiz-adv-x="542" 
d="M294 347q-56 34 -81 63q-46 52 -46 120t40.5 117t120.5 64q31 6 70 6q92 0 148 -38q63 -44 63 -131l-3 -29h-86l1 26q0 65 -44 95q-31 22 -79 22q-66 0 -105 -40q-34 -34 -34 -81q0 -43 33 -77q21 -21 75 -54l33 -19q70 -43 95 -72q46 -52 46 -128q0 -81 -55 -136
q-65 -65 -182 -65q-29 0 -52.5 2.5t-56.5 11.5q-53 14 -82 37q-56 44 -56 125q0 19 1 27.5t4 18.5l88 -6l-3 -35q0 -66 51 -97q41 -26 101 -26q73 0 114 45q33 37 33 87q0 47 -28 81q-12 14 -31.5 28t-58.5 38zM402 760l-41 135h60l29 -98l79 98h71l-111 -135h-87z" />
    <glyph glyph-name="scaron" unicode="&#x161;" horiz-adv-x="417" 
d="M207 249q-19 13 -33 24t-22 21q-29 35 -29 79q0 55 37 92q44 44 129 44q23 0 33.5 -1.5t30.5 -6.5q53 -14 77 -48q20 -29 20 -66l-2 -27l-73 4l2 22q0 19 -7.5 33t-20 23t-28.5 13t-34 4q-36 0 -59.5 -18.5t-23.5 -49.5q0 -29 22 -51q12 -12 56 -42l36 -23q43 -28 60 -50
q28 -34 28 -81q0 -64 -44 -108q-27 -27 -75 -38q-26 -6 -60 -6q-91 0 -138.5 38t-47.5 101l3 30l81 -5l-1 -18q0 -48 30 -72.5t75 -24.5q48 0 74 27q22 22 22 56q0 35 -26 61q-18 17 -61 43zM288 559l-41 135h60l29 -98l79 98h71l-111 -135h-87z" />
    <glyph glyph-name="brokenbar" unicode="&#xa6;" horiz-adv-x="229" 
d="M132 -191v381h60v-381h-60zM192 308h-60v381h60v-381z" />
    <glyph glyph-name="minus" unicode="&#xad;" horiz-adv-x="667" 
d="M714 321v-59h-667v59h667z" />
    <glyph glyph-name="twosuperior" unicode="&#xb2;" horiz-adv-x="333" 
d="M56 206l13 51l54 48q23 20 42 36t35 29l38 31q114 94 114 150q0 32 -19.5 46t-45.5 14q-47 0 -69 -34q-13 -18 -25 -75h-63q9 67 34 99q39 52 125 52q47 0 80 -18q49 -27 49 -87q0 -47 -34 -90q-21 -25 -81 -76l-29 -23l-79 -63l-48 -39h216l-13 -51h-294z" />
    <glyph glyph-name="threesuperior" unicode="&#xb3;" horiz-adv-x="333" 
d="M140 538q7 30 17 48q14 26 41 44q38 23 87 23q52 0 84 -21q39 -26 39 -79q0 -46 -27 -78.5t-75 -42.5q37 -13 53.5 -35.5t16.5 -57.5q0 -54 -36 -91q-44 -47 -125 -47q-62 0 -99 27.5t-37 84.5l1 19h63q0 -46 17.5 -66.5t57.5 -20.5q24 0 39 7q26 10 39.5 35t13.5 55
q0 18 -5 31.5t-17.5 22t-35 13t-58.5 4.5h-15l11 44h15h23q25 0 43 3q36 8 51 26q21 22 21 65q0 60 -60 60q-31 0 -50.5 -16.5t-29.5 -56.5h-63z" />
    <glyph glyph-name="onesuperior" unicode="&#xb9;" horiz-adv-x="333" 
d="M241 206h-64l94 379h-86l11 42q79 7 157 27z" />
    <glyph glyph-name="onequarter" unicode="&#xbc;" horiz-adv-x="792" 
d="M241 206h-64l94 379h-86l11 42q79 7 157 27zM662 647l-410 -647h-54l412 647h52zM744 148h49l-13 -50h-49l-25 -98h-62l25 98h-187l9 37q18 25 44 63.5t60 90.5q35 53 59 91t38 61h73l-102 -155q-20 -30 -54 -78q-14 -20 -24.5 -34.5t-18.5 -25.5h116l41 158l63 5z" />
    <glyph glyph-name="onehalf" unicode="&#xbd;" horiz-adv-x="792" 
d="M241 206h-64l94 380h-86l11 42q79 7 157 27zM648 648l-410 -648h-54l411 648h53zM459 0l13 51q19 19 37 34q27 24 94 79l38 31q114 94 114 150q0 32 -19.5 46t-45.5 14q-47 0 -69 -34q-13 -18 -25 -75h-63q9 67 34 99q39 52 125 52q47 0 80 -18q49 -27 49 -87
q0 -47 -34 -90q-21 -25 -81 -76l-29 -23l-79 -63l-48 -39h216l-13 -51h-294z" />
    <glyph glyph-name="threequarters" unicode="&#xbe;" horiz-adv-x="792" 
d="M140 538q7 30 17 48q14 26 41 44q38 23 87 23q52 0 84 -21q39 -26 39 -79q0 -46 -27 -78.5t-75 -42.5q37 -13 53.5 -35.5t16.5 -57.5q0 -54 -36 -91q-44 -47 -125 -47q-62 0 -99 27.5t-37 84.5l1 19h63q0 -46 17.5 -66.5t57.5 -20.5q24 0 39 7q26 10 39.5 35t13.5 55
q0 18 -5 31.5t-17.5 22t-35 13t-58.5 4.5h-15l11 44h15h23q25 0 43 3q36 8 51 26q21 22 21 65q0 60 -60 60q-31 0 -50.5 -16.5t-29.5 -56.5h-63zM705 648l-410 -648h-54l412 648h52zM744 148h49l-13 -50h-49l-25 -98h-62l25 98h-187l9 37q20 28 45.5 66t57.5 86
q34 52 58.5 90.5t39.5 64.5h73l-102 -156q-20 -30 -54 -78q-14 -20 -24.5 -34.5t-18.5 -25.5h116l41 159l63 4z" />
    <glyph glyph-name="Eth" unicode="&#xd0;" horiz-adv-x="688" 
d="M54 0l90 345h-74l16 60h73l78 301h196q31 0 56 -1t46.5 -4.5t40.5 -9.5t37 -15q66 -36 91 -109q14 -44 14 -101q0 -36 -5.5 -75.5t-15.5 -79t-25 -77.5t-34 -71q-59 -105 -153 -139q-63 -24 -179 -24h-252zM239 345l-73 -282h112q118 0 169 23q62 28 109 121
q31 58 48 134q18 75 18 135q0 43 -9 70q-18 52 -69 78q-23 11 -52 14.5t-78 3.5h-98l-61 -237h180l-16 -60h-180z" />
    <glyph glyph-name="multiply" unicode="&#xd7;" horiz-adv-x="667" 
d="M630 83l-42 -41l-208 207l-207 -207l-42 41l207 208l-207 206l42 42l207 -207l208 207l42 -42l-208 -206z" />
    <glyph glyph-name="Yacute" unicode="&#xdd;" 
d="M700 706l-343 -447l-67 -259h-93l68 259l-126 447h99l74 -287l20 -74l55 74l214 287h99zM455 881h86l-88 -130h-60z" />
    <glyph glyph-name="Thorn" unicode="&#xde;" horiz-adv-x="542" 
d="M189 144l-38 -144h-97l183 706h97l-33 -126h59q80 0 120 -8q39 -8 73 -37q30 -27 42 -67q8 -29 8 -64q0 -69 -28 -126q-28 -58 -70.5 -88t-100.5 -40q-35 -6 -98 -6h-117zM284 516l-79 -307h79h17q19 0 43.5 0.5t48.5 9.5q66 22 96 90q20 48 20 94q0 36 -14 62
q-13 25 -41 38q-27 13 -113 13h-57z" />
    <glyph glyph-name="eth" unicode="&#xf0;" 
d="M547 583h-68q13 -29 22 -55t16 -49q17 -65 17 -128q0 -48 -10 -102.5t-32 -105.5q-28 -63 -67 -97q-62 -55 -160 -55q-88 0 -138 43q-54 46 -54 130q0 116 56 214q73 130 211 130q32 0 56 -6q10 -3 36 -12q-10 52 -37 93h-142l-11 45h128q-12 25 -25.5 43t-29.5 35h90
q7 -9 12.5 -16.5t9.5 -12.5q16 -22 30 -49h79zM441 259q5 23 8 49.5t3 41.5q0 62 -40 89q-26 18 -63 18q-88 0 -139 -92q-50 -92 -50 -207q0 -19 2.5 -32.5t9.5 -28.5q12 -24 37 -38.5t59 -14.5q60 0 98 41q48 51 75 174z" />
    <glyph glyph-name="yacute" unicode="&#xfd;" horiz-adv-x="417" 
d="M431 501h82l-286 -532q-16 -27 -33 -56.5t-27 -42.5q-22 -31 -44 -47q-41 -29 -90 -29q-15 0 -35 3.5t-44 12.5l20 64q19 -8 32 -12t28 -4q24 0 43.5 12t38.5 43q26 43 26 85q0 8 -1 21.5t-4 48.5l-41 433h86l26 -355q0 -20 0.5 -33t1 -22t1 -16t0.5 -14q7 21 17 41.5
t19 38.5zM358 554h-62l63 130h87z" />
    <glyph glyph-name="thorn" unicode="&#xfe;" 
d="M75 -206h-86l236 912h86l-68 -263q23 18 37 27t32 17q24 11 49.5 16.5t44.5 5.5q53 0 88 -29q45 -38 45 -120q0 -69 -26 -155q-26 -85 -65 -133q-36 -45 -81 -64q-42 -17 -89 -17q-57 0 -95 22q-21 12 -42 36zM172 168q-1 -3 -2.5 -9.5t-3.5 -16.5q-4 -17 -4 -25
q0 -17 8 -31t22 -24.5t31.5 -16.5t37.5 -6q47 0 85 33q19 16 39 51q16 27 28 58.5t22 68.5q16 61 16 108q0 58 -33 84q-20 16 -50 16q-42 0 -82 -31q-58 -43 -67 -75z" />
    <glyph glyph-name="Lslash" unicode="&#x141;" horiz-adv-x="500" 
d="M496 69l-18 -69h-424l77 296l-90 -64l23 90l90 62l83 322h97l-62 -240l155 106l-23 -88l-155 -106l-80 -309h327z" />
    <glyph glyph-name="lslash" unicode="&#x142;" horiz-adv-x="208" 
d="M223 378l-97 -378h-85l79 308l-73 -50l18 69l73 51l84 328h85l-65 -256l73 51l-18 -69z" />
    <glyph glyph-name="fraction" unicode="&#x2215;" horiz-adv-x="125" 
d="M342 706l-449 -706h-45l448 706h46z" />
    <glyph glyph-name="fi" unicode="&#xf001;" horiz-adv-x="500" 
d="M282 452l-117 -452h-86l117 452h-79l12 48h79l19 74q16 60 40 90q40 51 116 51q31 0 52 -7q7 -2 15 -5.5t18 -8.5l-14 -53q-12 5 -28 10.5t-28 5.5q-42 0 -64 -36q-14 -23 -27 -74l-12 -47h94l-12 -48h-95zM546 500l-129 -500h-85l129 500h85zM597 695l-22 -84h-85l21 84
h86z" />
    <glyph glyph-name="fl" unicode="&#xf002;" horiz-adv-x="500" 
d="M282 452l-117 -452h-86l117 452h-79l12 48h79l19 74q16 60 40 90q40 51 116 51q31 0 52 -7q7 -2 15 -5.5t18 -8.5l-14 -53q-12 5 -28 10.5t-28 5.5q-42 0 -64 -36q-14 -23 -27 -74l-12 -47h94l-12 -48h-95zM598 706l-180 -706h-85l180 706h85z" />
    <glyph glyph-name="Zcaron" unicode="&#x17d;" horiz-adv-x="562" 
d="M567 70l-18 -70h-549l17 65l515 574h-377l18 67h493l-17 -67l-512 -569h430zM412 760l-41 135h60l29 -98l79 98h71l-111 -135h-87z" />
    <glyph glyph-name="zcaron" unicode="&#x17e;" horiz-adv-x="437" 
d="M413 59l-16 -59h-397l17 53l369 390h-263l14 57h364l-14 -57l-366 -384h292zM299 559l-41 135h60l29 -98l79 98h71l-111 -135h-87z" />
    <glyph glyph-name="uni20AC" horiz-adv-x="500" 
d="M584 532q-53 66 -115 66q-84 0 -129 -53q-35 -43 -62 -145h236l-29 -53h-218l-18 -84h191l-29 -53h-173q-6 -29 -6 -52q0 -109 113 -109q27 0 75 17q46 18 71 35l-15 -72q-84 -37 -142 -37q-85 0 -134 36q-55 42 -55 124q0 33 5 58h-85l28 53h67l18 84h-84l28 53h68
q60 256 281 256q83 0 150 -55z" />
    <glyph glyph-name="uni20AC" unicode="&#x20ac;" horiz-adv-x="500" 
d="M584 532q-53 66 -115 66q-84 0 -129 -53q-35 -43 -62 -145h236l-29 -53h-218l-18 -84h191l-29 -53h-173q-6 -29 -6 -52q0 -109 113 -109q27 0 75 17q46 18 71 35l-15 -72q-84 -37 -142 -37q-85 0 -134 36q-55 42 -55 124q0 33 5 58h-85l28 53h67l18 84h-84l28 53h68
q60 256 281 256q83 0 150 -55z" />
    <glyph glyph-name="Dcroat" unicode="&#x110;" horiz-adv-x="688" 
d="M54 0l90 345h-74l16 60h73l78 301h196q31 0 56 -1t46.5 -4.5t40.5 -9.5t37 -15q66 -36 91 -109q14 -44 14 -101q0 -36 -5.5 -75.5t-15.5 -79t-25 -77.5t-34 -71q-59 -105 -153 -139q-63 -24 -179 -24h-252zM239 345l-73 -282h112q118 0 169 23q62 28 109 121
q31 58 48 134q18 75 18 135q0 43 -9 70q-18 52 -69 78q-23 11 -52 14.5t-78 3.5h-98l-61 -237h180l-16 -60h-180z" />
    <glyph glyph-name="dcroat" unicode="&#x111;" 
d="M652 628l-17 -66h-54l-145 -562h-86l13 47q-14 -11 -27 -20t-25 -15q-44 -21 -93 -21q-62 0 -100 34q-47 41 -47 123q0 117 55 220q75 141 217 141q49 0 86 -17q10 -5 20 -12t21 -17l25 99h-153l17 66h153l21 78h85l-20 -78h54zM458 416l-11 12q-32 32 -84 32
q-94 0 -154 -118q-50 -98 -50 -195q0 -46 20.5 -75.5t65.5 -29.5q18 0 33 4t32 13q42 23 64 59q12 21 24 65z" />
    <glyph glyph-name="Abreve" unicode="&#x102;" horiz-adv-x="646" 
d="M624 0h-92l-29 271h-259l-169 -271h-96l452 707h114zM496 337l-23 220l-6 70l-34 -57l-147 -233h210zM692 898q-47 -148 -189 -148q-57 0 -94 31t-37 85l4 32h73l-3 -25q0 -29 18 -45.5t47 -16.5q38 0 64 22.5t40 64.5h77z" />
    <glyph glyph-name="abreve" unicode="&#x103;" horiz-adv-x="479" 
d="M431 0h-58q-27 0 -36.5 10.5t-9.5 41.5q-55 -61 -144 -61q-29 -2 -54 7.5t-42 26.5t-26 40t-7 47q0 85 67 131q48 33 270 59l9 32q5 23 7 32t2 22q0 72 -86 72q-23 0 -45 -6.5t-44 -27.5q-15 -15 -24 -35q-5 -9 -12 -36h-84q4 16 8.5 30t10.5 25q19 38 55 63
q52 36 141 36q67 0 110 -23q55 -30 55 -93q0 -9 -0.5 -15t-1.5 -10t-2.5 -12t-4.5 -21l-62 -242q-4 -15 -6.5 -27t-2.5 -22q0 -17 8 -25q6 -6 13 -7zM380 255q-22 0 -46.5 -2.5t-50.5 -7.5t-47 -11.5t-35 -14.5q-59 -32 -59 -102q0 -31 17.5 -51.5t54.5 -20.5q31 0 58 13
q30 14 45.5 29.5t23.5 32.5q2 6 6.5 19t10.5 33zM547 702q-47 -148 -189 -148q-57 0 -94 31t-37 85l4 32h73l-3 -25q0 -29 18 -45.5t47 -16.5q38 0 64 22.5t40 64.5h77z" />
    <glyph glyph-name="Itilde" unicode="&#x128;" horiz-adv-x="250" 
d="M336 706l-187 -706h-95l183 706h99zM455 878l-13 -51q-14 -47 -29.5 -61t-38.5 -14q-10 0 -19 2.5t-19 7.5q-5 2 -14 7.5t-22 14.5l-25 20q-33 21 -41 21q-11 0 -15 -8t-12 -36l-6 -25h-61l11 39q14 46 22 60q18 26 51 26q19 0 43 -12q4 -2 11.5 -7.5t17.5 -11.5l30 -23
q15 -9 24 -14.5t12 -5.5q9 0 13.5 8.5t12.5 34.5l6 28h61z" />
    <glyph glyph-name="itilde" unicode="&#x129;" horiz-adv-x="208" 
d="M255 500l-130 -500h-85l130 500h85zM385 682l-14 -52q-12 -48 -27.5 -62t-40.5 -14q-8 0 -17 3t-19 7q-5 2 -14 7.5t-23 14.5l-26 20q-30 21 -40 21t-14 -7.5t-12 -36.5l-7 -26h-61l12 40q5 22 11 36.5t11 24.5q8 11 20.5 18t29.5 7q11 0 21 -3.5t21 -8.5q5 -2 12.5 -6.5
t18.5 -12.5l30 -22q28 -20 36 -20q9 0 13 8t12 35l5 29h62z" />
    <glyph glyph-name="Utilde" unicode="&#x168;" horiz-adv-x="667" 
d="M668 706h86l-125 -481q-23 -75 -39 -108q-32 -59 -85 -90q-64 -37 -172 -37q-51 0 -87.5 7.5t-67.5 24.5q-43 25 -61 65q-13 27 -13 67q0 14 1.5 27.5t3.5 27.5l14 62l112 435h98l-108 -415q-11 -45 -17 -75.5t-6 -51.5q0 -18 3.5 -34t13.5 -29q14 -21 48 -34.5t79 -13.5
q28 0 50.5 4t44.5 16q48 25 75 81q9 19 20 52.5t24 83.5zM672 878l-13 -51q-14 -47 -29.5 -61t-38.5 -14q-10 0 -19 2.5t-19 7.5q-5 2 -14 7.5t-22 14.5l-25 20q-33 21 -41 21q-11 0 -15 -8t-12 -36l-6 -25h-61l11 39q14 46 22 60q18 26 51 26q19 0 43 -12q4 -2 11.5 -7.5
t17.5 -11.5l30 -23q15 -9 24 -14.5t12 -5.5q9 0 13.5 8.5t12.5 34.5l6 28h61z" />
    <glyph glyph-name="utilde" unicode="&#x169;" 
d="M562 500l-129 -500h-86l15 57q-80 -66 -172 -66q-57 0 -85 25q-33 28 -33 80q0 20 4.5 43t11.5 50l80 311h85l-84 -324q-6 -24 -8 -34t-2 -26q0 -35 21 -51.5t55 -16.5q36 0 70 16.5t54 40.5q7 8 12.5 18t10.5 23q4 10 7.5 22.5t8.5 28.5l79 303h85zM539 682l-14 -52
q-12 -48 -27.5 -62t-40.5 -14q-8 0 -17 3t-19 7q-5 2 -14 7.5t-23 14.5l-26 20q-30 21 -40 21t-14 -7.5t-12 -36.5l-7 -26h-61l12 40q5 22 11 36.5t11 24.5q8 11 20.5 18t29.5 7q11 0 21 -3.5t21 -8.5q5 -2 12.5 -6.5t18.5 -12.5l30 -22q28 -20 36 -20q9 0 13 8t12 35l5 29
h62z" />
    <glyph glyph-name="Ohorn" unicode="&#x1a0;" horiz-adv-x="688" 
d="M782 731q4 -11 1 -17.5t-11 -14.5l-84 -68q18 -23 28 -53q11 -36 11 -82q0 -15 -1 -30.5t-3.5 -34t-7.5 -42t-12 -53.5q-11 -48 -23.5 -86t-25.5 -68q-46 -106 -119.5 -149t-174.5 -43q-114 0 -180 48q-79 57 -79 177q0 32 6 71t17 87q10 41 21 75t23 63q44 102 112 151
q76 55 196 55q60 0 104 -13.5t77 -40.5q3 -2 8 -7l62 76l7 8q11 11 22 9.5t19 -9.5zM605 349q11 42 18 81t7 78q0 25 -3.5 43.5t-12.5 36.5q-14 22 -33 39q-42 33 -106 33q-48 0 -86.5 -17t-70.5 -55q-53 -64 -89 -199q-30 -113 -30 -184q0 -64 27 -100q20 -29 55 -42.5
t77 -13.5q103 0 162 80q44 60 85 220z" />
    <glyph glyph-name="Uhorn" unicode="&#x1af;" horiz-adv-x="667" 
d="M854 730q5 -10 2 -16.5t-11 -14.5l-117 -93l-99 -381q-23 -75 -39 -108q-32 -59 -85 -90q-64 -37 -172 -37q-51 0 -87.5 7.5t-67.5 24.5q-43 25 -61 65q-13 27 -13 67q0 14 1.5 27.5t3.5 27.5l14 62l112 435h98l-108 -415q-11 -45 -17 -75.5t-6 -51.5q0 -18 3.5 -34
t13.5 -29q14 -21 48 -34.5t79 -13.5q28 0 50.5 4t44.5 16q48 25 75 81q9 19 20 52.5t24 83.5l108 416h86l-11 -43l56 69l7 8q11 11 22.5 9.5t19.5 -9.5z" />
    <glyph glyph-name="ohorn" unicode="&#x1a1;" 
d="M601 532q4 -11 1 -17.5t-11 -14.5l-77 -64q13 -20 18.5 -45t5.5 -55q0 -20 -3 -43.5t-8 -44.5q-27 -132 -90 -194.5t-169 -62.5q-88 0 -140 44.5t-52 129.5q0 65 22 137t67 125q31 37 75 58q51 25 120 25q65 0 108 -28q5 -4 10 -7.5t10 -8.5l58 67l6 8q11 11 22.5 9.5
t19.5 -9.5zM444 259q6 31 8.5 49.5t2.5 42.5q0 62 -40 89q-26 18 -63 18q-25 0 -49 -8q-39 -15 -70 -53q-35 -44 -54 -124q-16 -63 -16 -114q0 -33 7 -51q10 -31 41 -49q11 -7 26 -11t34 -4q65 0 106 50q25 29 41 78q5 14 13 40.5t13 46.5z" />
    <glyph glyph-name="uhorn" unicode="&#x1b0;" 
d="M670 531q4 -10 1 -16.5t-11 -14.5l-124 -100l-103 -400h-86l15 57q-80 -66 -172 -66q-57 0 -85 25q-33 28 -33 80q0 20 4.5 43t11.5 50l80 311h85l-84 -324q-6 -24 -8 -34t-2 -26q0 -35 21 -51.5t55 -16.5q36 0 70 16.5t54 40.5q7 8 12.5 18t10.5 23q4 10 7.5 22.5
t8.5 28.5l79 303h85l-11 -43l64 76l6 8q11 11 22.5 9.5t19.5 -9.5z" />
    <glyph glyph-name="uni1EA0" unicode="&#x1ea0;" horiz-adv-x="646" 
d="M377 -45l-31 -113h-118l30 113h119zM545 707l79 -707h-92l-29 271h-259l-169 -271h-96l452 707h114zM286 337h210l-23 220l-6 70l-34 -57z" />
    <glyph glyph-name="uni1EA2" unicode="&#x1ea2;" horiz-adv-x="646" 
d="M480 752l9 39q-3 -1 10.5 1.5t30 11t31 23t14.5 37.5q0 7 -5 12t-16 5t-16 -1.5t-7.5 -4.5t-3.5 -7.5t-3 -9.5l-5 -24h-56l5 22q6 25 27.5 45t71.5 20q32 0 49.5 -13t17.5 -37q0 -18 -8.5 -34t-22 -28t-30.5 -20t-33 -11l-7 -26h-53zM545 707l79 -707h-92l-29 271h-259
l-169 -271h-96l452 707h114zM286 337h210l-23 220l-6 70l-34 -57z" />
    <glyph glyph-name="uni1EA4" unicode="&#x1ea4;" horiz-adv-x="646" 
d="M751 968l-89 -129h-60l63 129h86zM563 882l39 -130h-57l-28 94l-77 -94h-67l106 130h84zM545 707l79 -707h-92l-29 271h-259l-169 -271h-96l452 707h114zM286 337h210l-23 220l-6 70l-34 -57z" />
    <glyph glyph-name="uni1EA6" unicode="&#x1ea6;" horiz-adv-x="646" 
d="M615 972l63 -130h-60l-89 130h86zM564 882l39 -130h-57l-28 94l-75 -94h-69l107 130h83zM545 707l79 -707h-92l-29 271h-259l-169 -271h-96l452 707h114zM286 337h210l-23 220l-6 70l-34 -57z" />
    <glyph glyph-name="uni1EA8" unicode="&#x1ea8;" horiz-adv-x="646" 
d="M561 882l39 -130h-58l-27 94l-76 -94h-68l106 130h84zM545 707l79 -707h-92l-29 271h-259l-169 -271h-96l452 707h114zM286 337h210l-23 220l-6 70l-34 -57zM618 812l9 39q10 1 21 5q9 3 20.5 8.5t23.5 15.5q7 7 12 15.5t7 18.5q3 10 0 18.5t-19 8.5q-12 0 -16.5 -2.5
t-5.5 -3.5q-2 -2 -4 -6t-4 -11l-5 -24h-56l5 22q4 16 9 24q7 15 24 25q11 8 29 12t37 4q35 0 52 -15q20 -16 14 -50q-9 -35 -39 -54q-26 -18 -54 -24l-7 -26h-53z" />
    <glyph glyph-name="uni1EAA" unicode="&#x1eaa;" horiz-adv-x="646" 
d="M602 752h-57l-28 94l-75 -94h-69l107 130h84zM624 0h-92l-29 271h-259l-169 -271h-96l452 707h114zM496 337l-23 220l-6 70l-34 -57l-147 -233h210zM706 1035l-13 -51q-14 -47 -29.5 -61t-38.5 -14q-10 0 -19 2.5t-19 7.5q-5 2 -14 7.5t-22 14.5l-25 20q-33 21 -41 21
q-11 0 -15 -8t-12 -36l-6 -25h-61l11 39q14 46 22 60q18 26 51 26q19 0 43 -12q4 -2 11.5 -7.5t17.5 -11.5l30 -23q15 -9 24 -14.5t12 -5.5q9 0 13.5 8.5t12.5 34.5l6 28h61z" />
    <glyph glyph-name="uni1EAC" unicode="&#x1eac;" horiz-adv-x="646" 
d="M431 707h114l79 -707h-92l-29 271h-259l-169 -271h-96zM433 570l-147 -233h210l-23 220l-6 70zM487 882h84l38 -130h-58l-27 94l-76 -94h-68zM346 -158h-118l30 113h119z" />
    <glyph glyph-name="uni1EA1" unicode="&#x1ea1;" horiz-adv-x="479" 
d="M431 0h-58q-27 0 -36.5 10.5t-9.5 41.5q-55 -61 -144 -61q-29 -2 -54 7.5t-42 26.5t-26 40t-7 47q0 85 67 131q48 33 270 59l9 32q5 23 7 32t2 22q0 72 -86 72q-23 0 -45 -6.5t-44 -27.5q-15 -15 -24 -35q-5 -9 -12 -36h-84q4 16 8.5 30t10.5 25q19 38 55 63
q52 36 141 36q67 0 110 -23q55 -30 55 -93q0 -9 -0.5 -15t-1.5 -10t-2.5 -12t-4.5 -21l-62 -242q-4 -15 -6.5 -27t-2.5 -22q0 -17 8 -25q6 -6 13 -7zM380 255q-22 0 -46.5 -2.5t-50.5 -7.5t-47 -11.5t-35 -14.5q-59 -32 -59 -102q0 -31 17.5 -51.5t54.5 -20.5q31 0 58 13
q30 14 45.5 29.5t23.5 32.5q2 6 6.5 19t10.5 33zM290 -168h-118l30 113h119z" />
    <glyph glyph-name="uni1EA3" unicode="&#x1ea3;" horiz-adv-x="479" 
d="M342 554l9 39q10 1 21 5q9 3 20.5 8.5t23.5 15.5q7 6 12 15t7 18q3 10 0 19t-19 9q-12 0 -16.5 -3t-5.5 -5q-4 -2 -8 -17l-5 -22h-56l5 22q2 8 4 13.5t5 10.5q6 13 24 25q11 8 29 12t37 4q34 0 52 -15q20 -19 14 -52q-5 -15 -14.5 -28.5t-24.5 -23.5q-26 -20 -54 -24
l-7 -26h-53zM435 12l-4 -12h-58q-27 0 -36.5 10.5t-9.5 41.5q-55 -61 -144 -61q-29 -2 -54 7.5t-42 26.5t-26 40t-7 47q0 85 67 131q48 33 270 59l9 32q5 23 7 32t2 22q0 72 -86 72q-23 0 -45 -6.5t-44 -27.5q-15 -15 -24 -35q-5 -9 -12 -36h-84q4 16 8.5 30t10.5 25
q19 38 55 63q52 36 141 36q67 0 110 -23q55 -30 55 -93q0 -9 -0.5 -15t-1.5 -10t-2.5 -12t-4.5 -21l-62 -242q-4 -15 -6.5 -27t-2.5 -22q0 -17 8 -25q6 -6 13 -7zM358 172l22 83q-22 0 -46.5 -2.5t-50.5 -7.5t-47 -11.5t-35 -14.5q-59 -32 -59 -102q0 -31 17.5 -51.5
t54.5 -20.5q31 0 58 13q30 14 45.5 29.5t23.5 32.5q2 6 6.5 19t10.5 33z" />
    <glyph glyph-name="uni1EA5" unicode="&#x1ea5;" horiz-adv-x="479" 
d="M521 641h-61l62 129h86zM460 554h-58l-28 95l-75 -95h-69l107 130h84zM431 0h-58q-27 0 -36.5 10.5t-9.5 41.5q-55 -61 -144 -61q-29 -2 -54 7.5t-42 26.5t-26 40t-7 47q0 85 67 131q48 33 270 59l9 32q5 23 7 32t2 22q0 72 -86 72q-23 0 -45 -6.5t-44 -27.5
q-15 -15 -24 -35q-5 -9 -12 -36h-84q4 16 8.5 30t10.5 25q19 38 55 63q52 36 141 36q67 0 110 -23q55 -30 55 -93q0 -9 -0.5 -15t-1.5 -10t-2.5 -12t-4.5 -21l-62 -242q-4 -15 -6.5 -27t-2.5 -22q0 -17 8 -25q6 -6 13 -7zM380 255q-22 0 -46.5 -2.5t-50.5 -7.5t-47 -11.5
t-35 -14.5q-59 -32 -59 -102q0 -31 17.5 -51.5t54.5 -20.5q31 0 58 13q30 14 45.5 29.5t23.5 32.5q2 6 6.5 19t10.5 33z" />
    <glyph glyph-name="uni1EA7" unicode="&#x1ea7;" horiz-adv-x="479" 
d="M539 644h-60l-89 130h87zM465 554h-58l-27 94l-76 -94h-68l106 130h84zM431 0h-58q-27 0 -36.5 10.5t-9.5 41.5q-56 -60 -144 -60q-29 -3 -54 6.5t-42 26.5t-26 40t-7 47q0 85 67 131q48 33 270 59l9 32q5 23 7 32t2 22q0 72 -86 72q-23 0 -45 -6.5t-44 -27.5
q-15 -15 -24 -35q-5 -9 -12 -36h-84q4 16 8.5 30t10.5 25q19 38 55 63q52 36 141 36q67 0 110 -23q55 -30 55 -93q0 -9 -0.5 -15t-1.5 -10t-2.5 -12t-4.5 -21l-62 -242q-4 -15 -6.5 -27t-2.5 -22q0 -17 8 -25q6 -6 13 -7zM380 255q-22 0 -46.5 -2.5t-50.5 -7.5t-47 -11.5
t-35 -14.5q-59 -32 -59 -102q0 -31 17.5 -51.5t54.5 -20.5q31 0 58 13q30 14 45.5 29.5t23.5 32.5q2 6 6.5 19t10.5 33z" />
    <glyph glyph-name="uni1EA9" unicode="&#x1ea9;" horiz-adv-x="479" 
d="M435 12l-4 -12h-58q-27 0 -36.5 10.5t-9.5 41.5q-56 -60 -144 -60q-29 -3 -54 6.5t-42 26.5t-26 40t-7 47q0 85 67 131q48 33 270 59l9 32q5 23 7 32t2 22q0 72 -86 72q-23 0 -45 -6.5t-44 -27.5q-15 -15 -24 -35q-5 -9 -12 -36h-84q4 16 8.5 30t10.5 25q19 38 55 63
q52 36 141 36q67 0 110 -23q55 -30 55 -93q0 -9 -0.5 -15t-1.5 -10t-2.5 -12t-4.5 -21l-62 -242q-4 -15 -6.5 -27t-2.5 -22q0 -17 8 -25q6 -6 13 -7zM358 172l22 83q-22 0 -46.5 -2.5t-50.5 -7.5t-47 -11.5t-35 -14.5q-59 -32 -59 -102q0 -31 17.5 -51.5t54.5 -20.5
q31 0 58 13q30 14 45.5 29.5t23.5 32.5q2 6 6.5 19t10.5 33zM422 684l39 -130h-58l-27 94l-76 -94h-68l106 130h84zM479 614l9 39q10 1 21 5q9 3 20.5 8.5t23.5 15.5q7 7 12 15.5t7 18.5q3 10 0 18.5t-19 8.5q-12 0 -16.5 -2.5t-5.5 -3.5q-2 -2 -4 -6t-4 -11l-5 -24h-56
l5 22q4 16 9 24q7 15 24 25q11 8 29 12t37 4q35 0 52 -15q20 -16 14 -50q-9 -35 -39 -54q-26 -18 -54 -24l-7 -26h-53z" />
    <glyph glyph-name="uni1EAB" unicode="&#x1eab;" horiz-adv-x="479" 
d="M431 0h-58q-27 0 -36.5 10.5t-9.5 41.5q-56 -60 -144 -60q-29 -3 -54 6.5t-42 26.5t-26 40t-7 47q0 85 67 131q48 33 270 59l9 32q5 23 7 32t2 22q0 72 -86 72q-23 0 -45 -6.5t-44 -27.5q-15 -15 -24 -35q-5 -9 -12 -36h-84q4 16 8.5 30t10.5 25q19 38 55 63
q52 36 141 36q67 0 110 -23q55 -30 55 -93q0 -9 -0.5 -15t-1.5 -10t-2.5 -12t-4.5 -21l-62 -242q-4 -15 -6.5 -27t-2.5 -22q0 -17 8 -25q6 -6 13 -7zM380 255q-22 0 -46.5 -2.5t-50.5 -7.5t-47 -11.5t-35 -14.5q-59 -32 -59 -102q0 -31 17.5 -51.5t54.5 -20.5q31 0 58 13
q30 14 45.5 29.5t23.5 32.5q2 6 6.5 19t10.5 33zM464 554h-57l-28 94l-75 -94h-69l107 130h84zM568 837l-13 -51q-14 -47 -29.5 -61t-38.5 -14q-10 0 -19 2.5t-19 7.5q-5 2 -14 7.5t-22 14.5l-25 20q-33 21 -41 21q-11 0 -15 -8t-12 -36l-6 -25h-61l11 39q14 46 22 60
q18 26 51 26q19 0 43 -12q4 -2 11.5 -7.5t17.5 -11.5l30 -23q15 -9 24 -14.5t12 -5.5q9 0 13.5 8.5t12.5 34.5l6 28h61z" />
    <glyph glyph-name="uni1EAD" unicode="&#x1ead;" horiz-adv-x="479" 
d="M431 0h-58q-27 0 -36.5 10.5t-9.5 41.5q-56 -60 -144 -60q-29 -3 -54 6.5t-42 26.5t-26 40t-7 47q0 85 67 131q48 33 270 59l9 32q5 23 7 32t2 22q0 72 -86 72q-23 0 -45 -6.5t-44 -27.5q-15 -15 -24 -35q-5 -9 -12 -36h-84q4 16 8.5 30t10.5 25q19 38 55 63
q52 36 141 36q67 0 110 -23q55 -30 55 -93q0 -9 -0.5 -15t-1.5 -10t-2.5 -12t-4.5 -21l-62 -242q-4 -15 -6.5 -27t-2.5 -22q0 -17 8 -25q6 -6 13 -7zM380 255q-22 0 -46.5 -2.5t-50.5 -7.5t-47 -11.5t-35 -14.5q-59 -32 -59 -102q0 -31 17.5 -51.5t54.5 -20.5q31 0 58 13
q30 14 45.5 29.5t23.5 32.5q2 6 6.5 19t10.5 33zM434 684l39 -130h-57l-29 95l-76 -95h-69l106 130h86zM290 -168h-118l30 113h119z" />
    <glyph glyph-name="uni1EAE" unicode="&#x1eae;" horiz-adv-x="646" 
d="M561 905h-60l62 130h87zM624 0h-92l-29 271h-259l-169 -271h-96l452 707h114zM496 337l-23 220l-6 70l-34 -57l-147 -233h210zM692 898q-47 -148 -189 -148q-57 0 -94 31t-37 85l4 32h73l-3 -25q0 -29 18 -45.5t47 -16.5q38 0 64 22.5t40 64.5h77z" />
    <glyph glyph-name="uni1EB0" unicode="&#x1eb0;" horiz-adv-x="646" 
d="M565 903h-61l-87 130h86zM624 0h-92l-29 271h-259l-169 -271h-96l452 707h114zM496 337l-23 220l-6 70l-34 -57l-147 -233h210zM692 898q-47 -148 -189 -148q-57 0 -94 31t-37 85l4 32h73l-3 -25q0 -29 18 -45.5t47 -16.5q38 0 64 22.5t40 64.5h77z" />
    <glyph glyph-name="uni1EB2" unicode="&#x1eb2;" horiz-adv-x="646" 
d="M545 707l79 -707h-92l-29 271h-259l-169 -271h-96l452 707h114zM286 337h210l-23 220l-6 70l-34 -57zM502 903l9 39q10 1 21 5q9 3 20.5 8.5t23.5 15.5q7 7 12 15.5t7 18.5q3 10 0 18.5t-19 8.5q-12 0 -16.5 -2.5t-5.5 -3.5q-2 -2 -4 -6t-4 -11l-5 -24h-56l5 22
q4 16 9 24q7 15 24 25q11 8 29 12t37 4q35 0 52 -15q20 -16 14 -50q-9 -35 -39 -54q-26 -18 -54 -24l-7 -26h-53zM692 898q-47 -148 -189 -148q-57 0 -94 31t-37 85l4 32h73l-3 -25q0 -29 18 -45.5t47 -16.5q38 0 64 22.5t40 64.5h77z" />
    <glyph glyph-name="uni1EB4" unicode="&#x1eb4;" horiz-adv-x="646" 
d="M692 898q-47 -148 -189 -148q-57 0 -94 31t-37 85l4 32h73l-3 -25q0 -29 18 -45.5t47 -16.5q38 0 64 22.5t40 64.5h77zM624 0h-92l-29 271h-259l-169 -271h-96l452 707h114zM496 337l-23 220l-6 70l-34 -57l-147 -233h210zM701 1050l-13 -51q-14 -47 -29.5 -61t-38.5 -14
q-10 0 -19 2.5t-19 7.5q-5 2 -14 7.5t-22 14.5l-25 20q-33 21 -41 21q-11 0 -15 -8t-12 -36l-6 -25h-61l11 39q14 46 22 60q18 26 51 26q19 0 43 -12q4 -2 11.5 -7.5t17.5 -11.5l30 -23q15 -9 24 -14.5t12 -5.5q9 0 13.5 8.5t12.5 34.5l6 28h61z" />
    <glyph glyph-name="uni1EB6" unicode="&#x1eb6;" horiz-adv-x="646" 
d="M545 707l79 -707h-92l-29 271h-259l-169 -271h-96l452 707h114zM286 337h210l-23 220l-6 70l-34 -57zM692 898q-47 -148 -189 -148q-57 0 -94 31t-37 85l4 32h73l-3 -25q0 -29 18 -45.5t47 -16.5q38 0 64 22.5t40 64.5h77zM346 -158h-118l30 113h119z" />
    <glyph glyph-name="uni1EAF" unicode="&#x1eaf;" horiz-adv-x="479" 
d="M431 0h-58q-27 0 -36.5 10.5t-9.5 41.5q-55 -61 -144 -61q-29 -2 -54 7.5t-42 26.5t-26 40t-7 47q0 85 67 131q48 33 270 59l9 32q5 23 7 32t2 22q0 72 -86 72q-23 0 -45 -6.5t-44 -27.5q-15 -15 -24 -35q-5 -9 -12 -36h-84q4 16 8.5 30t10.5 25q19 38 55 63
q52 36 141 36q67 0 110 -23q55 -30 55 -93q0 -9 -0.5 -15t-1.5 -10t-2.5 -12t-4.5 -21l-62 -242q-4 -15 -6.5 -27t-2.5 -22q0 -17 8 -25q6 -6 13 -7zM380 255q-22 0 -46.5 -2.5t-50.5 -7.5t-47 -11.5t-35 -14.5q-59 -32 -59 -102q0 -31 17.5 -51.5t54.5 -20.5q31 0 58 13
q30 14 45.5 29.5t23.5 32.5q2 6 6.5 19t10.5 33zM416 709h-60l62 130h87zM547 702q-47 -148 -189 -148q-57 0 -94 31t-37 85l4 32h73l-3 -25q0 -29 18 -45.5t47 -16.5q38 0 64 22.5t40 64.5h77z" />
    <glyph glyph-name="uni1EB1" unicode="&#x1eb1;" horiz-adv-x="479" 
d="M431 0h-58q-27 0 -36.5 10.5t-9.5 41.5q-55 -61 -144 -61q-29 -2 -54 7.5t-42 26.5t-26 40t-7 47q0 85 67 131q48 33 270 59l9 32q5 23 7 32t2 22q0 72 -86 72q-23 0 -45 -6.5t-44 -27.5q-15 -15 -24 -35q-5 -9 -12 -36h-84q4 16 8.5 30t10.5 25q19 38 55 63
q52 36 141 36q67 0 110 -23q55 -30 55 -93q0 -9 -0.5 -15t-1.5 -10t-2.5 -12t-4.5 -21l-62 -242q-4 -15 -6.5 -27t-2.5 -22q0 -17 8 -25q6 -6 13 -7zM380 255q-22 0 -46.5 -2.5t-50.5 -7.5t-47 -11.5t-35 -14.5q-59 -32 -59 -102q0 -31 17.5 -51.5t54.5 -20.5q31 0 58 13
q30 14 45.5 29.5t23.5 32.5q2 6 6.5 19t10.5 33zM420 707h-61l-87 130h86zM547 702q-47 -148 -189 -148q-57 0 -94 31t-37 85l4 32h73l-3 -25q0 -29 18 -45.5t47 -16.5q38 0 64 22.5t40 64.5h77z" />
    <glyph glyph-name="uni1EB3" unicode="&#x1eb3;" horiz-adv-x="479" 
d="M435 12l-4 -12h-58q-27 0 -36.5 10.5t-9.5 41.5q-55 -61 -144 -61q-29 -2 -54 7.5t-42 26.5t-26 40t-7 47q0 85 67 131q48 33 270 59l9 32q5 23 7 32t2 22q0 72 -86 72q-23 0 -45 -6.5t-44 -27.5q-15 -15 -24 -35q-5 -9 -12 -36h-84q4 16 8.5 30t10.5 25q19 38 55 63
q52 36 141 36q67 0 110 -23q55 -30 55 -93q0 -9 -0.5 -15t-1.5 -10t-2.5 -12t-4.5 -21l-62 -242q-4 -15 -6.5 -27t-2.5 -22q0 -17 8 -25q6 -6 13 -7zM358 172l22 83q-22 0 -46.5 -2.5t-50.5 -7.5t-47 -11.5t-35 -14.5q-59 -32 -59 -102q0 -31 17.5 -51.5t54.5 -20.5
q31 0 58 13q30 14 45.5 29.5t23.5 32.5q2 6 6.5 19t10.5 33zM357 707l9 39q10 1 21 5q9 3 20.5 8.5t23.5 15.5q7 7 12 15.5t7 18.5q3 10 0 18.5t-19 8.5q-12 0 -16.5 -2.5t-5.5 -3.5q-2 -2 -4 -6t-4 -11l-5 -24h-56l5 22q4 16 9 24q7 15 24 25q11 8 29 12t37 4q35 0 52 -15
q20 -16 14 -50q-9 -35 -39 -54q-26 -18 -54 -24l-7 -26h-53zM547 702q-47 -148 -189 -148q-57 0 -94 31t-37 85l4 32h73l-3 -25q0 -29 18 -45.5t47 -16.5q38 0 64 22.5t40 64.5h77z" />
    <glyph glyph-name="uni1EB5" unicode="&#x1eb5;" horiz-adv-x="479" 
d="M431 0h-58q-27 0 -36.5 10.5t-9.5 41.5q-55 -61 -144 -61q-29 -2 -54 7.5t-42 26.5t-26 40t-7 47q0 85 67 131q48 33 270 59l9 32q5 23 7 32t2 22q0 72 -86 72q-23 0 -45 -6.5t-44 -27.5q-15 -15 -24 -35q-5 -9 -12 -36h-84q4 16 8.5 30t10.5 25q19 38 55 63
q52 36 141 36q67 0 110 -23q55 -30 55 -93q0 -9 -0.5 -15t-1.5 -10t-2.5 -12t-4.5 -21l-62 -242q-4 -15 -6.5 -27t-2.5 -22q0 -17 8 -25q6 -6 13 -7zM380 255q-22 0 -46.5 -2.5t-50.5 -7.5t-47 -11.5t-35 -14.5q-59 -32 -59 -102q0 -31 17.5 -51.5t54.5 -20.5q31 0 58 13
q30 14 45.5 29.5t23.5 32.5q2 6 6.5 19t10.5 33zM544 702q-47 -148 -189 -148q-57 0 -94 31t-37 85l4 32h73l-3 -25q0 -29 18 -45.5t47 -16.5q38 0 64 22.5t40 64.5h77zM553 854l-13 -51q-14 -47 -29.5 -61t-38.5 -14q-10 0 -19 2.5t-19 7.5q-5 2 -14 7.5t-22 14.5l-25 20
q-33 21 -41 21q-11 0 -15 -8t-12 -36l-6 -25h-61l11 39q14 46 22 60q18 26 51 26q19 0 43 -12q4 -2 11.5 -7.5t17.5 -11.5l30 -23q15 -9 24 -14.5t12 -5.5q9 0 13.5 8.5t12.5 34.5l6 28h61z" />
    <glyph glyph-name="uni1EB7" unicode="&#x1eb7;" horiz-adv-x="479" 
d="M431 0h-58q-27 0 -36.5 10.5t-9.5 41.5q-55 -61 -144 -61q-29 -2 -54 7.5t-42 26.5t-26 40t-7 47q0 85 67 131q48 33 270 59l9 32q5 23 7 32t2 22q0 72 -86 72q-23 0 -45 -6.5t-44 -27.5q-15 -15 -24 -35q-5 -9 -12 -36h-84q4 16 8.5 30t10.5 25q19 38 55 63
q52 36 141 36q67 0 110 -23q55 -30 55 -93q0 -9 -0.5 -15t-1.5 -10t-2.5 -12t-4.5 -21l-62 -242q-4 -15 -6.5 -27t-2.5 -22q0 -17 8 -25q6 -6 13 -7zM380 255q-22 0 -46.5 -2.5t-50.5 -7.5t-47 -11.5t-35 -14.5q-59 -32 -59 -102q0 -31 17.5 -51.5t54.5 -20.5q31 0 58 13
q30 14 45.5 29.5t23.5 32.5q2 6 6.5 19t10.5 33zM547 702q-47 -148 -189 -148q-57 0 -94 31t-37 85l4 32h73l-3 -25q0 -29 18 -45.5t47 -16.5q38 0 64 22.5t40 64.5h77zM290 -168h-118l30 113h119z" />
    <glyph glyph-name="uni1EBC" unicode="&#x1ebc;" 
d="M509 68l-18 -68h-437l183 706h389l-18 -68h-292l-61 -236h286l-18 -68h-286l-68 -266h340zM617 878l-13 -51q-14 -47 -29.5 -61t-38.5 -14q-10 0 -19 2.5t-19 7.5q-5 2 -14 7.5t-22 14.5l-25 20q-33 21 -41 21q-11 0 -15 -8t-12 -36l-6 -25h-61l11 39q14 46 22 60
q18 26 51 26q19 0 43 -12q4 -2 11.5 -7.5t17.5 -11.5l30 -23q15 -9 24 -14.5t12 -5.5q9 0 13.5 8.5t12.5 34.5l6 28h61z" />
    <glyph glyph-name="uni1EBE" unicode="&#x1ebe;" 
d="M169 68h340l-18 -68h-437l183 706h389l-18 -68h-292l-61 -236h286l-18 -68h-286zM603 967h86l-88 -129h-60zM417 881h84l40 -130h-58l-28 94l-76 -94h-68z" />
    <glyph glyph-name="uni1EC0" unicode="&#x1ec0;" 
d="M169 68h340l-18 -68h-437l183 706h389l-18 -68h-292l-61 -236h286l-18 -68h-286zM467 971h87l62 -130h-60zM419 881h83l40 -130h-58l-27 94l-76 -94h-68z" />
    <glyph glyph-name="uni1EC2" unicode="&#x1ec2;" 
d="M509 68l-18 -68h-437l183 706h389l-18 -68h-292l-61 -236h286l-18 -68h-286l-68 -266h340zM509 882l39 -130h-58l-27 94l-76 -94h-68l106 130h84zM566 812l9 39q10 1 21 5q9 3 20.5 8.5t23.5 15.5q7 7 12 15.5t7 18.5q3 10 0 18.5t-19 8.5q-12 0 -16.5 -2.5t-5.5 -3.5
q-2 -2 -4 -6t-4 -11l-5 -24h-56l5 22q4 16 9 24q7 15 24 25q11 8 29 12t37 4q35 0 52 -15q20 -16 14 -50q-9 -35 -39 -54q-26 -18 -54 -24l-7 -26h-53z" />
    <glyph glyph-name="uni1EC4" unicode="&#x1ec4;" 
d="M509 68l-18 -68h-437l183 706h389l-18 -68h-292l-61 -236h286l-18 -68h-286l-68 -266h340zM546 752h-57l-28 94l-75 -94h-69l107 130h84zM650 1035l-13 -51q-14 -47 -29.5 -61t-38.5 -14q-10 0 -19 2.5t-19 7.5q-5 2 -14 7.5t-22 14.5l-25 20q-33 21 -41 21q-11 0 -15 -8
t-12 -36l-6 -25h-61l11 39q14 46 22 60q18 26 51 26q19 0 43 -12q4 -2 11.5 -7.5t17.5 -11.5l30 -23q15 -9 24 -14.5t12 -5.5q9 0 13.5 8.5t12.5 34.5l6 28h61z" />
    <glyph glyph-name="uni1EC6" unicode="&#x1ec6;" 
d="M509 68l-18 -68h-437l183 706h389l-18 -68h-292l-61 -236h286l-18 -68h-286l-68 -266h340zM528 882l38 -130h-58l-27 94l-76 -94h-68l107 130h84zM302 -158h-118l30 113h119z" />
    <glyph glyph-name="uni1EB8" unicode="&#x1eb8;" 
d="M509 68l-18 -68h-437l183 706h389l-18 -68h-292l-61 -236h286l-18 -68h-286l-68 -266h340zM302 -158h-118l30 113h119z" />
    <glyph glyph-name="uni1EBB" unicode="&#x1ebb;" horiz-adv-x="500" 
d="M401 147h86q-5 -11 -9 -21.5t-9 -18.5q-16 -28 -33 -47q-38 -41 -91 -57q-39 -12 -85 -12q-44 0 -69 7q-39 10 -69.5 36t-42.5 68q-7 22 -7 58q0 64 27 148q29 86 71 131q39 42 91 58q37 12 82 12q76 0 121 -33q55 -40 55 -126q0 -21 -3.5 -48t-12.5 -57h-334
q-6 -20 -9.5 -43.5t-3.5 -43.5q0 -64 37 -92q28 -22 73 -22q63 0 101 41q10 11 18.5 26.5t15.5 35.5zM185 301h246q9 31 9 60q0 48 -26.5 73.5t-68.5 25.5q-68 0 -111 -58q-26 -33 -49 -101zM342 554l9 39q10 1 21 5q9 3 20.5 8.5t23.5 15.5q7 6 12 15t7 18q3 10 0 19t-19 9
q-12 0 -16.5 -3t-5.5 -5q-4 -2 -8 -17l-5 -22h-56l5 22q2 8 4 13.5t5 10.5q6 13 24 25q11 8 29 12t37 4q34 0 52 -15q20 -19 14 -52q-5 -15 -14.5 -28.5t-24.5 -23.5q-26 -20 -54 -24l-7 -26h-53z" />
    <glyph glyph-name="uni1EBD" unicode="&#x1ebd;" horiz-adv-x="500" 
d="M487 147q-5 -11 -9 -21.5t-9 -18.5q-16 -28 -33 -47q-38 -41 -91 -57q-39 -12 -85 -12q-44 0 -69 7q-39 10 -69.5 36t-42.5 68q-7 22 -7 58q0 64 27 148q29 86 71 131q39 42 91 58q37 12 82 12q76 0 121 -33q55 -40 55 -126q0 -21 -3.5 -48t-12.5 -57h-334
q-6 -20 -9.5 -43.5t-3.5 -43.5q0 -64 37 -92q28 -22 73 -22q63 0 101 41q10 11 18.5 26.5t15.5 35.5h86zM431 301q9 31 9 60q0 48 -26.5 73.5t-68.5 25.5q-68 0 -111 -58q-26 -33 -49 -101h246zM539 682l-14 -52q-12 -48 -27.5 -62t-40.5 -14q-8 0 -17 3t-19 7q-5 2 -14 7.5
t-23 14.5l-26 20q-30 21 -40 21t-14 -7.5t-12 -36.5l-7 -26h-61l12 40q5 22 11 36.5t11 24.5q8 11 20.5 18t29.5 7q11 0 21 -3.5t21 -8.5q5 -2 12.5 -6.5t18.5 -12.5l30 -22q28 -20 36 -20q9 0 13 8t12 35l5 29h62z" />
    <glyph glyph-name="uni1EBF" unicode="&#x1ebf;" horiz-adv-x="500" 
d="M487 147q-5 -11 -9 -21.5t-9 -18.5q-16 -28 -33 -47q-38 -41 -91 -57q-39 -12 -85 -12q-44 0 -69 7q-39 10 -69.5 36t-42.5 68q-7 22 -7 58q0 64 27 148q29 86 71 131q39 42 91 58q37 12 82 12q76 0 121 -33q55 -40 55 -126q0 -21 -3.5 -48t-12.5 -57h-334
q-6 -20 -9.5 -43.5t-3.5 -43.5q0 -64 37 -92q28 -22 73 -22q63 0 101 41q10 11 18.5 26.5t15.5 35.5h86zM431 301q9 31 9 60q0 48 -26.5 73.5t-68.5 25.5q-68 0 -111 -58q-26 -33 -49 -101h246zM629 770l-88 -129h-61l63 129h86zM442 684l38 -130h-57l-28 95l-76 -95h-68
l107 130h84z" />
    <glyph glyph-name="uni1EC1" unicode="&#x1ec1;" horiz-adv-x="500" 
d="M487 147q-5 -11 -9 -21.5t-9 -18.5q-16 -28 -33 -47q-38 -41 -91 -57q-39 -12 -85 -12q-44 0 -69 7q-39 10 -69.5 36t-42.5 68q-7 22 -7 58q0 64 27 148q29 86 71 131q39 42 91 58q37 12 82 12q76 0 121 -33q55 -40 55 -126q0 -21 -3.5 -48t-12.5 -57h-334
q-6 -20 -9.5 -43.5t-3.5 -43.5q0 -64 37 -92q28 -22 73 -22q63 0 101 41q10 11 18.5 26.5t15.5 35.5h86zM431 301q9 31 9 60q0 48 -26.5 73.5t-68.5 25.5q-68 0 -111 -58q-26 -33 -49 -101h246zM488 774l63 -130h-60l-89 130h86zM438 684l38 -130h-57l-28 94l-76 -94h-68
l107 130h84z" />
    <glyph glyph-name="uni1EC3" unicode="&#x1ec3;" horiz-adv-x="500" 
d="M401 147h86q-5 -11 -9 -21.5t-9 -18.5q-16 -28 -33 -47q-38 -41 -91 -57q-39 -12 -85 -12q-44 0 -69 7q-39 10 -69.5 36t-42.5 68q-7 22 -7 58q0 64 27 148q29 86 71 131q39 42 91 58q37 12 82 12q76 0 121 -33q55 -40 55 -126q0 -21 -3.5 -48t-12.5 -57h-334
q-6 -20 -9.5 -43.5t-3.5 -43.5q0 -64 37 -92q28 -22 73 -22q63 0 101 41q10 11 18.5 26.5t15.5 35.5zM185 301h246q9 31 9 60q0 48 -26.5 73.5t-68.5 25.5q-68 0 -111 -58q-26 -33 -49 -101zM436 684l39 -130h-58l-27 94l-76 -94h-68l106 130h84zM493 614l9 39q10 1 21 5
q9 3 20.5 8.5t23.5 15.5q7 7 12 15.5t7 18.5q3 10 0 18.5t-19 8.5q-12 0 -16.5 -2.5t-5.5 -3.5q-2 -2 -4 -6t-4 -11l-5 -24h-56l5 22q4 16 9 24q7 15 24 25q11 8 29 12t37 4q35 0 52 -15q20 -16 14 -50q-9 -35 -39 -54q-26 -18 -54 -24l-7 -26h-53z" />
    <glyph glyph-name="uni1EC5" unicode="&#x1ec5;" horiz-adv-x="500" 
d="M487 147q-5 -11 -9 -21.5t-9 -18.5q-16 -28 -33 -47q-38 -41 -91 -57q-39 -12 -85 -12q-44 0 -69 7q-39 10 -69.5 36t-42.5 68q-7 22 -7 58q0 64 27 148q29 86 71 131q39 42 91 58q37 12 82 12q76 0 121 -33q55 -40 55 -126q0 -21 -3.5 -48t-12.5 -57h-334
q-6 -20 -9.5 -43.5t-3.5 -43.5q0 -64 37 -92q28 -22 73 -22q63 0 101 41q10 11 18.5 26.5t15.5 35.5h86zM431 301q9 31 9 60q0 48 -26.5 73.5t-68.5 25.5q-68 0 -111 -58q-26 -33 -49 -101h246zM464 554h-57l-28 94l-75 -94h-69l107 130h84zM568 837l-13 -51
q-14 -47 -29.5 -61t-38.5 -14q-10 0 -19 2.5t-19 7.5q-5 2 -14 7.5t-22 14.5l-25 20q-33 21 -41 21q-11 0 -15 -8t-12 -36l-6 -25h-61l11 39q14 46 22 60q18 26 51 26q19 0 43 -12q4 -2 11.5 -7.5t17.5 -11.5l30 -23q15 -9 24 -14.5t12 -5.5q9 0 13.5 8.5t12.5 34.5l6 28h61
z" />
    <glyph glyph-name="uni1EC7" unicode="&#x1ec7;" horiz-adv-x="500" 
d="M487 147q-5 -11 -9 -21.5t-9 -18.5q-16 -28 -33 -47q-38 -41 -91 -57q-39 -12 -85 -12q-44 0 -69 7q-39 10 -69.5 36t-42.5 68q-7 22 -7 58q0 64 27 148q29 86 71 131q39 42 91 58q37 12 82 12q76 0 121 -33q55 -40 55 -126q0 -21 -3.5 -48t-12.5 -57h-334
q-6 -20 -9.5 -43.5t-3.5 -43.5q0 -64 37 -92q28 -22 73 -22q63 0 101 41q10 11 18.5 26.5t15.5 35.5h86zM431 301q9 31 9 60q0 48 -26.5 73.5t-68.5 25.5q-68 0 -111 -58q-26 -33 -49 -101h246zM434 684l39 -130h-57l-29 95l-76 -95h-69l106 130h86zM290 -168h-118l30 113
h119z" />
    <glyph glyph-name="uni1EB9" unicode="&#x1eb9;" horiz-adv-x="500" 
d="M487 147q-5 -11 -9 -21.5t-9 -18.5q-16 -28 -33 -47q-38 -41 -91 -57q-39 -12 -85 -12q-44 0 -69 7q-39 10 -69.5 36t-42.5 68q-7 22 -7 58q0 64 27 148q29 86 71 131q39 42 91 58q37 12 82 12q76 0 121 -33q55 -40 55 -126q0 -21 -3.5 -48t-12.5 -57h-334
q-6 -20 -9.5 -43.5t-3.5 -43.5q0 -64 37 -92q28 -22 73 -22q63 0 101 41q10 11 18.5 26.5t15.5 35.5h86zM431 301q9 31 9 60q0 48 -26.5 73.5t-68.5 25.5q-68 0 -111 -58q-26 -33 -49 -101h246zM290 -168h-118l30 113h119z" />
    <glyph glyph-name="uni1EC8" unicode="&#x1ec8;" horiz-adv-x="250" 
d="M336 706l-187 -706h-95l183 706h99zM263 752l9 39q-3 -1 10.5 1.5t30 11t31 23t14.5 37.5q0 7 -5 12t-16 5t-16 -1.5t-7.5 -4.5t-3.5 -7.5t-3 -9.5l-5 -24h-56l5 22q6 25 27.5 45t71.5 20q32 0 49.5 -13t17.5 -37q0 -18 -8.5 -34t-22 -28t-30.5 -20t-33 -11l-7 -26h-53z
" />
    <glyph glyph-name="uni1ECA" unicode="&#x1eca;" horiz-adv-x="250" 
d="M336 706l-187 -706h-95l183 706h99zM126 -158h-118l30 113h119z" />
    <glyph glyph-name="uni1EC9" unicode="&#x1ec9;" horiz-adv-x="208" 
d="M255 500l-130 -500h-85l130 500h85zM191 554l9 39q10 1 21 5q9 3 20.5 8.5t23.5 15.5q7 6 12 15t7 18q3 10 0 19t-19 9q-12 0 -16.5 -3t-5.5 -5q-4 -2 -8 -17l-5 -22h-56l5 22q2 8 4 13.5t5 10.5q6 13 24 25q11 8 29 12t37 4q34 0 52 -15q20 -19 14 -52
q-5 -15 -14.5 -28.5t-24.5 -23.5q-26 -20 -54 -24l-7 -26h-53z" />
    <glyph glyph-name="uni1ECB" unicode="&#x1ecb;" horiz-adv-x="208" 
d="M255 500l-130 -500h-85l130 500h85zM305 695l-22 -84h-85l22 84h85zM101 -158h-118l30 113h119z" />
    <glyph glyph-name="uni1ECC" unicode="&#x1ecc;" horiz-adv-x="688" 
d="M704 336q-11 -48 -23.5 -86t-25.5 -68q-46 -106 -119.5 -149t-174.5 -43q-114 0 -180 48q-79 57 -79 177q0 32 6 71t17 87q10 41 21 75t23 63q44 102 112 151q76 55 196 55q60 0 104 -13.5t77 -40.5q42 -34 59 -85q11 -36 11 -82q0 -15 -1 -30.5t-3.5 -34t-7.5 -42
t-12 -53.5zM606 349q11 42 18 81t7 78q0 25 -3.5 43.5t-12.5 36.5q-14 22 -33 39q-42 33 -106 33q-48 0 -86.5 -17t-70.5 -55q-53 -64 -89 -199q-30 -113 -30 -184q0 -64 27 -100q20 -29 55 -42.5t77 -13.5q103 0 162 80q44 60 85 220zM377 -158h-118l30 113h119z" />
    <glyph glyph-name="uni1ECE" unicode="&#x1ece;" horiz-adv-x="688" 
d="M704 336q-11 -48 -23.5 -86t-25.5 -68q-46 -106 -119.5 -149t-174.5 -43q-114 0 -180 48q-79 57 -79 177q0 32 6 71t17 87q10 41 21 75t23 63q44 102 112 151q76 55 196 55q60 0 104 -13.5t77 -40.5q42 -34 59 -85q11 -36 11 -82q0 -15 -1 -30.5t-3.5 -34t-7.5 -42
t-12 -53.5zM606 349q11 42 18 81t7 78q0 25 -3.5 43.5t-12.5 36.5q-14 22 -33 39q-42 33 -106 33q-48 0 -86.5 -17t-70.5 -55q-53 -64 -89 -199q-30 -113 -30 -184q0 -64 27 -100q20 -29 55 -42.5t77 -13.5q103 0 162 80q44 60 85 220zM478 752l9 39q-3 -1 10.5 1.5t30 11
t31 23t14.5 37.5q0 7 -5 12t-16 5t-16 -1.5t-7.5 -4.5t-3.5 -7.5t-3 -9.5l-5 -24h-56l5 22q6 25 27.5 45t71.5 20q32 0 49.5 -13t17.5 -37q0 -18 -8.5 -34t-22 -28t-30.5 -20t-33 -11l-7 -26h-53z" />
    <glyph glyph-name="uni1ED0" unicode="&#x1ed0;" horiz-adv-x="688" 
d="M704 336q-11 -48 -23.5 -86t-25.5 -68q-46 -106 -119.5 -149t-174.5 -43q-114 0 -180 48q-79 57 -79 177q0 32 6 71t17 87q10 41 21 75t23 63q44 102 112 151q76 55 196 55q60 0 104 -13.5t77 -40.5q42 -34 59 -85q11 -36 11 -82q0 -15 -1 -30.5t-3.5 -34t-7.5 -42
t-12 -53.5zM606 349q11 42 18 81t7 78q0 25 -3.5 43.5t-12.5 36.5q-14 22 -33 39q-42 33 -106 33q-48 0 -86.5 -17t-70.5 -55q-53 -64 -89 -199q-30 -113 -30 -184q0 -64 27 -100q20 -29 55 -42.5t77 -13.5q103 0 162 80q44 60 85 220zM662 839h-60l63 129h86zM602 752h-57
l-28 94l-77 -94h-67l106 130h84z" />
    <glyph glyph-name="uni1ED2" unicode="&#x1ed2;" horiz-adv-x="688" 
d="M704 336q-11 -48 -23.5 -86t-25.5 -68q-46 -106 -119.5 -149t-174.5 -43q-114 0 -180 48q-79 57 -79 177q0 32 6 71t17 87q10 41 21 75t23 63q44 102 112 151q76 55 196 55q60 0 104 -13.5t77 -40.5q42 -34 59 -85q11 -36 11 -82q0 -15 -1 -30.5t-3.5 -34t-7.5 -42
t-12 -53.5zM606 349q11 42 18 81t7 78q0 25 -3.5 43.5t-12.5 36.5q-14 22 -33 39q-42 33 -106 33q-48 0 -86.5 -17t-70.5 -55q-53 -64 -89 -199q-30 -113 -30 -184q0 -64 27 -100q20 -29 55 -42.5t77 -13.5q103 0 162 80q44 60 85 220zM697 842h-60l-89 130h86zM622 752h-57
l-28 94l-75 -94h-69l107 130h83z" />
    <glyph glyph-name="uni1ED4" unicode="&#x1ed4;" horiz-adv-x="688" 
d="M704 336q-11 -48 -23.5 -86t-25.5 -68q-46 -106 -119.5 -149t-174.5 -43q-114 0 -180 48q-79 57 -79 177q0 32 6 71t17 87q10 41 21 75t23 63q44 102 112 151q76 55 196 55q60 0 104 -13.5t77 -40.5q42 -34 59 -85q11 -36 11 -82q0 -15 -1 -30.5t-3.5 -34t-7.5 -42
t-12 -53.5zM606 349q11 42 18 81t7 78q0 25 -3.5 43.5t-12.5 36.5q-14 22 -33 39q-42 33 -106 33q-48 0 -86.5 -17t-70.5 -55q-53 -64 -89 -199q-30 -113 -30 -184q0 -64 27 -100q20 -29 55 -42.5t77 -13.5q103 0 162 80q44 60 85 220zM561 882l39 -130h-58l-27 94l-76 -94
h-68l106 130h84zM618 812l9 39q10 1 21 5q9 3 20.5 8.5t23.5 15.5q7 7 12 15.5t7 18.5q3 10 0 18.5t-19 8.5q-12 0 -16.5 -2.5t-5.5 -3.5q-2 -2 -4 -6t-4 -11l-5 -24h-56l5 22q4 16 9 24q7 15 24 25q11 8 29 12t37 4q35 0 52 -15q20 -16 14 -50q-9 -35 -39 -54
q-26 -18 -54 -24l-7 -26h-53z" />
    <glyph glyph-name="uni1ED6" unicode="&#x1ed6;" horiz-adv-x="688" 
d="M704 336q-11 -48 -23.5 -86t-25.5 -68q-46 -106 -119.5 -149t-174.5 -43q-114 0 -180 48q-79 57 -79 177q0 32 6 71t17 87q10 41 21 75t23 63q44 102 112 151q76 55 196 55q60 0 104 -13.5t77 -40.5q42 -34 59 -85q11 -36 11 -82q0 -15 -1 -30.5t-3.5 -34t-7.5 -42
t-12 -53.5zM606 349q11 42 18 81t7 78q0 25 -3.5 43.5t-12.5 36.5q-14 22 -33 39q-42 33 -106 33q-48 0 -86.5 -17t-70.5 -55q-53 -64 -89 -199q-30 -113 -30 -184q0 -64 27 -100q20 -29 55 -42.5t77 -13.5q103 0 162 80q44 60 85 220zM602 752h-57l-28 94l-75 -94h-69
l107 130h84zM706 1035l-13 -51q-14 -47 -29.5 -61t-38.5 -14q-10 0 -19 2.5t-19 7.5q-5 2 -14 7.5t-22 14.5l-25 20q-33 21 -41 21q-11 0 -15 -8t-12 -36l-6 -25h-61l11 39q14 46 22 60q18 26 51 26q19 0 43 -12q4 -2 11.5 -7.5t17.5 -11.5l30 -23q15 -9 24 -14.5t12 -5.5
q9 0 13.5 8.5t12.5 34.5l6 28h61z" />
    <glyph glyph-name="uni1ED8" unicode="&#x1ed8;" horiz-adv-x="688" 
d="M704 336q-11 -48 -23.5 -86t-25.5 -68q-46 -106 -119.5 -149t-174.5 -43q-114 0 -180 48q-79 57 -79 177q0 32 6 71t17 87q10 41 21 75t23 63q44 102 112 151q76 55 196 55q60 0 104 -13.5t77 -40.5q42 -34 59 -85q11 -36 11 -82q0 -15 -1 -30.5t-3.5 -34t-7.5 -42
t-12 -53.5zM606 349q11 42 18 81t7 78q0 25 -3.5 43.5t-12.5 36.5q-14 22 -33 39q-42 33 -106 33q-48 0 -86.5 -17t-70.5 -55q-53 -64 -89 -199q-30 -113 -30 -184q0 -64 27 -100q20 -29 55 -42.5t77 -13.5q103 0 162 80q44 60 85 220zM571 882l38 -130h-58l-27 94l-76 -94
h-68l107 130h84zM377 -158h-118l30 113h119z" />
    <glyph glyph-name="uni1ECD" unicode="&#x1ecd;" 
d="M524 248q-27 -132 -90 -194.5t-169 -62.5q-88 0 -140 44.5t-52 129.5q0 65 22 137t67 125q31 37 75 58q51 25 120 25q65 0 108 -28q28 -18 46 -46q13 -20 18.5 -45t5.5 -55q0 -20 -3 -43.5t-8 -44.5zM441 259q6 31 8.5 49.5t2.5 42.5q0 62 -40 89q-26 18 -63 18
q-25 0 -49 -8q-39 -15 -70 -53q-35 -44 -54 -124q-16 -63 -16 -114q0 -33 7 -51q10 -31 41 -49q11 -7 26 -11t34 -4q65 0 106 50q25 29 41 78q5 14 13 40.5t13 46.5zM279 -158h-118l30 113h119z" />
    <glyph glyph-name="uni1ECF" unicode="&#x1ecf;" 
d="M524 248q-27 -132 -90 -194.5t-169 -62.5q-88 0 -140 44.5t-52 129.5q0 65 22 137t67 125q31 37 75 58q51 25 120 25q65 0 108 -28q28 -18 46 -46q13 -20 18.5 -45t5.5 -55q0 -20 -3 -43.5t-8 -44.5zM441 259q6 31 8.5 49.5t2.5 42.5q0 62 -40 89q-26 18 -63 18
q-25 0 -49 -8q-39 -15 -70 -53q-35 -44 -54 -124q-16 -63 -16 -114q0 -33 7 -51q10 -31 41 -49q11 -7 26 -11t34 -4q65 0 106 50q25 29 41 78q5 14 13 40.5t13 46.5zM342 554l9 39q10 1 21 5q9 3 20.5 8.5t23.5 15.5q7 6 12 15t7 18q3 10 0 19t-19 9q-12 0 -16.5 -3t-5.5 -5
q-4 -2 -8 -17l-5 -22h-56l5 22q2 8 4 13.5t5 10.5q6 13 24 25q11 8 29 12t37 4q34 0 52 -15q20 -19 14 -52q-5 -15 -14.5 -28.5t-24.5 -23.5q-26 -20 -54 -24l-7 -26h-53z" />
    <glyph glyph-name="uni1ED1" unicode="&#x1ed1;" 
d="M524 248q-27 -132 -90 -194.5t-169 -62.5q-88 0 -140 44.5t-52 129.5q0 65 22 137t67 125q31 37 75 58q51 25 120 25q65 0 108 -28q28 -18 46 -46q13 -20 18.5 -45t5.5 -55q0 -20 -3 -43.5t-8 -44.5zM441 259q6 31 8.5 49.5t2.5 42.5q0 62 -40 89q-26 18 -63 18
q-25 0 -49 -8q-39 -15 -70 -53q-35 -44 -54 -124q-16 -63 -16 -114q0 -33 7 -51q10 -31 41 -49q11 -7 26 -11t34 -4q65 0 106 50q25 29 41 78q5 14 13 40.5t13 46.5zM540 641h-61l62 129h86zM479 554h-58l-28 95l-75 -95h-69l107 130h84z" />
    <glyph glyph-name="uni1ED3" unicode="&#x1ed3;" 
d="M524 248q-27 -132 -90 -194.5t-169 -62.5q-88 0 -140 44.5t-52 129.5q0 65 22 137t67 125q31 37 75 58q51 25 120 25q65 0 108 -28q28 -18 46 -46q13 -20 18.5 -45t5.5 -55q0 -20 -3 -43.5t-8 -44.5zM441 259q6 31 8.5 49.5t2.5 42.5q0 62 -40 89q-26 18 -63 18
q-25 0 -49 -8q-39 -15 -70 -53q-35 -44 -54 -124q-16 -63 -16 -114q0 -33 7 -51q10 -31 41 -49q11 -7 26 -11t34 -4q65 0 106 50q25 29 41 78q5 14 13 40.5t13 46.5zM560 644h-60l-89 130h87zM486 554h-58l-27 94l-76 -94h-68l106 130h84z" />
    <glyph glyph-name="uni1ED5" unicode="&#x1ed5;" 
d="M524 248q-27 -132 -90 -194.5t-169 -62.5q-88 0 -140 44.5t-52 129.5q0 65 22 137t67 125q31 37 75 58q51 25 120 25q65 0 108 -28q28 -18 46 -46q13 -20 18.5 -45t5.5 -55q0 -20 -3 -43.5t-8 -44.5zM441 259q6 31 8.5 49.5t2.5 42.5q0 62 -40 89q-26 18 -63 18
q-25 0 -49 -8q-39 -15 -70 -53q-35 -44 -54 -124q-16 -63 -16 -114q0 -33 7 -51q10 -31 41 -49q11 -7 26 -11t34 -4q65 0 106 50q25 29 41 78q5 14 13 40.5t13 46.5zM454 684l39 -130h-58l-27 94l-76 -94h-68l106 130h84zM511 614l9 39q10 1 21 5q9 3 20.5 8.5t23.5 15.5
q7 7 12 15.5t7 18.5q3 10 0 18.5t-19 8.5q-12 0 -16.5 -2.5t-5.5 -3.5q-2 -2 -4 -6t-4 -11l-5 -24h-56l5 22q4 16 9 24q7 15 24 25q11 8 29 12t37 4q35 0 52 -15q20 -16 14 -50q-9 -35 -39 -54q-26 -18 -54 -24l-7 -26h-53z" />
    <glyph glyph-name="uni1ED7" unicode="&#x1ed7;" 
d="M524 248q-27 -132 -90 -194.5t-169 -62.5q-88 0 -140 44.5t-52 129.5q0 65 22 137t67 125q31 37 75 58q51 25 120 25q65 0 108 -28q28 -18 46 -46q13 -20 18.5 -45t5.5 -55q0 -20 -3 -43.5t-8 -44.5zM441 259q6 31 8.5 49.5t2.5 42.5q0 62 -40 89q-26 18 -63 18
q-25 0 -49 -8q-39 -15 -70 -53q-35 -44 -54 -124q-16 -63 -16 -114q0 -33 7 -51q10 -31 41 -49q11 -7 26 -11t34 -4q65 0 106 50q25 29 41 78q5 14 13 40.5t13 46.5zM475 554h-57l-28 94l-75 -94h-69l107 130h84zM579 837l-13 -51q-14 -47 -29.5 -61t-38.5 -14
q-10 0 -19 2.5t-19 7.5q-5 2 -14 7.5t-22 14.5l-25 20q-33 21 -41 21q-11 0 -15 -8t-12 -36l-6 -25h-61l11 39q14 46 22 60q18 26 51 26q19 0 43 -12q4 -2 11.5 -7.5t17.5 -11.5l30 -23q15 -9 24 -14.5t12 -5.5q9 0 13.5 8.5t12.5 34.5l6 28h61z" />
    <glyph glyph-name="uni1ED9" unicode="&#x1ed9;" 
d="M524 248q-27 -132 -90 -194t-169 -62q-88 0 -140 44t-52 129q0 65 22 137t67 125q31 37 75 58q51 25 120 25q65 0 108 -28q28 -18 46 -46q13 -20 18.5 -45t5.5 -55q0 -20 -3 -43.5t-8 -44.5zM441 259q6 31 8.5 49.5t2.5 42.5q0 62 -40 89q-26 18 -63 18q-25 0 -49 -8
q-39 -15 -70 -53q-35 -44 -54 -124q-16 -63 -16 -114q0 -33 7 -51q10 -31 41 -49q11 -7 26 -11t34 -4q65 0 106 50q25 29 41 78q5 14 13 40.5t13 46.5zM434 684l39 -130h-57l-29 95l-76 -95h-69l106 130h86zM279 -158h-118l30 113h119z" />
    <glyph glyph-name="uni1EDA" unicode="&#x1eda;" horiz-adv-x="688" 
d="M625 892l-88 -130h-60l62 130h86zM782 731q4 -11 1 -17.5t-11 -14.5l-84 -68q18 -23 28 -53q11 -36 11 -82q0 -15 -1 -30.5t-3.5 -34t-7.5 -42t-12 -53.5q-11 -48 -23.5 -86t-25.5 -68q-46 -106 -119.5 -149t-174.5 -43q-114 0 -180 48q-79 57 -79 177q0 32 6 71t17 87
q10 41 21 75t23 63q44 102 112 151q76 55 196 55q60 0 104 -13.5t77 -40.5q3 -2 8 -7l62 76l7 8q11 11 22 9.5t19 -9.5zM605 349q11 42 18 81t7 78q0 25 -3.5 43.5t-12.5 36.5q-14 22 -33 39q-42 33 -106 33q-48 0 -86.5 -17t-70.5 -55q-53 -64 -89 -199q-30 -113 -30 -184
q0 -64 27 -100q20 -29 55 -42.5t77 -13.5q103 0 162 80q44 60 85 220z" />
    <glyph glyph-name="uni1EDC" unicode="&#x1edc;" horiz-adv-x="688" 
d="M549 752h-61l-87 130h86zM782 731q4 -11 1 -17.5t-11 -14.5l-84 -68q18 -23 28 -53q11 -36 11 -82q0 -15 -1 -30.5t-3.5 -34t-7.5 -42t-12 -53.5q-11 -48 -23.5 -86t-25.5 -68q-46 -106 -119.5 -149t-174.5 -43q-114 0 -180 48q-79 57 -79 177q0 32 6 71t17 87
q10 41 21 75t23 63q44 102 112 151q76 55 196 55q60 0 104 -13.5t77 -40.5q3 -2 8 -7l62 76l7 8q11 11 22 9.5t19 -9.5zM605 349q11 42 18 81t7 78q0 25 -3.5 43.5t-12.5 36.5q-14 22 -33 39q-42 33 -106 33q-48 0 -86.5 -17t-70.5 -55q-53 -64 -89 -199q-30 -113 -30 -184
q0 -64 27 -100q20 -29 55 -42.5t77 -13.5q103 0 162 80q44 60 85 220z" />
    <glyph glyph-name="uni1EDE" unicode="&#x1ede;" horiz-adv-x="688" 
d="M478 752l9 39q-3 -1 10.5 1.5t30 11t31 23t14.5 37.5q0 7 -5 12t-16 5t-16 -1.5t-7.5 -4.5t-3.5 -7.5t-3 -9.5l-5 -24h-56l5 22q6 25 27.5 45t71.5 20q32 0 49.5 -13t17.5 -37q0 -18 -8.5 -34t-22 -28t-30.5 -20t-33 -11l-7 -26h-53zM782 731q4 -11 1 -17.5t-11 -14.5
l-84 -68q18 -23 28 -53q11 -36 11 -82q0 -15 -1 -30.5t-3.5 -34t-7.5 -42t-12 -53.5q-11 -48 -23.5 -86t-25.5 -68q-46 -106 -119.5 -149t-174.5 -43q-114 0 -180 48q-79 57 -79 177q0 32 6 71t17 87q10 41 21 75t23 63q44 102 112 151q76 55 196 55q60 0 104 -13.5
t77 -40.5q3 -2 8 -7l62 76l7 8q11 11 22 9.5t19 -9.5zM605 349q11 42 18 81t7 78q0 25 -3.5 43.5t-12.5 36.5q-14 22 -33 39q-42 33 -106 33q-48 0 -86.5 -17t-70.5 -55q-53 -64 -89 -199q-30 -113 -30 -184q0 -64 27 -100q20 -29 55 -42.5t77 -13.5q103 0 162 80
q44 60 85 220z" />
    <glyph glyph-name="uni1EE0" unicode="&#x1ee0;" horiz-adv-x="688" 
d="M735 878l-13 -51q-14 -47 -29.5 -61t-38.5 -14q-10 0 -19 2.5t-19 7.5q-5 2 -14 7.5t-22 14.5l-25 20q-33 21 -41 21q-11 0 -15 -8t-12 -36l-6 -25h-61l11 39q14 46 22 60q18 26 51 26q19 0 43 -12q4 -2 11.5 -7.5t17.5 -11.5l30 -23q15 -9 24 -14.5t12 -5.5
q9 0 13.5 8.5t12.5 34.5l6 28h61zM782 731q4 -11 1 -17.5t-11 -14.5l-84 -68q18 -23 28 -53q11 -36 11 -82q0 -15 -1 -30.5t-3.5 -34t-7.5 -42t-12 -53.5q-11 -48 -23.5 -86t-25.5 -68q-46 -106 -119.5 -149t-174.5 -43q-114 0 -180 48q-79 57 -79 177q0 32 6 71t17 87
q10 41 21 75t23 63q44 102 112 151q76 55 196 55q60 0 104 -13.5t77 -40.5q3 -2 8 -7l62 76l7 8q11 11 22 9.5t19 -9.5zM605 349q11 42 18 81t7 78q0 25 -3.5 43.5t-12.5 36.5q-14 22 -33 39q-42 33 -106 33q-48 0 -86.5 -17t-70.5 -55q-53 -64 -89 -199q-30 -113 -30 -184
q0 -64 27 -100q20 -29 55 -42.5t77 -13.5q103 0 162 80q44 60 85 220z" />
    <glyph glyph-name="uni1EE2" unicode="&#x1ee2;" horiz-adv-x="688" 
d="M377 -158h-118l30 113h119zM782 731q4 -11 1 -17.5t-11 -14.5l-84 -68q18 -23 28 -53q11 -36 11 -82q0 -15 -1 -30.5t-3.5 -34t-7.5 -42t-12 -53.5q-11 -48 -23.5 -86t-25.5 -68q-46 -106 -119.5 -149t-174.5 -43q-114 0 -180 48q-79 57 -79 177q0 32 6 71t17 87
q10 41 21 75t23 63q44 102 112 151q76 55 196 55q60 0 104 -13.5t77 -40.5q3 -2 8 -7l62 76l7 8q11 11 22 9.5t19 -9.5zM605 349q11 42 18 81t7 78q0 25 -3.5 43.5t-12.5 36.5q-14 22 -33 39q-42 33 -106 33q-48 0 -86.5 -17t-70.5 -55q-53 -64 -89 -199q-30 -113 -30 -184
q0 -64 27 -100q20 -29 55 -42.5t77 -13.5q103 0 162 80q44 60 85 220z" />
    <glyph glyph-name="uni1EDB" unicode="&#x1edb;" 
d="M408 554h-62l63 130h87zM601 532q4 -11 1 -17.5t-11 -14.5l-77 -64q13 -20 18.5 -45t5.5 -55q0 -20 -3 -43.5t-8 -44.5q-27 -132 -90 -194.5t-169 -62.5q-88 0 -140 44.5t-52 129.5q0 65 22 137t67 125q31 37 75 58q51 25 120 25q65 0 108 -28q5 -4 10 -7.5t10 -8.5
l58 67l6 8q11 11 22.5 9.5t19.5 -9.5zM444 259q6 31 8.5 49.5t2.5 42.5q0 62 -40 89q-26 18 -63 18q-25 0 -49 -8q-39 -15 -70 -53q-35 -44 -54 -124q-16 -63 -16 -114q0 -33 7 -51q10 -31 41 -49q11 -7 26 -11t34 -4q65 0 106 50q25 29 41 78q5 14 13 40.5t13 46.5z" />
    <glyph glyph-name="uni1EDD" unicode="&#x1edd;" 
d="M419 554h-62l-88 130h88zM600 531q4 -11 1 -17.5t-11 -14.5l-76 -63q13 -20 18.5 -45t5.5 -55q0 -20 -3 -43.5t-8 -44.5q-27 -132 -90 -194.5t-169 -62.5q-88 0 -140 44.5t-52 129.5q0 65 22 137t67 125q31 37 75 58q51 25 120 25q65 0 108 -28q5 -4 10 -7.5t10 -8.5
l57 66l6 8q11 11 22.5 9.5t19.5 -9.5zM444 259q6 31 8.5 49.5t2.5 42.5q0 62 -40 89q-26 18 -63 18q-25 0 -49 -8q-39 -15 -70 -53q-35 -44 -54 -124q-16 -63 -16 -114q0 -33 7 -51q10 -31 41 -49q11 -7 26 -11t34 -4q65 0 106 50q25 29 41 78q5 14 13 40.5t13 46.5z" />
    <glyph glyph-name="uni1EDF" unicode="&#x1edf;" 
d="M342 554l9 39q10 1 21 5q9 3 20.5 8.5t23.5 15.5q7 6 12 15t7 18q3 10 0 19t-19 9q-12 0 -16.5 -3t-5.5 -5q-4 -2 -8 -17l-5 -22h-56l5 22q2 8 4 13.5t5 10.5q6 13 24 25q11 8 29 12t37 4q34 0 52 -15q20 -19 14 -52q-5 -15 -14.5 -28.5t-24.5 -23.5q-26 -20 -54 -24
l-7 -26h-53zM600 531q4 -11 1 -17.5t-11 -14.5l-76 -63q13 -20 18.5 -45t5.5 -55q0 -20 -3 -43.5t-8 -44.5q-27 -132 -90 -194.5t-169 -62.5q-88 0 -140 44.5t-52 129.5q0 65 22 137t67 125q31 37 75 58q51 25 120 25q65 0 108 -28q5 -4 10 -7.5t10 -8.5l57 66l6 8
q11 11 22.5 9.5t19.5 -9.5zM444 259q6 31 8.5 49.5t2.5 42.5q0 62 -40 89q-26 18 -63 18q-25 0 -49 -8q-39 -15 -70 -53q-35 -44 -54 -124q-16 -63 -16 -114q0 -33 7 -51q10 -31 41 -49q11 -7 26 -11t34 -4q65 0 106 50q25 29 41 78q5 14 13 40.5t13 46.5z" />
    <glyph glyph-name="uni1EE1" unicode="&#x1ee1;" 
d="M532 682l-14 -52q-12 -48 -27.5 -62t-40.5 -14q-8 0 -17 3t-19 7q-5 2 -14 7.5t-23 14.5l-26 20q-30 21 -40 21t-14 -7.5t-12 -36.5l-7 -26h-61l12 40q5 22 11 36.5t11 24.5q8 11 20.5 18t29.5 7q11 0 21 -3.5t21 -8.5q5 -2 12.5 -6.5t18.5 -12.5l30 -22q28 -20 36 -20
q9 0 13 8t12 35l5 29h62zM600 531q4 -11 1 -17.5t-11 -14.5l-76 -63q13 -20 18.5 -45t5.5 -55q0 -20 -3 -43.5t-8 -44.5q-27 -132 -90 -194.5t-169 -62.5q-88 0 -140 44.5t-52 129.5q0 65 22 137t67 125q31 37 75 58q51 25 120 25q65 0 108 -28q5 -4 10 -7.5t10 -8.5l57 66
l6 8q11 11 22.5 9.5t19.5 -9.5zM444 259q6 31 8.5 49.5t2.5 42.5q0 62 -40 89q-26 18 -63 18q-25 0 -49 -8q-39 -15 -70 -53q-35 -44 -54 -124q-16 -63 -16 -114q0 -33 7 -51q10 -31 41 -49q11 -7 26 -11t34 -4q65 0 106 50q25 29 41 78q5 14 13 40.5t13 46.5z" />
    <glyph glyph-name="uni1EE3" unicode="&#x1ee3;" 
d="M279 -158h-118l30 113h119zM600 531q4 -11 1 -17.5t-11 -14.5l-76 -63q13 -20 18.5 -45t5.5 -55q0 -20 -3 -43.5t-8 -44.5q-27 -132 -90 -194.5t-169 -62.5q-88 0 -140 44.5t-52 129.5q0 65 22 137t67 125q31 37 75 58q51 25 120 25q65 0 108 -28q5 -4 10 -7.5t10 -8.5
l57 66l6 8q11 11 22.5 9.5t19.5 -9.5zM444 259q6 31 8.5 49.5t2.5 42.5q0 62 -40 89q-26 18 -63 18q-25 0 -49 -8q-39 -15 -70 -53q-35 -44 -54 -124q-16 -63 -16 -114q0 -33 7 -51q10 -31 41 -49q11 -7 26 -11t34 -4q65 0 106 50q25 29 41 78q5 14 13 40.5t13 46.5z" />
    <glyph glyph-name="uni1EE4" unicode="&#x1ee4;" horiz-adv-x="667" 
d="M668 706h86l-125 -481q-23 -75 -39 -108q-32 -59 -85 -90q-64 -37 -172 -37q-51 0 -87.5 7.5t-67.5 24.5q-43 25 -61 65q-13 27 -13 67q0 14 1.5 27.5t3.5 27.5l14 62l112 435h98l-108 -415q-11 -45 -17 -75.5t-6 -51.5q0 -18 3.5 -34t13.5 -29q14 -21 48 -34.5t79 -13.5
q28 0 50.5 4t44.5 16q48 25 75 81q9 19 20 52.5t24 83.5zM354 -158h-118l30 113h119z" />
    <glyph glyph-name="uni1EE6" unicode="&#x1ee6;" horiz-adv-x="667" 
d="M668 706h86l-125 -481q-23 -75 -39 -108q-32 -59 -85 -90q-64 -37 -172 -37q-51 0 -87.5 7.5t-67.5 24.5q-43 25 -61 65q-13 27 -13 67q0 14 1.5 27.5t3.5 27.5l14 62l112 435h98l-108 -415q-11 -45 -17 -75.5t-6 -51.5q0 -18 3.5 -34t13.5 -29q14 -21 48 -34.5t79 -13.5
q28 0 50.5 4t44.5 16q48 25 75 81q9 19 20 52.5t24 83.5zM480 752l9 39q-3 -1 10.5 1.5t30 11t31 23t14.5 37.5q0 7 -5 12t-16 5t-16 -1.5t-7.5 -4.5t-3.5 -7.5t-3 -9.5l-5 -24h-56l5 22q6 25 27.5 45t71.5 20q32 0 49.5 -13t17.5 -37q0 -18 -8.5 -34t-22 -28t-30.5 -20
t-33 -11l-7 -26h-53z" />
    <glyph glyph-name="uni1EE5" unicode="&#x1ee5;" 
d="M562 500l-129 -500h-86l15 57q-80 -66 -172 -66q-57 0 -85 25q-33 28 -33 80q0 20 4.5 43t11.5 50l80 311h85l-84 -324q-6 -24 -8 -34t-2 -26q0 -35 21 -51.5t55 -16.5q36 0 70 16.5t54 40.5q7 8 12.5 18t10.5 23q4 10 7.5 22.5t8.5 28.5l79 303h85zM319 -158h-118
l30 113h119z" />
    <glyph glyph-name="uni1EE7" unicode="&#x1ee7;" 
d="M562 500l-129 -500h-86l15 57q-80 -66 -172 -66q-57 0 -85 25q-33 28 -33 80q0 20 4.5 43t11.5 50l80 311h85l-84 -324q-6 -24 -8 -34t-2 -26q0 -35 21 -51.5t55 -16.5q36 0 70 16.5t54 40.5q7 8 12.5 18t10.5 23q4 10 7.5 22.5t8.5 28.5l79 303h85zM342 554l9 39
q10 1 21 5q9 3 20.5 8.5t23.5 15.5q7 6 12 15t7 18q3 10 0 19t-19 9q-12 0 -16.5 -3t-5.5 -5q-4 -2 -8 -17l-5 -22h-56l5 22q2 8 4 13.5t5 10.5q6 13 24 25q11 8 29 12t37 4q34 0 52 -15q20 -19 14 -52q-5 -15 -14.5 -28.5t-24.5 -23.5q-26 -20 -54 -24l-7 -26h-53z" />
    <glyph glyph-name="uni1EE8" unicode="&#x1ee8;" horiz-adv-x="667" 
d="M614 881l-88 -130h-60l62 130h86zM854 730q5 -10 2 -16.5t-11 -14.5l-117 -93l-99 -381q-23 -75 -39 -108q-32 -59 -85 -90q-64 -37 -172 -37q-51 0 -87.5 7.5t-67.5 24.5q-43 25 -61 65q-13 27 -13 67q0 14 1.5 27.5t3.5 27.5l14 62l112 435h98l-108 -415
q-11 -45 -17 -75.5t-6 -51.5q0 -18 3.5 -34t13.5 -29q14 -21 48 -34.5t79 -13.5q28 0 50.5 4t44.5 16q48 25 75 81q9 19 20 52.5t24 83.5l108 416h86l-11 -43l56 69l7 8q11 11 22.5 9.5t19.5 -9.5z" />
    <glyph glyph-name="uni1EEA" unicode="&#x1eea;" horiz-adv-x="667" 
d="M487 881l62 -130h-61l-87 130h86zM854 730q5 -10 2 -16.5t-11 -14.5l-117 -93l-99 -381q-23 -75 -39 -108q-32 -59 -85 -90q-64 -37 -172 -37q-51 0 -87.5 7.5t-67.5 24.5q-43 25 -61 65q-13 27 -13 67q0 14 1.5 27.5t3.5 27.5l14 62l112 435h98l-108 -415
q-11 -45 -17 -75.5t-6 -51.5q0 -18 3.5 -34t13.5 -29q14 -21 48 -34.5t79 -13.5q28 0 50.5 4t44.5 16q48 25 75 81q9 19 20 52.5t24 83.5l108 416h86l-11 -43l56 69l7 8q11 11 22.5 9.5t19.5 -9.5z" />
    <glyph glyph-name="uni1EEC" unicode="&#x1eec;" horiz-adv-x="667" 
d="M480 752l9 39q-3 -1 10.5 1.5t30 11t31 23t14.5 37.5q0 7 -5 12t-16 5t-16 -1.5t-7.5 -4.5t-3.5 -7.5t-3 -9.5l-5 -24h-56l5 22q6 25 27.5 45t71.5 20q32 0 49.5 -13t17.5 -37q0 -18 -8.5 -34t-22 -28t-30.5 -20t-33 -11l-7 -26h-53zM854 730q5 -10 2 -16.5t-11 -14.5
l-117 -93l-99 -381q-23 -75 -39 -108q-32 -59 -85 -90q-64 -37 -172 -37q-51 0 -87.5 7.5t-67.5 24.5q-43 25 -61 65q-13 27 -13 67q0 14 1.5 27.5t3.5 27.5l14 62l112 435h98l-108 -415q-11 -45 -17 -75.5t-6 -51.5q0 -18 3.5 -34t13.5 -29q14 -21 48 -34.5t79 -13.5
q28 0 50.5 4t44.5 16q48 25 75 81q9 19 20 52.5t24 83.5l108 416h86l-11 -43l56 69l7 8q11 11 22.5 9.5t19.5 -9.5z" />
    <glyph glyph-name="uni1EEE" unicode="&#x1eee;" horiz-adv-x="667" 
d="M672 878l-13 -51q-14 -47 -29.5 -61t-38.5 -14q-10 0 -19 2.5t-19 7.5q-5 2 -14 7.5t-22 14.5l-25 20q-33 21 -41 21q-11 0 -15 -8t-12 -36l-6 -25h-61l11 39q14 46 22 60q18 26 51 26q19 0 43 -12q4 -2 11.5 -7.5t17.5 -11.5l30 -23q15 -9 24 -14.5t12 -5.5
q9 0 13.5 8.5t12.5 34.5l6 28h61zM854 730q5 -10 2 -16.5t-11 -14.5l-117 -93l-99 -381q-23 -75 -39 -108q-32 -59 -85 -90q-64 -37 -172 -37q-51 0 -87.5 7.5t-67.5 24.5q-43 25 -61 65q-13 27 -13 67q0 14 1.5 27.5t3.5 27.5l14 62l112 435h98l-108 -415
q-11 -45 -17 -75.5t-6 -51.5q0 -18 3.5 -34t13.5 -29q14 -21 48 -34.5t79 -13.5q28 0 50.5 4t44.5 16q48 25 75 81q9 19 20 52.5t24 83.5l108 416h86l-11 -43l56 69l7 8q11 11 22.5 9.5t19.5 -9.5z" />
    <glyph glyph-name="uni1EF0" unicode="&#x1ef0;" horiz-adv-x="667" 
d="M354 -158h-118l30 113h119zM854 730q5 -10 2 -16.5t-11 -14.5l-117 -93l-99 -381q-23 -75 -39 -108q-32 -59 -85 -90q-64 -37 -172 -37q-51 0 -87.5 7.5t-67.5 24.5q-43 25 -61 65q-13 27 -13 67q0 14 1.5 27.5t3.5 27.5l14 62l112 435h98l-108 -415q-11 -45 -17 -75.5
t-6 -51.5q0 -18 3.5 -34t13.5 -29q14 -21 48 -34.5t79 -13.5q28 0 50.5 4t44.5 16q48 25 75 81q9 19 20 52.5t24 83.5l108 416h86l-11 -43l56 69l7 8q11 11 22.5 9.5t19.5 -9.5z" />
    <glyph glyph-name="uni1EE9" unicode="&#x1ee9;" 
d="M464 675l-88 -130h-62l63 130h87zM669 530q4 -10 1 -16.5t-11 -14.5l-123 -99l-103 -400h-86l15 57q-80 -66 -172 -66q-57 0 -85 25q-33 28 -33 80q0 20 4.5 43t11.5 50l80 311h85l-84 -324q-6 -24 -8 -34t-2 -26q0 -35 21 -51.5t55 -16.5q36 0 70 16.5t54 40.5
q7 8 12.5 18t10.5 23q4 10 7.5 22.5t8.5 28.5l79 303h85l-11 -43l63 75l6 8q11 11 22.5 9.5t19.5 -9.5z" />
    <glyph glyph-name="uni1EEB" unicode="&#x1eeb;" 
d="M364 675l62 -130h-62l-88 130h88zM669 530q4 -10 1 -16.5t-11 -14.5l-123 -99l-103 -400h-86l15 57q-80 -66 -172 -66q-57 0 -85 25q-33 28 -33 80q0 20 4.5 43t11.5 50l80 311h85l-84 -324q-6 -24 -8 -34t-2 -26q0 -35 21 -51.5t55 -16.5q36 0 70 16.5t54 40.5
q7 8 12.5 18t10.5 23q4 10 7.5 22.5t8.5 28.5l79 303h85l-11 -43l63 75l6 8q11 11 22.5 9.5t19.5 -9.5z" />
    <glyph glyph-name="uni1EED" unicode="&#x1eed;" 
d="M342 554l9 39q10 1 21 5q9 3 20.5 8.5t23.5 15.5q7 6 12 15t7 18q3 10 0 19t-19 9q-12 0 -16.5 -3t-5.5 -5q-4 -2 -8 -17l-5 -22h-56l5 22q2 8 4 13.5t5 10.5q6 13 24 25q11 8 29 12t37 4q34 0 52 -15q20 -19 14 -52q-5 -15 -14.5 -28.5t-24.5 -23.5q-26 -20 -54 -24
l-7 -26h-53zM669 530q4 -10 1 -16.5t-11 -14.5l-123 -99l-103 -400h-86l15 57q-80 -66 -172 -66q-57 0 -85 25q-33 28 -33 80q0 20 4.5 43t11.5 50l80 311h85l-84 -324q-6 -24 -8 -34t-2 -26q0 -35 21 -51.5t55 -16.5q36 0 70 16.5t54 40.5q7 8 12.5 18t10.5 23
q4 10 7.5 22.5t8.5 28.5l79 303h85l-11 -43l63 75l6 8q11 11 22.5 9.5t19.5 -9.5z" />
    <glyph glyph-name="uni1EEF" unicode="&#x1eef;" 
d="M539 682l-14 -52q-12 -48 -27.5 -62t-40.5 -14q-8 0 -17 3t-19 7q-5 2 -14 7.5t-23 14.5l-26 20q-30 21 -40 21t-14 -7.5t-12 -36.5l-7 -26h-61l12 40q5 22 11 36.5t11 24.5q8 11 20.5 18t29.5 7q11 0 21 -3.5t21 -8.5q5 -2 12.5 -6.5t18.5 -12.5l30 -22q28 -20 36 -20
q9 0 13 8t12 35l5 29h62zM669 530q4 -10 1 -16.5t-11 -14.5l-123 -99l-103 -400h-86l15 57q-80 -66 -172 -66q-57 0 -85 25q-33 28 -33 80q0 20 4.5 43t11.5 50l80 311h85l-84 -324q-6 -24 -8 -34t-2 -26q0 -35 21 -51.5t55 -16.5q36 0 70 16.5t54 40.5q7 8 12.5 18t10.5 23
q4 10 7.5 22.5t8.5 28.5l79 303h85l-11 -43l63 75l6 8q11 11 22.5 9.5t19.5 -9.5z" />
    <glyph glyph-name="uni1EF1" unicode="&#x1ef1;" 
d="M319 -158h-118l30 113h119zM669 530q4 -10 1 -16.5t-11 -14.5l-123 -99l-103 -400h-86l15 57q-80 -66 -172 -66q-57 0 -85 25q-33 28 -33 80q0 20 4.5 43t11.5 50l80 311h85l-84 -324q-6 -24 -8 -34t-2 -26q0 -35 21 -51.5t55 -16.5q36 0 70 16.5t54 40.5q7 8 12.5 18
t10.5 23q4 10 7.5 22.5t8.5 28.5l79 303h85l-11 -43l63 75l6 8q11 11 22.5 9.5t19.5 -9.5z" />
    <glyph glyph-name="Ygrave" unicode="&#x1ef2;" 
d="M700 706l-343 -447l-67 -259h-93l68 259l-126 447h99l74 -287l20 -74l55 74l214 287h99zM295 881h86l62 -130h-61zM700 706l-343 -447l-67 -259h-93l68 259l-126 447h99l74 -287l20 -74l55 74l214 287h99zM295 881h86l62 -130h-61z" />
    <glyph glyph-name="uni1EF4" unicode="&#x1ef4;" 
d="M357 259l-67 -259h-93l68 259l-126 447h99l74 -287l20 -74l55 74l214 287h99zM262 -158h-118l30 113h119z" />
    <glyph glyph-name="uni1EF6" unicode="&#x1ef6;" 
d="M357 259l-67 -259h-93l68 259l-126 447h99l74 -287l20 -74l55 74l214 287h99zM412 752l9 39q-3 -1 10.5 1.5t30 11t31 23t14.5 37.5q0 7 -5 12t-16 5t-16 -1.5t-7.5 -4.5t-3.5 -7.5t-3 -9.5l-5 -24h-56l5 22q6 25 27.5 45t71.5 20q32 0 49.5 -13t17.5 -37q0 -18 -8.5 -34
t-22 -28t-30.5 -20t-33 -11l-7 -26h-53z" />
    <glyph glyph-name="uni1EF8" unicode="&#x1ef8;" 
d="M357 259l-67 -259h-93l68 259l-126 447h99l74 -287l20 -74l55 74l214 287h99zM599 878l-13 -51q-14 -47 -29.5 -61t-38.5 -14q-10 0 -19 2.5t-19 7.5q-5 2 -14 7.5t-22 14.5l-25 20q-33 21 -41 21q-11 0 -15 -8t-12 -36l-6 -25h-61l11 39q14 46 22 60q18 26 51 26
q19 0 43 -12q4 -2 11.5 -7.5t17.5 -11.5l30 -23q15 -9 24 -14.5t12 -5.5q9 0 13.5 8.5t12.5 34.5l6 28h61z" />
    <glyph glyph-name="ygrave" unicode="&#x1ef3;" horiz-adv-x="417" 
d="M431 501h82l-286 -533q-16 -27 -33 -56.5t-27 -42.5q-22 -31 -44 -47q-41 -29 -90 -29q-15 0 -35.5 3.5t-44.5 12.5l20 64q19 -8 32.5 -12t28.5 -4q24 0 43.5 12t38.5 43q26 43 26 85q0 9 -1 22.5t-4 48.5l-41 433h86l26 -355q0 -20 0.5 -33t1 -22t1 -16t0.5 -14
q7 21 17 41.5t19 38.5zM277 676l62 -130h-62l-88 130h88z" />
    <glyph glyph-name="uni1EF5" unicode="&#x1ef5;" horiz-adv-x="417" 
d="M431 501h82l-286 -533q-16 -27 -33 -56.5t-27 -42.5q-22 -31 -44 -47q-41 -29 -90 -29q-15 0 -35.5 3.5t-44.5 12.5l20 64q19 -8 32.5 -12t28.5 -4q24 0 43.5 12t38.5 43q26 43 26 85q0 9 -1 22.5t-4 48.5l-41 433h86l26 -355q0 -20 0.5 -33t1 -22t1 -16t0.5 -14
q7 21 17 41.5t19 38.5zM356 -158h-118l30 113h119z" />
    <glyph glyph-name="uni1EF7" unicode="&#x1ef7;" horiz-adv-x="417" 
d="M431 501h82l-286 -533q-16 -27 -33 -56.5t-27 -42.5q-22 -31 -44 -47q-41 -29 -90 -29q-15 0 -35.5 3.5t-44.5 12.5l20 64q19 -8 32.5 -12t28.5 -4q24 0 43.5 12t38.5 43q26 43 26 85q0 9 -1 22.5t-4 48.5l-41 433h86l26 -355q0 -20 0.5 -33t1 -22t1 -16t0.5 -14
q7 21 17 41.5t19 38.5zM297 554l9 39q10 1 21 5q9 3 20.5 8.5t23.5 15.5q7 6 12 15t7 18q3 10 0 19t-19 9q-12 0 -16.5 -3t-5.5 -5q-4 -2 -8 -17l-5 -22h-56l5 22q2 8 4 13.5t5 10.5q6 13 24 25q11 8 29 12t37 4q34 0 52 -15q20 -19 14 -52q-5 -15 -14.5 -28.5t-24.5 -23.5
q-26 -20 -54 -24l-7 -26h-53z" />
    <glyph glyph-name="uni1EF9" unicode="&#x1ef9;" horiz-adv-x="417" 
d="M431 501h82l-286 -533q-16 -27 -33 -56.5t-27 -42.5q-22 -31 -44 -47q-41 -29 -90 -29q-15 0 -35.5 3.5t-44.5 12.5l20 64q19 -8 32.5 -12t28.5 -4q24 0 43.5 12t38.5 43q26 43 26 85q0 9 -1 22.5t-4 48.5l-41 433h86l26 -355q0 -20 0.5 -33t1 -22t1 -16t0.5 -14
q7 21 17 41.5t19 38.5zM479 682l-14 -52q-12 -48 -27.5 -62t-40.5 -14q-8 0 -17 3t-19 7q-5 2 -14 7.5t-23 14.5l-26 20q-30 21 -40 21t-14 -7.5t-12 -36.5l-7 -26h-61l12 40q5 22 11 36.5t11 24.5q8 11 20.5 18t29.5 7q11 0 21 -3.5t21 -8.5q5 -2 12.5 -6.5t18.5 -12.5
l30 -22q28 -20 36 -20q9 0 13 8t12 35l5 29h62z" />
    <glyph glyph-name="uni1EBA" unicode="&#x1eba;" 
d="M509 68l-18 -68h-437l183 706h389l-18 -68h-292l-61 -236h286l-18 -68h-286l-68 -266h340zM399 752l9 39q10 1 21 5q9 3 20.5 8.5t23.5 15.5q7 7 12 15.5t7 18.5q3 10 0 18.5t-19 8.5q-12 0 -16.5 -2.5t-5.5 -3.5q-2 -2 -4 -6t-4 -11l-5 -24h-56l5 22q4 16 9 24
q7 15 24 25q11 8 29 12t37 4q35 0 52 -15q20 -16 14 -50q-9 -35 -39 -54q-26 -18 -54 -24l-7 -26h-53z" />
    <glyph glyph-name="quotedbl" unicode="&#x22;" horiz-adv-x="396" 
d="M390 445h-19l-32 242l-1 17q0 22 13.5 33.5t32.5 11.5q42 0 42 -49zM203 445h-19l-33 242l-1 17q0 22 14 33.5t32 11.5q42 0 42 -49z" />
    </font>
</defs>
</svg>
