<?xml version="1.0" standalone="no"?>
<!DOCTYPE svg PUBLIC "-//W3C//DTD SVG 1.1//EN" "http://www.w3.org/Graphics/SVG/1.1/DTD/svg11.dtd" >
<svg xmlns="http://www.w3.org/2000/svg" xmlns:xlink="http://www.w3.org/1999/xlink" version="1.1">
<metadata>
Created by FontForge 20170910 at Fri Mar  5 18:28:36 2010
 By Jimmy Wärting
(c) Copyright 2006, 2007 Berthold LLC. All Rights Reserved. This font software computer program is the property of Berthold. You may not reproduce, modify, adapt, translate, alter nor create derivative works of the font software. You may not reverse engineer, decompile, decrypt, disassemble, nor seek to discover the source code of the font software.
</metadata>
<defs>
<font id="ImagoPro-Book" horiz-adv-x="500" >
  <font-face 
    font-family="Imago Pro Book"
    font-weight="400"
    font-stretch="normal"
    units-per-em="1000"
    panose-1="2 11 5 0 6 0 0 2 0 4"
    ascent="750"
    descent="-250"
    x-height="500"
    cap-height="706"
    bbox="-230 -282 1097 998"
    underline-thickness="50"
    underline-position="-100"
    stemh="52"
    stemv="85"
    unicode-range="U+0020-FB02"
  />
<missing-glyph 
d="M0 0v706h500v-706h-500zM250 401l170 255h-340zM280 353l170 -258v516zM80 50h340l-170 258zM50 611v-516l170 258z" />
    <glyph glyph-name="fi" unicode="fi" horiz-adv-x="521" 
d="M449 608h-85v87h85v-87zM449 0h-85v500h85v-500zM181 0h-86v449h-76v51h76v47c0 113 49 161 140 161c22 0 52 -4 71 -15v-60c-15 8 -31 16 -56 16c-65 0 -69 -39 -69 -95v-54h91v-51h-91v-449z" />
    <glyph glyph-name="fl" unicode="fl" horiz-adv-x="521" 
d="M449 0h-85v706h85v-706zM181 0h-86v449h-76v51h76v47c0 113 49 161 140 161c22 0 52 -4 71 -15v-60c-15 8 -31 16 -56 16c-65 0 -69 -39 -69 -95v-54h91v-51h-91v-449z" />
    <glyph glyph-name=".notdef" 
d="M0 0v706h500v-706h-500zM250 401l170 255h-340zM280 353l170 -258v516zM80 50h340l-170 258zM50 611v-516l170 258z" />
    <glyph glyph-name="space" unicode=" " horiz-adv-x="271" 
 />
    <glyph glyph-name="exclam" unicode="!" horiz-adv-x="229" 
d="M74 648h101c-2 -130 -9 -479 -9 -479h-82c-3 160 -6 317 -10 479zM175 0h-101v97h101v-97z" />
    <glyph glyph-name="quotedbl" unicode="&#x22;" horiz-adv-x="323" 
d="M291 743l-29 -308h-32l-30 308h91zM122 743l-28 -308h-33l-29 308h90z" />
    <glyph glyph-name="numbersign" unicode="#" horiz-adv-x="667" 
d="M624 410h-175l-13 -97h168v-54h-175l-35 -259h-59l34 259h-99l-34 -259h-61l35 259h-168v54h175l13 97h-167v57h174l32 241h62l-33 -241h99l31 241h60l-32 -241h168v-57zM389 410h-99l-13 -97h99z" />
    <glyph glyph-name="dollar" unicode="$" horiz-adv-x="458" 
d="M212 747h56v-92c20 0 78 -1 133 -23v-72c-36 23 -76 36 -135 36c-41 0 -134 -11 -134 -95c0 -59 61 -91 106 -113l51 -25c128 -63 147 -135 147 -186c0 -132 -127 -176 -168 -177v-114h-56v107s-15 -1 -22 -1c-62 0 -123 9 -164 26v79c44 -29 100 -41 168 -41
c82 0 151 31 151 108c0 59 -44 90 -106 122l-50 26c-73 38 -145 82 -145 176c0 135 138 161 168 163v96z" />
    <glyph glyph-name="percent" unicode="%" horiz-adv-x="792" 
d="M275 0h-56l301 648h53zM304 446v-30c0 -197 -75 -216 -142 -216c-66 0 -134 16 -134 214v30c0 179 68 209 145 209c73 0 131 -31 131 -207zM240 412v31c0 147 -29 167 -69 167c-47 0 -78 -22 -78 -166v-31c0 -161 40 -168 73 -168c44 0 74 28 74 167zM764 240v-30
c0 -197 -75 -216 -142 -216c-66 0 -134 16 -134 214v30c0 179 68 209 145 209c73 0 131 -31 131 -207zM700 206v31c0 147 -29 167 -69 167c-47 0 -78 -22 -78 -166v-31c0 -161 40 -168 73 -168c44 0 74 28 74 167z" />
    <glyph glyph-name="ampersand" unicode="&#x26;" horiz-adv-x="664" 
d="M615 361v-71c0 -77 -14 -118 -58 -169l104 -121h-119l-47 55c-76 -52 -128 -65 -208 -65c-154 0 -255 86 -255 216c0 90 40 148 166 207c-50 58 -68 102 -68 151c0 92 75 154 186 154c101 0 169 -56 169 -142c0 -87 -65 -120 -168 -166l197 -237c15 27 18 57 18 110v78
h83zM459 99l-225 272c-75 -34 -106 -78 -106 -146c0 -103 79 -174 193 -174c56 0 92 12 138 48zM283 452c87 39 120 73 120 122c0 54 -37 90 -91 90c-56 0 -95 -35 -95 -84c0 -38 17 -71 66 -128z" />
    <glyph glyph-name="quotesingle" unicode="'" horiz-adv-x="154" 
d="M122 743l-28 -308h-33l-29 308h90z" />
    <glyph glyph-name="parenleft" unicode="(" horiz-adv-x="333" 
d="M333 706v-53h-10c-134 0 -167 -96 -178 -151c-11 -56 -13 -192 -13 -248c0 -226 27 -342 201 -342v-53h-7c-58 0 -124 1 -181 49c-83 69 -95 195 -95 370c0 63 3 187 20 250c38 142 138 178 246 178h17z" />
    <glyph glyph-name="parenright" unicode=")" horiz-adv-x="333" 
d="M0 706h7c63 0 124 0 183 -49c83 -69 93 -195 93 -370c0 -63 0 -187 -17 -250c-38 -142 -144 -178 -249 -178h-17v53h10c138 0 169 95 180 150c11 56 11 193 11 249c0 226 -27 342 -201 342v53z" />
    <glyph glyph-name="asterisk" unicode="*" horiz-adv-x="354" 
d="M331 603l-101 -56l99 -53l-29 -53l-97 59s2 -100 2 -114h-59c0 14 3 114 3 114l-95 -59l-30 51l98 55l-98 49l28 54l97 -55s-2 86 -3 111h59c-1 -19 -2 -111 -2 -111l97 58z" />
    <glyph glyph-name="plus" unicode="+" horiz-adv-x="724" 
d="M631 338v-76h-225v-230h-88v230h-224v76h224v229h88v-229h225z" />
    <glyph glyph-name="comma" unicode="," horiz-adv-x="208" 
d="M155 4l-54 -115h-55l55 111h-51v97h105v-93z" />
    <glyph glyph-name="hyphen" unicode="-" horiz-adv-x="396" 
d="M346 224h-296v67h296v-67z" />
    <glyph glyph-name="period" unicode="." horiz-adv-x="208" 
d="M155 0h-101v97h101v-97z" />
    <glyph glyph-name="slash" unicode="/" horiz-adv-x="354" 
d="M354 706l-278 -706h-76l278 706h76z" />
    <glyph glyph-name="zero" unicode="0" 
d="M451 331v-15c0 -254 -68 -325 -207 -325c-119 0 -195 52 -195 319v21c0 271 87 325 209 325c124 0 193 -53 193 -325zM364 315v18c0 230 -39 267 -110 267c-81 0 -118 -50 -118 -271v-16c0 -209 30 -264 115 -264c84 0 113 58 113 266z" />
    <glyph glyph-name="one" unicode="1" 
d="M319 0h-89v545h-123v57c81 12 144 31 174 41c13 5 26 9 38 15v-658z" />
    <glyph glyph-name="two" unicode="2" 
d="M448 0h-405v73l121 130c165 177 196 215 196 291c0 93 -71 104 -105 104c-81 0 -121 -56 -121 -124v-19h-87v30c5 90 65 171 217 171c114 0 188 -56 188 -159c0 -20 -2 -63 -26 -110c-37 -72 -144 -172 -199 -229l-82 -85h303v-73z" />
    <glyph glyph-name="three" unicode="3" 
d="M31 175h91v-15c0 -82 57 -111 121 -111c116 0 124 99 124 129c0 82 -45 126 -123 126h-79v63h18c74 0 106 3 134 32c15 16 31 43 31 90c0 88 -46 112 -107 112c-37 0 -68 -12 -87 -38c-22 -30 -23 -72 -23 -86v-15h-87c0 49 3 89 35 127c55 66 147 67 174 67
c96 0 186 -36 186 -159c0 -85 -48 -136 -121 -158c81 -10 139 -54 139 -156c0 -75 -38 -192 -221 -192c-110 0 -205 40 -205 171v13z" />
    <glyph glyph-name="four" unicode="4" 
d="M464 147h-70v-147h-85v147h-276v43c34 75 69 150 101 226c33 77 64 154 94 232h92c-35 -81 -70 -162 -106 -242c-29 -64 -58 -126 -88 -189h183v279h85v-279h70v-70z" />
    <glyph glyph-name="five" unicode="5" 
d="M439 648v-74h-283l-6 -182c35 35 84 49 131 49c60 0 178 -30 178 -219c0 -173 -109 -231 -218 -231c-160 0 -198 103 -198 165v19h88v-4c0 -21 4 -122 112 -122c58 0 124 31 124 176c0 148 -81 153 -111 153c-22 0 -86 -5 -111 -81h-74c1 37 14 351 14 351h354z" />
    <glyph glyph-name="six" unicode="6" 
d="M466 483h-85c0 54 -24 115 -109 115c-26 0 -82 -9 -110 -76c-13 -31 -22 -93 -23 -174c25 28 69 66 149 66c87 0 123 -39 148 -77c14 -21 29 -69 29 -133c0 -53 -13 -110 -50 -152c-23 -26 -74 -61 -159 -61c-141 0 -205 88 -205 305c0 29 2 166 34 241
c19 44 70 119 192 119c162 0 189 -112 189 -173zM145 201c0 -46 17 -155 115 -155c67 0 118 42 118 160c0 59 -15 148 -111 148c-32 0 -122 -12 -122 -153z" />
    <glyph glyph-name="seven" unicode="7" 
d="M40 575v73h421v-73c-43 -95 -86 -189 -131 -282c-48 -99 -98 -196 -148 -293h-100c54 100 108 201 159 302c45 90 88 182 130 273h-331z" />
    <glyph glyph-name="eight" unicode="8" 
d="M334 346c115 -15 124 -125 124 -159c0 -125 -66 -196 -210 -196c-115 0 -206 54 -206 186c0 123 81 163 124 169c-69 13 -107 66 -107 139c0 21 6 88 59 131c38 30 90 40 136 40c102 0 187 -44 187 -160c0 -87 -45 -133 -107 -150zM133 177c0 -76 36 -133 118 -133
c15 0 64 2 94 43c25 35 25 84 25 102c0 80 -41 129 -116 129c-26 0 -121 -7 -121 -141zM143 479c0 -94 74 -107 107 -107c53 0 106 25 106 123c0 90 -67 108 -102 108c-64 0 -111 -38 -111 -124z" />
    <glyph glyph-name="nine" unicode="9" 
d="M33 165h84v-5c0 -23 12 -111 109 -111c23 0 73 6 102 62c21 39 30 93 31 187c-30 -29 -72 -64 -148 -64c-140 0 -177 104 -177 210c0 145 84 212 209 212c136 0 206 -83 206 -290c0 -191 -28 -375 -227 -375c-133 0 -189 79 -189 168v6zM355 445c0 103 -44 157 -115 157
c-101 0 -119 -86 -119 -154c0 -137 69 -155 111 -155c69 0 123 42 123 152z" />
    <glyph glyph-name="colon" unicode=":" horiz-adv-x="229" 
d="M175 403h-100v97h100v-97zM175 0h-100v97h100v-97z" />
    <glyph glyph-name="semicolon" unicode=";" horiz-adv-x="229" 
d="M176 403h-100v97h100v-97zM176 4l-54 -115h-55l55 111h-51v97h105v-93z" />
    <glyph glyph-name="less" unicode="&#x3c;" horiz-adv-x="724" 
d="M579 23l-465 234v87l465 235v-86l-383 -190l383 -189v-91z" />
    <glyph glyph-name="equal" unicode="=" horiz-adv-x="724" 
d="M625 350h-526v78h526v-78zM625 162h-526v77h526v-77z" />
    <glyph glyph-name="greater" unicode="&#x3e;" horiz-adv-x="724" 
d="M610 256l-466 -235v86l383 190l-383 189v91l466 -233v-88z" />
    <glyph glyph-name="question" unicode="?" horiz-adv-x="479" 
d="M223 172h-76v124c48 3 109 16 146 47c23 19 54 57 54 127c0 74 -37 133 -118 133c-12 0 -53 -1 -79 -32c-22 -26 -24 -59 -24 -90v-39h-86v38c0 73 20 179 202 179c116 0 197 -61 197 -183c0 -155 -140 -219 -216 -228v-76zM237 0h-97v97h97v-97z" />
    <glyph glyph-name="at" unicode="@" horiz-adv-x="888" 
d="M577 494h67l-49 -226c-4 -19 -12 -62 -12 -86c0 -29 7 -52 34 -52c75 0 151 163 151 287c0 151 -97 243 -256 243c-232 0 -394 -183 -394 -417c0 -188 121 -313 329 -313c137 0 247 57 336 144l37 -42c-117 -101 -228 -156 -370 -156c-239 0 -388 148 -388 366
c0 272 188 470 454 470c183 0 308 -105 308 -292c0 -177 -109 -349 -231 -349c-54 0 -80 28 -82 88c-46 -60 -91 -87 -147 -87c-79 0 -130 63 -130 161c0 150 101 283 213 283c53 0 94 -17 115 -88zM539 345c0 72 -33 110 -87 110c-74 0 -141 -104 -141 -219
c0 -69 33 -102 83 -102c75 0 145 103 145 211z" />
    <glyph glyph-name="A" unicode="A" horiz-adv-x="646" 
d="M645 0h-101l-94 276h-253l-107 -276h-89l283 706h114zM427 341l-96 286l-109 -286h205z" />
    <glyph glyph-name="B" unicode="B" horiz-adv-x="604" 
d="M77 0v706h215c68 0 149 -5 194 -67c12 -17 30 -50 30 -101c0 -34 -7 -107 -101 -156c50 -11 91 -33 119 -74c12 -18 31 -56 31 -111c0 -61 -28 -124 -80 -159c-50 -34 -107 -38 -164 -38h-244zM171 339v-276h133c70 0 165 14 165 138c0 49 -15 90 -58 116
c-36 22 -79 22 -161 22h-79zM171 402h85c71 0 110 7 138 39c13 15 28 39 28 84c0 59 -23 85 -46 99c-29 19 -60 19 -125 19h-80v-241z" />
    <glyph glyph-name="C" unicode="C" horiz-adv-x="625" 
d="M595 487h-94v8c0 88 -47 164 -163 164c-168 0 -188 -172 -188 -336c0 -106 11 -276 180 -276c125 0 171 88 176 171h96c-12 -128 -87 -231 -280 -231c-226 0 -273 155 -273 346c0 230 63 387 292 387c182 0 254 -95 254 -219v-14z" />
    <glyph glyph-name="D" unicode="D" horiz-adv-x="688" 
d="M77 0v706h260c204 0 298 -101 298 -353c0 -223 -83 -353 -327 -353h-231zM172 68h110c181 0 258 64 258 292c0 221 -87 279 -237 279h-131v-571z" />
    <glyph glyph-name="E" unicode="E" horiz-adv-x="521" 
d="M494 0h-417v706h390v-67h-293v-238h269v-67h-269v-266h320v-68z" />
    <glyph glyph-name="F" unicode="F" horiz-adv-x="479" 
d="M465 639h-291v-256h273v-68h-273v-315h-97v706h388v-67z" />
    <glyph glyph-name="G" unicode="G" horiz-adv-x="667" 
d="M600 0h-85v55c-68 -68 -167 -68 -198 -68c-181 0 -271 101 -271 339c0 191 38 394 292 394c149 0 254 -66 254 -223v-10h-94v8c0 50 -17 164 -163 164c-131 0 -188 -98 -188 -334c0 -162 35 -278 186 -278c89 0 183 37 183 155v89h-160v68h244v-359z" />
    <glyph glyph-name="H" unicode="H" horiz-adv-x="667" 
d="M590 0h-96v340h-320v-340h-97v706h97v-299h320v299h96v-706z" />
    <glyph glyph-name="I" unicode="I" horiz-adv-x="250" 
d="M173 0h-96v706h96v-706z" />
    <glyph glyph-name="J" unicode="J" horiz-adv-x="417" 
d="M247 706h97v-515c0 -21 -1 -87 -40 -137c-50 -63 -137 -64 -159 -64c-56 0 -92 10 -141 32v77c29 -16 71 -40 129 -40c12 0 43 0 72 22c36 28 42 72 42 153v472z" />
    <glyph glyph-name="K" unicode="K" horiz-adv-x="604" 
d="M620 0h-116l-250 353l-83 -86v-267h-94v706h94v-336l308 336h111l-270 -287z" />
    <glyph glyph-name="L" unicode="L" horiz-adv-x="521" 
d="M494 0h-417v706h97v-638h320v-68z" />
    <glyph glyph-name="M" unicode="M" horiz-adv-x="875" 
d="M807 0h-91c0 19 -8 658 -8 658l-238 -658h-76l-235 658s-10 -642 -10 -658h-85c0 17 15 706 15 706h157l200 -582l205 582h159c0 -12 7 -706 7 -706z" />
    <glyph glyph-name="N" unicode="N" horiz-adv-x="708" 
d="M632 0h-105l-369 585c1 -28 3 -585 3 -585h-84v706h109l367 -588c-1 28 -4 588 -4 588h83v-706z" />
    <glyph glyph-name="O" unicode="O" horiz-adv-x="688" 
d="M49 318c0 206 30 402 301 402c205 0 288 -108 288 -343c0 -213 -43 -390 -294 -390c-194 0 -295 93 -295 331zM150 323c0 -140 26 -276 190 -276c160 0 197 117 197 330c0 156 -25 282 -187 282c-182 0 -200 -150 -200 -336z" />
    <glyph glyph-name="P" unicode="P" horiz-adv-x="542" 
d="M174 269v-269h-97v706h231c51 0 104 -2 152 -41c31 -26 66 -79 66 -171c0 -100 -38 -156 -73 -183c-54 -41 -125 -42 -187 -42h-92zM174 337h93c82 0 162 8 162 150c0 93 -31 151 -134 151h-121v-301z" />
    <glyph glyph-name="Q" unicode="Q" horiz-adv-x="688" 
d="M678 -106h-93c-12 54 -40 109 -106 117c-36 -13 -71 -24 -138 -24c-120 0 -206 45 -245 115c-31 56 -46 114 -46 240c0 238 64 378 302 378c184 0 286 -83 286 -347c0 -47 -1 -249 -90 -313c98 -18 125 -108 130 -162v-4zM151 347c0 -133 5 -300 192 -300
c145 0 196 100 196 315c0 168 -26 297 -190 297c-178 0 -198 -147 -198 -312z" />
    <glyph glyph-name="R" unicode="R" horiz-adv-x="604" 
d="M77 706h257c120 0 164 -32 191 -75c12 -19 28 -53 28 -107c0 -149 -116 -179 -130 -183c66 -22 85 -54 111 -150l11 -41c23 -87 25 -110 58 -150h-101c-24 22 -32 52 -48 124c-27 120 -43 185 -179 185h-104v-309h-94v706zM171 376h122c89 0 164 19 164 133
c0 47 -13 70 -27 87c-33 40 -70 42 -160 42h-99v-262z" />
    <glyph glyph-name="S" unicode="S" horiz-adv-x="542" 
d="M490 521h-89c0 98 -51 137 -126 137c-42 0 -86 -12 -114 -46c-22 -27 -23 -56 -23 -69c0 -72 53 -95 135 -127l48 -19c131 -52 184 -104 184 -205c0 -36 -9 -204 -245 -204c-163 0 -241 74 -241 207v13h96v-16c0 -135 111 -143 150 -143c112 0 144 71 144 131
c0 82 -69 110 -136 136l-60 23c-69 27 -169 68 -169 190c0 19 1 66 34 110c48 65 127 79 202 79c104 0 153 -31 181 -74c11 -16 30 -52 30 -104c0 -6 0 -12 -1 -19z" />
    <glyph glyph-name="T" unicode="T" 
d="M500 639h-201v-639h-96v639h-203v67h500v-67z" />
    <glyph glyph-name="U" unicode="U" horiz-adv-x="667" 
d="M596 706v-456c0 -55 -2 -132 -67 -197c-30 -30 -98 -65 -200 -65c-62 0 -141 13 -191 56c-63 54 -67 139 -67 210v452h96v-464c0 -140 65 -193 172 -193c152 0 173 113 173 215v442h84z" />
    <glyph glyph-name="V" unicode="V" horiz-adv-x="583" 
d="M350 0h-116l-234 706h103l194 -617l197 617h89z" />
    <glyph glyph-name="W" unicode="W" horiz-adv-x="854" 
d="M684 0h-142l-117 548l-140 -548h-144l-141 706h97l121 -648l173 648h81l148 -646l150 646h83z" />
    <glyph glyph-name="X" unicode="X" horiz-adv-x="604" 
d="M604 0h-110l-192 303l-197 -303h-105l257 376l-212 330h112l156 -246l158 246h99l-213 -316z" />
    <glyph glyph-name="Y" unicode="Y" horiz-adv-x="604" 
d="M604 706l-248 -448v-258h-92v258l-264 448h113l203 -363l192 363h96z" />
    <glyph glyph-name="Z" unicode="Z" horiz-adv-x="604" 
d="M567 0h-538v66l427 573h-381v67h491v-70l-426 -569h427v-67z" />
    <glyph glyph-name="bracketleft" unicode="[" horiz-adv-x="333" 
d="M313 -141h-206v847h206v-54h-130v-739h130v-54z" />
    <glyph glyph-name="backslash" unicode="\" horiz-adv-x="354" 
d="M354 0h-76l-278 706h77z" />
    <glyph glyph-name="bracketright" unicode="]" horiz-adv-x="333" 
d="M227 -141h-206v54h129v739h-129v54h206v-847z" />
    <glyph glyph-name="asciicircum" unicode="^" horiz-adv-x="724" 
d="M609 287h-92l-155 337l-157 -337h-90l203 419h88z" />
    <glyph glyph-name="underscore" unicode="_" 
d="M510 -206h-520v59h520v-59z" />
    <glyph glyph-name="grave" unicode="`" horiz-adv-x="271" 
d="M224 559h-73l-104 136h99z" />
    <glyph glyph-name="a" unicode="a" 
d="M451 0h-66c-33 0 -41 11 -41 41v14c-43 -49 -101 -65 -148 -65c-96 0 -157 49 -157 145c0 68 40 104 63 117c34 19 81 35 242 50v53c0 67 -28 100 -95 100c-31 0 -111 -4 -111 -107v-7h-81v15c0 119 101 155 198 155c80 0 127 -24 150 -57c19 -27 23 -70 23 -108v-273
c0 -38 5 -58 23 -61v-12zM344 180v75c-103 -12 -147 -24 -169 -37c-34 -20 -45 -51 -45 -81c0 -56 33 -90 91 -90c31 0 57 8 77 21c43 28 46 75 46 112z" />
    <glyph glyph-name="b" unicode="b" horiz-adv-x="542" 
d="M157 0h-85v706h86v-275c27 34 78 80 164 80c143 0 178 -128 178 -254c0 -129 -40 -267 -199 -267c-81 0 -123 43 -144 67v-57zM157 291v-94c0 -53 5 -101 56 -132c10 -6 33 -19 66 -19c101 0 132 85 132 213c0 58 -2 196 -118 196c-41 0 -84 -19 -109 -53
c-26 -35 -27 -71 -27 -111z" />
    <glyph glyph-name="c" unicode="c" horiz-adv-x="495" 
d="M458 331h-84c0 38 -13 124 -113 124c-113 0 -130 -128 -130 -209c0 -57 8 -200 126 -200c46 0 105 20 115 122h86c0 -19 -8 -178 -201 -178c-136 0 -216 81 -216 257c0 126 44 264 223 264c105 0 194 -45 194 -180z" />
    <glyph glyph-name="d" unicode="d" horiz-adv-x="542" 
d="M469 0h-83v61c-18 -20 -64 -71 -156 -71c-162 0 -189 150 -189 252c0 183 80 269 208 269c81 0 115 -37 137 -64v259h83v-706zM386 200v133c0 99 -74 122 -118 122c-136 0 -137 -150 -137 -203c0 -90 17 -206 126 -206c39 0 80 17 102 45c25 32 27 76 27 109z" />
    <glyph glyph-name="e" unicode="e" 
d="M131 252v-5c0 -62 2 -201 131 -201c32 0 109 13 115 107h85c0 -85 -69 -163 -204 -163c-157 0 -218 102 -218 246c0 163 65 275 224 275c128 0 200 -74 200 -234v-25h-333zM134 304h245c-1 31 -4 151 -114 151c-72 0 -125 -51 -131 -151z" />
    <glyph glyph-name="f" unicode="f" horiz-adv-x="292" 
d="M181 0h-86v449h-76v51h76v47c0 113 49 161 140 161c22 0 52 -4 71 -15v-60c-15 8 -31 16 -56 16c-65 0 -69 -39 -69 -95v-54h91v-51h-91v-449z" />
    <glyph glyph-name="g" unicode="g" horiz-adv-x="542" 
d="M470 500v-469c0 -180 -100 -239 -232 -239c-91 0 -194 33 -194 152v14h81c0 -68 43 -110 121 -110c124 0 140 103 140 172v45c-38 -44 -98 -65 -155 -65c-162 0 -190 152 -190 248c0 157 71 263 205 263c80 0 118 -40 141 -64v53h83zM387 180v149c0 72 -43 126 -119 126
c-70 0 -138 -48 -138 -197c0 -131 37 -202 131 -202c68 0 126 41 126 124z" />
    <glyph glyph-name="h" unicode="h" horiz-adv-x="542" 
d="M469 0h-85v321c0 91 -30 134 -101 134c-64 0 -126 -35 -126 -116v-339h-85v706h85v-262c24 22 77 67 164 67c101 0 148 -61 148 -157v-354z" />
    <glyph glyph-name="i" unicode="i" horiz-adv-x="229" 
d="M157 608h-85v87h85v-87zM157 0h-85v500h85v-500z" />
    <glyph glyph-name="j" unicode="j" horiz-adv-x="229" 
d="M157 500v-523c0 -85 -14 -184 -149 -184c-21 0 -30 2 -39 4v62c14 -2 19 -3 31 -3c54 0 71 39 71 109v535h86zM157 608h-86v87h86v-87z" />
    <glyph glyph-name="k" unicode="k" 
d="M508 0h-103l-175 257l-73 -78v-179h-85v706h85v-436l202 230h97l-168 -182z" />
    <glyph glyph-name="l" unicode="l" horiz-adv-x="229" 
d="M157 0h-85v706h85v-706z" />
    <glyph glyph-name="m" unicode="m" horiz-adv-x="792" 
d="M719 0h-85v339c0 55 -14 116 -85 116c-10 0 -29 -1 -52 -13c-56 -28 -58 -77 -58 -101v-341h-86v341c0 35 -5 114 -86 114c-32 0 -53 -13 -63 -20c-45 -31 -46 -72 -46 -119v-316h-86v500h86v-57c22 21 71 68 148 68c94 0 118 -62 123 -78c24 26 79 78 158 78
c94 0 132 -63 132 -149v-362z" />
    <glyph glyph-name="n" unicode="n" horiz-adv-x="542" 
d="M469 0h-85v312c0 59 -5 91 -29 116c-26 27 -59 27 -72 27c-70 0 -126 -41 -126 -114v-341h-85v500h85v-56c24 22 77 67 164 67c14 0 49 -1 83 -20c60 -34 65 -91 65 -152v-339z" />
    <glyph glyph-name="o" unicode="o" horiz-adv-x="521" 
d="M41 245c0 192 88 266 224 266c160 0 215 -96 215 -247c0 -148 -37 -274 -222 -274c-147 0 -217 84 -217 255zM131 247c0 -73 7 -203 132 -203c117 0 127 128 127 211c0 123 -32 201 -125 201c-110 0 -134 -110 -134 -209z" />
    <glyph glyph-name="p" unicode="p" horiz-adv-x="542" 
d="M69 500h84v-61c38 48 96 72 156 72c161 0 189 -153 189 -253c0 -124 -38 -268 -209 -268c-56 0 -113 24 -136 63v-259h-84v706zM152 299v-131c0 -98 72 -122 119 -122c136 0 137 151 137 203c0 87 -16 206 -127 206c-38 0 -80 -17 -102 -45c-25 -31 -27 -78 -27 -111z
" />
    <glyph glyph-name="q" unicode="q" horiz-adv-x="542" 
d="M385 500h84v-706h-84v259c-10 -13 -53 -64 -151 -64c-41 0 -193 10 -193 257c0 221 119 265 201 265c31 0 92 -7 143 -68v57zM384 180v142c0 81 -50 133 -123 133c-122 0 -130 -142 -130 -203c0 -91 17 -208 134 -208c108 0 119 80 119 136z" />
    <glyph glyph-name="r" unicode="r" horiz-adv-x="333" 
d="M159 0h-87v500h87v-65c11 16 51 74 122 74c31 0 47 -11 59 -19v-78c-13 9 -40 28 -83 28c-87 0 -98 -68 -98 -95v-345z" />
    <glyph glyph-name="s" unicode="s" horiz-adv-x="437" 
d="M395 357h-81v14c0 34 -17 87 -94 87c-67 0 -96 -38 -96 -75c0 -48 51 -68 97 -81l52 -15c84 -24 132 -66 132 -146c0 -75 -47 -151 -189 -151c-140 0 -185 69 -185 152v13h86v-13c0 -43 19 -96 107 -96c74 0 97 38 97 78c0 62 -49 77 -95 91l-64 19
c-31 9 -117 34 -117 128c0 72 42 149 178 149c87 0 172 -36 172 -148v-6z" />
    <glyph glyph-name="t" unicode="t" horiz-adv-x="292" 
d="M171 449l-1 -302c0 -53 7 -93 65 -93c27 0 48 9 57 12v-58c-18 -6 -50 -17 -94 -17c-12 0 -48 0 -78 22c-35 26 -38 56 -38 136c0 0 1 264 2 300h-75v51h75v109l87 15v-124h94v-51h-94z" />
    <glyph glyph-name="u" unicode="u" horiz-adv-x="542" 
d="M469 0h-85v58c-26 -24 -81 -68 -165 -68c-31 0 -63 4 -96 29c-51 39 -55 96 -55 153v328h85v-305c0 -69 7 -149 103 -149c33 0 77 13 99 36c25 26 29 48 29 80v338h85v-500z" />
    <glyph glyph-name="v" unicode="v" horiz-adv-x="437" 
d="M438 500l-182 -500h-91l-165 500h94l125 -410l141 410h78z" />
    <glyph glyph-name="w" unicode="w" horiz-adv-x="708" 
d="M708 500l-148 -500h-92l-111 384l-121 -384h-91l-145 500h91l108 -411l128 411h79l114 -411l113 411h75z" />
    <glyph glyph-name="x" unicode="x" horiz-adv-x="437" 
d="M438 0h-103l-125 201l-127 -201h-83l172 255l-154 245h102l105 -171l106 171h78l-148 -224z" />
    <glyph glyph-name="y" unicode="y" horiz-adv-x="437" 
d="M438 500l-203 -566c-26 -73 -56 -139 -163 -139c-15 0 -33 0 -62 8v69c12 -3 30 -9 57 -9c63 0 84 39 103 93l14 40l-184 504h96l133 -397l130 397h79z" />
    <glyph glyph-name="z" unicode="z" horiz-adv-x="417" 
d="M399 0h-382v58l282 382h-258v60h357v-60l-281 -380h282v-60z" />
    <glyph glyph-name="braceleft" unicode="{" horiz-adv-x="313" 
d="M305 707v-29c-92 -11 -112 -47 -112 -135v-123c0 -72 -24 -112 -82 -135c58 -23 82 -62 82 -138v-107c0 -115 23 -140 112 -153v-28c-144 0 -190 30 -190 176v110c0 77 -14 105 -73 126v30c55 16 73 44 73 115v130c0 122 54 161 190 161z" />
    <glyph glyph-name="bar" unicode="|" horiz-adv-x="308" 
d="M193 -141h-78v847h78v-847z" />
    <glyph glyph-name="braceright" unicode="}" horiz-adv-x="313" 
d="M8 679v28c144 0 190 -30 190 -176v-110c0 -77 14 -105 73 -126v-30c-55 -16 -73 -44 -73 -115v-130c0 -122 -54 -161 -190 -161v29c92 11 112 47 112 135v123c0 72 24 112 82 135c-58 23 -82 62 -82 138v107c0 115 -23 140 -112 153z" />
    <glyph glyph-name="asciitilde" unicode="~" horiz-adv-x="724" 
d="M609 380l42 -66c-59 -75 -107 -101 -165 -101c-24 0 -55 5 -120 38l-35 18c-46 24 -75 31 -104 31c-32 0 -59 -11 -102 -69l-9 -12l-42 67c48 70 92 103 158 103c34 0 65 -9 133 -41l45 -21c44 -20 60 -26 79 -26c37 0 74 19 120 79z" />
    <glyph glyph-name="Adieresis" unicode="&#xc4;" horiz-adv-x="646" 
d="M645 0h-101l-94 276h-253l-107 -276h-89l283 706h114zM427 341l-96 286l-109 -286h205zM467 777h-88v92h88v-92zM303 777h-89v92h89v-92z" />
    <glyph glyph-name="Aring" unicode="&#xc5;" horiz-adv-x="646" 
d="M645 0h-101l-94 276h-253l-107 -276h-89l283 706h114zM427 341l-96 286l-109 -286h205zM431 842c0 -56 -44 -91 -92 -91c-52 0 -90 42 -90 90c0 53 44 90 93 90c46 0 89 -37 89 -89zM384 841c0 25 -19 43 -43 43s-45 -18 -45 -43c0 -24 17 -44 44 -44c24 0 44 17 44 44z
" />
    <glyph glyph-name="Ccedilla" unicode="&#xc7;" horiz-adv-x="625" 
d="M595 487h-94v8c0 88 -47 164 -163 164c-168 0 -188 -172 -188 -336c0 -106 11 -276 180 -276c125 0 171 88 176 171h96c-12 -128 -87 -230 -280 -230h-4l-2 -30c6 1 13 1 20 1c23 0 91 -15 91 -94c0 -25 -9 -43 -15 -52c-18 -29 -48 -45 -114 -45c-14 0 -29 1 -42 2v51
c12 -2 25 -2 35 -2c45 0 71 10 71 44c0 35 -17 48 -82 48c-4 0 -9 0 -13 -1l6 81c-184 21 -224 165 -224 342c0 230 63 387 292 387c182 0 254 -95 254 -219v-14z" />
    <glyph glyph-name="Eacute" unicode="&#xc9;" horiz-adv-x="521" 
d="M494 0h-417v706h390v-67h-293v-238h269v-67h-269v-266h320v-68zM418 895l-144 -136h-74l113 136h105z" />
    <glyph glyph-name="Ntilde" unicode="&#xd1;" horiz-adv-x="708" 
d="M632 0h-105l-369 585c1 -28 3 -585 3 -585h-84v706h109l367 -588c-1 28 -4 588 -4 588h83v-706zM495 890v-50c0 -53 -18 -81 -62 -81c-31 0 -59 21 -84 40l-25 19c-13 10 -27 20 -33 20c-16 0 -16 -19 -16 -42v-32h-60v51c0 29 1 80 58 80c21 0 40 -5 76 -33l31 -24
c15 -12 29 -21 37 -21c9 0 16 3 16 35v38h62z" />
    <glyph glyph-name="Odieresis" unicode="&#xd6;" horiz-adv-x="688" 
d="M49 318c0 206 30 402 301 402c205 0 288 -108 288 -343c0 -213 -43 -390 -294 -390c-194 0 -295 93 -295 331zM150 323c0 -140 26 -276 190 -276c160 0 197 117 197 330c0 156 -25 282 -187 282c-182 0 -200 -150 -200 -336zM470 777h-88v92h88v-92zM306 777h-89v92h89
v-92z" />
    <glyph glyph-name="Udieresis" unicode="&#xdc;" horiz-adv-x="667" 
d="M596 706v-456c0 -55 -2 -132 -67 -197c-30 -30 -98 -65 -200 -65c-62 0 -141 13 -191 56c-63 54 -67 139 -67 210v452h96v-464c0 -140 65 -193 172 -193c152 0 173 113 173 215v442h84zM464 777h-88v92h88v-92zM300 777h-89v92h89v-92z" />
    <glyph glyph-name="aacute" unicode="&#xe1;" 
d="M451 0h-66c-33 0 -41 11 -41 41v14c-43 -49 -101 -65 -148 -65c-96 0 -157 49 -157 145c0 68 40 104 63 117c34 19 81 35 242 50v53c0 67 -28 100 -95 100c-31 0 -111 -4 -111 -107v-7h-81v15c0 119 101 155 198 155c80 0 127 -24 150 -57c19 -27 23 -70 23 -108v-273
c0 -38 5 -58 23 -61v-12zM344 180v75c-103 -12 -147 -24 -169 -37c-34 -20 -45 -51 -45 -81c0 -56 33 -90 91 -90c31 0 57 8 77 21c43 28 46 75 46 112zM422 695l-144 -136h-75l113 136h106z" />
    <glyph glyph-name="agrave" unicode="&#xe0;" 
d="M451 0h-66c-33 0 -41 11 -41 41v14c-43 -49 -101 -65 -148 -65c-96 0 -157 49 -157 145c0 68 40 104 63 117c34 19 81 35 242 50v53c0 67 -28 100 -95 100c-31 0 -111 -4 -111 -107v-7h-81v15c0 119 101 155 198 155c80 0 127 -24 150 -57c19 -27 23 -70 23 -108v-273
c0 -38 5 -58 23 -61v-12zM344 180v75c-103 -12 -147 -24 -169 -37c-34 -20 -45 -51 -45 -81c0 -56 33 -90 91 -90c31 0 57 8 77 21c43 28 46 75 46 112zM305 559h-73l-104 136h99z" />
    <glyph glyph-name="acircumflex" unicode="&#xe2;" 
d="M451 0h-66c-33 0 -41 11 -41 41v14c-43 -49 -101 -65 -148 -65c-96 0 -157 49 -157 145c0 68 40 104 63 117c34 19 81 35 242 50v53c0 67 -28 100 -95 100c-31 0 -111 -4 -111 -107v-7h-81v15c0 119 101 155 198 155c80 0 127 -24 150 -57c19 -27 23 -70 23 -108v-273
c0 -38 5 -58 23 -61v-12zM344 180v75c-103 -12 -147 -24 -169 -37c-34 -20 -45 -51 -45 -81c0 -56 33 -90 91 -90c31 0 57 8 77 21c43 28 46 75 46 112zM370 559h-66l-54 97l-51 -97h-64l73 136h86z" />
    <glyph glyph-name="adieresis" unicode="&#xe4;" 
d="M451 0h-66c-33 0 -41 11 -41 41v14c-43 -49 -101 -65 -148 -65c-96 0 -157 49 -157 145c0 68 40 104 63 117c34 19 81 35 242 50v53c0 67 -28 100 -95 100c-31 0 -111 -4 -111 -107v-7h-81v15c0 119 101 155 198 155c80 0 127 -24 150 -57c19 -27 23 -70 23 -108v-273
c0 -38 5 -58 23 -61v-12zM344 180v75c-103 -12 -147 -24 -169 -37c-34 -20 -45 -51 -45 -81c0 -56 33 -90 91 -90c31 0 57 8 77 21c43 28 46 75 46 112zM376 577h-89v92h89v-92zM212 577h-89v92h89v-92z" />
    <glyph glyph-name="atilde" unicode="&#xe3;" 
d="M451 0h-66c-33 0 -41 11 -41 41v14c-43 -49 -101 -65 -148 -65c-96 0 -157 49 -157 145c0 68 40 104 63 117c34 19 81 35 242 50v53c0 67 -28 100 -95 100c-31 0 -111 -4 -111 -107v-7h-81v15c0 119 101 155 198 155c80 0 127 -24 150 -57c19 -27 23 -70 23 -108v-273
c0 -38 5 -58 23 -61v-12zM344 180v75c-103 -12 -147 -24 -169 -37c-34 -20 -45 -51 -45 -81c0 -56 33 -90 91 -90c31 0 57 8 77 21c43 28 46 75 46 112zM392 690v-50c0 -53 -18 -81 -62 -81c-31 0 -59 21 -84 40l-25 19c-13 10 -27 20 -33 20c-16 0 -16 -19 -16 -42v-32h-60
v51c0 29 1 80 58 80c21 0 40 -5 76 -33l31 -24c15 -12 29 -21 37 -21c9 0 16 3 16 35v38h62z" />
    <glyph glyph-name="aring" unicode="&#xe5;" 
d="M451 0h-66c-33 0 -41 11 -41 41v14c-43 -49 -101 -65 -148 -65c-96 0 -157 49 -157 145c0 68 40 104 63 117c34 19 81 35 242 50v53c0 67 -28 100 -95 100c-31 0 -111 -4 -111 -107v-7h-81v15c0 119 101 155 198 155c80 0 127 -24 150 -57c19 -27 23 -70 23 -108v-273
c0 -38 5 -58 23 -61v-12zM344 180v75c-103 -12 -147 -24 -169 -37c-34 -20 -45 -51 -45 -81c0 -56 33 -90 91 -90c31 0 57 8 77 21c43 28 46 75 46 112zM341 641c0 -56 -44 -91 -92 -91c-52 0 -90 42 -90 90c0 53 44 90 93 90c46 0 89 -36 89 -89zM294 640
c0 25 -19 43 -43 43s-45 -18 -45 -43c0 -24 17 -44 44 -44c24 0 44 17 44 44z" />
    <glyph glyph-name="ccedilla" unicode="&#xe7;" horiz-adv-x="495" 
d="M458 331h-84c0 38 -13 124 -113 124c-113 0 -130 -128 -130 -209c0 -57 8 -200 126 -200c46 0 105 20 115 122h86c0 -19 -8 -178 -201 -178c-6 0 -11 0 -17 1l-2 -35c6 1 14 2 21 2c18 0 89 -13 89 -94c0 -25 -9 -43 -15 -52c-18 -29 -48 -44 -114 -44c-14 0 -28 1 -41 2
v51c12 -2 24 -2 34 -2c45 0 71 9 71 43c0 35 -17 48 -82 48c-4 0 -9 0 -13 -1l10 87c-99 21 -157 102 -157 251c0 126 44 264 223 264c105 0 194 -45 194 -180z" />
    <glyph glyph-name="eacute" unicode="&#xe9;" 
d="M131 252v-5c0 -62 2 -201 131 -201c32 0 109 13 115 107h85c0 -85 -69 -163 -204 -163c-157 0 -218 102 -218 246c0 163 65 275 224 275c128 0 200 -74 200 -234v-25h-333zM134 304h245c-1 31 -4 151 -114 151c-72 0 -125 -51 -131 -151zM435 695l-144 -136h-75l113 136
h106z" />
    <glyph glyph-name="egrave" unicode="&#xe8;" 
d="M131 252v-5c0 -62 2 -201 131 -201c32 0 109 13 115 107h85c0 -85 -69 -163 -204 -163c-157 0 -218 102 -218 246c0 163 65 275 224 275c128 0 200 -74 200 -234v-25h-333zM134 304h245c-1 31 -4 151 -114 151c-72 0 -125 -51 -131 -151zM305 559h-73l-104 136h99z" />
    <glyph glyph-name="ecircumflex" unicode="&#xea;" 
d="M131 252v-5c0 -62 2 -201 131 -201c32 0 109 13 115 107h85c0 -85 -69 -163 -204 -163c-157 0 -218 102 -218 246c0 163 65 275 224 275c128 0 200 -74 200 -234v-25h-333zM134 304h245c-1 31 -4 151 -114 151c-72 0 -125 -51 -131 -151zM391 559h-66l-54 97l-51 -97h-64
l73 136h86z" />
    <glyph glyph-name="edieresis" unicode="&#xeb;" 
d="M131 252v-5c0 -62 2 -201 131 -201c32 0 109 13 115 107h85c0 -85 -69 -163 -204 -163c-157 0 -218 102 -218 246c0 163 65 275 224 275c128 0 200 -74 200 -234v-25h-333zM134 304h245c-1 31 -4 151 -114 151c-72 0 -125 -51 -131 -151zM396 577h-89v92h89v-92zM232 577
h-89v92h89v-92z" />
    <glyph glyph-name="iacute" unicode="&#xed;" horiz-adv-x="229" 
d="M157 0h-85v500h85v-500zM273 695l-144 -136h-75l113 136h106z" />
    <glyph glyph-name="igrave" unicode="&#xec;" horiz-adv-x="229" 
d="M157 0h-85v500h85v-500zM170 559h-73l-104 136h99z" />
    <glyph glyph-name="icircumflex" unicode="&#xee;" horiz-adv-x="229" 
d="M157 0h-85v500h85v-500zM235 559h-66l-54 97l-51 -97h-64l73 136h86z" />
    <glyph glyph-name="idieresis" unicode="&#xef;" horiz-adv-x="229" 
d="M157 0h-85v500h85v-500zM241 577h-89v92h89v-92zM77 577h-89v92h89v-92z" />
    <glyph glyph-name="ntilde" unicode="&#xf1;" horiz-adv-x="542" 
d="M469 0h-85v312c0 59 -5 91 -29 116c-26 27 -59 27 -72 27c-70 0 -126 -41 -126 -114v-341h-85v500h85v-56c24 22 77 67 164 67c14 0 49 -1 83 -20c60 -34 65 -91 65 -152v-339zM411 690v-50c0 -53 -18 -81 -62 -81c-31 0 -59 21 -84 40l-25 19c-13 10 -27 20 -33 20
c-16 0 -16 -19 -16 -42v-32h-60v51c0 29 1 80 58 80c21 0 40 -5 76 -33l31 -24c15 -12 29 -21 37 -21c9 0 16 3 16 35v38h62z" />
    <glyph glyph-name="oacute" unicode="&#xf3;" horiz-adv-x="521" 
d="M41 245c0 192 88 266 224 266c160 0 215 -96 215 -247c0 -148 -37 -274 -222 -274c-147 0 -217 84 -217 255zM131 247c0 -73 7 -203 132 -203c117 0 127 128 127 211c0 123 -32 201 -125 201c-110 0 -134 -110 -134 -209zM440 695l-144 -136h-75l113 136h106z" />
    <glyph glyph-name="ograve" unicode="&#xf2;" horiz-adv-x="521" 
d="M41 245c0 192 88 266 224 266c160 0 215 -96 215 -247c0 -148 -37 -274 -222 -274c-147 0 -217 84 -217 255zM131 247c0 -73 7 -203 132 -203c117 0 127 128 127 211c0 123 -32 201 -125 201c-110 0 -134 -110 -134 -209zM295 559h-73l-104 136h99z" />
    <glyph glyph-name="ocircumflex" unicode="&#xf4;" horiz-adv-x="521" 
d="M41 245c0 192 88 266 224 266c160 0 215 -96 215 -247c0 -148 -37 -274 -222 -274c-147 0 -217 84 -217 255zM131 247c0 -73 7 -203 132 -203c117 0 127 128 127 211c0 123 -32 201 -125 201c-110 0 -134 -110 -134 -209zM380 559h-66l-54 97l-51 -97h-64l73 136h86z" />
    <glyph glyph-name="odieresis" unicode="&#xf6;" horiz-adv-x="521" 
d="M41 245c0 192 88 266 224 266c160 0 215 -96 215 -247c0 -148 -37 -274 -222 -274c-147 0 -217 84 -217 255zM131 247c0 -73 7 -203 132 -203c117 0 127 128 127 211c0 123 -32 201 -125 201c-110 0 -134 -110 -134 -209zM386 577h-89v92h89v-92zM222 577h-89v92h89v-92z
" />
    <glyph glyph-name="otilde" unicode="&#xf5;" horiz-adv-x="521" 
d="M41 245c0 192 88 266 224 266c160 0 215 -96 215 -247c0 -148 -37 -274 -222 -274c-147 0 -217 84 -217 255zM131 247c0 -73 7 -203 132 -203c117 0 127 128 127 211c0 123 -32 201 -125 201c-110 0 -134 -110 -134 -209zM401 690v-50c0 -53 -18 -81 -62 -81
c-31 0 -59 21 -84 40l-25 19c-13 10 -27 20 -33 20c-16 0 -16 -19 -16 -42v-32h-60v51c0 29 1 80 58 80c21 0 40 -5 76 -33l31 -24c15 -12 29 -21 37 -21c9 0 16 3 16 35v38h62z" />
    <glyph glyph-name="uacute" unicode="&#xfa;" horiz-adv-x="542" 
d="M469 0h-85v58c-26 -24 -81 -68 -165 -68c-31 0 -63 4 -96 29c-51 39 -55 96 -55 153v328h85v-305c0 -69 7 -149 103 -149c33 0 77 13 99 36c25 26 29 48 29 80v338h85v-500zM439 695l-144 -136h-75l113 136h106z" />
    <glyph glyph-name="ugrave" unicode="&#xf9;" horiz-adv-x="542" 
d="M469 0h-85v58c-26 -24 -81 -68 -165 -68c-31 0 -63 4 -96 29c-51 39 -55 96 -55 153v328h85v-305c0 -69 7 -149 103 -149c33 0 77 13 99 36c25 26 29 48 29 80v338h85v-500zM330 559h-73l-104 136h99z" />
    <glyph glyph-name="ucircumflex" unicode="&#xfb;" horiz-adv-x="542" 
d="M469 0h-85v58c-26 -24 -81 -68 -165 -68c-31 0 -63 4 -96 29c-51 39 -55 96 -55 153v328h85v-305c0 -69 7 -149 103 -149c33 0 77 13 99 36c25 26 29 48 29 80v338h85v-500zM391 559h-66l-54 97l-51 -97h-64l73 136h86z" />
    <glyph glyph-name="udieresis" unicode="&#xfc;" horiz-adv-x="542" 
d="M469 0h-85v58c-26 -24 -81 -68 -165 -68c-31 0 -63 4 -96 29c-51 39 -55 96 -55 153v328h85v-305c0 -69 7 -149 103 -149c33 0 77 13 99 36c25 26 29 48 29 80v338h85v-500zM397 577h-89v92h89v-92zM233 577h-89v92h89v-92z" />
    <glyph glyph-name="dagger" unicode="&#x2020;" horiz-adv-x="437" 
d="M425 455h-165v-455h-82v455h-165v61h165v190h82v-190h165v-61z" />
    <glyph glyph-name="degree" unicode="&#xb0;" horiz-adv-x="354" 
d="M324 601c0 -79 -67 -147 -147 -147c-82 0 -147 66 -147 147s66 147 147 147c82 0 147 -66 147 -147zM263 601c0 49 -38 87 -87 87c-47 0 -86 -39 -86 -88c0 -47 39 -86 87 -86c49 0 86 39 86 87z" />
    <glyph glyph-name="cent" unicode="&#xa2;" horiz-adv-x="479" 
d="M241 605h54v-95c149 -10 162 -120 162 -178h-86c0 92 -49 125 -99 125c-100 0 -136 -88 -136 -206c0 -107 28 -207 128 -207c98 0 107 106 108 125h86c-7 -138 -111 -171 -163 -178v-111h-54v110c-129 12 -195 92 -195 259c0 173 75 245 195 261v95z" />
    <glyph glyph-name="sterling" unicode="&#xa3;" horiz-adv-x="521" 
d="M396 246h-181c-23 -102 -52 -139 -111 -176h395v-70h-499v62c89 9 124 129 132 184h-104v61h112c29 151 47 234 126 300c30 25 77 49 144 49c41 0 75 -9 90 -13v-70c-16 6 -52 22 -95 22c-118 0 -149 -125 -179 -288h170v-61z" />
    <glyph glyph-name="section" unicode="&#xa7;" horiz-adv-x="375" 
d="M39 14v72c20 -13 64 -40 122 -40c66 0 85 44 85 71c0 36 -24 57 -77 96l-50 37c-39 29 -84 67 -84 132c0 34 12 73 66 119c-13 13 -41 41 -41 90c0 86 85 124 162 124c13 0 55 0 91 -20v-58c-17 8 -48 23 -91 23c-61 0 -86 -30 -86 -61c0 -34 22 -54 65 -85l35 -25
c41 -29 113 -83 113 -158c0 -58 -40 -95 -58 -112l-5 -5c12 -13 37 -39 37 -87c0 -105 -101 -136 -167 -136c-40 0 -89 11 -117 23zM199 419l-23 18c-16 12 -24 17 -43 33c-18 -18 -30 -38 -30 -63c0 -40 32 -66 71 -98l22 -18c8 -6 49 -37 58 -45c21 28 29 46 29 65
c0 43 -32 68 -84 108z" />
    <glyph glyph-name="bullet" unicode="&#x2022;" horiz-adv-x="333" 
d="M280 242h-227v225h227v-225z" />
    <glyph glyph-name="paragraph" unicode="&#xb6;" horiz-adv-x="642" 
d="M525 653h-34v-820h-56v820h-146v-820h-57v491c-94 15 -156 80 -156 185c0 56 19 106 55 141c41 41 87 56 169 56h225v-53z" />
    <glyph glyph-name="germandbls" unicode="&#xdf;" horiz-adv-x="583" 
d="M157 0h-86v481c0 62 7 118 44 163c42 52 113 68 175 68c164 0 192 -101 192 -176c0 -36 -8 -66 -12 -78c-7 0 -16 1 -32 1c-43 0 -100 -21 -100 -73c0 -44 24 -60 82 -88l27 -13c74 -36 106 -73 106 -147c0 -145 -141 -148 -170 -148c-140 0 -165 77 -165 129v7h82
c0 -54 42 -84 87 -84c47 0 84 33 84 83c0 51 -40 73 -76 90l-27 13c-93 45 -110 84 -110 140c0 103 91 133 141 136c1 4 2 18 2 33c0 50 -21 123 -118 123c-13 0 -45 0 -76 -23c-49 -37 -50 -97 -50 -150v-487z" />
    <glyph glyph-name="registered" unicode="&#xae;" horiz-adv-x="780" 
d="M746 356c0 -202 -155 -359 -357 -359c-198 0 -355 158 -355 358c0 198 157 354 356 354s356 -156 356 -353zM710 351c0 182 -140 324 -320 324c-179 0 -321 -143 -321 -323c0 -178 143 -321 320 -321s321 143 321 320zM249 565h171c85 0 129 -31 129 -109
c0 -58 -27 -94 -81 -110c36 -10 54 -29 66 -75l21 -81c6 -21 14 -37 24 -50h-77c-8 7 -13 17 -17 32l-19 74c-16 64 -30 76 -113 76h-32v-182h-72v425zM321 517v-147h45c75 0 110 12 110 76c0 50 -22 71 -92 71h-63z" />
    <glyph glyph-name="copyright" unicode="&#xa9;" horiz-adv-x="780" 
d="M568 422h-78c-1 67 -30 98 -92 98c-75 0 -110 -51 -110 -161c0 -127 30 -176 107 -176c64 0 96 31 101 98h77c-4 -99 -66 -149 -185 -149c-126 0 -180 64 -180 211c0 160 61 232 198 232c109 0 162 -47 162 -144v-9zM746 356c0 -202 -155 -359 -357 -359
c-198 0 -355 158 -355 358c0 198 157 354 356 354s356 -156 356 -353zM710 351c0 182 -140 324 -320 324c-179 0 -321 -143 -321 -323c0 -178 143 -321 320 -321s321 143 321 320z" />
    <glyph glyph-name="trademark" unicode="&#x2122;" horiz-adv-x="739" 
d="M675 375h-58c0 32 -3 290 -3 290l-97 -290h-48l-96 286s-4 -251 -4 -286h-55c1 91 6 331 6 331h95l81 -248l80 248h96s3 -295 3 -331zM290 665h-95v-291h-66v291h-95v41h256v-41z" />
    <glyph glyph-name="acute" unicode="&#xb4;" horiz-adv-x="271" 
d="M245 695l-144 -136h-75l113 136h106z" />
    <glyph glyph-name="dieresis" unicode="&#xa8;" horiz-adv-x="271" 
d="M262 577h-89v92h89v-92zM98 577h-89v92h89v-92z" />
    <glyph glyph-name="notequal" unicode="&#x2260;" horiz-adv-x="724" 
d="M625 162h-291l-82 -168h-75l82 168h-160v77h199l52 110h-251v79h291l78 157h74l-77 -157h160v-79h-200l-54 -110h254v-77z" />
    <glyph glyph-name="AE" unicode="&#xc6;" horiz-adv-x="917" 
d="M890 0h-416v334h-212l-168 -334h-94l356 706h509v-67h-296v-238h270v-67h-270v-266h321v-68zM474 401v238h-60l-117 -238h177z" />
    <glyph glyph-name="Oslash" unicode="&#xd8;" horiz-adv-x="688" 
d="M576 763l43 -27l-57 -88c68 -67 78 -181 78 -271c0 -205 -46 -390 -300 -390c-100 0 -144 22 -180 47l-51 -79l-44 27l55 85c-43 57 -72 132 -72 278c0 34 2 187 69 278c34 45 100 97 229 97c92 0 137 -20 175 -41zM512 573l-308 -473c37 -37 71 -54 131 -54
c138 0 168 90 179 125c23 70 29 171 29 218c0 63 -7 126 -31 184zM175 149l305 466c-20 18 -52 45 -130 45c-136 0 -167 -97 -179 -132c-21 -63 -26 -129 -26 -194c0 -112 17 -155 30 -185z" />
    <glyph glyph-name="infinity" unicode="&#x221e;" horiz-adv-x="724" 
d="M365 361c64 90 105 125 172 125c90 0 156 -78 156 -184c0 -109 -70 -192 -164 -192c-60 0 -105 25 -172 123c-70 -100 -116 -122 -172 -122c-90 0 -154 77 -154 184c0 109 70 191 161 191c74 0 118 -39 173 -125zM408 299c46 -76 85 -114 128 -114c48 0 82 46 82 110
c0 66 -33 113 -80 113c-38 0 -76 -31 -130 -109zM316 297c-48 80 -86 113 -127 113c-48 0 -82 -46 -82 -111s34 -112 81 -112c37 0 66 22 128 110z" />
    <glyph glyph-name="plusminus" unicode="&#xb1;" horiz-adv-x="724" 
d="M631 355h-225v-219h-88v219h-224v76h224v218h88v-218h225v-76zM630 0h-536v79h536v-79z" />
    <glyph glyph-name="lessequal" unicode="&#x2264;" horiz-adv-x="724" 
d="M594 121l-466 226v86l466 220v-85l-383 -178l383 -180v-89zM594 0h-466v79h466v-79z" />
    <glyph glyph-name="greaterequal" unicode="&#x2265;" horiz-adv-x="724" 
d="M596 340l-466 -219v85l383 177l-383 180v90l466 -226v-87zM596 0h-466v79h466v-79z" />
    <glyph glyph-name="yen" unicode="&#xa5;" horiz-adv-x="579" 
d="M567 648l-159 -289h119v-52h-148l-39 -69h187v-53h-188v-185h-85v185h-202v53h201l-40 69h-161v52h129l-169 289h105l185 -332l175 332h90z" />
    <glyph glyph-name="mu" unicode="&#xb5;" horiz-adv-x="542" 
d="M72 500h85v-318c0 -81 28 -137 101 -137c63 0 126 44 126 105v350h86v-500h-85v58c-47 -44 -85 -64 -136 -64c-49 0 -74 22 -92 48v-248h-85v706z" />
    <glyph glyph-name="partialdiff" unicode="&#x2202;" horiz-adv-x="544" 
d="M149 631l-11 69c39 14 78 21 118 21c147 0 218 -106 218 -348c0 -243 -63 -383 -229 -383c-121 0 -202 84 -202 210c0 135 85 228 210 228c52 0 94 -14 135 -43v14c0 153 -41 250 -147 250c-25 0 -48 -4 -92 -18zM382 304c-40 37 -79 54 -125 54
c-80 0 -130 -61 -130 -160c0 -86 45 -140 118 -140c90 0 134 78 137 246z" />
    <glyph glyph-name="summation" unicode="&#x2211;" horiz-adv-x="558" 
d="M536 -122h-508v73l265 351l-265 329v75h508v-71h-404l272 -332l-276 -354h408v-71z" />
    <glyph glyph-name="product" unicode="&#x220f;" horiz-adv-x="655" 
d="M589 -122h-90v757h-342v-757h-91v828h523v-828z" />
    <glyph glyph-name="pi" unicode="&#x3c0;" horiz-adv-x="619" 
d="M562 0h-39c-87 0 -116 28 -116 114v316h-202v-430h-86v430h-53v70h480v-70h-52v-300c0 -53 6 -69 62 -69h6v-61z" />
    <glyph glyph-name="integral" unicode="&#x222b;" horiz-adv-x="343" 
d="M310 708v-77c-21 15 -35 20 -51 20c-31 0 -44 -15 -44 -68v-628c0 -109 -51 -131 -117 -131c-22 0 -38 3 -62 12v76c21 -13 32 -17 48 -17c33 0 43 19 43 73v623c0 90 35 129 116 129c24 0 43 -4 67 -12z" />
    <glyph glyph-name="ordfeminine" unicode="&#xaa;" horiz-adv-x="354" 
d="M315 363h-47c-21 0 -30 7 -30 30v4c-47 -39 -92 -41 -108 -41c-86 0 -97 72 -97 101c0 9 0 35 19 59c28 36 72 44 131 50l55 6v34c0 23 -1 63 -63 63c-69 0 -71 -55 -71 -77h-60v10c0 86 75 110 136 110c104 0 120 -51 120 -105v-191c0 -22 1 -36 15 -40v-13zM238 475v59
c-92 -9 -139 -19 -139 -74c0 -37 24 -60 59 -60c62 0 80 45 80 75z" />
    <glyph glyph-name="ordmasculine" unicode="&#xba;" horiz-adv-x="354" 
d="M27 535c0 44 2 177 154 177c123 0 146 -86 146 -180c0 -48 -3 -176 -150 -176c-120 0 -150 77 -150 179zM93 533c0 -63 9 -135 86 -135c81 0 82 96 82 140c0 85 -23 132 -81 132c-81 0 -87 -89 -87 -137z" />
    <glyph glyph-name="Omega" unicode="&#x2126;" horiz-adv-x="722" 
d="M673 0h-264v71c121 45 159 178 159 307c0 169 -80 278 -205 278c-130 0 -211 -109 -211 -284c0 -121 30 -257 161 -301v-71h-264v71h153c-95 60 -143 162 -143 304c0 214 116 348 303 348c179 0 296 -126 296 -319c0 -161 -49 -270 -149 -333h164v-71z" />
    <glyph glyph-name="ae" unicode="&#xe6;" horiz-adv-x="792" 
d="M756 252h-327v-20c0 -151 53 -186 123 -186c32 0 111 11 117 107h84c0 -46 -29 -163 -210 -163c-106 0 -151 42 -179 85c-18 -27 -59 -85 -174 -85c-136 0 -161 93 -161 147c0 147 146 169 267 169h51v53c0 69 -32 96 -99 96c-105 0 -120 -65 -120 -110v-5h-81v15
c0 41 12 156 208 156c74 0 128 -23 150 -61c15 17 55 61 154 61c98 0 145 -50 165 -85c15 -25 32 -76 32 -149v-25zM431 306h239c0 18 -1 87 -43 124c-28 24 -57 25 -70 25c-30 0 -114 -12 -126 -149zM347 160v94c-58 -5 -228 15 -228 -111c0 -60 42 -96 100 -96
c88 0 128 58 128 113z" />
    <glyph glyph-name="oslash" unicode="&#xf8;" horiz-adv-x="521" 
d="M69 -49l-37 26l57 80c-29 29 -49 93 -49 175c0 146 45 279 227 279c62 0 97 -17 126 -32l53 74l37 -26l-53 -74c48 -43 51 -133 51 -170c0 -189 -62 -293 -220 -293c-69 0 -96 13 -137 37zM380 384l-217 -302c9 -11 34 -39 95 -39c89 0 137 60 137 222
c0 40 -3 80 -15 119zM140 127l215 299c-16 13 -40 32 -88 32c-142 0 -142 -167 -142 -217c0 -31 2 -88 15 -114z" />
    <glyph glyph-name="questiondown" unicode="&#xbf;" horiz-adv-x="479" 
d="M256 476h76v-124c-43 -3 -102 -12 -146 -47c-23 -19 -54 -57 -54 -127c0 -74 37 -133 118 -133c12 0 53 1 79 32c22 26 24 59 24 90v39h86v-38c0 -73 -20 -179 -202 -179c-116 0 -197 61 -197 183c0 158 143 218 216 228v76zM242 648h97v-97h-97v97z" />
    <glyph glyph-name="exclamdown" unicode="&#xa1;" horiz-adv-x="229" 
d="M155 550h-101v98h101v-98zM155 0h-101s9 454 10 478h82c1 -20 9 -478 9 -478z" />
    <glyph glyph-name="logicalnot" unicode="&#xac;" horiz-adv-x="724" 
d="M636 6h-89v255h-477v78h566v-333z" />
    <glyph glyph-name="radical" unicode="&#x221a;" horiz-adv-x="725" 
d="M647 706l-265 -891h-84l-134 296l-69 -32l-31 72l145 67l126 -290l224 778h88z" />
    <glyph glyph-name="florin" unicode="&#x192;" horiz-adv-x="437" 
d="M415 642l-9 -64c-12 10 -35 20 -63 20c-51 0 -63 -39 -69 -88l-8 -67h94v-61h-101l-50 -399c-13 -101 -62 -133 -135 -133c-12 0 -42 2 -66 8l10 60c14 -8 29 -11 42 -11c14 0 29 3 39 11c15 12 20 30 34 147l39 317h-79v61h87l10 78c8 60 28 135 136 135
c42 0 71 -7 89 -14z" />
    <glyph glyph-name="approxequal" unicode="&#x2248;" horiz-adv-x="724" 
d="M609 474l42 -62c-60 -72 -108 -97 -165 -97c-32 0 -68 12 -120 37l-35 17c-47 23 -75 30 -104 30c-35 0 -61 -11 -111 -78l-42 63c54 71 92 98 158 98c35 0 62 -7 133 -39l45 -20c45 -20 60 -25 79 -25c42 0 71 18 120 76zM609 277l42 -62c-60 -72 -108 -97 -165 -97
c-32 0 -72 14 -120 37l-35 17c-45 22 -75 30 -104 30c-35 0 -61 -11 -111 -78l-42 63c54 71 92 98 158 98c35 0 63 -8 133 -39l45 -20c45 -20 60 -25 79 -25c42 0 72 19 120 76z" />
    <glyph glyph-name="Delta" unicode="&#x2206;" horiz-adv-x="612" 
d="M616 0h-620l268 706h87zM492 74l-188 520l-188 -520h376z" />
    <glyph glyph-name="guillemotleft" unicode="&#xab;" horiz-adv-x="375" 
d="M370 61h-77l-113 195l113 196h77l-112 -196zM204 61h-77l-114 195l114 196h77l-113 -196z" />
    <glyph glyph-name="guillemotright" unicode="&#xbb;" horiz-adv-x="375" 
d="M361 256l-113 -195h-77l112 195l-112 196h77zM195 256l-113 -195h-78l113 195l-112 196h77z" />
    <glyph glyph-name="ellipsis" unicode="&#x2026;" horiz-adv-x="1000" 
d="M876 0h-85v86h85v-86zM542 0h-85v86h85v-86zM208 0h-85v86h85v-86z" />
    <glyph glyph-name="uni00A0" unicode="&#xa0;" horiz-adv-x="271" 
 />
    <glyph glyph-name="Agrave" unicode="&#xc0;" horiz-adv-x="646" 
d="M645 0h-101l-94 276h-253l-107 -276h-89l283 706h114zM427 341l-96 286l-109 -286h205zM392 759h-73l-104 136h99z" />
    <glyph glyph-name="Atilde" unicode="&#xc3;" horiz-adv-x="646" 
d="M645 0h-101l-94 276h-253l-107 -276h-89l283 706h114zM427 341l-96 286l-109 -286h205zM481 890v-50c0 -53 -18 -81 -62 -81c-31 0 -59 21 -84 40l-25 19c-13 10 -27 20 -33 20c-16 0 -16 -19 -16 -42v-32h-60v51c0 29 1 80 58 80c21 0 40 -5 76 -33l31 -24
c15 -12 29 -21 37 -21c9 0 16 3 16 35v38h62z" />
    <glyph glyph-name="Otilde" unicode="&#xd5;" horiz-adv-x="688" 
d="M49 318c0 206 30 402 301 402c205 0 288 -108 288 -343c0 -213 -43 -390 -294 -390c-194 0 -295 93 -295 331zM150 323c0 -140 26 -276 190 -276c160 0 197 117 197 330c0 156 -25 282 -187 282c-182 0 -200 -150 -200 -336zM485 890v-50c0 -53 -18 -81 -62 -81
c-31 0 -59 21 -84 40l-25 19c-13 10 -27 20 -33 20c-16 0 -16 -19 -16 -42v-32h-60v51c0 29 1 80 58 80c21 0 40 -5 76 -33l31 -24c15 -12 29 -21 37 -21c9 0 16 3 16 35v38h62z" />
    <glyph glyph-name="OE" unicode="&#x152;" horiz-adv-x="979" 
d="M953 0h-416v67c-57 -53 -96 -80 -210 -80c-32 0 -144 1 -213 86c-58 71 -64 171 -64 256c0 221 49 315 152 362c26 12 70 29 137 29c86 0 156 -26 198 -81v67h390v-67h-301v-238h276v-67h-276v-266h327v-68zM534 363c0 126 -9 296 -189 296c-152 0 -195 -109 -195 -306
c0 -150 13 -306 190 -306c17 0 68 1 112 32c62 44 82 137 82 284z" />
    <glyph glyph-name="oe" unicode="&#x153;" horiz-adv-x="833" 
d="M471 251v-30c0 -84 18 -175 123 -175c56 0 114 30 117 107h84c0 -94 -76 -163 -205 -163c-66 0 -143 18 -164 79c-29 -60 -101 -79 -171 -79c-177 0 -215 122 -215 255c0 135 41 266 227 266c75 0 140 -24 169 -79c20 38 80 79 165 79c101 0 197 -50 197 -238
c0 -7 0 -15 -1 -22h-326zM474 304h238c0 52 -15 151 -112 151c-57 0 -119 -35 -126 -151zM131 250c0 -62 3 -204 128 -204c121 0 128 114 128 201c0 90 -3 208 -123 208c-99 0 -133 -81 -133 -205z" />
    <glyph glyph-name="endash" unicode="&#x2013;" 
d="M450 224h-400v67h400v-67z" />
    <glyph glyph-name="emdash" unicode="&#x2014;" horiz-adv-x="919" 
d="M869 224h-819v67h819v-67z" />
    <glyph glyph-name="quotedblleft" unicode="&#x201c;" horiz-adv-x="375" 
d="M332 706l-55 -111h48v-97h-105v93l54 115h58zM165 706l-55 -111h48v-97h-105v93l54 115h58z" />
    <glyph glyph-name="quotedblright" unicode="&#x201d;" horiz-adv-x="375" 
d="M322 614l-54 -116h-58l55 111h-48v97h105v-92zM155 614l-54 -116h-58l55 111h-48v97h105v-92z" />
    <glyph glyph-name="quoteleft" unicode="&#x2018;" horiz-adv-x="208" 
d="M165 706l-55 -111h48v-97h-105v93l54 115h58z" />
    <glyph glyph-name="quoteright" unicode="&#x2019;" horiz-adv-x="208" 
d="M155 614l-54 -116h-58l55 111h-48v97h105v-92z" />
    <glyph glyph-name="divide" unicode="&#xf7;" horiz-adv-x="724" 
d="M408 406h-91v112h91v-112zM645 260h-566v79h566v-79zM408 82h-91v111h91v-111z" />
    <glyph glyph-name="lozenge" unicode="&#x25ca;" horiz-adv-x="724" 
d="M585 353l-182 -353h-85l-179 353l184 353h85zM497 354l-134 274l-134 -272l134 -275z" />
    <glyph glyph-name="ydieresis" unicode="&#xff;" horiz-adv-x="437" 
d="M438 500l-203 -566c-26 -73 -56 -139 -163 -139c-15 0 -33 0 -62 8v69c12 -3 30 -9 57 -9c63 0 84 39 103 93l14 40l-184 504h96l133 -397l130 397h79zM345 577h-89v92h89v-92zM181 577h-89v92h89v-92z" />
    <glyph glyph-name="Ydieresis" unicode="&#x178;" horiz-adv-x="604" 
d="M604 706l-248 -448v-258h-92v258l-264 448h113l203 -363l192 363h96zM428 777h-88v92h88v-92zM264 777h-89v92h89v-92z" />
    <glyph glyph-name="fraction" unicode="&#x2044;" horiz-adv-x="125" 
d="M-59 0h-55l301 648h52z" />
    <glyph glyph-name="Euro" unicode="&#x20ac;" horiz-adv-x="580" 
d="M499 421v-52h-287c-1 -10 -1 -20 -1 -30c0 -8 0 -22 1 -39h287v-53h-282c8 -128 66 -196 194 -196c54 0 107 23 142 62v-85c-46 -27 -104 -37 -158 -37c-159 0 -258 85 -271 255h-75v53h70c0 24 0 46 2 70h-72v52h76c25 162 119 235 279 235c58 0 110 -13 150 -34v-87
c-42 46 -101 64 -148 64c-108 0 -173 -47 -189 -178h282z" />
    <glyph glyph-name="guilsinglleft" unicode="&#x2039;" horiz-adv-x="208" 
d="M204 61h-77l-114 195l114 196h77l-113 -196z" />
    <glyph glyph-name="guilsinglright" unicode="&#x203a;" horiz-adv-x="208" 
d="M195 256l-113 -195h-78l113 195l-112 196h77z" />
    <glyph glyph-name="daggerdbl" unicode="&#x2021;" horiz-adv-x="417" 
d="M389 166h-142v-166h-77v166h-142v59h142v254h-142v60h142v167h77v-167h142v-60h-142v-254h142v-59z" />
    <glyph glyph-name="periodcentered" unicode="&#xb7;" horiz-adv-x="208" 
d="M155 215h-101v97h101v-97z" />
    <glyph glyph-name="quotesinglbase" unicode="&#x201a;" horiz-adv-x="208" 
d="M155 4l-54 -115h-55l55 111h-51v97h105v-93z" />
    <glyph glyph-name="quotedblbase" unicode="&#x201e;" horiz-adv-x="375" 
d="M322 4l-54 -115h-58l55 111h-48v97h105v-93zM155 4l-54 -115h-58l55 111h-48v97h105v-93z" />
    <glyph glyph-name="perthousand" unicode="&#x2030;" horiz-adv-x="1125" 
d="M275 0h-56l301 648h53zM304 446v-30c0 -197 -75 -216 -142 -216c-66 0 -134 16 -134 214v30c0 179 68 209 145 209c73 0 131 -31 131 -207zM240 412v31c0 147 -29 167 -69 167c-47 0 -78 -22 -78 -166v-31c0 -161 40 -168 73 -168c44 0 74 28 74 167zM764 240v-30
c0 -197 -75 -216 -142 -216c-66 0 -134 16 -134 214v30c0 179 68 209 145 209c73 0 131 -31 131 -207zM700 206v31c0 147 -29 167 -69 167c-47 0 -78 -22 -78 -166v-31c0 -161 40 -168 73 -168c44 0 74 28 74 167zM1097 240v-30c0 -197 -75 -216 -142 -216
c-66 0 -134 16 -134 214v30c0 179 68 209 145 209c73 0 131 -31 131 -207zM1033 206v31c0 147 -29 167 -69 167c-47 0 -78 -22 -78 -166v-31c0 -161 40 -168 73 -168c44 0 74 28 74 167z" />
    <glyph glyph-name="Acircumflex" unicode="&#xc2;" horiz-adv-x="646" 
d="M645 0h-101l-94 276h-253l-107 -276h-89l283 706h114zM427 341l-96 286l-109 -286h205zM443 759h-66l-54 97l-51 -97h-64l73 136h86z" />
    <glyph glyph-name="Ecircumflex" unicode="&#xca;" horiz-adv-x="521" 
d="M494 0h-417v706h390v-67h-293v-238h269v-67h-269v-266h320v-68zM380 759h-66l-54 97l-51 -97h-64l73 136h86z" />
    <glyph glyph-name="Aacute" unicode="&#xc1;" horiz-adv-x="646" 
d="M645 0h-101l-94 276h-253l-107 -276h-89l283 706h114zM427 341l-96 286l-109 -286h205zM502 895l-144 -136h-74l113 136h105z" />
    <glyph glyph-name="Edieresis" unicode="&#xcb;" horiz-adv-x="521" 
d="M494 0h-417v706h390v-67h-293v-238h269v-67h-269v-266h320v-68zM386 777h-88v92h88v-92zM222 777h-89v92h89v-92z" />
    <glyph glyph-name="Egrave" unicode="&#xc8;" horiz-adv-x="521" 
d="M494 0h-417v706h390v-67h-293v-238h269v-67h-269v-266h320v-68zM316 759h-73l-104 136h99z" />
    <glyph glyph-name="Iacute" unicode="&#xcd;" horiz-adv-x="250" 
d="M173 0h-96v706h96v-706zM283 895l-144 -136h-74l113 136h105z" />
    <glyph glyph-name="Icircumflex" unicode="&#xce;" horiz-adv-x="250" 
d="M173 0h-96v706h96v-706zM245 759h-66l-54 97l-51 -97h-64l73 136h86z" />
    <glyph glyph-name="Idieresis" unicode="&#xcf;" horiz-adv-x="250" 
d="M173 0h-96v706h96v-706zM251 777h-88v92h88v-92zM87 777h-89v92h89v-92z" />
    <glyph glyph-name="Igrave" unicode="&#xcc;" horiz-adv-x="250" 
d="M173 0h-96v706h96v-706zM181 759h-73l-104 136h99z" />
    <glyph glyph-name="Oacute" unicode="&#xd3;" horiz-adv-x="688" 
d="M49 318c0 206 30 402 301 402c205 0 288 -108 288 -343c0 -213 -43 -390 -294 -390c-194 0 -295 93 -295 331zM150 323c0 -140 26 -276 190 -276c160 0 197 117 197 330c0 156 -25 282 -187 282c-182 0 -200 -150 -200 -336zM505 895l-144 -136h-74l113 136h105z" />
    <glyph glyph-name="Ocircumflex" unicode="&#xd4;" horiz-adv-x="688" 
d="M49 318c0 206 30 402 301 402c205 0 288 -108 288 -343c0 -213 -43 -390 -294 -390c-194 0 -295 93 -295 331zM150 323c0 -140 26 -276 190 -276c160 0 197 117 197 330c0 156 -25 282 -187 282c-182 0 -200 -150 -200 -336zM464 759h-66l-54 97l-51 -97h-64l73 136h86z
" />
    <glyph glyph-name="Ograve" unicode="&#xd2;" horiz-adv-x="688" 
d="M49 318c0 206 30 402 301 402c205 0 288 -108 288 -343c0 -213 -43 -390 -294 -390c-194 0 -295 93 -295 331zM150 323c0 -140 26 -276 190 -276c160 0 197 117 197 330c0 156 -25 282 -187 282c-182 0 -200 -150 -200 -336zM403 759h-73l-104 136h99z" />
    <glyph glyph-name="Uacute" unicode="&#xda;" horiz-adv-x="667" 
d="M596 706v-456c0 -55 -2 -132 -67 -197c-30 -30 -98 -65 -200 -65c-62 0 -141 13 -191 56c-63 54 -67 139 -67 210v452h96v-464c0 -140 65 -193 172 -193c152 0 173 113 173 215v442h84zM505 895l-144 -136h-74l113 136h105z" />
    <glyph glyph-name="Ucircumflex" unicode="&#xdb;" horiz-adv-x="667" 
d="M596 706v-456c0 -55 -2 -132 -67 -197c-30 -30 -98 -65 -200 -65c-62 0 -141 13 -191 56c-63 54 -67 139 -67 210v452h96v-464c0 -140 65 -193 172 -193c152 0 173 113 173 215v442h84zM453 759h-66l-54 97l-51 -97h-64l73 136h86z" />
    <glyph glyph-name="Ugrave" unicode="&#xd9;" horiz-adv-x="667" 
d="M596 706v-456c0 -55 -2 -132 -67 -197c-30 -30 -98 -65 -200 -65c-62 0 -141 13 -191 56c-63 54 -67 139 -67 210v452h96v-464c0 -140 65 -193 172 -193c152 0 173 113 173 215v442h84zM398 759h-73l-104 136h99z" />
    <glyph glyph-name="dotlessi" unicode="&#x131;" horiz-adv-x="229" 
d="M157 0h-85v500h85v-500z" />
    <glyph glyph-name="circumflex" unicode="&#x2c6;" horiz-adv-x="271" 
d="M253 559h-66l-54 97l-51 -97h-64l73 136h86z" />
    <glyph glyph-name="tilde" unicode="&#x2dc;" horiz-adv-x="271" 
d="M276 690v-50c0 -53 -18 -81 -62 -81c-31 0 -59 21 -84 40l-25 19c-13 10 -27 20 -33 20c-16 0 -16 -19 -16 -42v-32h-60v51c0 29 1 80 58 80c21 0 40 -5 76 -33l31 -24c15 -12 29 -21 37 -21c9 0 16 3 16 35v38h62z" />
    <glyph glyph-name="macron" unicode="&#xaf;" horiz-adv-x="271" 
d="M268 575h-265v64h265v-64z" />
    <glyph glyph-name="breve" unicode="&#x2d8;" horiz-adv-x="271" 
d="M201 688h61c0 -102 -77 -129 -130 -129c-75 0 -124 46 -124 122v7h62c2 -25 10 -78 66 -78c52 0 62 43 65 78z" />
    <glyph glyph-name="dotaccent" unicode="&#x2d9;" horiz-adv-x="271" 
d="M180 577h-89v92h89v-92z" />
    <glyph glyph-name="ring" unicode="&#x2da;" horiz-adv-x="271" 
d="M226 641c0 -56 -44 -91 -92 -91c-52 0 -90 42 -90 90c0 53 44 90 93 90c46 0 89 -36 89 -89zM179 640c0 25 -19 43 -43 43s-45 -18 -45 -43c0 -24 17 -44 44 -44c24 0 44 17 44 44z" />
    <glyph glyph-name="cedilla" unicode="&#xb8;" horiz-adv-x="271" 
d="M115 29l-5 -73c6 1 12 1 19 1c18 0 91 -12 91 -93c0 -25 -9 -43 -15 -52c-18 -29 -48 -45 -114 -45c-14 0 -28 1 -41 2v51c12 -2 24 -2 34 -2c45 0 71 10 71 44c0 35 -17 48 -82 48c-4 0 -9 0 -13 -1l9 120h46z" />
    <glyph glyph-name="hungarumlaut" unicode="&#x2dd;" horiz-adv-x="271" 
d="M168 695l-144 -136h-67l111 136h100zM314 695l-144 -136h-67l111 136h100z" />
    <glyph glyph-name="ogonek" unicode="&#x2db;" horiz-adv-x="271" 
d="M161 6h49c-3 -3 -76 -45 -76 -86c0 -26 25 -38 46 -38c12 0 24 3 29 4v-55c-13 -4 -30 -11 -58 -11c-42 0 -90 22 -90 73c0 54 55 87 100 113z" />
    <glyph glyph-name="caron" unicode="&#x2c7;" horiz-adv-x="271" 
d="M254 695l-73 -136h-87l-77 136h67l54 -97l51 97h65z" />
    <glyph glyph-name="currency" unicode="&#xa4;" horiz-adv-x="672" 
d="M621 568l-75 -75c37 -55 51 -97 51 -154c0 -58 -15 -104 -53 -155l76 -77l-55 -54l-75 77c-57 -40 -94 -52 -155 -52s-100 13 -154 52l-76 -74l-54 53l76 75c-38 53 -53 96 -53 156s15 102 53 154l-74 74l54 54l74 -73c50 36 96 52 155 52s113 -18 155 -52l75 74z
M521 338c0 109 -78 190 -184 190s-187 -82 -187 -188c0 -108 81 -190 189 -190c103 0 182 82 182 188z" />
    <glyph glyph-name="afii61289" unicode="&#x2113;" horiz-adv-x="494" 
d="M405 134l52 -30c-53 -82 -108 -114 -185 -114c-99 0 -160 58 -160 166c-15 -12 -22 -16 -53 -38l-18 62c33 22 43 29 70 50v218c0 80 8 118 33 153s68 55 121 55c85 0 132 -49 132 -136c0 -64 -18 -111 -66 -174c-38 -49 -64 -77 -134 -139v-23c0 -87 30 -129 94 -129
c43 0 75 22 114 79zM197 285c84 83 126 165 126 232c0 52 -20 80 -57 80c-63 0 -69 -62 -69 -112v-200z" />
    <glyph glyph-name="estimated" unicode="&#x212e;" horiz-adv-x="759" 
d="M735 300h-612c7 -161 98 -245 263 -245c122 0 202 41 251 144l95 -4c-57 -142 -170 -204 -348 -204c-227 0 -360 122 -360 331c0 205 140 334 363 334c234 0 348 -133 348 -356zM124 369h509c-14 152 -93 227 -243 227c-155 0 -251 -82 -266 -227z" />
    <glyph glyph-name="acute.cap" horiz-adv-x="271" 
d="M244 895l-144 -136h-74l113 136h105z" />
    <glyph glyph-name="breve.cap" horiz-adv-x="271" 
d="M201 887h61c0 -102 -77 -129 -130 -129c-75 0 -124 46 -124 122v7h62c2 -25 10 -78 66 -78c52 0 62 43 65 78z" />
    <glyph glyph-name="caron.cap" horiz-adv-x="271" 
d="M253 895l-73 -136h-86l-76 136h67l53 -97l52 97h63z" />
    <glyph glyph-name="cedilla.cap" horiz-adv-x="271" 
d="M115 29l-5 -73c6 1 12 1 19 1c18 0 91 -12 91 -93c0 -25 -9 -43 -15 -52c-18 -29 -48 -45 -114 -45c-14 0 -28 1 -41 2v51c12 -2 24 -2 34 -2c45 0 71 10 71 44c0 35 -17 48 -82 48c-4 0 -9 0 -13 -1l9 120h46z" />
    <glyph glyph-name="circumflex.cap" horiz-adv-x="271" 
d="M253 759h-66l-54 97l-51 -97h-64l73 136h86z" />
    <glyph glyph-name="commaaccent" unicode="&#xf6c3;" horiz-adv-x="271" 
d="M188 -125l-57 -98h-49l57 98h-47v90h96v-90z" />
    <glyph glyph-name="dieresis.cap" horiz-adv-x="271" 
d="M262 777h-88v92h88v-92zM98 777h-89v92h89v-92z" />
    <glyph glyph-name="dotaccent.cap" horiz-adv-x="271" 
d="M180 777h-89v92h89v-92z" />
    <glyph glyph-name="grave.cap" horiz-adv-x="271" 
d="M224 759h-73l-104 136h99z" />
    <glyph glyph-name="hungarumlaut.cap" horiz-adv-x="271" 
d="M168 895l-144 -136h-68l112 136h100zM315 895l-144 -136h-68l112 136h100z" />
    <glyph glyph-name="macron.cap" horiz-adv-x="271" 
d="M268 775h-265v64h265v-64z" />
    <glyph glyph-name="ring.cap" horiz-adv-x="271" 
d="M226 842c0 -56 -44 -91 -92 -91c-52 0 -90 42 -90 90c0 53 44 90 93 90c46 0 89 -37 89 -89zM179 841c0 25 -19 43 -43 43s-45 -18 -45 -43c0 -24 17 -44 44 -44c24 0 44 17 44 44z" />
    <glyph glyph-name="tilde.cap" horiz-adv-x="271" 
d="M276 890v-50c0 -53 -18 -81 -62 -81c-31 0 -59 21 -84 40l-25 19c-13 10 -27 20 -33 20c-16 0 -16 -19 -16 -42v-32h-60v51c0 29 1 80 58 80c21 0 40 -5 76 -33l31 -24c15 -12 29 -21 37 -21c9 0 16 3 16 35v38h62z" />
    <glyph glyph-name="caron.alt" horiz-adv-x="271" 
d="M188 612l-54 -108h-51l55 108h-47v94h97v-94z" />
    <glyph glyph-name="Eth" unicode="&#xd0;" horiz-adv-x="688" 
d="M77 0v348h-77v65h77v293h246c37 0 84 -1 120 -10c126 -32 192 -138 192 -331c0 -145 -37 -251 -104 -304c-58 -46 -148 -61 -235 -61h-219zM172 68h118c177 0 213 79 233 150c17 60 17 125 17 142c0 55 -9 162 -56 217c-49 58 -126 62 -162 62h-150v-226h181v-65h-181
v-280z" />
    <glyph glyph-name="eth" unicode="&#xf0;" horiz-adv-x="521" 
d="M299 583h-137l-19 46h132c-25 39 -44 62 -57 77h88c14 -16 32 -38 57 -77h79l19 -46h-73c36 -58 93 -192 93 -335c0 -167 -70 -258 -226 -258c-155 0 -214 94 -214 260c0 180 82 261 230 261c30 0 54 -7 68 -11c-7 20 -26 64 -40 83zM131 248c0 -71 5 -204 132 -204
c125 0 127 149 127 213c0 157 -57 199 -121 199c-101 0 -138 -81 -138 -208z" />
    <glyph glyph-name="Lslash" unicode="&#x141;" horiz-adv-x="521" 
d="M494 0h-417v306l-77 -65v71l77 64v330h97v-247l130 113v-70l-130 -113v-321h320v-68z" />
    <glyph glyph-name="lslash" unicode="&#x142;" horiz-adv-x="229" 
d="M219 450l-62 -52v-398h-85v324l-62 -51v63l62 51v319h85v-245l62 53v-64z" />
    <glyph glyph-name="Scaron" unicode="&#x160;" horiz-adv-x="542" 
d="M490 521h-89c0 98 -51 137 -126 137c-42 0 -86 -12 -114 -46c-22 -27 -23 -56 -23 -69c0 -72 53 -95 135 -127l48 -19c131 -52 184 -104 184 -205c0 -36 -9 -204 -245 -204c-163 0 -241 74 -241 207v13h96v-16c0 -135 111 -143 150 -143c112 0 144 71 144 131
c0 82 -69 110 -136 136l-60 23c-69 27 -169 68 -169 190c0 19 1 66 34 110c48 65 127 79 202 79c104 0 153 -31 181 -74c11 -16 30 -52 30 -104c0 -6 0 -12 -1 -19zM406 895l-73 -136h-86l-76 136h67l53 -97l52 97h63z" />
    <glyph glyph-name="scaron" unicode="&#x161;" horiz-adv-x="437" 
d="M395 357h-81v14c0 34 -17 87 -94 87c-67 0 -96 -38 -96 -75c0 -48 51 -68 97 -81l52 -15c84 -24 132 -66 132 -146c0 -75 -47 -151 -189 -151c-140 0 -185 69 -185 152v13h86v-13c0 -43 19 -96 107 -96c74 0 97 38 97 78c0 62 -49 77 -95 91l-64 19
c-31 9 -117 34 -117 128c0 72 42 149 178 149c87 0 172 -36 172 -148v-6zM339 695l-73 -136h-87l-77 136h67l54 -97l51 97h65z" />
    <glyph glyph-name="Yacute" unicode="&#xdd;" horiz-adv-x="604" 
d="M604 706l-248 -448v-258h-92v258l-264 448h113l203 -363l192 363h96zM481 895l-144 -136h-74l113 136h105z" />
    <glyph glyph-name="yacute" unicode="&#xfd;" horiz-adv-x="437" 
d="M438 500l-203 -566c-26 -73 -56 -139 -163 -139c-15 0 -33 0 -62 8v69c12 -3 30 -9 57 -9c63 0 84 39 103 93l14 40l-184 504h96l133 -397l130 397h79zM398 695l-144 -136h-75l113 136h106z" />
    <glyph glyph-name="Thorn" unicode="&#xde;" horiz-adv-x="542" 
d="M77 706h97v-123h148c170 0 204 -116 204 -216c0 -170 -103 -222 -233 -222h-119v-145h-97v706zM174 515v-302h103c64 0 152 7 152 153c0 143 -85 149 -147 149h-108z" />
    <glyph glyph-name="thorn" unicode="&#xfe;" horiz-adv-x="542" 
d="M69 706h84v-267c35 38 75 72 156 72c178 0 189 -181 189 -252c0 -117 -31 -193 -91 -236c-23 -16 -61 -33 -121 -33c-49 0 -102 19 -133 63v-259h-84v912zM152 303v-135c0 -91 63 -122 122 -122c101 0 134 86 134 203c0 62 -7 205 -124 206c-36 0 -59 -10 -70 -17
c-47 -27 -62 -59 -62 -135z" />
    <glyph glyph-name="Zcaron" unicode="&#x17d;" horiz-adv-x="604" 
d="M567 0h-538v66l427 573h-381v67h491v-70l-426 -569h427v-67zM437 895l-73 -136h-86l-76 136h67l53 -97l52 97h63z" />
    <glyph glyph-name="zcaron" unicode="&#x17e;" horiz-adv-x="417" 
d="M399 0h-382v58l282 382h-258v60h357v-60l-281 -380h282v-60zM339 695l-73 -136h-87l-77 136h67l54 -97l51 97h65z" />
    <glyph glyph-name="onehalf" unicode="&#xbd;" horiz-adv-x="792" 
d="M195 206h-65v366h-84v44c76 12 113 26 149 40v-450zM231 0h-55l301 648h52zM743 0h-278v53c88 96 145 150 176 193c31 42 37 65 37 92c0 24 -11 64 -68 64c-73 0 -77 -63 -78 -84v-12h-64v14c0 60 33 127 148 127c65 0 130 -29 130 -109c0 -76 -42 -119 -136 -215
l-67 -68h200v-55z" />
    <glyph glyph-name="onequarter" unicode="&#xbc;" horiz-adv-x="792" 
d="M204 206h-65v366h-84v44c76 12 113 26 149 40v-450zM242 0h-56l301 648h53zM750 99h-47v-99h-63v99h-186v33c52 113 86 194 133 310h67c-46 -108 -80 -184 -129 -290h115v188h63v-188h47v-53z" />
    <glyph glyph-name="onesuperior" unicode="&#xb9;" horiz-adv-x="333" 
d="M216 441h-65v366h-84v44c76 12 113 26 149 40v-450z" />
    <glyph glyph-name="threequarters" unicode="&#xbe;" horiz-adv-x="792" 
d="M299 0h-55l300 648h53zM779 99h-48v-99h-62v99h-186v33c52 113 86 194 132 310h68c-46 -109 -80 -184 -130 -290h116v188h62v-188h48v-53zM113 411v48h36c46 0 87 13 87 79c0 21 -2 72 -69 72c-69 0 -71 -59 -71 -79v-14h-65v6c0 110 79 130 146 130
c98 0 126 -56 126 -107c0 -66 -36 -94 -72 -108c36 -9 84 -29 84 -107c0 -129 -135 -131 -155 -131c-115 0 -138 68 -138 129h68v-12c2 -67 55 -72 76 -72c56 0 82 34 82 87c0 78 -68 79 -89 79h-46z" />
    <glyph glyph-name="threesuperior" unicode="&#xb3;" horiz-adv-x="333" 
d="M106 646v48h36c46 0 87 13 87 79c0 21 -2 72 -69 72c-69 0 -71 -59 -71 -79v-14h-65v6c0 110 79 130 146 130c98 0 126 -56 126 -107c0 -66 -36 -94 -72 -108c36 -9 84 -29 84 -107c0 -129 -135 -131 -155 -131c-115 0 -138 68 -138 129h68v-12c2 -67 55 -72 76 -72
c56 0 82 34 82 87c0 78 -68 79 -89 79h-46z" />
    <glyph glyph-name="twosuperior" unicode="&#xb2;" horiz-adv-x="333" 
d="M306 441h-278v53c88 96 145 150 176 193c31 42 37 65 37 92c0 24 -11 64 -68 64c-73 0 -77 -63 -78 -84v-12h-64v14c0 60 33 127 148 127c65 0 130 -29 130 -109c0 -76 -42 -119 -136 -215l-67 -68h200v-55z" />
    <glyph glyph-name="brokenbar" unicode="&#xa6;" horiz-adv-x="308" 
d="M193 343h-78v363h78v-363zM193 -141h-78v363h78v-363z" />
    <glyph glyph-name="minus" unicode="&#x2212;" horiz-adv-x="724" 
d="M632 254h-540v82h540v-82z" />
    <glyph glyph-name="multiply" unicode="&#xd7;" horiz-adv-x="724" 
d="M582 142l-60 -62l-163 161l-159 -160l-56 55l158 160l-162 160l60 62l162 -160l159 160l56 -54l-158 -161z" />
    <glyph glyph-name="uni00AD" unicode="&#xad;" horiz-adv-x="396" 
d="M346 224h-296v67h296v-67z" />
    <glyph glyph-name="uni03BC" unicode="&#x3bc;" horiz-adv-x="542" 
d="M72 500h85v-318c0 -81 28 -137 101 -137c63 0 126 44 126 105v350h86v-500h-85v58c-47 -44 -85 -64 -136 -64c-49 0 -74 22 -92 48v-248h-85v706z" />
    <glyph glyph-name="uni03A9" unicode="&#x3a9;" horiz-adv-x="722" 
d="M673 0h-264v71c121 45 159 178 159 307c0 169 -80 278 -205 278c-130 0 -211 -109 -211 -284c0 -121 30 -257 161 -301v-71h-264v71h153c-95 60 -143 162 -143 304c0 214 116 348 303 348c179 0 296 -126 296 -319c0 -161 -49 -270 -149 -333h164v-71z" />
    <glyph glyph-name="uni0394" unicode="&#x394;" horiz-adv-x="612" 
d="M616 0h-620l268 706h87zM492 74l-188 520l-188 -520h376z" />
    <glyph glyph-name="uni2215" unicode="&#x2215;" horiz-adv-x="125" 
d="M-59 0h-55l301 648h52z" />
    <glyph glyph-name="uni2219" unicode="&#x2219;" horiz-adv-x="208" 
d="M155 215h-101v97h101v-97z" />
    <glyph glyph-name="uni02C9" unicode="&#x2c9;" horiz-adv-x="271" 
d="M268 575h-265v64h265v-64z" />
    <glyph glyph-name="uni037E" unicode="&#x37e;" horiz-adv-x="229" 
d="M176 403h-100v97h100v-97zM176 4l-54 -115h-55l55 111h-51v97h105v-93z" />
    <glyph glyph-name="eth.sc" horiz-adv-x="571" 
d="M66 301v218h176c96 0 139 -6 180 -26c70 -35 107 -113 107 -228c0 -158 -70 -243 -192 -260c-29 -4 -52 -5 -123 -5h-148v246h-66v55h66zM150 246v-189h68c83 0 117 7 151 28c49 31 72 87 72 176c0 69 -18 129 -47 158c-30 31 -73 43 -154 43h-90v-161h173v-55h-173z" />
    <glyph glyph-name="lslash.sc" horiz-adv-x="427" 
d="M151 61h262v-61h-347v168l-66 -44v61l66 46v288h85v-234l170 113v-61l-170 -111v-165z" />
    <glyph glyph-name="scaron.sc" horiz-adv-x="447" 
d="M405 382h-76c-3 61 -38 93 -106 93c-65 0 -102 -28 -102 -76c0 -36 24 -61 79 -80l62 -21c114 -39 154 -78 154 -153c0 -96 -78 -154 -206 -154c-132 0 -196 53 -197 162h83v-8c0 -63 45 -100 120 -100c71 0 117 33 117 86c0 41 -25 64 -96 89l-64 23
c-98 35 -136 72 -136 142c0 90 71 142 192 142c115 0 176 -46 176 -133v-12zM342 695l-73 -136h-87l-77 136h67l54 -97l51 97h65z" />
    <glyph glyph-name="yacute.sc" horiz-adv-x="493" 
d="M296 189v-189h-85v189l-214 330h101l160 -253l149 253h91zM415 695l-144 -136h-75l113 136h106z" />
    <glyph glyph-name="thorn.sc" horiz-adv-x="461" 
d="M151 103v-103h-85v519h85v-88h134c73 0 168 -26 168 -156c0 -50 -15 -94 -42 -122c-36 -38 -79 -50 -179 -50h-81zM151 158h91c99 0 123 48 123 110c0 28 -7 53 -20 73c-18 28 -43 35 -117 35h-77v-218z" />
    <glyph glyph-name="zcaron.sc" horiz-adv-x="479" 
d="M456 60v-60h-440v54l331 405h-293v60h399v-59l-328 -400h331zM356 695l-73 -136h-87l-77 136h67l54 -97l51 97h65z" />
    <glyph glyph-name="numbersign.oldstyle" horiz-adv-x="535" 
d="M366 156l-22 -165h-57l22 165h-104l-22 -165h-59l22 165h-126v56h134l12 93h-125v57h133l22 165h59l-22 -165h104l22 165h57l-22 -165h121v-57h-129l-12 -93h121v-56h-129zM212 212h104l13 93h-104z" />
    <glyph glyph-name="dollar.oldstyle" horiz-adv-x="388" 
d="M175 602h56v-75c49 0 83 -6 111 -19v-69c-45 19 -85 28 -125 28c-64 0 -102 -26 -102 -70c0 -42 39 -63 91 -87l46 -21c80 -37 120 -84 120 -147c0 -68 -43 -126 -141 -145v-91h-56v86h-20c-49 0 -93 7 -137 22v70c43 -20 91 -31 143 -31c79 0 125 28 125 77
c0 44 -31 65 -94 95l-48 23c-62 30 -111 71 -111 138c0 74 52 125 142 138v78z" />
    <glyph glyph-name="percent.oldstyle" horiz-adv-x="805" 
d="M313 349c0 -47 -3 -116 -27 -151c-22 -32 -60 -48 -113 -48s-92 18 -111 47c-18 27 -25 66 -25 132c0 83 7 120 29 150c25 34 64 50 117 50c50 0 89 -16 108 -46c15 -24 22 -66 22 -134zM549 519l-240 -519h-56l243 519h53zM102 330c0 -65 0 -133 72 -133
c71 0 74 60 74 156c0 71 -2 131 -69 131c-77 0 -77 -65 -77 -154zM557 175c0 -65 0 -133 72 -133c71 0 74 60 74 156c0 71 -2 131 -69 131c-77 0 -77 -65 -77 -154zM768 194c0 -47 -3 -116 -27 -151c-22 -32 -60 -48 -113 -48s-92 18 -111 47c-18 27 -25 66 -25 132
c0 83 7 120 29 150c25 34 64 50 117 50c50 0 89 -16 108 -46c15 -24 22 -66 22 -134z" />
    <glyph glyph-name="ampersand.sc" horiz-adv-x="514" 
d="M481 264v-52c0 -60 -13 -98 -43 -127l73 -85h-107l-25 31c-42 -28 -91 -41 -153 -41c-119 0 -196 62 -196 159c0 67 34 108 123 150c-34 43 -48 76 -48 113c0 70 56 116 141 116c81 0 135 -43 135 -108c0 -57 -33 -87 -122 -128l137 -159c9 20 13 42 13 74v57h72zM341 77
l-155 180c-50 -28 -71 -60 -71 -105c0 -63 47 -107 116 -107c40 0 80 11 110 32zM226 335c58 25 82 48 82 81s-27 58 -63 58c-37 0 -62 -22 -62 -54c0 -24 8 -42 35 -75z" />
    <glyph glyph-name="zero.oldstyle" 
d="M460 275c0 -193 -70 -287 -215 -287c-136 0 -203 86 -203 260c0 193 69 283 216 283c138 0 202 -81 202 -256zM126 269c0 -87 1 -225 122 -225c104 0 127 102 127 229c0 140 -36 201 -121 201c-88 0 -128 -60 -128 -205z" />
    <glyph glyph-name="one.oldstyle" horiz-adv-x="350" 
d="M234 549v-549h-88v439h-124v55c109 17 151 32 212 55z" />
    <glyph glyph-name="two.oldstyle" horiz-adv-x="484" 
d="M446 73v-73h-408v76c188 121 211 137 251 177c39 39 57 78 57 123c0 61 -36 98 -94 98c-72 0 -113 -49 -113 -132v-9h-86v4c0 120 71 194 210 194c110 0 175 -56 175 -153c0 -52 -24 -106 -63 -147c-59 -60 -109 -91 -221 -158h292z" />
    <glyph glyph-name="three.oldstyle" 
d="M57 338v14c0 111 77 179 202 179c118 0 184 -58 184 -162c0 -82 -37 -130 -120 -155c93 -11 138 -61 138 -157c0 -121 -79 -190 -219 -190c-110 0 -198 52 -198 165c0 7 0 14 1 22h91v-18c0 -62 35 -111 114 -111c78 0 122 47 122 129c0 39 -11 72 -32 93
c-24 25 -48 33 -119 33h-42v63h48c78 0 126 33 126 124c0 71 -36 109 -102 109c-70 0 -106 -44 -106 -129v-9h-88z" />
    <glyph glyph-name="four.oldstyle" horiz-adv-x="484" 
d="M469 67v-67h-71v-146h-81v146h-284v42c72 161 137 316 198 477h92c-63 -150 -128 -302 -197 -452h189v282h83v-282h71z" />
    <glyph glyph-name="five.oldstyle" 
d="M423 519v-69h-262l-7 -187c36 34 76 49 126 49c111 0 174 -78 174 -215c0 -146 -76 -230 -211 -230c-124 0 -193 65 -194 183h89c3 -85 38 -124 108 -124c77 0 118 57 118 166c0 106 -35 157 -108 157c-52 0 -86 -26 -105 -80h-75s10 239 14 350h333z" />
    <glyph glyph-name="six.oldstyle" 
d="M457 482h-85c-4 74 -38 113 -98 113c-86 0 -131 -75 -131 -235v-17c40 46 90 69 149 69c106 0 166 -75 166 -208c0 -139 -72 -217 -200 -217c-140 0 -204 87 -204 298c0 230 54 368 226 368c104 0 170 -49 177 -171zM373 212c0 91 -40 140 -105 140
c-74 0 -119 -58 -119 -151c0 -97 43 -157 112 -157c94 0 112 94 112 168z" />
    <glyph glyph-name="seven.oldstyle" horiz-adv-x="425" 
d="M396 519v-72c-73 -196 -157 -379 -247 -574h-97c93 193 192 409 258 576h-295v70h381z" />
    <glyph glyph-name="eight.oldstyle" 
d="M331 342c84 -17 123 -68 123 -164c0 -122 -74 -191 -207 -191c-126 0 -199 68 -199 185c0 93 44 149 122 170c-72 22 -105 74 -105 141c0 105 71 169 191 169c115 0 180 -58 180 -161c0 -77 -33 -123 -105 -149zM368 180c0 85 -42 134 -114 134c-74 0 -119 -52 -119 -137
c0 -86 45 -132 116 -132c74 0 117 46 117 135zM352 485c0 71 -37 112 -99 112c-63 0 -103 -44 -103 -116c0 -68 37 -110 98 -110c66 0 104 41 104 114z" />
    <glyph glyph-name="nine.oldstyle" 
d="M44 40h81c4 -76 39 -115 102 -115c91 0 122 72 132 251c-32 -42 -85 -66 -144 -66c-109 0 -171 75 -171 207c0 135 76 214 207 214c135 0 197 -94 197 -300c0 -247 -72 -365 -224 -365c-109 0 -178 59 -180 174zM130 322c0 -100 38 -153 109 -153s114 57 114 152
c0 98 -40 156 -111 156c-89 0 -112 -82 -112 -155z" />
    <glyph glyph-name="a.sc" horiz-adv-x="529" 
d="M525 0h-91l-71 189h-197l-79 -189h-88l226 519h102zM345 246l-73 202l-87 -202h160z" />
    <glyph glyph-name="b.sc" horiz-adv-x="489" 
d="M345 281c79 -14 122 -61 122 -134c0 -49 -21 -89 -60 -115c-37 -25 -81 -32 -198 -32h-143v519h155c86 0 115 -4 147 -21c38 -19 61 -58 61 -102c0 -51 -34 -97 -84 -115zM149 245v-192h79c108 0 153 24 153 95c0 38 -20 69 -53 84c-23 11 -44 13 -119 13h-60zM149 297
h54c102 0 143 21 143 88c0 31 -14 57 -37 69c-19 10 -41 12 -105 12h-55v-169z" />
    <glyph glyph-name="c.sc" horiz-adv-x="519" 
d="M488 353h-84c0 79 -48 122 -126 122c-95 0 -148 -48 -148 -236c0 -150 50 -195 142 -195c80 0 135 42 141 125h83c-7 -119 -84 -178 -231 -178c-153 0 -223 64 -223 249c0 203 71 289 239 289c144 0 207 -60 207 -176z" />
    <glyph glyph-name="d.sc" horiz-adv-x="571" 
d="M66 0v519h176c96 0 137 -6 178 -26c71 -35 109 -115 109 -229c0 -93 -23 -160 -71 -204c-57 -51 -103 -60 -244 -60h-148zM150 57h68c83 0 117 6 151 28c49 31 72 87 72 176c0 69 -17 127 -47 158c-30 32 -74 43 -154 43h-90v-405z" />
    <glyph glyph-name="e.sc" horiz-adv-x="436" 
d="M416 61v-61h-350v519h328v-61h-243v-158h223v-60h-223v-179h265z" />
    <glyph glyph-name="f.sc" horiz-adv-x="400" 
d="M151 224v-224h-85v519h327v-61h-242v-173h226v-61h-226z" />
    <glyph glyph-name="g.sc" horiz-adv-x="544" 
d="M491 267v-267h-78v44c-43 -37 -92 -53 -161 -53c-143 0 -216 68 -216 257c0 195 76 281 249 281c140 0 205 -58 208 -171h-85c-6 81 -46 118 -131 118c-106 0 -153 -69 -153 -224c0 -137 38 -206 148 -206c52 0 102 20 126 52c12 16 16 36 16 79v34h-128v56h205z" />
    <glyph glyph-name="h.sc" horiz-adv-x="563" 
d="M496 0h-84v245h-261v-245h-85v519h85v-214h261v214h84v-519z" />
    <glyph glyph-name="i.sc" horiz-adv-x="217" 
d="M151 0h-85v519h85v-519z" />
    <glyph glyph-name="j.sc" horiz-adv-x="340" 
d="M195 519h85v-336c0 -60 -5 -93 -17 -118c-23 -47 -74 -73 -144 -73c-44 0 -74 6 -118 24v66c42 -21 69 -29 104 -29c59 0 90 21 90 123v343z" />
    <glyph glyph-name="k.sc" horiz-adv-x="499" 
d="M485 519l-208 -209l228 -310h-102l-186 249l-70 -67v-182h-81v519h81v-248l244 248h94z" />
    <glyph glyph-name="l.sc" horiz-adv-x="427" 
d="M413 61v-61h-347v519h85v-458h262z" />
    <glyph glyph-name="m.sc" horiz-adv-x="728" 
d="M521 519h138s5 -401 7 -519h-83c-2 160 -5 319 -5 479c-9 -23 -16 -46 -188 -479h-66c-171 439 -178 459 -186 478c-1 -92 -7 -478 -7 -478h-76s11 446 13 519h135c136 -359 148 -391 157 -422c10 31 21 62 161 422z" />
    <glyph glyph-name="n.sc" horiz-adv-x="593" 
d="M527 519v-519h-103c-246 366 -266 395 -282 425c0 -41 2 -67 2 -425h-78v519h101c237 -353 263 -394 285 -431c-2 33 -2 66 -2 431h77z" />
    <glyph glyph-name="o.sc" horiz-adv-x="566" 
d="M524 269c0 -194 -75 -279 -246 -279c-163 0 -236 82 -236 265s82 274 247 274c164 0 235 -78 235 -260zM435 268c0 105 -19 207 -146 207c-109 0 -158 -68 -158 -222c0 -142 48 -210 149 -210c109 0 155 67 155 225z" />
    <glyph glyph-name="p.sc" horiz-adv-x="461" 
d="M151 191v-191h-85v519h216c123 0 171 -68 171 -156c0 -50 -15 -94 -42 -123c-35 -36 -80 -49 -179 -49h-81zM151 246h97c86 0 117 41 117 109c0 28 -7 54 -20 74c-18 27 -40 35 -117 35h-77v-218z" />
    <glyph glyph-name="q.sc" horiz-adv-x="564" 
d="M580 -92h-84c-7 61 -42 99 -96 105c-35 -12 -66 -23 -123 -23c-162 0 -235 83 -235 265s82 274 246 274c165 0 236 -79 236 -262c0 -98 -18 -160 -60 -210c70 -14 114 -70 116 -149zM131 253c0 -142 48 -210 149 -210c109 0 155 67 155 225c0 146 -46 207 -146 207
c-109 0 -158 -68 -158 -222z" />
    <glyph glyph-name="r.sc" horiz-adv-x="510" 
d="M150 276h71c57 0 78 2 102 10c33 12 53 44 53 87c0 34 -16 70 -50 82c-23 8 -36 10 -97 10h-79v-189zM66 519h201c38 0 78 -1 113 -12c54 -17 84 -66 84 -122c0 -68 -40 -121 -108 -134c115 -30 83 -178 148 -251h-93c-22 14 -32 61 -37 84c-25 107 -34 139 -152 139h-72
v-223h-84v519z" />
    <glyph glyph-name="s.sc" horiz-adv-x="447" 
d="M405 382h-76c-3 61 -38 93 -106 93c-65 0 -102 -28 -102 -76c0 -36 24 -61 79 -80l62 -21c114 -39 154 -78 154 -153c0 -96 -78 -154 -206 -154c-132 0 -196 53 -197 162h83v-8c0 -63 45 -100 120 -100c71 0 117 33 117 86c0 41 -25 64 -96 89l-64 23
c-98 35 -136 72 -136 142c0 90 71 142 192 142c115 0 176 -46 176 -133v-12z" />
    <glyph glyph-name="t.sc" horiz-adv-x="415" 
d="M251 458v-458h-85v458h-163v61h410v-61h-162z" />
    <glyph glyph-name="u.sc" horiz-adv-x="557" 
d="M413 519h84v-333c0 -115 -55 -195 -224 -195c-160 0 -213 71 -213 188v340h84v-332c0 -106 54 -140 134 -140c75 0 135 31 135 149v323z" />
    <glyph glyph-name="v.sc" horiz-adv-x="475" 
d="M480 519l-193 -519h-100l-193 519h93c133 -370 145 -402 154 -434c8 33 20 65 152 434h87z" />
    <glyph glyph-name="w.sc" horiz-adv-x="719" 
d="M574 0h-118c-34 134 -70 266 -99 401c-9 -41 -20 -81 -113 -401h-119l-122 519h90c34 -153 71 -306 102 -460c38 154 83 307 125 460h82c37 -153 75 -306 111 -459c7 30 14 60 119 459h83z" />
    <glyph glyph-name="x.sc" horiz-adv-x="522" 
d="M313 285l204 -285h-105l-154 217l-156 -217h-98l206 275l-170 244h103l124 -179l129 179h94z" />
    <glyph glyph-name="y.sc" horiz-adv-x="493" 
d="M296 189v-189h-85v189l-214 330h101l160 -253l149 253h91z" />
    <glyph glyph-name="z.sc" horiz-adv-x="479" 
d="M456 60v-60h-440v54l331 405h-293v60h399v-59l-328 -400h331z" />
    <glyph glyph-name="aacute.sc" horiz-adv-x="529" 
d="M525 0h-91l-71 189h-197l-79 -189h-88l226 519h102zM345 246l-73 202l-87 -202h160zM429 695l-144 -136h-75l113 136h106z" />
    <glyph glyph-name="agrave.sc" horiz-adv-x="529" 
d="M525 0h-91l-71 189h-197l-79 -189h-88l226 519h102zM345 246l-73 202l-87 -202h160zM324 559h-73l-104 136h99z" />
    <glyph glyph-name="acircumflex.sc" horiz-adv-x="529" 
d="M525 0h-91l-71 189h-197l-79 -189h-88l226 519h102zM345 246l-73 202l-87 -202h160zM391 559h-66l-54 97l-51 -97h-64l73 136h86z" />
    <glyph glyph-name="adieresis.sc" horiz-adv-x="529" 
d="M525 0h-91l-71 189h-197l-79 -189h-88l226 519h102zM345 246l-73 202l-87 -202h160zM402 577h-89v92h89v-92zM238 577h-89v92h89v-92z" />
    <glyph glyph-name="atilde.sc" horiz-adv-x="529" 
d="M525 0h-91l-71 189h-197l-79 -189h-88l226 519h102zM345 246l-73 202l-87 -202h160zM406 691v-50c0 -53 -18 -81 -62 -81c-31 0 -59 21 -84 40l-25 19c-13 10 -27 20 -33 20c-16 0 -16 -19 -16 -42v-32h-60v51c0 29 1 80 58 80c21 0 40 -5 76 -33l31 -24
c15 -12 29 -21 37 -21c9 0 16 3 16 35v38h62z" />
    <glyph glyph-name="aring.sc" horiz-adv-x="529" 
d="M525 0h-91l-71 189h-197l-79 -189h-88l226 519h102zM345 246l-73 202l-87 -202h160zM362 641c0 -56 -44 -91 -92 -91c-52 0 -90 42 -90 90c0 53 44 90 93 90c46 0 89 -36 89 -89zM315 640c0 25 -19 43 -43 43s-45 -18 -45 -43c0 -24 17 -44 44 -44c24 0 44 17 44 44z" />
    <glyph glyph-name="ccedilla.sc" horiz-adv-x="519" 
d="M413 169h83c-7 -118 -81 -176 -227 -178l-2 -35c8 1 12 1 17 1c56 0 93 -36 93 -91c0 -66 -43 -99 -126 -99c-8 0 -21 0 -44 2v51c16 -2 25 -2 34 -2c49 0 72 14 72 45c0 32 -24 47 -74 47c-6 0 -11 0 -21 -1l6 83l-7 1c-125 18 -175 88 -175 247c0 203 71 289 239 289
c144 0 207 -60 207 -176h-84v4c0 73 -48 118 -126 118c-95 0 -148 -48 -148 -236c0 -150 50 -195 142 -195c80 0 131 38 141 125z" />
    <glyph glyph-name="eacute.sc" horiz-adv-x="436" 
d="M416 61v-61h-350v519h328v-61h-243v-158h223v-60h-223v-179h265zM386 695l-144 -136h-75l113 136h106z" />
    <glyph glyph-name="egrave.sc" horiz-adv-x="436" 
d="M416 61v-61h-350v519h328v-61h-243v-158h223v-60h-223v-179h265zM287 559h-73l-104 136h99z" />
    <glyph glyph-name="ecircumflex.sc" horiz-adv-x="436" 
d="M416 61v-61h-350v519h328v-61h-243v-158h223v-60h-223v-179h265zM357 559h-66l-54 97l-51 -97h-64l73 136h86z" />
    <glyph glyph-name="edieresis.sc" horiz-adv-x="436" 
d="M416 61v-61h-350v519h328v-61h-243v-158h223v-60h-223v-179h265zM368 577h-89v92h89v-92zM204 577h-89v92h89v-92z" />
    <glyph glyph-name="iacute.sc" horiz-adv-x="217" 
d="M151 0h-85v519h85v-519zM269 695l-144 -136h-75l113 136h106z" />
    <glyph glyph-name="igrave.sc" horiz-adv-x="217" 
d="M151 0h-85v519h85v-519zM159 559h-73l-104 136h99z" />
    <glyph glyph-name="icircumflex.sc" horiz-adv-x="217" 
d="M151 0h-85v519h85v-519zM227 559h-66l-54 97l-51 -97h-64l73 136h86z" />
    <glyph glyph-name="idieresis.sc" horiz-adv-x="217" 
d="M151 0h-85v519h85v-519zM236 577h-89v92h89v-92zM72 577h-89v92h89v-92z" />
    <glyph glyph-name="ntilde.sc" horiz-adv-x="593" 
d="M527 519v-519h-103c-246 366 -266 395 -282 425c0 -41 2 -67 2 -425h-78v519h101c237 -353 263 -394 285 -431c-2 33 -2 66 -2 431h77zM443 691v-50c0 -53 -18 -81 -62 -81c-31 0 -59 21 -84 40l-25 19c-13 10 -27 20 -33 20c-16 0 -16 -19 -16 -42v-32h-60v51
c0 29 1 80 58 80c21 0 40 -5 76 -33l31 -24c15 -12 29 -21 37 -21c9 0 16 3 16 35v38h62z" />
    <glyph glyph-name="oacute.sc" horiz-adv-x="566" 
d="M524 269c0 -194 -75 -279 -246 -279c-163 0 -236 82 -236 265s82 274 247 274c164 0 235 -78 235 -260zM435 268c0 105 -19 207 -146 207c-109 0 -158 -68 -158 -222c0 -142 48 -210 149 -210c109 0 155 67 155 225zM440 695l-144 -136h-75l113 136h106z" />
    <glyph glyph-name="ograve.sc" horiz-adv-x="566" 
d="M524 269c0 -194 -75 -279 -246 -279c-163 0 -236 82 -236 265s82 274 247 274c164 0 235 -78 235 -260zM435 268c0 105 -19 207 -146 207c-109 0 -158 -68 -158 -222c0 -142 48 -210 149 -210c109 0 155 67 155 225zM337 559h-73l-104 136h99z" />
    <glyph glyph-name="ocircumflex.sc" horiz-adv-x="566" 
d="M524 269c0 -194 -75 -279 -246 -279c-163 0 -236 82 -236 265s82 274 247 274c164 0 235 -78 235 -260zM435 268c0 105 -19 207 -146 207c-109 0 -158 -68 -158 -222c0 -142 48 -210 149 -210c109 0 155 67 155 225zM405 559h-66l-54 97l-51 -97h-64l73 136h86z" />
    <glyph glyph-name="odieresis.sc" horiz-adv-x="566" 
d="M524 269c0 -194 -75 -279 -246 -279c-163 0 -236 82 -236 265s82 274 247 274c164 0 235 -78 235 -260zM435 268c0 105 -19 207 -146 207c-109 0 -158 -68 -158 -222c0 -142 48 -210 149 -210c109 0 155 67 155 225zM410 577h-89v92h89v-92zM246 577h-89v92h89v-92z" />
    <glyph glyph-name="otilde.sc" horiz-adv-x="566" 
d="M524 269c0 -194 -75 -279 -246 -279c-163 0 -236 82 -236 265s82 274 247 274c164 0 235 -78 235 -260zM435 268c0 105 -19 207 -146 207c-109 0 -158 -68 -158 -222c0 -142 48 -210 149 -210c109 0 155 67 155 225zM425 691v-50c0 -53 -18 -81 -62 -81
c-31 0 -59 21 -84 40l-25 19c-13 10 -27 20 -33 20c-16 0 -16 -19 -16 -42v-32h-60v51c0 29 1 80 58 80c21 0 40 -5 76 -33l31 -24c15 -12 29 -21 37 -21c9 0 16 3 16 35v38h62z" />
    <glyph glyph-name="uacute.sc" horiz-adv-x="557" 
d="M413 519h84v-333c0 -115 -55 -195 -224 -195c-160 0 -213 71 -213 188v340h84v-332c0 -106 54 -140 134 -140c75 0 135 31 135 149v323zM435 695l-144 -136h-75l113 136h106z" />
    <glyph glyph-name="ugrave.sc" horiz-adv-x="557" 
d="M413 519h84v-333c0 -115 -55 -195 -224 -195c-160 0 -213 71 -213 188v340h84v-332c0 -106 54 -140 134 -140c75 0 135 31 135 149v323zM327 559h-73l-104 136h99z" />
    <glyph glyph-name="ucircumflex.sc" horiz-adv-x="557" 
d="M413 519h84v-333c0 -115 -55 -195 -224 -195c-160 0 -213 71 -213 188v340h84v-332c0 -106 54 -140 134 -140c75 0 135 31 135 149v323zM398 559h-66l-54 97l-51 -97h-64l73 136h86z" />
    <glyph glyph-name="udieresis.sc" horiz-adv-x="557" 
d="M413 519h84v-333c0 -115 -55 -195 -224 -195c-160 0 -213 71 -213 188v340h84v-332c0 -106 54 -140 134 -140c75 0 135 31 135 149v323zM407 577h-89v92h89v-92zM243 577h-89v92h89v-92z" />
    <glyph glyph-name="cent.oldstyle" horiz-adv-x="429" 
d="M204 523h55v-81c86 -7 133 -48 137 -154h-78c-4 68 -33 102 -86 102c-70 0 -110 -61 -110 -167c0 -114 37 -176 106 -176c52 0 82 33 91 101h78c-7 -87 -51 -136 -138 -153v-95h-55v94c-25 4 -34 5 -48 10c-77 25 -117 97 -117 210c0 136 53 209 165 228v81z" />
    <glyph glyph-name="sterling.oldstyle" horiz-adv-x="488" 
d="M369 254v-60h-146l-3 -11c-14 -52 -26 -80 -67 -117h313v-66h-445v53c72 15 103 56 122 141h-99v60h108l9 47c32 162 79 231 214 231c29 0 58 -3 91 -12v-69c-33 13 -54 18 -82 18c-41 0 -72 -13 -92 -37c-22 -26 -33 -56 -49 -133l-9 -45h135z" />
    <glyph glyph-name="germandbls.sc" horiz-adv-x="894" 
d="M405 382h-76c-3 61 -38 93 -106 93c-65 0 -102 -28 -102 -76c0 -36 24 -61 79 -80l62 -21c114 -39 154 -78 154 -153c0 -96 -78 -154 -206 -154c-132 0 -196 53 -197 162h83v-8c0 -63 45 -100 120 -100c71 0 117 33 117 86c0 41 -25 64 -96 89l-64 23
c-98 35 -136 72 -136 142c0 90 71 142 192 142c115 0 176 -46 176 -133v-12zM852 382h-76c-3 61 -38 93 -106 93c-65 0 -102 -28 -102 -76c0 -36 24 -61 79 -80l62 -21c114 -39 154 -78 154 -153c0 -96 -78 -154 -206 -154c-132 0 -196 53 -197 162h83v-8
c0 -63 45 -100 120 -100c71 0 117 33 117 86c0 41 -25 64 -96 89l-64 23c-98 35 -136 72 -136 142c0 90 71 142 192 142c115 0 176 -46 176 -133v-12z" />
    <glyph glyph-name="yen.oldstyle" horiz-adv-x="504" 
d="M492 519l-135 -221h91v-56h-118l-32 -58h150v-54h-150v-130h-80v130h-154v54h154l-34 58h-120v56h87l-138 221h98l149 -256l143 256h89z" />
    <glyph glyph-name="ae.sc" horiz-adv-x="749" 
d="M729 0h-343v242h-169l-135 -242h-92l293 519h425v-60h-240v-161h219v-55h-219v-184h261v-59zM386 296v167h-47l-96 -167h143z" />
    <glyph glyph-name="oslash.sc" horiz-adv-x="566" 
d="M472 575l37 -26l-51 -74c47 -43 66 -105 66 -210c0 -189 -77 -275 -246 -275c-59 0 -101 9 -139 31l-50 -71l-37 26l52 74c-44 46 -62 106 -62 205c0 181 83 274 246 274c54 0 100 -10 133 -28zM410 408l-229 -328c23 -23 59 -37 99 -37c107 0 156 68 156 217
c0 58 -10 118 -26 148zM154 120l227 326c-20 20 -50 29 -94 29c-106 0 -158 -70 -158 -216c0 -52 10 -104 25 -139z" />
    <glyph glyph-name="florin.oldstyle" horiz-adv-x="329" 
d="M334 524l-8 -63c-17 9 -36 14 -51 14c-29 0 -47 -8 -57 -84l-7 -51h86v-57h-92l-28 -241c-8 -66 -12 -85 -20 -109c-16 -46 -51 -68 -115 -68c-16 0 -34 2 -60 8l8 65c18 -9 34 -13 47 -13c44 0 49 11 60 107l30 250h-74v57h80l7 54c9 64 17 87 35 108c18 22 53 33 89 33
c23 0 50 -4 70 -10z" />
    <glyph glyph-name="oe.sc" horiz-adv-x="811" 
d="M792 60v-60h-347v56c-43 -46 -92 -66 -168 -66c-177 0 -235 98 -235 264c0 186 78 275 241 275c75 0 124 -17 163 -66v56h325v-60h-246v-161h225v-56h-225v-182h267zM447 266c0 41 -2 94 -18 133c-20 49 -72 78 -140 78c-109 0 -158 -68 -158 -219s42 -215 155 -215
c126 0 161 76 161 223z" />
    <glyph glyph-name="ydieresis.sc" horiz-adv-x="493" 
d="M296 189v-189h-85v189l-214 330h101l160 -253l149 253h91zM378 577h-89v92h89v-92zM214 577h-89v92h89v-92z" />
    <glyph glyph-name="Euro.oldstyle" horiz-adv-x="511" 
d="M405 353v-56h-232c-1 -13 -1 -20 -1 -29c0 -11 0 -19 1 -29h232v-54h-227c8 -89 61 -139 160 -139c48 0 87 14 124 44v-73c-41 -20 -95 -29 -137 -29c-147 0 -219 81 -231 197h-65v52h61c0 17 0 43 2 60h-63v56h68c22 120 96 178 235 178c53 0 101 -11 130 -27v-71
c-38 27 -82 43 -124 43c-96 0 -149 -45 -158 -123h225z" />
    <glyph glyph-name="f_i.sc" horiz-adv-x="617" 
d="M151 224v-224h-85v519h327v-61h-242v-173h226v-61h-226zM551 0h-85v519h85v-519z" />
    <glyph glyph-name="f_l.sc" horiz-adv-x="827" 
d="M151 224v-224h-85v519h327v-61h-242v-173h226v-61h-226zM813 61v-61h-347v519h84v-458h263z" />
    <glyph glyph-name="periodcentered.sc" horiz-adv-x="208" 
d="M155 209h-101v97h101v-97z" />
    <glyph glyph-name="perthousand.oldstyle" horiz-adv-x="1131" 
d="M313 349c0 -47 -3 -116 -27 -151c-22 -32 -60 -48 -113 -48s-92 18 -111 47c-18 27 -25 66 -25 132c0 83 7 120 29 150c25 34 64 50 117 50c50 0 89 -16 108 -46c15 -24 22 -66 22 -134zM549 519l-240 -519h-56l243 519h53zM102 330c0 -65 0 -133 72 -133
c71 0 74 60 74 156c0 71 -2 131 -69 131c-77 0 -77 -65 -77 -154zM557 175c0 -65 0 -133 72 -133c71 0 74 60 74 156c0 71 -2 131 -69 131c-77 0 -77 -65 -77 -154zM768 194c0 -47 -3 -116 -27 -151c-22 -32 -60 -48 -113 -48s-92 18 -111 47c-18 27 -25 66 -25 132
c0 83 7 120 29 150c25 34 64 50 117 50c50 0 89 -16 108 -46c15 -24 22 -66 22 -134zM884 175c0 -65 0 -133 72 -133c71 0 74 60 74 156c0 71 -2 131 -69 131c-77 0 -77 -65 -77 -154zM1095 194c0 -47 -3 -116 -27 -151c-22 -32 -60 -48 -113 -48s-92 18 -111 47
c-18 27 -25 66 -25 132c0 83 7 120 29 150c25 34 64 50 117 50c50 0 89 -16 108 -46c15 -24 22 -66 22 -134z" />
    <glyph glyph-name="acute.sc" horiz-adv-x="271" 
d="M245 695l-144 -136h-75l113 136h106z" />
    <glyph glyph-name="breve.sc" horiz-adv-x="271" 
d="M201 688h61c0 -102 -77 -129 -130 -129c-75 0 -124 46 -124 122v7h62c2 -25 10 -78 66 -78c52 0 62 43 65 78z" />
    <glyph glyph-name="caron.sc" horiz-adv-x="271" 
d="M254 695l-73 -136h-87l-77 136h67l54 -97l51 97h65z" />
    <glyph glyph-name="cedilla.sc" horiz-adv-x="271" 
d="M115 29l-5 -73c6 1 12 1 19 1c18 0 91 -12 91 -93c0 -25 -9 -43 -15 -52c-18 -29 -48 -45 -114 -45c-14 0 -28 1 -41 2v51c12 -2 24 -2 34 -2c45 0 71 10 71 44c0 35 -17 48 -82 48c-4 0 -9 0 -13 -1l9 120h46z" />
    <glyph glyph-name="circumflex.sc" horiz-adv-x="271" 
d="M253 559h-66l-54 97l-51 -97h-64l73 136h86z" />
    <glyph glyph-name="commaaccent.sc" horiz-adv-x="271" 
d="M188 -125l-57 -98h-49l57 98h-47v90h96v-90z" />
    <glyph glyph-name="dieresis.sc" horiz-adv-x="271" 
d="M262 577h-89v92h89v-92zM98 577h-89v92h89v-92z" />
    <glyph glyph-name="dotaccent.sc" horiz-adv-x="271" 
d="M180 577h-89v92h89v-92z" />
    <glyph glyph-name="grave.sc" horiz-adv-x="271" 
d="M224 559h-73l-104 136h99z" />
    <glyph glyph-name="hungarumlaut.sc" horiz-adv-x="271" 
d="M168 695l-144 -136h-67l111 136h100zM314 695l-144 -136h-67l111 136h100z" />
    <glyph glyph-name="macron.sc" horiz-adv-x="271" 
d="M268 575h-265v64h265v-64z" />
    <glyph glyph-name="ogonek.sc" horiz-adv-x="271" 
d="M161 6h49c-3 -3 -76 -45 -76 -86c0 -26 25 -38 46 -38c12 0 24 3 29 4v-55c-13 -4 -30 -11 -58 -11c-42 0 -90 22 -90 73c0 54 55 87 100 113z" />
    <glyph glyph-name="ring.sc" horiz-adv-x="271" 
d="M226 641c0 -56 -44 -91 -92 -91c-52 0 -90 42 -90 90c0 53 44 90 93 90c46 0 89 -36 89 -89zM179 640c0 25 -19 43 -43 43s-45 -18 -45 -43c0 -24 17 -44 44 -44c24 0 44 17 44 44z" />
    <glyph glyph-name="tilde.sc" horiz-adv-x="271" 
d="M276 691v-50c0 -53 -18 -81 -62 -81c-31 0 -59 21 -84 40l-25 19c-13 10 -27 20 -33 20c-16 0 -16 -19 -16 -42v-32h-60v51c0 29 1 80 58 80c21 0 40 -5 76 -33l31 -24c15 -12 29 -21 37 -21c9 0 16 3 16 35v38h62z" />
    <glyph glyph-name="exclam.sc" horiz-adv-x="221" 
d="M156 168h-70c-2 29 -11 295 -12 351h93c-1 -57 -9 -321 -11 -351zM170 0h-100v97h100v-97z" />
    <glyph glyph-name="question.sc" horiz-adv-x="377" 
d="M186 165h-78v103c17 1 33 2 48 4c69 11 116 39 116 106c0 66 -24 94 -86 94s-84 -38 -84 -91v-23h-84v22c0 80 47 148 174 148c87 0 165 -33 165 -146c0 -86 -54 -148 -171 -162v-55zM198 0h-100v97h100v-97z" />
    <glyph glyph-name="exclamdown.sc" horiz-adv-x="221" 
d="M64 350h70c1 -19 11 -295 12 -350h-94c1 54 11 332 12 350zM149 422h-100v97h100v-97z" />
    <glyph glyph-name="questiondown.sc" horiz-adv-x="377" 
d="M191 354h78v-103c-17 -1 -33 -2 -48 -4c-69 -11 -116 -39 -116 -106c0 -66 24 -94 86 -94s84 38 84 91v23h84v-22c0 -80 -47 -148 -174 -148c-87 0 -165 33 -165 146c0 86 54 148 171 162v55zM179 519h100v-97h-100v97z" />
    <glyph glyph-name="onethird" unicode="&#x2153;" horiz-adv-x="792" 
d="M208 206h-65v366h-84v44c76 12 113 26 149 40v-450zM237 0h-55l301 648h52zM547 205v48h36c46 0 87 13 87 79c0 21 -2 72 -69 72c-69 0 -71 -59 -71 -79v-14h-65v6c0 110 79 130 146 130c98 0 126 -56 126 -107c0 -66 -36 -94 -72 -108c36 -9 84 -29 84 -107
c0 -129 -135 -131 -155 -131c-115 0 -138 68 -138 129h68v-12c2 -67 55 -72 76 -72c56 0 82 34 82 87c0 78 -68 79 -89 79h-46z" />
    <glyph glyph-name="twothirds" unicode="&#x2154;" horiz-adv-x="792" 
d="M291 0h-55l301 648h52zM583 205v48h36c46 0 87 13 87 79c0 21 -2 72 -69 72c-69 0 -71 -59 -71 -79v-14h-65v6c0 110 79 130 146 130c98 0 126 -56 126 -107c0 -66 -36 -94 -72 -108c36 -9 84 -29 84 -107c0 -129 -135 -131 -155 -131c-115 0 -138 68 -138 129h68v-12
c2 -67 55 -72 76 -72c56 0 82 34 82 87c0 78 -68 79 -89 79h-46zM297 206h-278v53c88 96 145 150 176 193c31 42 37 65 37 92c0 24 -11 64 -68 64c-73 0 -77 -63 -78 -84v-12h-64v14c0 60 33 127 148 127c65 0 130 -29 130 -109c0 -76 -42 -119 -136 -215l-67 -68h200v-55z
" />
    <glyph glyph-name="oneeighth" unicode="&#x215b;" horiz-adv-x="792" 
d="M216 206h-65v366h-84v44c76 12 113 26 149 40v-450zM256 0h-55l301 648h52zM688 237c40 -9 79 -38 79 -108c0 -82 -46 -135 -143 -135c-79 0 -141 38 -141 128c0 76 49 106 79 114c-39 9 -68 49 -68 95c0 82 65 116 134 116c70 0 128 -31 128 -111c0 -55 -31 -88 -68 -99
zM703 131c0 61 -37 82 -75 82s-78 -21 -78 -91c0 -49 22 -86 76 -86c64 0 77 47 77 95zM693 331c0 60 -33 75 -66 75c-39 0 -71 -19 -71 -77c0 -59 39 -73 69 -73c34 0 68 17 68 75z" />
    <glyph glyph-name="threeeighths" unicode="&#x215c;" horiz-adv-x="792" 
d="M278 0h-55l301 648h52zM695 237c40 -9 79 -38 79 -108c0 -82 -46 -135 -143 -135c-79 0 -141 38 -141 128c0 76 49 106 79 114c-39 9 -68 49 -68 95c0 82 65 116 134 116c70 0 128 -31 128 -111c0 -55 -31 -88 -68 -99zM710 131c0 61 -37 82 -75 82s-78 -21 -78 -91
c0 -49 22 -86 76 -86c64 0 77 47 77 95zM700 331c0 60 -33 75 -66 75c-39 0 -71 -19 -71 -77c0 -59 39 -73 69 -73c34 0 68 17 68 75zM108 411v48h36c46 0 87 13 87 79c0 21 -2 72 -69 72c-69 0 -71 -59 -71 -79v-14h-65v6c0 110 79 130 146 130c98 0 126 -56 126 -107
c0 -66 -36 -94 -72 -108c36 -9 84 -29 84 -107c0 -129 -135 -131 -155 -131c-115 0 -138 68 -138 129h68v-12c2 -67 55 -72 76 -72c56 0 82 34 82 87c0 78 -68 79 -89 79h-46z" />
    <glyph glyph-name="fiveeighths" unicode="&#x215d;" horiz-adv-x="792" 
d="M276 0h-55l301 648h52zM688 237c40 -9 79 -38 79 -108c0 -82 -46 -135 -143 -135c-79 0 -141 38 -141 128c0 76 49 106 79 114c-39 9 -68 49 -68 95c0 82 65 116 134 116c70 0 128 -31 128 -111c0 -55 -31 -88 -68 -99zM703 131c0 61 -37 82 -75 82s-78 -21 -78 -91
c0 -49 22 -86 76 -86c64 0 77 47 77 95zM693 331c0 60 -33 75 -66 75c-39 0 -71 -19 -71 -77c0 -59 39 -73 69 -73c34 0 68 17 68 75zM296 648v-56h-190c-2 -35 -3 -75 -4 -114c23 19 55 30 85 30c67 0 122 -38 122 -149c0 -119 -74 -159 -149 -159c-109 0 -136 71 -136 114
v14h66c0 -54 25 -83 71 -83c39 0 81 19 81 116c0 72 -26 99 -72 99c-37 0 -58 -16 -72 -54h-55c2 34 10 242 10 242h243z" />
    <glyph glyph-name="seveneighths" unicode="&#x215e;" horiz-adv-x="792" 
d="M220 0h-55l301 648h52zM676 237c40 -9 79 -38 79 -108c0 -82 -46 -135 -143 -135c-79 0 -141 38 -141 128c0 76 49 106 79 114c-39 9 -68 49 -68 95c0 82 65 116 134 116c70 0 128 -31 128 -111c0 -55 -31 -88 -68 -99zM691 131c0 61 -37 82 -75 82s-78 -21 -78 -91
c0 -49 22 -86 76 -86c64 0 77 47 77 95zM681 331c0 60 -33 75 -66 75c-39 0 -71 -19 -71 -77c0 -59 39 -73 69 -73c34 0 68 17 68 75zM312 648v-53c-57 -134 -118 -253 -188 -389h-73c64 125 135 248 193 387h-220v55h288z" />
    <glyph glyph-name="onefifth" horiz-adv-x="792" 
d="M212 206h-65v366h-84v44c76 12 113 26 149 40v-450zM241 0h-55l301 648h52zM752 442v-56h-190c-2 -35 -3 -75 -4 -114c23 19 55 30 85 30c67 0 122 -38 122 -149c0 -119 -74 -159 -149 -159c-109 0 -136 71 -136 114v14h66c0 -54 25 -83 71 -83c39 0 81 19 81 116
c0 72 -26 99 -72 99c-37 0 -58 -16 -72 -54h-55c2 34 10 242 10 242h243z" />
    <glyph glyph-name="twofifths" horiz-adv-x="792" 
d="M287 0h-55l301 648h52zM770 442v-56h-190c-2 -35 -3 -75 -4 -114c23 19 55 30 85 30c67 0 122 -38 122 -149c0 -119 -74 -159 -149 -159c-109 0 -136 71 -136 114v14h66c0 -54 25 -83 71 -83c39 0 81 19 81 116c0 72 -26 99 -72 99c-37 0 -58 -16 -72 -54h-55
c2 34 10 242 10 242h243zM298 206h-278v53c88 96 145 150 176 193c31 42 37 65 37 92c0 24 -11 64 -68 64c-73 0 -77 -63 -78 -84v-12h-64v14c0 60 33 127 148 127c65 0 130 -29 130 -109c0 -76 -42 -119 -136 -215l-67 -68h200v-55z" />
    <glyph glyph-name="threefifths" horiz-adv-x="792" 
d="M276 0h-55l301 648h52zM764 442v-56h-190c-2 -35 -3 -75 -4 -114c23 19 55 30 85 30c67 0 122 -38 122 -149c0 -119 -74 -159 -149 -159c-109 0 -136 71 -136 114v14h66c0 -54 25 -83 71 -83c39 0 81 19 81 116c0 72 -26 99 -72 99c-37 0 -58 -16 -72 -54h-55
c2 34 10 242 10 242h243zM112 411v48h36c46 0 87 13 87 79c0 21 -2 72 -69 72c-69 0 -71 -59 -71 -79v-14h-65v6c0 110 79 130 146 130c98 0 126 -56 126 -107c0 -66 -36 -94 -72 -108c36 -9 84 -29 84 -107c0 -129 -135 -131 -155 -131c-115 0 -138 68 -138 129h68v-12
c2 -67 55 -72 76 -72c56 0 82 34 82 87c0 78 -68 79 -89 79h-46z" />
    <glyph glyph-name="fourfifths" horiz-adv-x="792" 
d="M274 0h-55l301 648h52zM758 442v-56h-190c-2 -35 -3 -75 -4 -114c23 19 55 30 85 30c67 0 122 -38 122 -149c0 -119 -74 -159 -149 -159c-109 0 -136 71 -136 114v14h66c0 -54 25 -83 71 -83c39 0 81 19 81 116c0 72 -26 99 -72 99c-37 0 -58 -16 -72 -54h-55
c2 34 10 242 10 242h243zM310 305h-48v-99h-62v99h-186v33c52 113 86 194 132 310h68c-46 -109 -80 -184 -130 -290h116v188h62v-188h48v-53z" />
    <glyph glyph-name="zero.numerator" horiz-adv-x="333" 
d="M304 446v-30c0 -197 -75 -216 -142 -216c-66 0 -134 16 -134 214v30c0 179 68 209 145 209c73 0 131 -31 131 -207zM240 412v31c0 147 -29 167 -69 167c-47 0 -78 -22 -78 -166v-31c0 -161 40 -168 73 -168c44 0 74 28 74 167z" />
    <glyph glyph-name="one.numerator" horiz-adv-x="333" 
d="M216 206h-65v366h-84v44c76 12 113 26 149 40v-450z" />
    <glyph glyph-name="two.numerator" horiz-adv-x="333" 
d="M306 206h-278v53c88 96 145 150 176 193c31 42 37 65 37 92c0 24 -11 64 -68 64c-73 0 -77 -63 -78 -84v-12h-64v14c0 60 33 127 148 127c65 0 130 -29 130 -109c0 -76 -42 -119 -136 -215l-67 -68h200v-55z" />
    <glyph glyph-name="three.numerator" horiz-adv-x="333" 
d="M106 411v48h36c46 0 87 13 87 79c0 21 -2 72 -69 72c-69 0 -71 -59 -71 -79v-14h-65v6c0 110 79 130 146 130c98 0 126 -56 126 -107c0 -66 -36 -94 -72 -108c36 -9 84 -29 84 -107c0 -129 -135 -131 -155 -131c-115 0 -138 68 -138 129h68v-12c2 -67 55 -72 76 -72
c56 0 82 34 82 87c0 78 -68 79 -89 79h-46z" />
    <glyph glyph-name="four.numerator" horiz-adv-x="333" 
d="M314 305h-48v-99h-62v99h-186v33c52 113 86 194 132 310h68c-46 -109 -80 -184 -130 -290h116v188h62v-188h48v-53z" />
    <glyph glyph-name="five.numerator" horiz-adv-x="333" 
d="M296 648v-56h-190c-2 -35 -3 -75 -4 -114c23 19 55 30 85 30c67 0 122 -38 122 -149c0 -119 -74 -159 -149 -159c-109 0 -136 71 -136 114v14h66c0 -54 25 -83 71 -83c39 0 81 19 81 116c0 72 -26 99 -72 99c-37 0 -58 -16 -72 -54h-55c2 34 10 242 10 242h243z" />
    <glyph glyph-name="six.numerator" horiz-adv-x="333" 
d="M308 530h-63v4c0 34 -17 75 -70 75c-35 0 -58 -17 -71 -50c-8 -20 -13 -61 -14 -109c17 17 44 41 96 41c40 0 121 -15 121 -144c0 -81 -41 -147 -143 -147c-96 0 -140 61 -140 207c0 20 1 113 23 164c16 37 47 82 131 82c95 0 130 -52 130 -123zM243 348
c0 38 -10 96 -71 96c-36 0 -79 -18 -79 -100c0 -30 11 -101 74 -101c43 0 76 27 76 105z" />
    <glyph glyph-name="seven.numerator" horiz-adv-x="333" 
d="M310 648v-53c-57 -134 -118 -253 -188 -389h-73c64 125 135 248 193 387h-220v55h288z" />
    <glyph glyph-name="eight.numerator" horiz-adv-x="333" 
d="M229 443c40 -9 79 -38 79 -108c0 -82 -46 -135 -143 -135c-79 0 -141 38 -141 128c0 76 49 106 79 114c-39 9 -68 49 -68 95c0 82 65 116 134 116c70 0 128 -31 128 -111c0 -55 -31 -88 -68 -99zM244 337c0 61 -37 82 -75 82s-78 -21 -78 -91c0 -49 22 -86 76 -86
c64 0 77 47 77 95zM234 537c0 60 -33 75 -66 75c-39 0 -71 -19 -71 -77c0 -59 39 -73 69 -73c34 0 68 17 68 75z" />
    <glyph glyph-name="nine.numerator" horiz-adv-x="333" 
d="M24 322h64c0 -41 18 -77 69 -77c76 0 82 83 86 158c-19 -19 -46 -39 -97 -39c-95 0 -121 70 -121 143c0 101 58 146 143 146c94 0 141 -56 141 -198c0 -130 -18 -255 -155 -255c-90 0 -130 54 -130 115v7zM90 510c0 -90 43 -102 71 -102c45 0 79 28 79 100
c0 68 -28 103 -74 103c-63 0 -76 -56 -76 -101z" />
    <glyph glyph-name="period.numerator" horiz-adv-x="140" 
d="M107 206h-73v71h73v-71z" />
    <glyph glyph-name="comma.numerator" horiz-adv-x="140" 
d="M107 211l-36 -79h-45l38 74h-33v71h76v-66z" />
    <glyph glyph-name="hyphen.numerator" horiz-adv-x="268" 
d="M236 357h-204v50h204v-50z" />
    <glyph glyph-name="parenleft.numerator" horiz-adv-x="225" 
d="M227 687v-42h-9c-87 0 -110 -63 -118 -100c-8 -39 -8 -128 -8 -164c0 -151 18 -229 135 -229v-41h-7c-31 0 -85 0 -125 34c-55 47 -63 132 -63 251c0 42 2 126 13 169c26 98 94 122 168 122h14z" />
    <glyph glyph-name="parenright.numerator" horiz-adv-x="225" 
d="M-2 687h8c42 0 88 -3 124 -34c52 -45 63 -136 63 -251c0 -42 0 -127 -11 -169c-26 -97 -97 -122 -169 -122h-15v41h10c90 0 110 64 117 100c8 37 8 129 8 165c0 151 -19 228 -135 228v42z" />
    <glyph glyph-name="dollar.numerator" horiz-adv-x="309" 
d="M140 715h44v-63c15 0 57 -1 90 -14v-55c-30 16 -56 24 -94 24c-27 0 -86 -7 -86 -61c0 -37 32 -56 68 -73l35 -17c78 -38 100 -77 100 -128c0 -87 -71 -116 -113 -122v-77h-44v72h-12c-41 0 -88 8 -112 19v57c6 -4 50 -27 115 -27c54 0 99 19 99 70c0 39 -29 58 -69 78
l-34 17c-59 29 -99 63 -99 122c0 91 88 110 112 113v65z" />
    <glyph glyph-name="cent.numerator" horiz-adv-x="324" 
d="M160 618h43v-63c100 -8 108 -85 108 -126h-64c0 62 -31 84 -63 84c-66 0 -88 -58 -88 -134c0 -71 17 -137 83 -137c62 0 68 71 69 84h63c-4 -98 -73 -121 -108 -126v-75h-43v74c-87 9 -131 65 -131 178c0 116 51 166 131 178v63z" />
    <glyph glyph-name="sterling.numerator" horiz-adv-x="352" 
d="M284 368h-123c-14 -63 -32 -85 -64 -108h256v-54h-341v48c60 7 83 77 89 114h-70v50h76c17 100 32 156 85 201c21 17 54 34 99 34c27 0 52 -7 63 -10v-53c-18 8 -39 17 -67 17c-75 0 -98 -80 -116 -189h113v-50z" />
    <glyph glyph-name="yen.numerator" horiz-adv-x="400" 
d="M391 648l-101 -185h73v-46h-98l-28 -50h126v-45h-126v-116h-64v116h-135v45h135l-29 50h-106v46h80l-109 185h78l122 -223l115 223h67z" />
    <glyph glyph-name="Euro.numerator" horiz-adv-x="398" 
d="M336 504v-46h-185c-1 -10 -1 -17 -1 -25c0 -9 0 -15 1 -25h185v-45h-180c5 -75 47 -120 127 -120c38 0 70 12 99 37v-59c-33 -17 -76 -24 -110 -24c-115 0 -175 69 -184 166h-53v44h50c0 14 0 36 1 51h-51v46h55c17 102 77 151 188 151c42 0 81 -9 104 -23v-57
c-36 28 -66 36 -99 36c-77 0 -119 -37 -127 -107h180z" />
    <glyph glyph-name="florin.numerator" horiz-adv-x="296" 
d="M287 643l-7 -51c-14 10 -32 15 -45 15c-35 0 -39 -32 -42 -55l-5 -40h68v-50h-74l-28 -214c-10 -75 -17 -114 -43 -132c-16 -11 -36 -16 -60 -16c-13 0 -32 1 -51 5l4 48c15 -5 28 -7 41 -7c28 0 36 20 46 103l26 213h-55v50h60l7 47c7 47 20 94 95 94c29 0 46 -4 63 -10
z" />
    <glyph glyph-name="zero.denominator" horiz-adv-x="333" 
d="M304 240v-30c0 -197 -75 -216 -142 -216c-66 0 -134 16 -134 214v30c0 179 68 209 145 209c73 0 131 -31 131 -207zM240 206v31c0 147 -29 167 -69 167c-47 0 -78 -22 -78 -166v-31c0 -161 40 -168 73 -168c44 0 74 28 74 167z" />
    <glyph glyph-name="one.denominator" horiz-adv-x="333" 
d="M216 0h-65v366h-84v44c76 12 113 26 149 40v-450z" />
    <glyph glyph-name="two.denominator" horiz-adv-x="333" 
d="M306 0h-278v53c88 96 145 150 176 193c31 42 37 65 37 92c0 24 -11 64 -68 64c-73 0 -77 -63 -78 -84v-12h-64v14c0 60 33 127 148 127c65 0 130 -29 130 -109c0 -76 -42 -119 -136 -215l-67 -68h200v-55z" />
    <glyph glyph-name="three.denominator" horiz-adv-x="333" 
d="M106 205v48h36c46 0 87 13 87 79c0 21 -2 72 -69 72c-69 0 -71 -59 -71 -79v-14h-65v6c0 110 79 130 146 130c98 0 126 -56 126 -107c0 -66 -36 -94 -72 -108c36 -9 84 -29 84 -107c0 -129 -135 -131 -155 -131c-115 0 -138 68 -138 129h68v-12c2 -67 55 -72 76 -72
c56 0 82 34 82 87c0 78 -68 79 -89 79h-46z" />
    <glyph glyph-name="four.denominator" horiz-adv-x="333" 
d="M314 99h-48v-99h-62v99h-186v33c52 113 86 194 132 310h68c-46 -109 -80 -184 -130 -290h116v188h62v-188h48v-53z" />
    <glyph glyph-name="five.denominator" horiz-adv-x="333" 
d="M296 442v-56h-190c-2 -35 -3 -75 -4 -114c23 19 55 30 85 30c67 0 122 -38 122 -149c0 -119 -74 -159 -149 -159c-109 0 -136 71 -136 114v14h66c0 -54 25 -83 71 -83c39 0 81 19 81 116c0 72 -26 99 -72 99c-37 0 -58 -16 -72 -54h-55c2 34 10 242 10 242h243z" />
    <glyph glyph-name="six.denominator" horiz-adv-x="333" 
d="M308 324h-63v4c0 34 -17 75 -70 75c-35 0 -58 -17 -71 -50c-8 -20 -13 -61 -14 -109c17 17 44 41 96 41c40 0 121 -15 121 -144c0 -81 -41 -147 -143 -147c-96 0 -140 61 -140 207c0 20 1 113 23 164c16 37 47 82 131 82c95 0 130 -52 130 -123zM243 142
c0 38 -10 96 -71 96c-36 0 -79 -18 -79 -100c0 -30 11 -101 74 -101c43 0 76 27 76 105z" />
    <glyph glyph-name="seven.denominator" horiz-adv-x="333" 
d="M310 442v-53c-57 -134 -118 -253 -188 -389h-73c64 125 135 248 193 387h-220v55h288z" />
    <glyph glyph-name="eight.denominator" horiz-adv-x="333" 
d="M229 237c40 -9 79 -38 79 -108c0 -82 -46 -135 -143 -135c-79 0 -141 38 -141 128c0 76 49 106 79 114c-39 9 -68 49 -68 95c0 82 65 116 134 116c70 0 128 -31 128 -111c0 -55 -31 -88 -68 -99zM244 131c0 61 -37 82 -75 82s-78 -21 -78 -91c0 -49 22 -86 76 -86
c64 0 77 47 77 95zM234 331c0 60 -33 75 -66 75c-39 0 -71 -19 -71 -77c0 -59 39 -73 69 -73c34 0 68 17 68 75z" />
    <glyph glyph-name="nine.denominator" horiz-adv-x="333" 
d="M24 116h64c0 -41 18 -77 69 -77c76 0 82 83 86 158c-19 -19 -46 -39 -97 -39c-95 0 -121 70 -121 143c0 101 58 146 143 146c94 0 141 -56 141 -198c0 -130 -18 -255 -155 -255c-90 0 -130 54 -130 115v7zM90 304c0 -90 43 -102 71 -102c45 0 79 28 79 100
c0 68 -28 103 -74 103c-63 0 -76 -56 -76 -101z" />
    <glyph glyph-name="period.denominator" horiz-adv-x="140" 
d="M107 0h-73v71h73v-71z" />
    <glyph glyph-name="comma.denominator" horiz-adv-x="140" 
d="M107 5l-36 -79h-45l38 74h-33v71h76v-66z" />
    <glyph glyph-name="hyphen.denominator" horiz-adv-x="268" 
d="M236 151h-204v50h204v-50z" />
    <glyph glyph-name="parenleft.denominator" horiz-adv-x="225" 
d="M227 481v-42h-9c-87 0 -110 -63 -118 -100c-8 -39 -8 -128 -8 -164c0 -151 18 -229 135 -229v-41h-7c-31 0 -85 0 -125 34c-55 47 -63 132 -63 251c0 42 2 126 13 169c26 98 94 122 168 122h14z" />
    <glyph glyph-name="parenright.denominator" horiz-adv-x="225" 
d="M-2 481h8c42 0 88 -3 124 -34c52 -45 63 -136 63 -251c0 -42 0 -127 -11 -169c-26 -97 -97 -122 -169 -122h-15v41h10c90 0 110 64 117 100c8 37 8 129 8 165c0 151 -19 228 -135 228v42z" />
    <glyph glyph-name="dollar.denominator" horiz-adv-x="309" 
d="M140 509h44v-63c15 0 57 -1 90 -14v-55c-30 16 -56 24 -94 24c-27 0 -86 -7 -86 -61c0 -37 32 -56 68 -73l35 -17c78 -38 100 -77 100 -128c0 -87 -71 -116 -113 -122v-77h-44v72h-12c-41 0 -88 8 -112 19v57c6 -4 50 -27 115 -27c54 0 99 19 99 70c0 39 -29 58 -69 78
l-34 17c-59 29 -99 63 -99 122c0 91 88 110 112 113v65z" />
    <glyph glyph-name="cent.denominator" horiz-adv-x="324" 
d="M160 412h43v-63c100 -8 108 -85 108 -126h-64c0 62 -31 84 -63 84c-66 0 -88 -58 -88 -134c0 -71 17 -137 83 -137c62 0 68 71 69 84h63c-4 -98 -73 -121 -108 -126v-75h-43v74c-87 9 -131 65 -131 178c0 116 51 166 131 178v63z" />
    <glyph glyph-name="sterling.denominator" horiz-adv-x="352" 
d="M284 162h-123c-14 -63 -32 -85 -64 -108h256v-54h-341v48c60 7 83 77 89 114h-70v50h76c17 100 32 156 85 201c21 17 54 34 99 34c27 0 52 -7 63 -10v-53c-18 8 -39 17 -67 17c-75 0 -98 -80 -116 -189h113v-50z" />
    <glyph glyph-name="yen.denominator" horiz-adv-x="400" 
d="M391 442l-101 -185h73v-46h-98l-28 -50h126v-45h-126v-116h-64v116h-135v45h135l-29 50h-106v46h80l-109 185h78l122 -223l115 223h67z" />
    <glyph glyph-name="Euro.denominator" horiz-adv-x="398" 
d="M336 298v-46h-185c-1 -10 -1 -17 -1 -25c0 -9 0 -15 1 -25h185v-45h-180c5 -75 47 -120 127 -120c38 0 70 12 99 37v-59c-33 -17 -76 -24 -110 -24c-115 0 -175 69 -184 166h-53v44h50c0 14 0 36 1 51h-51v46h55c17 102 77 151 188 151c42 0 81 -9 104 -23v-57
c-36 28 -66 36 -99 36c-77 0 -119 -37 -127 -107h180z" />
    <glyph glyph-name="florin.denominator" horiz-adv-x="296" 
d="M287 437l-7 -51c-14 10 -32 15 -45 15c-35 0 -39 -32 -42 -55l-5 -40h68v-50h-74l-28 -214c-10 -75 -17 -114 -43 -132c-16 -11 -36 -16 -60 -16c-13 0 -32 1 -51 5l4 48c15 -5 28 -7 41 -7c28 0 36 20 46 103l26 213h-55v50h60l7 47c7 47 20 94 95 94c29 0 46 -4 63 -10
z" />
    <glyph glyph-name="zero.superior" unicode="&#x2070;" horiz-adv-x="333" 
d="M304 681v-30c0 -197 -75 -216 -142 -216c-66 0 -134 16 -134 214v30c0 179 68 209 145 209c73 0 131 -31 131 -207zM240 647v31c0 147 -29 167 -69 167c-47 0 -78 -22 -78 -166v-31c0 -161 40 -168 73 -168c44 0 74 28 74 167z" />
    <glyph glyph-name="one.superior" horiz-adv-x="333" 
d="M216 441h-65v366h-84v44c76 12 113 26 149 40v-450z" />
    <glyph glyph-name="two.superior" horiz-adv-x="333" 
d="M306 441h-278v53c88 96 145 150 176 193c31 42 37 65 37 92c0 24 -11 64 -68 64c-73 0 -77 -63 -78 -84v-12h-64v14c0 60 33 127 148 127c65 0 130 -29 130 -109c0 -76 -42 -119 -136 -215l-67 -68h200v-55z" />
    <glyph glyph-name="three.superior" horiz-adv-x="333" 
d="M106 646v48h36c46 0 87 13 87 79c0 21 -2 72 -69 72c-69 0 -71 -59 -71 -79v-14h-65v6c0 110 79 130 146 130c98 0 126 -56 126 -107c0 -66 -36 -94 -72 -108c36 -9 84 -29 84 -107c0 -129 -135 -131 -155 -131c-115 0 -138 68 -138 129h68v-12c2 -67 55 -72 76 -72
c56 0 82 34 82 87c0 78 -68 79 -89 79h-46z" />
    <glyph glyph-name="four.superior" unicode="&#x2074;" horiz-adv-x="333" 
d="M314 540h-48v-99h-62v99h-186v33c52 113 86 194 132 310h68c-46 -109 -80 -184 -130 -290h116v188h62v-188h48v-53z" />
    <glyph glyph-name="five.superior" unicode="&#x2075;" horiz-adv-x="333" 
d="M296 883v-56h-190c-2 -35 -3 -75 -4 -114c23 19 55 30 85 30c67 0 122 -38 122 -149c0 -119 -74 -159 -149 -159c-109 0 -136 71 -136 114v14h66c0 -54 25 -83 71 -83c39 0 81 19 81 116c0 72 -26 99 -72 99c-37 0 -58 -16 -72 -54h-55c2 34 10 242 10 242h243z" />
    <glyph glyph-name="six.superior" unicode="&#x2076;" horiz-adv-x="333" 
d="M308 765h-63v4c0 34 -17 75 -70 75c-35 0 -58 -17 -71 -50c-8 -20 -13 -61 -14 -109c17 17 44 41 96 41c40 0 121 -15 121 -144c0 -81 -41 -147 -143 -147c-96 0 -140 61 -140 207c0 20 1 113 23 164c16 37 47 82 131 82c95 0 130 -52 130 -123zM243 583
c0 38 -10 96 -71 96c-36 0 -79 -18 -79 -100c0 -30 11 -101 74 -101c43 0 76 27 76 105z" />
    <glyph glyph-name="seven.superior" unicode="&#x2077;" horiz-adv-x="333" 
d="M310 883v-53c-57 -134 -118 -253 -188 -389h-73c64 125 135 248 193 387h-220v55h288z" />
    <glyph glyph-name="eight.superior" unicode="&#x2078;" horiz-adv-x="333" 
d="M229 678c40 -9 79 -38 79 -108c0 -82 -46 -135 -143 -135c-79 0 -141 38 -141 128c0 76 49 106 79 114c-39 9 -68 49 -68 95c0 82 65 116 134 116c70 0 128 -31 128 -111c0 -55 -31 -88 -68 -99zM244 572c0 61 -37 82 -75 82s-78 -21 -78 -91c0 -49 22 -86 76 -86
c64 0 77 47 77 95zM234 772c0 60 -33 75 -66 75c-39 0 -71 -19 -71 -77c0 -59 39 -73 69 -73c34 0 68 17 68 75z" />
    <glyph glyph-name="nine.superior" unicode="&#x2079;" horiz-adv-x="333" 
d="M24 557h64c0 -41 18 -77 69 -77c76 0 82 83 86 158c-19 -19 -46 -39 -97 -39c-95 0 -121 70 -121 143c0 101 58 146 143 146c94 0 141 -56 141 -198c0 -130 -18 -255 -155 -255c-90 0 -130 54 -130 115v7zM90 745c0 -90 43 -102 71 -102c45 0 79 28 79 100
c0 68 -28 103 -74 103c-63 0 -76 -56 -76 -101z" />
    <glyph glyph-name="period.superior" horiz-adv-x="140" 
d="M107 441h-73v71h73v-71z" />
    <glyph glyph-name="comma.superior" horiz-adv-x="140" 
d="M107 446l-36 -79h-45l38 74h-33v71h76v-66z" />
    <glyph glyph-name="hyphen.superior" horiz-adv-x="268" 
d="M236 592h-204v50h204v-50z" />
    <glyph glyph-name="parenleft.superior" unicode="&#x207d;" horiz-adv-x="225" 
d="M227 922v-42h-9c-87 0 -110 -63 -118 -100c-8 -39 -8 -128 -8 -164c0 -151 18 -229 135 -229v-41h-7c-31 0 -85 0 -125 34c-55 47 -63 132 -63 251c0 42 2 126 13 169c26 98 94 122 168 122h14z" />
    <glyph glyph-name="parenright.superior" unicode="&#x207e;" horiz-adv-x="225" 
d="M-2 922h8c42 0 88 -3 124 -34c52 -45 63 -136 63 -251c0 -42 0 -127 -11 -169c-26 -97 -97 -122 -169 -122h-15v41h10c90 0 110 64 117 100c8 37 8 129 8 165c0 151 -19 228 -135 228v42z" />
    <glyph glyph-name="dollar.superior" horiz-adv-x="309" 
d="M140 950h44v-63c15 0 57 -1 90 -14v-55c-30 16 -56 24 -94 24c-27 0 -86 -7 -86 -61c0 -37 32 -56 68 -73l35 -17c78 -38 100 -77 100 -128c0 -87 -71 -116 -113 -122v-77h-44v72h-12c-41 0 -88 8 -112 19v57c6 -4 50 -27 115 -27c54 0 99 19 99 70c0 39 -29 58 -69 78
l-34 17c-59 29 -99 63 -99 122c0 91 88 110 112 113v65z" />
    <glyph glyph-name="cent.superior" horiz-adv-x="324" 
d="M160 853h43v-63c100 -8 108 -85 108 -126h-64c0 62 -31 84 -63 84c-66 0 -88 -58 -88 -134c0 -71 17 -137 83 -137c62 0 68 71 69 84h63c-4 -98 -73 -121 -108 -126v-75h-43v74c-87 9 -131 65 -131 178c0 116 51 166 131 178v63z" />
    <glyph glyph-name="sterling.superior" horiz-adv-x="352" 
d="M284 603h-123c-14 -63 -32 -85 -64 -108h256v-54h-341v48c60 7 83 77 89 114h-70v50h76c17 100 32 156 85 201c21 17 54 34 99 34c27 0 52 -7 63 -10v-53c-18 8 -39 17 -67 17c-75 0 -98 -80 -116 -189h113v-50z" />
    <glyph glyph-name="yen.superior" horiz-adv-x="400" 
d="M391 883l-101 -185h73v-46h-98l-28 -50h126v-45h-126v-116h-64v116h-135v45h135l-29 50h-106v46h80l-109 185h78l122 -223l115 223h67z" />
    <glyph glyph-name="Euro.superior" horiz-adv-x="398" 
d="M336 739v-46h-185c-1 -10 -1 -17 -1 -25c0 -9 0 -15 1 -25h185v-45h-180c5 -75 47 -120 127 -120c38 0 70 12 99 37v-59c-33 -17 -76 -24 -110 -24c-115 0 -175 69 -184 166h-53v44h50c0 14 0 36 1 51h-51v46h55c17 102 77 151 188 151c42 0 81 -9 104 -23v-57
c-36 28 -66 36 -99 36c-77 0 -119 -37 -127 -107h180z" />
    <glyph glyph-name="florin.superior" horiz-adv-x="296" 
d="M287 878l-7 -51c-14 10 -32 15 -45 15c-35 0 -39 -32 -42 -55l-5 -40h68v-50h-74l-28 -214c-10 -75 -17 -114 -43 -132c-16 -11 -36 -16 -60 -16c-13 0 -32 1 -51 5l4 48c15 -5 28 -7 41 -7c28 0 36 20 46 103l26 213h-55v50h60l7 47c7 47 20 94 95 94c29 0 46 -4 63 -10
z" />
    <glyph glyph-name="zero.inferior" unicode="&#x2080;" horiz-adv-x="333" 
d="M304 64v-30c0 -197 -75 -216 -142 -216c-66 0 -134 16 -134 214v30c0 179 68 209 145 209c73 0 131 -31 131 -207zM240 30v31c0 147 -29 167 -69 167c-47 0 -78 -22 -78 -166v-31c0 -161 40 -168 73 -168c44 0 74 28 74 167z" />
    <glyph glyph-name="one.inferior" unicode="&#x2081;" horiz-adv-x="333" 
d="M216 -176h-65v366h-84v44c76 12 113 26 149 40v-450z" />
    <glyph glyph-name="two.inferior" unicode="&#x2082;" horiz-adv-x="333" 
d="M306 -176h-278v53c88 96 145 150 176 193c31 42 37 65 37 92c0 24 -11 64 -68 64c-73 0 -77 -63 -78 -84v-12h-64v14c0 60 33 127 148 127c65 0 130 -29 130 -109c0 -76 -42 -119 -136 -215l-67 -68h200v-55z" />
    <glyph glyph-name="three.inferior" unicode="&#x2083;" horiz-adv-x="333" 
d="M106 29v48h36c46 0 87 13 87 79c0 21 -2 72 -69 72c-69 0 -71 -59 -71 -79v-14h-65v6c0 110 79 130 146 130c98 0 126 -56 126 -107c0 -66 -36 -94 -72 -108c36 -9 84 -29 84 -107c0 -129 -135 -131 -155 -131c-115 0 -138 68 -138 129h68v-12c2 -67 55 -72 76 -72
c56 0 82 34 82 87c0 78 -68 79 -89 79h-46z" />
    <glyph glyph-name="four.inferior" unicode="&#x2084;" horiz-adv-x="333" 
d="M314 -77h-48v-99h-62v99h-186v33c52 113 86 194 132 310h68c-46 -109 -80 -184 -130 -290h116v188h62v-188h48v-53z" />
    <glyph glyph-name="five.inferior" unicode="&#x2085;" horiz-adv-x="333" 
d="M296 266v-56h-190c-2 -35 -3 -75 -4 -114c23 19 55 30 85 30c67 0 122 -38 122 -149c0 -119 -74 -159 -149 -159c-109 0 -136 71 -136 114v14h66c0 -54 25 -83 71 -83c39 0 81 19 81 116c0 72 -26 99 -72 99c-37 0 -58 -16 -72 -54h-55c2 34 10 242 10 242h243z" />
    <glyph glyph-name="six.inferior" unicode="&#x2086;" horiz-adv-x="333" 
d="M308 148h-63v4c0 34 -17 75 -70 75c-35 0 -58 -17 -71 -50c-8 -20 -13 -61 -14 -109c17 17 44 41 96 41c40 0 121 -15 121 -144c0 -81 -41 -147 -143 -147c-96 0 -140 61 -140 207c0 20 1 113 23 164c16 37 47 82 131 82c95 0 130 -52 130 -123zM243 -34
c0 38 -10 96 -71 96c-36 0 -79 -18 -79 -100c0 -30 11 -101 74 -101c43 0 76 27 76 105z" />
    <glyph glyph-name="seven.inferior" unicode="&#x2087;" horiz-adv-x="333" 
d="M310 266v-53c-57 -134 -118 -253 -188 -389h-73c64 125 135 248 193 387h-220v55h288z" />
    <glyph glyph-name="eight.inferior" unicode="&#x2088;" horiz-adv-x="333" 
d="M229 61c40 -9 79 -38 79 -108c0 -82 -46 -135 -143 -135c-79 0 -141 38 -141 128c0 76 49 106 79 114c-39 9 -68 49 -68 95c0 82 65 116 134 116c70 0 128 -31 128 -111c0 -55 -31 -88 -68 -99zM244 -45c0 61 -37 82 -75 82s-78 -21 -78 -91c0 -49 22 -86 76 -86
c64 0 77 47 77 95zM234 155c0 60 -33 75 -66 75c-39 0 -71 -19 -71 -77c0 -59 39 -73 69 -73c34 0 68 17 68 75z" />
    <glyph glyph-name="nine.inferior" unicode="&#x2089;" horiz-adv-x="333" 
d="M24 -60h64c0 -41 18 -77 69 -77c76 0 82 83 86 158c-19 -19 -46 -39 -97 -39c-95 0 -121 70 -121 143c0 101 58 146 143 146c94 0 141 -56 141 -198c0 -130 -18 -255 -155 -255c-90 0 -130 54 -130 115v7zM90 128c0 -90 43 -102 71 -102c45 0 79 28 79 100
c0 68 -28 103 -74 103c-63 0 -76 -56 -76 -101z" />
    <glyph glyph-name="period.inferior" horiz-adv-x="140" 
d="M107 -176h-73v71h73v-71z" />
    <glyph glyph-name="comma.inferior" horiz-adv-x="140" 
d="M107 -171l-36 -79h-45l38 74h-33v71h76v-66z" />
    <glyph glyph-name="hyphen.inferior" horiz-adv-x="268" 
d="M236 -25h-204v50h204v-50z" />
    <glyph glyph-name="parenleft.inferior" unicode="&#x208d;" horiz-adv-x="225" 
d="M227 305v-42h-9c-87 0 -110 -63 -118 -100c-8 -39 -8 -128 -8 -164c0 -151 18 -229 135 -229v-41h-7c-31 0 -85 0 -125 34c-55 47 -63 132 -63 251c0 42 2 126 13 169c26 98 94 122 168 122h14z" />
    <glyph glyph-name="parenright.inferior" unicode="&#x208e;" horiz-adv-x="225" 
d="M-2 305h8c42 0 88 -3 124 -34c52 -45 63 -136 63 -251c0 -42 0 -127 -11 -169c-26 -97 -97 -122 -169 -122h-15v41h10c90 0 110 64 117 100c8 37 8 129 8 165c0 151 -19 228 -135 228v42z" />
    <glyph glyph-name="dollar.inferior" horiz-adv-x="309" 
d="M140 333h44v-63c15 0 57 -1 90 -14v-55c-30 16 -56 24 -94 24c-27 0 -86 -7 -86 -61c0 -37 32 -56 68 -73l35 -17c78 -38 100 -77 100 -128c0 -87 -71 -116 -113 -122v-77h-44v72h-12c-41 0 -88 8 -112 19v57c6 -4 50 -27 115 -27c54 0 99 19 99 70c0 39 -29 58 -69 78
l-34 17c-59 29 -99 63 -99 122c0 91 88 110 112 113v65z" />
    <glyph glyph-name="cent.inferior" horiz-adv-x="324" 
d="M160 236h43v-63c100 -8 108 -85 108 -126h-64c0 62 -31 84 -63 84c-66 0 -88 -58 -88 -134c0 -71 17 -137 83 -137c62 0 68 71 69 84h63c-4 -98 -73 -121 -108 -126v-75h-43v74c-87 9 -131 65 -131 178c0 116 51 166 131 178v63z" />
    <glyph glyph-name="sterling.inferior" horiz-adv-x="352" 
d="M284 -14h-123c-14 -63 -32 -85 -64 -108h256v-54h-341v48c60 7 83 77 89 114h-70v50h76c17 100 32 156 85 201c21 17 54 34 99 34c27 0 52 -7 63 -10v-53c-18 8 -39 17 -67 17c-75 0 -98 -80 -116 -189h113v-50z" />
    <glyph glyph-name="yen.inferior" horiz-adv-x="400" 
d="M391 266l-101 -185h73v-46h-98l-28 -50h126v-45h-126v-116h-64v116h-135v45h135l-29 50h-106v46h80l-109 185h78l122 -223l115 223h67z" />
    <glyph glyph-name="Euro.inferior" horiz-adv-x="398" 
d="M336 122v-46h-185c-1 -10 -1 -17 -1 -25c0 -9 0 -15 1 -25h185v-45h-180c5 -75 47 -120 127 -120c38 0 70 12 99 37v-59c-33 -17 -76 -24 -110 -24c-115 0 -175 69 -184 166h-53v44h50c0 14 0 36 1 51h-51v46h55c17 102 77 151 188 151c42 0 81 -9 104 -23v-57
c-36 28 -66 36 -99 36c-77 0 -119 -37 -127 -107h180z" />
    <glyph glyph-name="florin.inferior" horiz-adv-x="296" 
d="M287 261l-7 -51c-14 10 -32 15 -45 15c-35 0 -39 -32 -42 -55l-5 -40h68v-50h-74l-28 -214c-10 -75 -17 -114 -43 -132c-16 -11 -36 -16 -60 -16c-13 0 -32 1 -51 5l4 48c15 -5 28 -7 41 -7c28 0 36 20 46 103l26 213h-55v50h60l7 47c7 47 20 94 95 94c29 0 46 -4 63 -10
z" />
    <glyph glyph-name="Eth.sc" horiz-adv-x="571" 
d="M66 301v218h176c96 0 139 -6 180 -26c70 -35 107 -113 107 -228c0 -158 -70 -243 -192 -260c-29 -4 -52 -5 -123 -5h-148v246h-66v55h66zM150 246v-189h68c83 0 117 7 151 28c49 31 72 87 72 176c0 69 -18 129 -47 158c-30 31 -73 43 -154 43h-90v-161h173v-55h-173z" />
    <glyph glyph-name="Lslash.sc" horiz-adv-x="427" 
d="M151 61h262v-61h-347v168l-66 -44v61l66 46v288h85v-234l170 113v-61l-170 -111v-165z" />
    <glyph glyph-name="Scaron.sc" horiz-adv-x="447" 
d="M405 382h-76c-3 61 -38 93 -106 93c-65 0 -102 -28 -102 -76c0 -36 24 -61 79 -80l62 -21c114 -39 154 -78 154 -153c0 -96 -78 -154 -206 -154c-132 0 -196 53 -197 162h83v-8c0 -63 45 -100 120 -100c71 0 117 33 117 86c0 41 -25 64 -96 89l-64 23
c-98 35 -136 72 -136 142c0 90 71 142 192 142c115 0 176 -46 176 -133v-12zM342 695l-73 -136h-87l-77 136h67l54 -97l51 97h65z" />
    <glyph glyph-name="Yacute.sc" horiz-adv-x="493" 
d="M296 189v-189h-85v189l-214 330h101l160 -253l149 253h91zM415 695l-144 -136h-75l113 136h106z" />
    <glyph glyph-name="Thorn.sc" horiz-adv-x="461" 
d="M151 103v-103h-85v519h85v-88h134c73 0 168 -26 168 -156c0 -50 -15 -94 -42 -122c-36 -38 -79 -50 -179 -50h-81zM151 158h91c99 0 123 48 123 110c0 28 -7 53 -20 73c-18 28 -43 35 -117 35h-77v-218z" />
    <glyph glyph-name="Zcaron.sc" horiz-adv-x="479" 
d="M456 60v-60h-440v54l331 405h-293v60h399v-59l-328 -400h331zM356 695l-73 -136h-87l-77 136h67l54 -97l51 97h65z" />
    <glyph glyph-name="A.sc" horiz-adv-x="529" 
d="M525 0h-91l-71 189h-197l-79 -189h-88l226 519h102zM345 246l-73 202l-87 -202h160z" />
    <glyph glyph-name="B.sc" horiz-adv-x="489" 
d="M345 281c79 -14 122 -61 122 -134c0 -49 -21 -89 -60 -115c-37 -25 -81 -32 -198 -32h-143v519h155c86 0 115 -4 147 -21c38 -19 61 -58 61 -102c0 -51 -34 -97 -84 -115zM149 245v-192h79c108 0 153 24 153 95c0 38 -20 69 -53 84c-23 11 -44 13 -119 13h-60zM149 297
h54c102 0 143 21 143 88c0 31 -14 57 -37 69c-19 10 -41 12 -105 12h-55v-169z" />
    <glyph glyph-name="C.sc" horiz-adv-x="519" 
d="M488 353h-84c0 79 -48 122 -126 122c-95 0 -148 -48 -148 -236c0 -150 50 -195 142 -195c80 0 135 42 141 125h83c-7 -119 -84 -178 -231 -178c-153 0 -223 64 -223 249c0 203 71 289 239 289c144 0 207 -60 207 -176z" />
    <glyph glyph-name="D.sc" horiz-adv-x="571" 
d="M66 0v519h176c96 0 137 -6 178 -26c71 -35 109 -115 109 -229c0 -93 -23 -160 -71 -204c-57 -51 -103 -60 -244 -60h-148zM150 57h68c83 0 117 6 151 28c49 31 72 87 72 176c0 69 -17 127 -47 158c-30 32 -74 43 -154 43h-90v-405z" />
    <glyph glyph-name="E.sc" horiz-adv-x="436" 
d="M416 61v-61h-350v519h328v-61h-243v-158h223v-60h-223v-179h265z" />
    <glyph glyph-name="F.sc" horiz-adv-x="400" 
d="M151 224v-224h-85v519h327v-61h-242v-173h226v-61h-226z" />
    <glyph glyph-name="G.sc" horiz-adv-x="544" 
d="M491 267v-267h-78v44c-43 -37 -92 -53 -161 -53c-143 0 -216 68 -216 257c0 195 76 281 249 281c140 0 205 -58 208 -171h-85c-6 81 -46 118 -131 118c-106 0 -153 -69 -153 -224c0 -137 38 -206 148 -206c52 0 102 20 126 52c12 16 16 36 16 79v34h-128v56h205z" />
    <glyph glyph-name="H.sc" horiz-adv-x="563" 
d="M496 0h-84v245h-261v-245h-85v519h85v-214h261v214h84v-519z" />
    <glyph glyph-name="I.sc" horiz-adv-x="217" 
d="M151 0h-85v519h85v-519z" />
    <glyph glyph-name="J.sc" horiz-adv-x="340" 
d="M195 519h85v-336c0 -60 -5 -93 -17 -118c-23 -47 -74 -73 -144 -73c-44 0 -74 6 -118 24v66c42 -21 69 -29 104 -29c59 0 90 21 90 123v343z" />
    <glyph glyph-name="K.sc" horiz-adv-x="499" 
d="M485 519l-208 -209l228 -310h-102l-186 249l-70 -67v-182h-81v519h81v-248l244 248h94z" />
    <glyph glyph-name="L.sc" horiz-adv-x="427" 
d="M413 61v-61h-347v519h85v-458h262z" />
    <glyph glyph-name="M.sc" horiz-adv-x="728" 
d="M521 519h138s5 -401 7 -519h-83c-2 160 -5 319 -5 479c-9 -23 -16 -46 -188 -479h-66c-171 439 -178 459 -186 478c-1 -92 -7 -478 -7 -478h-76s11 446 13 519h135c136 -359 148 -391 157 -422c10 31 21 62 161 422z" />
    <glyph glyph-name="N.sc" horiz-adv-x="593" 
d="M527 519v-519h-103c-246 366 -266 395 -282 425c0 -41 2 -67 2 -425h-78v519h101c237 -353 263 -394 285 -431c-2 33 -2 66 -2 431h77z" />
    <glyph glyph-name="O.sc" horiz-adv-x="566" 
d="M524 269c0 -194 -75 -279 -246 -279c-163 0 -236 82 -236 265s82 274 247 274c164 0 235 -78 235 -260zM435 268c0 105 -19 207 -146 207c-109 0 -158 -68 -158 -222c0 -142 48 -210 149 -210c109 0 155 67 155 225z" />
    <glyph glyph-name="P.sc" horiz-adv-x="461" 
d="M151 191v-191h-85v519h216c123 0 171 -68 171 -156c0 -50 -15 -94 -42 -123c-35 -36 -80 -49 -179 -49h-81zM151 246h97c86 0 117 41 117 109c0 28 -7 54 -20 74c-18 27 -40 35 -117 35h-77v-218z" />
    <glyph glyph-name="Q.sc" horiz-adv-x="564" 
d="M580 -92h-84c-7 61 -42 99 -96 105c-35 -12 -66 -23 -123 -23c-162 0 -235 83 -235 265s82 274 246 274c165 0 236 -79 236 -262c0 -98 -18 -160 -60 -210c70 -14 114 -70 116 -149zM131 253c0 -142 48 -210 149 -210c109 0 155 67 155 225c0 146 -46 207 -146 207
c-109 0 -158 -68 -158 -222z" />
    <glyph glyph-name="R.sc" horiz-adv-x="510" 
d="M150 276h71c57 0 78 2 102 10c33 12 53 44 53 87c0 34 -16 70 -50 82c-23 8 -36 10 -97 10h-79v-189zM66 519h201c38 0 78 -1 113 -12c54 -17 84 -66 84 -122c0 -68 -40 -121 -108 -134c115 -30 83 -178 148 -251h-93c-22 14 -32 61 -37 84c-25 107 -34 139 -152 139h-72
v-223h-84v519z" />
    <glyph glyph-name="S.sc" horiz-adv-x="447" 
d="M405 382h-76c-3 61 -38 93 -106 93c-65 0 -102 -28 -102 -76c0 -36 24 -61 79 -80l62 -21c114 -39 154 -78 154 -153c0 -96 -78 -154 -206 -154c-132 0 -196 53 -197 162h83v-8c0 -63 45 -100 120 -100c71 0 117 33 117 86c0 41 -25 64 -96 89l-64 23
c-98 35 -136 72 -136 142c0 90 71 142 192 142c115 0 176 -46 176 -133v-12z" />
    <glyph glyph-name="T.sc" horiz-adv-x="415" 
d="M251 458v-458h-85v458h-163v61h410v-61h-162z" />
    <glyph glyph-name="U.sc" horiz-adv-x="557" 
d="M413 519h84v-333c0 -115 -55 -195 -224 -195c-160 0 -213 71 -213 188v340h84v-332c0 -106 54 -140 134 -140c75 0 135 31 135 149v323z" />
    <glyph glyph-name="V.sc" horiz-adv-x="475" 
d="M480 519l-193 -519h-100l-193 519h93c133 -370 145 -402 154 -434c8 33 20 65 152 434h87z" />
    <glyph glyph-name="W.sc" horiz-adv-x="719" 
d="M574 0h-118c-34 134 -70 266 -99 401c-9 -41 -20 -81 -113 -401h-119l-122 519h90c34 -153 71 -306 102 -460c38 154 83 307 125 460h82c37 -153 75 -306 111 -459c7 30 14 60 119 459h83z" />
    <glyph glyph-name="X.sc" horiz-adv-x="522" 
d="M313 285l204 -285h-105l-154 217l-156 -217h-98l206 275l-170 244h103l124 -179l129 179h94z" />
    <glyph glyph-name="Y.sc" horiz-adv-x="493" 
d="M296 189v-189h-85v189l-214 330h101l160 -253l149 253h91z" />
    <glyph glyph-name="Z.sc" horiz-adv-x="479" 
d="M456 60v-60h-440v54l331 405h-293v60h399v-59l-328 -400h331z" />
    <glyph glyph-name="Aacute.sc" horiz-adv-x="529" 
d="M525 0h-91l-71 189h-197l-79 -189h-88l226 519h102zM345 246l-73 202l-87 -202h160zM429 695l-144 -136h-75l113 136h106z" />
    <glyph glyph-name="Agrave.sc" horiz-adv-x="529" 
d="M525 0h-91l-71 189h-197l-79 -189h-88l226 519h102zM345 246l-73 202l-87 -202h160zM324 559h-73l-104 136h99z" />
    <glyph glyph-name="Acircumflex.sc" horiz-adv-x="529" 
d="M525 0h-91l-71 189h-197l-79 -189h-88l226 519h102zM345 246l-73 202l-87 -202h160zM391 559h-66l-54 97l-51 -97h-64l73 136h86z" />
    <glyph glyph-name="Adieresis.sc" horiz-adv-x="529" 
d="M525 0h-91l-71 189h-197l-79 -189h-88l226 519h102zM345 246l-73 202l-87 -202h160zM402 577h-89v92h89v-92zM238 577h-89v92h89v-92z" />
    <glyph glyph-name="Atilde.sc" horiz-adv-x="529" 
d="M525 0h-91l-71 189h-197l-79 -189h-88l226 519h102zM345 246l-73 202l-87 -202h160zM406 691v-50c0 -53 -18 -81 -62 -81c-31 0 -59 21 -84 40l-25 19c-13 10 -27 20 -33 20c-16 0 -16 -19 -16 -42v-32h-60v51c0 29 1 80 58 80c21 0 40 -5 76 -33l31 -24
c15 -12 29 -21 37 -21c9 0 16 3 16 35v38h62z" />
    <glyph glyph-name="Aring.sc" horiz-adv-x="529" 
d="M525 0h-91l-71 189h-197l-79 -189h-88l226 519h102zM345 246l-73 202l-87 -202h160zM362 641c0 -56 -44 -91 -92 -91c-52 0 -90 42 -90 90c0 53 44 90 93 90c46 0 89 -36 89 -89zM315 640c0 25 -19 43 -43 43s-45 -18 -45 -43c0 -24 17 -44 44 -44c24 0 44 17 44 44z" />
    <glyph glyph-name="Ccedilla.sc" horiz-adv-x="519" 
d="M413 169h83c-7 -118 -81 -176 -227 -178l-2 -35c8 1 12 1 17 1c56 0 93 -36 93 -91c0 -66 -43 -99 -126 -99c-8 0 -21 0 -44 2v51c16 -2 25 -2 34 -2c49 0 72 14 72 45c0 32 -24 47 -74 47c-6 0 -11 0 -21 -1l6 83l-7 1c-125 18 -175 88 -175 247c0 203 71 289 239 289
c144 0 207 -60 207 -176h-84v4c0 73 -48 118 -126 118c-95 0 -148 -48 -148 -236c0 -150 50 -195 142 -195c80 0 131 38 141 125z" />
    <glyph glyph-name="Eacute.sc" horiz-adv-x="436" 
d="M416 61v-61h-350v519h328v-61h-243v-158h223v-60h-223v-179h265zM386 695l-144 -136h-75l113 136h106z" />
    <glyph glyph-name="Egrave.sc" horiz-adv-x="436" 
d="M416 61v-61h-350v519h328v-61h-243v-158h223v-60h-223v-179h265zM287 559h-73l-104 136h99z" />
    <glyph glyph-name="Ecircumflex.sc" horiz-adv-x="436" 
d="M416 61v-61h-350v519h328v-61h-243v-158h223v-60h-223v-179h265zM357 559h-66l-54 97l-51 -97h-64l73 136h86z" />
    <glyph glyph-name="Edieresis.sc" horiz-adv-x="436" 
d="M416 61v-61h-350v519h328v-61h-243v-158h223v-60h-223v-179h265zM368 577h-89v92h89v-92zM204 577h-89v92h89v-92z" />
    <glyph glyph-name="Iacute.sc" horiz-adv-x="217" 
d="M151 0h-85v519h85v-519zM269 695l-144 -136h-75l113 136h106z" />
    <glyph glyph-name="Igrave.sc" horiz-adv-x="217" 
d="M151 0h-85v519h85v-519zM159 559h-73l-104 136h99z" />
    <glyph glyph-name="Icircumflex.sc" horiz-adv-x="217" 
d="M151 0h-85v519h85v-519zM227 559h-66l-54 97l-51 -97h-64l73 136h86z" />
    <glyph glyph-name="Idieresis.sc" horiz-adv-x="217" 
d="M151 0h-85v519h85v-519zM236 577h-89v92h89v-92zM72 577h-89v92h89v-92z" />
    <glyph glyph-name="Ntilde.sc" horiz-adv-x="593" 
d="M527 519v-519h-103c-246 366 -266 395 -282 425c0 -41 2 -67 2 -425h-78v519h101c237 -353 263 -394 285 -431c-2 33 -2 66 -2 431h77zM443 691v-50c0 -53 -18 -81 -62 -81c-31 0 -59 21 -84 40l-25 19c-13 10 -27 20 -33 20c-16 0 -16 -19 -16 -42v-32h-60v51
c0 29 1 80 58 80c21 0 40 -5 76 -33l31 -24c15 -12 29 -21 37 -21c9 0 16 3 16 35v38h62z" />
    <glyph glyph-name="Oacute.sc" horiz-adv-x="566" 
d="M524 269c0 -194 -75 -279 -246 -279c-163 0 -236 82 -236 265s82 274 247 274c164 0 235 -78 235 -260zM435 268c0 105 -19 207 -146 207c-109 0 -158 -68 -158 -222c0 -142 48 -210 149 -210c109 0 155 67 155 225zM440 695l-144 -136h-75l113 136h106z" />
    <glyph glyph-name="Ograve.sc" horiz-adv-x="566" 
d="M524 269c0 -194 -75 -279 -246 -279c-163 0 -236 82 -236 265s82 274 247 274c164 0 235 -78 235 -260zM435 268c0 105 -19 207 -146 207c-109 0 -158 -68 -158 -222c0 -142 48 -210 149 -210c109 0 155 67 155 225zM337 559h-73l-104 136h99z" />
    <glyph glyph-name="Ocircumflex.sc" horiz-adv-x="566" 
d="M524 269c0 -194 -75 -279 -246 -279c-163 0 -236 82 -236 265s82 274 247 274c164 0 235 -78 235 -260zM435 268c0 105 -19 207 -146 207c-109 0 -158 -68 -158 -222c0 -142 48 -210 149 -210c109 0 155 67 155 225zM405 559h-66l-54 97l-51 -97h-64l73 136h86z" />
    <glyph glyph-name="Odieresis.sc" horiz-adv-x="566" 
d="M524 269c0 -194 -75 -279 -246 -279c-163 0 -236 82 -236 265s82 274 247 274c164 0 235 -78 235 -260zM435 268c0 105 -19 207 -146 207c-109 0 -158 -68 -158 -222c0 -142 48 -210 149 -210c109 0 155 67 155 225zM410 577h-89v92h89v-92zM246 577h-89v92h89v-92z" />
    <glyph glyph-name="Otilde.sc" horiz-adv-x="566" 
d="M524 269c0 -194 -75 -279 -246 -279c-163 0 -236 82 -236 265s82 274 247 274c164 0 235 -78 235 -260zM435 268c0 105 -19 207 -146 207c-109 0 -158 -68 -158 -222c0 -142 48 -210 149 -210c109 0 155 67 155 225zM425 691v-50c0 -53 -18 -81 -62 -81
c-31 0 -59 21 -84 40l-25 19c-13 10 -27 20 -33 20c-16 0 -16 -19 -16 -42v-32h-60v51c0 29 1 80 58 80c21 0 40 -5 76 -33l31 -24c15 -12 29 -21 37 -21c9 0 16 3 16 35v38h62z" />
    <glyph glyph-name="Uacute.sc" horiz-adv-x="557" 
d="M413 519h84v-333c0 -115 -55 -195 -224 -195c-160 0 -213 71 -213 188v340h84v-332c0 -106 54 -140 134 -140c75 0 135 31 135 149v323zM435 695l-144 -136h-75l113 136h106z" />
    <glyph glyph-name="Ugrave.sc" horiz-adv-x="557" 
d="M413 519h84v-333c0 -115 -55 -195 -224 -195c-160 0 -213 71 -213 188v340h84v-332c0 -106 54 -140 134 -140c75 0 135 31 135 149v323zM327 559h-73l-104 136h99z" />
    <glyph glyph-name="Ucircumflex.sc" horiz-adv-x="557" 
d="M413 519h84v-333c0 -115 -55 -195 -224 -195c-160 0 -213 71 -213 188v340h84v-332c0 -106 54 -140 134 -140c75 0 135 31 135 149v323zM398 559h-66l-54 97l-51 -97h-64l73 136h86z" />
    <glyph glyph-name="Udieresis.sc" horiz-adv-x="557" 
d="M413 519h84v-333c0 -115 -55 -195 -224 -195c-160 0 -213 71 -213 188v340h84v-332c0 -106 54 -140 134 -140c75 0 135 31 135 149v323zM407 577h-89v92h89v-92zM243 577h-89v92h89v-92z" />
    <glyph glyph-name="AE.sc" horiz-adv-x="749" 
d="M729 0h-343v242h-169l-135 -242h-92l293 519h425v-60h-240v-161h219v-55h-219v-184h261v-59zM386 296v167h-47l-96 -167h143z" />
    <glyph glyph-name="Oslash.sc" horiz-adv-x="566" 
d="M472 575l37 -26l-51 -74c47 -43 66 -105 66 -210c0 -189 -77 -275 -246 -275c-59 0 -101 9 -139 31l-50 -71l-37 26l52 74c-44 46 -62 106 -62 205c0 181 83 274 246 274c54 0 100 -10 133 -28zM410 408l-229 -328c23 -23 59 -37 99 -37c107 0 156 68 156 217
c0 58 -10 118 -26 148zM154 120l227 326c-20 20 -50 29 -94 29c-106 0 -158 -70 -158 -216c0 -52 10 -104 25 -139z" />
    <glyph glyph-name="OE.sc" horiz-adv-x="811" 
d="M792 60v-60h-347v56c-43 -46 -92 -66 -168 -66c-177 0 -235 98 -235 264c0 186 78 275 241 275c75 0 124 -17 163 -66v56h325v-60h-246v-161h225v-56h-225v-182h267zM447 266c0 41 -2 94 -18 133c-20 49 -72 78 -140 78c-109 0 -158 -68 -158 -219s42 -215 155 -215
c126 0 161 76 161 223z" />
    <glyph glyph-name="Ydieresis.sc" horiz-adv-x="493" 
d="M296 189v-189h-85v189l-214 330h101l160 -253l149 253h91zM378 577h-89v92h89v-92zM214 577h-89v92h89v-92z" />
    <glyph glyph-name="zero.fitted" horiz-adv-x="515" 
d="M466 331v-15c0 -254 -73 -325 -212 -325c-119 0 -205 52 -205 319v21c0 271 97 325 219 325c124 0 198 -53 198 -325zM379 315v18c0 230 -44 267 -115 267c-81 0 -128 -50 -128 -271v-16c0 -209 40 -264 125 -264c84 0 118 58 118 266z" />
    <glyph glyph-name="one.fitted" horiz-adv-x="313" 
d="M215 0h-89v545h-123v57c110 19 150 31 212 56v-658z" />
    <glyph glyph-name="two.fitted" horiz-adv-x="482" 
d="M448 0h-405v73l121 130c165 177 192 215 192 291c0 93 -67 104 -101 104c-81 0 -117 -56 -117 -124v-19h-87v23c0 96 61 178 213 178c114 0 184 -56 184 -159c0 -20 -2 -63 -26 -110c-37 -72 -140 -172 -195 -229l-82 -85h303v-73z" />
    <glyph glyph-name="three.fitted" 
d="M31 175h91v-15c0 -82 57 -111 121 -111c116 0 124 99 124 129c0 82 -45 126 -123 126h-79v63h18c74 0 106 3 134 32c15 16 31 43 31 90c0 88 -46 112 -107 112c-37 0 -68 -12 -87 -38c-22 -30 -23 -72 -23 -86v-15h-87c0 49 3 89 35 127c55 66 147 67 174 67
c96 0 186 -36 186 -159c0 -85 -48 -136 -121 -158c81 -10 139 -54 139 -156c0 -75 -38 -192 -221 -192c-110 0 -205 40 -205 171v13z" />
    <glyph glyph-name="four.fitted" horiz-adv-x="495" 
d="M468 147h-70v-147h-85v147h-282v43c70 150 142 304 201 458h92c-62 -145 -132 -289 -200 -431h189v279h85v-279h70v-70z" />
    <glyph glyph-name="five.fitted" 
d="M439 648v-74h-283l-6 -182c35 35 84 49 131 49c60 0 178 -30 178 -219c0 -173 -109 -231 -218 -231c-160 0 -198 103 -198 165v19h88v-4c0 -21 4 -122 112 -122c58 0 124 31 124 176c0 148 -81 153 -111 153c-22 0 -86 -5 -111 -81h-74c1 37 14 351 14 351h354z" />
    <glyph glyph-name="six.fitted" 
d="M466 483h-85c0 54 -24 115 -109 115c-26 0 -82 -9 -110 -76c-13 -31 -22 -93 -23 -174c25 28 69 66 149 66c87 0 123 -39 148 -77c14 -21 29 -69 29 -133c0 -53 -13 -110 -50 -152c-23 -26 -74 -61 -159 -61c-141 0 -205 88 -205 305c0 29 2 166 34 241
c19 44 70 119 192 119c162 0 189 -112 189 -173zM145 201c0 -46 17 -155 115 -155c67 0 118 42 118 160c0 59 -15 148 -111 148c-32 0 -122 -12 -122 -153z" />
    <glyph glyph-name="seven.fitted" horiz-adv-x="430" 
d="M12 575v73h391v-73c-79 -190 -166 -386 -249 -575h-100c91 193 177 384 259 575h-301z" />
    <glyph glyph-name="eight.fitted" 
d="M334 346c115 -15 124 -125 124 -159c0 -125 -66 -196 -210 -196c-115 0 -206 54 -206 186c0 123 81 163 124 169c-69 13 -107 66 -107 139c0 21 6 88 59 131c38 30 90 40 136 40c102 0 187 -44 187 -160c0 -87 -45 -133 -107 -150zM133 177c0 -76 36 -133 118 -133
c15 0 64 2 94 43c25 35 25 84 25 102c0 80 -41 129 -116 129c-26 0 -121 -7 -121 -141zM143 479c0 -94 74 -107 107 -107c53 0 106 25 106 123c0 90 -67 108 -102 108c-64 0 -111 -38 -111 -124z" />
    <glyph glyph-name="nine.fitted" 
d="M33 165h84v-5c0 -23 12 -111 109 -111c23 0 73 6 102 62c21 39 30 93 31 187c-30 -29 -72 -64 -148 -64c-140 0 -177 104 -177 210c0 145 84 212 209 212c136 0 206 -83 206 -290c0 -191 -28 -375 -227 -375c-133 0 -189 79 -189 168v6zM355 445c0 103 -44 157 -115 157
c-101 0 -119 -86 -119 -154c0 -137 69 -155 111 -155c69 0 123 42 123 152z" />
    <glyph glyph-name="zero.tab" 
d="M451 331v-15c0 -254 -68 -325 -207 -325c-119 0 -195 52 -195 319v21c0 271 87 325 209 325c124 0 193 -53 193 -325zM364 315v18c0 230 -39 267 -110 267c-81 0 -118 -50 -118 -271v-16c0 -209 30 -264 115 -264c84 0 113 58 113 266z" />
    <glyph glyph-name="one.tab" 
d="M319 0h-89v545h-123v57c81 12 144 31 174 41c13 5 26 9 38 15v-658z" />
    <glyph glyph-name="two.tab" 
d="M448 0h-405v73l121 130c165 177 196 215 196 291c0 93 -71 104 -105 104c-81 0 -121 -56 -121 -124v-19h-87v30c5 90 65 171 217 171c114 0 188 -56 188 -159c0 -20 -2 -63 -26 -110c-37 -72 -144 -172 -199 -229l-82 -85h303v-73z" />
    <glyph glyph-name="three.tab" 
d="M31 175h91v-15c0 -82 57 -111 121 -111c116 0 124 99 124 129c0 82 -45 126 -123 126h-79v63h18c74 0 106 3 134 32c15 16 31 43 31 90c0 88 -46 112 -107 112c-37 0 -68 -12 -87 -38c-22 -30 -23 -72 -23 -86v-15h-87c0 49 3 89 35 127c55 66 147 67 174 67
c96 0 186 -36 186 -159c0 -85 -48 -136 -121 -158c81 -10 139 -54 139 -156c0 -75 -38 -192 -221 -192c-110 0 -205 40 -205 171v13z" />
    <glyph glyph-name="four.tab" 
d="M464 147h-70v-147h-85v147h-276v43c34 75 69 150 101 226c33 77 64 154 94 232h92c-35 -81 -70 -162 -106 -242c-29 -64 -58 -126 -88 -189h183v279h85v-279h70v-70z" />
    <glyph glyph-name="five.tab" 
d="M439 648v-74h-283l-6 -182c35 35 84 49 131 49c60 0 178 -30 178 -219c0 -173 -109 -231 -218 -231c-160 0 -198 103 -198 165v19h88v-4c0 -21 4 -122 112 -122c58 0 124 31 124 176c0 148 -81 153 -111 153c-22 0 -86 -5 -111 -81h-74c1 37 14 351 14 351h354z" />
    <glyph glyph-name="six.tab" 
d="M466 483h-85c0 54 -24 115 -109 115c-26 0 -82 -9 -110 -76c-13 -31 -22 -93 -23 -174c25 28 69 66 149 66c87 0 123 -39 148 -77c14 -21 29 -69 29 -133c0 -53 -13 -110 -50 -152c-23 -26 -74 -61 -159 -61c-141 0 -205 88 -205 305c0 29 2 166 34 241
c19 44 70 119 192 119c162 0 189 -112 189 -173zM145 201c0 -46 17 -155 115 -155c67 0 118 42 118 160c0 59 -15 148 -111 148c-32 0 -122 -12 -122 -153z" />
    <glyph glyph-name="seven.tab" 
d="M40 575v73h421v-73c-43 -95 -86 -189 -131 -282c-48 -99 -98 -196 -148 -293h-100c54 100 108 201 159 302c45 90 88 182 130 273h-331z" />
    <glyph glyph-name="eight.tab" 
d="M334 346c115 -15 124 -125 124 -159c0 -125 -66 -196 -210 -196c-115 0 -206 54 -206 186c0 123 81 163 124 169c-69 13 -107 66 -107 139c0 21 6 88 59 131c38 30 90 40 136 40c102 0 187 -44 187 -160c0 -87 -45 -133 -107 -150zM133 177c0 -76 36 -133 118 -133
c15 0 64 2 94 43c25 35 25 84 25 102c0 80 -41 129 -116 129c-26 0 -121 -7 -121 -141zM143 479c0 -94 74 -107 107 -107c53 0 106 25 106 123c0 90 -67 108 -102 108c-64 0 -111 -38 -111 -124z" />
    <glyph glyph-name="nine.tab" 
d="M33 165h84v-5c0 -23 12 -111 109 -111c23 0 73 6 102 62c21 39 30 93 31 187c-30 -29 -72 -64 -148 -64c-140 0 -177 104 -177 210c0 145 84 212 209 212c136 0 206 -83 206 -290c0 -191 -28 -375 -227 -375c-133 0 -189 79 -189 168v6zM355 445c0 103 -44 157 -115 157
c-101 0 -119 -86 -119 -154c0 -137 69 -155 111 -155c69 0 123 42 123 152z" />
    <glyph glyph-name="zero.taboldstyle" 
d="M460 275c0 -193 -70 -287 -215 -287c-136 0 -203 86 -203 260c0 193 69 283 216 283c138 0 202 -81 202 -256zM126 269c0 -87 1 -225 122 -225c104 0 127 102 127 229c0 140 -36 201 -121 201c-88 0 -128 -60 -128 -205z" />
    <glyph glyph-name="one.taboldstyle" 
d="M323 549v-549h-88v439h-124v55c109 17 151 32 212 55z" />
    <glyph glyph-name="two.taboldstyle" 
d="M461 73v-73h-418v76c192 121 216 137 257 177c40 39 59 78 59 123c0 61 -37 98 -97 98c-74 0 -117 -49 -117 -132v-9h-87v4c0 120 73 194 215 194c113 0 179 -56 179 -153c0 -52 -24 -106 -64 -147c-60 -60 -112 -91 -226 -158h299z" />
    <glyph glyph-name="three.taboldstyle" 
d="M57 338v14c0 111 77 179 202 179c118 0 184 -58 184 -162c0 -82 -37 -130 -120 -155c93 -11 138 -61 138 -157c0 -121 -79 -190 -219 -190c-110 0 -198 52 -198 165c0 7 0 14 1 22h91v-18c0 -62 35 -111 114 -111c78 0 122 47 122 129c0 39 -11 72 -32 93
c-24 25 -48 33 -119 33h-42v63h48c78 0 126 33 126 124c0 71 -36 109 -102 109c-70 0 -106 -44 -106 -129v-9h-88z" />
    <glyph glyph-name="four.taboldstyle" 
d="M460 67v-67h-71v-146h-81v146h-264v42c63 158 126 316 182 477h92c-63 -149 -118 -302 -181 -452h169v282h83v-282h71z" />
    <glyph glyph-name="five.taboldstyle" 
d="M423 519v-69h-262l-7 -187c36 34 76 49 126 49c111 0 174 -78 174 -215c0 -146 -76 -230 -211 -230c-124 0 -193 65 -194 183h89c3 -85 38 -124 108 -124c77 0 118 57 118 166c0 106 -35 157 -108 157c-52 0 -86 -26 -105 -80h-75s10 239 14 350h333z" />
    <glyph glyph-name="six.taboldstyle" 
d="M457 482h-85c-4 74 -38 113 -98 113c-86 0 -131 -75 -131 -235v-17c40 46 90 69 149 69c106 0 166 -75 166 -208c0 -139 -72 -217 -200 -217c-140 0 -204 87 -204 298c0 230 54 368 226 368c104 0 170 -49 177 -171zM373 212c0 91 -40 140 -105 140
c-74 0 -119 -58 -119 -151c0 -97 43 -157 112 -157c94 0 112 94 112 168z" />
    <glyph glyph-name="seven.taboldstyle" 
d="M456 519v-72c-36 -91 -76 -179 -118 -267c-49 -103 -98 -205 -149 -307h-97c100 189 191 381 278 576h-315v70h401z" />
    <glyph glyph-name="eight.taboldstyle" 
d="M331 342c84 -17 123 -68 123 -164c0 -122 -74 -191 -207 -191c-126 0 -199 68 -199 185c0 93 44 149 122 170c-72 22 -105 74 -105 141c0 105 71 169 191 169c115 0 180 -58 180 -161c0 -77 -33 -123 -105 -149zM368 180c0 85 -42 134 -114 134c-74 0 -119 -52 -119 -137
c0 -86 45 -132 116 -132c74 0 117 46 117 135zM352 485c0 71 -37 112 -99 112c-63 0 -103 -44 -103 -116c0 -68 37 -110 98 -110c66 0 104 41 104 114z" />
    <glyph glyph-name="nine.taboldstyle" 
d="M44 40h81c4 -76 39 -115 102 -115c91 0 122 72 132 251c-32 -42 -85 -66 -144 -66c-109 0 -171 75 -171 207c0 135 76 214 207 214c135 0 197 -94 197 -300c0 -247 -72 -365 -224 -365c-109 0 -178 59 -180 174zM130 322c0 -100 38 -153 109 -153s114 57 114 152
c0 98 -40 156 -111 156c-89 0 -112 -82 -112 -155z" />
    <glyph glyph-name="braceleft.cap" horiz-adv-x="313" 
d="M305 769v-29c-92 -11 -112 -47 -112 -135v-123c0 -72 -24 -112 -82 -135c58 -23 82 -62 82 -138v-107c0 -115 23 -140 112 -153v-28c-144 0 -190 30 -190 176v110c0 77 -14 105 -73 126v30c55 16 73 44 73 115v130c0 122 54 161 190 161z" />
    <glyph glyph-name="braceright.cap" horiz-adv-x="313" 
d="M8 741v28c144 0 190 -30 190 -176v-110c0 -77 14 -105 73 -126v-30c-55 -16 -73 -44 -73 -115v-130c0 -122 -54 -161 -190 -161v29c92 11 112 47 112 135v123c0 72 24 112 82 135c-58 23 -82 62 -82 138v107c0 115 -23 140 -112 153z" />
    <glyph glyph-name="bracketleft.cap" horiz-adv-x="333" 
d="M313 -79h-206v847h206v-54h-130v-739h130v-54z" />
    <glyph glyph-name="bracketright.cap" horiz-adv-x="333" 
d="M227 -79h-206v54h129v739h-129v54h206v-847z" />
    <glyph glyph-name="emdash.cap" horiz-adv-x="919" 
d="M869 306h-819v67h819v-67z" />
    <glyph glyph-name="endash.cap" 
d="M450 306h-400v67h400v-67z" />
    <glyph glyph-name="guillemotleft.cap" horiz-adv-x="375" 
d="M370 143h-77l-113 195l113 196h77l-112 -196zM204 143h-77l-114 195l114 196h77l-113 -196z" />
    <glyph glyph-name="guillemotright.cap" horiz-adv-x="375" 
d="M361 338l-113 -195h-77l112 195l-112 196h77zM195 338l-113 -195h-78l113 195l-112 196h77z" />
    <glyph glyph-name="guilsinglleft.cap" horiz-adv-x="208" 
d="M204 143h-77l-114 195l114 196h77l-113 -196z" />
    <glyph glyph-name="guilsinglright.cap" horiz-adv-x="208" 
d="M195 338l-113 -195h-78l113 195l-112 196h77z" />
    <glyph glyph-name="hyphen.cap" horiz-adv-x="396" 
d="M346 306h-296v67h296v-67z" />
    <glyph glyph-name="parenleft.cap" horiz-adv-x="333" 
d="M333 768v-53h-10c-134 0 -167 -96 -178 -151c-11 -56 -13 -192 -13 -248c0 -226 27 -342 201 -342v-53h-7c-58 0 -124 1 -181 49c-83 69 -95 195 -95 370c0 63 3 187 20 250c38 142 138 178 246 178h17z" />
    <glyph glyph-name="parenright.cap" horiz-adv-x="333" 
d="M0 768h7c63 0 124 0 183 -49c83 -69 93 -195 93 -370c0 -63 0 -187 -17 -250c-38 -142 -144 -178 -249 -178h-17v53h10c138 0 169 95 180 150c11 56 11 193 11 249c0 226 -27 342 -201 342v53z" />
    <glyph glyph-name="periodcentered.cap" horiz-adv-x="208" 
d="M155 297h-101v97h101v-97z" />
    <glyph glyph-name="Amacron" unicode="&#x100;" horiz-adv-x="646" 
d="M645 0h-101l-94 276h-253l-107 -276h-89l283 706h114zM427 341l-96 286l-109 -286h205zM471 775h-265v64h265v-64z" />
    <glyph glyph-name="amacron" unicode="&#x101;" 
d="M451 0h-66c-33 0 -41 11 -41 41v14c-43 -49 -101 -65 -148 -65c-96 0 -157 49 -157 145c0 68 40 104 63 117c34 19 81 35 242 50v53c0 67 -28 100 -95 100c-31 0 -111 -4 -111 -107v-7h-81v15c0 119 101 155 198 155c80 0 127 -24 150 -57c19 -27 23 -70 23 -108v-273
c0 -38 5 -58 23 -61v-12zM344 180v75c-103 -12 -147 -24 -169 -37c-34 -20 -45 -51 -45 -81c0 -56 33 -90 91 -90c31 0 57 8 77 21c43 28 46 75 46 112zM382 575h-265v64h265v-64z" />
    <glyph glyph-name="Abreve" unicode="&#x102;" horiz-adv-x="646" 
d="M645 0h-101l-94 276h-253l-107 -276h-89l283 706h114zM427 341l-96 286l-109 -286h205zM403 887h61c0 -102 -77 -129 -130 -129c-75 0 -124 46 -124 122v7h62c2 -25 10 -78 66 -78c52 0 62 43 65 78z" />
    <glyph glyph-name="abreve" unicode="&#x103;" 
d="M451 0h-66c-33 0 -41 11 -41 41v14c-43 -49 -101 -65 -148 -65c-96 0 -157 49 -157 145c0 68 40 104 63 117c34 19 81 35 242 50v53c0 67 -28 100 -95 100c-31 0 -111 -4 -111 -107v-7h-81v15c0 119 101 155 198 155c80 0 127 -24 150 -57c19 -27 23 -70 23 -108v-273
c0 -38 5 -58 23 -61v-12zM344 180v75c-103 -12 -147 -24 -169 -37c-34 -20 -45 -51 -45 -81c0 -56 33 -90 91 -90c31 0 57 8 77 21c43 28 46 75 46 112zM316 688h61c0 -102 -77 -129 -130 -129c-75 0 -124 46 -124 122v7h62c2 -25 10 -78 66 -78c52 0 62 43 65 78z" />
    <glyph glyph-name="Aogonek" unicode="&#x104;" horiz-adv-x="646" 
d="M645 0h-11c-20 -13 -67 -47 -67 -80c0 -26 25 -38 46 -38c12 0 24 3 29 4v-55c-13 -4 -30 -11 -58 -11c-42 0 -90 22 -90 73c0 50 47 82 89 107h-39l-94 276h-253l-107 -276h-89l283 706h114zM427 341l-96 286l-109 -286h205z" />
    <glyph glyph-name="aogonek" unicode="&#x105;" 
d="M451 0h-9c-20 -13 -67 -47 -67 -80c0 -26 25 -38 46 -38c12 0 24 3 29 4v-55c-13 -4 -30 -11 -58 -11c-42 0 -90 22 -90 73c0 50 47 82 89 107h-6c-33 0 -41 11 -41 41v14c-43 -49 -101 -65 -148 -65c-96 0 -157 49 -157 145c0 68 40 104 63 117c34 19 81 35 242 50v53
c0 67 -28 100 -95 100c-31 0 -111 -4 -111 -107v-7h-81v15c0 119 101 155 198 155c80 0 127 -24 150 -57c19 -27 23 -70 23 -108v-273c0 -38 5 -58 23 -61v-12zM344 180v75c-103 -12 -147 -24 -169 -37c-34 -20 -45 -51 -45 -81c0 -56 33 -90 91 -90c31 0 57 8 77 21
c43 28 46 75 46 112z" />
    <glyph glyph-name="Cacute" unicode="&#x106;" horiz-adv-x="625" 
d="M595 487h-94v8c0 88 -47 164 -163 164c-168 0 -188 -172 -188 -336c0 -106 11 -276 180 -276c125 0 171 88 176 171h96c-12 -128 -87 -231 -280 -231c-226 0 -273 155 -273 346c0 230 63 387 292 387c182 0 254 -95 254 -219v-14zM486 895l-144 -136h-74l113 136h105z
" />
    <glyph glyph-name="cacute" unicode="&#x107;" horiz-adv-x="495" 
d="M458 331h-84c0 38 -13 124 -113 124c-113 0 -130 -128 -130 -209c0 -57 8 -200 126 -200c46 0 105 20 115 122h86c0 -19 -8 -178 -201 -178c-136 0 -216 81 -216 257c0 126 44 264 223 264c105 0 194 -45 194 -180zM412 695l-144 -136h-75l113 136h106z" />
    <glyph glyph-name="Ccircumflex" unicode="&#x108;" horiz-adv-x="625" 
d="M595 487h-94v8c0 88 -47 164 -163 164c-168 0 -188 -172 -188 -336c0 -106 11 -276 180 -276c125 0 171 88 176 171h96c-12 -128 -87 -231 -280 -231c-226 0 -273 155 -273 346c0 230 63 387 292 387c182 0 254 -95 254 -219v-14zM458 759h-66l-54 97l-51 -97h-64l73 136
h86z" />
    <glyph glyph-name="ccircumflex" unicode="&#x109;" horiz-adv-x="495" 
d="M458 331h-84c0 38 -13 124 -113 124c-113 0 -130 -128 -130 -209c0 -57 8 -200 126 -200c46 0 105 20 115 122h86c0 -19 -8 -178 -201 -178c-136 0 -216 81 -216 257c0 126 44 264 223 264c105 0 194 -45 194 -180zM380 559h-66l-54 97l-51 -97h-64l73 136h86z" />
    <glyph glyph-name="Cdotaccent" unicode="&#x10a;" horiz-adv-x="625" 
d="M595 487h-94v8c0 88 -47 164 -163 164c-168 0 -188 -172 -188 -336c0 -106 11 -276 180 -276c125 0 171 88 176 171h96c-12 -128 -87 -231 -280 -231c-226 0 -273 155 -273 346c0 230 63 387 292 387c182 0 254 -95 254 -219v-14zM382 777h-89v92h89v-92z" />
    <glyph glyph-name="cdotaccent" unicode="&#x10b;" horiz-adv-x="495" 
d="M458 331h-84c0 38 -13 124 -113 124c-113 0 -130 -128 -130 -209c0 -57 8 -200 126 -200c46 0 105 20 115 122h86c0 -19 -8 -178 -201 -178c-136 0 -216 81 -216 257c0 126 44 264 223 264c105 0 194 -45 194 -180zM306 577h-89v92h89v-92z" />
    <glyph glyph-name="Ccaron" unicode="&#x10c;" horiz-adv-x="625" 
d="M595 487h-94v8c0 88 -47 164 -163 164c-168 0 -188 -172 -188 -336c0 -106 11 -276 180 -276c125 0 171 88 176 171h96c-12 -128 -87 -231 -280 -231c-226 0 -273 155 -273 346c0 230 63 387 292 387c182 0 254 -95 254 -219v-14zM454 895l-73 -136h-86l-76 136h67
l53 -97l52 97h63z" />
    <glyph glyph-name="ccaron" unicode="&#x10d;" horiz-adv-x="495" 
d="M458 331h-84c0 38 -13 124 -113 124c-113 0 -130 -128 -130 -209c0 -57 8 -200 126 -200c46 0 105 20 115 122h86c0 -19 -8 -178 -201 -178c-136 0 -216 81 -216 257c0 126 44 264 223 264c105 0 194 -45 194 -180zM380 695l-73 -136h-87l-77 136h67l54 -97l51 97h65z
" />
    <glyph glyph-name="Dcaron" unicode="&#x10e;" horiz-adv-x="688" 
d="M77 0v706h260c204 0 298 -101 298 -353c0 -223 -83 -353 -327 -353h-231zM172 68h110c181 0 258 64 258 292c0 221 -87 279 -237 279h-131v-571zM384 895l-73 -136h-86l-76 136h67l53 -97l52 97h63z" />
    <glyph glyph-name="dcaron" unicode="&#x10f;" horiz-adv-x="542" 
d="M469 0h-83v61c-18 -20 -64 -71 -156 -71c-162 0 -189 150 -189 252c0 183 80 269 208 269c81 0 115 -37 137 -64v259h83v-706zM386 200v133c0 99 -74 122 -118 122c-136 0 -137 -150 -137 -203c0 -90 17 -206 126 -206c39 0 80 17 102 45c25 32 27 76 27 109zM596 612
l-54 -108h-51l55 108h-47v94h97v-94z" />
    <glyph glyph-name="Dcroat" unicode="&#x110;" horiz-adv-x="688" 
d="M77 0v348h-77v65h77v293h246c37 0 84 -1 120 -10c126 -32 192 -138 192 -331c0 -145 -37 -251 -104 -304c-58 -46 -148 -61 -235 -61h-219zM172 68h118c177 0 213 79 233 150c17 60 17 125 17 142c0 55 -9 162 -56 217c-49 58 -126 62 -162 62h-150v-226h181v-65h-181
v-280z" />
    <glyph glyph-name="dcroat" unicode="&#x111;" horiz-adv-x="542" 
d="M469 0h-83v61c-18 -20 -64 -71 -156 -71c-162 0 -189 150 -189 252c0 183 80 269 208 269c81 0 115 -37 137 -64v143h-130v51h130v65h83v-65h73v-51h-73v-590zM386 200v133c0 99 -74 122 -118 122c-136 0 -137 -150 -137 -203c0 -90 17 -206 126 -206c39 0 80 17 102 45
c25 32 27 76 27 109z" />
    <glyph glyph-name="Emacron" unicode="&#x112;" horiz-adv-x="521" 
d="M494 0h-417v706h390v-67h-293v-238h269v-67h-269v-266h320v-68zM393 775h-265v64h265v-64z" />
    <glyph glyph-name="emacron" unicode="&#x113;" 
d="M131 252v-5c0 -62 2 -201 131 -201c32 0 109 13 115 107h85c0 -85 -69 -163 -204 -163c-157 0 -218 102 -218 246c0 163 65 275 224 275c128 0 200 -74 200 -234v-25h-333zM134 304h245c-1 31 -4 151 -114 151c-72 0 -125 -51 -131 -151zM398 575h-265v64h265v-64z" />
    <glyph glyph-name="Ebreve" unicode="&#x114;" horiz-adv-x="521" 
d="M494 0h-417v706h390v-67h-293v-238h269v-67h-269v-266h320v-68zM343 887h61c0 -102 -77 -129 -130 -129c-75 0 -124 46 -124 122v7h62c2 -25 10 -78 66 -78c52 0 62 43 65 78z" />
    <glyph glyph-name="ebreve" unicode="&#x115;" 
d="M131 252v-5c0 -62 2 -201 131 -201c32 0 109 13 115 107h85c0 -85 -69 -163 -204 -163c-157 0 -218 102 -218 246c0 163 65 275 224 275c128 0 200 -74 200 -234v-25h-333zM134 304h245c-1 31 -4 151 -114 151c-72 0 -125 -51 -131 -151zM329 688h61
c0 -102 -77 -129 -130 -129c-75 0 -124 46 -124 122v7h62c2 -25 10 -78 66 -78c52 0 62 43 65 78z" />
    <glyph glyph-name="Edotaccent" unicode="&#x116;" horiz-adv-x="521" 
d="M494 0h-417v706h390v-67h-293v-238h269v-67h-269v-266h320v-68zM327 777h-89v92h89v-92z" />
    <glyph glyph-name="edotaccent" unicode="&#x117;" 
d="M131 252v-5c0 -62 2 -201 131 -201c32 0 109 13 115 107h85c0 -85 -69 -163 -204 -163c-157 0 -218 102 -218 246c0 163 65 275 224 275c128 0 200 -74 200 -234v-25h-333zM134 304h245c-1 31 -4 151 -114 151c-72 0 -125 -51 -131 -151zM311 577h-89v92h89v-92z" />
    <glyph glyph-name="Eogonek" unicode="&#x118;" horiz-adv-x="521" 
d="M494 0h-9c-20 -13 -67 -47 -67 -80c0 -26 25 -38 46 -38c12 0 24 3 29 4v-55c-13 -4 -30 -11 -58 -11c-42 0 -90 22 -90 73c0 50 47 82 89 107h-357v706h390v-67h-293v-238h269v-67h-269v-266h320v-68z" />
    <glyph glyph-name="eogonek" unicode="&#x119;" 
d="M131 252v-5c0 -62 2 -201 131 -201c32 0 109 13 115 107h85c0 -64 -39 -125 -116 -150c-15 -9 -72 -46 -72 -83c0 -26 25 -38 46 -38c12 0 24 3 29 4v-55c-13 -4 -30 -11 -58 -11c-42 0 -90 22 -90 73c0 44 36 74 74 98c-6 -1 -12 -1 -17 -1c-157 0 -218 102 -218 246
c0 163 65 275 224 275c128 0 200 -74 200 -234v-25h-333zM134 304h245c-1 31 -4 151 -114 151c-72 0 -125 -51 -131 -151z" />
    <glyph glyph-name="Ecaron" unicode="&#x11a;" horiz-adv-x="521" 
d="M494 0h-417v706h390v-67h-293v-238h269v-67h-269v-266h320v-68zM401 895l-73 -136h-86l-76 136h67l53 -97l52 97h63z" />
    <glyph glyph-name="ecaron" unicode="&#x11b;" 
d="M131 252v-5c0 -62 2 -201 131 -201c32 0 109 13 115 107h85c0 -85 -69 -163 -204 -163c-157 0 -218 102 -218 246c0 163 65 275 224 275c128 0 200 -74 200 -234v-25h-333zM134 304h245c-1 31 -4 151 -114 151c-72 0 -125 -51 -131 -151zM383 695l-73 -136h-87l-77 136
h67l54 -97l51 97h65z" />
    <glyph glyph-name="Gcircumflex" unicode="&#x11c;" horiz-adv-x="667" 
d="M600 0h-85v55c-68 -68 -167 -68 -198 -68c-181 0 -271 101 -271 339c0 191 38 394 292 394c149 0 254 -66 254 -223v-10h-94v8c0 50 -17 164 -163 164c-131 0 -188 -98 -188 -334c0 -162 35 -278 186 -278c89 0 183 37 183 155v89h-160v68h244v-359zM456 759h-66l-54 97
l-51 -97h-64l73 136h86z" />
    <glyph glyph-name="gcircumflex" unicode="&#x11d;" horiz-adv-x="542" 
d="M470 500v-469c0 -180 -100 -239 -232 -239c-91 0 -194 33 -194 152v14h81c0 -68 43 -110 121 -110c124 0 140 103 140 172v45c-38 -44 -98 -65 -155 -65c-162 0 -190 152 -190 248c0 157 71 263 205 263c80 0 118 -40 141 -64v53h83zM387 180v149c0 72 -43 126 -119 126
c-70 0 -138 -48 -138 -197c0 -131 37 -202 131 -202c68 0 126 41 126 124zM386 559h-66l-54 97l-51 -97h-64l73 136h86z" />
    <glyph glyph-name="Gbreve" unicode="&#x11e;" horiz-adv-x="667" 
d="M600 0h-85v55c-68 -68 -167 -68 -198 -68c-181 0 -271 101 -271 339c0 191 38 394 292 394c149 0 254 -66 254 -223v-10h-94v8c0 50 -17 164 -163 164c-131 0 -188 -98 -188 -334c0 -162 35 -278 186 -278c89 0 183 37 183 155v89h-160v68h244v-359zM404 887h61
c0 -102 -77 -129 -130 -129c-75 0 -124 46 -124 122v7h62c2 -25 10 -78 66 -78c52 0 62 43 65 78z" />
    <glyph glyph-name="gbreve" unicode="&#x11f;" horiz-adv-x="542" 
d="M470 500v-469c0 -180 -100 -239 -232 -239c-91 0 -194 33 -194 152v14h81c0 -68 43 -110 121 -110c124 0 140 103 140 172v45c-38 -44 -98 -65 -155 -65c-162 0 -190 152 -190 248c0 157 71 263 205 263c80 0 118 -40 141 -64v53h83zM387 180v149c0 72 -43 126 -119 126
c-70 0 -138 -48 -138 -197c0 -131 37 -202 131 -202c68 0 126 41 126 124zM325 688h61c0 -102 -77 -129 -130 -129c-75 0 -124 46 -124 122v7h62c2 -25 10 -78 66 -78c52 0 62 43 65 78z" />
    <glyph glyph-name="Gdotaccent" unicode="&#x120;" horiz-adv-x="667" 
d="M600 0h-85v55c-68 -68 -167 -68 -198 -68c-181 0 -271 101 -271 339c0 191 38 394 292 394c149 0 254 -66 254 -223v-10h-94v8c0 50 -17 164 -163 164c-131 0 -188 -98 -188 -334c0 -162 35 -278 186 -278c89 0 183 37 183 155v89h-160v68h244v-359zM378 777h-89v92h89
v-92z" />
    <glyph glyph-name="gdotaccent" unicode="&#x121;" horiz-adv-x="542" 
d="M470 500v-469c0 -180 -100 -239 -232 -239c-91 0 -194 33 -194 152v14h81c0 -68 43 -110 121 -110c124 0 140 103 140 172v45c-38 -44 -98 -65 -155 -65c-162 0 -190 152 -190 248c0 157 71 263 205 263c80 0 118 -40 141 -64v53h83zM387 180v149c0 72 -43 126 -119 126
c-70 0 -138 -48 -138 -197c0 -131 37 -202 131 -202c68 0 126 41 126 124zM315 577h-89v92h89v-92z" />
    <glyph glyph-name="Gcommaaccent" unicode="&#x122;" horiz-adv-x="667" 
d="M600 0h-85v55c-68 -68 -167 -68 -198 -68c-181 0 -271 101 -271 339c0 191 38 394 292 394c149 0 254 -66 254 -223v-10h-94v8c0 50 -17 164 -163 164c-131 0 -188 -98 -188 -334c0 -162 35 -278 186 -278c89 0 183 37 183 155v89h-160v68h244v-359zM386 -125l-57 -98
h-49l57 98h-47v90h96v-90z" />
    <glyph glyph-name="gcommaaccent" unicode="&#x123;" horiz-adv-x="542" 
d="M218 649l57 98h49l-57 -98h47v-90h-96v90zM470 500v-469c0 -180 -100 -239 -232 -239c-91 0 -194 33 -194 152v14h81c0 -68 43 -110 121 -110c124 0 140 103 140 172v45c-38 -44 -98 -65 -155 -65c-162 0 -190 152 -190 248c0 157 71 263 205 263c80 0 118 -40 141 -64
v53h83zM387 180v149c0 72 -43 126 -119 126c-70 0 -138 -48 -138 -197c0 -131 37 -202 131 -202c68 0 126 41 126 124z" />
    <glyph glyph-name="Hcircumflex" unicode="&#x124;" horiz-adv-x="667" 
d="M590 0h-96v340h-320v-340h-97v706h97v-299h320v299h96v-706zM451 759h-66l-54 97l-51 -97h-64l73 136h86z" />
    <glyph glyph-name="hcircumflex" unicode="&#x125;" horiz-adv-x="542" 
d="M469 0h-85v321c0 91 -30 134 -101 134c-64 0 -126 -35 -126 -116v-339h-85v706h85v-262c24 22 77 67 164 67c101 0 148 -61 148 -157v-354zM234 759h-66l-54 97l-51 -97h-64l73 136h86z" />
    <glyph glyph-name="Hbar" unicode="&#x126;" horiz-adv-x="667" 
d="M27 526v67h50v113h97v-113h320v113h96v-113h50v-67h-50v-526h-96v340h-320v-340h-97v526h-50zM174 407h320v119h-320v-119z" />
    <glyph glyph-name="hbar" unicode="&#x127;" horiz-adv-x="542" 
d="M286 590h-129v-146c24 22 77 67 164 67c101 0 148 -61 148 -157v-354h-85v321c0 91 -30 134 -101 134c-64 0 -126 -35 -126 -116v-339h-85v590h-72v51h72v65h85v-65h129v-51z" />
    <glyph glyph-name="Itilde" unicode="&#x128;" horiz-adv-x="250" 
d="M173 0h-96v706h96v-706zM265 890v-50c0 -53 -18 -81 -62 -81c-31 0 -59 21 -84 40l-25 19c-13 10 -27 20 -33 20c-16 0 -16 -19 -16 -42v-32h-60v51c0 29 1 80 58 80c21 0 40 -5 76 -33l31 -24c15 -12 29 -21 37 -21c9 0 16 3 16 35v38h62z" />
    <glyph glyph-name="itilde" unicode="&#x129;" horiz-adv-x="229" 
d="M157 0h-85v500h85v-500zM255 690v-50c0 -53 -18 -81 -62 -81c-31 0 -59 21 -84 40l-25 19c-13 10 -27 20 -33 20c-16 0 -16 -19 -16 -42v-32h-60v51c0 29 1 80 58 80c21 0 40 -5 76 -33l31 -24c15 -12 29 -21 37 -21c9 0 16 3 16 35v38h62z" />
    <glyph glyph-name="uni012A" unicode="&#x12a;" horiz-adv-x="250" 
d="M253 775h-256v64h256v-64zM173 0h-96v706h96v-706z" />
    <glyph glyph-name="imacron" unicode="&#x12b;" horiz-adv-x="229" 
d="M232 575h-235v64h235v-64zM157 0h-85v500h85v-500z" />
    <glyph glyph-name="Ibreve" unicode="&#x12c;" horiz-adv-x="250" 
d="M173 0h-96v706h96v-706zM191 887h61c0 -102 -77 -129 -130 -129c-75 0 -124 46 -124 122v7h62c2 -25 10 -78 66 -78c52 0 62 43 65 78z" />
    <glyph glyph-name="uni012D" unicode="&#x12d;" horiz-adv-x="229" 
d="M157 0h-85v500h85v-500zM181 688h61c0 -102 -77 -129 -130 -129c-75 0 -124 46 -124 122v7h62c2 -25 10 -78 66 -78c52 0 62 43 65 78z" />
    <glyph glyph-name="Iogonek" unicode="&#x12e;" horiz-adv-x="250" 
d="M173 0h-9c-20 -13 -67 -47 -67 -80c0 -26 25 -38 46 -38c12 0 24 3 29 4v-55c-13 -4 -30 -11 -58 -11c-42 0 -90 22 -90 73c0 50 47 82 89 107h-36v706h96v-706z" />
    <glyph glyph-name="iogonek" unicode="&#x12f;" horiz-adv-x="229" 
d="M157 0h-9c-20 -13 -67 -47 -67 -80c0 -26 25 -38 46 -38c12 0 24 3 29 4v-55c-13 -4 -30 -11 -58 -11c-42 0 -90 22 -90 73c0 50 47 82 89 107h-25v500h85v-500zM157 608h-85v87h85v-87z" />
    <glyph glyph-name="Idotaccent" unicode="&#x130;" horiz-adv-x="250" 
d="M173 0h-96v706h96v-706zM170 777h-89v92h89v-92z" />
    <glyph glyph-name="IJ" unicode="&#x132;" horiz-adv-x="667" 
d="M173 0h-96v706h96v-706zM497 706h97v-515c0 -21 -1 -87 -40 -137c-50 -63 -137 -64 -159 -64c-56 0 -92 10 -141 32v77c29 -16 71 -40 129 -40c12 0 43 0 72 22c36 28 42 72 42 153v472z" />
    <glyph glyph-name="ij" unicode="&#x133;" horiz-adv-x="458" 
d="M157 608h-85v87h85v-87zM157 0h-85v500h85v-500zM386 500v-523c0 -85 -14 -184 -149 -184c-21 0 -30 2 -39 4v62c14 -2 19 -3 31 -3c54 0 71 39 71 109v535h86zM386 608h-86v87h86v-87z" />
    <glyph glyph-name="Jcircumflex" unicode="&#x134;" horiz-adv-x="417" 
d="M247 706h97v-515c0 -21 -1 -87 -40 -137c-50 -63 -137 -64 -159 -64c-56 0 -92 10 -141 32v77c29 -16 71 -40 129 -40c12 0 43 0 72 22c36 28 42 72 42 153v472zM414 759h-66l-54 97l-51 -97h-64l73 136h86z" />
    <glyph glyph-name="jcircumflex" unicode="&#x135;" horiz-adv-x="229" 
d="M157 500v-523c0 -85 -14 -184 -149 -184c-21 0 -30 2 -39 4v62c14 -2 19 -3 31 -3c54 0 71 39 71 109v535h86zM232 559h-66l-54 97l-51 -97h-64l73 136h86z" />
    <glyph glyph-name="Kcommaaccent" unicode="&#x136;" horiz-adv-x="604" 
d="M620 0h-116l-250 353l-83 -86v-267h-94v706h94v-336l308 336h111l-270 -287zM355 -125l-57 -98h-49l57 98h-47v90h96v-90z" />
    <glyph glyph-name="kcommaaccent" unicode="&#x137;" 
d="M508 0h-103l-175 257l-73 -78v-179h-85v706h85v-436l202 230h97l-168 -182zM303 -125l-57 -98h-49l57 98h-47v90h96v-90z" />
    <glyph glyph-name="kgreenlandic" unicode="&#x138;" 
d="M508 0h-103l-175 257l-73 -78v-179h-85v500h85v-230l202 230h97l-168 -182z" />
    <glyph glyph-name="Lacute" unicode="&#x139;" horiz-adv-x="521" 
d="M494 0h-417v706h97v-638h320v-68zM296 895l-144 -136h-74l113 136h105z" />
    <glyph glyph-name="lacute" unicode="&#x13a;" horiz-adv-x="229" 
d="M157 0h-85v706h85v-706zM280 895l-144 -136h-74l113 136h105z" />
    <glyph glyph-name="Lcommaaccent" unicode="&#x13b;" horiz-adv-x="521" 
d="M494 0h-417v706h97v-638h320v-68zM323 -125l-57 -98h-49l57 98h-47v90h96v-90z" />
    <glyph glyph-name="lcommaaccent" unicode="&#x13c;" horiz-adv-x="229" 
d="M157 0h-85v706h85v-706zM165 -125l-57 -98h-49l57 98h-47v90h96v-90z" />
    <glyph glyph-name="Lcaron" unicode="&#x13d;" horiz-adv-x="521" 
d="M494 0h-417v706h97v-638h320v-68zM313 612l-54 -108h-51l55 108h-47v94h97v-94z" />
    <glyph glyph-name="lcaron" unicode="&#x13e;" horiz-adv-x="229" 
d="M157 0h-85v706h85v-706zM283 612l-54 -108h-51l55 108h-47v94h97v-94z" />
    <glyph glyph-name="Ldot" unicode="&#x13f;" horiz-adv-x="521" 
d="M494 0h-417v706h97v-638h320v-68zM418 370h-89v92h89v-92z" />
    <glyph glyph-name="ldot" unicode="&#x140;" horiz-adv-x="264" 
d="M157 0h-85v706h85v-706zM289 356h-87v86h87v-86z" />
    <glyph glyph-name="Nacute" unicode="&#x143;" horiz-adv-x="708" 
d="M632 0h-105l-369 585c1 -28 3 -585 3 -585h-84v706h109l367 -588c-1 28 -4 588 -4 588h83v-706zM528 895l-144 -136h-74l113 136h105z" />
    <glyph glyph-name="nacute" unicode="&#x144;" horiz-adv-x="542" 
d="M469 0h-85v312c0 59 -5 91 -29 116c-26 27 -59 27 -72 27c-70 0 -126 -41 -126 -114v-341h-85v500h85v-56c24 22 77 67 164 67c14 0 49 -1 83 -20c60 -34 65 -91 65 -152v-339zM421 695l-144 -136h-75l113 136h106z" />
    <glyph glyph-name="Ncommaaccent" unicode="&#x145;" horiz-adv-x="708" 
d="M632 0h-105l-369 585c1 -28 3 -585 3 -585h-84v706h109l367 -588c-1 28 -4 588 -4 588h83v-706zM407 -125l-57 -98h-49l57 98h-47v90h96v-90z" />
    <glyph glyph-name="ncommaaccent" unicode="&#x146;" horiz-adv-x="542" 
d="M469 0h-85v312c0 59 -5 91 -29 116c-26 27 -59 27 -72 27c-70 0 -126 -41 -126 -114v-341h-85v500h85v-56c24 22 77 67 164 67c14 0 49 -1 83 -20c60 -34 65 -91 65 -152v-339zM328 -125l-57 -98h-49l57 98h-47v90h96v-90z" />
    <glyph glyph-name="Ncaron" unicode="&#x147;" horiz-adv-x="708" 
d="M632 0h-105l-369 585c1 -28 3 -585 3 -585h-84v706h109l367 -588c-1 28 -4 588 -4 588h83v-706zM471 895l-73 -136h-86l-76 136h67l53 -97l52 97h63z" />
    <glyph glyph-name="ncaron" unicode="&#x148;" horiz-adv-x="542" 
d="M469 0h-85v312c0 59 -5 91 -29 116c-26 27 -59 27 -72 27c-70 0 -126 -41 -126 -114v-341h-85v500h85v-56c24 22 77 67 164 67c14 0 49 -1 83 -20c60 -34 65 -91 65 -152v-339zM385 695l-73 -136h-87l-77 136h67l54 -97l51 97h65z" />
    <glyph glyph-name="napostrophe" unicode="&#x149;" horiz-adv-x="542" 
d="M469 0h-85v312c0 59 -5 91 -29 116c-26 27 -59 27 -72 27c-70 0 -126 -41 -126 -114v-341h-85v500h85v-56c24 22 77 67 164 67c14 0 49 -1 83 -20c60 -34 65 -91 65 -152v-339zM111 612l-54 -108h-51l55 108h-47v94h97v-94z" />
    <glyph glyph-name="Eng" unicode="&#x14a;" horiz-adv-x="708" 
d="M632 -23c0 -92 -11 -184 -149 -184c-18 0 -30 2 -39 4v62c12 -2 21 -3 31 -3c57 0 74 35 74 105v6l-391 618c1 -28 3 -585 3 -585h-84v706h109l367 -588c-1 28 -4 588 -4 588h83v-729z" />
    <glyph glyph-name="eng" unicode="&#x14b;" horiz-adv-x="542" 
d="M469 -23c0 -85 -13 -184 -148 -184c-21 0 -30 2 -39 4v62c12 -2 19 -3 31 -3c54 0 71 39 71 109v347c0 59 -5 91 -29 116c-26 27 -59 27 -72 27c-70 0 -126 -41 -126 -114v-341h-85v500h85v-56c24 22 77 67 164 67c14 0 49 -1 83 -20c60 -34 65 -91 65 -152v-362z" />
    <glyph glyph-name="Omacron" unicode="&#x14c;" horiz-adv-x="688" 
d="M49 318c0 206 30 402 301 402c205 0 288 -108 288 -343c0 -213 -43 -390 -294 -390c-194 0 -295 93 -295 331zM150 323c0 -140 26 -276 190 -276c160 0 197 117 197 330c0 156 -25 282 -187 282c-182 0 -200 -150 -200 -336zM484 775h-265v64h265v-64z" />
    <glyph glyph-name="omacron" unicode="&#x14d;" horiz-adv-x="521" 
d="M41 245c0 192 88 266 224 266c160 0 215 -96 215 -247c0 -148 -37 -274 -222 -274c-147 0 -217 84 -217 255zM131 247c0 -73 7 -203 132 -203c117 0 127 128 127 211c0 123 -32 201 -125 201c-110 0 -134 -110 -134 -209zM393 575h-265v64h265v-64z" />
    <glyph glyph-name="Obreve" unicode="&#x14e;" horiz-adv-x="688" 
d="M49 318c0 206 30 402 301 402c205 0 288 -108 288 -343c0 -213 -43 -390 -294 -390c-194 0 -295 93 -295 331zM150 323c0 -140 26 -276 190 -276c160 0 197 117 197 330c0 156 -25 282 -187 282c-182 0 -200 -150 -200 -336zM410 887h61c0 -102 -77 -129 -130 -129
c-75 0 -124 46 -124 122v7h62c2 -25 10 -78 66 -78c52 0 62 43 65 78z" />
    <glyph glyph-name="obreve" unicode="&#x14f;" horiz-adv-x="521" 
d="M41 245c0 192 88 266 224 266c160 0 215 -96 215 -247c0 -148 -37 -274 -222 -274c-147 0 -217 84 -217 255zM131 247c0 -73 7 -203 132 -203c117 0 127 128 127 211c0 123 -32 201 -125 201c-110 0 -134 -110 -134 -209zM326 688h61c0 -102 -77 -129 -130 -129
c-75 0 -124 46 -124 122v7h62c2 -25 10 -78 66 -78c52 0 62 43 65 78z" />
    <glyph glyph-name="Ohungarumlaut" unicode="&#x150;" horiz-adv-x="688" 
d="M49 318c0 206 30 402 301 402c205 0 288 -108 288 -343c0 -213 -43 -390 -294 -390c-194 0 -295 93 -295 331zM150 323c0 -140 26 -276 190 -276c160 0 197 117 197 330c0 156 -25 282 -187 282c-182 0 -200 -150 -200 -336zM422 895l-144 -136h-68l112 136h100zM569 895
l-144 -136h-68l112 136h100z" />
    <glyph glyph-name="ohungarumlaut" unicode="&#x151;" horiz-adv-x="521" 
d="M41 245c0 192 88 266 224 266c160 0 215 -96 215 -247c0 -148 -37 -274 -222 -274c-147 0 -217 84 -217 255zM131 247c0 -73 7 -203 132 -203c117 0 127 128 127 211c0 123 -32 201 -125 201c-110 0 -134 -110 -134 -209zM336 695l-144 -136h-67l111 136h100zM482 695
l-144 -136h-67l111 136h100z" />
    <glyph glyph-name="Racute" unicode="&#x154;" horiz-adv-x="604" 
d="M77 706h257c120 0 164 -32 191 -75c12 -19 28 -53 28 -107c0 -149 -116 -179 -130 -183c66 -22 85 -54 111 -150l11 -41c23 -87 25 -110 58 -150h-101c-24 22 -32 52 -48 124c-27 120 -43 185 -179 185h-104v-309h-94v706zM171 376h122c89 0 164 19 164 133
c0 47 -13 70 -27 87c-33 40 -70 42 -160 42h-99v-262zM417 895l-144 -136h-74l113 136h105z" />
    <glyph glyph-name="racute" unicode="&#x155;" horiz-adv-x="333" 
d="M159 0h-87v500h87v-65c11 16 51 74 122 74c31 0 47 -11 59 -19v-78c-13 9 -40 28 -83 28c-87 0 -98 -68 -98 -95v-345zM297 695l-144 -136h-75l113 136h106z" />
    <glyph glyph-name="Rcommaaccent" unicode="&#x156;" horiz-adv-x="604" 
d="M77 706h257c120 0 164 -32 191 -75c12 -19 28 -53 28 -107c0 -149 -116 -179 -130 -183c66 -22 85 -54 111 -150l11 -41c23 -87 25 -110 58 -150h-101c-24 22 -32 52 -48 124c-27 120 -43 185 -179 185h-104v-309h-94v706zM171 376h122c89 0 164 19 164 133
c0 47 -13 70 -27 87c-33 40 -70 42 -160 42h-99v-262zM355 -125l-57 -98h-49l57 98h-47v90h96v-90z" />
    <glyph glyph-name="rcommaaccent" unicode="&#x157;" horiz-adv-x="333" 
d="M159 0h-87v500h87v-65c11 16 51 74 122 74c31 0 47 -11 59 -19v-78c-13 9 -40 28 -83 28c-87 0 -98 -68 -98 -95v-345zM164 -125l-57 -98h-49l57 98h-47v90h96v-90z" />
    <glyph glyph-name="Rcaron" unicode="&#x158;" horiz-adv-x="604" 
d="M77 706h257c120 0 164 -32 191 -75c12 -19 28 -53 28 -107c0 -149 -116 -179 -130 -183c66 -22 85 -54 111 -150l11 -41c23 -87 25 -110 58 -150h-101c-24 22 -32 52 -48 124c-27 120 -43 185 -179 185h-104v-309h-94v706zM171 376h122c89 0 164 19 164 133
c0 47 -13 70 -27 87c-33 40 -70 42 -160 42h-99v-262zM393 895l-73 -136h-86l-76 136h67l53 -97l52 97h63z" />
    <glyph glyph-name="rcaron" unicode="&#x159;" horiz-adv-x="333" 
d="M159 0h-87v500h87v-65c11 16 51 74 122 74c31 0 47 -11 59 -19v-78c-13 9 -40 28 -83 28c-87 0 -98 -68 -98 -95v-345zM307 695l-73 -136h-87l-77 136h67l54 -97l51 97h65z" />
    <glyph glyph-name="Sacute" unicode="&#x15a;" horiz-adv-x="542" 
d="M490 521h-89c0 98 -51 137 -126 137c-42 0 -86 -12 -114 -46c-22 -27 -23 -56 -23 -69c0 -72 53 -95 135 -127l48 -19c131 -52 184 -104 184 -205c0 -36 -9 -204 -245 -204c-163 0 -241 74 -241 207v13h96v-16c0 -135 111 -143 150 -143c112 0 144 71 144 131
c0 82 -69 110 -136 136l-60 23c-69 27 -169 68 -169 190c0 19 1 66 34 110c48 65 127 79 202 79c104 0 153 -31 181 -74c11 -16 30 -52 30 -104c0 -6 0 -12 -1 -19zM440 895l-144 -136h-74l113 136h105z" />
    <glyph glyph-name="sacute" unicode="&#x15b;" horiz-adv-x="437" 
d="M395 357h-81v14c0 34 -17 87 -94 87c-67 0 -96 -38 -96 -75c0 -48 51 -68 97 -81l52 -15c84 -24 132 -66 132 -146c0 -75 -47 -151 -189 -151c-140 0 -185 69 -185 152v13h86v-13c0 -43 19 -96 107 -96c74 0 97 38 97 78c0 62 -49 77 -95 91l-64 19
c-31 9 -117 34 -117 128c0 72 42 149 178 149c87 0 172 -36 172 -148v-6zM370 695l-144 -136h-75l113 136h106z" />
    <glyph glyph-name="Scircumflex" unicode="&#x15c;" horiz-adv-x="542" 
d="M490 521h-89c0 98 -51 137 -126 137c-42 0 -86 -12 -114 -46c-22 -27 -23 -56 -23 -69c0 -72 53 -95 135 -127l48 -19c131 -52 184 -104 184 -205c0 -36 -9 -204 -245 -204c-163 0 -241 74 -241 207v13h96v-16c0 -135 111 -143 150 -143c112 0 144 71 144 131
c0 82 -69 110 -136 136l-60 23c-69 27 -169 68 -169 190c0 19 1 66 34 110c48 65 127 79 202 79c104 0 153 -31 181 -74c11 -16 30 -52 30 -104c0 -6 0 -12 -1 -19zM393 759h-66l-54 97l-51 -97h-64l73 136h86z" />
    <glyph glyph-name="scircumflex" unicode="&#x15d;" horiz-adv-x="437" 
d="M395 357h-81v14c0 34 -17 87 -94 87c-67 0 -96 -38 -96 -75c0 -48 51 -68 97 -81l52 -15c84 -24 132 -66 132 -146c0 -75 -47 -151 -189 -151c-140 0 -185 69 -185 152v13h86v-13c0 -43 19 -96 107 -96c74 0 97 38 97 78c0 62 -49 77 -95 91l-64 19
c-31 9 -117 34 -117 128c0 72 42 149 178 149c87 0 172 -36 172 -148v-6zM341 559h-66l-54 97l-51 -97h-64l73 136h86z" />
    <glyph glyph-name="Scedilla" unicode="&#x15e;" horiz-adv-x="542" 
d="M490 521h-89c0 98 -51 137 -126 137c-42 0 -86 -12 -114 -46c-22 -27 -23 -56 -23 -69c0 -72 53 -95 135 -127l48 -19c131 -52 184 -104 184 -205c0 -35 -9 -196 -229 -203l-2 -33c6 1 12 1 19 1c18 0 91 -12 91 -93c0 -25 -9 -43 -15 -52c-18 -29 -48 -45 -114 -45
c-14 0 -28 1 -41 2v51c12 -2 24 -2 34 -2c45 0 71 10 71 44c0 35 -17 48 -82 48c-4 0 -9 0 -13 -1l6 80c-143 9 -211 81 -211 206v13h96v-16c0 -135 111 -143 150 -143c112 0 144 71 144 131c0 82 -69 110 -136 136l-60 23c-69 27 -169 68 -169 190c0 19 1 66 34 110
c48 65 127 79 202 79c104 0 153 -31 181 -74c11 -16 30 -52 30 -104c0 -6 0 -12 -1 -19z" />
    <glyph glyph-name="scedilla" unicode="&#x15f;" horiz-adv-x="437" 
d="M395 357h-81v14c0 34 -17 87 -94 87c-67 0 -96 -38 -96 -75c0 -48 51 -68 97 -81l52 -15c84 -24 132 -66 132 -146c0 -73 -44 -146 -175 -151l-2 -34c6 1 12 1 19 1c18 0 91 -12 91 -93c0 -25 -9 -43 -15 -52c-18 -29 -48 -45 -114 -45c-14 0 -28 1 -41 2v51
c12 -2 24 -2 34 -2c45 0 71 10 71 44c0 35 -17 48 -82 48c-4 0 -9 0 -13 -1l6 82c-115 10 -153 74 -153 151v13h86v-13c0 -43 19 -96 107 -96c74 0 97 38 97 78c0 62 -49 77 -95 91l-64 19c-31 9 -117 34 -117 128c0 72 42 149 178 149c87 0 172 -36 172 -148v-6z" />
    <glyph glyph-name="Tcommaaccent" unicode="&#x162;" 
d="M500 639h-201v-639h-96v639h-203v67h500v-67zM301 -125l-57 -98h-49l57 98h-47v90h96v-90z" />
    <glyph glyph-name="tcommaaccent" unicode="&#x163;" horiz-adv-x="292" 
d="M171 449l-1 -302c0 -53 7 -93 65 -93c27 0 48 9 57 12v-58c-18 -6 -50 -17 -94 -17c-12 0 -48 0 -78 22c-35 26 -38 56 -38 136c0 0 1 264 2 300h-75v51h75v109l87 15v-124h94v-51h-94zM237 -125l-57 -98h-49l57 98h-47v90h96v-90z" />
    <glyph glyph-name="Tcaron" unicode="&#x164;" 
d="M500 639h-201v-639h-96v639h-203v67h500v-67zM367 895l-73 -136h-86l-76 136h67l53 -97l52 97h63z" />
    <glyph glyph-name="tcaron" unicode="&#x165;" horiz-adv-x="292" 
d="M171 449l-1 -302c0 -53 7 -93 65 -93c27 0 48 9 57 12v-58c-18 -6 -50 -17 -94 -17c-12 0 -48 0 -78 22c-35 26 -38 56 -38 136c0 0 1 264 2 300h-75v51h75v109l87 15v-124h94v-51h-94zM307 632l-54 -108h-51l55 108h-47v94h97v-94z" />
    <glyph glyph-name="Tbar" unicode="&#x166;" 
d="M64 406v67h139v166h-203v67h500v-67h-201v-166h134v-67h-134v-406h-96v406h-139z" />
    <glyph glyph-name="tbar" unicode="&#x167;" horiz-adv-x="292" 
d="M245 267h-75v-120c0 -53 7 -93 65 -93c27 0 48 9 57 12v-58c-18 -6 -50 -17 -94 -17c-12 0 -48 0 -78 22c-35 26 -38 56 -38 136v118h-63v51h63c1 59 1 116 2 131h-75v51h75v109l87 15v-124h94v-51h-94v-131h74v-51z" />
    <glyph glyph-name="Utilde" unicode="&#x168;" horiz-adv-x="667" 
d="M596 706v-456c0 -55 -2 -132 -67 -197c-30 -30 -98 -65 -200 -65c-62 0 -141 13 -191 56c-63 54 -67 139 -67 210v452h96v-464c0 -140 65 -193 172 -193c152 0 173 113 173 215v442h84zM473 890v-50c0 -53 -18 -81 -62 -81c-31 0 -59 21 -84 40l-25 19
c-13 10 -27 20 -33 20c-16 0 -16 -19 -16 -42v-32h-60v51c0 29 1 80 58 80c21 0 40 -5 76 -33l31 -24c15 -12 29 -21 37 -21c9 0 16 3 16 35v38h62z" />
    <glyph glyph-name="utilde" unicode="&#x169;" horiz-adv-x="542" 
d="M469 0h-85v58c-26 -24 -81 -68 -165 -68c-31 0 -63 4 -96 29c-51 39 -55 96 -55 153v328h85v-305c0 -69 7 -149 103 -149c33 0 77 13 99 36c25 26 29 48 29 80v338h85v-500zM411 690v-50c0 -53 -18 -81 -62 -81c-31 0 -59 21 -84 40l-25 19c-13 10 -27 20 -33 20
c-16 0 -16 -19 -16 -42v-32h-60v51c0 29 1 80 58 80c21 0 40 -5 76 -33l31 -24c15 -12 29 -21 37 -21c9 0 16 3 16 35v38h62z" />
    <glyph glyph-name="Umacron" unicode="&#x16a;" horiz-adv-x="667" 
d="M596 706v-456c0 -55 -2 -132 -67 -197c-30 -30 -98 -65 -200 -65c-62 0 -141 13 -191 56c-63 54 -67 139 -67 210v452h96v-464c0 -140 65 -193 172 -193c152 0 173 113 173 215v442h84zM466 775h-265v64h265v-64z" />
    <glyph glyph-name="umacron" unicode="&#x16b;" horiz-adv-x="542" 
d="M469 0h-85v58c-26 -24 -81 -68 -165 -68c-31 0 -63 4 -96 29c-51 39 -55 96 -55 153v328h85v-305c0 -69 7 -149 103 -149c33 0 77 13 99 36c25 26 29 48 29 80v338h85v-500zM403 575h-265v64h265v-64z" />
    <glyph glyph-name="Ubreve" unicode="&#x16c;" horiz-adv-x="667" 
d="M596 706v-456c0 -55 -2 -132 -67 -197c-30 -30 -98 -65 -200 -65c-62 0 -141 13 -191 56c-63 54 -67 139 -67 210v452h96v-464c0 -140 65 -193 172 -193c152 0 173 113 173 215v442h84zM399 887h61c0 -102 -77 -129 -130 -129c-75 0 -124 46 -124 122v7h62
c2 -25 10 -78 66 -78c52 0 62 43 65 78z" />
    <glyph glyph-name="ubreve" unicode="&#x16d;" horiz-adv-x="542" 
d="M469 0h-85v58c-26 -24 -81 -68 -165 -68c-31 0 -63 4 -96 29c-51 39 -55 96 -55 153v328h85v-305c0 -69 7 -149 103 -149c33 0 77 13 99 36c25 26 29 48 29 80v338h85v-500zM337 688h61c0 -102 -77 -129 -130 -129c-75 0 -124 46 -124 122v7h62c2 -25 10 -78 66 -78
c52 0 62 43 65 78z" />
    <glyph glyph-name="Uring" unicode="&#x16e;" horiz-adv-x="667" 
d="M596 706v-456c0 -55 -2 -132 -67 -197c-30 -30 -98 -65 -200 -65c-62 0 -141 13 -191 56c-63 54 -67 139 -67 210v452h96v-464c0 -140 65 -193 172 -193c152 0 173 113 173 215v442h84zM424 842c0 -56 -44 -91 -92 -91c-52 0 -90 42 -90 90c0 53 44 90 93 90
c46 0 89 -37 89 -89zM377 841c0 25 -19 43 -43 43s-45 -18 -45 -43c0 -24 17 -44 44 -44c24 0 44 17 44 44z" />
    <glyph glyph-name="uring" unicode="&#x16f;" horiz-adv-x="542" 
d="M469 0h-85v58c-26 -24 -81 -68 -165 -68c-31 0 -63 4 -96 29c-51 39 -55 96 -55 153v328h85v-305c0 -69 7 -149 103 -149c33 0 77 13 99 36c25 26 29 48 29 80v338h85v-500zM362 641c0 -56 -44 -91 -92 -91c-52 0 -90 42 -90 90c0 53 44 90 93 90c46 0 89 -36 89 -89z
M315 640c0 25 -19 43 -43 43s-45 -18 -45 -43c0 -24 17 -44 44 -44c24 0 44 17 44 44z" />
    <glyph glyph-name="Uhungarumlaut" unicode="&#x170;" horiz-adv-x="667" 
d="M596 706v-456c0 -55 -2 -132 -67 -197c-30 -30 -98 -65 -200 -65c-62 0 -141 13 -191 56c-63 54 -67 139 -67 210v452h96v-464c0 -140 65 -193 172 -193c152 0 173 113 173 215v442h84zM405 895l-144 -136h-68l112 136h100zM552 895l-144 -136h-68l112 136h100z" />
    <glyph glyph-name="uhungarumlaut" unicode="&#x171;" horiz-adv-x="542" 
d="M469 0h-85v58c-26 -24 -81 -68 -165 -68c-31 0 -63 4 -96 29c-51 39 -55 96 -55 153v328h85v-305c0 -69 7 -149 103 -149c33 0 77 13 99 36c25 26 29 48 29 80v338h85v-500zM348 695l-144 -136h-67l111 136h100zM494 695l-144 -136h-67l111 136h100z" />
    <glyph glyph-name="Uogonek" unicode="&#x172;" horiz-adv-x="667" 
d="M596 706v-456c0 -55 -2 -132 -67 -197c-24 -24 -72 -51 -141 -60c-23 -16 -56 -45 -56 -73c0 -26 25 -38 46 -38c12 0 24 3 29 4v-55c-13 -4 -30 -11 -58 -11c-42 0 -90 22 -90 73c0 43 34 72 70 95c-62 0 -141 13 -191 56c-63 54 -67 139 -67 210v452h96v-464
c0 -140 65 -193 172 -193c152 0 173 113 173 215v442h84z" />
    <glyph glyph-name="uogonek" unicode="&#x173;" horiz-adv-x="542" 
d="M469 0h-10c-20 -13 -67 -47 -67 -80c0 -26 25 -38 46 -38c12 0 24 3 29 4v-55c-13 -4 -30 -11 -58 -11c-42 0 -90 22 -90 73c0 50 47 82 89 107h-24v58c-26 -24 -81 -68 -165 -68c-31 0 -63 4 -96 29c-51 39 -55 96 -55 153v328h85v-305c0 -69 7 -149 103 -149
c33 0 77 13 99 36c25 26 29 48 29 80v338h85v-500z" />
    <glyph glyph-name="Wcircumflex" unicode="&#x174;" horiz-adv-x="854" 
d="M684 0h-142l-117 548l-140 -548h-144l-141 706h97l121 -648l173 648h81l148 -646l150 646h83zM550 759h-66l-54 97l-51 -97h-64l73 136h86z" />
    <glyph glyph-name="wcircumflex" unicode="&#x175;" horiz-adv-x="708" 
d="M708 500l-148 -500h-92l-111 384l-121 -384h-91l-145 500h91l108 -411l128 411h79l114 -411l113 411h75zM482 559h-66l-54 97l-51 -97h-64l73 136h86z" />
    <glyph glyph-name="Ycircumflex" unicode="&#x176;" horiz-adv-x="604" 
d="M604 706l-248 -448v-258h-92v258l-264 448h113l203 -363l192 363h96zM434 759h-66l-54 97l-51 -97h-64l73 136h86z" />
    <glyph glyph-name="ycircumflex" unicode="&#x177;" horiz-adv-x="437" 
d="M438 500l-203 -566c-26 -73 -56 -139 -163 -139c-15 0 -33 0 -62 8v69c12 -3 30 -9 57 -9c63 0 84 39 103 93l14 40l-184 504h96l133 -397l130 397h79zM345 559h-66l-54 97l-51 -97h-64l73 136h86z" />
    <glyph glyph-name="Zacute" unicode="&#x179;" horiz-adv-x="604" 
d="M567 0h-538v66l427 573h-381v67h491v-70l-426 -569h427v-67zM480 895l-144 -136h-74l113 136h105z" />
    <glyph glyph-name="zacute" unicode="&#x17a;" horiz-adv-x="417" 
d="M399 0h-382v58l282 382h-258v60h357v-60l-281 -380h282v-60zM378 695l-144 -136h-75l113 136h106z" />
    <glyph glyph-name="Zdotaccent" unicode="&#x17b;" horiz-adv-x="604" 
d="M567 0h-538v66l427 573h-381v67h491v-70l-426 -569h427v-67zM378 777h-89v92h89v-92z" />
    <glyph glyph-name="zdotaccent" unicode="&#x17c;" horiz-adv-x="417" 
d="M399 0h-382v58l282 382h-258v60h357v-60l-281 -380h282v-60zM276 577h-89v92h89v-92z" />
    <glyph glyph-name="longs" unicode="&#x17f;" horiz-adv-x="269" 
d="M181 0h-86v449h-76v51h76v47c0 113 49 161 140 161c22 0 52 -4 71 -15v-60c-15 8 -31 16 -56 16c-65 0 -69 -39 -69 -95v-554z" />
    <glyph glyph-name="Aringacute" unicode="&#x1fa;" horiz-adv-x="646" 
d="M463 998l-109 -94h-58l72 94h95zM645 0h-101l-94 276h-253l-107 -276h-89l283 706h114zM427 341l-96 286l-109 -286h205zM414 808c0 -47 -36 -76 -75 -76c-44 0 -75 35 -75 75c0 44 37 75 77 75c38 0 73 -31 73 -74zM376 807c0 21 -17 36 -36 36c-20 0 -37 -15 -37 -36
c0 -20 14 -36 36 -36c20 0 37 14 37 36z" />
    <glyph glyph-name="aringacute" unicode="&#x1fb;" 
d="M400 862l-144 -126h-67l98 126h113zM336 626c0 -52 -42 -84 -87 -84c-49 0 -85 39 -85 84c0 49 42 83 88 83c43 0 84 -33 84 -83zM292 626c0 23 -18 39 -41 39s-43 -16 -43 -39s17 -41 42 -41c23 0 42 15 42 41zM451 0h-66c-33 0 -41 11 -41 41v14
c-43 -49 -101 -65 -148 -65c-96 0 -157 49 -157 145c0 68 40 104 63 117c34 19 81 35 242 50v53c0 67 -28 100 -95 100c-31 0 -111 -4 -111 -107v-7h-81v15c0 119 101 155 198 155c80 0 127 -24 150 -57c19 -27 23 -70 23 -108v-273c0 -38 5 -58 23 -61v-12zM344 180v75
c-103 -12 -147 -24 -169 -37c-34 -20 -45 -51 -45 -81c0 -56 33 -90 91 -90c31 0 57 8 77 21c43 28 46 75 46 112z" />
    <glyph glyph-name="AEacute" unicode="&#x1fc;" horiz-adv-x="917" 
d="M890 0h-416v334h-212l-168 -334h-94l356 706h509v-67h-296v-238h270v-67h-270v-266h321v-68zM474 401v238h-60l-117 -238h177zM741 895l-144 -136h-74l113 136h105z" />
    <glyph glyph-name="aeacute" unicode="&#x1fd;" horiz-adv-x="792" 
d="M756 252h-327v-20c0 -151 53 -186 123 -186c32 0 111 11 117 107h84c0 -46 -29 -163 -210 -163c-106 0 -151 42 -179 85c-18 -27 -59 -85 -174 -85c-136 0 -161 93 -161 147c0 147 146 169 267 169h51v53c0 69 -32 96 -99 96c-105 0 -120 -65 -120 -110v-5h-81v15
c0 41 12 156 208 156c74 0 128 -23 150 -61c15 17 55 61 154 61c98 0 145 -50 165 -85c15 -25 32 -76 32 -149v-25zM431 306h239c0 18 -1 87 -43 124c-28 24 -57 25 -70 25c-30 0 -114 -12 -126 -149zM347 160v94c-58 -5 -228 15 -228 -111c0 -60 42 -96 100 -96
c88 0 128 58 128 113zM551 695l-144 -136h-75l113 136h106z" />
    <glyph glyph-name="Oslashacute" unicode="&#x1fe;" horiz-adv-x="688" 
d="M576 763l43 -27l-57 -88c68 -67 78 -181 78 -271c0 -205 -46 -390 -300 -390c-100 0 -144 22 -180 47l-51 -79l-44 27l55 85c-43 57 -72 132 -72 278c0 34 2 187 69 278c34 45 100 97 229 97c92 0 137 -20 175 -41zM512 573l-308 -473c37 -37 71 -54 131 -54
c138 0 168 90 179 125c23 70 29 171 29 218c0 63 -7 126 -31 184zM175 149l305 466c-20 18 -52 45 -130 45c-136 0 -167 -97 -179 -132c-21 -63 -26 -129 -26 -194c0 -112 17 -155 30 -185zM505 895l-144 -136h-74l113 136h105z" />
    <glyph glyph-name="oslashacute" unicode="&#x1ff;" horiz-adv-x="521" 
d="M69 -49l-37 26l57 80c-29 29 -49 93 -49 175c0 146 45 279 227 279c62 0 97 -17 126 -32l53 74l37 -26l-53 -74c48 -43 51 -133 51 -170c0 -189 -62 -293 -220 -293c-69 0 -96 13 -137 37zM380 384l-217 -302c9 -11 34 -39 95 -39c89 0 137 60 137 222
c0 40 -3 80 -15 119zM140 127l215 299c-16 13 -40 32 -88 32c-142 0 -142 -167 -142 -217c0 -31 2 -88 15 -114zM439 695l-144 -136h-75l113 136h106z" />
    <glyph glyph-name="Scommaaccent" unicode="&#x218;" horiz-adv-x="542" 
d="M490 521h-89c0 98 -51 137 -126 137c-42 0 -86 -12 -114 -46c-22 -27 -23 -56 -23 -69c0 -72 53 -95 135 -127l48 -19c131 -52 184 -104 184 -205c0 -36 -9 -204 -245 -204c-163 0 -241 74 -241 207v13h96v-16c0 -135 111 -143 150 -143c112 0 144 71 144 131
c0 82 -69 110 -136 136l-60 23c-69 27 -169 68 -169 190c0 19 1 66 34 110c48 65 127 79 202 79c104 0 153 -31 181 -74c11 -16 30 -52 30 -104c0 -6 0 -12 -1 -19zM324 -125l-57 -98h-49l57 98h-47v90h96v-90z" />
    <glyph glyph-name="scommaaccent" unicode="&#x219;" horiz-adv-x="437" 
d="M395 357h-81v14c0 34 -17 87 -94 87c-67 0 -96 -38 -96 -75c0 -48 51 -68 97 -81l52 -15c84 -24 132 -66 132 -146c0 -75 -47 -151 -189 -151c-140 0 -185 69 -185 152v13h86v-13c0 -43 19 -96 107 -96c74 0 97 38 97 78c0 62 -49 77 -95 91l-64 19
c-31 9 -117 34 -117 128c0 72 42 149 178 149c87 0 172 -36 172 -148v-6zM271 -125l-57 -98h-49l57 98h-47v90h96v-90z" />
    <glyph glyph-name="uni021A" unicode="&#x21a;" 
d="M500 639h-201v-639h-96v639h-203v67h500v-67zM301 -125l-57 -98h-49l57 98h-47v90h96v-90z" />
    <glyph glyph-name="uni021B" unicode="&#x21b;" horiz-adv-x="292" 
d="M171 449l-1 -302c0 -53 7 -93 65 -93c27 0 48 9 57 12v-58c-18 -6 -50 -17 -94 -17c-12 0 -48 0 -78 22c-35 26 -38 56 -38 136c0 0 1 264 2 300h-75v51h75v109l87 15v-124h94v-51h-94zM237 -125l-57 -98h-49l57 98h-47v90h96v-90z" />
    <glyph glyph-name="Wgrave" unicode="&#x1e80;" horiz-adv-x="854" 
d="M684 0h-142l-117 548l-140 -548h-144l-141 706h97l121 -648l173 648h81l148 -646l150 646h83zM489 759h-73l-104 136h99z" />
    <glyph glyph-name="wgrave" unicode="&#x1e81;" horiz-adv-x="708" 
d="M708 500l-148 -500h-92l-111 384l-121 -384h-91l-145 500h91l108 -411l128 411h79l114 -411l113 411h75zM417 559h-73l-104 136h99z" />
    <glyph glyph-name="Wacute" unicode="&#x1e82;" horiz-adv-x="854" 
d="M684 0h-142l-117 548l-140 -548h-144l-141 706h97l121 -648l173 648h81l148 -646l150 646h83zM589 895l-144 -136h-74l113 136h105z" />
    <glyph glyph-name="wacute" unicode="&#x1e83;" horiz-adv-x="708" 
d="M708 500l-148 -500h-92l-111 384l-121 -384h-91l-145 500h91l108 -411l128 411h79l114 -411l113 411h75zM526 695l-144 -136h-75l113 136h106z" />
    <glyph glyph-name="Wdieresis" unicode="&#x1e84;" horiz-adv-x="854" 
d="M684 0h-142l-117 548l-140 -548h-144l-141 706h97l121 -648l173 648h81l148 -646l150 646h83zM553 777h-88v92h88v-92zM389 777h-89v92h89v-92z" />
    <glyph glyph-name="wdieresis" unicode="&#x1e85;" horiz-adv-x="708" 
d="M708 500l-148 -500h-92l-111 384l-121 -384h-91l-145 500h91l108 -411l128 411h79l114 -411l113 411h75zM488 577h-89v92h89v-92zM324 577h-89v92h89v-92z" />
    <glyph glyph-name="Ygrave" unicode="&#x1ef2;" horiz-adv-x="604" 
d="M604 706l-248 -448v-258h-92v258l-264 448h113l203 -363l192 363h96zM369 759h-73l-104 136h99z" />
    <glyph glyph-name="ygrave" unicode="&#x1ef3;" horiz-adv-x="437" 
d="M438 500l-203 -566c-26 -73 -56 -139 -163 -139c-15 0 -33 0 -62 8v69c12 -3 30 -9 57 -9c63 0 84 39 103 93l14 40l-184 504h96l133 -397l130 397h79zM283 559h-73l-104 136h99z" />
    <glyph glyph-name="uniF6C1" unicode="&#xf6c1;" horiz-adv-x="542" 
d="M490 521h-89c0 98 -51 137 -126 137c-42 0 -86 -12 -114 -46c-22 -27 -23 -56 -23 -69c0 -72 53 -95 135 -127l48 -19c131 -52 184 -104 184 -205c0 -35 -9 -196 -229 -203l-2 -33c6 1 12 1 19 1c18 0 91 -12 91 -93c0 -25 -9 -43 -15 -52c-18 -29 -48 -45 -114 -45
c-14 0 -28 1 -41 2v51c12 -2 24 -2 34 -2c45 0 71 10 71 44c0 35 -17 48 -82 48c-4 0 -9 0 -13 -1l6 80c-143 9 -211 81 -211 206v13h96v-16c0 -135 111 -143 150 -143c112 0 144 71 144 131c0 82 -69 110 -136 136l-60 23c-69 27 -169 68 -169 190c0 19 1 66 34 110
c48 65 127 79 202 79c104 0 153 -31 181 -74c11 -16 30 -52 30 -104c0 -6 0 -12 -1 -19z" />
    <glyph glyph-name="uniF6C2" unicode="&#xf6c2;" horiz-adv-x="437" 
d="M395 357h-81v14c0 34 -17 87 -94 87c-67 0 -96 -38 -96 -75c0 -48 51 -68 97 -81l52 -15c84 -24 132 -66 132 -146c0 -73 -44 -146 -175 -151l-2 -34c6 1 12 1 19 1c18 0 91 -12 91 -93c0 -25 -9 -43 -15 -52c-18 -29 -48 -45 -114 -45c-14 0 -28 1 -41 2v51
c12 -2 24 -2 34 -2c45 0 71 10 71 44c0 35 -17 48 -82 48c-4 0 -9 0 -13 -1l6 82c-115 10 -153 74 -153 151v13h86v-13c0 -43 19 -96 107 -96c74 0 97 38 97 78c0 62 -49 77 -95 91l-64 19c-31 9 -117 34 -117 128c0 72 42 149 178 149c87 0 172 -36 172 -148v-6z" />
    <glyph glyph-name="amacron.sc" horiz-adv-x="529" 
d="M525 0h-91l-71 189h-197l-79 -189h-88l226 519h102zM345 246l-73 202l-87 -202h160zM406 575h-265v64h265v-64z" />
    <glyph glyph-name="abreve.sc" horiz-adv-x="529" 
d="M525 0h-91l-71 189h-197l-79 -189h-88l226 519h102zM345 246l-73 202l-87 -202h160zM339 688h61c0 -102 -77 -129 -130 -129c-75 0 -124 46 -124 122v7h62c2 -25 10 -78 66 -78c52 0 62 43 65 78z" />
    <glyph glyph-name="aogonek.sc" horiz-adv-x="529" 
d="M525 0h-11c-20 -13 -67 -47 -67 -80c0 -26 25 -38 46 -38c12 0 24 3 29 4v-55c-13 -4 -30 -11 -58 -11c-42 0 -90 22 -90 73c0 50 47 82 89 107h-29l-71 189h-197l-79 -189h-88l226 519h102zM345 246l-73 202l-87 -202h160z" />
    <glyph glyph-name="cacute.sc" horiz-adv-x="519" 
d="M488 353h-84c0 79 -48 122 -126 122c-95 0 -148 -48 -148 -236c0 -150 50 -195 142 -195c80 0 135 42 141 125h83c-7 -119 -84 -178 -231 -178c-153 0 -223 64 -223 249c0 203 71 289 239 289c144 0 207 -60 207 -176zM422 695l-144 -136h-75l113 136h106z" />
    <glyph glyph-name="ccircumflex.sc" horiz-adv-x="519" 
d="M488 353h-84c0 79 -48 122 -126 122c-95 0 -148 -48 -148 -236c0 -150 50 -195 142 -195c80 0 135 42 141 125h83c-7 -119 -84 -178 -231 -178c-153 0 -223 64 -223 249c0 203 71 289 239 289c144 0 207 -60 207 -176zM399 559h-66l-54 97l-51 -97h-64l73 136h86z" />
    <glyph glyph-name="cdotaccent.sc" horiz-adv-x="519" 
d="M488 353h-84c0 79 -48 122 -126 122c-95 0 -148 -48 -148 -236c0 -150 50 -195 142 -195c80 0 135 42 141 125h83c-7 -119 -84 -178 -231 -178c-153 0 -223 64 -223 249c0 203 71 289 239 289c144 0 207 -60 207 -176zM326 577h-89v92h89v-92z" />
    <glyph glyph-name="ccaron.sc" horiz-adv-x="519" 
d="M488 353h-84c0 79 -48 122 -126 122c-95 0 -148 -48 -148 -236c0 -150 50 -195 142 -195c80 0 135 42 141 125h83c-7 -119 -84 -178 -231 -178c-153 0 -223 64 -223 249c0 203 71 289 239 289c144 0 207 -60 207 -176zM396 695l-73 -136h-87l-77 136h67l54 -97l51 97h65z
" />
    <glyph glyph-name="dcaron.sc" horiz-adv-x="571" 
d="M66 0v519h176c96 0 137 -6 178 -26c71 -35 109 -115 109 -229c0 -93 -23 -160 -71 -204c-57 -51 -103 -60 -244 -60h-148zM150 57h68c83 0 117 6 151 28c49 31 72 87 72 176c0 69 -17 127 -47 158c-30 32 -74 43 -154 43h-90v-405zM362 695l-73 -136h-87l-77 136h67
l54 -97l51 97h65z" />
    <glyph glyph-name="dcroat.sc" horiz-adv-x="571" 
d="M66 301v218h176c96 0 139 -6 180 -26c70 -35 107 -113 107 -228c0 -158 -70 -243 -192 -260c-29 -4 -52 -5 -123 -5h-148v246h-66v55h66zM150 246v-189h68c83 0 117 7 151 28c49 31 72 87 72 176c0 69 -18 129 -47 158c-30 31 -73 43 -154 43h-90v-161h173v-55h-173z" />
    <glyph glyph-name="emacron.sc" horiz-adv-x="436" 
d="M416 61v-61h-350v519h328v-61h-243v-158h223v-60h-223v-179h265zM365 575h-265v64h265v-64z" />
    <glyph glyph-name="ebreve.sc" horiz-adv-x="436" 
d="M416 61v-61h-350v519h328v-61h-243v-158h223v-60h-223v-179h265zM296 688h61c0 -102 -77 -129 -130 -129c-75 0 -124 46 -124 122v7h62c2 -25 10 -78 66 -78c52 0 62 43 65 78z" />
    <glyph glyph-name="edotaccent.sc" horiz-adv-x="436" 
d="M416 61v-61h-350v519h328v-61h-243v-158h223v-60h-223v-179h265zM276 577h-89v92h89v-92z" />
    <glyph glyph-name="eogonek.sc" horiz-adv-x="436" 
d="M416 61v-61h-10c-20 -13 -67 -47 -67 -80c0 -26 25 -38 46 -38c12 0 24 3 29 4v-55c-13 -4 -30 -11 -58 -11c-42 0 -90 22 -90 73c0 50 47 82 89 107h-289v519h328v-61h-243v-158h223v-60h-223v-179h265z" />
    <glyph glyph-name="ecaron.sc" horiz-adv-x="436" 
d="M416 61v-61h-350v519h328v-61h-243v-158h223v-60h-223v-179h265zM350 695l-73 -136h-87l-77 136h67l54 -97l51 97h65z" />
    <glyph glyph-name="gcircumflex.sc" horiz-adv-x="544" 
d="M491 267v-267h-78v44c-43 -37 -92 -53 -161 -53c-143 0 -216 68 -216 257c0 195 76 281 249 281c140 0 205 -58 208 -171h-85c-6 81 -46 118 -131 118c-106 0 -153 -69 -153 -224c0 -137 38 -206 148 -206c52 0 102 20 126 52c12 16 16 36 16 79v34h-128v56h205zM395 559
h-66l-54 97l-51 -97h-64l73 136h86z" />
    <glyph glyph-name="gbreve.sc" horiz-adv-x="544" 
d="M491 267v-267h-78v44c-43 -37 -92 -53 -161 -53c-143 0 -216 68 -216 257c0 195 76 281 249 281c140 0 205 -58 208 -171h-85c-6 81 -46 118 -131 118c-106 0 -153 -69 -153 -224c0 -137 38 -206 148 -206c52 0 102 20 126 52c12 16 16 36 16 79v34h-128v56h205zM341 688
h61c0 -102 -77 -129 -130 -129c-75 0 -124 46 -124 122v7h62c2 -25 10 -78 66 -78c52 0 62 43 65 78z" />
    <glyph glyph-name="gdotaccent.sc" horiz-adv-x="544" 
d="M491 267v-267h-78v44c-43 -37 -92 -53 -161 -53c-143 0 -216 68 -216 257c0 195 76 281 249 281c140 0 205 -58 208 -171h-85c-6 81 -46 118 -131 118c-106 0 -153 -69 -153 -224c0 -137 38 -206 148 -206c52 0 102 20 126 52c12 16 16 36 16 79v34h-128v56h205zM323 577
h-89v92h89v-92z" />
    <glyph glyph-name="gcommaaccent.sc" horiz-adv-x="544" 
d="M491 267v-267h-78v44c-43 -37 -92 -53 -161 -53c-143 0 -216 68 -216 257c0 195 76 281 249 281c140 0 205 -58 208 -171h-85c-6 81 -46 118 -131 118c-106 0 -153 -69 -153 -224c0 -137 38 -206 148 -206c52 0 102 20 126 52c12 16 16 36 16 79v34h-128v56h205z
M325 -125l-57 -98h-49l57 98h-47v90h96v-90z" />
    <glyph glyph-name="hbar.sc" horiz-adv-x="563" 
d="M26 389v60h40v70h85v-70h261v70h84v-70h40v-60h-40v-389h-84v245h-261v-245h-85v389h-40zM151 305h261v84h-261v-84z" />
    <glyph glyph-name="hcircumflex.sc" horiz-adv-x="563" 
d="M496 0h-84v245h-261v-245h-85v519h85v-214h261v214h84v-519zM399 559h-66l-54 97l-51 -97h-64l73 136h86z" />
    <glyph glyph-name="itilde.sc" horiz-adv-x="217" 
d="M151 0h-85v519h85v-519zM249 691v-50c0 -53 -18 -81 -62 -81c-31 0 -59 21 -84 40l-25 19c-13 10 -27 20 -33 20c-16 0 -16 -19 -16 -42v-32h-60v51c0 29 1 80 58 80c21 0 40 -5 76 -33l31 -24c15 -12 29 -21 37 -21c9 0 16 3 16 35v38h62z" />
    <glyph glyph-name="imacron.sc" horiz-adv-x="217" 
d="M220 575h-223v64h223v-64zM151 0h-85v519h85v-519z" />
    <glyph glyph-name="ibreve.sc" horiz-adv-x="217" 
d="M151 0h-85v519h85v-519zM175 688h61c0 -102 -77 -129 -130 -129c-75 0 -124 46 -124 122v7h62c2 -25 10 -78 66 -78c52 0 62 43 65 78z" />
    <glyph glyph-name="iogonek.sc" horiz-adv-x="217" 
d="M151 0h-9c-20 -13 -67 -47 -67 -80c0 -26 25 -38 46 -38c12 0 24 3 29 4v-55c-13 -4 -30 -11 -58 -11c-42 0 -90 22 -90 73c0 50 47 82 89 107h-25v519h85v-519z" />
    <glyph glyph-name="idotaccent.sc" horiz-adv-x="217" 
d="M151 0h-85v519h85v-519zM153 577h-89v92h89v-92z" />
    <glyph glyph-name="ij.sc" horiz-adv-x="557" 
d="M151 0h-85v519h85v-519zM412 519h85v-336c0 -60 -5 -93 -17 -118c-23 -47 -74 -73 -144 -73c-44 0 -74 6 -118 24v66c42 -21 69 -29 104 -29c59 0 90 21 90 123v343z" />
    <glyph glyph-name="jcircumflex.sc" horiz-adv-x="340" 
d="M195 519h85v-336c0 -60 -5 -93 -17 -118c-23 -47 -74 -73 -144 -73c-44 0 -74 6 -118 24v66c42 -21 69 -29 104 -29c59 0 90 21 90 123v343zM356 559h-66l-54 97l-51 -97h-64l73 136h86z" />
    <glyph glyph-name="kcommaaccent.sc" horiz-adv-x="499" 
d="M485 519l-208 -209l228 -310h-102l-186 249l-70 -67v-182h-81v519h81v-248l244 248h94zM302 -125l-57 -98h-49l57 98h-47v90h96v-90z" />
    <glyph glyph-name="lacute.sc" horiz-adv-x="427" 
d="M413 61v-61h-347v519h85v-458h262zM288 695l-144 -136h-75l113 136h106z" />
    <glyph glyph-name="lcommaaccent.sc" horiz-adv-x="427" 
d="M413 61v-61h-347v519h85v-458h262zM266 -125l-57 -98h-49l57 98h-47v90h96v-90z" />
    <glyph glyph-name="lcaron.sc" horiz-adv-x="427" 
d="M413 61v-61h-347v519h85v-458h262zM290 425l-54 -108h-51l55 108h-47v94h97v-94z" />
    <glyph glyph-name="ldot.sc" horiz-adv-x="427" 
d="M413 61v-61h-347v519h85v-458h262zM349 254h-87v86h87v-86z" />
    <glyph glyph-name="nacute.sc" horiz-adv-x="593" 
d="M527 519v-519h-103c-246 366 -266 395 -282 425c0 -41 2 -67 2 -425h-78v519h101c237 -353 263 -394 285 -431c-2 33 -2 66 -2 431h77zM456 695l-144 -136h-75l113 136h106z" />
    <glyph glyph-name="ncommaaccent.sc" horiz-adv-x="593" 
d="M527 519v-519h-103c-246 366 -266 395 -282 425c0 -41 2 -67 2 -425h-78v519h101c237 -353 263 -394 285 -431c-2 33 -2 66 -2 431h77zM349 -125l-57 -98h-49l57 98h-47v90h96v-90z" />
    <glyph glyph-name="ncaron.sc" horiz-adv-x="593" 
d="M527 519v-519h-103c-246 366 -266 395 -282 425c0 -41 2 -67 2 -425h-78v519h101c237 -353 263 -394 285 -431c-2 33 -2 66 -2 431h77zM415 695l-73 -136h-87l-77 136h67l54 -97l51 97h65z" />
    <glyph glyph-name="eng.sc" horiz-adv-x="593" 
d="M527 519v-542c0 -85 -14 -184 -149 -184c-17 0 -30 2 -39 4v63c11 -2 22 -3 31 -3c54 0 71 38 71 108v9c-240 356 -283 421 -299 451c0 -41 2 -67 2 -425h-78v519h101c237 -353 263 -394 285 -431c-2 33 -2 66 -2 431h77z" />
    <glyph glyph-name="omacron.sc" horiz-adv-x="566" 
d="M524 269c0 -194 -75 -279 -246 -279c-163 0 -236 82 -236 265s82 274 247 274c164 0 235 -78 235 -260zM435 268c0 105 -19 207 -146 207c-109 0 -158 -68 -158 -222c0 -142 48 -210 149 -210c109 0 155 67 155 225zM415 575h-265v64h265v-64z" />
    <glyph glyph-name="obreve.sc" horiz-adv-x="566" 
d="M524 269c0 -194 -75 -279 -246 -279c-163 0 -236 82 -236 265s82 274 247 274c164 0 235 -78 235 -260zM435 268c0 105 -19 207 -146 207c-109 0 -158 -68 -158 -222c0 -142 48 -210 149 -210c109 0 155 67 155 225zM349 688h61c0 -102 -77 -129 -130 -129
c-75 0 -124 46 -124 122v7h62c2 -25 10 -78 66 -78c52 0 62 43 65 78z" />
    <glyph glyph-name="ohungarumlaut.sc" horiz-adv-x="566" 
d="M524 269c0 -194 -75 -279 -246 -279c-163 0 -236 82 -236 265s82 274 247 274c164 0 235 -78 235 -260zM435 268c0 105 -19 207 -146 207c-109 0 -158 -68 -158 -222c0 -142 48 -210 149 -210c109 0 155 67 155 225zM359 695l-144 -136h-67l111 136h100zM505 695
l-144 -136h-67l111 136h100z" />
    <glyph glyph-name="racute.sc" horiz-adv-x="510" 
d="M150 276h71c57 0 78 2 102 10c33 12 53 44 53 87c0 34 -16 70 -50 82c-23 8 -36 10 -97 10h-79v-189zM66 519h201c38 0 78 -1 113 -12c54 -17 84 -66 84 -122c0 -68 -40 -121 -108 -134c115 -30 83 -178 148 -251h-93c-22 14 -32 61 -37 84c-25 107 -34 139 -152 139h-72
v-223h-84v519zM391 695l-144 -136h-75l113 136h106z" />
    <glyph glyph-name="rcommaaccent.sc" horiz-adv-x="510" 
d="M150 276h71c57 0 78 2 102 10c33 12 53 44 53 87c0 34 -16 70 -50 82c-23 8 -36 10 -97 10h-79v-189zM66 519h201c38 0 78 -1 113 -12c54 -17 84 -66 84 -122c0 -68 -40 -121 -108 -134c115 -30 83 -178 148 -251h-93c-22 14 -32 61 -37 84c-25 107 -34 139 -152 139h-72
v-223h-84v519zM308 -125l-57 -98h-49l57 98h-47v90h96v-90z" />
    <glyph glyph-name="rcaron.sc" horiz-adv-x="510" 
d="M150 276h71c57 0 78 2 102 10c33 12 53 44 53 87c0 34 -16 70 -50 82c-23 8 -36 10 -97 10h-79v-189zM66 519h201c38 0 78 -1 113 -12c54 -17 84 -66 84 -122c0 -68 -40 -121 -108 -134c115 -30 83 -178 148 -251h-93c-22 14 -32 61 -37 84c-25 107 -34 139 -152 139h-72
v-223h-84v519zM352 695l-73 -136h-87l-77 136h67l54 -97l51 97h65z" />
    <glyph glyph-name="sacute.sc" horiz-adv-x="447" 
d="M405 382h-76c-3 61 -38 93 -106 93c-65 0 -102 -28 -102 -76c0 -36 24 -61 79 -80l62 -21c114 -39 154 -78 154 -153c0 -96 -78 -154 -206 -154c-132 0 -196 53 -197 162h83v-8c0 -63 45 -100 120 -100c71 0 117 33 117 86c0 41 -25 64 -96 89l-64 23
c-98 35 -136 72 -136 142c0 90 71 142 192 142c115 0 176 -46 176 -133v-12zM375 695l-144 -136h-75l113 136h106z" />
    <glyph glyph-name="scircumflex.sc" horiz-adv-x="447" 
d="M405 382h-76c-3 61 -38 93 -106 93c-65 0 -102 -28 -102 -76c0 -36 24 -61 79 -80l62 -21c114 -39 154 -78 154 -153c0 -96 -78 -154 -206 -154c-132 0 -196 53 -197 162h83v-8c0 -63 45 -100 120 -100c71 0 117 33 117 86c0 41 -25 64 -96 89l-64 23
c-98 35 -136 72 -136 142c0 90 71 142 192 142c115 0 176 -46 176 -133v-12zM341 559h-66l-54 97l-51 -97h-64l73 136h86z" />
    <glyph glyph-name="scedilla.sc" horiz-adv-x="447" 
d="M405 382h-76c-3 61 -38 93 -106 93c-65 0 -102 -28 -102 -76c0 -36 24 -61 79 -80l62 -21c114 -39 154 -78 154 -153c0 -93 -73 -150 -193 -154l-2 -35c6 1 12 1 19 1c18 0 91 -12 91 -93c0 -25 -9 -43 -15 -52c-18 -29 -48 -45 -114 -45c-14 0 -28 1 -41 2v51
c12 -2 24 -2 34 -2c45 0 71 10 71 44c0 35 -17 48 -82 48c-4 0 -9 0 -13 -1l6 83c-110 8 -163 61 -164 161h83v-8c0 -63 45 -100 120 -100c71 0 117 33 117 86c0 41 -25 64 -96 89l-64 23c-98 35 -136 72 -136 142c0 90 71 142 192 142c115 0 176 -46 176 -133v-12z" />
    <glyph glyph-name="tcommaaccent.sc" horiz-adv-x="415" 
d="M251 458v-458h-85v458h-163v61h410v-61h-162zM258 -125l-57 -98h-49l57 98h-47v90h96v-90z" />
    <glyph glyph-name="tcaron.sc" horiz-adv-x="415" 
d="M251 458v-458h-85v458h-163v61h410v-61h-162zM326 695l-73 -136h-87l-77 136h67l54 -97l51 97h65z" />
    <glyph glyph-name="tbar.sc" horiz-adv-x="415" 
d="M58 279v60h108v119h-163v61h410v-61h-162v-119h108v-60h-108v-279h-85v279h-108z" />
    <glyph glyph-name="utilde.sc" horiz-adv-x="557" 
d="M413 519h84v-333c0 -115 -55 -195 -224 -195c-160 0 -213 71 -213 188v340h84v-332c0 -106 54 -140 134 -140c75 0 135 31 135 149v323zM418 691v-50c0 -53 -18 -81 -62 -81c-31 0 -59 21 -84 40l-25 19c-13 10 -27 20 -33 20c-16 0 -16 -19 -16 -42v-32h-60v51
c0 29 1 80 58 80c21 0 40 -5 76 -33l31 -24c15 -12 29 -21 37 -21c9 0 16 3 16 35v38h62z" />
    <glyph glyph-name="umacron.sc" horiz-adv-x="557" 
d="M413 519h84v-333c0 -115 -55 -195 -224 -195c-160 0 -213 71 -213 188v340h84v-332c0 -106 54 -140 134 -140c75 0 135 31 135 149v323zM411 575h-265v64h265v-64z" />
    <glyph glyph-name="ubreve.sc" horiz-adv-x="557" 
d="M413 519h84v-333c0 -115 -55 -195 -224 -195c-160 0 -213 71 -213 188v340h84v-332c0 -106 54 -140 134 -140c75 0 135 31 135 149v323zM344 688h61c0 -102 -77 -129 -130 -129c-75 0 -124 46 -124 122v7h62c2 -25 10 -78 66 -78c52 0 62 43 65 78z" />
    <glyph glyph-name="uring.sc" horiz-adv-x="557" 
d="M413 519h84v-333c0 -115 -55 -195 -224 -195c-160 0 -213 71 -213 188v340h84v-332c0 -106 54 -140 134 -140c75 0 135 31 135 149v323zM369 641c0 -56 -44 -91 -92 -91c-52 0 -90 42 -90 90c0 53 44 90 93 90c46 0 89 -36 89 -89zM322 640c0 25 -19 43 -43 43
s-45 -18 -45 -43c0 -24 17 -44 44 -44c24 0 44 17 44 44z" />
    <glyph glyph-name="uhungarumlaut.sc" horiz-adv-x="557" 
d="M413 519h84v-333c0 -115 -55 -195 -224 -195c-160 0 -213 71 -213 188v340h84v-332c0 -106 54 -140 134 -140c75 0 135 31 135 149v323zM345 695l-144 -136h-67l111 136h100zM491 695l-144 -136h-67l111 136h100z" />
    <glyph glyph-name="uogonek.sc" horiz-adv-x="557" 
d="M413 519h84v-333c0 -99 -41 -172 -160 -190c-22 -16 -60 -46 -60 -76c0 -26 25 -38 46 -38c12 0 24 3 29 4v-55c-13 -4 -30 -11 -58 -11c-42 0 -90 22 -90 73c0 44 37 75 75 98h-6c-160 0 -213 71 -213 188v340h84v-332c0 -106 54 -140 134 -140c75 0 135 31 135 149v323
z" />
    <glyph glyph-name="wacute.sc" horiz-adv-x="719" 
d="M574 0h-118c-34 134 -70 266 -99 401c-9 -41 -20 -81 -113 -401h-119l-122 519h90c34 -153 71 -306 102 -460c38 154 83 307 125 460h82c37 -153 75 -306 111 -459c7 30 14 60 119 459h83zM507 695l-144 -136h-75l113 136h106z" />
    <glyph glyph-name="wcircumflex.sc" horiz-adv-x="719" 
d="M574 0h-118c-34 134 -70 266 -99 401c-9 -41 -20 -81 -113 -401h-119l-122 519h90c34 -153 71 -306 102 -460c38 154 83 307 125 460h82c37 -153 75 -306 111 -459c7 30 14 60 119 459h83zM477 559h-66l-54 97l-51 -97h-64l73 136h86z" />
    <glyph glyph-name="wdieresis.sc" horiz-adv-x="719" 
d="M574 0h-118c-34 134 -70 266 -99 401c-9 -41 -20 -81 -113 -401h-119l-122 519h90c34 -153 71 -306 102 -460c38 154 83 307 125 460h82c37 -153 75 -306 111 -459c7 30 14 60 119 459h83zM486 577h-89v92h89v-92zM322 577h-89v92h89v-92z" />
    <glyph glyph-name="wgrave.sc" horiz-adv-x="719" 
d="M574 0h-118c-34 134 -70 266 -99 401c-9 -41 -20 -81 -113 -401h-119l-122 519h90c34 -153 71 -306 102 -460c38 154 83 307 125 460h82c37 -153 75 -306 111 -459c7 30 14 60 119 459h83zM425 559h-73l-104 136h99z" />
    <glyph glyph-name="ycircumflex.sc" horiz-adv-x="493" 
d="M296 189v-189h-85v189l-214 330h101l160 -253l149 253h91zM375 559h-66l-54 97l-51 -97h-64l73 136h86z" />
    <glyph glyph-name="ygrave.sc" horiz-adv-x="493" 
d="M296 189v-189h-85v189l-214 330h101l160 -253l149 253h91zM311 559h-73l-104 136h99z" />
    <glyph glyph-name="zacute.sc" horiz-adv-x="479" 
d="M456 60v-60h-440v54l331 405h-293v60h399v-59l-328 -400h331zM411 695l-144 -136h-75l113 136h106z" />
    <glyph glyph-name="zdotaccent.sc" horiz-adv-x="479" 
d="M456 60v-60h-440v54l331 405h-293v60h399v-59l-328 -400h331zM302 577h-89v92h89v-92z" />
    <glyph glyph-name="aringacute.sc" horiz-adv-x="529" 
d="M525 0h-91l-71 189h-197l-79 -189h-88l226 519h102zM345 246l-73 202l-87 -202h160zM421 862l-144 -122h-67l98 122h113zM357 630c0 -52 -42 -84 -87 -84c-49 0 -85 39 -85 84c0 49 42 83 88 83c43 0 84 -33 84 -83zM313 630c0 23 -18 39 -41 39s-43 -16 -43 -39
s17 -41 42 -41c23 0 42 15 42 41z" />
    <glyph glyph-name="aeacute.sc" horiz-adv-x="749" 
d="M729 0h-343v242h-169l-135 -242h-92l293 519h425v-60h-240v-161h219v-55h-219v-184h261v-59zM386 296v167h-47l-96 -167h143zM623 695l-144 -136h-75l113 136h106z" />
    <glyph glyph-name="oslashacute.sc" horiz-adv-x="566" 
d="M472 575l37 -26l-51 -74c47 -43 66 -105 66 -210c0 -189 -77 -275 -246 -275c-59 0 -101 9 -139 31l-50 -71l-37 26l52 74c-44 46 -62 106 -62 205c0 181 83 274 246 274c54 0 100 -10 133 -28zM410 408l-229 -328c23 -23 59 -37 99 -37c107 0 156 68 156 217
c0 58 -10 118 -26 148zM154 120l227 326c-20 20 -50 29 -94 29c-106 0 -158 -70 -158 -216c0 -52 10 -104 25 -139zM439 695l-144 -136h-75l113 136h106z" />
    </font>
</defs>
</svg>
