<?xml version="1.0" standalone="no"?>
<!DOCTYPE svg PUBLIC "-//W3C//DTD SVG 1.1//EN" "http://www.w3.org/Graphics/SVG/1.1/DTD/svg11.dtd" >
<svg xmlns="http://www.w3.org/2000/svg" xmlns:xlink="http://www.w3.org/1999/xlink" version="1.1">
<metadata>
Created by FontForge 20170924 at Mon May 16 07:31:24 2016
 By www-data
Published by Die Gestalten Verlag GmbH &#38; Co. KG, 2012
Copyright (c) by Binnenland, 2006, Designed by Mika Mischler / 2002-2006, revised and extended 2012 All rights reserved. This software may not be reproduced, used, displayed, modified, disclosed or transferred without the express written approval of (Binnenland).
</metadata>
<defs>
<font id="TSTARPROW00-Medium" horiz-adv-x="523" >
  <font-face 
    font-family="TSTARPROW00-Medium"
    font-weight="500"
    font-stretch="normal"
    units-per-em="1000"
    panose-1="2 0 8 6 3 0 0 2 0 4"
    ascent="800"
    descent="-200"
    x-height="527"
    cap-height="713"
    bbox="-51 -226 1070 1028"
    underline-thickness="50"
    underline-position="-125"
    unicode-range="U+0020-FB02"
  />
<missing-glyph horiz-adv-x="1000" 
 />
    <glyph glyph-name=".notdef" horiz-adv-x="1000" 
 />
    <glyph glyph-name="glyph1" horiz-adv-x="0" 
 />
    <glyph glyph-name="glyph2" horiz-adv-x="250" 
 />
    <glyph glyph-name="space" unicode=" " horiz-adv-x="250" 
 />
    <glyph glyph-name="exclam" unicode="!" horiz-adv-x="252" 
d="M162 181h-77v532h77v-532zM175 0h-102v102h102v-102z" />
    <glyph glyph-name="quotedbl" unicode="&#x22;" horiz-adv-x="342" 
d="M148 551h-70v196h70v-196zM267 551h-70v196h70v-196z" />
    <glyph glyph-name="numbersign" unicode="#" horiz-adv-x="657" 
d="M582 426h-111l-22 -132h102v-67h-112l-33 -207h-69l31 207h-130l-35 -207h-69l33 207h-92v67h102l22 132h-92v65h101l32 190h70l-30 -190h130l33 190h69l-32 -190h102v-65zM400 426h-130l-23 -132h131z" />
    <glyph glyph-name="dollar" unicode="$" horiz-adv-x="513" 
d="M467 182q0 -72 -50 -125t-126 -64v-61h-74v61q-48 6 -85.5 29.5t-61.5 63.5t-24 93h77q0 -38 21.5 -65.5t52 -37.5t55.5 -10q62 0 100.5 33.5t38.5 84.5q0 69 -70 111q-28 17 -87 47t-81 42q-42 23 -68.5 65t-26.5 91q0 69 44 118t115 59v61h74v-61q74 -11 120 -62
t46 -123h-77q0 52 -35.5 82.5t-90.5 30.5q-51 0 -85 -29t-34 -78q0 -60 62 -93l160 -82q53 -29 81.5 -76t28.5 -105z" />
    <glyph glyph-name="percent" unicode="%" horiz-adv-x="819" 
d="M744 129q0 -58 -36.5 -93.5t-96.5 -35.5q-59 0 -95.5 35.5t-36.5 93.5v102q0 36 14.5 64t44.5 47t73 19q28 0 60 -11.5t52.5 -42.5t20.5 -76v-102zM672 129v102q0 18 -7 32t-22 20.5t-32 6.5q-28 0 -44 -15.5t-16 -43.5v-102q0 -31 17.5 -44.5t42.5 -13.5q29 0 45 15.5
t16 42.5zM340 482q0 -58 -36.5 -93.5t-96.5 -35.5q-59 0 -95.5 35.5t-36.5 93.5v102q0 36 14.5 64t44.5 47t73 19q28 0 60 -11.5t52.5 -42.5t20.5 -76v-102zM268 482v102q0 18 -7 32t-22 20.5t-32 6.5q-28 0 -44 -15.5t-16 -43.5v-102q0 -31 17.5 -44.5t42.5 -13.5
q29 0 45 15.5t16 42.5zM574 759l-264 -811h-72l266 811h70z" />
    <glyph glyph-name="ampersand" unicode="&#x26;" horiz-adv-x="640" 
d="M565 166l-48 -60l-35 30q-14 -56 -51.5 -89.5t-80 -44.5t-73.5 -11q-34 0 -71 11.5t-69 35.5t-52 64t-20 93q0 57 29.5 105.5t80.5 78.5l14 8q-50 38 -71 75t-21 84q0 45 17.5 78.5t46 55t62.5 30.5t62 9q30 0 64 -9t68 -34.5t51.5 -66t17.5 -82.5h-77q0 39 -20 67.5
t-49.5 39t-54.5 10.5q-33 0 -60 -13.5t-39 -37t-12 -49.5q0 -23 8.5 -43.5t41.5 -47.5zM277 66q37 0 68 13.5t49 42t18 72.5v1l-164 140q-17 -6 -37 -19q-69 -44 -69 -122q0 -44 18.5 -72.5t50 -42t66.5 -13.5z" />
    <glyph glyph-name="quotesingle" unicode="'" horiz-adv-x="226" 
d="M148 551h-70v196h70v-196z" />
    <glyph glyph-name="parenleft" unicode="(" horiz-adv-x="287" 
d="M212 -34l-47 -54q-58 54 -71 81q-4 8 -11.5 30.5t-7.5 62.5v525q0 58 19 92q15 30 71 82l47 -54l-14 -15q-18 -19 -28.5 -35.5t-15 -36.5t-4.5 -39v-513q0 -30 9 -56t39 -56z" />
    <glyph glyph-name="parenright" unicode=")" horiz-adv-x="287" 
d="M212 86q0 -59 -19 -93q-4 -8 -15.5 -23.5t-54.5 -58.5l-48 55l12 11q21 18 38 48q12 27 12 67v513q0 40 -12 66q-12 22 -38 48l-12 12l48 53q55 -51 70 -81q4 -8 11.5 -30.5t7.5 -61.5v-525z" />
    <glyph glyph-name="asterisk" unicode="*" horiz-adv-x="568" 
d="M441 471l-33 -55l-96 58l4 -112h-65l2 111l-94 -57l-32 55l97 54l-97 53l32 55l94 -56l-2 111h65l-4 -113l96 58l32 -55l-98 -53z" />
    <glyph glyph-name="plus" unicode="+" horiz-adv-x="555" 
d="M485 247h-172v-178h-72v178h-172v71h172v166h72v-166h172v-71z" />
    <glyph glyph-name="comma" unicode="," horiz-adv-x="293" 
d="M105 -106h-81l85 212h97z" />
    <glyph glyph-name="hyphen" unicode="-" horiz-adv-x="447" 
d="M372 247h-297v71h297v-71z" />
    <glyph glyph-name="period" unicode="." horiz-adv-x="255" 
d="M184 0h-113v113h113v-113z" />
    <glyph glyph-name="slash" unicode="/" horiz-adv-x="490" 
d="M415 759l-264 -811h-76l266 811h74z" />
    <glyph glyph-name="zero" unicode="0" horiz-adv-x="511" 
d="M446 182q0 -27 -8.5 -59.5t-30 -62.5t-60.5 -49.5t-94 -19.5t-97 22t-67 68t-25 102v348q0 27 8.5 58.5t29.5 61t60 49t94 19.5t97 -21.5t67.5 -67t25.5 -100.5v-348zM369 184v343q0 59 -31.5 88t-81.5 29t-82.5 -29t-32.5 -88v-343q0 -59 32.5 -88.5t82.5 -29.5
t81.5 29.5t31.5 88.5z" />
    <glyph glyph-name="one" unicode="1" horiz-adv-x="515" 
d="M444 0h-370v76h144v558l-105 -8v73l182 15v-638h149v-76z" />
    <glyph glyph-name="two" unicode="2" horiz-adv-x="511" 
d="M459 522q0 -92 -70 -154q-27 -24 -100 -67.5t-101 -67.5q-29 -24 -43.5 -48t-14.5 -59v-50h327v-76h-404v131q0 92 93 165q23 17 94.5 59.5t97.5 64.5q45 37 45 101q0 57 -33 90t-92 33q-25 0 -55 -10.5t-52 -40t-22 -74.5h-77q0 42 15 79t43 64t66 42t82 15
q89 0 145 -54.5t56 -142.5z" />
    <glyph glyph-name="three" unicode="3" horiz-adv-x="511" 
d="M441 637l-142 -218q56 -9 91 -36t50.5 -65.5t15.5 -78.5v-53q0 -27 -10 -60t-33.5 -64t-63.5 -51t-94 -20q-42 0 -76 11.5t-60 34t-45.5 63.5t-19.5 94h77q0 -46 18.5 -74.5t47 -41t57.5 -12.5q54 0 89.5 30.5t35.5 89.5v51q0 34 -15.5 61.5t-48 39.5t-62.5 12h-41v64
l143 223h-271v76h357v-76z" />
    <glyph glyph-name="four" unicode="4" horiz-adv-x="511" 
d="M450 0h-77v200h-312v78l161 435h76l-160 -437h235v264h77v-540z" />
    <glyph glyph-name="five" unicode="5" horiz-adv-x="509" 
d="M424 636h-256l-14 -200h103q19 0 43.5 -4.5t50.5 -17.5t51 -36.5t41.5 -60.5t16.5 -80v-47q0 -31 -11 -65t-37 -63.5t-66.5 -50t-92.5 -20.5t-101.5 25t-76.5 74t-27 105h77q0 -28 11.5 -58.5t42.5 -50.5t74 -20q24 0 53.5 10.5t53 39.5t23.5 73v46q0 37 -19 68.5
t-48.5 44t-60.5 12.5h-178v76l21 276h326v-76z" />
    <glyph glyph-name="six" unicode="6" horiz-adv-x="511" 
d="M447 519h-77q0 63 -30.5 94t-82.5 31q-55 0 -90.5 -29t-35.5 -88v-117q53 43 126 43q41 0 79.5 -13t65 -40.5t40.5 -63.5t14 -74v-82q0 -34 -14.5 -70t-41.5 -64t-66 -41.5t-81 -13.5q-27 0 -62.5 8t-69.5 36t-50.5 68.5t-16.5 74.5v351q0 26 10.5 58.5t33.5 62.5
t63.5 49.5t95.5 19.5q54 0 96 -22.5t67.5 -70t26.5 -107.5zM379 184v77q0 43 -19 69t-48 37.5t-59 11.5q-29 0 -60.5 -13t-46.5 -41.5t-15 -63.5v-77q0 -34 15 -62.5t46.5 -42t60.5 -13.5q30 0 59 11.5t48 37.5t19 69z" />
    <glyph glyph-name="seven" unicode="7" horiz-adv-x="509" 
d="M465 640l-238 -640h-81l239 637h-341v76h421v-73z" />
    <glyph glyph-name="eight" unicode="8" horiz-adv-x="509" 
d="M463 198q0 -31 -10 -66.5t-33.5 -67.5t-65.5 -52.5t-100 -20.5q-43 0 -82.5 14t-67.5 44t-43 69.5t-15 79.5q0 31 11.5 66.5t34 61.5t46.5 40q-40 29 -62.5 72.5t-22.5 85.5q0 31 10 64.5t32.5 63.5t62.5 49t96 19q27 0 58 -6.5t57 -23t43.5 -39t30.5 -55t13 -72.5
q0 -29 -13 -63t-35.5 -58.5t-43.5 -37.5q24 -14 48 -40t37.5 -61.5t13.5 -65.5zM386 198q0 30 -12.5 60t-45.5 50t-74 20q-26 0 -54 -10.5t-44 -28.5t-24.5 -39.5t-8.5 -51.5q0 -48 20.5 -77.5t51 -42t59.5 -12.5t60 12.5t51.5 42t20.5 77.5zM379 524q0 17 -5.5 40t-22 41
t-42.5 29t-55 11q-28 0 -61 -14t-48.5 -43t-15.5 -64q0 -55 35.5 -88t89.5 -33q56 0 90.5 33t34.5 88z" />
    <glyph glyph-name="nine" unicode="9" horiz-adv-x="511" 
d="M456 182q0 -27 -9.5 -59t-32.5 -62.5t-63 -50t-96 -19.5q-26 0 -61 8.5t-64.5 35t-47.5 67.5t-19 89h76q1 -62 33.5 -93.5t83.5 -31.5q55 0 89 29.5t34 88.5v117q-54 -44 -126 -44q-41 0 -74.5 12t-59.5 34t-45.5 62t-19.5 84v82q0 26 10 58t33 62t63.5 49.5t95.5 19.5
q41 0 74.5 -11.5t59.5 -33t46 -60.5t20 -82v-351zM379 450v78q0 58 -35.5 87.5t-87.5 29.5t-88.5 -29.5t-36.5 -87.5v-78q0 -59 36.5 -88.5t88.5 -29.5t87.5 29.5t35.5 88.5z" />
    <glyph glyph-name="colon" unicode=":" horiz-adv-x="255" 
d="M184 0h-113v113h113v-113zM184 314h-113v113h113v-113z" />
    <glyph glyph-name="semicolon" unicode=";" horiz-adv-x="258" 
d="M177 314h-113v113h113v-113zM68 -106h-81l85 212h97z" />
    <glyph glyph-name="less" unicode="&#x3c;" horiz-adv-x="515" 
d="M441 0h-103l-263 264l260 262h103l-259 -262z" />
    <glyph glyph-name="equal" unicode="=" horiz-adv-x="585" 
d="M474 327h-363v71h363v-71zM474 186h-363v71h363v-71z" />
    <glyph glyph-name="greater" unicode="&#x3e;" horiz-adv-x="518" 
d="M443 264l-265 -264h-103l263 264l-260 262h103z" />
    <glyph glyph-name="question" unicode="?" horiz-adv-x="442" 
d="M238 182h-77v44q0 78 45 129q16 17 56 48t56 49q27 31 27 69q0 58 -32.5 90t-90.5 32q-53 0 -87.5 -29.5t-37.5 -91.5h-77q0 29 10.5 62.5t33.5 64t63 50.5t95 20q89 0 144.5 -55t55.5 -142q0 -61 -45 -113q-14 -15 -56 -49t-58 -52q-25 -25 -25 -81v-45zM252 0h-103v103
h103v-103z" />
    <glyph glyph-name="at" unicode="@" horiz-adv-x="1059" 
d="M664 -106l24 -62q-40 -14 -85.5 -22t-83.5 -8q-82 0 -161.5 28.5t-148 91t-105 151.5t-36.5 184q0 44 12.5 102.5t45.5 119.5t82 110t109.5 83t119 46.5t102.5 12.5q127 0 233 -59t162.5 -158t56.5 -214q0 -30 -6.5 -68.5t-23.5 -77t-46 -74t-71.5 -58t-86.5 -22.5
q-42 0 -80 18t-54 54q-62 -63 -159 -63q-40 0 -71.5 13t-52 37.5t-27.5 58t1 73.5l30 159q15 81 74 129t144 48q30 0 59 -12.5t45 -31.5l8 36h72l-64 -327q-5 -24 -4 -53.5t19.5 -50.5t60.5 -21q24 0 51.5 12t52 41t42 75t17.5 105q0 77 -29.5 144.5t-82 116.5t-122.5 75.5
t-148 26.5q-98 0 -190.5 -52t-151.5 -147.5t-59 -206.5q0 -80 29 -151t81 -124t122.5 -82.5t148.5 -29.5q69 0 145 24zM611 191l30 159q9 48 -12 78.5t-77 30.5q-38 0 -69.5 -18t-47 -44.5t-20.5 -50.5l-30 -159q-9 -50 11 -80.5t78 -30.5q25 0 54.5 10t52 38t30.5 67z" />
    <glyph glyph-name="A" unicode="A" horiz-adv-x="540" 
d="M520 0h-76l-52 201h-241l-54 -201h-77l186 713h125zM372 276l-95 366h-13l-95 -366h203z" />
    <glyph glyph-name="B" unicode="B" horiz-adv-x="543" 
d="M484 189q0 -27 -8.5 -58.5t-30 -61.5t-60.5 -49.5t-94 -19.5h-216v713h211q56 0 97.5 -21t65 -64.5t23.5 -99.5v-12q0 -26 -10.5 -59t-30.5 -56t-41 -33q45 -17 69.5 -61t24.5 -94v-24zM395 518v9q0 110 -111 110h-132v-232h138q105 0 105 113zM407 191v21q0 59 -30 88.5
t-83 29.5h-142v-254h137q52 0 85 28.5t33 86.5z" />
    <glyph glyph-name="C" unicode="C" horiz-adv-x="516" 
d="M468 182q0 -27 -10 -59t-33 -62.5t-63 -50t-96 -19.5q-41 0 -79.5 13.5t-68 45t-41.5 69.5t-12 64v348q0 26 10 58t33 62t63 49.5t96 19.5q41 0 79 -13.5t65 -41.5t42 -64.5t15 -70.5h-77q0 26 -10 52t-41 44.5t-73 18.5q-53 0 -89 -29t-36 -87v-346q0 -59 36 -88t89 -29
q52 0 88 29t36 87h77z" />
    <glyph glyph-name="D" unicode="D" horiz-adv-x="543" 
d="M478 191q0 -36 -10.5 -67t-29 -57.5t-56.5 -46.5t-92 -20h-215v714h211q56 0 98.5 -21.5t68 -67t25.5 -100.5v-334zM401 192v330q0 59 -31.5 87.5t-83.5 28.5h-134v-562h136q29 0 55 11t42 36.5t16 68.5z" />
    <glyph glyph-name="E" unicode="E" horiz-adv-x="505" 
d="M460 0h-385v713h385v-76h-308v-222h285v-76h-285v-263h308v-76z" />
    <glyph glyph-name="F" unicode="F" horiz-adv-x="495" 
d="M460 637h-308v-223h285v-76h-285v-338h-77v713h385v-76z" />
    <glyph glyph-name="G" unicode="G" horiz-adv-x="533" 
d="M468 182q0 -26 -10.5 -58.5t-33.5 -63t-63.5 -50t-95.5 -19.5q-41 0 -79 13.5t-65 42t-41.5 65t-14.5 71.5v348q0 26 10 58t33 62t63 49.5t96 19.5q41 0 79 -13t65 -40.5t42 -63.5t15 -73h-77q0 34 -15.5 61.5t-47.5 40.5t-61 13q-30 0 -59 -11.5t-47.5 -37t-18.5 -67.5
v-346q0 -59 36 -88t89 -29q52 0 88 29t36 88v134h-147v76h224v-211z" />
    <glyph glyph-name="H" unicode="H" horiz-adv-x="567" 
d="M492 0h-77v336h-263v-336h-77v713h77v-301h263v301h77v-713z" />
    <glyph glyph-name="I" unicode="I" horiz-adv-x="227" 
d="M75 713h77v-713h-77v713z" />
    <glyph glyph-name="J" unicode="J" horiz-adv-x="448" 
d="M378 181q0 -89 -48 -139.5t-134 -50.5q-84 0 -132.5 52t-48.5 136h77q0 -33 11.5 -60t38 -40t55.5 -13q49 0 76.5 27.5t27.5 81.5v462h-210v76h287v-532z" />
    <glyph glyph-name="K" unicode="K" horiz-adv-x="514" 
d="M494 0h-88l-194 328l-60 -89v-239h-77v713h77v-339l240 339h88l-224 -319z" />
    <glyph glyph-name="L" unicode="L" horiz-adv-x="469" 
d="M459 0h-384v713h77v-637h307v-76z" />
    <glyph glyph-name="M" unicode="M" horiz-adv-x="655" 
d="M152 0h-77v713h96l156 -378l155 378h98v-713h-77v569l-143 -350h-65l-143 350v-569z" />
    <glyph glyph-name="N" unicode="N" horiz-adv-x="558" 
d="M483 0h-93l-238 560v-560h-77v713h91l240 -568v568h77v-713z" />
    <glyph glyph-name="O" unicode="O" horiz-adv-x="533" 
d="M468 182q0 -28 -10 -60.5t-33 -62t-63 -49t-96 -19.5q-41 0 -79.5 13.5t-65.5 41.5t-41.5 64.5t-14.5 72.5v348q0 27 11.5 64t41 68t68.5 44t81 13q41 0 79 -13t65 -41t42 -64.5t15 -71.5v-348zM391 183v346q0 58 -36 87t-88 29q-53 0 -89 -29t-36 -87v-346q0 -59 36 -88
t89 -29q52 0 88 29t36 88z" />
    <glyph glyph-name="P" unicode="P" horiz-adv-x="518" 
d="M478 472q0 -56 -25 -102t-67 -67.5t-96 -21.5h-138v-281h-77v713h211q56 0 98.5 -21.5t68 -67t25.5 -100.5v-52zM401 473v49q0 59 -32.5 87t-84.5 28h-132v-280h134q52 0 83.5 28.5t31.5 87.5z" />
    <glyph glyph-name="Q" unicode="Q" horiz-adv-x="533" 
d="M230 -106v100q-52 9 -89 39.5t-56.5 72.5t-19.5 77v348q0 26 10 58t33 62t63 49.5t96 19.5q41 0 79 -13.5t65 -41.5t42 -64.5t15 -70.5v-348q0 -23 -7.5 -53.5t-26.5 -59.5t-52.5 -50t-80.5 -26v-99h-71zM391 183v346q0 58 -36 87t-88 29q-53 0 -89 -29t-36 -87v-346
q0 -28 10 -53t31.5 -40.5t46.5 -19.5v135h71v-136q36 6 63 34t27 80z" />
    <glyph glyph-name="R" unicode="R" horiz-adv-x="543" 
d="M496 0h-87l-140 301h-117v-301h-77v713h211q42 0 80 -13.5t63 -41t37.5 -63t12.5 -70.5v-34q0 -36 -15.5 -78t-46 -68t-67.5 -37zM402 492v30q0 26 -9 52.5t-37.5 44.5t-71.5 18h-132v-260h134q30 0 56.5 11t43 36t16.5 68z" />
    <glyph glyph-name="S" unicode="S" horiz-adv-x="513" 
d="M468 182q0 -30 -11 -62.5t-37.5 -61t-69 -48.5t-97.5 -20q-46 0 -84.5 14.5t-66 40.5t-42.5 60.5t-15 73.5h77q0 -52 37 -83t93 -31q46 0 80 19.5t46.5 47.5t12.5 52q0 69 -70 111q-28 16 -86 46t-82 43q-42 23 -69 65t-27 91q0 58 32 102.5t77.5 61.5t87.5 17
q89 0 146 -53.5t57 -135.5h-77q0 28 -12.5 54t-43 43t-70.5 17q-51 0 -85.5 -29.5t-34.5 -78.5q0 -60 63 -92q103 -51 160 -82q53 -29 82 -76.5t29 -105.5z" />
    <glyph glyph-name="T" unicode="T" horiz-adv-x="467" 
d="M446 637h-174v-637h-77v637h-174v76h425v-76z" />
    <glyph glyph-name="U" unicode="U" horiz-adv-x="534" 
d="M469 182q0 -28 -9.5 -60.5t-32.5 -62.5t-63 -49t-96 -19q-42 0 -76.5 11.5t-61 33.5t-46 61.5t-19.5 85.5v530h77v-530q0 -17 5.5 -39.5t22 -40t42.5 -27.5t55 -10q53 0 89 29t36 88v530h77v-531z" />
    <glyph glyph-name="V" unicode="V" 
d="M426 713h76l-177 -713h-125l-179 713h76l159 -640h13z" />
    <glyph glyph-name="W" unicode="W" horiz-adv-x="784" 
d="M763 713l-149 -713h-92l-130 551l-131 -551h-92l-148 713h78l119 -594l138 594h72l135 -593l121 593h79z" />
    <glyph glyph-name="X" unicode="X" horiz-adv-x="497" 
d="M476 0h-88l-140 282l-139 -282h-88l184 358l-183 355h86l139 -280l142 280h85l-184 -354z" />
    <glyph glyph-name="Y" unicode="Y" horiz-adv-x="494" 
d="M473 713l-188 -456v-257h-77v259l-187 454h83l143 -358l143 358h83z" />
    <glyph glyph-name="Z" unicode="Z" horiz-adv-x="448" 
d="M423 0h-398v70l298 567h-284v76h368v-68l-298 -569h314v-76z" />
    <glyph glyph-name="bracketleft" unicode="[" horiz-adv-x="306" 
d="M231 -81h-156v844h156v-70h-85v-704h85v-70z" />
    <glyph glyph-name="backslash" unicode="\" horiz-adv-x="493" 
d="M414 -54h-73l-266 810h75z" />
    <glyph glyph-name="bracketright" unicode="]" horiz-adv-x="306" 
d="M231 -81h-156v70h85v704h-85v70h156v-844z" />
    <glyph glyph-name="asciicircum" unicode="^" horiz-adv-x="497" 
d="M422 449h-79l-94 175l-93 -175h-81l142 264h66z" />
    <glyph glyph-name="underscore" unicode="_" horiz-adv-x="511" 
d="M520 -157h-529v65h529v-65z" />
    <glyph glyph-name="grave" unicode="`" horiz-adv-x="318" 
d="M231 598h-71l-93 158h86z" />
    <glyph glyph-name="a" unicode="a" horiz-adv-x="512" 
d="M440 364v-364h-75v50q-17 -25 -56.5 -42t-82.5 -17q-51 0 -91 21.5t-62 59t-22 90.5q0 26 8.5 53t29 48t53.5 34.5t78 13.5h145v50q0 100 -108 100q-47 0 -78 -24t-33 -74h-75q1 44 18.5 77.5t45 54.5t60.5 30t61 9q55 0 96 -20t64.5 -57t23.5 -93zM365 179v61h-143
q-44 0 -70 -19t-26 -59q0 -53 32.5 -75.5t79.5 -22.5q22 0 51 10t52.5 37.5t23.5 67.5z" />
    <glyph glyph-name="b" unicode="b" horiz-adv-x="525" 
d="M460 180q0 -86 -52.5 -138t-139.5 -52q-33 0 -68 15t-50 36v-41h-75v713h75v-231q17 23 50.5 37.5t67.5 14.5q88 0 140 -51t52 -138v-165zM385 180v165q0 56 -30 86t-87 30q-55 0 -86.5 -31t-31.5 -85v-165q0 -56 30 -86.5t88 -30.5q25 0 53 10.5t46 39t18 67.5z" />
    <glyph glyph-name="c" unicode="c" horiz-adv-x="503" 
d="M262 534q85 0 137.5 -49t57.5 -134h-75q-3 45 -32.5 77.5t-87.5 32.5q-26 0 -55 -10t-48 -38t-19 -68v-165q0 -33 15 -62.5t44 -42t63 -12.5q50 0 82.5 29.5t37.5 79.5h75q-7 -83 -60 -132.5t-135 -49.5q-89 0 -143 51.5t-54 138.5v165q0 85 54.5 137t142.5 52z" />
    <glyph glyph-name="d" unicode="d" horiz-adv-x="527" 
d="M140 345v-165q0 -53 32 -85t86 -32q26 0 46 6t35 18t26 36t11 57v165q0 40 -18 68t-46 38t-54 10q-42 0 -67.5 -15t-38 -41t-12.5 -60zM65 180v165q0 87 52.5 138t140.5 51q35 0 67.5 -14t50.5 -38v231h75v-713h-75v41q-7 -10 -23.5 -22t-43.5 -20.5t-51 -8.5
q-87 0 -140 52t-53 138z" />
    <glyph glyph-name="e" unicode="e" 
d="M458 345v-106h-318v-59q0 -33 15 -62.5t44 -42t63 -12.5q50 0 82.5 29.5t37.5 79.5h75q-7 -83 -60 -132.5t-135 -49.5q-89 0 -143 51.5t-54 138.5v165q0 85 54.5 137t142.5 52q89 0 142.5 -51t53.5 -138zM383 312v33q0 33 -14.5 62t-43.5 41.5t-63 12.5q-26 0 -55 -10
t-48 -38t-19 -68v-33h243z" />
    <glyph glyph-name="f" unicode="f" horiz-adv-x="322" 
d="M306 452h-124v-452h-75v452h-91v73h91v39q0 70 35.5 109.5t105.5 39.5h47v-73h-56q-15 0 -29.5 -8t-21 -24t-6.5 -32v-51h124v-73z" />
    <glyph glyph-name="g" unicode="g" horiz-adv-x="526" 
d="M375 -42v83q-15 -23 -48.5 -37t-67.5 -14q-89 0 -141.5 51.5t-52.5 138.5v165q0 42 12 73t32 55t58 42.5t92 18.5q33 0 67.5 -14t48.5 -35v42h75v-569q0 -64 -23.5 -104t-65 -60t-102.5 -20q-74 0 -125 41.5t-60 112.5h75q3 -18 15.5 -37.5t37.5 -31.5t57 -12q58 0 87 26
t29 85zM375 180v165q0 56 -29.5 86t-86.5 30q-40 0 -69 -17.5t-39.5 -45.5t-10.5 -53v-165q0 -55 30.5 -86t88.5 -31q25 0 53 10.5t45.5 39t17.5 67.5z" />
    <glyph glyph-name="h" unicode="h" horiz-adv-x="532" 
d="M461 0h-75v345q0 58 -25.5 87t-82.5 29q-53 0 -90.5 -32.5t-37.5 -81.5v-347h-75v713h75v-237q18 26 55.5 42t72.5 16q89 0 136 -50t47 -139v-345z" />
    <glyph glyph-name="i" unicode="i" horiz-adv-x="242" 
d="M159 0h-75v527h75v-527zM167 613h-92v108h92v-108z" />
    <glyph glyph-name="j" unicode="j" horiz-adv-x="233" 
d="M150 -89q0 -44 -15 -74.5t-44 -46.5t-67 -16h-29v73h24q24 0 40 14.5t16 44.5v621h75v-616zM158 613h-91v108h91v-108z" />
    <glyph glyph-name="k" unicode="k" horiz-adv-x="501" 
d="M477 0h-90l-159 250l-77 -84v-166h-75v713h75v-441l230 254h99l-202 -222z" />
    <glyph glyph-name="l" unicode="l" horiz-adv-x="242" 
d="M71 136v577h75v-581q0 -30 16 -44.5t40 -14.5h24v-73h-29q-25 0 -55 10.5t-50.5 42t-20.5 83.5z" />
    <glyph glyph-name="m" unicode="m" horiz-adv-x="741" 
d="M670 382v-382h-75v375q0 26 -10 47.5t-28.5 30t-37.5 8.5q-55 0 -82 -33.5t-27 -93.5v-334h-75v372q0 26 -10.5 48t-28 31.5t-35.5 9.5q-58 0 -84.5 -34t-26.5 -94v-333h-75v527h75v-42q20 24 52 36.5t65 12.5q39 0 67.5 -17.5t44.5 -47.5q50 65 145 65q47 0 79.5 -20.5
t49.5 -56t17 -75.5z" />
    <glyph glyph-name="n" unicode="n" horiz-adv-x="532" 
d="M461 0h-75v345q0 58 -25.5 87t-82.5 29q-53 0 -90.5 -32.5t-37.5 -81.5v-347h-75v527h75v-50q18 26 55 41.5t73 15.5q88 0 135.5 -50t47.5 -139v-345z" />
    <glyph glyph-name="o" unicode="o" 
d="M458 180q0 -85 -54.5 -137.5t-141.5 -52.5q-89 0 -143 51.5t-54 138.5v165q0 85 54.5 137t142.5 52q89 0 142.5 -51t53.5 -138v-165zM383 180v165q0 33 -14.5 62t-43.5 41.5t-63 12.5q-26 0 -55 -10t-48 -38t-19 -68v-165q0 -33 15 -62.5t44 -42t63 -12.5q26 0 54.5 10.5
t47.5 39t19 67.5z" />
    <glyph glyph-name="p" unicode="p" horiz-adv-x="526" 
d="M461 180q0 -87 -52 -138.5t-141 -51.5q-33 0 -68 14.5t-50 36.5v-267h-75v753h75v-41q45 48 118 48q87 0 140 -51.5t53 -137.5v-165zM386 180v165q0 40 -18 68t-46 38t-54 10q-58 0 -88 -30t-30 -86v-165q0 -53 32 -85t86 -32q26 0 46 6t35 18t26 36t11 57z" />
    <glyph glyph-name="q" unicode="q" horiz-adv-x="526" 
d="M140 345v-165q0 -55 30.5 -86t88.5 -31q25 0 53 10.5t45.5 39t17.5 67.5v165q0 56 -29.5 86t-86.5 30q-40 0 -69 -17.5t-39.5 -45.5t-10.5 -53zM65 180v165q0 42 12 73t32 55t58 42.5t92 18.5q32 0 66.5 -14.5t49.5 -35.5v43h75v-753h-75v267q-16 -22 -49.5 -36.5
t-66.5 -14.5q-89 0 -141.5 51.5t-52.5 138.5z" />
    <glyph glyph-name="r" unicode="r" horiz-adv-x="312" 
d="M286 455h-43q-34 0 -63.5 -31.5t-29.5 -89.5v-334h-75v527h75v-50q18 22 44.5 36t49.5 14h42v-72z" />
    <glyph glyph-name="s" unicode="s" horiz-adv-x="482" 
d="M436 156q0 -32 -10.5 -62.5t-35 -53t-62 -35.5t-88.5 -13q-86 0 -140 48.5t-54 131.5h75q0 -37 18.5 -63t47 -35t53.5 -9q37 0 64 9.5t42 29.5t15 52q0 24 -16 40t-43 23q-5 2 -17 5t-61 14.5t-54 12.5q-35 8 -64 30.5t-40.5 49.5t-11.5 50q0 39 14.5 68.5t40.5 48t60 27
t68 8.5q84 0 137 -45t56 -125h-76q-3 45 -33.5 71t-85.5 26q-20 0 -44.5 -5t-39.5 -20t-18.5 -29t-3.5 -25q0 -20 16.5 -36t42.5 -23q12 -3 63 -15t75 -19q35 -11 62 -32.5t37.5 -48.5t10.5 -51z" />
    <glyph glyph-name="t" unicode="t" horiz-adv-x="349" 
d="M16 454v73h100v186h75v-186h115v-73h-115v-322q0 -30 15.5 -44.5t39.5 -14.5h62v-73h-66q-25 0 -55 10.5t-50.5 42t-20.5 83.5v318h-100z" />
    <glyph glyph-name="u" unicode="u" horiz-adv-x="535" 
d="M460 0h-75v42q-17 -22 -51.5 -36.5t-68.5 -14.5q-89 0 -141.5 51t-52.5 138v347h75v-347q0 -55 30.5 -85.5t88.5 -30.5q24 0 52.5 10t48 37.5t19.5 63.5v352h75v-527z" />
    <glyph glyph-name="v" unicode="v" horiz-adv-x="446" 
d="M220 72h6l126 455h77l-150 -527h-112l-150 527h78z" />
    <glyph glyph-name="w" unicode="w" horiz-adv-x="686" 
d="M649 527l-121 -527h-88l-97 405l-97 -405h-87l-122 527h78l92 -434l101 434h70l101 -435l92 435h78z" />
    <glyph glyph-name="x" unicode="x" horiz-adv-x="456" 
d="M440 0h-90l-121 197l-126 -197h-87l168 263l-168 264h88l124 -202l123 202h87l-168 -265z" />
    <glyph glyph-name="y" unicode="y" horiz-adv-x="440" 
d="M220 72h6l126 455h77l-178 -627q-19 -68 -53 -97t-110 -29h-36v73h51q30 0 50 12.5t28 43.5l27 97h-41l-150 527h78z" />
    <glyph glyph-name="z" unicode="z" horiz-adv-x="439" 
d="M403 0h-367v68l258 386h-249v73h337v-68l-259 -386h280v-73z" />
    <glyph glyph-name="braceleft" unicode="{" horiz-adv-x="304" 
d="M229 -68h-34q-64 0 -92 28.5t-28 91.5v593q0 62 28 90.5t92 28.5h34v-69h-29q-20 0 -34 -4t-17 -15t-3 -42v-575q0 -31 2.5 -40.5t13.5 -13.5t38 -4h29v-69z" />
    <glyph glyph-name="bar" unicode="|" horiz-adv-x="221" 
d="M146 -55h-71v813h71v-813z" />
    <glyph glyph-name="braceright" unicode="}" horiz-adv-x="308" 
d="M233 51q0 -63 -27.5 -91.5t-94.5 -28.5h-36v69h38q28 0 37.5 5.5t10.5 18t1 33.5v579q0 32 -3.5 42.5t-17.5 13t-34 2.5h-32v69h36q65 0 93.5 -28t28.5 -91v-593z" />
    <glyph glyph-name="asciitilde" unicode="~" horiz-adv-x="536" 
d="M410 322l51 -40q-31 -30 -57.5 -48t-63.5 -18q-25 0 -73 22.5t-75 22.5q-17 0 -31 -7.5t-38 -32.5l-48 40q30 30 56.5 48.5t62.5 18.5q26 0 73.5 -23t74.5 -23q16 0 30 8t38 32z" />
    <glyph glyph-name="exclamdown" unicode="&#xa1;" horiz-adv-x="252" 
d="M88 361h77v-532h-77v532zM75 542h102v-102h-102v102z" />
    <glyph glyph-name="cent" unicode="&#xa2;" horiz-adv-x="503" 
d="M297 -144h-71v137q-74 10 -117.5 59.5t-43.5 127.5v165q0 76 44 126t117 60v138h71v-138q43 -6 80 -29t57 -63.5t23 -87.5h-75q-3 45 -32.5 77.5t-87.5 32.5q-26 0 -55 -10t-48 -38t-19 -68v-165q0 -33 15 -62.5t44 -42t63 -12.5q50 0 82.5 29.5t37.5 79.5h75
q-6 -74 -49 -121.5t-111 -57.5v-137z" />
    <glyph glyph-name="sterling" unicode="&#xa3;" horiz-adv-x="509" 
d="M271 717q81 0 135 -53.5t57 -137.5h-76q-2 58 -34.5 87t-82.5 29q-51 0 -80.5 -28.5t-29.5 -82.5v-113h213v-76h-213v-266h302v-76h-379v342h-37v76h37v111q0 83 51.5 135.5t136.5 52.5z" />
    <glyph glyph-name="yen" unicode="&#xa5;" horiz-adv-x="521" 
d="M436 105h-138v-105h-77v105h-136v71h136v72h-136v71h111l-160 394h81l143 -358l144 358h81l-162 -394h113v-71h-138v-72h138v-71z" />
    <glyph glyph-name="brokenbar" unicode="&#xa6;" horiz-adv-x="220" 
d="M149 412h-76v317h76v-317zM149 -27h-76v318h76v-318z" />
    <glyph glyph-name="section" unicode="&#xa7;" horiz-adv-x="547" 
d="M82 381q0 59 31 94q-25 33 -25 79q0 49 22 82t63.5 52t98.5 19q86 0 139.5 -44.5t53.5 -123.5h-75q0 44 -31 68.5t-89 24.5q-46 0 -78 -18t-32 -60q0 -20 14.5 -36.5t38.5 -21.5l146 -32q36 -9 64 -31.5t38.5 -50.5t10.5 -52q0 -62 -29 -98q22 -29 22 -76
q0 -32 -10.5 -62.5t-35 -53t-62 -35.5t-88.5 -13q-31 0 -64 7.5t-65.5 29.5t-48.5 57.5t-16 73.5h75q0 -45 32 -69t87 -24q123 0 123 89q0 25 -15.5 41.5t-39.5 21.5l-152 34q-32 7 -57.5 28.5t-35.5 49t-10 50.5zM353 290q20 -5 32 -11q14 19 14 51q0 25 -15.5 41.5
t-39.5 21.5l-173 39q-18 -22 -18 -51q0 -21 14.5 -37t38.5 -21z" />
    <glyph glyph-name="dieresis" unicode="&#xa8;" horiz-adv-x="447" 
d="M374 613h-92v109h92v-109zM165 613h-92v109h92v-109z" />
    <glyph glyph-name="copyright" unicode="&#xa9;" horiz-adv-x="857" 
d="M537 255q0 -27 -12 -54t-37.5 -44.5t-67.5 -17.5q-33 0 -60 14.5t-40 44.5t-13 57v186q0 26 12 52.5t37 43.5t66 17q33 0 60.5 -14t41 -44t13.5 -56h-66q0 14 -6 26t-18 17t-25 5q-25 0 -37 -14t-12 -35v-183q0 -21 12.5 -36t36.5 -15q12 0 24.5 6t18.5 18t6 26h66z
M77 348q0 71 27.5 136t76 114t113 76.5t135.5 27.5t135.5 -27.5t113 -76.5t76 -114t27.5 -136t-27.5 -136t-76 -114t-113 -76.5t-135.5 -27.5t-135.5 27.5t-113 76.5t-76 114t-27.5 136zM148 348q0 -57 21.5 -109t60 -91.5t90 -61.5t108.5 -22q27 0 62.5 7.5t72 27t70 54
t55.5 86.5t22 109q0 27 -7 62.5t-26.5 72t-53.5 71t-86 56.5t-109 22t-108.5 -22t-90 -61.5t-60 -91.5t-21.5 -109z" />
    <glyph glyph-name="ordfeminine" unicode="&#xaa;" horiz-adv-x="408" 
d="M337 584v-240h-66v26q-11 -14 -32.5 -23t-41.5 -9q-25 0 -55 9t-50.5 36t-20.5 72q0 23 11 48t39.5 40.5t65.5 15.5h84v23q0 54 -60 54q-26 0 -44 -16t-18 -50h-66q0 33 14 63.5t47 49t66 18.5q37 0 69 -15.5t45 -43t13 -58.5zM271 466v31h-83q-52 0 -52 -42
q0 -52 62 -52q28 0 50.5 17.5t22.5 45.5z" />
    <glyph glyph-name="guillemotleft" unicode="&#xab;" horiz-adv-x="483" 
d="M418 65l-199 199l199 200v-100l-100 -100l100 -100v-99zM225 65l-200 199l200 200v-99l-101 -101l101 -101v-98z" />
    <glyph glyph-name="logicalnot" unicode="&#xac;" horiz-adv-x="554" 
d="M483 168h-76v164h-336v74h412v-238z" />
    <glyph glyph-name="uni00AD" unicode="&#xad;" horiz-adv-x="574" 
d="M499 247h-424v71h424v-71z" />
    <glyph glyph-name="registered" unicode="&#xae;" horiz-adv-x="857" 
d="M558 409q0 -21 -8.5 -45.5t-27.5 -41t-43 -22.5l80 -158h-74l-74 154h-27v-154h-65v403h125q33 0 60.5 -14t40.5 -43.5t13 -55.5v-23zM493 409v21q0 14 -6 26.5t-18.5 18t-24.5 5.5h-60v-120h61q25 0 36.5 14t11.5 35zM77 348q0 71 27.5 136t76 114t113 76.5t135.5 27.5
t135.5 -27.5t113 -76.5t76 -114t27.5 -136t-27.5 -136t-76 -114t-113 -76.5t-135.5 -27.5t-135.5 27.5t-113 76.5t-76 114t-27.5 136zM148 348q0 -57 21.5 -109t60 -91.5t90 -61.5t108.5 -22q27 0 62.5 7.5t72 27t70 54t55.5 86.5t22 109q0 27 -7 62.5t-26.5 72t-53.5 71
t-86 56.5t-109 22t-108.5 -22t-90 -61.5t-60 -91.5t-21.5 -109z" />
    <glyph glyph-name="macron" unicode="&#xaf;" horiz-adv-x="455" 
d="M381 626h-305v69h305v-69z" />
    <glyph glyph-name="degree" unicode="&#xb0;" horiz-adv-x="332" 
d="M291 589q0 -24 -12.5 -53t-44 -50.5t-69.5 -21.5q-37 0 -68 21.5t-43.5 50.5t-12.5 53t12.5 53t43.5 50.5t68 21.5q52 0 89 -36.5t37 -88.5zM231 589q0 27 -19 46.5t-47 19.5t-46 -19.5t-18 -46.5t18.5 -46.5t45.5 -19.5q28 0 47 19.5t19 46.5z" />
    <glyph glyph-name="plusminus" unicode="&#xb1;" horiz-adv-x="557" 
d="M486 247h-171v-139h-72v139h-172v71h172v156h72v-156h171v-71zM486 0h-415v71h415v-71z" />
    <glyph glyph-name="uni00B2" unicode="&#xb2;" horiz-adv-x="365" 
d="M294 608q0 -27 -11 -48t-27 -35q-14 -13 -48 -33t-48 -31q-22 -19 -22 -39v-11h155v-67h-222v81q0 21 10 42t41 46q11 8 42.5 27t47.5 33q17 16 17 34q0 21 -12 32.5t-33 11.5q-20 0 -33 -16t-13 -44h-67q0 39 18.5 70.5t45 43.5t49.5 12t49 -10t43.5 -37t17.5 -62z" />
    <glyph glyph-name="uni00B3" unicode="&#xb3;" horiz-adv-x="362" 
d="M285 656l-58 -88q64 -21 64 -97v-24q0 -24 -12.5 -50t-36 -42t-60.5 -16q-38 0 -62.5 18t-36.5 47.5t-12 61.5h66q0 -17 5.5 -32t16.5 -21.5t22 -6.5q22 0 33.5 11.5t11.5 29.5v23q0 17 -11.5 28.5t-33.5 11.5h-35v48l56 88h-117v66h200v-56z" />
    <glyph glyph-name="acute" unicode="&#xb4;" horiz-adv-x="317" 
d="M240 756l-94 -158h-70l77 158h87z" />
    <glyph glyph-name="uni00B5" unicode="&#xb5;" horiz-adv-x="538" 
d="M150 -226h-75v752h75v-346q0 -33 13 -59.5t38.5 -41.5t67.5 -15q38 0 67.5 17.5t40.5 43.5t11 50v351h75v-526h-75v41q-17 -22 -51 -36t-68 -14q-15 0 -38 4t-46.5 15t-34.5 24v-260z" />
    <glyph glyph-name="paragraph" unicode="&#xb6;" horiz-adv-x="508" 
d="M413 0h-75v635h-96v-635h-75v382q-48 1 -85.5 20t-62 54.5t-24.5 83.5q0 84 47.5 126.5t134.5 42.5h236v-709z" />
    <glyph glyph-name="periodcentered" unicode="&#xb7;" horiz-adv-x="256" 
d="M181 213h-106v107h106v-107z" />
    <glyph glyph-name="cedilla" unicode="&#xb8;" horiz-adv-x="296" 
d="M66 -201l93 158h70l-78 -158h-85z" />
    <glyph glyph-name="uni00B9" unicode="&#xb9;" horiz-adv-x="347" 
d="M276 344h-205v66h69v235l-51 -5v65l116 11v-306h71v-66z" />
    <glyph glyph-name="ordmasculine" unicode="&#xba;" horiz-adv-x="410" 
d="M204 401q18 0 34.5 7t24 23t7.5 35v105q0 30 -17.5 47t-48.5 17t-48.5 -17t-17.5 -47v-105q0 -19 7.5 -35t24 -23t34.5 -7zM204 336q-28 0 -60 11.5t-52.5 42.5t-20.5 76v105q0 29 12 58.5t45 50t76 20.5q28 0 58.5 -11.5t52.5 -42t22 -75.5v-105q0 -45 -20.5 -76
t-52.5 -42.5t-60 -11.5z" />
    <glyph glyph-name="guillemotright" unicode="&#xbb;" horiz-adv-x="482" 
d="M457 265l-198 -199v98l100 101l-100 100v100zM263 265l-198 -199v98l101 101l-101 100v100z" />
    <glyph glyph-name="onequarter" unicode="&#xbc;" horiz-adv-x="711" 
d="M276 344h-205v66h69v235l-51 -5v65l117 11v-306h70v-66zM529 759l-265 -811h-71l266 811h70zM640 0h-66v95h-148v53l82 221h66l-76 -208h76v126h66v-287z" />
    <glyph glyph-name="onehalf" unicode="&#xbd;" horiz-adv-x="742" 
d="M276 344h-205v66h68v235l-50 -4v64l116 11v-306h71v-66zM671 263q0 -50 -38 -83q-20 -17 -49 -31q-31 -17 -50 -34.5t-19 -37.5v-10h155v-67h-222v80q0 53 50 89q2 2 54.5 34t52.5 59q0 21 -12 32.5t-33 11.5q-19 0 -32 -16t-13 -44h-67q0 40 18.5 71t45 43t48.5 12
q49 0 80 -30t31 -79zM528 759l-264 -811h-72l266 811h70z" />
    <glyph glyph-name="threequarters" unicode="&#xbe;" horiz-adv-x="721" 
d="M650 0h-66v95h-149v53l82 221h67l-76 -208h76v126h66v-287zM285 656l-58 -88q27 -9 46 -32.5t19 -64.5v-24q0 -24 -12.5 -50t-36.5 -42t-61 -16q-38 0 -62.5 18t-36.5 47.5t-12 61.5h66q0 -17 5.5 -32t16.5 -21.5t22 -6.5q22 0 33.5 11.5t11.5 29.5v23q0 17 -11.5 28.5
t-33.5 11.5h-35v48l56 88h-116v66h199v-56zM538 759l-264 -811h-72l267 811h69z" />
    <glyph glyph-name="questiondown" unicode="&#xbf;" horiz-adv-x="422" 
d="M204 350h77v-44q0 -78 -45 -129q-16 -17 -56 -48t-56 -49q-27 -31 -27 -69q0 -58 32.5 -90t90.5 -32q53 0 87.5 29.5t37.5 91.5h77q0 -29 -10.5 -62.5t-33.5 -64t-63 -50.5t-95 -20q-89 0 -144.5 55t-55.5 142q0 61 45 113q14 15 56 49t58 52q25 25 25 81v45zM190 532
h103v-103h-103v103z" />
    <glyph glyph-name="Agrave" unicode="&#xc0;" horiz-adv-x="540" 
d="M520 0h-76l-52 201h-241l-54 -201h-77l186 713h125zM372 276l-95 366h-13l-95 -366h203zM322 780h-71l-93 158h86z" />
    <glyph glyph-name="Aacute" unicode="&#xc1;" horiz-adv-x="540" 
d="M520 0h-76l-52 201h-241l-54 -201h-77l186 713h125zM372 276l-95 366h-13l-95 -366h203zM382 938l-94 -158h-70l77 158h87z" />
    <glyph glyph-name="Acircumflex" unicode="&#xc2;" horiz-adv-x="540" 
d="M520 0h-76l-52 201h-241l-54 -201h-77l186 713h125zM372 276l-95 366h-13l-95 -366h203zM408 780h-71l-68 89l-67 -89h-71l107 157h63z" />
    <glyph glyph-name="Atilde" unicode="&#xc3;" horiz-adv-x="540" 
d="M520 0h-76l-52 201h-241l-54 -201h-77l186 713h125zM372 276l-95 366h-13l-95 -366h203zM386 882l47 -46q-26 -25 -51 -40.5t-51 -15.5q-14 0 -29 5.5t-46.5 21.5t-46.5 16q-11 0 -22.5 -6.5t-33.5 -26.5l-47 45q26 26 50.5 41.5t51.5 15.5q23 0 65.5 -21.5t56.5 -21.5
q22 0 56 33z" />
    <glyph glyph-name="Adieresis" unicode="&#xc4;" horiz-adv-x="540" 
d="M520 0h-76l-52 201h-241l-54 -201h-77l186 713h125zM372 276l-95 366h-13l-95 -366h203zM420 780h-92v109h92v-109zM211 780h-92v109h92v-109z" />
    <glyph glyph-name="Aring" unicode="&#xc5;" horiz-adv-x="540" 
d="M520 0h-76l-52 201h-241l-54 -201h-77l186 713h125zM372 276l-95 366h-13l-95 -366h203zM377 851q0 -31 -18.5 -58t-43.5 -38t-46 -11q-20 0 -45 11t-43 38t-18 58q0 44 31.5 75.5t74.5 31.5q21 0 46 -10.5t43.5 -37.5t18.5 -59zM323 851q0 21 -16 37t-38 16
q-21 0 -36.5 -16t-15.5 -37t15.5 -36.5t36.5 -15.5t37.5 15.5t16.5 36.5z" />
    <glyph glyph-name="AE" unicode="&#xc6;" horiz-adv-x="779" 
d="M733 0h-385v201h-199l-53 -201h-76l186 713h527v-76h-308v-222h285v-76h-285v-263h308v-76zM263 637l-95 -361h180v361h-85z" />
    <glyph glyph-name="Ccedilla" unicode="&#xc7;" horiz-adv-x="516" 
d="M468 182q0 -27 -10 -59t-33 -62.5t-63 -50t-96 -19.5q-41 0 -79.5 13.5t-68 45t-41.5 69.5t-12 64v348q0 26 10 58t33 62t63 49.5t96 19.5q41 0 79 -13.5t65 -41.5t42 -64.5t15 -70.5h-77q0 26 -10 52t-41 44.5t-73 18.5q-53 0 -89 -29t-36 -87v-346q0 -59 36 -88t89 -29
q52 0 88 29t36 87h77zM141 -201l93 158h70l-78 -158h-85z" />
    <glyph glyph-name="Egrave" unicode="&#xc8;" horiz-adv-x="505" 
d="M460 0h-385v713h385v-76h-308v-222h285v-76h-285v-263h308v-76zM324 780h-71l-93 158h86z" />
    <glyph glyph-name="Eacute" unicode="&#xc9;" horiz-adv-x="505" 
d="M460 0h-385v713h385v-76h-308v-222h285v-76h-285v-263h308v-76zM369 938l-94 -158h-70l77 158h87z" />
    <glyph glyph-name="Ecircumflex" unicode="&#xca;" horiz-adv-x="505" 
d="M460 0h-385v713h385v-76h-308v-222h285v-76h-285v-263h308v-76zM394 780h-71l-68 89l-67 -89h-71l107 157h63z" />
    <glyph glyph-name="Edieresis" unicode="&#xcb;" horiz-adv-x="505" 
d="M460 0h-385v713h385v-76h-308v-222h285v-76h-285v-263h308v-76zM403 780h-92v109h92v-109zM194 780h-92v109h92v-109z" />
    <glyph glyph-name="Igrave" unicode="&#xcc;" horiz-adv-x="227" 
d="M75 713h77v-713h-77v713zM148 780h-71l-93 158h86z" />
    <glyph glyph-name="Iacute" unicode="&#xcd;" horiz-adv-x="227" 
d="M75 713h77v-713h-77v713zM242 938l-94 -158h-70l77 158h87z" />
    <glyph glyph-name="Icircumflex" unicode="&#xce;" horiz-adv-x="227" 
d="M75 713h77v-713h-77v713zM252 780h-71l-68 89l-67 -89h-71l107 157h63z" />
    <glyph glyph-name="Idieresis" unicode="&#xcf;" horiz-adv-x="227" 
d="M75 713h77v-713h-77v713zM264 780h-92v109h92v-109zM55 780h-92v109h92v-109z" />
    <glyph glyph-name="Eth" unicode="&#xd0;" horiz-adv-x="559" 
d="M494 191q0 -36 -10.5 -67t-29 -57.5t-56.5 -46.5t-92 -20h-215v339h-74v71h74v303h211q56 0 98.5 -21.5t68 -67t25.5 -100.5v-333zM314 339h-146v-263h136q29 0 55 11t42 36.5t16 68.5v329q0 59 -31.5 87.5t-83.5 28.5h-134v-227h146v-71z" />
    <glyph glyph-name="Ntilde" unicode="&#xd1;" horiz-adv-x="558" 
d="M483 0h-93l-238 560v-560h-77v713h91l240 -568v568h77v-713zM395 882l47 -46q-26 -25 -51 -40.5t-51 -15.5q-14 0 -29 5.5t-46.5 21.5t-46.5 16q-11 0 -22.5 -6.5t-33.5 -26.5l-47 45q26 26 50.5 41.5t51.5 15.5q23 0 65.5 -21.5t56.5 -21.5q22 0 56 33z" />
    <glyph glyph-name="Ograve" unicode="&#xd2;" horiz-adv-x="533" 
d="M468 182q0 -28 -10 -60.5t-33 -62t-63 -49t-96 -19.5q-41 0 -79.5 13.5t-65.5 41.5t-41.5 64.5t-14.5 72.5v348q0 27 11.5 64t41 68t68.5 44t81 13q41 0 79 -13t65 -41t42 -64.5t15 -71.5v-348zM391 183v346q0 58 -36 87t-88 29q-53 0 -89 -29t-36 -87v-346q0 -59 36 -88
t89 -29q52 0 88 29t36 88zM318 780h-71l-93 158h86z" />
    <glyph glyph-name="Oacute" unicode="&#xd3;" horiz-adv-x="533" 
d="M468 182q0 -28 -10 -60.5t-33 -62t-63 -49t-96 -19.5q-41 0 -79.5 13.5t-65.5 41.5t-41.5 64.5t-14.5 72.5v348q0 27 11.5 64t41 68t68.5 44t81 13q41 0 79 -13t65 -41t42 -64.5t15 -71.5v-348zM391 183v346q0 58 -36 87t-88 29q-53 0 -89 -29t-36 -87v-346q0 -59 36 -88
t89 -29q52 0 88 29t36 88zM388 938l-94 -158h-70l77 158h87z" />
    <glyph glyph-name="Ocircumflex" unicode="&#xd4;" horiz-adv-x="533" 
d="M468 182q0 -28 -10 -60.5t-33 -62t-63 -49t-96 -19.5q-41 0 -79.5 13.5t-65.5 41.5t-41.5 64.5t-14.5 72.5v348q0 27 11.5 64t41 68t68.5 44t81 13q41 0 79 -13t65 -41t42 -64.5t15 -71.5v-348zM391 183v346q0 58 -36 87t-88 29q-53 0 -89 -29t-36 -87v-346q0 -59 36 -88
t89 -29q52 0 88 29t36 88zM405 780h-71l-68 89l-67 -89h-71l107 157h63z" />
    <glyph glyph-name="Otilde" unicode="&#xd5;" horiz-adv-x="533" 
d="M468 182q0 -28 -10 -60.5t-33 -62t-63 -49t-96 -19.5q-41 0 -79.5 13.5t-65.5 41.5t-41.5 64.5t-14.5 72.5v348q0 27 11.5 64t41 68t68.5 44t81 13q41 0 79 -13t65 -41t42 -64.5t15 -71.5v-348zM391 183v346q0 58 -36 87t-88 29q-53 0 -89 -29t-36 -87v-346q0 -59 36 -88
t89 -29q52 0 88 29t36 88zM383 882l47 -46q-26 -25 -51 -40.5t-51 -15.5q-14 0 -29 5.5t-46.5 21.5t-46.5 16q-11 0 -22.5 -6.5t-33.5 -26.5l-47 45q26 26 50.5 41.5t51.5 15.5q23 0 65.5 -21.5t56.5 -21.5q22 0 56 33z" />
    <glyph glyph-name="Odieresis" unicode="&#xd6;" horiz-adv-x="533" 
d="M468 182q0 -28 -10 -60.5t-33 -62t-63 -49t-96 -19.5q-41 0 -79.5 13.5t-65.5 41.5t-41.5 64.5t-14.5 72.5v348q0 27 11.5 64t41 68t68.5 44t81 13q41 0 79 -13t65 -41t42 -64.5t15 -71.5v-348zM391 183v346q0 58 -36 87t-88 29q-53 0 -89 -29t-36 -87v-346q0 -59 36 -88
t89 -29q52 0 88 29t36 88zM417 780h-92v109h92v-109zM208 780h-92v109h92v-109z" />
    <glyph glyph-name="multiply" unicode="&#xd7;" horiz-adv-x="565" 
d="M461 139l-49 -48l-130 129l-129 -129l-49 48l130 130l-130 130l49 49l129 -130l130 130l49 -49l-130 -130z" />
    <glyph glyph-name="Oslash" unicode="&#xd8;" horiz-adv-x="533" 
d="M480 757l-52 -111q15 -20 27.5 -51t12.5 -65v-348q0 -28 -10 -60.5t-33 -62t-63 -49t-96 -19.5q-76 0 -126 38l-39 -83h-57l57 123q-14 20 -25 50t-11 64v348q0 27 11.5 64t41 68t68.5 44t81 13q71 0 122 -36l35 73h56zM391 183v346q0 17 -3 30l-215 -460
q14 -14 38.5 -23.5t55.5 -9.5q52 0 88 29t36 88zM142 183l2 -24l213 455q-19 17 -45 24t-45 7q-53 0 -89 -29t-36 -87v-346z" />
    <glyph glyph-name="Ugrave" unicode="&#xd9;" horiz-adv-x="534" 
d="M469 182q0 -28 -9.5 -60.5t-32.5 -62.5t-63 -49t-96 -19q-42 0 -76.5 11.5t-61 33.5t-46 61.5t-19.5 85.5v530h77v-530q0 -17 5.5 -39.5t22 -40t42.5 -27.5t55 -10q53 0 89 29t36 88v530h77v-531zM329 780h-71l-93 158h86z" />
    <glyph glyph-name="Uacute" unicode="&#xda;" horiz-adv-x="534" 
d="M469 182q0 -28 -9.5 -60.5t-32.5 -62.5t-63 -49t-96 -19q-42 0 -76.5 11.5t-61 33.5t-46 61.5t-19.5 85.5v530h77v-530q0 -17 5.5 -39.5t22 -40t42.5 -27.5t55 -10q53 0 89 29t36 88v530h77v-531zM379 938l-94 -158h-70l77 158h87z" />
    <glyph glyph-name="Ucircumflex" unicode="&#xdb;" horiz-adv-x="534" 
d="M469 182q0 -28 -9.5 -60.5t-32.5 -62.5t-63 -49t-96 -19q-42 0 -76.5 11.5t-61 33.5t-46 61.5t-19.5 85.5v530h77v-530q0 -17 5.5 -39.5t22 -40t42.5 -27.5t55 -10q53 0 89 29t36 88v530h77v-531zM405 780h-71l-68 89l-67 -89h-71l107 157h63z" />
    <glyph glyph-name="Udieresis" unicode="&#xdc;" horiz-adv-x="534" 
d="M469 182q0 -28 -9.5 -60.5t-32.5 -62.5t-63 -49t-96 -19q-42 0 -76.5 11.5t-61 33.5t-46 61.5t-19.5 85.5v530h77v-530q0 -17 5.5 -39.5t22 -40t42.5 -27.5t55 -10q53 0 89 29t36 88v530h77v-531zM417 780h-92v109h92v-109zM208 780h-92v109h92v-109z" />
    <glyph glyph-name="Yacute" unicode="&#xdd;" horiz-adv-x="494" 
d="M473 713l-188 -456v-257h-77v259l-187 454h83l143 -358l143 358h83zM359 938l-94 -158h-70l77 158h87z" />
    <glyph glyph-name="Thorn" unicode="&#xde;" horiz-adv-x="557" 
d="M75 713h77v-155h153q87 0 139.5 -54.5t52.5 -143.5q0 -91 -52 -145.5t-140 -54.5h-153v-160h-77v713zM305 482h-153v-246h153q33 0 62 15t41 44.5t12 64.5q0 26 -10 55t-38 48t-67 19z" />
    <glyph glyph-name="germandbls" unicode="&#xdf;" horiz-adv-x="541" 
d="M230 75h60q51 0 82.5 29t31.5 87v50q0 59 -28.5 87.5t-76.5 28.5h-34v75h33q39 0 60 25.5t21 69.5q0 59 -31 87.5t-81 28.5q-29 0 -55.5 -11.5t-43 -36.5t-16.5 -68v-527h-77v530q0 27 8.5 58.5t29.5 61t60 49t94 19.5q41 0 78.5 -13.5t62 -41.5t36.5 -63.5t12 -71.5
q0 -38 -15.5 -74t-43.5 -55q35 -18 54.5 -51t24.5 -60.5t5 -43.5v-53q0 -56 -25 -102t-67 -67.5t-97 -21.5h-62v75z" />
    <glyph glyph-name="agrave" unicode="&#xe0;" horiz-adv-x="512" 
d="M440 364v-364h-75v50q-17 -25 -56.5 -42t-82.5 -17q-51 0 -91 21.5t-62 59t-22 90.5q0 26 8.5 53t29 48t53.5 34.5t78 13.5h145v50q0 100 -108 100q-47 0 -78 -24t-33 -74h-75q1 44 18.5 77.5t45 54.5t60.5 30t61 9q55 0 96 -20t64.5 -57t23.5 -93zM365 179v61h-143
q-44 0 -70 -19t-26 -59q0 -53 32.5 -75.5t79.5 -22.5q22 0 51 10t52.5 37.5t23.5 67.5zM318 598h-71l-93 158h86z" />
    <glyph glyph-name="aacute" unicode="&#xe1;" horiz-adv-x="512" 
d="M440 364v-364h-75v50q-17 -25 -56.5 -42t-82.5 -17q-51 0 -91 21.5t-62 59t-22 90.5q0 26 8.5 53t29 48t53.5 34.5t78 13.5h145v50q0 100 -108 100q-47 0 -78 -24t-33 -74h-75q1 44 18.5 77.5t45 54.5t60.5 30t61 9q55 0 96 -20t64.5 -57t23.5 -93zM365 179v61h-143
q-44 0 -70 -19t-26 -59q0 -53 32.5 -75.5t79.5 -22.5q22 0 51 10t52.5 37.5t23.5 67.5zM358 756l-94 -158h-70l77 158h87z" />
    <glyph glyph-name="acircumflex" unicode="&#xe2;" horiz-adv-x="512" 
d="M440 364v-364h-75v50q-17 -25 -56.5 -42t-82.5 -17q-51 0 -91 21.5t-62 59t-22 90.5q0 26 8.5 53t29 48t53.5 34.5t78 13.5h145v50q0 100 -108 100q-47 0 -78 -24t-33 -74h-75q1 44 18.5 77.5t45 54.5t60.5 30t61 9q55 0 96 -20t64.5 -57t23.5 -93zM365 179v61h-143
q-44 0 -70 -19t-26 -59q0 -53 32.5 -75.5t79.5 -22.5q22 0 51 10t52.5 37.5t23.5 67.5zM394 598h-71l-68 89l-67 -89h-71l107 157h63z" />
    <glyph glyph-name="atilde" unicode="&#xe3;" horiz-adv-x="512" 
d="M440 364v-364h-75v50q-17 -25 -56.5 -42t-82.5 -17q-51 0 -91 21.5t-62 59t-22 90.5q0 26 8.5 53t29 48t53.5 34.5t78 13.5h145v50q0 100 -108 100q-47 0 -78 -24t-33 -74h-75q1 44 18.5 77.5t45 54.5t60.5 30t61 9q55 0 96 -20t64.5 -57t23.5 -93zM365 179v61h-143
q-44 0 -70 -19t-26 -59q0 -53 32.5 -75.5t79.5 -22.5q22 0 51 10t52.5 37.5t23.5 67.5zM372 702l47 -46q-26 -25 -51 -40.5t-51 -15.5q-14 0 -29 5.5t-46.5 21.5t-46.5 16q-11 0 -22.5 -6.5t-33.5 -26.5l-47 45q26 26 50.5 41.5t51.5 15.5q23 0 65.5 -21.5t56.5 -21.5
q22 0 56 33z" />
    <glyph glyph-name="adieresis" unicode="&#xe4;" horiz-adv-x="512" 
d="M440 364v-364h-75v50q-17 -25 -56.5 -42t-82.5 -17q-51 0 -91 21.5t-62 59t-22 90.5q0 26 8.5 53t29 48t53.5 34.5t78 13.5h145v50q0 100 -108 100q-47 0 -78 -24t-33 -74h-75q1 44 18.5 77.5t45 54.5t60.5 30t61 9q55 0 96 -20t64.5 -57t23.5 -93zM365 179v61h-143
q-44 0 -70 -19t-26 -59q0 -53 32.5 -75.5t79.5 -22.5q22 0 51 10t52.5 37.5t23.5 67.5zM406 613h-92v109h92v-109zM197 613h-92v109h92v-109z" />
    <glyph glyph-name="aring" unicode="&#xe5;" horiz-adv-x="512" 
d="M440 364v-364h-75v50q-17 -25 -56.5 -42t-82.5 -17q-51 0 -91 21.5t-62 59t-22 90.5q0 26 8.5 53t29 48t53.5 34.5t78 13.5h145v50q0 100 -108 100q-47 0 -78 -24t-33 -74h-75q1 44 18.5 77.5t45 54.5t60.5 30t61 9q55 0 96 -20t64.5 -57t23.5 -93zM365 179v61h-143
q-44 0 -70 -19t-26 -59q0 -53 32.5 -75.5t79.5 -22.5q22 0 51 10t52.5 37.5t23.5 67.5zM363 665q0 -31 -18.5 -58t-43.5 -38t-46 -11q-20 0 -45 11t-43 38t-18 58q0 44 31.5 75.5t74.5 31.5q21 0 46 -10.5t43.5 -37.5t18.5 -59zM309 665q0 21 -16 37t-38 16q-21 0 -36.5 -16
t-15.5 -37t15.5 -36.5t36.5 -15.5t37.5 15.5t16.5 36.5z" />
    <glyph glyph-name="ae" unicode="&#xe6;" horiz-adv-x="818" 
d="M753 345v-106h-311v-59q0 -55 30 -85.5t88 -30.5q49 0 80 29t36 79h76q-6 -83 -58 -132t-134 -49q-35 0 -72 15t-58.5 36t-29.5 38q-9 -18 -32 -39t-62.5 -35.5t-79.5 -14.5q-53 0 -92.5 21.5t-61 59t-21.5 90.5q0 44 20.5 77t59.5 53t93 20h142v50q0 99 -110 99
q-43 0 -74.5 -23.5t-33.5 -74.5h-76q1 33 13 65t41 58.5t66 37t64 10.5q20 0 49 -7t58.5 -25.5t43.5 -42.5q18 31 61.5 53t91.5 22q88 0 140.5 -51t52.5 -138zM366 178v63h-139q-33 0 -57 -10.5t-33.5 -29.5t-9.5 -39q0 -98 110 -98q60 0 94.5 36t34.5 78zM677 312v33
q0 56 -30 86t-87 30q-25 0 -53 -9.5t-46.5 -36.5t-18.5 -64v-39h235z" />
    <glyph glyph-name="ccedilla" unicode="&#xe7;" horiz-adv-x="503" 
d="M262 534q85 0 137.5 -49t57.5 -134h-75q-3 45 -32.5 77.5t-87.5 32.5q-26 0 -55 -10t-48 -38t-19 -68v-165q0 -33 15 -62.5t44 -42t63 -12.5q50 0 82.5 29.5t37.5 79.5h75q-7 -83 -60 -132.5t-135 -49.5q-89 0 -143 51.5t-54 138.5v165q0 85 54.5 137t142.5 52zM146 -201
l93 158h70l-78 -158h-85z" />
    <glyph glyph-name="egrave" unicode="&#xe8;" 
d="M458 345v-106h-318v-59q0 -33 15 -62.5t44 -42t63 -12.5q50 0 82.5 29.5t37.5 79.5h75q-7 -83 -60 -132.5t-135 -49.5q-89 0 -143 51.5t-54 138.5v165q0 85 54.5 137t142.5 52q89 0 142.5 -51t53.5 -138zM383 312v33q0 33 -14.5 62t-43.5 41.5t-63 12.5q-26 0 -55 -10
t-48 -38t-19 -68v-33h243zM318 598h-71l-93 158h86z" />
    <glyph glyph-name="eacute" unicode="&#xe9;" 
d="M458 345v-106h-318v-59q0 -33 15 -62.5t44 -42t63 -12.5q50 0 82.5 29.5t37.5 79.5h75q-7 -83 -60 -132.5t-135 -49.5q-89 0 -143 51.5t-54 138.5v165q0 85 54.5 137t142.5 52q89 0 142.5 -51t53.5 -138zM383 312v33q0 33 -14.5 62t-43.5 41.5t-63 12.5q-26 0 -55 -10
t-48 -38t-19 -68v-33h243zM358 756l-94 -158h-70l77 158h87z" />
    <glyph glyph-name="ecircumflex" unicode="&#xea;" 
d="M458 345v-106h-318v-59q0 -33 15 -62.5t44 -42t63 -12.5q50 0 82.5 29.5t37.5 79.5h75q-7 -83 -60 -132.5t-135 -49.5q-89 0 -143 51.5t-54 138.5v165q0 85 54.5 137t142.5 52q89 0 142.5 -51t53.5 -138zM383 312v33q0 33 -14.5 62t-43.5 41.5t-63 12.5q-26 0 -55 -10
t-48 -38t-19 -68v-33h243zM397 598h-71l-68 89l-67 -89h-71l107 157h63z" />
    <glyph glyph-name="edieresis" unicode="&#xeb;" 
d="M458 345v-106h-318v-59q0 -33 15 -62.5t44 -42t63 -12.5q50 0 82.5 29.5t37.5 79.5h75q-7 -83 -60 -132.5t-135 -49.5q-89 0 -143 51.5t-54 138.5v165q0 85 54.5 137t142.5 52q89 0 142.5 -51t53.5 -138zM383 312v33q0 33 -14.5 62t-43.5 41.5t-63 12.5q-26 0 -55 -10
t-48 -38t-19 -68v-33h243zM409 613h-92v109h92v-109zM200 613h-92v109h92v-109z" />
    <glyph glyph-name="igrave" unicode="&#xec;" horiz-adv-x="225" 
d="M150 0h-75v526h75v-526zM149 598h-71l-93 158h86z" />
    <glyph glyph-name="iacute" unicode="&#xed;" horiz-adv-x="225" 
d="M150 0h-75v526h75v-526zM244 756l-94 -158h-70l77 158h87z" />
    <glyph glyph-name="icircumflex" unicode="&#xee;" horiz-adv-x="225" 
d="M150 0h-75v526h75v-526zM251 598h-71l-68 89l-67 -89h-71l107 157h63z" />
    <glyph glyph-name="idieresis" unicode="&#xef;" horiz-adv-x="225" 
d="M150 0h-75v526h75v-526zM263 613h-92v109h92v-109zM54 613h-92v109h92v-109z" />
    <glyph glyph-name="eth" unicode="&#xf0;" horiz-adv-x="539" 
d="M461 532v-357q0 -26 -10 -57t-32.5 -60t-61.5 -48t-93 -19q-41 0 -79.5 13t-67.5 44t-40.5 67.5t-11.5 61.5v81q0 26 9.5 58t32 62t61 49.5t92.5 19.5q35 0 72 -16t54 -37v136l-2 24l-70 -70l-48 47l85 86q-32 28 -88 28v75q89 0 141 -50l80 80l47 -47l-88 -89
q18 -40 18 -82zM386 180v77q0 58 -35 87t-87 29t-88 -29t-36 -87v-77q0 -26 10 -52t41 -44.5t73 -18.5q29 0 57 11t46.5 36.5t18.5 67.5z" />
    <glyph glyph-name="ntilde" unicode="&#xf1;" horiz-adv-x="532" 
d="M461 0h-75v345q0 58 -25.5 87t-82.5 29q-53 0 -90.5 -32.5t-37.5 -81.5v-347h-75v527h75v-50q18 26 55 41.5t73 15.5q88 0 135.5 -50t47.5 -139v-345zM382 702l47 -46q-26 -25 -51 -40.5t-51 -15.5q-14 0 -29 5.5t-46.5 21.5t-46.5 16q-11 0 -22.5 -6.5t-33.5 -26.5
l-47 45q26 26 50.5 41.5t51.5 15.5q23 0 65.5 -21.5t56.5 -21.5q22 0 56 33z" />
    <glyph glyph-name="ograve" unicode="&#xf2;" 
d="M458 180q0 -85 -54.5 -137.5t-141.5 -52.5q-89 0 -143 51.5t-54 138.5v165q0 85 54.5 137t142.5 52q89 0 142.5 -51t53.5 -138v-165zM383 180v165q0 33 -14.5 62t-43.5 41.5t-63 12.5q-26 0 -55 -10t-48 -38t-19 -68v-165q0 -33 15 -62.5t44 -42t63 -12.5q26 0 54.5 10.5
t47.5 39t19 67.5zM318 598h-71l-93 158h86z" />
    <glyph glyph-name="oacute" unicode="&#xf3;" 
d="M458 180q0 -85 -54.5 -137.5t-141.5 -52.5q-89 0 -143 51.5t-54 138.5v165q0 85 54.5 137t142.5 52q89 0 142.5 -51t53.5 -138v-165zM383 180v165q0 33 -14.5 62t-43.5 41.5t-63 12.5q-26 0 -55 -10t-48 -38t-19 -68v-165q0 -33 15 -62.5t44 -42t63 -12.5q26 0 54.5 10.5
t47.5 39t19 67.5zM368 756l-94 -158h-70l77 158h87z" />
    <glyph glyph-name="ocircumflex" unicode="&#xf4;" 
d="M458 180q0 -85 -54.5 -137.5t-141.5 -52.5q-89 0 -143 51.5t-54 138.5v165q0 85 54.5 137t142.5 52q89 0 142.5 -51t53.5 -138v-165zM383 180v165q0 33 -14.5 62t-43.5 41.5t-63 12.5q-26 0 -55 -10t-48 -38t-19 -68v-165q0 -33 15 -62.5t44 -42t63 -12.5q26 0 54.5 10.5
t47.5 39t19 67.5zM400 598h-71l-68 89l-67 -89h-71l107 157h63z" />
    <glyph glyph-name="otilde" unicode="&#xf5;" 
d="M458 180q0 -85 -54.5 -137.5t-141.5 -52.5q-89 0 -143 51.5t-54 138.5v165q0 85 54.5 137t142.5 52q89 0 142.5 -51t53.5 -138v-165zM383 180v165q0 33 -14.5 62t-43.5 41.5t-63 12.5q-26 0 -55 -10t-48 -38t-19 -68v-165q0 -33 15 -62.5t44 -42t63 -12.5q26 0 54.5 10.5
t47.5 39t19 67.5zM378 702l47 -46q-26 -25 -51 -40.5t-51 -15.5q-14 0 -29 5.5t-46.5 21.5t-46.5 16q-11 0 -22.5 -6.5t-33.5 -26.5l-47 45q26 26 50.5 41.5t51.5 15.5q23 0 65.5 -21.5t56.5 -21.5q22 0 56 33z" />
    <glyph glyph-name="odieresis" unicode="&#xf6;" 
d="M458 180q0 -85 -54.5 -137.5t-141.5 -52.5q-89 0 -143 51.5t-54 138.5v165q0 85 54.5 137t142.5 52q89 0 142.5 -51t53.5 -138v-165zM383 180v165q0 33 -14.5 62t-43.5 41.5t-63 12.5q-26 0 -55 -10t-48 -38t-19 -68v-165q0 -33 15 -62.5t44 -42t63 -12.5q26 0 54.5 10.5
t47.5 39t19 67.5zM412 613h-92v109h92v-109zM203 613h-92v109h92v-109z" />
    <glyph glyph-name="divide" unicode="&#xf7;" horiz-adv-x="527" 
d="M314 0h-109v110h109v-110zM314 317h-109v110h109v-110zM448 179h-376v71h376v-71z" />
    <glyph glyph-name="oslash" unicode="&#xf8;" 
d="M437 577l-42 -87q30 -24 46.5 -61.5t16.5 -83.5v-165q0 -85 -54.5 -137.5t-141.5 -52.5q-53 0 -96 19l-29 -61h-58l43 90q-57 51 -57 142v165q0 85 54.5 137t142.5 52q49 0 89 -17l29 60h57zM383 180v165q0 19 -5.5 39t-16.5 35l-164 -343q28 -13 65 -13q26 0 54.5 10.5
t47.5 39t19 67.5zM140 180q0 -41 17 -68l163 339q-27 10 -58 10q-26 0 -55 -10t-48 -38t-19 -68v-165z" />
    <glyph glyph-name="ugrave" unicode="&#xf9;" horiz-adv-x="535" 
d="M460 0h-75v42q-17 -22 -51.5 -36.5t-68.5 -14.5q-89 0 -141.5 51t-52.5 138v347h75v-347q0 -55 30.5 -85.5t88.5 -30.5q24 0 52.5 10t48 37.5t19.5 63.5v352h75v-527zM319 598h-71l-93 158h86z" />
    <glyph glyph-name="uacute" unicode="&#xfa;" horiz-adv-x="535" 
d="M460 0h-75v42q-17 -22 -51.5 -36.5t-68.5 -14.5q-89 0 -141.5 51t-52.5 138v347h75v-347q0 -55 30.5 -85.5t88.5 -30.5q24 0 52.5 10t48 37.5t19.5 63.5v352h75v-527zM369 756l-94 -158h-70l77 158h87z" />
    <glyph glyph-name="ucircumflex" unicode="&#xfb;" horiz-adv-x="535" 
d="M460 0h-75v42q-17 -22 -51.5 -36.5t-68.5 -14.5q-89 0 -141.5 51t-52.5 138v347h75v-347q0 -55 30.5 -85.5t88.5 -30.5q24 0 52.5 10t48 37.5t19.5 63.5v352h75v-527zM406 598h-71l-68 89l-67 -89h-71l107 157h63z" />
    <glyph glyph-name="udieresis" unicode="&#xfc;" horiz-adv-x="535" 
d="M460 0h-75v42q-17 -22 -51.5 -36.5t-68.5 -14.5q-89 0 -141.5 51t-52.5 138v347h75v-347q0 -55 30.5 -85.5t88.5 -30.5q24 0 52.5 10t48 37.5t19.5 63.5v352h75v-527zM418 613h-92v109h92v-109zM209 613h-92v109h92v-109z" />
    <glyph glyph-name="yacute" unicode="&#xfd;" horiz-adv-x="440" 
d="M220 72h6l126 455h77l-178 -627q-19 -68 -53 -97t-110 -29h-36v73h51q30 0 50 12.5t28 43.5l27 97h-41l-150 527h78zM326 756l-94 -158h-70l77 158h87z" />
    <glyph glyph-name="thorn" unicode="&#xfe;" horiz-adv-x="525" 
d="M460 180q0 -86 -52.5 -138t-139.5 -52q-33 0 -68 15t-50 36v-267h-75v928h75v-220q17 23 50.5 37.5t67.5 14.5q88 0 140 -51t52 -138v-165zM385 180v165q0 56 -30 86t-87 30q-55 0 -86.5 -31t-31.5 -85v-165q0 -56 30 -86.5t88 -30.5q25 0 53 10.5t46 39t18 67.5z" />
    <glyph glyph-name="ydieresis" unicode="&#xff;" horiz-adv-x="440" 
d="M220 72h6l126 455h77l-178 -627q-19 -68 -53 -97t-110 -29h-36v73h51q30 0 50 12.5t28 43.5l27 97h-41l-150 527h78zM371 613h-92v109h92v-109zM162 613h-92v109h92v-109z" />
    <glyph glyph-name="Amacron" unicode="&#x100;" horiz-adv-x="540" 
d="M520 0h-76l-52 201h-241l-54 -201h-77l186 713h125zM372 276l-95 366h-13l-95 -366h203zM422 800h-305v69h305v-69z" />
    <glyph glyph-name="amacron" unicode="&#x101;" horiz-adv-x="512" 
d="M440 364v-364h-75v50q-17 -25 -56.5 -42t-82.5 -17q-51 0 -91 21.5t-62 59t-22 90.5q0 26 8.5 53t29 48t53.5 34.5t78 13.5h145v50q0 100 -108 100q-47 0 -78 -24t-33 -74h-75q1 44 18.5 77.5t45 54.5t60.5 30t61 9q55 0 96 -20t64.5 -57t23.5 -93zM365 179v61h-143
q-44 0 -70 -19t-26 -59q0 -53 32.5 -75.5t79.5 -22.5q22 0 51 10t52.5 37.5t23.5 67.5zM408 626h-305v69h305v-69z" />
    <glyph glyph-name="Abreve" unicode="&#x102;" horiz-adv-x="540" 
d="M520 0h-76l-52 201h-241l-54 -201h-77l186 713h125zM372 276l-95 366h-13l-95 -366h203zM271 780q-27 0 -59.5 11t-57.5 43.5t-30 83.5h64q4 -38 26 -59t57 -21t56.5 21t26.5 59h63q-4 -43 -22.5 -73.5t-51 -47.5t-72.5 -17z" />
    <glyph glyph-name="abreve" unicode="&#x103;" horiz-adv-x="512" 
d="M440 364v-364h-75v50q-17 -25 -56.5 -42t-82.5 -17q-51 0 -91 21.5t-62 59t-22 90.5q0 26 8.5 53t29 48t53.5 34.5t78 13.5h145v50q0 100 -108 100q-47 0 -78 -24t-33 -74h-75q1 44 18.5 77.5t45 54.5t60.5 30t61 9q55 0 96 -20t64.5 -57t23.5 -93zM365 179v61h-143
q-44 0 -70 -19t-26 -59q0 -53 32.5 -75.5t79.5 -22.5q22 0 51 10t52.5 37.5t23.5 67.5zM256 598q-27 0 -59.5 11t-57.5 43.5t-30 83.5h64q4 -38 26 -59t57 -21t56.5 21t26.5 59h63q-4 -43 -22.5 -73.5t-51 -47.5t-72.5 -17z" />
    <glyph glyph-name="Aogonek" unicode="&#x104;" horiz-adv-x="540" 
d="M520 0h-76l-52 201h-241l-54 -201h-77l186 713h125zM372 276l-95 366h-13l-95 -366h203zM527 -43l93 -158h-85l-78 158h70z" />
    <glyph glyph-name="aogonek" unicode="&#x105;" horiz-adv-x="512" 
d="M440 364v-364h-75v50q-17 -25 -56.5 -42t-82.5 -17q-51 0 -91 21.5t-62 59t-22 90.5q0 26 8.5 53t29 48t53.5 34.5t78 13.5h145v50q0 100 -108 100q-47 0 -78 -24t-33 -74h-75q1 44 18.5 77.5t45 54.5t60.5 30t61 9q55 0 96 -20t64.5 -57t23.5 -93zM365 179v61h-143
q-44 0 -70 -19t-26 -59q0 -53 32.5 -75.5t79.5 -22.5q22 0 51 10t52.5 37.5t23.5 67.5zM437 -43l93 -158h-85l-78 158h70z" />
    <glyph glyph-name="Cacute" unicode="&#x106;" horiz-adv-x="516" 
d="M468 182q0 -27 -10 -59t-33 -62.5t-63 -50t-96 -19.5q-41 0 -79.5 13.5t-68 45t-41.5 69.5t-12 64v348q0 26 10 58t33 62t63 49.5t96 19.5q41 0 79 -13.5t65 -41.5t42 -64.5t15 -70.5h-77q0 26 -10 52t-41 44.5t-73 18.5q-53 0 -89 -29t-36 -87v-346q0 -59 36 -88t89 -29
q52 0 88 29t36 87h77zM380 938l-94 -158h-70l77 158h87z" />
    <glyph glyph-name="cacute" unicode="&#x107;" horiz-adv-x="503" 
d="M262 534q85 0 137.5 -49t57.5 -134h-75q-3 45 -32.5 77.5t-87.5 32.5q-26 0 -55 -10t-48 -38t-19 -68v-165q0 -33 15 -62.5t44 -42t63 -12.5q50 0 82.5 29.5t37.5 79.5h75q-7 -83 -60 -132.5t-135 -49.5q-89 0 -143 51.5t-54 138.5v165q0 85 54.5 137t142.5 52zM358 756
l-94 -158h-70l77 158h87z" />
    <glyph glyph-name="Ccircumflex" unicode="&#x108;" horiz-adv-x="516" 
d="M468 182q0 -27 -10 -59t-33 -62.5t-63 -50t-96 -19.5q-41 0 -79.5 13.5t-68 45t-41.5 69.5t-12 64v348q0 26 10 58t33 62t63 49.5t96 19.5q41 0 79 -13.5t65 -41.5t42 -64.5t15 -70.5h-77q0 26 -10 52t-41 44.5t-73 18.5q-53 0 -89 -29t-36 -87v-346q0 -59 36 -88t89 -29
q52 0 88 29t36 87h77zM406 780h-71l-68 89l-67 -89h-71l107 157h63z" />
    <glyph glyph-name="ccircumflex" unicode="&#x109;" horiz-adv-x="503" 
d="M262 534q85 0 137.5 -49t57.5 -134h-75q-3 45 -32.5 77.5t-87.5 32.5q-26 0 -55 -10t-48 -38t-19 -68v-165q0 -33 15 -62.5t44 -42t63 -12.5q50 0 82.5 29.5t37.5 79.5h75q-7 -83 -60 -132.5t-135 -49.5q-89 0 -143 51.5t-54 138.5v165q0 85 54.5 137t142.5 52zM390 598
h-71l-68 89l-67 -89h-71l107 157h63z" />
    <glyph glyph-name="Cdotaccent" unicode="&#x10a;" horiz-adv-x="516" 
d="M468 182q0 -27 -10 -59t-33 -62.5t-63 -50t-96 -19.5q-41 0 -79.5 13.5t-68 45t-41.5 69.5t-12 64v348q0 26 10 58t33 62t63 49.5t96 19.5q41 0 79 -13.5t65 -41.5t42 -64.5t15 -70.5h-77q0 26 -10 52t-41 44.5t-73 18.5q-53 0 -89 -29t-36 -87v-346q0 -59 36 -88t89 -29
q52 0 88 29t36 87h77zM304 780h-92v109h92v-109z" />
    <glyph glyph-name="cdotaccent" unicode="&#x10b;" horiz-adv-x="503" 
d="M262 534q85 0 137.5 -49t57.5 -134h-75q-3 45 -32.5 77.5t-87.5 32.5q-26 0 -55 -10t-48 -38t-19 -68v-165q0 -33 15 -62.5t44 -42t63 -12.5q50 0 82.5 29.5t37.5 79.5h75q-7 -83 -60 -132.5t-135 -49.5q-89 0 -143 51.5t-54 138.5v165q0 85 54.5 137t142.5 52zM297 613
h-92v109h92v-109z" />
    <glyph glyph-name="Ccaron" unicode="&#x10c;" horiz-adv-x="516" 
d="M468 182q0 -27 -10 -59t-33 -62.5t-63 -50t-96 -19.5q-41 0 -79.5 13.5t-68 45t-41.5 69.5t-12 64v348q0 26 10 58t33 62t63 49.5t96 19.5q41 0 79 -13.5t65 -41.5t42 -64.5t15 -70.5h-77q0 26 -10 52t-41 44.5t-73 18.5q-53 0 -89 -29t-36 -87v-346q0 -59 36 -88t89 -29
q52 0 88 29t36 87h77zM129 937h71l68 -89l67 89h71l-107 -157h-63z" />
    <glyph glyph-name="ccaron" unicode="&#x10d;" horiz-adv-x="503" 
d="M262 534q85 0 137.5 -49t57.5 -134h-75q-3 45 -32.5 77.5t-87.5 32.5q-26 0 -55 -10t-48 -38t-19 -68v-165q0 -33 15 -62.5t44 -42t63 -12.5q50 0 82.5 29.5t37.5 79.5h75q-7 -83 -60 -132.5t-135 -49.5q-89 0 -143 51.5t-54 138.5v165q0 85 54.5 137t142.5 52zM113 755
h71l68 -89l67 89h71l-107 -157h-63z" />
    <glyph glyph-name="Dcaron" unicode="&#x10e;" horiz-adv-x="543" 
d="M478 191q0 -36 -10.5 -67t-29 -57.5t-56.5 -46.5t-92 -20h-215v714h211q56 0 98.5 -21.5t68 -67t25.5 -100.5v-334zM401 192v330q0 59 -31.5 87.5t-83.5 28.5h-134v-562h136q29 0 55 11t42 36.5t16 68.5zM133 937h71l68 -89l67 89h71l-107 -157h-63z" />
    <glyph glyph-name="dcaron" unicode="&#x10f;" horiz-adv-x="634" 
d="M140 345v-165q0 -53 32 -85t86 -32q26 0 46 6t35 18t26 36t11 57v165q0 40 -18 68t-46 38t-54 10q-42 0 -67.5 -15t-38 -41t-12.5 -60zM65 180v165q0 87 52.5 138t140.5 51q35 0 67.5 -14t50.5 -38v231h75v-713h-75v41q-7 -10 -23.5 -22t-43.5 -20.5t-51 -8.5
q-87 0 -140 52t-53 138zM615 551h-70v196h70v-196z" />
    <glyph glyph-name="Dcroat" unicode="&#x110;" horiz-adv-x="559" 
d="M494 191q0 -36 -10.5 -67t-29 -57.5t-56.5 -46.5t-92 -20h-215v339h-74v71h74v303h211q56 0 98.5 -21.5t68 -67t25.5 -100.5v-333zM314 339h-146v-263h136q29 0 55 11t42 36.5t16 68.5v329q0 59 -31.5 87.5t-83.5 28.5h-134v-227h146v-71z" />
    <glyph glyph-name="dcroat" unicode="&#x111;" 
d="M452 573v-573h-75v41q-7 -10 -23.5 -22t-43.5 -20.5t-51 -8.5q-87 0 -140 52t-53 138v165q0 87 52.5 138t140.5 51q35 0 67.5 -14t50.5 -38v91h-149v69h149v70h75v-70h73v-69h-73zM141 345v-165q0 -53 32 -85t86 -32q26 0 46 6t35 18t26 36t11 57v165q0 40 -18 68t-46 38
t-54 10q-42 0 -67.5 -15t-38 -41t-12.5 -60z" />
    <glyph glyph-name="Emacron" unicode="&#x112;" horiz-adv-x="505" 
d="M460 0h-385v713h385v-76h-308v-222h285v-76h-285v-263h308v-76zM415 800h-305v69h305v-69z" />
    <glyph glyph-name="emacron" unicode="&#x113;" 
d="M458 345v-106h-318v-59q0 -33 15 -62.5t44 -42t63 -12.5q50 0 82.5 29.5t37.5 79.5h75q-7 -83 -60 -132.5t-135 -49.5q-89 0 -143 51.5t-54 138.5v165q0 85 54.5 137t142.5 52q89 0 142.5 -51t53.5 -138zM383 312v33q0 33 -14.5 62t-43.5 41.5t-63 12.5q-26 0 -55 -10
t-48 -38t-19 -68v-33h243zM411 626h-305v69h305v-69z" />
    <glyph glyph-name="Ebreve" unicode="&#x114;" horiz-adv-x="505" 
d="M460 0h-385v713h385v-76h-308v-222h285v-76h-285v-263h308v-76zM253 780q-27 0 -59.5 11t-57.5 43.5t-30 83.5h64q4 -38 26 -59t57 -21t56.5 21t26.5 59h63q-4 -43 -22.5 -73.5t-51 -47.5t-72.5 -17z" />
    <glyph glyph-name="ebreve" unicode="&#x115;" 
d="M458 345v-106h-318v-59q0 -33 15 -62.5t44 -42t63 -12.5q50 0 82.5 29.5t37.5 79.5h75q-7 -83 -60 -132.5t-135 -49.5q-89 0 -143 51.5t-54 138.5v165q0 85 54.5 137t142.5 52q89 0 142.5 -51t53.5 -138zM383 312v33q0 33 -14.5 62t-43.5 41.5t-63 12.5q-26 0 -55 -10
t-48 -38t-19 -68v-33h243zM259 598q-27 0 -59.5 11t-57.5 43.5t-30 83.5h64q4 -38 26 -59t57 -21t56.5 21t26.5 59h63q-4 -43 -22.5 -73.5t-51 -47.5t-72.5 -17z" />
    <glyph glyph-name="Edotaccent" unicode="&#x116;" horiz-adv-x="505" 
d="M460 0h-385v713h385v-76h-308v-222h285v-76h-285v-263h308v-76zM298 780h-92v109h92v-109z" />
    <glyph glyph-name="edotaccent" unicode="&#x117;" 
d="M458 345v-106h-318v-59q0 -33 15 -62.5t44 -42t63 -12.5q50 0 82.5 29.5t37.5 79.5h75q-7 -83 -60 -132.5t-135 -49.5q-89 0 -143 51.5t-54 138.5v165q0 85 54.5 137t142.5 52q89 0 142.5 -51t53.5 -138zM383 312v33q0 33 -14.5 62t-43.5 41.5t-63 12.5q-26 0 -55 -10
t-48 -38t-19 -68v-33h243zM305 613h-92v109h92v-109z" />
    <glyph glyph-name="Eogonek" unicode="&#x118;" horiz-adv-x="505" 
d="M460 0h-385v713h385v-76h-308v-222h285v-76h-285v-263h308v-76zM287 -43l93 -158h-85l-78 158h70z" />
    <glyph glyph-name="eogonek" unicode="&#x119;" 
d="M458 345v-106h-318v-59q0 -33 15 -62.5t44 -42t63 -12.5q50 0 82.5 29.5t37.5 79.5h75q-7 -83 -60 -132.5t-135 -49.5q-89 0 -143 51.5t-54 138.5v165q0 85 54.5 137t142.5 52q89 0 142.5 -51t53.5 -138zM383 312v33q0 33 -14.5 62t-43.5 41.5t-63 12.5q-26 0 -55 -10
t-48 -38t-19 -68v-33h243zM291 -43l93 -158h-85l-78 158h70z" />
    <glyph glyph-name="Ecaron" unicode="&#x11a;" horiz-adv-x="505" 
d="M460 0h-385v713h385v-76h-308v-222h285v-76h-285v-263h308v-76zM114 937h71l68 -89l67 89h71l-107 -157h-63z" />
    <glyph glyph-name="ecaron" unicode="&#x11b;" 
d="M458 345v-106h-318v-59q0 -33 15 -62.5t44 -42t63 -12.5q50 0 82.5 29.5t37.5 79.5h75q-7 -83 -60 -132.5t-135 -49.5q-89 0 -143 51.5t-54 138.5v165q0 85 54.5 137t142.5 52q89 0 142.5 -51t53.5 -138zM383 312v33q0 33 -14.5 62t-43.5 41.5t-63 12.5q-26 0 -55 -10
t-48 -38t-19 -68v-33h243zM120 755h71l68 -89l67 89h71l-107 -157h-63z" />
    <glyph glyph-name="Gcircumflex" unicode="&#x11c;" horiz-adv-x="533" 
d="M468 182q0 -26 -10.5 -58.5t-33.5 -63t-63.5 -50t-95.5 -19.5q-41 0 -79 13.5t-65 42t-41.5 65t-14.5 71.5v348q0 26 10 58t33 62t63 49.5t96 19.5q41 0 79 -13t65 -40.5t42 -63.5t15 -73h-77q0 34 -15.5 61.5t-47.5 40.5t-61 13q-30 0 -59 -11.5t-47.5 -37t-18.5 -67.5
v-346q0 -59 36 -88t89 -29q52 0 88 29t36 88v134h-147v76h224v-211zM405 780h-71l-68 89l-67 -89h-71l107 157h63z" />
    <glyph glyph-name="gcircumflex" unicode="&#x11d;" horiz-adv-x="526" 
d="M375 -42v83q-15 -23 -48.5 -37t-67.5 -14q-89 0 -141.5 51.5t-52.5 138.5v165q0 42 12 73t32 55t58 42.5t92 18.5q33 0 67.5 -14t48.5 -35v42h75v-569q0 -64 -23.5 -104t-65 -60t-102.5 -20q-74 0 -125 41.5t-60 112.5h75q3 -18 15.5 -37.5t37.5 -31.5t57 -12q58 0 87 26
t29 85zM375 180v165q0 56 -29.5 86t-86.5 30q-40 0 -69 -17.5t-39.5 -45.5t-10.5 -53v-165q0 -55 30.5 -86t88.5 -31q25 0 53 10.5t45.5 39t17.5 67.5zM401 598h-71l-68 89l-67 -89h-71l107 157h63z" />
    <glyph glyph-name="Gbreve" unicode="&#x11e;" horiz-adv-x="533" 
d="M468 182q0 -26 -10.5 -58.5t-33.5 -63t-63.5 -50t-95.5 -19.5q-41 0 -79 13.5t-65 42t-41.5 65t-14.5 71.5v348q0 26 10 58t33 62t63 49.5t96 19.5q41 0 79 -13t65 -40.5t42 -63.5t15 -73h-77q0 34 -15.5 61.5t-47.5 40.5t-61 13q-30 0 -59 -11.5t-47.5 -37t-18.5 -67.5
v-346q0 -59 36 -88t89 -29q52 0 88 29t36 88v134h-147v76h224v-211zM267 780q-27 0 -59.5 11t-57.5 43.5t-30 83.5h64q4 -38 26 -59t57 -21t56.5 21t26.5 59h63q-4 -43 -22.5 -73.5t-51 -47.5t-72.5 -17z" />
    <glyph glyph-name="gbreve" unicode="&#x11f;" horiz-adv-x="526" 
d="M375 -42v83q-15 -23 -48.5 -37t-67.5 -14q-89 0 -141.5 51.5t-52.5 138.5v165q0 42 12 73t32 55t58 42.5t92 18.5q33 0 67.5 -14t48.5 -35v42h75v-569q0 -64 -23.5 -104t-65 -60t-102.5 -20q-74 0 -125 41.5t-60 112.5h75q3 -18 15.5 -37.5t37.5 -31.5t57 -12q58 0 87 26
t29 85zM375 180v165q0 56 -29.5 86t-86.5 30q-40 0 -69 -17.5t-39.5 -45.5t-10.5 -53v-165q0 -55 30.5 -86t88.5 -31q25 0 53 10.5t45.5 39t17.5 67.5zM263 598q-27 0 -59.5 11t-57.5 43.5t-30 83.5h64q4 -38 26 -59t57 -21t56.5 21t26.5 59h63q-4 -43 -22.5 -73.5
t-51 -47.5t-72.5 -17z" />
    <glyph glyph-name="Gdotaccent" unicode="&#x120;" horiz-adv-x="533" 
d="M468 182q0 -26 -10.5 -58.5t-33.5 -63t-63.5 -50t-95.5 -19.5q-41 0 -79 13.5t-65 42t-41.5 65t-14.5 71.5v348q0 26 10 58t33 62t63 49.5t96 19.5q41 0 79 -13t65 -40.5t42 -63.5t15 -73h-77q0 34 -15.5 61.5t-47.5 40.5t-61 13q-30 0 -59 -11.5t-47.5 -37t-18.5 -67.5
v-346q0 -59 36 -88t89 -29q52 0 88 29t36 88v134h-147v76h224v-211zM312 780h-92v109h92v-109z" />
    <glyph glyph-name="gdotaccent" unicode="&#x121;" horiz-adv-x="526" 
d="M375 -42v83q-15 -23 -48.5 -37t-67.5 -14q-89 0 -141.5 51.5t-52.5 138.5v165q0 42 12 73t32 55t58 42.5t92 18.5q33 0 67.5 -14t48.5 -35v42h75v-569q0 -64 -23.5 -104t-65 -60t-102.5 -20q-74 0 -125 41.5t-60 112.5h75q3 -18 15.5 -37.5t37.5 -31.5t57 -12q58 0 87 26
t29 85zM375 180v165q0 56 -29.5 86t-86.5 30q-40 0 -69 -17.5t-39.5 -45.5t-10.5 -53v-165q0 -55 30.5 -86t88.5 -31q25 0 53 10.5t45.5 39t17.5 67.5zM309 613h-92v109h92v-109z" />
    <glyph glyph-name="Gcommaaccent" unicode="&#x122;" horiz-adv-x="533" 
d="M468 182q0 -26 -10.5 -58.5t-33.5 -63t-63.5 -50t-95.5 -19.5q-41 0 -79 13.5t-65 42t-41.5 65t-14.5 71.5v348q0 26 10 58t33 62t63 49.5t96 19.5q41 0 79 -13t65 -40.5t42 -63.5t15 -73h-77q0 34 -15.5 61.5t-47.5 40.5t-61 13q-30 0 -59 -11.5t-47.5 -37t-18.5 -67.5
v-346q0 -59 36 -88t89 -29q52 0 88 29t36 88v134h-147v76h224v-211zM149 -201l93 158h70l-78 -158h-85z" />
    <glyph glyph-name="gcommaaccent" unicode="&#x123;" horiz-adv-x="526" 
d="M375 -42v83q-15 -23 -48.5 -37t-67.5 -14q-89 0 -141.5 51.5t-52.5 138.5v165q0 42 12 73t32 55t58 42.5t92 18.5q33 0 67.5 -14t48.5 -35v42h75v-569q0 -64 -23.5 -104t-65 -60t-102.5 -20q-74 0 -125 41.5t-60 112.5h75q3 -18 15.5 -37.5t37.5 -31.5t57 -12q58 0 87 26
t29 85zM375 180v165q0 56 -29.5 86t-86.5 30q-40 0 -69 -17.5t-39.5 -45.5t-10.5 -53v-165q0 -55 30.5 -86t88.5 -31q25 0 53 10.5t45.5 39t17.5 67.5zM377 756l-94 -158h-70l77 158h87z" />
    <glyph glyph-name="Hcircumflex" unicode="&#x124;" horiz-adv-x="567" 
d="M492 0h-77v336h-263v-336h-77v713h77v-301h263v301h77v-713zM422 780h-71l-68 89l-67 -89h-71l107 157h63z" />
    <glyph glyph-name="hcircumflex" unicode="&#x125;" horiz-adv-x="532" 
d="M461 0h-75v345q0 58 -25.5 87t-82.5 29q-53 0 -90.5 -32.5t-37.5 -81.5v-347h-75v713h75v-237q18 26 55.5 42t72.5 16q89 0 136 -50t47 -139v-345zM404 780h-71l-68 89l-67 -89h-71l107 157h63z" />
    <glyph glyph-name="Hbar" unicode="&#x126;" horiz-adv-x="567" 
d="M494 0h-77v336h-263v-336h-77v559h-61v69h61v85h77v-85h263v85h77v-85h61v-69h-61v-559zM154 412h263v147h-263v-147z" />
    <glyph glyph-name="hbar" unicode="&#x127;" 
d="M71 573h-66v69h66v70h75v-70h156v-69h-156v-96q18 26 55 41.5t73 15.5q88 0 135.5 -50t47.5 -139v-345h-75v345q0 58 -25.5 87t-82.5 29q-53 0 -90.5 -32.5t-37.5 -81.5v-347h-75v573z" />
    <glyph glyph-name="Itilde" unicode="&#x128;" horiz-adv-x="227" 
d="M75 713h77v-713h-77v713zM230 882l47 -46q-26 -25 -51 -40.5t-51 -15.5q-14 0 -29 5.5t-46.5 21.5t-46.5 16q-11 0 -22.5 -6.5t-33.5 -26.5l-47 45q26 26 50.5 41.5t51.5 15.5q23 0 65.5 -21.5t56.5 -21.5q22 0 56 33z" />
    <glyph glyph-name="itilde" unicode="&#x129;" horiz-adv-x="225" 
d="M150 0h-75v526h75v-526zM229 702l47 -46q-26 -25 -51 -40.5t-51 -15.5q-14 0 -29 5.5t-46.5 21.5t-46.5 16q-11 0 -22.5 -6.5t-33.5 -26.5l-47 45q26 26 50.5 41.5t51.5 15.5q23 0 65.5 -21.5t56.5 -21.5q22 0 56 33z" />
    <glyph glyph-name="Imacron" unicode="&#x12a;" horiz-adv-x="227" 
d="M75 713h77v-713h-77v713zM266 800h-305v69h305v-69z" />
    <glyph glyph-name="imacron" unicode="&#x12b;" horiz-adv-x="225" 
d="M150 0h-75v526h75v-526zM265 626h-305v69h305v-69z" />
    <glyph glyph-name="Ibreve" unicode="&#x12c;" horiz-adv-x="227" 
d="M75 713h77v-713h-77v713zM114 780q-27 0 -59.5 11t-57.5 43.5t-30 83.5h64q4 -38 26 -59t57 -21t56.5 21t26.5 59h63q-4 -43 -22.5 -73.5t-51 -47.5t-72.5 -17z" />
    <glyph glyph-name="ibreve" unicode="&#x12d;" horiz-adv-x="225" 
d="M150 0h-75v526h75v-526zM113 598q-27 0 -59.5 11t-57.5 43.5t-30 83.5h64q4 -38 26 -59t57 -21t56.5 21t26.5 59h63q-4 -43 -22.5 -73.5t-51 -47.5t-72.5 -17z" />
    <glyph glyph-name="Iogonek" unicode="&#x12e;" horiz-adv-x="227" 
d="M75 713h77v-713h-77v713zM149 -43l93 -158h-85l-78 158h70z" />
    <glyph glyph-name="iogonek" unicode="&#x12f;" horiz-adv-x="242" 
d="M159 0h-75v527h75v-527zM167 613h-92v108h92v-108zM156 -43l93 -158h-85l-78 158h70z" />
    <glyph glyph-name="Idotaccent" unicode="&#x130;" horiz-adv-x="227" 
d="M75 713h77v-713h-77v713zM160 780h-92v109h92v-109z" />
    <glyph glyph-name="dotlessi" unicode="&#x131;" horiz-adv-x="225" 
d="M150 0h-75v526h75v-526z" />
    <glyph glyph-name="IJ" unicode="&#x132;" horiz-adv-x="672" 
d="M74 713h77v-713h-77v713zM602 181q0 -89 -48 -139.5t-134 -50.5q-84 0 -132.5 52t-48.5 136h77q0 -33 11.5 -60t38 -40t55.5 -13q49 0 76.5 27.5t27.5 81.5v462h-210v76h287v-532z" />
    <glyph glyph-name="ij" unicode="&#x133;" horiz-adv-x="476" 
d="M158 0h-75v527h75v-527zM166 613h-92v108h92v-108zM393 -89q0 -44 -15 -74.5t-44 -46.5t-67 -16h-29v73h24q24 0 40 14.5t16 44.5v621h75v-616zM401 613h-91v108h91v-108z" />
    <glyph glyph-name="Jcircumflex" unicode="&#x134;" horiz-adv-x="448" 
d="M378 181q0 -89 -48 -139.5t-134 -50.5q-84 0 -132.5 52t-48.5 136h77q0 -33 11.5 -60t38 -40t55.5 -13q49 0 76.5 27.5t27.5 81.5v462h-210v76h287v-532zM370 780h-71l-68 89l-67 -89h-71l107 157h63z" />
    <glyph glyph-name="jcircumflex" unicode="&#x135;" horiz-adv-x="233" 
d="M150 -89q0 -44 -15 -74.5t-44 -46.5t-67 -16h-29v73h24q24 0 40 14.5t16 44.5v621h75v-616zM255 598h-71l-68 89l-67 -89h-71l107 157h63z" />
    <glyph glyph-name="Kcommaaccent" unicode="&#x136;" horiz-adv-x="514" 
d="M494 0h-88l-194 328l-60 -89v-239h-77v713h77v-339l240 339h88l-224 -319zM133 -201l93 158h70l-78 -158h-85z" />
    <glyph glyph-name="kcommaaccent" unicode="&#x137;" horiz-adv-x="501" 
d="M477 0h-90l-159 250l-77 -84v-166h-75v713h75v-441l230 254h99l-202 -222zM145 -201l93 158h70l-78 -158h-85z" />
    <glyph glyph-name="Lacute" unicode="&#x139;" horiz-adv-x="469" 
d="M459 0h-384v713h77v-637h307v-76zM326 938l-94 -158h-70l77 158h87z" />
    <glyph glyph-name="lacute" unicode="&#x13a;" horiz-adv-x="242" 
d="M71 136v577h75v-581q0 -30 16 -44.5t40 -14.5h24v-73h-29q-25 0 -55 10.5t-50.5 42t-20.5 83.5zM240 938l-94 -158h-70l77 158h87z" />
    <glyph glyph-name="Lcommaaccent" unicode="&#x13b;" horiz-adv-x="469" 
d="M459 0h-384v713h77v-637h307v-76zM136 -201l93 158h70l-78 -158h-85z" />
    <glyph glyph-name="lcommaaccent" unicode="&#x13c;" horiz-adv-x="242" 
d="M71 136v577h75v-581q0 -30 16 -44.5t40 -14.5h24v-73h-29q-25 0 -55 10.5t-50.5 42t-20.5 83.5zM59 -201l93 158h70l-78 -158h-85z" />
    <glyph glyph-name="Lcaron" unicode="&#x13d;" horiz-adv-x="478" 
d="M459 0h-384v713h77v-637h307v-76zM400 551h-70v196h70v-196z" />
    <glyph glyph-name="lcaron" unicode="&#x13e;" horiz-adv-x="339" 
d="M71 136v577h75v-581q0 -30 16 -44.5t40 -14.5h24v-73h-29q-25 0 -55 10.5t-50.5 42t-20.5 83.5zM320 551h-70v196h70v-196z" />
    <glyph glyph-name="Ldot" unicode="&#x13f;" horiz-adv-x="469" 
d="M459 0h-384v713h77v-637h307v-76zM344 211h-106v107h106v-107z" />
    <glyph glyph-name="ldot" unicode="&#x140;" horiz-adv-x="423" 
d="M71 136v577h75v-581q0 -30 16 -44.5t40 -14.5h24v-73h-29q-25 0 -55 10.5t-50.5 42t-20.5 83.5zM383 213h-106v107h106v-107z" />
    <glyph glyph-name="Lslash" unicode="&#x141;" horiz-adv-x="466" 
d="M456 0h-383v250h-72v72h72v391h77v-391h211v-72h-211v-174h306v-76z" />
    <glyph glyph-name="lslash" unicode="&#x142;" horiz-adv-x="275" 
d="M87 136v114h-90v71h90v392h75v-392h91v-71h-91v-118q0 -30 16 -44.5t40 -14.5h24v-73h-29q-25 0 -55 10.5t-50.5 42t-20.5 83.5z" />
    <glyph glyph-name="Nacute" unicode="&#x143;" horiz-adv-x="558" 
d="M483 0h-93l-238 560v-560h-77v713h91l240 -568v568h77v-713zM381 938l-94 -158h-70l77 158h87z" />
    <glyph glyph-name="nacute" unicode="&#x144;" horiz-adv-x="532" 
d="M461 0h-75v345q0 58 -25.5 87t-82.5 29q-53 0 -90.5 -32.5t-37.5 -81.5v-347h-75v527h75v-50q18 26 55 41.5t73 15.5q88 0 135.5 -50t47.5 -139v-345zM388 756l-94 -158h-70l77 158h87z" />
    <glyph glyph-name="Ncommaaccent" unicode="&#x145;" horiz-adv-x="558" 
d="M483 0h-93l-238 560v-560h-77v713h91l240 -568v568h77v-713zM155 -201l93 158h70l-78 -158h-85z" />
    <glyph glyph-name="ncommaaccent" unicode="&#x146;" horiz-adv-x="532" 
d="M461 0h-75v345q0 58 -25.5 87t-82.5 29q-53 0 -90.5 -32.5t-37.5 -81.5v-347h-75v527h75v-50q18 26 55 41.5t73 15.5q88 0 135.5 -50t47.5 -139v-345zM134 -201l93 158h70l-78 -158h-85z" />
    <glyph glyph-name="Ncaron" unicode="&#x147;" horiz-adv-x="558" 
d="M483 0h-93l-238 560v-560h-77v713h91l240 -568v568h77v-713zM140 937h71l68 -89l67 89h71l-107 -157h-63z" />
    <glyph glyph-name="ncaron" unicode="&#x148;" horiz-adv-x="532" 
d="M461 0h-75v345q0 58 -25.5 87t-82.5 29q-53 0 -90.5 -32.5t-37.5 -81.5v-347h-75v527h75v-50q18 26 55 41.5t73 15.5q88 0 135.5 -50t47.5 -139v-345zM127 755h71l68 -89l67 89h71l-107 -157h-63z" />
    <glyph glyph-name="napostrophe" unicode="&#x149;" horiz-adv-x="576" 
d="M508 0h-75v345q0 58 -25.5 87t-82.5 29q-53 0 -90.5 -32.5t-37.5 -81.5v-347h-75v527h75v-50q18 26 55 41.5t73 15.5q88 0 135.5 -50t47.5 -139v-345zM69 551h-70v196h70v-196z" />
    <glyph glyph-name="Eng" unicode="&#x14a;" horiz-adv-x="558" 
d="M483 0v-29q0 -89 -48 -139.5t-134 -50.5l1 75q49 0 76.5 27.5t27.5 81.5v35h-16l-238 560v-560h-77v713h91l240 -568v568h77v-713z" />
    <glyph glyph-name="eng" unicode="&#x14b;" horiz-adv-x="526" 
d="M461 345v-434q0 -44 -15 -74.5t-44 -46.5t-67 -16h-29v73h24q24 0 40 14.5t16 44.5v439q0 58 -25.5 87t-82.5 29q-53 0 -90.5 -32.5t-37.5 -81.5v-347h-75v527h75v-50q18 26 55 41.5t73 15.5q88 0 135.5 -50t47.5 -139z" />
    <glyph glyph-name="Omacron" unicode="&#x14c;" horiz-adv-x="533" 
d="M468 182q0 -28 -10 -60.5t-33 -62t-63 -49t-96 -19.5q-41 0 -79.5 13.5t-65.5 41.5t-41.5 64.5t-14.5 72.5v348q0 27 11.5 64t41 68t68.5 44t81 13q41 0 79 -13t65 -41t42 -64.5t15 -71.5v-348zM391 183v346q0 58 -36 87t-88 29q-53 0 -89 -29t-36 -87v-346q0 -59 36 -88
t89 -29q52 0 88 29t36 88zM419 800h-305v69h305v-69z" />
    <glyph glyph-name="omacron" unicode="&#x14d;" 
d="M458 180q0 -85 -54.5 -137.5t-141.5 -52.5q-89 0 -143 51.5t-54 138.5v165q0 85 54.5 137t142.5 52q89 0 142.5 -51t53.5 -138v-165zM383 180v165q0 33 -14.5 62t-43.5 41.5t-63 12.5q-26 0 -55 -10t-48 -38t-19 -68v-165q0 -33 15 -62.5t44 -42t63 -12.5q26 0 54.5 10.5
t47.5 39t19 67.5zM414 626h-305v69h305v-69z" />
    <glyph glyph-name="Obreve" unicode="&#x14e;" horiz-adv-x="533" 
d="M468 182q0 -28 -10 -60.5t-33 -62t-63 -49t-96 -19.5q-41 0 -79.5 13.5t-65.5 41.5t-41.5 64.5t-14.5 72.5v348q0 27 11.5 64t41 68t68.5 44t81 13q41 0 79 -13t65 -41t42 -64.5t15 -71.5v-348zM391 183v346q0 58 -36 87t-88 29q-53 0 -89 -29t-36 -87v-346q0 -59 36 -88
t89 -29q52 0 88 29t36 88zM267 780q-27 0 -59.5 11t-57.5 43.5t-30 83.5h64q4 -38 26 -59t57 -21t56.5 21t26.5 59h63q-4 -43 -22.5 -73.5t-51 -47.5t-72.5 -17z" />
    <glyph glyph-name="obreve" unicode="&#x14f;" 
d="M458 180q0 -85 -54.5 -137.5t-141.5 -52.5q-89 0 -143 51.5t-54 138.5v165q0 85 54.5 137t142.5 52q89 0 142.5 -51t53.5 -138v-165zM383 180v165q0 33 -14.5 62t-43.5 41.5t-63 12.5q-26 0 -55 -10t-48 -38t-19 -68v-165q0 -33 15 -62.5t44 -42t63 -12.5q26 0 54.5 10.5
t47.5 39t19 67.5zM262 598q-27 0 -59.5 11t-57.5 43.5t-30 83.5h64q4 -38 26 -59t57 -21t56.5 21t26.5 59h63q-4 -43 -22.5 -73.5t-51 -47.5t-72.5 -17z" />
    <glyph glyph-name="Ohungarumlaut" unicode="&#x150;" horiz-adv-x="533" 
d="M468 182q0 -28 -10 -60.5t-33 -62t-63 -49t-96 -19.5q-41 0 -79.5 13.5t-65.5 41.5t-41.5 64.5t-14.5 72.5v348q0 27 11.5 64t41 68t68.5 44t81 13q41 0 79 -13t65 -41t42 -64.5t15 -71.5v-348zM391 183v346q0 58 -36 87t-88 29q-53 0 -89 -29t-36 -87v-346q0 -59 36 -88
t89 -29q52 0 88 29t36 88zM327 929l-89 -149h-64l73 149h80zM458 929l-88 -149h-64l73 149h79z" />
    <glyph glyph-name="ohungarumlaut" unicode="&#x151;" 
d="M458 180q0 -85 -54.5 -137.5t-141.5 -52.5q-89 0 -143 51.5t-54 138.5v165q0 85 54.5 137t142.5 52q89 0 142.5 -51t53.5 -138v-165zM383 180v165q0 33 -14.5 62t-43.5 41.5t-63 12.5q-26 0 -55 -10t-48 -38t-19 -68v-165q0 -33 15 -62.5t44 -42t63 -12.5q26 0 54.5 10.5
t47.5 39t19 67.5zM317 752l-89 -149h-64l73 149h80zM448 752l-88 -149h-64l73 149h79z" />
    <glyph glyph-name="OE" unicode="&#x152;" horiz-adv-x="822" 
d="M777 0h-385v28q-53 -37 -126 -37q-41 0 -79 13.5t-65 42t-42 65t-15 71.5v348q0 26 10 57.5t33 61.5t63.5 49.5t95.5 19.5q75 0 125 -37v31h385v-76h-308v-222h285v-76h-285v-264h308v-75zM267 67q29 0 54 9t39.5 23t22.5 32.5t9 43.5v354q0 58 -35.5 86t-89.5 28
q-53 0 -89 -28t-36 -86v-346q0 -35 15.5 -63t47.5 -40.5t62 -12.5z" />
    <glyph glyph-name="oe" unicode="&#x153;" horiz-adv-x="828" 
d="M451 239v-67q1 -31 14 -56t38.5 -39t66.5 -14q49 0 80.5 29.5t36.5 79.5h75q-6 -83 -58 -132.5t-134 -49.5q-108 0 -158 70q-24 -34 -63.5 -52t-89.5 -18q-90 0 -142 51t-52 139v165q0 86 53 137.5t141 51.5q49 0 89.5 -19t65.5 -51q26 33 67 51.5t89 18.5
q88 0 140.5 -51t52.5 -138v-106h-312zM376 175v178q0 31 -15 58.5t-42.5 38.5t-59.5 11q-55 0 -87 -31t-32 -85v-165q0 -56 30.5 -86.5t88.5 -30.5q25 0 52.5 10t45 37t19.5 65zM688 312v33q0 34 -12.5 60t-38 41t-67.5 15q-54 0 -86.5 -29.5t-32.5 -80.5v-39h237z" />
    <glyph glyph-name="Racute" unicode="&#x154;" horiz-adv-x="543" 
d="M496 0h-87l-140 301h-117v-301h-77v713h211q42 0 80 -13.5t63 -41t37.5 -63t12.5 -70.5v-34q0 -36 -15.5 -78t-46 -68t-67.5 -37zM402 492v30q0 26 -9 52.5t-37.5 44.5t-71.5 18h-132v-260h134q30 0 56.5 11t43 36t16.5 68zM363 938l-94 -158h-70l77 158h87z" />
    <glyph glyph-name="racute" unicode="&#x155;" horiz-adv-x="312" 
d="M286 455h-43q-34 0 -63.5 -31.5t-29.5 -89.5v-334h-75v527h75v-50q18 22 44.5 36t49.5 14h42v-72zM245 756l-94 -158h-70l77 158h87z" />
    <glyph glyph-name="Rcommaaccent" unicode="&#x156;" horiz-adv-x="543" 
d="M496 0h-87l-140 301h-117v-301h-77v713h211q42 0 80 -13.5t63 -41t37.5 -63t12.5 -70.5v-34q0 -36 -15.5 -78t-46 -68t-67.5 -37zM402 492v30q0 26 -9 52.5t-37.5 44.5t-71.5 18h-132v-260h134q30 0 56.5 11t43 36t16.5 68zM145 -201l93 158h70l-78 -158h-85z" />
    <glyph glyph-name="rcommaaccent" unicode="&#x157;" horiz-adv-x="312" 
d="M286 455h-43q-34 0 -63.5 -31.5t-29.5 -89.5v-334h-75v527h75v-50q18 22 44.5 36t49.5 14h42v-72zM-15 -201l93 158h70l-78 -158h-85z" />
    <glyph glyph-name="Rcaron" unicode="&#x158;" horiz-adv-x="543" 
d="M496 0h-87l-140 301h-117v-301h-77v713h211q42 0 80 -13.5t63 -41t37.5 -63t12.5 -70.5v-34q0 -36 -15.5 -78t-46 -68t-67.5 -37zM402 492v30q0 26 -9 52.5t-37.5 44.5t-71.5 18h-132v-260h134q30 0 56.5 11t43 36t16.5 68zM123 937h71l68 -89l67 89h71l-107 -157h-63z
" />
    <glyph glyph-name="rcaron" unicode="&#x159;" horiz-adv-x="312" 
d="M286 455h-43q-34 0 -63.5 -31.5t-29.5 -89.5v-334h-75v527h75v-50q18 22 44.5 36t49.5 14h42v-72zM18 755h71l68 -89l67 89h71l-107 -157h-63z" />
    <glyph glyph-name="Sacute" unicode="&#x15a;" horiz-adv-x="513" 
d="M468 182q0 -30 -11 -62.5t-37.5 -61t-69 -48.5t-97.5 -20q-46 0 -84.5 14.5t-66 40.5t-42.5 60.5t-15 73.5h77q0 -52 37 -83t93 -31q46 0 80 19.5t46.5 47.5t12.5 52q0 69 -70 111q-28 16 -86 46t-82 43q-42 23 -69 65t-27 91q0 58 32 102.5t77.5 61.5t87.5 17
q89 0 146 -53.5t57 -135.5h-77q0 28 -12.5 54t-43 43t-70.5 17q-51 0 -85.5 -29.5t-34.5 -78.5q0 -60 63 -92q103 -51 160 -82q53 -29 82 -76.5t29 -105.5zM368 938l-94 -158h-70l77 158h87z" />
    <glyph glyph-name="sacute" unicode="&#x15b;" horiz-adv-x="482" 
d="M436 156q0 -32 -10.5 -62.5t-35 -53t-62 -35.5t-88.5 -13q-86 0 -140 48.5t-54 131.5h75q0 -37 18.5 -63t47 -35t53.5 -9q37 0 64 9.5t42 29.5t15 52q0 24 -16 40t-43 23q-5 2 -17 5t-61 14.5t-54 12.5q-35 8 -64 30.5t-40.5 49.5t-11.5 50q0 39 14.5 68.5t40.5 48t60 27
t68 8.5q84 0 137 -45t56 -125h-76q-3 45 -33.5 71t-85.5 26q-20 0 -44.5 -5t-39.5 -20t-18.5 -29t-3.5 -25q0 -20 16.5 -36t42.5 -23q12 -3 63 -15t75 -19q35 -11 62 -32.5t37.5 -48.5t10.5 -51zM358 756l-94 -158h-70l77 158h87z" />
    <glyph glyph-name="Scircumflex" unicode="&#x15c;" horiz-adv-x="513" 
d="M468 182q0 -30 -11 -62.5t-37.5 -61t-69 -48.5t-97.5 -20q-46 0 -84.5 14.5t-66 40.5t-42.5 60.5t-15 73.5h77q0 -52 37 -83t93 -31q46 0 80 19.5t46.5 47.5t12.5 52q0 69 -70 111q-28 16 -86 46t-82 43q-42 23 -69 65t-27 91q0 58 32 102.5t77.5 61.5t87.5 17
q89 0 146 -53.5t57 -135.5h-77q0 28 -12.5 54t-43 43t-70.5 17q-51 0 -85.5 -29.5t-34.5 -78.5q0 -60 63 -92q103 -51 160 -82q53 -29 82 -76.5t29 -105.5zM395 780h-71l-68 89l-67 -89h-71l107 157h63z" />
    <glyph glyph-name="scircumflex" unicode="&#x15d;" horiz-adv-x="482" 
d="M436 156q0 -32 -10.5 -62.5t-35 -53t-62 -35.5t-88.5 -13q-86 0 -140 48.5t-54 131.5h75q0 -37 18.5 -63t47 -35t53.5 -9q37 0 64 9.5t42 29.5t15 52q0 24 -16 40t-43 23q-5 2 -17 5t-61 14.5t-54 12.5q-35 8 -64 30.5t-40.5 49.5t-11.5 50q0 39 14.5 68.5t40.5 48t60 27
t68 8.5q84 0 137 -45t56 -125h-76q-3 45 -33.5 71t-85.5 26q-20 0 -44.5 -5t-39.5 -20t-18.5 -29t-3.5 -25q0 -20 16.5 -36t42.5 -23q12 -3 63 -15t75 -19q35 -11 62 -32.5t37.5 -48.5t10.5 -51zM379 598h-71l-68 89l-67 -89h-71l107 157h63z" />
    <glyph glyph-name="Scedilla" unicode="&#x15e;" horiz-adv-x="513" 
d="M468 182q0 -30 -11 -62.5t-37.5 -61t-69 -48.5t-97.5 -20q-46 0 -84.5 14.5t-66 40.5t-42.5 60.5t-15 73.5h77q0 -52 37 -83t93 -31q46 0 80 19.5t46.5 47.5t12.5 52q0 69 -70 111q-28 16 -86 46t-82 43q-42 23 -69 65t-27 91q0 58 32 102.5t77.5 61.5t87.5 17
q89 0 146 -53.5t57 -135.5h-77q0 28 -12.5 54t-43 43t-70.5 17q-51 0 -85.5 -29.5t-34.5 -78.5q0 -60 63 -92q103 -51 160 -82q53 -29 82 -76.5t29 -105.5zM145 -201l93 158h70l-78 -158h-85z" />
    <glyph glyph-name="scedilla" unicode="&#x15f;" horiz-adv-x="482" 
d="M436 156q0 -32 -10.5 -62.5t-35 -53t-62 -35.5t-88.5 -13q-86 0 -140 48.5t-54 131.5h75q0 -37 18.5 -63t47 -35t53.5 -9q37 0 64 9.5t42 29.5t15 52q0 24 -16 40t-43 23q-5 2 -17 5t-61 14.5t-54 12.5q-35 8 -64 30.5t-40.5 49.5t-11.5 50q0 39 14.5 68.5t40.5 48t60 27
t68 8.5q84 0 137 -45t56 -125h-76q-3 45 -33.5 71t-85.5 26q-20 0 -44.5 -5t-39.5 -20t-18.5 -29t-3.5 -25q0 -20 16.5 -36t42.5 -23q12 -3 63 -15t75 -19q35 -11 62 -32.5t37.5 -48.5t10.5 -51zM124 -201l93 158h70l-78 -158h-85z" />
    <glyph glyph-name="Scaron" unicode="&#x160;" horiz-adv-x="513" 
d="M468 182q0 -30 -11 -62.5t-37.5 -61t-69 -48.5t-97.5 -20q-46 0 -84.5 14.5t-66 40.5t-42.5 60.5t-15 73.5h77q0 -52 37 -83t93 -31q46 0 80 19.5t46.5 47.5t12.5 52q0 69 -70 111q-28 16 -86 46t-82 43q-42 23 -69 65t-27 91q0 58 32 102.5t77.5 61.5t87.5 17
q89 0 146 -53.5t57 -135.5h-77q0 28 -12.5 54t-43 43t-70.5 17q-51 0 -85.5 -29.5t-34.5 -78.5q0 -60 63 -92q103 -51 160 -82q53 -29 82 -76.5t29 -105.5zM118 937h71l68 -89l67 89h71l-107 -157h-63z" />
    <glyph glyph-name="scaron" unicode="&#x161;" horiz-adv-x="482" 
d="M436 156q0 -32 -10.5 -62.5t-35 -53t-62 -35.5t-88.5 -13q-86 0 -140 48.5t-54 131.5h75q0 -37 18.5 -63t47 -35t53.5 -9q37 0 64 9.5t42 29.5t15 52q0 24 -16 40t-43 23q-5 2 -17 5t-61 14.5t-54 12.5q-35 8 -64 30.5t-40.5 49.5t-11.5 50q0 39 14.5 68.5t40.5 48t60 27
t68 8.5q84 0 137 -45t56 -125h-76q-3 45 -33.5 71t-85.5 26q-20 0 -44.5 -5t-39.5 -20t-18.5 -29t-3.5 -25q0 -20 16.5 -36t42.5 -23q12 -3 63 -15t75 -19q35 -11 62 -32.5t37.5 -48.5t10.5 -51zM102 755h71l68 -89l67 89h71l-107 -157h-63z" />
    <glyph glyph-name="Tcommaaccent" unicode="&#x162;" horiz-adv-x="467" 
d="M446 637h-174v-637h-77v637h-174v76h425v-76zM106 -201l93 158h70l-78 -158h-85z" />
    <glyph glyph-name="tcommaaccent" unicode="&#x163;" horiz-adv-x="349" 
d="M16 454v73h100v186h75v-186h115v-73h-115v-322q0 -30 15.5 -44.5t39.5 -14.5h62v-73h-66q-25 0 -55 10.5t-50.5 42t-20.5 83.5v318h-100zM138 -201l93 158h70l-78 -158h-85z" />
    <glyph glyph-name="Tcaron" unicode="&#x164;" horiz-adv-x="467" 
d="M446 637h-174v-637h-77v637h-174v76h425v-76zM95 937h71l68 -89l67 89h71l-107 -157h-63z" />
    <glyph glyph-name="tcaron" unicode="&#x165;" horiz-adv-x="464" 
d="M16 454v73h100v186h75v-186h115v-73h-115v-322q0 -30 15.5 -44.5t39.5 -14.5h62v-73h-66q-25 0 -55 10.5t-50.5 42t-20.5 83.5v318h-100zM435 551h-70v196h70v-196z" />
    <glyph glyph-name="Tbar" unicode="&#x166;" horiz-adv-x="467" 
d="M446 637h-174v-228h114v-71h-114v-338h-77v338h-110v71h110v228h-174v76h425v-76z" />
    <glyph glyph-name="tbar" unicode="&#x167;" horiz-adv-x="349" 
d="M191 247v-115q0 -30 15.5 -44.5t39.5 -14.5h62v-73h-66q-25 0 -55 10.5t-50.5 42t-20.5 83.5v111h-100v71h100v138h-100v71h100v186h75v-186h115v-71h-115v-138h115v-71h-115z" />
    <glyph glyph-name="Utilde" unicode="&#x168;" horiz-adv-x="534" 
d="M469 182q0 -28 -9.5 -60.5t-32.5 -62.5t-63 -49t-96 -19q-42 0 -76.5 11.5t-61 33.5t-46 61.5t-19.5 85.5v530h77v-530q0 -17 5.5 -39.5t22 -40t42.5 -27.5t55 -10q53 0 89 29t36 88v530h77v-531zM383 882l47 -46q-26 -25 -51 -40.5t-51 -15.5q-14 0 -29 5.5t-46.5 21.5
t-46.5 16q-11 0 -22.5 -6.5t-33.5 -26.5l-47 45q26 26 50.5 41.5t51.5 15.5q23 0 65.5 -21.5t56.5 -21.5q22 0 56 33z" />
    <glyph glyph-name="utilde" unicode="&#x169;" horiz-adv-x="535" 
d="M460 0h-75v42q-17 -22 -51.5 -36.5t-68.5 -14.5q-89 0 -141.5 51t-52.5 138v347h75v-347q0 -55 30.5 -85.5t88.5 -30.5q24 0 52.5 10t48 37.5t19.5 63.5v352h75v-527zM384 702l47 -46q-26 -25 -51 -40.5t-51 -15.5q-14 0 -29 5.5t-46.5 21.5t-46.5 16q-11 0 -22.5 -6.5
t-33.5 -26.5l-47 45q26 26 50.5 41.5t51.5 15.5q23 0 65.5 -21.5t56.5 -21.5q22 0 56 33z" />
    <glyph glyph-name="Umacron" unicode="&#x16a;" horiz-adv-x="534" 
d="M469 182q0 -28 -9.5 -60.5t-32.5 -62.5t-63 -49t-96 -19q-42 0 -76.5 11.5t-61 33.5t-46 61.5t-19.5 85.5v530h77v-530q0 -17 5.5 -39.5t22 -40t42.5 -27.5t55 -10q53 0 89 29t36 88v530h77v-531zM419 800h-305v69h305v-69z" />
    <glyph glyph-name="umacron" unicode="&#x16b;" horiz-adv-x="535" 
d="M460 0h-75v42q-17 -22 -51.5 -36.5t-68.5 -14.5q-89 0 -141.5 51t-52.5 138v347h75v-347q0 -55 30.5 -85.5t88.5 -30.5q24 0 52.5 10t48 37.5t19.5 63.5v352h75v-527zM420 626h-305v69h305v-69z" />
    <glyph glyph-name="Ubreve" unicode="&#x16c;" horiz-adv-x="534" 
d="M469 182q0 -28 -9.5 -60.5t-32.5 -62.5t-63 -49t-96 -19q-42 0 -76.5 11.5t-61 33.5t-46 61.5t-19.5 85.5v530h77v-530q0 -17 5.5 -39.5t22 -40t42.5 -27.5t55 -10q53 0 89 29t36 88v530h77v-531zM267 780q-27 0 -59.5 11t-57.5 43.5t-30 83.5h64q4 -38 26 -59t57 -21
t56.5 21t26.5 59h63q-4 -43 -22.5 -73.5t-51 -47.5t-72.5 -17z" />
    <glyph glyph-name="ubreve" unicode="&#x16d;" horiz-adv-x="535" 
d="M460 0h-75v42q-17 -22 -51.5 -36.5t-68.5 -14.5q-89 0 -141.5 51t-52.5 138v347h75v-347q0 -55 30.5 -85.5t88.5 -30.5q24 0 52.5 10t48 37.5t19.5 63.5v352h75v-527zM268 598q-27 0 -59.5 11t-57.5 43.5t-30 83.5h64q4 -38 26 -59t57 -21t56.5 21t26.5 59h63
q-4 -43 -22.5 -73.5t-51 -47.5t-72.5 -17z" />
    <glyph glyph-name="Uring" unicode="&#x16e;" horiz-adv-x="534" 
d="M469 182q0 -28 -9.5 -60.5t-32.5 -62.5t-63 -49t-96 -19q-42 0 -76.5 11.5t-61 33.5t-46 61.5t-19.5 85.5v530h77v-530q0 -17 5.5 -39.5t22 -40t42.5 -27.5t55 -10q53 0 89 29t36 88v530h77v-531zM374 851q0 -31 -18.5 -58t-43.5 -38t-46 -11q-20 0 -45 11t-43 38t-18 58
q0 44 31.5 75.5t74.5 31.5q21 0 46 -10.5t43.5 -37.5t18.5 -59zM320 851q0 21 -16 37t-38 16q-21 0 -36.5 -16t-15.5 -37t15.5 -36.5t36.5 -15.5t37.5 15.5t16.5 36.5z" />
    <glyph glyph-name="uring" unicode="&#x16f;" horiz-adv-x="535" 
d="M460 0h-75v42q-17 -22 -51.5 -36.5t-68.5 -14.5q-89 0 -141.5 51t-52.5 138v347h75v-347q0 -55 30.5 -85.5t88.5 -30.5q24 0 52.5 10t48 37.5t19.5 63.5v352h75v-527zM374 665q0 -31 -18.5 -58t-43.5 -38t-46 -11q-20 0 -45 11t-43 38t-18 58q0 44 31.5 75.5t74.5 31.5
q21 0 46 -10.5t43.5 -37.5t18.5 -59zM320 665q0 21 -16 37t-38 16q-21 0 -36.5 -16t-15.5 -37t15.5 -36.5t36.5 -15.5t37.5 15.5t16.5 36.5z" />
    <glyph glyph-name="Uhungarumlaut" unicode="&#x170;" horiz-adv-x="534" 
d="M469 182q0 -28 -9.5 -60.5t-32.5 -62.5t-63 -49t-96 -19q-42 0 -76.5 11.5t-61 33.5t-46 61.5t-19.5 85.5v530h77v-530q0 -17 5.5 -39.5t22 -40t42.5 -27.5t55 -10q53 0 89 29t36 88v530h77v-531zM323 929l-89 -149h-64l73 149h80zM454 929l-88 -149h-64l73 149h79z" />
    <glyph glyph-name="uhungarumlaut" unicode="&#x171;" horiz-adv-x="535" 
d="M460 0h-75v42q-17 -22 -51.5 -36.5t-68.5 -14.5q-89 0 -141.5 51t-52.5 138v347h75v-347q0 -55 30.5 -85.5t88.5 -30.5q24 0 52.5 10t48 37.5t19.5 63.5v352h75v-527zM308 752l-89 -149h-64l73 149h80zM439 752l-88 -149h-64l73 149h79z" />
    <glyph glyph-name="Uogonek" unicode="&#x172;" horiz-adv-x="534" 
d="M469 182q0 -28 -9.5 -60.5t-32.5 -62.5t-63 -49t-96 -19q-42 0 -76.5 11.5t-61 33.5t-46 61.5t-19.5 85.5v530h77v-530q0 -17 5.5 -39.5t22 -40t42.5 -27.5t55 -10q53 0 89 29t36 88v530h77v-531zM299 -43l93 -158h-85l-78 158h70z" />
    <glyph glyph-name="uogonek" unicode="&#x173;" horiz-adv-x="535" 
d="M460 0h-75v42q-17 -22 -51.5 -36.5t-68.5 -14.5q-89 0 -141.5 51t-52.5 138v347h75v-347q0 -55 30.5 -85.5t88.5 -30.5q24 0 52.5 10t48 37.5t19.5 63.5v352h75v-527zM459 -43l93 -158h-85l-78 158h70z" />
    <glyph glyph-name="Wcircumflex" unicode="&#x174;" horiz-adv-x="784" 
d="M763 713l-149 -713h-92l-130 551l-131 -551h-92l-148 713h78l119 -594l138 594h72l135 -593l121 593h79zM530 780h-71l-68 89l-67 -89h-71l107 157h63z" />
    <glyph glyph-name="wcircumflex" unicode="&#x175;" horiz-adv-x="686" 
d="M649 527l-121 -527h-88l-97 405l-97 -405h-87l-122 527h78l92 -434l101 434h70l101 -435l92 435h78zM482 598h-71l-68 89l-67 -89h-71l107 157h63z" />
    <glyph glyph-name="Ycircumflex" unicode="&#x176;" horiz-adv-x="494" 
d="M473 713l-188 -456v-257h-77v259l-187 454h83l143 -358l143 358h83zM385 780h-71l-68 89l-67 -89h-71l107 157h63z" />
    <glyph glyph-name="ycircumflex" unicode="&#x177;" horiz-adv-x="440" 
d="M220 72h6l126 455h77l-178 -627q-19 -68 -53 -97t-110 -29h-36v73h51q30 0 50 12.5t28 43.5l27 97h-41l-150 527h78zM358 598h-71l-68 89l-67 -89h-71l107 157h63z" />
    <glyph glyph-name="Ydieresis" unicode="&#x178;" horiz-adv-x="494" 
d="M473 713l-188 -456v-257h-77v259l-187 454h83l143 -358l143 358h83zM397 780h-92v109h92v-109zM188 780h-92v109h92v-109z" />
    <glyph glyph-name="Zacute" unicode="&#x179;" horiz-adv-x="448" 
d="M423 0h-398v70l298 567h-284v76h368v-68l-298 -569h314v-76zM321 938l-94 -158h-70l77 158h87z" />
    <glyph glyph-name="zacute" unicode="&#x17a;" horiz-adv-x="439" 
d="M403 0h-367v68l258 386h-249v73h337v-68l-259 -386h280v-73zM331 756l-94 -158h-70l77 158h87z" />
    <glyph glyph-name="Zdotaccent" unicode="&#x17b;" horiz-adv-x="448" 
d="M423 0h-398v70l298 567h-284v76h368v-68l-298 -569h314v-76zM270 780h-92v109h92v-109z" />
    <glyph glyph-name="zdotaccent" unicode="&#x17c;" horiz-adv-x="439" 
d="M403 0h-367v68l258 386h-249v73h337v-68l-259 -386h280v-73zM265 613h-92v109h92v-109z" />
    <glyph glyph-name="Zcaron" unicode="&#x17d;" horiz-adv-x="448" 
d="M423 0h-398v70l298 567h-284v76h368v-68l-298 -569h314v-76zM85 937h71l68 -89l67 89h71l-107 -157h-63z" />
    <glyph glyph-name="zcaron" unicode="&#x17e;" horiz-adv-x="439" 
d="M403 0h-367v68l258 386h-249v73h337v-68l-259 -386h280v-73zM81 755h71l68 -89l67 89h71l-107 -157h-63z" />
    <glyph glyph-name="longs" unicode="&#x17f;" horiz-adv-x="321" 
d="M181 576v-576h-75v452h-91v73h91v39q0 70 35.5 109.5t105.5 39.5h47v-73h-56q-15 0 -29.5 -8t-21 -24t-6.5 -32z" />
    <glyph glyph-name="uni018F" unicode="&#x18f;" horiz-adv-x="533" 
d="M65 182v211h326v136q0 34 -15.5 62t-47.5 41t-62 13q-29 0 -58 -11.5t-47.5 -36.5t-18.5 -67h-77q0 28 10.5 60.5t33.5 62t63 48.5t94 19q42 0 76 -11.5t60.5 -34t46 -61.5t19.5 -82v-348q0 -26 -10 -59t-33 -63t-63 -50t-94 -20q-27 0 -58 7t-57.5 24t-44 39.5t-30.5 54
t-13 66.5zM142 317v-134q0 -59 36 -88t88 -29q53 0 89 29t36 88v134h-249z" />
    <glyph glyph-name="florin" unicode="&#x192;" horiz-adv-x="320" 
d="M181 -79q0 -69 -35 -103t-91 -34h-28v73h24q24 0 39.5 14.5t15.5 44.5v534h-91v73h91v31q0 70 35.5 109.5t105.5 39.5h47v-73h-56q-15 0 -29.5 -8t-21 -24t-6.5 -32v-43h124v-73h-124v-529z" />
    <glyph glyph-name="Ohorn" unicode="&#x1a0;" horiz-adv-x="576" 
d="M468 182q0 -28 -10 -60.5t-33 -62t-63 -49t-96 -19.5q-41 0 -79.5 13.5t-65.5 41.5t-41.5 64.5t-14.5 72.5v348q0 27 11.5 64t41 68t68.5 44t81 13q61 0 103 -24t61.5 -55.5t27.5 -55.5h2q51 0 51 55v73h69v-70q0 -58 -28 -90.5t-85 -36.5v-334zM391 183v346q0 58 -36 87
t-88 29q-53 0 -89 -29t-36 -87v-346q0 -59 36 -88t89 -29q52 0 88 29t36 88z" />
    <glyph glyph-name="ohorn" unicode="&#x1a1;" horiz-adv-x="545" 
d="M458 180q0 -85 -54.5 -137.5t-141.5 -52.5q-89 0 -143 51.5t-54 138.5v165q0 85 54.5 137t142.5 52q69 0 119 -33.5t68 -91.5q18 2 26 13.5t8 34.5v70h67v-71q0 -101 -92 -114v-162zM383 180v165q0 33 -14.5 62t-43.5 41.5t-63 12.5q-26 0 -55 -10t-48 -38t-19 -68v-165
q0 -33 15 -62.5t44 -42t63 -12.5q26 0 54.5 10.5t47.5 39t19 67.5z" />
    <glyph glyph-name="Uhorn" unicode="&#x1af;" horiz-adv-x="606" 
d="M469 182q0 -28 -9.5 -60.5t-32.5 -62.5t-63 -49t-96 -19q-42 0 -76.5 11.5t-61 33.5t-46 61.5t-19.5 85.5v530h77v-530q0 -17 5.5 -39.5t22 -40t42.5 -27.5t55 -10q53 0 89 29t36 88v530h77v-128h12q51 0 51 55v73h69v-70q0 -128 -130 -128h-2v-333z" />
    <glyph glyph-name="uhorn" unicode="&#x1b0;" horiz-adv-x="585" 
d="M460 0h-75v42q-17 -22 -51.5 -36.5t-68.5 -14.5q-89 0 -141.5 51t-52.5 138v347h75v-347q0 -55 30.5 -85.5t88.5 -30.5q24 0 52.5 10t48 37.5t19.5 63.5v352h75v-118h15q26 0 37 10.5t11 37.5v70h67v-71q0 -56 -29 -86t-98 -30h-3v-340z" />
    <glyph glyph-name="uni01CD" unicode="&#x1cd;" horiz-adv-x="540" 
d="M520 0h-76l-52 201h-241l-54 -201h-77l186 713h125zM372 276l-95 366h-13l-95 -366h203zM131 937h71l68 -89l67 89h71l-107 -157h-63z" />
    <glyph glyph-name="uni01CE" unicode="&#x1ce;" horiz-adv-x="512" 
d="M440 364v-364h-75v50q-17 -25 -56.5 -42t-82.5 -17q-51 0 -91 21.5t-62 59t-22 90.5q0 26 8.5 53t29 48t53.5 34.5t78 13.5h145v50q0 100 -108 100q-47 0 -78 -24t-33 -74h-75q1 44 18.5 77.5t45 54.5t60.5 30t61 9q55 0 96 -20t64.5 -57t23.5 -93zM365 179v61h-143
q-44 0 -70 -19t-26 -59q0 -53 32.5 -75.5t79.5 -22.5q22 0 51 10t52.5 37.5t23.5 67.5zM117 755h71l68 -89l67 89h71l-107 -157h-63z" />
    <glyph glyph-name="uni01CF" unicode="&#x1cf;" horiz-adv-x="227" 
d="M75 713h77v-713h-77v713zM-25 937h71l68 -89l67 89h71l-107 -157h-63z" />
    <glyph glyph-name="uni01D0" unicode="&#x1d0;" horiz-adv-x="225" 
d="M150 0h-75v526h75v-526zM-26 755h71l68 -89l67 89h71l-107 -157h-63z" />
    <glyph glyph-name="uni01D1" unicode="&#x1d1;" horiz-adv-x="533" 
d="M468 182q0 -28 -10 -60.5t-33 -62t-63 -49t-96 -19.5q-41 0 -79.5 13.5t-65.5 41.5t-41.5 64.5t-14.5 72.5v348q0 27 11.5 64t41 68t68.5 44t81 13q41 0 79 -13t65 -41t42 -64.5t15 -71.5v-348zM391 183v346q0 58 -36 87t-88 29q-53 0 -89 -29t-36 -87v-346q0 -59 36 -88
t89 -29q52 0 88 29t36 88zM128 937h71l68 -89l67 89h71l-107 -157h-63z" />
    <glyph glyph-name="uni01D2" unicode="&#x1d2;" 
d="M458 180q0 -85 -54.5 -137.5t-141.5 -52.5q-89 0 -143 51.5t-54 138.5v165q0 85 54.5 137t142.5 52q89 0 142.5 -51t53.5 -138v-165zM383 180v165q0 33 -14.5 62t-43.5 41.5t-63 12.5q-26 0 -55 -10t-48 -38t-19 -68v-165q0 -33 15 -62.5t44 -42t63 -12.5q26 0 54.5 10.5
t47.5 39t19 67.5zM123 755h71l68 -89l67 89h71l-107 -157h-63z" />
    <glyph glyph-name="uni01D3" unicode="&#x1d3;" horiz-adv-x="534" 
d="M469 182q0 -28 -9.5 -60.5t-32.5 -62.5t-63 -49t-96 -19q-42 0 -76.5 11.5t-61 33.5t-46 61.5t-19.5 85.5v530h77v-530q0 -17 5.5 -39.5t22 -40t42.5 -27.5t55 -10q53 0 89 29t36 88v530h77v-531zM128 937h71l68 -89l67 89h71l-107 -157h-63z" />
    <glyph glyph-name="uni01D4" unicode="&#x1d4;" horiz-adv-x="535" 
d="M460 0h-75v42q-17 -22 -51.5 -36.5t-68.5 -14.5q-89 0 -141.5 51t-52.5 138v347h75v-347q0 -55 30.5 -85.5t88.5 -30.5q24 0 52.5 10t48 37.5t19.5 63.5v352h75v-527zM129 755h71l68 -89l67 89h71l-107 -157h-63z" />
    <glyph glyph-name="uni01D5" unicode="&#x1d5;" horiz-adv-x="534" 
d="M469 182q0 -28 -9.5 -60.5t-32.5 -62.5t-63 -49t-96 -19q-42 0 -76.5 11.5t-61 33.5t-46 61.5t-19.5 85.5v530h77v-530q0 -17 5.5 -39.5t22 -40t42.5 -27.5t55 -10q53 0 89 29t36 88v530h77v-531zM405 942h-275v48h275v-48zM416 757h-88v103h88v-103zM207 757h-88v103h88
v-103z" />
    <glyph glyph-name="uni01D6" unicode="&#x1d6;" horiz-adv-x="535" 
d="M460 0h-75v42q-17 -22 -51.5 -36.5t-68.5 -14.5q-89 0 -141.5 51t-52.5 138v347h75v-347q0 -55 30.5 -85.5t88.5 -30.5q24 0 52.5 10t48 37.5t19.5 63.5v352h75v-527zM405 798h-275v48h275v-48zM416 613h-88v103h88v-103zM207 613h-88v103h88v-103z" />
    <glyph glyph-name="uni01D7" unicode="&#x1d7;" horiz-adv-x="534" 
d="M469 182q0 -28 -9.5 -60.5t-32.5 -62.5t-63 -49t-96 -19q-42 0 -76.5 11.5t-61 33.5t-46 61.5t-19.5 85.5v530h77v-530q0 -17 5.5 -39.5t22 -40t42.5 -27.5t55 -10q53 0 89 29t36 88v530h77v-531zM374 981l-89 -83h-70l76 83h83zM415 757h-88v103h88v-103zM206 757h-88
v103h88v-103z" />
    <glyph glyph-name="uni01D8" unicode="&#x1d8;" horiz-adv-x="535" 
d="M460 0h-75v42q-17 -22 -51.5 -36.5t-68.5 -14.5q-89 0 -141.5 51t-52.5 138v347h75v-347q0 -55 30.5 -85.5t88.5 -30.5q24 0 52.5 10t48 37.5t19.5 63.5v352h75v-527zM375 837l-89 -83h-70l76 83h83zM416 613h-88v103h88v-103zM207 613h-88v103h88v-103z" />
    <glyph glyph-name="uni01D9" unicode="&#x1d9;" horiz-adv-x="534" 
d="M469 182q0 -28 -9.5 -60.5t-32.5 -62.5t-63 -49t-96 -19q-42 0 -76.5 11.5t-61 33.5t-46 61.5t-19.5 85.5v530h77v-530q0 -17 5.5 -39.5t22 -40t42.5 -27.5t55 -10q53 0 89 29t36 88v530h77v-531zM132 1009h78l59 -58l58 58h78l-106 -111h-59zM418 757h-88v103h88v-103z
M209 757h-88v103h88v-103z" />
    <glyph glyph-name="uni01DA" unicode="&#x1da;" horiz-adv-x="535" 
d="M460 0h-75v42q-17 -22 -51.5 -36.5t-68.5 -14.5q-89 0 -141.5 51t-52.5 138v347h75v-347q0 -55 30.5 -85.5t88.5 -30.5q24 0 52.5 10t48 37.5t19.5 63.5v352h75v-527zM132 865h78l59 -58l58 58h78l-106 -111h-59zM418 613h-88v103h88v-103zM209 613h-88v103h88v-103z" />
    <glyph glyph-name="uni01DB" unicode="&#x1db;" horiz-adv-x="534" 
d="M469 182q0 -28 -9.5 -60.5t-32.5 -62.5t-63 -49t-96 -19q-42 0 -76.5 11.5t-61 33.5t-46 61.5t-19.5 85.5v530h77v-530q0 -17 5.5 -39.5t22 -40t42.5 -27.5t55 -10q53 0 89 29t36 88v530h77v-531zM231 898l-89 83h82l77 -83h-70zM416 757h-88v103h88v-103zM207 757h-88
v103h88v-103z" />
    <glyph glyph-name="uni01DC" unicode="&#x1dc;" horiz-adv-x="535" 
d="M460 0h-75v42q-17 -22 -51.5 -36.5t-68.5 -14.5q-89 0 -141.5 51t-52.5 138v347h75v-347q0 -55 30.5 -85.5t88.5 -30.5q24 0 52.5 10t48 37.5t19.5 63.5v352h75v-527zM229 754l-89 83h82l77 -83h-70zM414 613h-88v103h88v-103zM205 613h-88v103h88v-103z" />
    <glyph glyph-name="uni01DD" unicode="&#x1dd;" 
d="M65 179v106h318v59q0 33 -15 62.5t-44 42t-63 12.5q-50 0 -82.5 -29.5t-37.5 -79.5h-75q7 83 60 132.5t135 49.5q89 0 143 -51.5t54 -138.5v-165q0 -85 -54.5 -137t-142.5 -52q-89 0 -142.5 51t-53.5 138zM140 212v-33q0 -33 14.5 -62t43.5 -41.5t63 -12.5q26 0 55 10
t48 38t19 68v33h-243z" />
    <glyph glyph-name="AEacute" unicode="&#x1fc;" horiz-adv-x="779" 
d="M733 0h-385v201h-199l-53 -201h-76l186 713h527v-76h-308v-222h285v-76h-285v-263h308v-76zM263 637l-95 -361h180v361h-85zM521 938l-94 -158h-70l77 158h87z" />
    <glyph glyph-name="aeacute" unicode="&#x1fd;" horiz-adv-x="818" 
d="M753 345v-106h-311v-59q0 -55 30 -85.5t88 -30.5q49 0 80 29t36 79h76q-6 -83 -58 -132t-134 -49q-35 0 -72 15t-58.5 36t-29.5 38q-9 -18 -32 -39t-62.5 -35.5t-79.5 -14.5q-53 0 -92.5 21.5t-61 59t-21.5 90.5q0 44 20.5 77t59.5 53t93 20h142v50q0 99 -110 99
q-43 0 -74.5 -23.5t-33.5 -74.5h-76q1 33 13 65t41 58.5t66 37t64 10.5q20 0 49 -7t58.5 -25.5t43.5 -42.5q18 31 61.5 53t91.5 22q88 0 140.5 -51t52.5 -138zM366 178v63h-139q-33 0 -57 -10.5t-33.5 -29.5t-9.5 -39q0 -98 110 -98q60 0 94.5 36t34.5 78zM677 312v33
q0 56 -30 86t-87 30q-25 0 -53 -9.5t-46.5 -36.5t-18.5 -64v-39h235zM532 756l-94 -158h-70l77 158h87z" />
    <glyph glyph-name="Oslashacute" unicode="&#x1fe;" horiz-adv-x="533" 
d="M480 757l-52 -111q15 -20 27.5 -51t12.5 -65v-348q0 -28 -10 -60.5t-33 -62t-63 -49t-96 -19.5q-76 0 -126 38l-39 -83h-57l57 123q-14 20 -25 50t-11 64v348q0 27 11.5 64t41 68t68.5 44t81 13q71 0 122 -36l35 73h56zM391 183v346q0 17 -3 30l-215 -460
q14 -14 38.5 -23.5t55.5 -9.5q52 0 88 29t36 88zM142 183l2 -24l213 455q-19 17 -45 24t-45 7q-53 0 -89 -29t-36 -87v-346zM388 938l-94 -158h-70l77 158h87z" />
    <glyph glyph-name="oslashacute" unicode="&#x1ff;" 
d="M437 577l-42 -87q30 -24 46.5 -61.5t16.5 -83.5v-165q0 -85 -54.5 -137.5t-141.5 -52.5q-53 0 -96 19l-29 -61h-58l43 90q-57 51 -57 142v165q0 85 54.5 137t142.5 52q49 0 89 -17l29 60h57zM383 180v165q0 19 -5.5 39t-16.5 35l-164 -343q28 -13 65 -13q26 0 54.5 10.5
t47.5 39t19 67.5zM140 180q0 -41 17 -68l163 339q-27 10 -58 10q-26 0 -55 -10t-48 -38t-19 -68v-165zM368 756l-94 -158h-70l77 158h87z" />
    <glyph glyph-name="Scommaaccent" unicode="&#x218;" horiz-adv-x="513" 
d="M468 182q0 -30 -11 -62.5t-37.5 -61t-69 -48.5t-97.5 -20q-46 0 -84.5 14.5t-66 40.5t-42.5 60.5t-15 73.5h77q0 -52 37 -83t93 -31q46 0 80 19.5t46.5 47.5t12.5 52q0 69 -70 111q-28 16 -86 46t-82 43q-42 23 -69 65t-27 91q0 58 32 102.5t77.5 61.5t87.5 17
q89 0 146 -53.5t57 -135.5h-77q0 28 -12.5 54t-43 43t-70.5 17q-51 0 -85.5 -29.5t-34.5 -78.5q0 -60 63 -92q103 -51 160 -82q53 -29 82 -76.5t29 -105.5zM145 -201l93 158h70l-78 -158h-85z" />
    <glyph glyph-name="scommaaccent" unicode="&#x219;" horiz-adv-x="482" 
d="M436 156q0 -32 -10.5 -62.5t-35 -53t-62 -35.5t-88.5 -13q-86 0 -140 48.5t-54 131.5h75q0 -37 18.5 -63t47 -35t53.5 -9q37 0 64 9.5t42 29.5t15 52q0 24 -16 40t-43 23q-5 2 -17 5t-61 14.5t-54 12.5q-35 8 -64 30.5t-40.5 49.5t-11.5 50q0 39 14.5 68.5t40.5 48t60 27
t68 8.5q84 0 137 -45t56 -125h-76q-3 45 -33.5 71t-85.5 26q-20 0 -44.5 -5t-39.5 -20t-18.5 -29t-3.5 -25q0 -20 16.5 -36t42.5 -23q12 -3 63 -15t75 -19q35 -11 62 -32.5t37.5 -48.5t10.5 -51zM124 -201l93 158h70l-78 -158h-85z" />
    <glyph glyph-name="uni021A" unicode="&#x21a;" horiz-adv-x="467" 
d="M446 637h-174v-637h-77v637h-174v76h425v-76zM105 -201l93 158h70l-78 -158h-85z" />
    <glyph glyph-name="uni021B" unicode="&#x21b;" horiz-adv-x="349" 
d="M16 454v73h100v186h75v-186h115v-73h-115v-322q0 -30 15.5 -44.5t39.5 -14.5h62v-73h-66q-25 0 -55 10.5t-50.5 42t-20.5 83.5v318h-100zM140 -201l93 158h70l-78 -158h-85z" />
    <glyph glyph-name="circumflex" unicode="&#x2c6;" horiz-adv-x="441" 
d="M358 598h-71l-68 89l-67 -89h-71l107 157h63z" />
    <glyph glyph-name="caron" unicode="&#x2c7;" horiz-adv-x="441" 
d="M81 755h71l68 -89l67 89h71l-107 -157h-63z" />
    <glyph glyph-name="breve" unicode="&#x2d8;" horiz-adv-x="483" 
d="M242 598q-27 0 -59.5 11t-57.5 43.5t-30 83.5h64q4 -38 26 -59t57 -21t56.5 21t26.5 59h63q-4 -43 -22.5 -73.5t-51 -47.5t-72.5 -17z" />
    <glyph glyph-name="dotaccent" unicode="&#x2d9;" horiz-adv-x="243" 
d="M167 613h-92v109h92v-109z" />
    <glyph glyph-name="ring" unicode="&#x2da;" horiz-adv-x="365" 
d="M290 665q0 -31 -18.5 -58t-43.5 -38t-46 -11q-20 0 -45 11t-43 38t-18 58q0 44 31.5 75.5t74.5 31.5q21 0 46 -10.5t43.5 -37.5t18.5 -59zM236 665q0 21 -16 37t-38 16q-21 0 -36.5 -16t-15.5 -37t15.5 -36.5t36.5 -15.5t37.5 15.5t16.5 36.5z" />
    <glyph glyph-name="ogonek" unicode="&#x2db;" horiz-adv-x="309" 
d="M143 -43l93 -158h-85l-78 158h70z" />
    <glyph glyph-name="tilde" unicode="&#x2dc;" horiz-adv-x="477" 
d="M355 702l47 -46q-26 -25 -51 -40.5t-51 -15.5q-14 0 -29 5.5t-46.5 21.5t-46.5 16q-11 0 -22.5 -6.5t-33.5 -26.5l-47 45q26 26 50.5 41.5t51.5 15.5q23 0 65.5 -21.5t56.5 -21.5q22 0 56 33z" />
    <glyph glyph-name="hungarumlaut" unicode="&#x2dd;" horiz-adv-x="502" 
d="M258 752l-89 -149h-64l73 149h80zM389 752l-88 -149h-64l73 149h79z" />
    <glyph glyph-name="hookabovecomb" unicode="&#x309;" horiz-adv-x="360" 
d="M174 583v63q19 0 31.5 11.5t12.5 27.5q0 17 -11.5 28t-27.5 11q-17 0 -32 -15l-47 38q15 17 37 28t43 11q20 0 43.5 -10t40 -35.5t16.5 -55.5t-17.5 -55.5t-42.5 -36t-46 -10.5z" />
    <glyph glyph-name="dotbelowcomb" unicode="&#x323;" horiz-adv-x="243" 
d="M167 -187h-92v109h92v-109z" />
    <glyph glyph-name="tonos" unicode="&#x384;" horiz-adv-x="317" 
d="M167 587h-63l33 171h74z" />
    <glyph glyph-name="dieresistonos" unicode="&#x385;" horiz-adv-x="447" 
d="M235 612h-63l34 172h73zM390 613h-91v109h91v-109zM143 613h-90v109h90v-109z" />
    <glyph glyph-name="Alphatonos" unicode="&#x386;" horiz-adv-x="545" 
d="M525 0h-76l-52 201h-241l-54 -201h-77l186 713h125zM377 276l-95 366h-13l-95 -366h203zM64 587h-63l33 171h74z" />
    <glyph glyph-name="Epsilontonos" unicode="&#x388;" horiz-adv-x="563" 
d="M518 0h-385v713h385v-76h-308v-222h285v-76h-285v-263h308v-76zM34 587h-63l33 171h74z" />
    <glyph glyph-name="Etatonos" unicode="&#x389;" horiz-adv-x="625" 
d="M550 0h-77v336h-263v-336h-77v713h77v-301h263v301h77v-713zM34 587h-63l33 171h74z" />
    <glyph glyph-name="Iotatonos" unicode="&#x38a;" horiz-adv-x="280" 
d="M128 713h77v-713h-77v713zM34 587h-63l33 171h74z" />
    <glyph glyph-name="Omicrontonos" unicode="&#x38c;" horiz-adv-x="591" 
d="M526 182q0 -28 -10 -60.5t-33 -62t-63 -49t-96 -19.5q-41 0 -79.5 13.5t-65.5 41.5t-41.5 64.5t-14.5 72.5v348q0 27 11.5 64t41 68t68.5 44t81 13q41 0 79 -13t65 -41t42 -64.5t15 -71.5v-348zM449 183v346q0 58 -36 87t-88 29q-53 0 -89 -29t-36 -87v-346q0 -59 36 -88
t89 -29q52 0 88 29t36 88zM34 587h-63l33 171h74z" />
    <glyph glyph-name="Upsilontonos" unicode="&#x38e;" horiz-adv-x="579" 
d="M558 713l-188 -456v-257h-77v259l-187 454h83l143 -358l143 358h83zM34 587h-63l33 171h74z" />
    <glyph glyph-name="Omegatonos" unicode="&#x38f;" horiz-adv-x="588" 
d="M340 0v64q31 5 56.5 19t40.5 38t15 61v348q0 59 -36.5 88t-91.5 29t-91.5 -29t-36.5 -88v-348q0 -37 15 -61.5t40 -38t57 -18.5v-64h-224v65h77q-15 20 -26.5 51t-11.5 66v350q0 25 10 57t33 61.5t63 49t95 19.5q41 0 79 -13.5t65 -41.5t41.5 -63.5t14.5 -69.5v-350
q0 -26 -9.5 -57.5t-28.5 -58.5h77v-65h-223zM34 587h-63l33 171h74z" />
    <glyph glyph-name="iotadieresistonos" unicode="&#x390;" horiz-adv-x="258" 
d="M75 131v396h75v-400q0 -58 56 -58h26v-74h-31q-25 0 -55 10t-50.5 41.5t-20.5 84.5zM143 612h-63l34 172h73zM298 613h-91v109h91v-109zM51 613h-90v109h90v-109z" />
    <glyph glyph-name="Alpha" unicode="&#x391;" horiz-adv-x="540" 
d="M520 0h-76l-52 201h-241l-54 -201h-77l186 713h125zM372 276l-95 366h-13l-95 -366h203z" />
    <glyph glyph-name="Beta" unicode="&#x392;" horiz-adv-x="543" 
d="M484 189q0 -27 -8.5 -58.5t-30 -61.5t-60.5 -49.5t-94 -19.5h-216v713h211q56 0 97.5 -21t65 -64.5t23.5 -99.5v-12q0 -26 -10.5 -59t-30.5 -56t-41 -33q45 -17 69.5 -61t24.5 -94v-24zM395 518v9q0 110 -111 110h-132v-232h138q105 0 105 113zM407 191v21q0 59 -30 88.5
t-83 29.5h-142v-254h137q52 0 85 28.5t33 86.5z" />
    <glyph glyph-name="Gamma" unicode="&#x393;" horiz-adv-x="469" 
d="M75 713h384v-76h-307v-637h-77v713z" />
    <glyph glyph-name="Delta" unicode="&#x394;" horiz-adv-x="532" 
d="M513 0h-494l185 713h123zM257 641l-146 -568h308l-145 568h-17z" />
    <glyph glyph-name="Epsilon" unicode="&#x395;" horiz-adv-x="505" 
d="M460 0h-385v713h385v-76h-308v-222h285v-76h-285v-263h308v-76z" />
    <glyph glyph-name="Zeta" unicode="&#x396;" horiz-adv-x="448" 
d="M423 0h-398v70l298 567h-284v76h368v-68l-298 -569h314v-76z" />
    <glyph glyph-name="Eta" unicode="&#x397;" horiz-adv-x="567" 
d="M492 0h-77v336h-263v-336h-77v713h77v-301h263v301h77v-713z" />
    <glyph glyph-name="Theta" unicode="&#x398;" horiz-adv-x="510" 
d="M339 327h-169v71h169v-71zM446 182q0 -27 -8.5 -59.5t-30 -62.5t-60.5 -49.5t-94 -19.5t-97 22t-67 68t-25 102v348q0 27 8.5 58.5t29.5 61t60 49t94 19.5t97 -21.5t67.5 -67t25.5 -100.5v-348zM369 184v343q0 59 -31.5 88t-81.5 29t-82.5 -29t-32.5 -88v-343
q0 -59 32.5 -88.5t82.5 -29.5t81.5 29.5t31.5 88.5z" />
    <glyph glyph-name="Iota" unicode="&#x399;" horiz-adv-x="227" 
d="M75 713h77v-713h-77v713z" />
    <glyph glyph-name="Kappa" unicode="&#x39a;" horiz-adv-x="516" 
d="M152 713v-301h32l215 301h87l-235 -333l245 -380h-91l-215 336h-38v-336h-77v713h77z" />
    <glyph glyph-name="Lambda" unicode="&#x39b;" horiz-adv-x="521" 
d="M95 0h-76l178 713h125l178 -713h-76l-158 640h-13z" />
    <glyph glyph-name="Mu" unicode="&#x39c;" horiz-adv-x="655" 
d="M152 0h-77v713h96l156 -378l155 378h98v-713h-77v569l-143 -350h-65l-143 350v-569z" />
    <glyph glyph-name="Nu" unicode="&#x39d;" horiz-adv-x="558" 
d="M483 0h-93l-238 560v-560h-77v713h91l240 -568v568h77v-713z" />
    <glyph glyph-name="Xi" unicode="&#x39e;" horiz-adv-x="505" 
d="M440 638h-375v75h375v-75zM65 75h375v-75h-375v75zM439 335h-374v75h374v-75z" />
    <glyph glyph-name="Omicron" unicode="&#x39f;" horiz-adv-x="533" 
d="M468 182q0 -28 -10 -60.5t-33 -62t-63 -49t-96 -19.5q-41 0 -79.5 13.5t-65.5 41.5t-41.5 64.5t-14.5 72.5v348q0 27 11.5 64t41 68t68.5 44t81 13q41 0 79 -13t65 -41t42 -64.5t15 -71.5v-348zM391 183v346q0 58 -36 87t-88 29q-53 0 -89 -29t-36 -87v-346q0 -59 36 -88
t89 -29q52 0 88 29t36 88z" />
    <glyph glyph-name="Pi" unicode="&#x3a0;" horiz-adv-x="569" 
d="M494 0h-77v637h-265v-637h-77v713h419v-713z" />
    <glyph glyph-name="Rho" unicode="&#x3a1;" horiz-adv-x="518" 
d="M478 472q0 -56 -25 -102t-67 -67.5t-96 -21.5h-138v-281h-77v713h211q56 0 98.5 -21.5t68 -67t25.5 -100.5v-52zM401 473v49q0 59 -32.5 87t-84.5 28h-132v-280h134q52 0 83.5 28.5t31.5 87.5z" />
    <glyph glyph-name="Sigma" unicode="&#x3a3;" horiz-adv-x="478" 
d="M454 642h-322l246 -254v-46l-249 -271h325v-71h-430v61l276 302l-276 289v61h430v-71z" />
    <glyph glyph-name="Tau" unicode="&#x3a4;" horiz-adv-x="467" 
d="M446 637h-174v-637h-77v637h-174v76h425v-76z" />
    <glyph glyph-name="Upsilon" unicode="&#x3a5;" horiz-adv-x="494" 
d="M473 713l-188 -456v-257h-77v259l-187 454h83l143 -358l143 358h83z" />
    <glyph glyph-name="Phi" unicode="&#x3a6;" horiz-adv-x="583" 
d="M253 740h75v-73q40 -2 72 -14t60.5 -35.5t44.5 -62t16 -75.5v-226q0 -31 -10 -62.5t-32.5 -59.5t-60.5 -46.5t-90 -21.5v-74h-75v74q-39 2 -71 13.5t-57 32t-44 58t-19 86.5v226q0 28 9.5 59t31 59t59.5 47t91 22v73zM444 478q0 51 -31.5 79.5t-84.5 34.5v-453
q52 5 84 34t32 81v224zM138 254q0 -52 31 -80.5t84 -34.5v452q-53 -5 -84 -33.5t-31 -79.5v-224z" />
    <glyph glyph-name="Chi" unicode="&#x3a7;" horiz-adv-x="497" 
d="M476 0h-88l-140 282l-139 -282h-88l184 358l-183 355h86l139 -280l142 280h85l-184 -354z" />
    <glyph glyph-name="Psi" unicode="&#x3a8;" horiz-adv-x="570" 
d="M323 713v-465q35 4 61 20.5t36 42t10 50.5v352h76v-353q0 -28 -8.5 -59t-30 -58t-57 -46.5t-87.5 -24.5v-172h-76v172q-63 6 -103.5 33.5t-60 66.5t-19.5 87v354h76v-352q0 -25 10 -50.5t36 -42t61 -20.5v465h76z" />
    <glyph glyph-name="Omega" unicode="&#x3a9;" horiz-adv-x="529" 
d="M281 0v64q31 5 56.5 19t40.5 38t15 61v348q0 59 -36.5 88t-91.5 29t-91.5 -29t-36.5 -88v-348q0 -37 15 -61.5t40 -38t57 -18.5v-64h-224v65h77q-15 20 -26.5 51t-11.5 66v350q0 25 10 57t33 61.5t63 49t95 19.5q41 0 79 -13.5t65 -41.5t41.5 -63.5t14.5 -69.5v-350
q0 -26 -9.5 -57.5t-28.5 -58.5h77v-65h-223z" />
    <glyph glyph-name="Iotadieresis" unicode="&#x3aa;" horiz-adv-x="227" 
d="M75 713h77v-713h-77v713zM264 780h-92v109h92v-109zM55 780h-92v109h92v-109z" />
    <glyph glyph-name="Upsilondieresis" unicode="&#x3ab;" horiz-adv-x="494" 
d="M473 713l-188 -456v-257h-77v259l-187 454h83l143 -358l143 358h83zM398 780h-92v109h92v-109zM189 780h-92v109h92v-109z" />
    <glyph glyph-name="alphatonos" unicode="&#x3ac;" horiz-adv-x="543" 
d="M64 344q0 55 21 96.5t64.5 67.5t110.5 26q31 0 63 -12.5t53 -35.5v41h75v-398q0 -31 16 -45.5t40 -14.5h16v-74h-21q-29 0 -59.5 14t-44.5 43q-27 -30 -64.5 -46t-77.5 -16q-89 0 -140.5 51t-51.5 138v165zM139 179q0 -33 14 -62t42 -41t61 -12q56 0 88 29t32 86v165
q0 26 -10.5 54t-38.5 45.5t-67 17.5q-121 0 -121 -117v-165zM287 596h-63l33 171h74z" />
    <glyph glyph-name="epsilontonos" unicode="&#x3ad;" horiz-adv-x="502" 
d="M290 305v-70h-68q-39 -2 -62 -25t-23 -61q0 -41 36 -63t83 -22q50 0 87.5 27t37.5 80h75q0 -57 -25.5 -97t-70.5 -62t-102 -22q-48 0 -95.5 18.5t-74 56.5t-26.5 83q0 40 17.5 72t47.5 51q-26 16 -40.5 44.5t-14.5 66.5q0 42 22.5 75.5t65 55t97.5 21.5q29 0 64 -9.5
t64 -31.5t47 -56.5t18 -80.5h-75q0 53 -35 78.5t-83 25.5q-31 0 -58.5 -11.5t-39.5 -30.5t-12 -37q0 -76 80 -76h63zM269 596h-63l33 171h74z" />
    <glyph glyph-name="etatonos" unicode="&#x3ae;" horiz-adv-x="532" 
d="M461 -226h-75v571q0 58 -25.5 87t-82.5 29q-53 0 -90.5 -32.5t-37.5 -81.5v-347h-75v527h75v-50q18 26 55 41.5t73 15.5q88 0 135.5 -50t47.5 -139v-571zM304 596h-63l33 171h74z" />
    <glyph glyph-name="iotatonos" unicode="&#x3af;" horiz-adv-x="258" 
d="M75 131v396h75v-400q0 -58 56 -58h26v-74h-31q-25 0 -55 10t-50.5 41.5t-20.5 84.5zM147 596h-63l33 171h74z" />
    <glyph glyph-name="upsilondieresistonos" unicode="&#x3b0;" horiz-adv-x="528" 
d="M458 398v-217q0 -31 -9 -64.5t-31.5 -61t-60.5 -46t-92 -18.5q-90 0 -142.5 51t-52.5 139v346h75v-346q0 -55 30.5 -85.5t89.5 -30.5q26 0 54 10t46 38t18 68v222q0 30 -15.5 44t-40.5 14h-33v73h38q25 0 55 -10.5t50.5 -42t20.5 -83.5zM272 612h-63l34 172h73zM427 613
h-91v109h91v-109zM180 613h-90v109h90v-109z" />
    <glyph glyph-name="alpha" unicode="&#x3b1;" horiz-adv-x="543" 
d="M64 344q0 55 21 96.5t64.5 67.5t110.5 26q31 0 63 -12.5t53 -35.5v41h75v-398q0 -31 16 -45.5t40 -14.5h16v-74h-21q-29 0 -59.5 14t-44.5 43q-27 -30 -64.5 -46t-77.5 -16q-89 0 -140.5 51t-51.5 138v165zM139 179q0 -33 14 -62t42 -41t61 -12q56 0 88 29t32 86v165
q0 26 -10.5 54t-38.5 45.5t-67 17.5q-121 0 -121 -117v-165z" />
    <glyph glyph-name="beta" unicode="&#x3b2;" horiz-adv-x="530" 
d="M468 180q0 -87 -55 -138.5t-146 -51.5q-32 0 -63 11t-54 35v-262h-75v748q0 30 8 64.5t29.5 64.5t60 48.5t93.5 18.5q37 0 73 -11t62.5 -36t42 -62t15.5 -83q0 -41 -19.5 -81.5t-61.5 -67.5q35 -18 56.5 -49t27.5 -58t6 -43v-47zM265 644q-52 0 -83.5 -30t-31.5 -92v-342
q0 -55 31 -85.5t86 -30.5q35 0 65 12.5t45.5 42t15.5 61.5v49q0 55 -40.5 82t-94.5 27h-39v71h40q31 0 59.5 10.5t47.5 36.5t19 70q0 43 -16.5 68.5t-44 37.5t-59.5 12z" />
    <glyph glyph-name="gamma" unicode="&#x3b3;" horiz-adv-x="475" 
d="M454 527l-179 -527v-226h-75v226l-179 527h79l138 -410l137 410h79z" />
    <glyph glyph-name="delta" unicode="&#x3b4;" horiz-adv-x="522" 
d="M83 569q1 68 52.5 109.5t127.5 41.5q50 0 91.5 -22t66 -61.5t24.5 -96.5h-74q0 54 -31 80t-77 26q-32 0 -58 -11.5t-36.5 -30t-11.5 -36.5q0 -31 17.5 -50.5t47.5 -26.5q71 -15 113 -27q123 -34 123 -176v-108q0 -86 -54.5 -138t-141.5 -52q-90 0 -144 51t-54 139v110
q0 33 12 66.5t33 56t43 34.5q-32 17 -51 49.5t-18 72.5zM383 180v117q0 65 -55 94q-28 15 -67 15q-57 0 -89.5 -31.5t-32.5 -86.5v-108q0 -33 13.5 -59.5t40 -41.5t69.5 -15q26 0 54.5 10t47.5 38.5t19 67.5z" />
    <glyph glyph-name="epsilon" unicode="&#x3b5;" horiz-adv-x="502" 
d="M290 305v-70h-68q-39 -2 -62 -25t-23 -61q0 -41 36 -63t83 -22q50 0 87.5 27t37.5 80h75q0 -57 -25.5 -97t-70.5 -62t-102 -22q-48 0 -95.5 18.5t-74 56.5t-26.5 83q0 40 17.5 72t47.5 51q-26 16 -40.5 44.5t-14.5 66.5q0 42 22.5 75.5t65 55t97.5 21.5q29 0 64 -9.5
t64 -31.5t47 -56.5t18 -80.5h-75q0 53 -35 78.5t-83 25.5q-31 0 -58.5 -11.5t-39.5 -30.5t-12 -37q0 -76 80 -76h63z" />
    <glyph glyph-name="zeta" unicode="&#x3b6;" horiz-adv-x="426" 
d="M379 -158h-78l30 82q7 17 4 34t-16 24.5t-28 7.5h-42q-92 0 -140.5 53t-49.5 143q-1 81 26.5 159t81.5 153t134 141h-197v74h321v-68q-54 -33 -106.5 -82t-94 -108t-66.5 -124.5t-25 -128.5q0 -61 29 -100t87 -39h45q40 0 72 -20t41.5 -55.5t-2.5 -70.5z" />
    <glyph glyph-name="eta" unicode="&#x3b7;" horiz-adv-x="532" 
d="M461 -226h-75v571q0 58 -25.5 87t-82.5 29q-53 0 -90.5 -32.5t-37.5 -81.5v-347h-75v527h75v-50q18 26 55 41.5t73 15.5q88 0 135.5 -50t47.5 -139v-571z" />
    <glyph glyph-name="theta" unicode="&#x3b8;" horiz-adv-x="510" 
d="M446 182q0 -27 -8.5 -59.5t-30 -62.5t-60.5 -49.5t-94 -19.5t-97 22t-67 68t-25 102v349q0 27 8.5 58.5t29.5 61t60 49t94 19.5t97 -21.5t67.5 -67t25.5 -100.5v-349zM371 182v146h-232v-146q0 -59 33 -88.5t84 -29.5t83 29.5t32 88.5zM139 530v-133h232v133q0 59 -32 88
t-83 29t-84 -29.5t-33 -87.5z" />
    <glyph glyph-name="iota" unicode="&#x3b9;" horiz-adv-x="258" 
d="M75 131v396h75v-400q0 -58 56 -58h26v-74h-31q-25 0 -55 10t-50.5 41.5t-20.5 84.5z" />
    <glyph glyph-name="kappa" unicode="&#x3ba;" horiz-adv-x="505" 
d="M482 0h-89l-167 256l-76 -81v-175h-75v527h75v-250l233 250h96l-201 -215z" />
    <glyph glyph-name="lambda" unicode="&#x3bb;" horiz-adv-x="497" 
d="M270 592l130 -463q9 -32 24 -44t44 -12h30v-73h-1h-14q-50 0 -78 10t-47 37.5t-33 78.5l-92 329h-9l-124 -455h-79l147 527h44l-17 62q-8 31 -26.5 43.5t-48.5 12.5h-32v73h20q48 0 78 -10.5t50.5 -38t33.5 -77.5z" />
    <glyph glyph-name="mu" unicode="&#x3bc;" horiz-adv-x="538" 
d="M150 -226h-75v752h75v-346q0 -33 13 -59.5t38.5 -41.5t67.5 -15q38 0 67.5 17.5t40.5 43.5t11 50v351h75v-526h-75v41q-17 -22 -51 -36t-68 -14q-15 0 -38 4t-46.5 15t-34.5 24v-260z" />
    <glyph glyph-name="nu" unicode="&#x3bd;" horiz-adv-x="446" 
d="M220 72h6l126 455h77l-150 -527h-112l-150 527h78z" />
    <glyph glyph-name="xi" unicode="&#x3be;" horiz-adv-x="441" 
d="M265 -9q-91 0 -146 51t-55 138v47q0 46 24 87.5t66 62.5q-42 27 -61.5 67.5t-19.5 81.5q0 36 11 71t34 62.5t60.5 44t87.5 16.5q39 0 75 -11.5t61 -37t39 -60.5t16 -76h-75q-3 56 -34.5 83.5t-80.5 27.5q-54 0 -87 -30.5t-33 -89.5q0 -27 10 -54t41 -45t75 -18h40v-71
h-39q-54 0 -94.5 -27t-40.5 -82v-49q0 -20 8.5 -47t37.5 -48t80 -21h30q40 0 72 -20t41.5 -55.5t-2.5 -70.5l-26 -75h-78l30 82q7 17 4 34t-16 24.5t-28 7.5h-27z" />
    <glyph glyph-name="omicron" unicode="&#x3bf;" 
d="M458 180q0 -85 -54.5 -137.5t-141.5 -52.5q-89 0 -143 51.5t-54 138.5v165q0 85 54.5 137t142.5 52q89 0 142.5 -51t53.5 -138v-165zM383 180v165q0 33 -14.5 62t-43.5 41.5t-63 12.5q-26 0 -55 -10t-48 -38t-19 -68v-165q0 -33 15 -62.5t44 -42t63 -12.5q26 0 54.5 10.5
t47.5 39t19 67.5z" />
    <glyph glyph-name="pi" unicode="&#x3c0;" horiz-adv-x="622" 
d="M401 131v322h-188v-453h-75v453h-101v74h530v-74h-92v-326q0 -58 56 -58h26v-74h-31q-39 0 -67 15.5t-43 46t-15 74.5z" />
    <glyph glyph-name="rho" unicode="&#x3c1;" horiz-adv-x="526" 
d="M462 180q0 -87 -55 -138.5t-146 -51.5q-32 0 -63 11t-54 35v-262h-75v571q0 31 9.5 64t32.5 60.5t61.5 46t92.5 18.5q89 0 143 -51t54 -138v-165zM387 345q0 33 -13 59t-39.5 41t-69.5 15q-26 0 -55 -10t-47.5 -37.5t-18.5 -67.5v-165q0 -55 31 -85.5t86 -30.5
q35 0 65 12.5t45.5 42t15.5 61.5v165z" />
    <glyph glyph-name="sigma1" unicode="&#x3c2;" horiz-adv-x="500" 
d="M262 534q85 0 137.5 -49t57.5 -134h-75q-3 45 -32.5 77.5t-87.5 32.5q-26 0 -55 -10t-48 -38t-19 -68v-164q0 -33 13 -59.5t39.5 -42t69.5 -15.5h33q40 0 72 -20t41.5 -55.5t-2.5 -70.5l-26 -75h-78l30 82q7 17 4 34t-16 24.5t-28 7.5h-30q-90 0 -143.5 51t-53.5 139v164
q0 85 54.5 137t142.5 52z" />
    <glyph glyph-name="sigma" unicode="&#x3c3;" horiz-adv-x="528" 
d="M493 460h-79q42 -47 42 -118v-162q0 -42 -14.5 -77.5t-41 -60.5t-63 -38.5t-79.5 -13.5q-90 0 -142 51t-52 139v162q0 86 53 138t141 52h235v-72zM382 180v162q0 33 -14 59.5t-41 41.5t-69 15q-27 0 -55.5 -10t-46.5 -38t-18 -68v-162q0 -33 12.5 -59.5t38.5 -41.5
t69 -15q56 0 90 31.5t34 84.5z" />
    <glyph glyph-name="tau" unicode="&#x3c4;" horiz-adv-x="451" 
d="M263 -1h-75v453h-168v74h411v-74h-168v-453z" />
    <glyph glyph-name="upsilon" unicode="&#x3c5;" horiz-adv-x="528" 
d="M458 398v-217q0 -31 -9 -64.5t-31.5 -61t-60.5 -46t-92 -18.5q-90 0 -142.5 51t-52.5 139v346h75v-346q0 -55 30.5 -85.5t89.5 -30.5q26 0 54 10t46 38t18 68v222q0 30 -15.5 44t-40.5 14h-33v73h38q25 0 55 -10.5t50.5 -42t20.5 -83.5z" />
    <glyph glyph-name="phi" unicode="&#x3c6;" horiz-adv-x="602" 
d="M265 -226v218q-43 3 -75 15.5t-57 32t-44 55t-19 83.5v349h75v-349q0 -22 11 -47.5t40.5 -44t68.5 -21.5v332q0 52 23 84t54.5 42.5t56.5 10.5t57 -10.5t55.5 -43t23.5 -83.5v-219q0 -77 -54 -128t-142 -58v-218h-74zM339 402v-336q27 2 55 13.5t47 38t19 60.5v224
q0 30 -17.5 44.5t-43.5 14.5t-43 -14.5t-17 -44.5z" />
    <glyph glyph-name="chi" unicode="&#x3c7;" horiz-adv-x="535" 
d="M86 531q79 0 105 -60l89 -199l117 254h83l-159 -332l111 -254q5 -12 14.5 -18t37.5 -6h23v-71h-35q-38 0 -64 13t-41 46l-93 210l-129 -269h-86l175 357l-107 233q-5 11 -14 17.5t-38 6.5h-24v72h35z" />
    <glyph glyph-name="psi" unicode="&#x3c8;" horiz-adv-x="574" 
d="M248 -226v220q-83 8 -130.5 58t-47.5 132v343h74v-343q0 -49 28 -79.5t76 -36.5v645h73v-646q50 6 79.5 36.5t29.5 80.5v343h74v-343q0 -82 -49.5 -132t-133.5 -58v-220h-73z" />
    <glyph glyph-name="omega" unicode="&#x3c9;" horiz-adv-x="658" 
d="M291 389h76v-241q0 -42 18 -62.5t58 -21.5q35 0 52.5 24.5t17.5 68.5v246q0 58 -53 58h-23v73h28q56 0 89.5 -33.5t33.5 -102.5v-244q0 -44 -16 -83t-51 -59.5t-80 -20.5q-75 0 -112 51q-37 -51 -112 -51q-45 0 -77 18.5t-51 55t-19 89.5v244q0 69 33.5 102.5t89.5 33.5
h28v-73h-23q-53 0 -53 -58v-246q0 -44 17.5 -68.5t52.5 -24.5q40 1 58 21.5t18 62.5v241z" />
    <glyph glyph-name="iotadieresis" unicode="&#x3ca;" horiz-adv-x="258" 
d="M75 131v396h75v-400q0 -58 56 -58h26v-74h-31q-25 0 -55 10t-50.5 41.5t-20.5 84.5zM262 613h-92v109h92v-109zM53 613h-92v109h92v-109z" />
    <glyph glyph-name="upsilondieresis" unicode="&#x3cb;" horiz-adv-x="528" 
d="M458 398v-217q0 -31 -9 -64.5t-31.5 -61t-60.5 -46t-92 -18.5q-90 0 -142.5 51t-52.5 139v346h75v-346q0 -55 30.5 -85.5t89.5 -30.5q26 0 54 10t46 38t18 68v222q0 30 -15.5 44t-40.5 14h-33v73h38q25 0 55 -10.5t50.5 -42t20.5 -83.5zM408 613h-92v109h92v-109z
M199 613h-92v109h92v-109z" />
    <glyph glyph-name="omicrontonos" unicode="&#x3cc;" 
d="M458 180q0 -85 -54.5 -137.5t-141.5 -52.5q-89 0 -143 51.5t-54 138.5v165q0 85 54.5 137t142.5 52q89 0 142.5 -51t53.5 -138v-165zM383 180v165q0 33 -14.5 62t-43.5 41.5t-63 12.5q-26 0 -55 -10t-48 -38t-19 -68v-165q0 -33 15 -62.5t44 -42t63 -12.5q26 0 54.5 10.5
t47.5 39t19 67.5zM292 596h-63l33 171h74z" />
    <glyph glyph-name="upsilontonos" unicode="&#x3cd;" horiz-adv-x="528" 
d="M458 398v-217q0 -31 -9 -64.5t-31.5 -61t-60.5 -46t-92 -18.5q-90 0 -142.5 51t-52.5 139v346h75v-346q0 -55 30.5 -85.5t89.5 -30.5q26 0 54 10t46 38t18 68v222q0 30 -15.5 44t-40.5 14h-33v73h38q25 0 55 -10.5t50.5 -42t20.5 -83.5zM257 596h-63l33 171h74z" />
    <glyph glyph-name="omegatonos" unicode="&#x3ce;" horiz-adv-x="658" 
d="M291 389h76v-241q0 -42 18 -62.5t58 -21.5q35 0 52.5 24.5t17.5 68.5v246q0 58 -53 58h-23v73h28q56 0 89.5 -33.5t33.5 -102.5v-244q0 -44 -16 -83t-51 -59.5t-80 -20.5q-75 0 -112 51q-37 -51 -112 -51q-45 0 -77 18.5t-51 55t-19 89.5v244q0 69 33.5 102.5t89.5 33.5
h28v-73h-23q-53 0 -53 -58v-246q0 -44 17.5 -68.5t52.5 -24.5q40 1 58 21.5t18 62.5v241zM364 596h-63l33 171h74z" />
    <glyph glyph-name="afii10023" unicode="&#x401;" horiz-adv-x="505" 
d="M460 0h-385v713h385v-76h-308v-222h285v-76h-285v-263h308v-76zM418 780h-92v109h92v-109zM209 780h-92v109h92v-109z" />
    <glyph glyph-name="afii10051" unicode="&#x402;" horiz-adv-x="658" 
d="M271 0h-77v637h-175v76h426v-76h-174v-159q50 56 130 56q90 0 138 -50.5t48 -141.5v-209q0 -69 -35.5 -103.5t-91.5 -34.5h-29v75h24q56 0 56 58v214q0 57 -27 87t-83 30q-24 0 -54.5 -10t-53 -37t-22.5 -61v-351z" />
    <glyph glyph-name="afii10052" unicode="&#x403;" horiz-adv-x="469" 
d="M75 713h384v-76h-307v-637h-77v713zM358 938l-94 -158h-70l77 158h87z" />
    <glyph glyph-name="afii10053" unicode="&#x404;" horiz-adv-x="516" 
d="M468 182q0 -27 -10 -59t-33 -62.5t-63 -50t-96 -19.5q-41 0 -79.5 13.5t-68 45t-41.5 69.5t-12 64v348q0 26 10 58t33 62t63 49.5t96 19.5q41 0 79 -13.5t65 -41.5t42 -64.5t15 -70.5h-77q0 26 -10 52t-41 44.5t-73 18.5q-53 0 -89 -29t-36 -87v-120h172v-75h-172v-151
q0 -59 36 -88t89 -29q52 0 88 29t36 87h77z" />
    <glyph glyph-name="afii10054" unicode="&#x405;" horiz-adv-x="513" 
d="M468 182q0 -30 -11 -62.5t-37.5 -61t-69 -48.5t-97.5 -20q-46 0 -84.5 14.5t-66 40.5t-42.5 60.5t-15 73.5h77q0 -52 37 -83t93 -31q46 0 80 19.5t46.5 47.5t12.5 52q0 69 -70 111q-28 16 -86 46t-82 43q-42 23 -69 65t-27 91q0 58 32 102.5t77.5 61.5t87.5 17
q89 0 146 -53.5t57 -135.5h-77q0 28 -12.5 54t-43 43t-70.5 17q-51 0 -85.5 -29.5t-34.5 -78.5q0 -60 63 -92q103 -51 160 -82q53 -29 82 -76.5t29 -105.5z" />
    <glyph glyph-name="afii10055" unicode="&#x406;" horiz-adv-x="227" 
d="M75 713h77v-713h-77v713z" />
    <glyph glyph-name="afii10056" unicode="&#x407;" horiz-adv-x="227" 
d="M75 713h77v-713h-77v713zM264 780h-92v109h92v-109zM55 780h-92v109h92v-109z" />
    <glyph glyph-name="afii10057" unicode="&#x408;" horiz-adv-x="448" 
d="M378 181q0 -89 -48 -139.5t-134 -50.5q-84 0 -132.5 52t-48.5 136h77q0 -33 11.5 -60t38 -40t55.5 -13q49 0 76.5 27.5t27.5 81.5v462h-210v76h287v-532z" />
    <glyph glyph-name="afii10058" unicode="&#x409;" horiz-adv-x="818" 
d="M778 241v-53q0 -27 -8.5 -58.5t-29.5 -61t-60 -49t-94 -19.5h-183v638h-195v-458q0 -88 -52 -138.5t-143 -50.5v75q56 0 87 27.5t31 81.5v538h349v-282h110q41 0 73.5 -12t57 -34t41 -60.5t16.5 -83.5zM702 190v50q0 58 -32.5 87t-83.5 29h-106v-281h104q52 0 85 28.5
t33 86.5z" />
    <glyph glyph-name="afii10059" unicode="&#x40a;" horiz-adv-x="816" 
d="M776 231v-43q0 -27 -8.5 -58.5t-29.5 -61t-60 -49t-95 -19.5h-194v346h-237v-346h-77v713h77v-292h237v292h77v-292h121q55 0 97 -21.5t67 -67t25 -101.5zM700 190v40q0 26 -9 52.5t-37.5 45t-70.5 18.5h-117v-271h115q53 0 86 28.5t33 86.5z" />
    <glyph glyph-name="afii10060" unicode="&#x40b;" horiz-adv-x="658" 
d="M271 0h-77v637h-175v76h426v-76h-174v-159q50 56 130 56q90 0 138 -50.5t48 -141.5v-342h-76v342q0 57 -27 87t-83 30q-24 0 -54.5 -10t-53 -37t-22.5 -61v-351z" />
    <glyph glyph-name="afii10061" unicode="&#x40c;" horiz-adv-x="516" 
d="M152 713v-301h32l215 301h87l-235 -333l245 -380h-91l-215 336h-38v-336h-77v713h77zM372 938l-94 -158h-70l77 158h87z" />
    <glyph glyph-name="afii10062" unicode="&#x40e;" horiz-adv-x="491" 
d="M122 66q33 0 53.5 18.5t32 47.5t19.5 59h-36l-165 522h77l137 -438h13l134 438h77l-180 -580q-24 -77 -66.5 -109t-107.5 -32h-26v74h38zM247 784q-27 0 -59.5 11t-57.5 43.5t-30 83.5h64q4 -38 26 -59t57 -21t56.5 21t26.5 59h63q-4 -43 -22.5 -73.5t-51 -47.5
t-72.5 -17z" />
    <glyph glyph-name="afii10145" unicode="&#x40f;" horiz-adv-x="570" 
d="M324 -110h-77v110h-172v713h77v-638h266v638h77v-713h-171v-110z" />
    <glyph glyph-name="afii10017" unicode="&#x410;" horiz-adv-x="540" 
d="M520 0h-76l-52 201h-241l-54 -201h-77l186 713h125zM372 276l-95 366h-13l-95 -366h203z" />
    <glyph glyph-name="afii10018" unicode="&#x411;" horiz-adv-x="517" 
d="M458 638h-308v-207h139q41 0 73.5 -12t57 -34t41 -60.5t16.5 -83.5v-53q0 -27 -8.5 -58.5t-29.5 -61t-60 -49t-94 -19.5h-210v713h383v-75zM402 190v50q0 58 -33 87t-84 29h-135v-281h133q53 0 86 28.5t33 86.5z" />
    <glyph glyph-name="afii10019" unicode="&#x412;" horiz-adv-x="543" 
d="M484 189q0 -27 -8.5 -58.5t-30 -61.5t-60.5 -49.5t-94 -19.5h-216v713h211q56 0 97.5 -21t65 -64.5t23.5 -99.5v-12q0 -26 -10.5 -59t-30.5 -56t-41 -33q45 -17 69.5 -61t24.5 -94v-24zM395 518v9q0 110 -111 110h-132v-232h138q105 0 105 113zM407 191v21q0 59 -30 88.5
t-83 29.5h-142v-254h137q52 0 85 28.5t33 86.5z" />
    <glyph glyph-name="afii10020" unicode="&#x413;" horiz-adv-x="469" 
d="M75 713h384v-76h-307v-637h-77v713z" />
    <glyph glyph-name="afii10021" unicode="&#x414;" horiz-adv-x="623" 
d="M586 -110h-76v110h-412v-110h-77v186h61q63 28 70 103l45 534h329v-637h60v-186zM228 183q-3 -32 -11 -59t-27 -48h259v561h-180z" />
    <glyph glyph-name="afii10022" unicode="&#x415;" horiz-adv-x="505" 
d="M460 0h-385v713h385v-76h-308v-222h285v-76h-285v-263h308v-76z" />
    <glyph glyph-name="afii10024" unicode="&#x416;" horiz-adv-x="805" 
d="M442 713v-301h31l215 301h87l-235 -333l245 -380h-90l-216 337h-37v-337h-77v337h-38l-215 -337h-92l245 380l-235 333h88l214 -301h33v301h77z" />
    <glyph glyph-name="afii10025" unicode="&#x417;" horiz-adv-x="520" 
d="M47 182h77q2 -41 22 -66.5t49.5 -37.5t59.5 -12q33 0 63 10t50 37t20 72v32q0 26 -9 46.5t-25 34.5t-44.5 23.5t-58.5 9.5h-40v72h42q53 0 89.5 30.5t36.5 91.5q0 59 -34.5 89.5t-90.5 30.5q-31 0 -58 -12t-44 -36.5t-20 -65.5h-78q2 30 12.5 63.5t34.5 62t62.5 46
t91.5 17.5q62 0 106 -24.5t69.5 -69t25.5 -101.5q0 -40 -20.5 -82.5t-63.5 -72.5q24 -14 46.5 -38t34.5 -55t12 -58v-35q0 -31 -10 -64t-33.5 -62.5t-65 -48t-100.5 -18.5q-54 0 -98 19.5t-75.5 64.5t-35.5 107z" />
    <glyph glyph-name="afii10026" unicode="&#x418;" horiz-adv-x="558" 
d="M168 0h-93v713h77v-568l240 568h91v-713h-77v560z" />
    <glyph glyph-name="afii10027" unicode="&#x419;" horiz-adv-x="558" 
d="M168 0h-93v713h77v-568l240 568h91v-713h-77v560zM280 788q-27 0 -59.5 11t-57.5 43.5t-30 83.5h64q4 -38 26 -59t57 -21t56.5 21t26.5 59h63q-4 -43 -22.5 -73.5t-51 -47.5t-72.5 -17z" />
    <glyph glyph-name="afii10028" unicode="&#x41a;" horiz-adv-x="516" 
d="M152 713v-301h32l215 301h87l-235 -333l245 -380h-91l-215 336h-38v-336h-77v713h77z" />
    <glyph glyph-name="afii10029" unicode="&#x41b;" horiz-adv-x="593" 
d="M207 180q0 -88 -51.5 -138.5t-142.5 -50.5v76q56 0 86.5 27t30.5 81v538h388v-713h-77v637h-234v-457z" />
    <glyph glyph-name="afii10030" unicode="&#x41c;" horiz-adv-x="655" 
d="M152 0h-77v713h96l156 -378l155 378h98v-713h-77v569l-143 -350h-65l-143 350v-569z" />
    <glyph glyph-name="afii10031" unicode="&#x41d;" horiz-adv-x="567" 
d="M492 0h-77v336h-263v-336h-77v713h77v-301h263v301h77v-713z" />
    <glyph glyph-name="afii10032" unicode="&#x41e;" horiz-adv-x="533" 
d="M468 182q0 -28 -10 -60.5t-33 -62t-63 -49t-96 -19.5q-41 0 -79.5 13.5t-65.5 41.5t-41.5 64.5t-14.5 72.5v348q0 27 11.5 64t41 68t68.5 44t81 13q41 0 79 -13t65 -41t42 -64.5t15 -71.5v-348zM391 183v346q0 58 -36 87t-88 29q-53 0 -89 -29t-36 -87v-346q0 -59 36 -88
t89 -29q52 0 88 29t36 88z" />
    <glyph glyph-name="afii10033" unicode="&#x41f;" horiz-adv-x="569" 
d="M494 0h-77v637h-265v-637h-77v713h419v-713z" />
    <glyph glyph-name="afii10034" unicode="&#x420;" horiz-adv-x="518" 
d="M478 472q0 -56 -25 -102t-67 -67.5t-96 -21.5h-138v-281h-77v713h211q56 0 98.5 -21.5t68 -67t25.5 -100.5v-52zM401 473v49q0 59 -32.5 87t-84.5 28h-132v-280h134q52 0 83.5 28.5t31.5 87.5z" />
    <glyph glyph-name="afii10035" unicode="&#x421;" horiz-adv-x="516" 
d="M468 182q0 -27 -10 -59t-33 -62.5t-63 -50t-96 -19.5q-41 0 -79.5 13.5t-68 45t-41.5 69.5t-12 64v348q0 26 10 58t33 62t63 49.5t96 19.5q41 0 79 -13.5t65 -41.5t42 -64.5t15 -70.5h-77q0 26 -10 52t-41 44.5t-73 18.5q-53 0 -89 -29t-36 -87v-346q0 -59 36 -88t89 -29
q52 0 88 29t36 87h77z" />
    <glyph glyph-name="afii10036" unicode="&#x422;" horiz-adv-x="467" 
d="M446 637h-174v-637h-77v637h-174v76h425v-76z" />
    <glyph glyph-name="afii10037" unicode="&#x423;" horiz-adv-x="491" 
d="M122 66q33 0 53.5 18.5t32 47.5t19.5 59h-36l-165 522h77l137 -438h13l134 438h77l-180 -580q-24 -77 -66.5 -109t-107.5 -32h-26v74h38z" />
    <glyph glyph-name="afii10038" unicode="&#x424;" horiz-adv-x="572" 
d="M249 740h75v-74q51 -4 88 -23t58.5 -47.5t30.5 -59.5t9 -56v-226q0 -39 -17.5 -82.5t-61.5 -73t-107 -34.5v-74h-75v74q-38 3 -73.5 16.5t-61 39.5t-39 60.5t-13.5 73.5v226q0 25 9 56t30.5 59.5t59 47.5t88.5 23v74zM433 478q0 37 -15 60t-39.5 35.5t-54.5 15.5v-448
q56 8 82.5 38t26.5 75v224zM139 254q0 -45 26.5 -75t83.5 -38v448q-30 -3 -55 -15.5t-40 -35.5t-15 -60v-224z" />
    <glyph glyph-name="afii10039" unicode="&#x425;" horiz-adv-x="497" 
d="M476 0h-88l-140 282l-139 -282h-88l184 358l-183 355h86l139 -280l142 280h85l-184 -354z" />
    <glyph glyph-name="afii10040" unicode="&#x426;" horiz-adv-x="588" 
d="M551 -110h-77v110h-401v713h77v-637h265v637h77v-637h59v-186z" />
    <glyph glyph-name="afii10041" unicode="&#x427;" 
d="M371 356v357h77v-713h-77v280h-139q-27 0 -57 7t-55 24t-40.5 39t-26 53.5t-10.5 68.5v241h77v-240q0 -59 32.5 -88t83.5 -29h135z" />
    <glyph glyph-name="afii10042" unicode="&#x428;" horiz-adv-x="658" 
d="M367 76h139v637h77v-713h-508v713h77v-637h138v637h77v-637z" />
    <glyph glyph-name="afii10043" unicode="&#x429;" horiz-adv-x="677" 
d="M640 -110h-76v110h-489v713h77v-637h138v637h77v-637h139v637h77v-637h57v-186z" />
    <glyph glyph-name="afii10044" unicode="&#x42a;" horiz-adv-x="552" 
d="M515 241v-53q0 -27 -8.5 -58.5t-29.5 -61t-60 -49t-94 -19.5h-212v638h-108v75h185v-282h138q41 0 78.5 -13.5t62 -41.5t36.5 -63.5t12 -71.5zM439 190v50q0 58 -32.5 87t-83.5 29h-135v-281h133q52 0 85 28.5t33 86.5z" />
    <glyph glyph-name="afii10045" unicode="&#x42b;" horiz-adv-x="721" 
d="M570 713h76v-713h-76v713zM479 241v-53q0 -27 -8.5 -58.5t-29.5 -61t-60 -49t-94 -19.5h-212v713h77v-282h138q41 0 78.5 -13.5t62 -41.5t36.5 -63.5t12 -71.5zM403 190v50q0 58 -32.5 87t-83.5 29h-135v-281h133q52 0 85 28.5t33 86.5z" />
    <glyph glyph-name="afii10046" unicode="&#x42c;" horiz-adv-x="516" 
d="M479 241v-53q0 -27 -8.5 -58.5t-29.5 -61t-60 -49t-94 -19.5h-212v713h77v-282h138q41 0 78.5 -13.5t62 -41.5t36.5 -63.5t12 -71.5zM403 190v50q0 58 -32.5 87t-83.5 29h-135v-281h133q52 0 85 28.5t33 86.5z" />
    <glyph glyph-name="afii10047" unicode="&#x42d;" horiz-adv-x="516" 
d="M48 182h77q0 -58 36 -87t88 -29q53 0 89 29t36 88v151h-172v75h172v120q0 58 -36 87t-89 29q-29 0 -61 -12.5t-47.5 -40.5t-15.5 -62h-77q0 26 10.5 58t33.5 62.5t63 50t94 19.5q42 0 76 -11.5t60.5 -34t46 -61.5t19.5 -82v-348q0 -26 -10 -59t-33.5 -63t-63.5 -50
t-94 -20q-27 0 -58.5 7t-58 24t-43.5 39.5t-29.5 54t-12.5 66.5z" />
    <glyph glyph-name="afii10048" unicode="&#x42e;" horiz-adv-x="723" 
d="M658 182q0 -28 -10 -60.5t-33 -62t-63 -49t-96 -19.5q-41 0 -79.5 13.5t-65.5 41.5t-41.5 64.5t-14.5 72.5v154h-103v-337h-77v713h77v-301h103v119q0 27 11.5 64t41 68t68.5 44t81 13q41 0 79 -13t65 -41t42 -64.5t15 -71.5v-348zM581 183v346q0 58 -36 87t-88 29
q-53 0 -89 -29t-36 -87v-346q0 -59 36 -88t89 -29q52 0 88 29t36 88z" />
    <glyph glyph-name="afii10049" unicode="&#x42f;" horiz-adv-x="542" 
d="M133 0h-87l146 308q-37 11 -67.5 37t-46 68t-15.5 78v34q0 27 8.5 58.5t29.5 61t60 49t95 19.5h211v-713h-77v301h-117zM140 522v-30q0 -26 9 -52.5t37 -44.5t70 -18h134v260h-132q-30 0 -60 -12t-44 -40t-14 -63z" />
    <glyph glyph-name="afii10065" unicode="&#x430;" horiz-adv-x="512" 
d="M440 364v-364h-75v50q-17 -25 -56.5 -42t-82.5 -17q-51 0 -91 21.5t-62 59t-22 90.5q0 26 8.5 53t29 48t53.5 34.5t78 13.5h145v50q0 100 -108 100q-47 0 -78 -24t-33 -74h-75q1 44 18.5 77.5t45 54.5t60.5 30t61 9q55 0 96 -20t64.5 -57t23.5 -93zM365 179v61h-143
q-44 0 -70 -19t-26 -59q0 -53 32.5 -75.5t79.5 -22.5q22 0 51 10t52.5 37.5t23.5 67.5z" />
    <glyph glyph-name="afii10066" unicode="&#x431;" horiz-adv-x="522" 
d="M407 758v-15q1 -54 -31.5 -78.5t-82.5 -24.5h-27q-57 0 -89 -29t-32 -88v-31q49 42 119 42q88 0 140.5 -51.5t52.5 -137.5v-164q0 -88 -51.5 -139t-141.5 -51q-88 0 -141 52t-53 138v344q0 48 18.5 86t44 59t59 32t74.5 11h21q25 0 36.5 6.5t11.5 23.5v15h72zM145 345
v-164q0 -25 10.5 -53t39.5 -45.5t69 -17.5q58 0 88 30t30 86v164q0 54 -31 84.5t-87 30.5q-42 0 -68 -15t-38.5 -41t-12.5 -59z" />
    <glyph glyph-name="afii10067" unicode="&#x432;" horiz-adv-x="528" 
d="M74 0v527h206q48 0 89 -14.5t62.5 -49t21.5 -82.5q0 -37 -14.5 -64.5t-38.5 -43.5q30 -18 47.5 -48.5t17.5 -70.5q0 -76 -48.5 -115t-139.5 -39h-203zM149 73h125q116 0 116 81q0 40 -26 62t-70 22h-145v-165zM380 381q0 19 -10 36.5t-35 26.5t-58 9h-128v-144h145
q42 0 64 17t22 55z" />
    <glyph glyph-name="afii10068" unicode="&#x433;" horiz-adv-x="430" 
d="M75 0v527h329v-75h-253v-452h-76z" />
    <glyph glyph-name="afii10069" unicode="&#x434;" horiz-adv-x="570" 
d="M29 74h60q27 17 30 54l31 399h321v-453h60v-183h-75v109h-352v-109h-75v183zM193 131q-4 -35 -17 -57h220v379h-177z" />
    <glyph glyph-name="afii10070" unicode="&#x435;" horiz-adv-x="518" 
d="M458 345v-106h-318v-59q0 -33 15 -62.5t44 -42t63 -12.5q50 0 82.5 29.5t37.5 79.5h75q-7 -83 -60 -132.5t-135 -49.5q-89 0 -143 51.5t-54 138.5v165q0 85 54.5 137t142.5 52q89 0 142.5 -51t53.5 -138zM383 312v33q0 33 -14.5 62t-43.5 41.5t-63 12.5q-26 0 -55 -10
t-48 -38t-19 -68v-33h243z" />
    <glyph glyph-name="afii10072" unicode="&#x436;" horiz-adv-x="743" 
d="M410 527v-224h36l180 224h93l-203 -254l206 -273h-92l-174 229h-46v-229h-75v229h-48l-174 -229h-92l206 273l-202 254h92l179 -224h39v224h75z" />
    <glyph glyph-name="afii10073" unicode="&#x437;" horiz-adv-x="502" 
d="M212 235v70h63q80 0 80 76q0 18 -12 37t-39.5 30.5t-58.5 11.5q-48 0 -83 -25.5t-35 -78.5h-75q0 46 18 80.5t47 56.5t64 31.5t64 9.5q46 0 90.5 -18.5t69.5 -55t25 -78.5q0 -38 -14.5 -66.5t-40.5 -44.5q30 -19 47.5 -51t17.5 -72q0 -45 -26.5 -83t-74 -56.5
t-95.5 -18.5q-57 0 -102 22t-70.5 62t-25.5 97h75q0 -53 37.5 -80t87.5 -27q47 0 83 22t36 63q0 38 -23 61t-62 25h-68z" />
    <glyph glyph-name="afii10074" unicode="&#x438;" horiz-adv-x="535" 
d="M168 0h-93v527h76v-408l219 408h90v-527h-76v400z" />
    <glyph glyph-name="afii10075" unicode="&#x439;" horiz-adv-x="535" 
d="M168 0h-93v527h76v-408l219 408h90v-527h-76v400zM269 598q-27 0 -59.5 11t-57.5 43.5t-30 83.5h64q4 -38 26 -59t57 -21t56.5 21t26.5 59h63q-4 -43 -22.5 -73.5t-51 -47.5t-72.5 -17z" />
    <glyph glyph-name="afii10076" unicode="&#x43a;" horiz-adv-x="504" 
d="M151 527v-224h55l181 224h92l-202 -254l206 -273h-93l-174 229h-65v-229h-76v527h76z" />
    <glyph glyph-name="afii10077" unicode="&#x43b;" horiz-adv-x="517" 
d="M164 453v-322q0 -68 -35.5 -102t-90.5 -34h-29v74h24q56 0 56 58v400h353v-527h-75v453h-203z" />
    <glyph glyph-name="afii10078" unicode="&#x43c;" horiz-adv-x="593" 
d="M150 0h-75v527h95l125 -307l126 307h97v-527h-75v387l-114 -277h-65l-114 277v-387z" />
    <glyph glyph-name="afii10079" unicode="&#x43d;" horiz-adv-x="532" 
d="M75 0v527h75v-219h232v219h75v-527h-75v234h-232v-234h-75z" />
    <glyph glyph-name="afii10080" unicode="&#x43e;" 
d="M458 180q0 -85 -54.5 -137.5t-141.5 -52.5q-89 0 -143 51.5t-54 138.5v165q0 85 54.5 137t142.5 52q89 0 142.5 -51t53.5 -138v-165zM383 180v165q0 33 -14.5 62t-43.5 41.5t-63 12.5q-26 0 -55 -10t-48 -38t-19 -68v-165q0 -33 15 -62.5t44 -42t63 -12.5q26 0 54.5 10.5
t47.5 39t19 67.5z" />
    <glyph glyph-name="afii10081" unicode="&#x43f;" horiz-adv-x="532" 
d="M75 0v527h382v-527h-75v453h-232v-453h-75z" />
    <glyph glyph-name="afii10082" unicode="&#x440;" horiz-adv-x="526" 
d="M461 180q0 -87 -52 -138.5t-141 -51.5q-33 0 -68 14.5t-50 36.5v-267h-75v753h75v-41q45 48 118 48q87 0 140 -51.5t53 -137.5v-165zM386 180v165q0 40 -18 68t-46 38t-54 10q-58 0 -88 -30t-30 -86v-165q0 -53 32 -85t86 -32q26 0 46 6t35 18t26 36t11 57z" />
    <glyph glyph-name="afii10083" unicode="&#x441;" horiz-adv-x="503" 
d="M262 534q85 0 137.5 -49t57.5 -134h-75q-3 45 -32.5 77.5t-87.5 32.5q-26 0 -55 -10t-48 -38t-19 -68v-165q0 -33 15 -62.5t44 -42t63 -12.5q50 0 82.5 29.5t37.5 79.5h75q-7 -83 -60 -132.5t-135 -49.5q-89 0 -143 51.5t-54 138.5v165q0 85 54.5 137t142.5 52z" />
    <glyph glyph-name="afii10084" unicode="&#x442;" horiz-adv-x="462" 
d="M20 453v74h422v-74h-173v-453h-75v453h-174z" />
    <glyph glyph-name="afii10085" unicode="&#x443;" horiz-adv-x="440" 
d="M207 0h-44l-147 527h79l124 -455h6l120 455h79l-167 -627q-10 -40 -27 -68t-46.5 -43t-88.5 -15h-36v73h48q30 0 48 12.5t26 43.5z" />
    <glyph glyph-name="afii10086" unicode="&#x444;" horiz-adv-x="559" 
d="M244 -226v217q-83 5 -131 55.5t-48 133.5v165q0 81 49 131.5t130 56.5v180h71v-180q81 -5 130 -55.5t49 -132.5v-165q0 -81 -49.5 -132.5t-129.5 -56.5v-217h-71zM419 345q0 43 -24.5 76.5t-79.5 38.5v-396q22 2 47 13.5t41 39t16 63.5v165zM140 180q0 -30 11.5 -55.5
t34 -41t58.5 -19.5v396q-48 -5 -76 -35.5t-28 -79.5v-165z" />
    <glyph glyph-name="afii10087" unicode="&#x445;" horiz-adv-x="456" 
d="M440 0h-90l-121 197l-126 -197h-87l168 263l-168 264h88l124 -202l123 202h87l-168 -265z" />
    <glyph glyph-name="afii10088" unicode="&#x446;" horiz-adv-x="538" 
d="M75 0v527h75v-453h213v453h75v-453h61v-183h-75v109h-349z" />
    <glyph glyph-name="afii10089" unicode="&#x447;" horiz-adv-x="510" 
d="M49 527h75v-132q0 -51 30.5 -78.5t87.5 -27.5h118v238h75v-527h-75v215h-118q-88 0 -140.5 48t-52.5 132v132z" />
    <glyph glyph-name="afii10090" unicode="&#x448;" horiz-adv-x="581" 
d="M75 0v527h75v-453h103v453h75v-453h103v453h75v-527h-431z" />
    <glyph glyph-name="afii10091" unicode="&#x449;" horiz-adv-x="605" 
d="M75 0v527h75v-453h103v453h75v-453h102v453h75v-453h61v-183h-75v109h-416z" />
    <glyph glyph-name="afii10092" unicode="&#x44a;" horiz-adv-x="545" 
d="M499 179q0 -83 -53.5 -131t-140.5 -48h-193v453h-90v74h165v-168h118q43 0 79 -12t61.5 -35t39.5 -57t14 -76zM424 179q0 51 -31 79t-88 28h-118v-213h118q55 0 87 27.5t32 78.5z" />
    <glyph glyph-name="afii10093" unicode="&#x44b;" horiz-adv-x="686" 
d="M461 179q0 -83 -53 -131t-140 -48h-193v527h75v-168h118q88 0 140.5 -47.5t52.5 -132.5zM386 179q0 19 -7.5 44t-34.5 44t-76 19h-118v-213h118q40 0 68.5 15.5t39 41t10.5 49.5zM640 0h-75v527h75v-527z" />
    <glyph glyph-name="afii10094" unicode="&#x44c;" horiz-adv-x="507" 
d="M461 179q0 -83 -53 -131t-140 -48h-193v527h75v-168h118q88 0 140.5 -47.5t52.5 -132.5zM386 179q0 19 -7.5 44t-34.5 44t-76 19h-118v-213h118q40 0 68.5 15.5t39 41t10.5 49.5z" />
    <glyph glyph-name="afii10095" unicode="&#x44d;" horiz-adv-x="503" 
d="M241 534q88 0 142.5 -52t54.5 -137v-165q0 -87 -54 -138.5t-143 -51.5q-82 0 -135 49.5t-60 132.5h75q5 -50 37.5 -79.5t82.5 -29.5q34 0 63 12.5t44 42t15 62.5v53h-167v72h167v40q0 25 -11 53t-40.5 45.5t-70.5 17.5q-58 0 -87.5 -32.5t-32.5 -77.5h-75q5 85 57.5 134
t137.5 49z" />
    <glyph glyph-name="afii10096" unicode="&#x44e;" horiz-adv-x="706" 
d="M150 0h-75v526h75v-223h99v42q0 85 54.5 137t142.5 52q89 0 142.5 -51t53.5 -138v-165q0 -85 -54.5 -137.5t-141.5 -52.5q-89 0 -143 51.5t-54 138.5v50h-99v-230zM567 180v165q0 33 -14.5 62t-43.5 41.5t-63 12.5q-26 0 -55 -10t-48 -38t-19 -68v-165q0 -33 15 -62.5
t44 -42t63 -12.5q26 0 54.5 10.5t47.5 39t19 67.5z" />
    <glyph glyph-name="afii10097" unicode="&#x44f;" horiz-adv-x="546" 
d="M146 0h-90l143 221q-53 11 -86.5 52.5t-33.5 99.5q0 49 22.5 83t66.5 52.5t110 18.5h193v-527h-75v215h-111zM396 453h-116q-58 0 -92 -17.5t-34 -62.5q0 -19 9.5 -39t34 -32.5t56.5 -12.5h142v164z" />
    <glyph glyph-name="afii10071" unicode="&#x451;" horiz-adv-x="518" 
d="M458 345v-106h-318v-59q0 -33 15 -62.5t44 -42t63 -12.5q50 0 82.5 29.5t37.5 79.5h75q-7 -83 -60 -132.5t-135 -49.5q-89 0 -143 51.5t-54 138.5v165q0 85 54.5 137t142.5 52q89 0 142.5 -51t53.5 -138zM383 312v33q0 33 -14.5 62t-43.5 41.5t-63 12.5q-26 0 -55 -10
t-48 -38t-19 -68v-33h243zM409 613h-92v109h92v-109zM200 613h-92v109h92v-109z" />
    <glyph glyph-name="afii10099" unicode="&#x452;" horiz-adv-x="542" 
d="M471 -78q0 -69 -35.5 -103.5t-91.5 -34.5h-29v75h24q25 0 40.5 14t15.5 44v425q0 58 -26 87.5t-84 29.5q-52 0 -90.5 -30.5t-38.5 -76.5v-352h-76v572h-66v68h66v73h76v-73h137v-68h-137v-94q25 29 60 42.5t69 13.5q90 0 138 -50.5t48 -141.5v-420z" />
    <glyph glyph-name="afii10100" unicode="&#x453;" horiz-adv-x="430" 
d="M75 0v527h329v-75h-253v-452h-76zM329 756l-94 -158h-70l77 158h87z" />
    <glyph glyph-name="afii10101" unicode="&#x454;" horiz-adv-x="503" 
d="M262 534q85 0 137.5 -49t57.5 -134h-75q-3 45 -32.5 77.5t-87.5 32.5q-26 0 -55 -10t-48 -38t-19 -68v-40h167v-72h-167v-53q0 -33 15 -62.5t44 -42t63 -12.5q50 0 82.5 29.5t37.5 79.5h75q-7 -83 -60 -132.5t-135 -49.5q-89 0 -143 51.5t-54 138.5v165q0 85 54.5 137
t142.5 52z" />
    <glyph glyph-name="afii10102" unicode="&#x455;" horiz-adv-x="482" 
d="M436 156q0 -32 -10.5 -62.5t-35 -53t-62 -35.5t-88.5 -13q-86 0 -140 48.5t-54 131.5h75q0 -37 18.5 -63t47 -35t53.5 -9q37 0 64 9.5t42 29.5t15 52q0 24 -16 40t-43 23q-5 2 -17 5t-61 14.5t-54 12.5q-35 8 -64 30.5t-40.5 49.5t-11.5 50q0 39 14.5 68.5t40.5 48t60 27
t68 8.5q84 0 137 -45t56 -125h-76q-3 45 -33.5 71t-85.5 26q-20 0 -44.5 -5t-39.5 -20t-18.5 -29t-3.5 -25q0 -20 16.5 -36t42.5 -23q12 -3 63 -15t75 -19q35 -11 62 -32.5t37.5 -48.5t10.5 -51z" />
    <glyph glyph-name="afii10103" unicode="&#x456;" horiz-adv-x="242" 
d="M159 0h-75v527h75v-527zM167 613h-92v108h92v-108z" />
    <glyph glyph-name="afii10104" unicode="&#x457;" horiz-adv-x="225" 
d="M150 0h-75v526h75v-526zM263 613h-92v109h92v-109zM54 613h-92v109h92v-109z" />
    <glyph glyph-name="afii10105" unicode="&#x458;" horiz-adv-x="233" 
d="M150 -89q0 -44 -15 -74.5t-44 -46.5t-67 -16h-29v73h24q24 0 40 14.5t16 44.5v621h75v-616zM158 613h-91v108h91v-108z" />
    <glyph glyph-name="afii10106" unicode="&#x459;" horiz-adv-x="762" 
d="M716 179q0 -83 -53.5 -131t-140.5 -48h-174v453h-184v-322q0 -68 -35.5 -102t-90.5 -34h-29v74h24q56 0 56 58v400h334v-168h99q43 0 79 -12t61.5 -35t39.5 -57t14 -76zM641 179q0 31 -13 55t-38.5 37.5t-67.5 13.5h-99v-212h99q55 0 87 27.5t32 78.5z" />
    <glyph glyph-name="afii10107" unicode="&#x45a;" horiz-adv-x="776" 
d="M730 179q0 -83 -53 -131t-140 -48h-174v285h-213v-285h-75v527h75v-168h213v168h75v-168h99q87 0 140 -47.5t53 -132.5zM655 179q0 19 -7.5 44t-34.5 44t-76 19h-99v-213h99q39 0 68 15.5t39.5 41t10.5 49.5z" />
    <glyph glyph-name="afii10108" unicode="&#x45b;" horiz-adv-x="542" 
d="M471 0h-76v342q0 58 -26 87.5t-84 29.5q-52 0 -90.5 -30.5t-38.5 -76.5v-352h-76v572h-66v68h66v73h76v-73h137v-68h-137v-94q25 29 60 42.5t69 13.5q90 0 138 -50.5t48 -141.5v-342z" />
    <glyph glyph-name="afii10109" unicode="&#x45c;" horiz-adv-x="504" 
d="M151 527v-224h55l181 224h92l-202 -254l206 -273h-93l-174 229h-65v-229h-76v527h76zM336 756l-94 -158h-70l77 158h87z" />
    <glyph glyph-name="afii10110" unicode="&#x45e;" horiz-adv-x="440" 
d="M207 0h-44l-147 527h79l124 -455h6l120 455h79l-167 -627q-10 -40 -27 -68t-46.5 -43t-88.5 -15h-36v73h48q30 0 48 12.5t26 43.5zM222 598q-27 0 -59.5 11t-57.5 43.5t-30 83.5h64q4 -38 26 -59t57 -21t56.5 21t26.5 59h63q-4 -43 -22.5 -73.5t-51 -47.5t-72.5 -17z" />
    <glyph glyph-name="afii10193" unicode="&#x45f;" horiz-adv-x="533" 
d="M75 0v527h75v-453h233v453h75v-527h-154v-109h-75v109h-154z" />
    <glyph glyph-name="afii10050" unicode="&#x490;" horiz-adv-x="469" 
d="M383 822h76v-185h-307v-637h-77v713h308v109z" />
    <glyph glyph-name="afii10098" unicode="&#x491;" horiz-adv-x="430" 
d="M328 634h75v-182h-253v-452h-75v526h253v108z" />
    <glyph glyph-name="uni1E0D" unicode="&#x1e0d;" horiz-adv-x="527" 
d="M140 345v-165q0 -53 32 -85t86 -32q26 0 46 6t35 18t26 36t11 57v165q0 40 -18 68t-46 38t-54 10q-42 0 -67.5 -15t-38 -41t-12.5 -60zM65 180v165q0 87 52.5 138t140.5 51q35 0 67.5 -14t50.5 -38v231h75v-713h-75v41q-7 -10 -23.5 -22t-43.5 -20.5t-51 -8.5
q-87 0 -140 52t-53 138zM312 -187h-92v109h92v-109z" />
    <glyph glyph-name="uni1E25" unicode="&#x1e25;" horiz-adv-x="532" 
d="M461 0h-75v345q0 58 -25.5 87t-82.5 29q-53 0 -90.5 -32.5t-37.5 -81.5v-347h-75v713h75v-237q18 26 55.5 42t72.5 16q89 0 136 -50t47 -139v-345zM311 -187h-92v109h92v-109z" />
    <glyph glyph-name="uni1E63" unicode="&#x1e63;" horiz-adv-x="482" 
d="M436 156q0 -32 -10.5 -62.5t-35 -53t-62 -35.5t-88.5 -13q-86 0 -140 48.5t-54 131.5h75q0 -37 18.5 -63t47 -35t53.5 -9q37 0 64 9.5t42 29.5t15 52q0 24 -16 40t-43 23q-5 2 -17 5t-61 14.5t-54 12.5q-35 8 -64 30.5t-40.5 49.5t-11.5 50q0 39 14.5 68.5t40.5 48t60 27
t68 8.5q84 0 137 -45t56 -125h-76q-3 45 -33.5 71t-85.5 26q-20 0 -44.5 -5t-39.5 -20t-18.5 -29t-3.5 -25q0 -20 16.5 -36t42.5 -23q12 -3 63 -15t75 -19q35 -11 62 -32.5t37.5 -48.5t10.5 -51zM281 -187h-92v109h92v-109z" />
    <glyph glyph-name="uni1E6D" unicode="&#x1e6d;" horiz-adv-x="349" 
d="M16 454v73h100v186h75v-186h115v-73h-115v-322q0 -30 15.5 -44.5t39.5 -14.5h62v-73h-66q-25 0 -55 10.5t-50.5 42t-20.5 83.5v318h-100zM261 -187h-92v109h92v-109z" />
    <glyph glyph-name="Wgrave" unicode="&#x1e80;" horiz-adv-x="784" 
d="M763 713l-149 -713h-92l-130 551l-131 -551h-92l-148 713h78l119 -594l138 594h72l135 -593l121 593h79zM428 780h-71l-93 158h86z" />
    <glyph glyph-name="wgrave" unicode="&#x1e81;" horiz-adv-x="686" 
d="M649 527l-121 -527h-88l-97 405l-97 -405h-87l-122 527h78l92 -434l101 434h70l101 -435l92 435h78zM378 598h-71l-93 158h86z" />
    <glyph glyph-name="Wacute" unicode="&#x1e82;" horiz-adv-x="784" 
d="M763 713l-149 -713h-92l-130 551l-131 -551h-92l-148 713h78l119 -594l138 594h72l135 -593l121 593h79zM523 938l-94 -158h-70l77 158h87z" />
    <glyph glyph-name="wacute" unicode="&#x1e83;" horiz-adv-x="686" 
d="M649 527l-121 -527h-88l-97 405l-97 -405h-87l-122 527h78l92 -434l101 434h70l101 -435l92 435h78zM473 756l-94 -158h-70l77 158h87z" />
    <glyph glyph-name="Wdieresis" unicode="&#x1e84;" horiz-adv-x="784" 
d="M763 713l-149 -713h-92l-130 551l-131 -551h-92l-148 713h78l119 -594l138 594h72l135 -593l121 593h79zM542 780h-92v109h92v-109zM333 780h-92v109h92v-109z" />
    <glyph glyph-name="wdieresis" unicode="&#x1e85;" horiz-adv-x="686" 
d="M649 527l-121 -527h-88l-97 405l-97 -405h-87l-122 527h78l92 -434l101 434h70l101 -435l92 435h78zM493 613h-92v109h92v-109zM284 613h-92v109h92v-109z" />
    <glyph glyph-name="uni1E93" unicode="&#x1e93;" horiz-adv-x="439" 
d="M403 0h-367v68l258 386h-249v73h337v-68l-259 -386h280v-73zM271 -187h-92v109h92v-109z" />
    <glyph glyph-name="uni1EA0" unicode="&#x1ea0;" horiz-adv-x="540" 
d="M520 0h-76l-52 201h-241l-54 -201h-77l186 713h125zM372 276l-95 366h-13l-95 -366h203zM315 -187h-92v109h92v-109z" />
    <glyph glyph-name="uni1EA1" unicode="&#x1ea1;" horiz-adv-x="512" 
d="M440 364v-364h-75v50q-17 -25 -56.5 -42t-82.5 -17q-51 0 -91 21.5t-62 59t-22 90.5q0 26 8.5 53t29 48t53.5 34.5t78 13.5h145v50q0 100 -108 100q-47 0 -78 -24t-33 -74h-75q1 44 18.5 77.5t45 54.5t60.5 30t61 9q55 0 96 -20t64.5 -57t23.5 -93zM365 179v61h-143
q-44 0 -70 -19t-26 -59q0 -53 32.5 -75.5t79.5 -22.5q22 0 51 10t52.5 37.5t23.5 67.5zM300 -187h-92v109h92v-109z" />
    <glyph glyph-name="uni1EA2" unicode="&#x1ea2;" horiz-adv-x="540" 
d="M520 0h-76l-52 201h-241l-54 -201h-77l186 713h125zM372 276l-95 366h-13l-95 -366h203zM259 757v63q19 0 31.5 11.5t12.5 27.5q0 17 -11.5 28t-27.5 11q-17 0 -32 -15l-47 38q15 17 37 28t43 11q20 0 43.5 -10t40 -35.5t16.5 -55.5t-17.5 -55.5t-42.5 -36t-46 -10.5z
" />
    <glyph glyph-name="uni1EA3" unicode="&#x1ea3;" horiz-adv-x="512" 
d="M440 364v-364h-75v50q-17 -25 -56.5 -42t-82.5 -17q-51 0 -91 21.5t-62 59t-22 90.5q0 26 8.5 53t29 48t53.5 34.5t78 13.5h145v50q0 100 -108 100q-47 0 -78 -24t-33 -74h-75q1 44 18.5 77.5t45 54.5t60.5 30t61 9q55 0 96 -20t64.5 -57t23.5 -93zM365 179v61h-143
q-44 0 -70 -19t-26 -59q0 -53 32.5 -75.5t79.5 -22.5q22 0 51 10t52.5 37.5t23.5 67.5zM244 583v63q19 0 31.5 11.5t12.5 27.5q0 17 -11.5 28t-27.5 11q-17 0 -32 -15l-47 38q15 17 37 28t43 11q20 0 43.5 -10t40 -35.5t16.5 -55.5t-17.5 -55.5t-42.5 -36t-46 -10.5z" />
    <glyph glyph-name="uni1EA4" unicode="&#x1ea4;" horiz-adv-x="540" 
d="M520 0h-76l-52 201h-241l-54 -201h-77l186 713h125zM372 276l-95 366h-13l-95 -366h203zM409 739h-78l-59 58l-58 -58h-78l106 111h59zM408 970l-89 -83h-70l76 83h83z" />
    <glyph glyph-name="uni1EA5" unicode="&#x1ea5;" horiz-adv-x="512" 
d="M440 364v-364h-75v50q-17 -25 -56.5 -42t-82.5 -17q-51 0 -91 21.5t-62 59t-22 90.5q0 26 8.5 53t29 48t53.5 34.5t78 13.5h145v50q0 100 -108 100q-47 0 -78 -24t-33 -74h-75q1 44 18.5 77.5t45 54.5t60.5 30t61 9q55 0 96 -20t64.5 -57t23.5 -93zM365 179v61h-143
q-44 0 -70 -19t-26 -59q0 -53 32.5 -75.5t79.5 -22.5q22 0 51 10t52.5 37.5t23.5 67.5zM397 574h-78l-59 58l-58 -58h-78l106 111h59zM396 805l-89 -83h-70l76 83h83z" />
    <glyph glyph-name="uni1EA6" unicode="&#x1ea6;" horiz-adv-x="540" 
d="M520 0h-76l-52 201h-241l-54 -201h-77l186 713h125zM372 276l-95 366h-13l-95 -366h203zM408 739h-78l-59 58l-58 -58h-78l106 111h59zM230 887l-89 83h82l77 -83h-70z" />
    <glyph glyph-name="uni1EA7" unicode="&#x1ea7;" horiz-adv-x="512" 
d="M440 364v-364h-75v50q-17 -25 -56.5 -42t-82.5 -17q-51 0 -91 21.5t-62 59t-22 90.5q0 26 8.5 53t29 48t53.5 34.5t78 13.5h145v50q0 100 -108 100q-47 0 -78 -24t-33 -74h-75q1 44 18.5 77.5t45 54.5t60.5 30t61 9q55 0 96 -20t64.5 -57t23.5 -93zM365 179v61h-143
q-44 0 -70 -19t-26 -59q0 -53 32.5 -75.5t79.5 -22.5q22 0 51 10t52.5 37.5t23.5 67.5zM398 574h-78l-59 58l-58 -58h-78l106 111h59zM220 722l-89 83h82l77 -83h-70z" />
    <glyph glyph-name="uni1EA8" unicode="&#x1ea8;" horiz-adv-x="540" 
d="M520 0h-76l-52 201h-241l-54 -201h-77l186 713h125zM372 276l-95 366h-13l-95 -366h203zM251 970l-40 31q12 12 28.5 19.5t31.5 7.5q35 0 58.5 -23t23.5 -56q0 -31 -23 -54.5t-56 -26.5v53q12 1 19.5 9t7.5 19t-8 19.5t-23 8.5q-4 0 -10 -2t-9 -5zM410 739h-78l-59 58
l-58 -58h-78l106 111h59z" />
    <glyph glyph-name="uni1EA9" unicode="&#x1ea9;" horiz-adv-x="512" 
d="M440 364v-364h-75v50q-17 -25 -56.5 -42t-82.5 -17q-51 0 -91 21.5t-62 59t-22 90.5q0 26 8.5 53t29 48t53.5 34.5t78 13.5h145v50q0 100 -108 100q-47 0 -78 -24t-33 -74h-75q1 44 18.5 77.5t45 54.5t60.5 30t61 9q55 0 96 -20t64.5 -57t23.5 -93zM365 179v61h-143
q-44 0 -70 -19t-26 -59q0 -53 32.5 -75.5t79.5 -22.5q22 0 51 10t52.5 37.5t23.5 67.5zM237 805l-40 31q12 12 28.5 19.5t31.5 7.5q35 0 58.5 -23t23.5 -56q0 -31 -23 -54.5t-56 -26.5v53q12 1 19.5 9t7.5 19t-8 19.5t-23 8.5q-4 0 -10 -2t-9 -5zM396 574h-78l-59 58
l-58 -58h-78l106 111h59z" />
    <glyph glyph-name="uni1EAA" unicode="&#x1eaa;" horiz-adv-x="540" 
d="M520 0h-76l-52 201h-241l-54 -201h-77l186 713h125zM372 276l-95 366h-13l-95 -366h203zM358 967l37 -33q-18 -22 -37 -34t-43 -12q-7 0 -13.5 1t-13 3t-14 5.5t-10.5 4.5q-1 1 -15 7t-25 6q-24 0 -46 -24l-35 32q17 20 35.5 32.5t43.5 12.5q17 0 53 -15q28 -11 31 -11.5
t7 -0.5q24 0 45 26zM407 739h-78l-58 58l-59 -58h-78l107 111h59z" />
    <glyph glyph-name="uni1EAB" unicode="&#x1eab;" horiz-adv-x="512" 
d="M440 364v-364h-75v50q-17 -25 -56.5 -42t-82.5 -17q-51 0 -91 21.5t-62 59t-22 90.5q0 26 8.5 53t29 48t53.5 34.5t78 13.5h145v50q0 100 -108 100q-47 0 -78 -24t-33 -74h-75q1 44 18.5 77.5t45 54.5t60.5 30t61 9q55 0 96 -20t64.5 -57t23.5 -93zM365 179v61h-143
q-44 0 -70 -19t-26 -59q0 -53 32.5 -75.5t79.5 -22.5q22 0 51 10t52.5 37.5t23.5 67.5zM348 802l37 -33q-18 -22 -37 -34t-43 -12q-7 0 -13.5 1t-13 3t-14 5.5t-10.5 4.5q-1 1 -15 7t-25 6q-24 0 -46 -24l-35 32q17 20 35.5 32.5t43.5 12.5q17 0 53 -15q28 -11 31 -11.5
t7 -0.5q24 0 45 26zM397 574h-78l-58 58l-59 -58h-78l107 111h59z" />
    <glyph glyph-name="uni1EAC" unicode="&#x1eac;" horiz-adv-x="540" 
d="M520 0h-76l-52 201h-241l-54 -201h-77l186 713h125zM372 276l-95 366h-13l-95 -366h203zM410 780h-71l-68 89l-67 -89h-71l107 157h63zM316 -187h-92v109h92v-109z" />
    <glyph glyph-name="uni1EAD" unicode="&#x1ead;" horiz-adv-x="512" 
d="M440 364v-364h-75v50q-17 -25 -56.5 -42t-82.5 -17q-51 0 -91 21.5t-62 59t-22 90.5q0 26 8.5 53t29 48t53.5 34.5t78 13.5h145v50q0 100 -108 100q-47 0 -78 -24t-33 -74h-75q1 44 18.5 77.5t45 54.5t60.5 30t61 9q55 0 96 -20t64.5 -57t23.5 -93zM365 179v61h-143
q-44 0 -70 -19t-26 -59q0 -53 32.5 -75.5t79.5 -22.5q22 0 51 10t52.5 37.5t23.5 67.5zM398 598h-71l-68 89l-67 -89h-71l107 157h63zM305 -187h-92v109h92v-109z" />
    <glyph glyph-name="uni1EAE" unicode="&#x1eae;" horiz-adv-x="540" 
d="M520 0h-76l-52 201h-241l-54 -201h-77l186 713h125zM372 276l-95 366h-13l-95 -366h203zM270 739q-48 0 -81.5 34.5t-33.5 83.5h60q0 -27 15 -43.5t40 -16.5t40.5 16.5t15.5 43.5h60q0 -23 -11.5 -50.5t-40.5 -47.5t-64 -20zM385 965l-89 -82h-70l77 82h82z" />
    <glyph glyph-name="uni1EAF" unicode="&#x1eaf;" horiz-adv-x="512" 
d="M440 364v-364h-75v50q-17 -25 -56.5 -42t-82.5 -17q-51 0 -91 21.5t-62 59t-22 90.5q0 26 8.5 53t29 48t53.5 34.5t78 13.5h145v50q0 100 -108 100q-47 0 -78 -24t-33 -74h-75q1 44 18.5 77.5t45 54.5t60.5 30t61 9q55 0 96 -20t64.5 -57t23.5 -93zM365 179v61h-143
q-44 0 -70 -19t-26 -59q0 -53 32.5 -75.5t79.5 -22.5q22 0 51 10t52.5 37.5t23.5 67.5zM256 575q-48 0 -81.5 34.5t-33.5 83.5h60q0 -27 15 -43.5t40 -16.5t40.5 16.5t15.5 43.5h60q0 -23 -11.5 -50.5t-40.5 -47.5t-64 -20zM371 801l-89 -82h-70l77 82h82z" />
    <glyph glyph-name="uni1EB0" unicode="&#x1eb0;" horiz-adv-x="540" 
d="M520 0h-76l-52 201h-241l-54 -201h-77l186 713h125zM372 276l-95 366h-13l-95 -366h203zM246 884l-89 82h83l76 -82h-70zM269 740q-48 0 -81.5 34.5t-33.5 83.5h60q0 -27 15 -43.5t40 -16.5t40.5 16.5t15.5 43.5h60q0 -23 -11.5 -50.5t-40.5 -47.5t-64 -20z" />
    <glyph glyph-name="uni1EB1" unicode="&#x1eb1;" horiz-adv-x="512" 
d="M440 364v-364h-75v50q-17 -25 -56.5 -42t-82.5 -17q-51 0 -91 21.5t-62 59t-22 90.5q0 26 8.5 53t29 48t53.5 34.5t78 13.5h145v50q0 100 -108 100q-47 0 -78 -24t-33 -74h-75q1 44 18.5 77.5t45 54.5t60.5 30t61 9q55 0 96 -20t64.5 -57t23.5 -93zM365 179v61h-143
q-44 0 -70 -19t-26 -59q0 -53 32.5 -75.5t79.5 -22.5q22 0 51 10t52.5 37.5t23.5 67.5zM233 719l-89 82h83l76 -82h-70zM256 575q-48 0 -81.5 34.5t-33.5 83.5h60q0 -27 15 -43.5t40 -16.5t40.5 16.5t15.5 43.5h60q0 -23 -11.5 -50.5t-40.5 -47.5t-64 -20z" />
    <glyph glyph-name="uni1EB2" unicode="&#x1eb2;" horiz-adv-x="540" 
d="M520 0h-76l-52 201h-241l-54 -201h-77l186 713h125zM372 276l-95 366h-13l-95 -366h203zM270 740q-48 0 -81.5 34.5t-33.5 83.5h60q0 -27 15 -43.5t40 -16.5t40.5 16.5t15.5 43.5h60q0 -23 -11.5 -50.5t-40.5 -47.5t-64 -20zM246 967l-40 32q12 12 28.5 19.5t31.5 7.5
q35 0 58.5 -23t23.5 -56q0 -31 -23.5 -55t-55.5 -26v52q12 2 19.5 10t7.5 19t-8 19.5t-23 8.5q-2 0 -8 -1.5t-11 -6.5z" />
    <glyph glyph-name="uni1EB3" unicode="&#x1eb3;" horiz-adv-x="512" 
d="M440 364v-364h-75v50q-17 -25 -56.5 -42t-82.5 -17q-51 0 -91 21.5t-62 59t-22 90.5q0 26 8.5 53t29 48t53.5 34.5t78 13.5h145v50q0 100 -108 100q-47 0 -78 -24t-33 -74h-75q1 44 18.5 77.5t45 54.5t60.5 30t61 9q55 0 96 -20t64.5 -57t23.5 -93zM365 179v61h-143
q-44 0 -70 -19t-26 -59q0 -53 32.5 -75.5t79.5 -22.5q22 0 51 10t52.5 37.5t23.5 67.5zM256 575q-48 0 -81.5 34.5t-33.5 83.5h60q0 -27 15 -43.5t40 -16.5t40.5 16.5t15.5 43.5h60q0 -23 -11.5 -50.5t-40.5 -47.5t-64 -20zM232 802l-40 32q12 12 28.5 19.5t31.5 7.5
q35 0 58.5 -23t23.5 -56q0 -31 -23.5 -55t-55.5 -26v52q12 2 19.5 10t7.5 19t-8 19.5t-23 8.5q-2 0 -8 -1.5t-11 -6.5z" />
    <glyph glyph-name="uni1EB4" unicode="&#x1eb4;" horiz-adv-x="540" 
d="M520 0h-76l-52 201h-241l-54 -201h-77l186 713h125zM372 276l-95 366h-13l-95 -366h203zM270 740q-48 0 -81.5 34.5t-33.5 83.5h60q0 -27 15 -43.5t40 -16.5t40.5 16.5t15.5 43.5h60q0 -23 -11.5 -50.5t-40.5 -47.5t-64 -20zM360 981l37 -33q-18 -22 -37 -34t-43 -12
q-7 0 -13.5 1t-13 3t-14 5.5t-10.5 4.5q-1 1 -15 7t-25 6q-24 0 -46 -24l-35 32q17 20 35.5 32.5t43.5 12.5q17 0 53 -15q28 -11 31 -11.5t7 -0.5q24 0 45 26z" />
    <glyph glyph-name="uni1EB5" unicode="&#x1eb5;" horiz-adv-x="512" 
d="M440 364v-364h-75v50q-17 -25 -56.5 -42t-82.5 -17q-51 0 -91 21.5t-62 59t-22 90.5q0 26 8.5 53t29 48t53.5 34.5t78 13.5h145v50q0 100 -108 100q-47 0 -78 -24t-33 -74h-75q1 44 18.5 77.5t45 54.5t60.5 30t61 9q55 0 96 -20t64.5 -57t23.5 -93zM365 179v61h-143
q-44 0 -70 -19t-26 -59q0 -53 32.5 -75.5t79.5 -22.5q22 0 51 10t52.5 37.5t23.5 67.5zM256 575q-48 0 -81.5 34.5t-33.5 83.5h60q0 -27 15 -43.5t40 -16.5t40.5 16.5t15.5 43.5h60q0 -23 -11.5 -50.5t-40.5 -47.5t-64 -20zM346 816l37 -33q-18 -22 -37 -34t-43 -12
q-7 0 -13.5 1t-13 3t-14.5 5.5t-10 4.5q-1 1 -15 7t-25 6q-24 0 -46 -24l-35 32q17 20 35.5 32.5t43.5 12.5q17 0 53 -15q28 -11 31 -11.5t7 -0.5q24 0 45 26z" />
    <glyph glyph-name="uni1EB6" unicode="&#x1eb6;" horiz-adv-x="540" 
d="M520 0h-76l-52 201h-241l-54 -201h-77l186 713h125zM372 276l-95 366h-13l-95 -366h203zM316 -187h-92v109h92v-109zM271 780q-27 0 -59.5 11t-57.5 43.5t-30 83.5h64q4 -38 26 -59t57 -21t56.5 21t26.5 59h63q-4 -43 -22.5 -73.5t-51 -47.5t-72.5 -17z" />
    <glyph glyph-name="uni1EB7" unicode="&#x1eb7;" horiz-adv-x="512" 
d="M440 364v-364h-75v50q-17 -25 -56.5 -42t-82.5 -17q-51 0 -91 21.5t-62 59t-22 90.5q0 26 8.5 53t29 48t53.5 34.5t78 13.5h145v50q0 100 -108 100q-47 0 -78 -24t-33 -74h-75q1 44 18.5 77.5t45 54.5t60.5 30t61 9q55 0 96 -20t64.5 -57t23.5 -93zM365 179v61h-143
q-44 0 -70 -19t-26 -59q0 -53 32.5 -75.5t79.5 -22.5q22 0 51 10t52.5 37.5t23.5 67.5zM305 -187h-92v109h92v-109zM258 598q-27 0 -59.5 11t-57.5 43.5t-30 83.5h64q4 -38 26 -59t57 -21t56.5 21t26.5 59h63q-4 -43 -22.5 -73.5t-51 -47.5t-72.5 -17z" />
    <glyph glyph-name="uni1EB8" unicode="&#x1eb8;" horiz-adv-x="505" 
d="M460 0h-385v713h385v-76h-308v-222h285v-76h-285v-263h308v-76zM314 -187h-92v109h92v-109z" />
    <glyph glyph-name="uni1EB9" unicode="&#x1eb9;" horiz-adv-x="518" 
d="M458 345v-106h-318v-59q0 -33 15 -62.5t44 -42t63 -12.5q50 0 82.5 29.5t37.5 79.5h75q-7 -83 -60 -132.5t-135 -49.5q-89 0 -143 51.5t-54 138.5v165q0 85 54.5 137t142.5 52q89 0 142.5 -51t53.5 -138zM383 312v33q0 33 -14.5 62t-43.5 41.5t-63 12.5q-26 0 -55 -10
t-48 -38t-19 -68v-33h243zM308 -187h-92v109h92v-109z" />
    <glyph glyph-name="uni1EBA" unicode="&#x1eba;" horiz-adv-x="505" 
d="M460 0h-385v713h385v-76h-308v-222h285v-76h-285v-263h308v-76zM254 757v63q19 0 31.5 11.5t12.5 27.5q0 17 -11.5 28t-27.5 11q-17 0 -32 -15l-47 38q15 17 37 28t43 11q20 0 43.5 -10t40 -35.5t16.5 -55.5t-17.5 -55.5t-42.5 -36t-46 -10.5z" />
    <glyph glyph-name="uni1EBB" unicode="&#x1ebb;" horiz-adv-x="518" 
d="M458 345v-106h-318v-59q0 -33 15 -62.5t44 -42t63 -12.5q50 0 82.5 29.5t37.5 79.5h75q-7 -83 -60 -132.5t-135 -49.5q-89 0 -143 51.5t-54 138.5v165q0 85 54.5 137t142.5 52q89 0 142.5 -51t53.5 -138zM383 312v33q0 33 -14.5 62t-43.5 41.5t-63 12.5q-26 0 -55 -10
t-48 -38t-19 -68v-33h243zM247 583v63q19 0 31.5 11.5t12.5 27.5q0 17 -11.5 28t-27.5 11q-17 0 -32 -15l-47 38q15 17 37 28t43 11q20 0 43.5 -10t40 -35.5t16.5 -55.5t-17.5 -55.5t-42.5 -36t-46 -10.5z" />
    <glyph glyph-name="uni1EBC" unicode="&#x1ebc;" horiz-adv-x="505" 
d="M460 0h-385v713h385v-76h-308v-222h285v-76h-285v-263h308v-76zM386 882l47 -46q-26 -25 -51 -40.5t-51 -15.5q-14 0 -29 5.5t-46.5 21.5t-46.5 16q-11 0 -22.5 -6.5t-33.5 -26.5l-47 45q26 26 50.5 41.5t51.5 15.5q23 0 65.5 -21.5t56.5 -21.5q22 0 56 33z" />
    <glyph glyph-name="uni1EBD" unicode="&#x1ebd;" horiz-adv-x="518" 
d="M458 345v-106h-318v-59q0 -33 15 -62.5t44 -42t63 -12.5q50 0 82.5 29.5t37.5 79.5h75q-7 -83 -60 -132.5t-135 -49.5q-89 0 -143 51.5t-54 138.5v165q0 85 54.5 137t142.5 52q89 0 142.5 -51t53.5 -138zM383 312v33q0 33 -14.5 62t-43.5 41.5t-63 12.5q-26 0 -55 -10
t-48 -38t-19 -68v-33h243zM379 702l47 -46q-26 -25 -51 -40.5t-51 -15.5q-14 0 -29 5.5t-46.5 21.5t-46.5 16q-11 0 -22.5 -6.5t-33.5 -26.5l-47 45q26 26 50.5 41.5t51.5 15.5q23 0 65.5 -21.5t56.5 -21.5q22 0 56 33z" />
    <glyph glyph-name="uni1EBE" unicode="&#x1ebe;" horiz-adv-x="505" 
d="M460 0h-385v713h385v-76h-308v-222h285v-76h-285v-263h308v-76zM406 739h-78l-59 58l-58 -58h-78l106 111h59zM405 970l-89 -83h-70l76 83h83z" />
    <glyph glyph-name="uni1EBF" unicode="&#x1ebf;" horiz-adv-x="518" 
d="M458 345v-106h-318v-59q0 -33 15 -62.5t44 -42t63 -12.5q50 0 82.5 29.5t37.5 79.5h75q-7 -83 -60 -132.5t-135 -49.5q-89 0 -143 51.5t-54 138.5v165q0 85 54.5 137t142.5 52q89 0 142.5 -51t53.5 -138zM383 312v33q0 33 -14.5 62t-43.5 41.5t-63 12.5q-26 0 -55 -10
t-48 -38t-19 -68v-33h243zM401 574h-78l-59 58l-58 -58h-78l106 111h59zM400 805l-89 -83h-70l76 83h83z" />
    <glyph glyph-name="uni1EC0" unicode="&#x1ec0;" horiz-adv-x="505" 
d="M460 0h-385v713h385v-76h-308v-222h285v-76h-285v-263h308v-76zM406 739h-78l-59 58l-58 -58h-78l106 111h59zM228 887l-89 83h82l77 -83h-70z" />
    <glyph glyph-name="uni1EC1" unicode="&#x1ec1;" horiz-adv-x="518" 
d="M458 345v-106h-318v-59q0 -33 15 -62.5t44 -42t63 -12.5q50 0 82.5 29.5t37.5 79.5h75q-7 -83 -60 -132.5t-135 -49.5q-89 0 -143 51.5t-54 138.5v165q0 85 54.5 137t142.5 52q89 0 142.5 -51t53.5 -138zM383 312v33q0 33 -14.5 62t-43.5 41.5t-63 12.5q-26 0 -55 -10
t-48 -38t-19 -68v-33h243zM400 574h-78l-59 58l-58 -58h-78l106 111h59zM222 722l-89 83h82l77 -83h-70z" />
    <glyph glyph-name="uni1EC2" unicode="&#x1ec2;" horiz-adv-x="505" 
d="M460 0h-385v713h385v-76h-308v-222h285v-76h-285v-263h308v-76zM247 970l-40 31q12 12 28.5 19.5t31.5 7.5q35 0 58.5 -23t23.5 -56q0 -31 -23 -54.5t-56 -26.5v53q12 1 19.5 9t7.5 19t-8 19.5t-23 8.5q-4 0 -10 -2t-9 -5zM406 739h-78l-59 58l-58 -58h-78l106 111h59z
" />
    <glyph glyph-name="uni1EC3" unicode="&#x1ec3;" horiz-adv-x="518" 
d="M458 345v-106h-318v-59q0 -33 15 -62.5t44 -42t63 -12.5q50 0 82.5 29.5t37.5 79.5h75q-7 -83 -60 -132.5t-135 -49.5q-89 0 -143 51.5t-54 138.5v165q0 85 54.5 137t142.5 52q89 0 142.5 -51t53.5 -138zM383 312v33q0 33 -14.5 62t-43.5 41.5t-63 12.5q-26 0 -55 -10
t-48 -38t-19 -68v-33h243zM241 805l-40 31q12 12 28.5 19.5t31.5 7.5q35 0 58.5 -23t23.5 -56q0 -31 -23 -54.5t-56 -26.5v53q12 1 19.5 9t7.5 19t-8 19.5t-23 8.5q-4 0 -10 -2t-9 -5zM400 574h-78l-59 58l-58 -58h-78l106 111h59z" />
    <glyph glyph-name="uni1EC4" unicode="&#x1ec4;" horiz-adv-x="505" 
d="M460 0h-385v713h385v-76h-308v-222h285v-76h-285v-263h308v-76zM356 967l37 -33q-18 -22 -37 -34t-43 -12q-7 0 -13.5 1t-13 3t-14 5.5t-10.5 4.5q-1 1 -15 7t-25 6q-24 0 -46 -24l-35 32q17 20 35.5 32.5t43.5 12.5q17 0 53 -15q28 -11 31 -11.5t7 -0.5q24 0 45 26z
M405 739h-78l-58 58l-59 -58h-78l107 111h59z" />
    <glyph glyph-name="uni1EC5" unicode="&#x1ec5;" horiz-adv-x="518" 
d="M458 345v-106h-318v-59q0 -33 15 -62.5t44 -42t63 -12.5q50 0 82.5 29.5t37.5 79.5h75q-7 -83 -60 -132.5t-135 -49.5q-89 0 -143 51.5t-54 138.5v165q0 85 54.5 137t142.5 52q89 0 142.5 -51t53.5 -138zM383 312v33q0 33 -14.5 62t-43.5 41.5t-63 12.5q-26 0 -55 -10
t-48 -38t-19 -68v-33h243zM350 802l37 -33q-18 -22 -37 -34t-43 -12q-7 0 -13.5 1t-13 3t-14 5.5t-10.5 4.5q-1 1 -15 7t-25 6q-24 0 -46 -24l-35 32q17 20 35.5 32.5t43.5 12.5q17 0 53 -15q28 -11 31 -11.5t7 -0.5q24 0 45 26zM399 574h-78l-58 58l-59 -58h-78l107 111h59
z" />
    <glyph glyph-name="uni1EC6" unicode="&#x1ec6;" horiz-adv-x="505" 
d="M460 0h-385v713h385v-76h-308v-222h285v-76h-285v-263h308v-76zM314 -187h-92v109h92v-109zM406 780h-71l-68 89l-67 -89h-71l107 157h63z" />
    <glyph glyph-name="uni1EC7" unicode="&#x1ec7;" horiz-adv-x="518" 
d="M458 345v-106h-318v-59q0 -33 15 -62.5t44 -42t63 -12.5q50 0 82.5 29.5t37.5 79.5h75q-7 -83 -60 -132.5t-135 -49.5q-89 0 -143 51.5t-54 138.5v165q0 85 54.5 137t142.5 52q89 0 142.5 -51t53.5 -138zM383 312v33q0 33 -14.5 62t-43.5 41.5t-63 12.5q-26 0 -55 -10
t-48 -38t-19 -68v-33h243zM309 -187h-92v109h92v-109zM400 598h-71l-68 89l-67 -89h-71l107 157h63z" />
    <glyph glyph-name="uni1EC8" unicode="&#x1ec8;" horiz-adv-x="227" 
d="M75 713h77v-713h-77v713zM95 757v63q19 0 31.5 11.5t12.5 27.5q0 17 -11.5 28t-27.5 11q-17 0 -32 -15l-47 38q15 17 37 28t43 11q20 0 43.5 -10t40 -35.5t16.5 -55.5t-17.5 -55.5t-42.5 -36t-46 -10.5z" />
    <glyph glyph-name="uni1EC9" unicode="&#x1ec9;" horiz-adv-x="225" 
d="M150 0h-75v526h75v-526zM93 583v63q19 0 31.5 11.5t12.5 27.5q0 17 -11.5 28t-27.5 11q-17 0 -32 -15l-47 38q15 17 37 28t43 11q20 0 43.5 -10t40 -35.5t16.5 -55.5t-17.5 -55.5t-42.5 -36t-46 -10.5z" />
    <glyph glyph-name="uni1ECA" unicode="&#x1eca;" horiz-adv-x="227" 
d="M75 713h77v-713h-77v713zM157 -187h-92v109h92v-109z" />
    <glyph glyph-name="uni1ECB" unicode="&#x1ecb;" horiz-adv-x="242" 
d="M159 0h-75v527h75v-527zM167 613h-92v108h92v-108zM167 -187h-92v109h92v-109z" />
    <glyph glyph-name="uni1ECC" unicode="&#x1ecc;" horiz-adv-x="533" 
d="M468 182q0 -28 -10 -60.5t-33 -62t-63 -49t-96 -19.5q-41 0 -79.5 13.5t-65.5 41.5t-41.5 64.5t-14.5 72.5v348q0 27 11.5 64t41 68t68.5 44t81 13q41 0 79 -13t65 -41t42 -64.5t15 -71.5v-348zM391 183v346q0 58 -36 87t-88 29q-53 0 -89 -29t-36 -87v-346q0 -59 36 -88
t89 -29q52 0 88 29t36 88zM312 -187h-92v109h92v-109z" />
    <glyph glyph-name="uni1ECD" unicode="&#x1ecd;" 
d="M458 180q0 -85 -54.5 -137.5t-141.5 -52.5q-89 0 -143 51.5t-54 138.5v165q0 85 54.5 137t142.5 52q89 0 142.5 -51t53.5 -138v-165zM383 180v165q0 33 -14.5 62t-43.5 41.5t-63 12.5q-26 0 -55 -10t-48 -38t-19 -68v-165q0 -33 15 -62.5t44 -42t63 -12.5q26 0 54.5 10.5
t47.5 39t19 67.5zM307 -187h-92v109h92v-109z" />
    <glyph glyph-name="uni1ECE" unicode="&#x1ece;" horiz-adv-x="533" 
d="M468 182q0 -28 -10 -60.5t-33 -62t-63 -49t-96 -19.5q-41 0 -79.5 13.5t-65.5 41.5t-41.5 64.5t-14.5 72.5v348q0 27 11.5 64t41 68t68.5 44t81 13q41 0 79 -13t65 -41t42 -64.5t15 -71.5v-348zM391 183v346q0 58 -36 87t-88 29q-53 0 -89 -29t-36 -87v-346q0 -59 36 -88
t89 -29q52 0 88 29t36 88zM254 757v63q19 0 31.5 11.5t12.5 27.5q0 17 -11.5 28t-27.5 11q-17 0 -32 -15l-47 38q15 17 37 28t43 11q20 0 43.5 -10t40 -35.5t16.5 -55.5t-17.5 -55.5t-42.5 -36t-46 -10.5z" />
    <glyph glyph-name="uni1ECF" unicode="&#x1ecf;" 
d="M458 180q0 -85 -54.5 -137.5t-141.5 -52.5q-89 0 -143 51.5t-54 138.5v165q0 85 54.5 137t142.5 52q89 0 142.5 -51t53.5 -138v-165zM383 180v165q0 33 -14.5 62t-43.5 41.5t-63 12.5q-26 0 -55 -10t-48 -38t-19 -68v-165q0 -33 15 -62.5t44 -42t63 -12.5q26 0 54.5 10.5
t47.5 39t19 67.5zM244 583v63q19 0 31.5 11.5t12.5 27.5q0 17 -11.5 28t-27.5 11q-17 0 -32 -15l-47 38q15 17 37 28t43 11q20 0 43.5 -10t40 -35.5t16.5 -55.5t-17.5 -55.5t-42.5 -36t-46 -10.5z" />
    <glyph glyph-name="uni1ED0" unicode="&#x1ed0;" horiz-adv-x="533" 
d="M468 182q0 -28 -10 -60.5t-33 -62t-63 -49t-96 -19.5q-41 0 -79.5 13.5t-65.5 41.5t-41.5 64.5t-14.5 72.5v348q0 27 11.5 64t41 68t68.5 44t81 13q41 0 79 -13t65 -41t42 -64.5t15 -71.5v-348zM391 183v346q0 58 -36 87t-88 29q-53 0 -89 -29t-36 -87v-346q0 -59 36 -88
t89 -29q52 0 88 29t36 88zM404 739h-78l-59 58l-58 -58h-78l106 111h59zM403 970l-89 -83h-70l76 83h83z" />
    <glyph glyph-name="uni1ED1" unicode="&#x1ed1;" 
d="M458 180q0 -85 -54.5 -137.5t-141.5 -52.5q-89 0 -143 51.5t-54 138.5v165q0 85 54.5 137t142.5 52q89 0 142.5 -51t53.5 -138v-165zM383 180v165q0 33 -14.5 62t-43.5 41.5t-63 12.5q-26 0 -55 -10t-48 -38t-19 -68v-165q0 -33 15 -62.5t44 -42t63 -12.5q26 0 54.5 10.5
t47.5 39t19 67.5zM400 574h-78l-59 58l-58 -58h-78l106 111h59zM399 805l-89 -83h-70l76 83h83z" />
    <glyph glyph-name="uni1ED2" unicode="&#x1ed2;" horiz-adv-x="533" 
d="M468 182q0 -28 -10 -60.5t-33 -62t-63 -49t-96 -19.5q-41 0 -79.5 13.5t-65.5 41.5t-41.5 64.5t-14.5 72.5v348q0 27 11.5 64t41 68t68.5 44t81 13q41 0 79 -13t65 -41t42 -64.5t15 -71.5v-348zM391 183v346q0 58 -36 87t-88 29q-53 0 -89 -29t-36 -87v-346q0 -59 36 -88
t89 -29q52 0 88 29t36 88zM404 739h-78l-59 58l-58 -58h-78l106 111h59zM226 887l-89 83h82l77 -83h-70z" />
    <glyph glyph-name="uni1ED3" unicode="&#x1ed3;" 
d="M458 180q0 -85 -54.5 -137.5t-141.5 -52.5q-89 0 -143 51.5t-54 138.5v165q0 85 54.5 137t142.5 52q89 0 142.5 -51t53.5 -138v-165zM383 180v165q0 33 -14.5 62t-43.5 41.5t-63 12.5q-26 0 -55 -10t-48 -38t-19 -68v-165q0 -33 15 -62.5t44 -42t63 -12.5q26 0 54.5 10.5
t47.5 39t19 67.5zM400 574h-78l-59 58l-58 -58h-78l106 111h59zM222 722l-89 83h82l77 -83h-70z" />
    <glyph glyph-name="uni1ED4" unicode="&#x1ed4;" horiz-adv-x="533" 
d="M468 182q0 -28 -10 -60.5t-33 -62t-63 -49t-96 -19.5q-41 0 -79.5 13.5t-65.5 41.5t-41.5 64.5t-14.5 72.5v348q0 27 11.5 64t41 68t68.5 44t81 13q41 0 79 -13t65 -41t42 -64.5t15 -71.5v-348zM391 183v346q0 58 -36 87t-88 29q-53 0 -89 -29t-36 -87v-346q0 -59 36 -88
t89 -29q52 0 88 29t36 88zM246 970l-40 31q12 12 28.5 19.5t31.5 7.5q35 0 58.5 -23t23.5 -56q0 -31 -23 -54.5t-56 -26.5v53q12 1 19.5 9t7.5 19t-8 19.5t-23 8.5q-4 0 -10 -2t-9 -5zM405 739h-78l-59 58l-58 -58h-78l106 111h59z" />
    <glyph glyph-name="uni1ED5" unicode="&#x1ed5;" 
d="M458 180q0 -85 -54.5 -137.5t-141.5 -52.5q-89 0 -143 51.5t-54 138.5v165q0 85 54.5 137t142.5 52q89 0 142.5 -51t53.5 -138v-165zM383 180v165q0 33 -14.5 62t-43.5 41.5t-63 12.5q-26 0 -55 -10t-48 -38t-19 -68v-165q0 -33 15 -62.5t44 -42t63 -12.5q26 0 54.5 10.5
t47.5 39t19 67.5zM241 805l-40 31q12 12 28.5 19.5t31.5 7.5q35 0 58.5 -23t23.5 -56q0 -31 -23 -54.5t-56 -26.5v53q12 1 19.5 9t7.5 19t-8 19.5t-23 8.5q-4 0 -10 -2t-9 -5zM400 574h-78l-59 58l-58 -58h-78l106 111h59z" />
    <glyph glyph-name="uni1ED6" unicode="&#x1ed6;" horiz-adv-x="533" 
d="M468 182q0 -28 -10 -60.5t-33 -62t-63 -49t-96 -19.5q-41 0 -79.5 13.5t-65.5 41.5t-41.5 64.5t-14.5 72.5v348q0 27 11.5 64t41 68t68.5 44t81 13q41 0 79 -13t65 -41t42 -64.5t15 -71.5v-348zM391 183v346q0 58 -36 87t-88 29q-53 0 -89 -29t-36 -87v-346q0 -59 36 -88
t89 -29q52 0 88 29t36 88zM354 967l37 -33q-18 -22 -37 -34t-43 -12q-7 0 -13.5 1t-13 3t-14 5.5t-10.5 4.5q-1 1 -15 7t-25 6q-24 0 -46 -24l-35 32q17 20 35.5 32.5t43.5 12.5q17 0 53 -15q28 -11 31 -11.5t7 -0.5q24 0 45 26zM403 739h-78l-58 58l-59 -58h-78l107 111h59
z" />
    <glyph glyph-name="uni1ED7" unicode="&#x1ed7;" 
d="M458 180q0 -85 -54.5 -137.5t-141.5 -52.5q-89 0 -143 51.5t-54 138.5v165q0 85 54.5 137t142.5 52q89 0 142.5 -51t53.5 -138v-165zM383 180v165q0 33 -14.5 62t-43.5 41.5t-63 12.5q-26 0 -55 -10t-48 -38t-19 -68v-165q0 -33 15 -62.5t44 -42t63 -12.5q26 0 54.5 10.5
t47.5 39t19 67.5zM349 802l37 -33q-18 -22 -37 -34t-43 -12q-7 0 -13.5 1t-13 3t-14 5.5t-10.5 4.5q-1 1 -15 7t-25 6q-24 0 -46 -24l-35 32q17 20 35.5 32.5t43.5 12.5q17 0 53 -15q28 -11 31 -11.5t7 -0.5q24 0 45 26zM398 574h-78l-58 58l-59 -58h-78l107 111h59z" />
    <glyph glyph-name="uni1ED8" unicode="&#x1ed8;" horiz-adv-x="533" 
d="M468 182q0 -28 -10 -60.5t-33 -62t-63 -49t-96 -19.5q-41 0 -79.5 13.5t-65.5 41.5t-41.5 64.5t-14.5 72.5v348q0 27 11.5 64t41 68t68.5 44t81 13q41 0 79 -13t65 -41t42 -64.5t15 -71.5v-348zM391 183v346q0 58 -36 87t-88 29q-53 0 -89 -29t-36 -87v-346q0 -59 36 -88
t89 -29q52 0 88 29t36 88zM312 -187h-92v109h92v-109zM405 780h-71l-68 89l-67 -89h-71l107 157h63z" />
    <glyph glyph-name="uni1ED9" unicode="&#x1ed9;" 
d="M458 180q0 -85 -54.5 -137.5t-141.5 -52.5q-89 0 -143 51.5t-54 138.5v165q0 85 54.5 137t142.5 52q89 0 142.5 -51t53.5 -138v-165zM383 180v165q0 33 -14.5 62t-43.5 41.5t-63 12.5q-26 0 -55 -10t-48 -38t-19 -68v-165q0 -33 15 -62.5t44 -42t63 -12.5q26 0 54.5 10.5
t47.5 39t19 67.5zM399 598h-71l-68 89l-67 -89h-71l107 157h63zM306 -187h-92v109h92v-109z" />
    <glyph glyph-name="uni1EDA" unicode="&#x1eda;" horiz-adv-x="576" 
d="M468 182q0 -28 -10 -60.5t-33 -62t-63 -49t-96 -19.5q-41 0 -79.5 13.5t-65.5 41.5t-41.5 64.5t-14.5 72.5v348q0 27 11.5 64t41 68t68.5 44t81 13q61 0 103 -24t61.5 -55.5t27.5 -55.5h2q51 0 51 55v73h69v-70q0 -58 -28 -90.5t-85 -36.5v-334zM391 183v346q0 58 -36 87
t-88 29q-53 0 -89 -29t-36 -87v-346q0 -59 36 -88t89 -29q52 0 88 29t36 88zM398 938l-94 -158h-70l77 158h87z" />
    <glyph glyph-name="uni1EDB" unicode="&#x1edb;" horiz-adv-x="545" 
d="M458 180q0 -85 -54.5 -137.5t-141.5 -52.5q-89 0 -143 51.5t-54 138.5v165q0 85 54.5 137t142.5 52q69 0 119 -33.5t68 -91.5q18 2 26 13.5t8 34.5v70h67v-71q0 -101 -92 -114v-162zM383 180v165q0 33 -14.5 62t-43.5 41.5t-63 12.5q-26 0 -55 -10t-48 -38t-19 -68v-165
q0 -33 15 -62.5t44 -42t63 -12.5q26 0 54.5 10.5t47.5 39t19 67.5zM378 756l-94 -158h-70l77 158h87z" />
    <glyph glyph-name="uni1EDC" unicode="&#x1edc;" horiz-adv-x="576" 
d="M468 182q0 -28 -10 -60.5t-33 -62t-63 -49t-96 -19.5q-41 0 -79.5 13.5t-65.5 41.5t-41.5 64.5t-14.5 72.5v348q0 27 11.5 64t41 68t68.5 44t81 13q61 0 103 -24t61.5 -55.5t27.5 -55.5h2q51 0 51 55v73h69v-70q0 -58 -28 -90.5t-85 -36.5v-334zM391 183v346q0 58 -36 87
t-88 29q-53 0 -89 -29t-36 -87v-346q0 -59 36 -88t89 -29q52 0 88 29t36 88zM318 780h-71l-93 158h86z" />
    <glyph glyph-name="uni1EDD" unicode="&#x1edd;" horiz-adv-x="545" 
d="M458 180q0 -85 -54.5 -137.5t-141.5 -52.5q-89 0 -143 51.5t-54 138.5v165q0 85 54.5 137t142.5 52q69 0 119 -33.5t68 -91.5q18 2 26 13.5t8 34.5v70h67v-71q0 -101 -92 -114v-162zM383 180v165q0 33 -14.5 62t-43.5 41.5t-63 12.5q-26 0 -55 -10t-48 -38t-19 -68v-165
q0 -33 15 -62.5t44 -42t63 -12.5q26 0 54.5 10.5t47.5 39t19 67.5zM318 598h-71l-93 158h86z" />
    <glyph glyph-name="uni1EDE" unicode="&#x1ede;" horiz-adv-x="576" 
d="M468 182q0 -28 -10 -60.5t-33 -62t-63 -49t-96 -19.5q-41 0 -79.5 13.5t-65.5 41.5t-41.5 64.5t-14.5 72.5v348q0 27 11.5 64t41 68t68.5 44t81 13q61 0 103 -24t61.5 -55.5t27.5 -55.5h2q51 0 51 55v73h69v-70q0 -58 -28 -90.5t-85 -36.5v-334zM391 183v346q0 58 -36 87
t-88 29q-53 0 -89 -29t-36 -87v-346q0 -59 36 -88t89 -29q52 0 88 29t36 88zM254 757v63q19 0 31.5 11.5t12.5 27.5q0 17 -11.5 28t-27.5 11q-17 0 -32 -15l-47 38q15 17 37 28t43 11q20 0 43.5 -10t40 -35.5t16.5 -55.5t-17.5 -55.5t-42.5 -36t-46 -10.5z" />
    <glyph glyph-name="uni1EDF" unicode="&#x1edf;" horiz-adv-x="545" 
d="M458 180q0 -85 -54.5 -137.5t-141.5 -52.5q-89 0 -143 51.5t-54 138.5v165q0 85 54.5 137t142.5 52q69 0 119 -33.5t68 -91.5q18 2 26 13.5t8 34.5v70h67v-71q0 -101 -92 -114v-162zM383 180v165q0 33 -14.5 62t-43.5 41.5t-63 12.5q-26 0 -55 -10t-48 -38t-19 -68v-165
q0 -33 15 -62.5t44 -42t63 -12.5q26 0 54.5 10.5t47.5 39t19 67.5zM244 583v63q19 0 31.5 11.5t12.5 27.5q0 17 -11.5 28t-27.5 11q-17 0 -32 -15l-47 38q15 17 37 28t43 11q20 0 43.5 -10t40 -35.5t16.5 -55.5t-17.5 -55.5t-42.5 -36t-46 -10.5z" />
    <glyph glyph-name="uni1EE0" unicode="&#x1ee0;" horiz-adv-x="576" 
d="M468 182q0 -28 -10 -60.5t-33 -62t-63 -49t-96 -19.5q-41 0 -79.5 13.5t-65.5 41.5t-41.5 64.5t-14.5 72.5v348q0 27 11.5 64t41 68t68.5 44t81 13q61 0 103 -24t61.5 -55.5t27.5 -55.5h2q51 0 51 55v73h69v-70q0 -58 -28 -90.5t-85 -36.5v-334zM391 183v346q0 58 -36 87
t-88 29q-53 0 -89 -29t-36 -87v-346q0 -59 36 -88t89 -29q52 0 88 29t36 88zM383 882l47 -46q-26 -25 -51 -40.5t-51 -15.5q-14 0 -29 5.5t-46.5 21.5t-46.5 16q-11 0 -22.5 -6.5t-33.5 -26.5l-47 45q26 26 50.5 41.5t51.5 15.5q23 0 65.5 -21.5t56.5 -21.5q22 0 56 33z" />
    <glyph glyph-name="uni1EE1" unicode="&#x1ee1;" horiz-adv-x="545" 
d="M458 180q0 -85 -54.5 -137.5t-141.5 -52.5q-89 0 -143 51.5t-54 138.5v165q0 85 54.5 137t142.5 52q69 0 119 -33.5t68 -91.5q18 2 26 13.5t8 34.5v70h67v-71q0 -101 -92 -114v-162zM383 180v165q0 33 -14.5 62t-43.5 41.5t-63 12.5q-26 0 -55 -10t-48 -38t-19 -68v-165
q0 -33 15 -62.5t44 -42t63 -12.5q26 0 54.5 10.5t47.5 39t19 67.5zM378 702l47 -46q-26 -25 -51 -40.5t-51 -15.5q-14 0 -29 5.5t-46.5 21.5t-46.5 16q-11 0 -22.5 -6.5t-33.5 -26.5l-47 45q26 26 50.5 41.5t51.5 15.5q23 0 65.5 -21.5t56.5 -21.5q22 0 56 33z" />
    <glyph glyph-name="uni1EE2" unicode="&#x1ee2;" horiz-adv-x="576" 
d="M468 182q0 -28 -10 -60.5t-33 -62t-63 -49t-96 -19.5q-41 0 -79.5 13.5t-65.5 41.5t-41.5 64.5t-14.5 72.5v348q0 27 11.5 64t41 68t68.5 44t81 13q61 0 103 -24t61.5 -55.5t27.5 -55.5h2q51 0 51 55v73h69v-70q0 -58 -28 -90.5t-85 -36.5v-334zM391 183v346q0 58 -36 87
t-88 29q-53 0 -89 -29t-36 -87v-346q0 -59 36 -88t89 -29q52 0 88 29t36 88zM306 -187h-92v109h92v-109z" />
    <glyph glyph-name="uni1EE3" unicode="&#x1ee3;" horiz-adv-x="545" 
d="M458 180q0 -85 -54.5 -137.5t-141.5 -52.5q-89 0 -143 51.5t-54 138.5v165q0 85 54.5 137t142.5 52q69 0 119 -33.5t68 -91.5q18 2 26 13.5t8 34.5v70h67v-71q0 -101 -92 -114v-162zM383 180v165q0 33 -14.5 62t-43.5 41.5t-63 12.5q-26 0 -55 -10t-48 -38t-19 -68v-165
q0 -33 15 -62.5t44 -42t63 -12.5q26 0 54.5 10.5t47.5 39t19 67.5zM306 -187h-92v109h92v-109z" />
    <glyph glyph-name="uni1EE4" unicode="&#x1ee4;" horiz-adv-x="534" 
d="M469 182q0 -28 -9.5 -60.5t-32.5 -62.5t-63 -49t-96 -19q-42 0 -76.5 11.5t-61 33.5t-46 61.5t-19.5 85.5v530h77v-530q0 -17 5.5 -39.5t22 -40t42.5 -27.5t55 -10q53 0 89 29t36 88v530h77v-531zM306 -187h-92v109h92v-109z" />
    <glyph glyph-name="uni1EE5" unicode="&#x1ee5;" horiz-adv-x="535" 
d="M460 0h-75v42q-17 -22 -51.5 -36.5t-68.5 -14.5q-89 0 -141.5 51t-52.5 138v347h75v-347q0 -55 30.5 -85.5t88.5 -30.5q24 0 52.5 10t48 37.5t19.5 63.5v352h75v-527zM306 -187h-92v109h92v-109z" />
    <glyph glyph-name="uni1EE6" unicode="&#x1ee6;" horiz-adv-x="534" 
d="M469 182q0 -28 -9.5 -60.5t-32.5 -62.5t-63 -49t-96 -19q-42 0 -76.5 11.5t-61 33.5t-46 61.5t-19.5 85.5v530h77v-530q0 -17 5.5 -39.5t22 -40t42.5 -27.5t55 -10q53 0 89 29t36 88v530h77v-531zM254 757v63q19 0 31.5 11.5t12.5 27.5q0 17 -11.5 28t-27.5 11
q-17 0 -32 -15l-47 38q15 17 37 28t43 11q20 0 43.5 -10t40 -35.5t16.5 -55.5t-17.5 -55.5t-42.5 -36t-46 -10.5z" />
    <glyph glyph-name="uni1EE7" unicode="&#x1ee7;" horiz-adv-x="535" 
d="M460 0h-75v42q-17 -22 -51.5 -36.5t-68.5 -14.5q-89 0 -141.5 51t-52.5 138v347h75v-347q0 -55 30.5 -85.5t88.5 -30.5q24 0 52.5 10t48 37.5t19.5 63.5v352h75v-527zM244 583v63q19 0 31.5 11.5t12.5 27.5q0 17 -11.5 28t-27.5 11q-17 0 -32 -15l-47 38q15 17 37 28
t43 11q20 0 43.5 -10t40 -35.5t16.5 -55.5t-17.5 -55.5t-42.5 -36t-46 -10.5z" />
    <glyph glyph-name="uni1EE8" unicode="&#x1ee8;" horiz-adv-x="606" 
d="M469 182q0 -28 -9.5 -60.5t-32.5 -62.5t-63 -49t-96 -19q-42 0 -76.5 11.5t-61 33.5t-46 61.5t-19.5 85.5v530h77v-530q0 -17 5.5 -39.5t22 -40t42.5 -27.5t55 -10q53 0 89 29t36 88v530h77v-128h12q51 0 51 55v73h69v-70q0 -128 -130 -128h-2v-333zM398 938l-94 -158
h-70l77 158h87z" />
    <glyph glyph-name="uni1EE9" unicode="&#x1ee9;" horiz-adv-x="585" 
d="M460 0h-75v42q-17 -22 -51.5 -36.5t-68.5 -14.5q-89 0 -141.5 51t-52.5 138v347h75v-347q0 -55 30.5 -85.5t88.5 -30.5q24 0 52.5 10t48 37.5t19.5 63.5v352h75v-118h15q26 0 37 10.5t11 37.5v70h67v-71q0 -56 -29 -86t-98 -30h-3v-340zM378 756l-94 -158h-70l77 158h87z
" />
    <glyph glyph-name="uni1EEA" unicode="&#x1eea;" horiz-adv-x="606" 
d="M469 182q0 -28 -9.5 -60.5t-32.5 -62.5t-63 -49t-96 -19q-42 0 -76.5 11.5t-61 33.5t-46 61.5t-19.5 85.5v530h77v-530q0 -17 5.5 -39.5t22 -40t42.5 -27.5t55 -10q53 0 89 29t36 88v530h77v-128h12q51 0 51 55v73h69v-70q0 -128 -130 -128h-2v-333zM318 780h-71l-93 158
h86z" />
    <glyph glyph-name="uni1EEB" unicode="&#x1eeb;" horiz-adv-x="585" 
d="M460 0h-75v42q-17 -22 -51.5 -36.5t-68.5 -14.5q-89 0 -141.5 51t-52.5 138v347h75v-347q0 -55 30.5 -85.5t88.5 -30.5q24 0 52.5 10t48 37.5t19.5 63.5v352h75v-118h15q26 0 37 10.5t11 37.5v70h67v-71q0 -56 -29 -86t-98 -30h-3v-340zM318 598h-71l-93 158h86z" />
    <glyph glyph-name="uni1EEC" unicode="&#x1eec;" horiz-adv-x="606" 
d="M469 182q0 -28 -9.5 -60.5t-32.5 -62.5t-63 -49t-96 -19q-42 0 -76.5 11.5t-61 33.5t-46 61.5t-19.5 85.5v530h77v-530q0 -17 5.5 -39.5t22 -40t42.5 -27.5t55 -10q53 0 89 29t36 88v530h77v-128h12q51 0 51 55v73h69v-70q0 -128 -130 -128h-2v-333zM254 757v63
q19 0 31.5 11.5t12.5 27.5q0 17 -11.5 28t-27.5 11q-17 0 -32 -15l-47 38q15 17 37 28t43 11q20 0 43.5 -10t40 -35.5t16.5 -55.5t-17.5 -55.5t-42.5 -36t-46 -10.5z" />
    <glyph glyph-name="uni1EED" unicode="&#x1eed;" horiz-adv-x="585" 
d="M460 0h-75v42q-17 -22 -51.5 -36.5t-68.5 -14.5q-89 0 -141.5 51t-52.5 138v347h75v-347q0 -55 30.5 -85.5t88.5 -30.5q24 0 52.5 10t48 37.5t19.5 63.5v352h75v-118h15q26 0 37 10.5t11 37.5v70h67v-71q0 -56 -29 -86t-98 -30h-3v-340zM244 583v63q19 0 31.5 11.5
t12.5 27.5q0 17 -11.5 28t-27.5 11q-17 0 -32 -15l-47 38q15 17 37 28t43 11q20 0 43.5 -10t40 -35.5t16.5 -55.5t-17.5 -55.5t-42.5 -36t-46 -10.5z" />
    <glyph glyph-name="uni1EEE" unicode="&#x1eee;" horiz-adv-x="606" 
d="M469 182q0 -28 -9.5 -60.5t-32.5 -62.5t-63 -49t-96 -19q-42 0 -76.5 11.5t-61 33.5t-46 61.5t-19.5 85.5v530h77v-530q0 -17 5.5 -39.5t22 -40t42.5 -27.5t55 -10q53 0 89 29t36 88v530h77v-128h12q51 0 51 55v73h69v-70q0 -128 -130 -128h-2v-333zM383 882l47 -46
q-26 -25 -51 -40.5t-51 -15.5q-14 0 -29 5.5t-46.5 21.5t-46.5 16q-11 0 -22.5 -6.5t-33.5 -26.5l-47 45q26 26 50.5 41.5t51.5 15.5q23 0 65.5 -21.5t56.5 -21.5q22 0 56 33z" />
    <glyph glyph-name="uni1EEF" unicode="&#x1eef;" horiz-adv-x="585" 
d="M460 0h-75v42q-17 -22 -51.5 -36.5t-68.5 -14.5q-89 0 -141.5 51t-52.5 138v347h75v-347q0 -55 30.5 -85.5t88.5 -30.5q24 0 52.5 10t48 37.5t19.5 63.5v352h75v-118h15q26 0 37 10.5t11 37.5v70h67v-71q0 -56 -29 -86t-98 -30h-3v-340zM378 702l47 -46
q-26 -25 -51 -40.5t-51 -15.5q-14 0 -29 5.5t-46.5 21.5t-46.5 16q-11 0 -22.5 -6.5t-33.5 -26.5l-47 45q26 26 50.5 41.5t51.5 15.5q23 0 65.5 -21.5t56.5 -21.5q22 0 56 33z" />
    <glyph glyph-name="uni1EF0" unicode="&#x1ef0;" horiz-adv-x="606" 
d="M469 182q0 -28 -9.5 -60.5t-32.5 -62.5t-63 -49t-96 -19q-42 0 -76.5 11.5t-61 33.5t-46 61.5t-19.5 85.5v530h77v-530q0 -17 5.5 -39.5t22 -40t42.5 -27.5t55 -10q53 0 89 29t36 88v530h77v-128h12q51 0 51 55v73h69v-70q0 -128 -130 -128h-2v-333zM312 -187h-92v109h92
v-109z" />
    <glyph glyph-name="uni1EF1" unicode="&#x1ef1;" horiz-adv-x="585" 
d="M460 0h-75v42q-17 -22 -51.5 -36.5t-68.5 -14.5q-89 0 -141.5 51t-52.5 138v347h75v-347q0 -55 30.5 -85.5t88.5 -30.5q24 0 52.5 10t48 37.5t19.5 63.5v352h75v-118h15q26 0 37 10.5t11 37.5v70h67v-71q0 -56 -29 -86t-98 -30h-3v-340zM312 -187h-92v109h92v-109z" />
    <glyph glyph-name="Ygrave" unicode="&#x1ef2;" horiz-adv-x="494" 
d="M473 713l-188 -456v-257h-77v259l-187 454h83l143 -358l143 358h83zM299 780h-71l-93 158h86z" />
    <glyph glyph-name="ygrave" unicode="&#x1ef3;" horiz-adv-x="440" 
d="M220 72h6l126 455h77l-178 -627q-19 -68 -53 -97t-110 -29h-36v73h51q30 0 50 12.5t28 43.5l27 97h-41l-150 527h78zM272 598h-71l-93 158h86z" />
    <glyph glyph-name="uni1EF4" unicode="&#x1ef4;" horiz-adv-x="494" 
d="M473 713l-188 -456v-257h-77v259l-187 454h83l143 -358l143 358h83zM293 -187h-92v109h92v-109z" />
    <glyph glyph-name="uni1EF5" unicode="&#x1ef5;" horiz-adv-x="440" 
d="M220 72h6l126 455h77l-178 -627q-19 -68 -53 -97t-110 -29h-36v73h51q30 0 50 12.5t28 43.5l27 97h-41l-150 527h78zM406 -187h-92v109h92v-109z" />
    <glyph glyph-name="uni1EF6" unicode="&#x1ef6;" horiz-adv-x="494" 
d="M473 713l-188 -456v-257h-77v259l-187 454h83l143 -358l143 358h83zM224 757v63q19 0 31.5 11.5t12.5 27.5q0 17 -11.5 28t-27.5 11q-17 0 -32 -15l-47 38q15 17 37 28t43 11q20 0 43.5 -10t40 -35.5t16.5 -55.5t-17.5 -55.5t-42.5 -36t-46 -10.5z" />
    <glyph glyph-name="uni1EF7" unicode="&#x1ef7;" horiz-adv-x="440" 
d="M220 72h6l126 455h77l-178 -627q-19 -68 -53 -97t-110 -29h-36v73h51q30 0 50 12.5t28 43.5l27 97h-41l-150 527h78zM194 583v63q19 0 31.5 11.5t12.5 27.5q0 17 -11.5 28t-27.5 11q-17 0 -32 -15l-47 38q15 17 37 28t43 11q20 0 43.5 -10t40 -35.5t16.5 -55.5
t-17.5 -55.5t-42.5 -36t-46 -10.5z" />
    <glyph glyph-name="uni1EF8" unicode="&#x1ef8;" horiz-adv-x="494" 
d="M473 713l-188 -456v-257h-77v259l-187 454h83l143 -358l143 358h83zM365 882l47 -46q-26 -25 -51 -40.5t-51 -15.5q-14 0 -29 5.5t-46.5 21.5t-46.5 16q-11 0 -22.5 -6.5t-33.5 -26.5l-47 45q26 26 50.5 41.5t51.5 15.5q23 0 65.5 -21.5t56.5 -21.5q22 0 56 33z" />
    <glyph glyph-name="uni1EF9" unicode="&#x1ef9;" horiz-adv-x="440" 
d="M220 72h6l126 455h77l-178 -627q-19 -68 -53 -97t-110 -29h-36v73h51q30 0 50 12.5t28 43.5l27 97h-41l-150 527h78zM339 702l47 -46q-26 -25 -51 -40.5t-51 -15.5q-14 0 -29 5.5t-46.5 21.5t-46.5 16q-11 0 -22.5 -6.5t-33.5 -26.5l-47 45q26 26 50.5 41.5t51.5 15.5
q23 0 65.5 -21.5t56.5 -21.5q22 0 56 33z" />
    <glyph glyph-name="endash" unicode="&#x2013;" horiz-adv-x="574" 
d="M499 247h-424v71h424v-71z" />
    <glyph glyph-name="emdash" unicode="&#x2014;" horiz-adv-x="818" 
d="M743 247h-668v71h668v-71z" />
    <glyph glyph-name="afii00208" unicode="&#x2015;" horiz-adv-x="574" 
d="M621 247h-668v71h668v-71z" />
    <glyph glyph-name="quoteleft" unicode="&#x2018;" horiz-adv-x="250" 
d="M124 747h68l-42 -201h-83z" />
    <glyph glyph-name="quoteright" unicode="&#x2019;" horiz-adv-x="249" 
d="M125 546h-68l40 201h83z" />
    <glyph glyph-name="quotesinglbase" unicode="&#x201a;" horiz-adv-x="250" 
d="M125 -110h-68l41 201h83z" />
    <glyph glyph-name="quotedblleft" unicode="&#x201c;" horiz-adv-x="397" 
d="M272 747h67l-41 -201h-83zM123 747h69l-41 -201h-84z" />
    <glyph glyph-name="quotedblright" unicode="&#x201d;" horiz-adv-x="398" 
d="M125 546h-68l41 201h83zM273 546h-69l41 201h84z" />
    <glyph glyph-name="quotedblbase" unicode="&#x201e;" horiz-adv-x="398" 
d="M125 -110h-68l41 201h83zM273 -110h-69l41 201h84z" />
    <glyph glyph-name="dagger" unicode="&#x2020;" horiz-adv-x="439" 
d="M255 -55h-71v519h-113v70h113v224h71v-224h113v-70h-113v-519z" />
    <glyph glyph-name="daggerdbl" unicode="&#x2021;" horiz-adv-x="439" 
d="M255 -55h-71v223h-113v70h113v227h-113v70h113v223h71v-223h113v-70h-113v-227h113v-70h-113v-223z" />
    <glyph glyph-name="bullet" unicode="&#x2022;" horiz-adv-x="370" 
d="M295 349q0 -21 -11 -47t-38.5 -44.5t-60.5 -18.5q-21 0 -47 11t-44.5 38.5t-18.5 60.5q0 21 11 47t38.5 45t60.5 19t60.5 -19t38.5 -45t11 -47z" />
    <glyph glyph-name="ellipsis" unicode="&#x2026;" horiz-adv-x="657" 
d="M586 0h-96v106h96v-106zM376 0h-95v106h95v-106zM167 0h-96v106h96v-106z" />
    <glyph glyph-name="perthousand" unicode="&#x2030;" horiz-adv-x="1145" 
d="M1070 129q0 -58 -36.5 -93.5t-96.5 -35.5q-59 0 -95.5 35.5t-36.5 93.5v102q0 36 14.5 64t44.5 47t73 19q28 0 60 -11.5t52.5 -42.5t20.5 -76v-102zM998 129v102q0 18 -7 32t-22 20.5t-32 6.5q-28 0 -44 -15.5t-16 -43.5v-102q0 -31 17.5 -44.5t42.5 -13.5q29 0 45 15.5
t16 42.5zM340 482q0 -58 -36.5 -93.5t-96.5 -35.5q-59 0 -95.5 35.5t-36.5 93.5v102q0 36 14.5 64t44.5 47t73 19q28 0 60 -11.5t52.5 -42.5t20.5 -76v-102zM268 482v102q0 18 -7 32t-22 20.5t-32 6.5q-28 0 -44 -15.5t-16 -43.5v-102q0 -31 17.5 -44.5t42.5 -13.5
q29 0 45 15.5t16 42.5zM574 759l-264 -811h-72l266 811h70zM744 129q0 -58 -36.5 -93.5t-96.5 -35.5q-59 0 -95.5 35.5t-36.5 93.5v102q0 36 14.5 64t44.5 47t73 19q28 0 60 -11.5t52.5 -42.5t20.5 -76v-102zM672 129v102q0 18 -7 32t-22 20.5t-32 6.5q-28 0 -44 -15.5
t-16 -43.5v-102q0 -31 17.5 -44.5t42.5 -13.5q29 0 45 15.5t16 42.5z" />
    <glyph glyph-name="guilsinglleft" unicode="&#x2039;" horiz-adv-x="289" 
d="M224 65l-199 199l199 200v-99l-100 -101l100 -101v-98z" />
    <glyph glyph-name="guilsinglright" unicode="&#x203a;" horiz-adv-x="288" 
d="M263 264l-198 -199v98l101 101l-101 101v99z" />
    <glyph glyph-name="fraction" unicode="&#x2044;" horiz-adv-x="551" 
d="M483 703l-328 -703h-80l330 703h78z" />
    <glyph glyph-name="dong" unicode="&#x20ab;" 
d="M452 573v-573h-75v41q-7 -10 -23.5 -22t-43.5 -20.5t-51 -8.5q-87 0 -140 52t-53 138v165q0 87 52.5 138t140.5 51q35 0 67.5 -14t50.5 -38v91h-149v69h149v70h75v-70h73v-69h-73zM141 345v-165q0 -53 32 -85t86 -32q26 0 46 6t35 18t26 36t11 57v165q0 40 -18 68t-46 38
t-54 10q-42 0 -67.5 -15t-38 -41t-12.5 -60zM422 -147h-305v69h305v-69z" />
    <glyph glyph-name="Euro" unicode="&#x20ac;" horiz-adv-x="539" 
d="M314 719q88 0 136.5 -55t52.5 -138h-76q-1 35 -15 63.5t-42 41t-56 12.5q-51 0 -83 -28.5t-32 -86.5v-61h188v-72h-188v-71h188v-72h-188v-68q0 -59 32 -88t83 -29q47 0 78.5 29t34.5 86h76q-5 -86 -54 -138.5t-139 -52.5q-41 0 -73.5 12t-57 34t-41 61t-16.5 85v69h-81
v72h81v71h-81v72h81v64q0 55 25.5 100t68 66.5t98.5 21.5z" />
    <glyph glyph-name="afii61352" unicode="&#x2116;" horiz-adv-x="870" 
d="M812 484q0 -58 -36.5 -94t-96.5 -36q-28 0 -60 11.5t-52 42.5t-20 76v105q0 36 14.5 64t44.5 47t73 19q61 0 97 -35t36 -95v-105zM743 484v105q0 33 -19 47.5t-45 14.5q-29 0 -46 -17t-17 -45v-105q0 -18 7.5 -33.5t23 -22t32.5 -6.5q29 0 46.5 17t17.5 45zM483 0h-93
l-238 560v-560h-77v713h91l240 -568v568h77v-713z" />
    <glyph glyph-name="uni2117" unicode="&#x2117;" horiz-adv-x="857" 
d="M454 292h-60v-154h-65v403h125q33 0 60.5 -14t40.5 -43.5t13 -55.5v-23q0 -26 -11.5 -52.5t-36.5 -43.5t-66 -17zM503 405v21q0 14 -6 26.5t-18.5 18t-24.5 5.5h-60v-120h61q25 0 36.5 14t11.5 35zM77 348q0 71 27.5 136t76 114t113 76.5t135.5 27.5t135.5 -27.5
t113 -76.5t76 -114t27.5 -136t-27.5 -136t-76 -114t-113 -76.5t-135.5 -27.5t-135.5 27.5t-113 76.5t-76 114t-27.5 136zM148 348q0 -57 21.5 -109t60 -91.5t90 -61.5t108.5 -22q27 0 62.5 7.5t72 27t70 54t55.5 86.5t22 109q0 27 -7 62.5t-26.5 72t-53.5 71t-86 56.5
t-109 22t-108.5 -22t-90 -61.5t-60 -91.5t-21.5 -109z" />
    <glyph glyph-name="trademark" unicode="&#x2122;" horiz-adv-x="687" 
d="M612 316h-65v242l-45 -145h-51l-45 144v-241h-65v386h88l48 -172l46 172h89v-386zM326 638h-93v-322h-66v322h-92v64h251v-64z" />
    <glyph glyph-name="uni2126" unicode="&#x2126;" horiz-adv-x="529" 
d="M281 0v64q31 5 56.5 19t40.5 38t15 61v348q0 59 -36.5 88t-91.5 29t-91.5 -29t-36.5 -88v-348q0 -37 15 -61.5t40 -38t57 -18.5v-64h-224v65h77q-15 20 -26.5 51t-11.5 66v350q0 25 10 57t33 61.5t63 49t95 19.5q41 0 79 -13.5t65 -41.5t41.5 -63.5t14.5 -69.5v-350
q0 -26 -9.5 -57.5t-28.5 -58.5h77v-65h-223z" />
    <glyph glyph-name="partialdiff" unicode="&#x2202;" horiz-adv-x="526" 
d="M386 180v77q0 58 -35 87t-87 29t-88 -29t-36 -87v-77q0 -26 10 -52t41 -44.5t73 -18.5q29 0 57 11t46.5 36.5t18.5 67.5zM461 532v-357q0 -26 -10 -57t-32.5 -60t-61.5 -48t-93 -19q-41 0 -79.5 13t-67.5 44t-40.5 67.5t-11.5 61.5v81q0 26 9.5 58t32 62t61 49.5
t92.5 19.5q35 0 72 -16t54 -37v136q0 58 -34.5 86.5t-88.5 28.5v75q27 0 63 -8t69.5 -36t49.5 -68.5t16 -75.5z" />
    <glyph glyph-name="uni2206" unicode="&#x2206;" horiz-adv-x="532" 
d="M513 0h-494l185 713h123zM257 641l-146 -568h308l-145 568h-17z" />
    <glyph glyph-name="product" unicode="&#x220f;" horiz-adv-x="554" 
d="M483 0h-76v629h-260v-629h-76v703h412v-703z" />
    <glyph glyph-name="summation" unicode="&#x2211;" horiz-adv-x="553" 
d="M488 646h-320l262 -254v-61l-263 -263h321v-68h-423v62l300 300l-300 290v62h423v-68z" />
    <glyph glyph-name="minus" unicode="&#x2212;" horiz-adv-x="555" 
d="M465 247h-375v71h375v-71z" />
    <glyph glyph-name="radical" unicode="&#x221a;" horiz-adv-x="605" 
d="M275 -144h6l234 848h79l-257 -920h-118l-148 526h79z" />
    <glyph glyph-name="infinity" unicode="&#x221e;" horiz-adv-x="844" 
d="M442 181l-20 34l-20 -34q-18 -29 -46 -52t-57 -32.5t-51 -9.5q-77 0 -127 54.5t-50 139.5q0 84 50 138.5t127 54.5q23 0 51.5 -9.5t56.5 -32.5t46 -52l20 -32l20 32q18 30 45.5 53t56.5 32t52 9q77 0 127 -54.5t50 -138.5q0 -85 -50 -139.5t-127 -54.5q-22 0 -51 9.5
t-57 32.5t-46 52zM501 335l-37 -54l37 -55q43 -65 92 -65t78 34.5t29 85.5q0 50 -29 84.5t-78 34.5t-92 -65zM251 400q-36 0 -62 -20t-35.5 -48t-9.5 -51q0 -51 29 -85.5t78 -34.5t92 65l37 55l-37 54q-43 65 -92 65z" />
    <glyph glyph-name="integral" unicode="&#x222b;" horiz-adv-x="289" 
d="M166 -79q0 -44 -15 -74.5t-44 -46.5t-67 -16h-29v75h24q24 0 39.5 13.5t15.5 43.5v638q0 70 35.5 109.5t105.5 39.5h47v-74h-56q-16 0 -30 -8t-20 -23.5t-6 -31.5v-645z" />
    <glyph glyph-name="approxequal" unicode="&#x2248;" horiz-adv-x="536" 
d="M410 419l51 -40q-31 -30 -57.5 -48t-63.5 -18q-25 0 -73 22.5t-75 22.5q-17 0 -31 -7.5t-38 -32.5l-48 40q30 30 56.5 48.5t62.5 18.5q26 0 73.5 -23t74.5 -23q16 0 30 8t38 32zM410 282l51 -40q-31 -30 -57.5 -48t-63.5 -18q-25 0 -73 22.5t-75 22.5q-17 0 -31 -7.5
t-38 -32.5l-48 40q30 30 56.5 48.5t62.5 18.5q26 0 73.5 -23t74.5 -23q16 0 30 8t38 32z" />
    <glyph glyph-name="notequal" unicode="&#x2260;" horiz-adv-x="558" 
d="M472 186h-201l-116 -251h-80l118 251h-103v71h135l34 70h-169v71h202l113 240h78l-113 -240h102v-71h-134l-34 -70h168v-71z" />
    <glyph glyph-name="lessequal" unicode="&#x2264;" horiz-adv-x="479" 
d="M404 115h-103l-263 265l261 261h103l-260 -261zM431 0h-376v71h376v-71z" />
    <glyph glyph-name="greaterequal" unicode="&#x2265;" horiz-adv-x="480" 
d="M442 380l-265 -265h-103l263 265l-260 261h103zM424 0h-376v71h376v-71z" />
    <glyph glyph-name="lozenge" unicode="&#x25ca;" horiz-adv-x="531" 
d="M65 356l157 358h85l159 -358l-159 -356h-85zM141 356l125 -286l123 286l-124 287z" />
    <glyph glyph-name="uniFB01" unicode="&#xfb01;" horiz-adv-x="575" 
d="M417 452h-237v-452h-75v452h-91v73h91v39q0 70 35.5 109.5t105.5 39.5h47v-73h-56q-15 0 -29.5 -8t-21 -24t-6.5 -32v-51h312v-525h-75v452zM500 612h-91v108h91v-108z" />
    <glyph glyph-name="uniFB02" unicode="&#xfb02;" horiz-adv-x="574" 
d="M408 525v188h75v-581q0 -30 16 -44.5t40 -14.5h24v-73h-29q-25 0 -55 10.5t-50.5 42t-20.5 83.5v316h-227v-452h-75v452h-91v73h91v39q0 70 35.5 109.5t105.5 39.5h47v-73h-56q-15 0 -29.5 -8t-21 -24t-6.5 -32v-51h227z" />
    <glyph glyph-name="glyph550" horiz-adv-x="441" 
d="M359 574h-78l-59 58l-58 -58h-78l106 111h59zM358 805l-89 -83h-70l76 83h83z" />
    <glyph glyph-name="glyph551" horiz-adv-x="441" 
d="M358 574h-78l-59 58l-58 -58h-78l106 111h59zM180 722l-89 83h82l77 -83h-70z" />
    <glyph glyph-name="glyph552" horiz-adv-x="441" 
d="M200 805l-40 31q12 12 28.5 19.5t31.5 7.5q35 0 58.5 -23t23.5 -56q0 -31 -23 -54.5t-56 -26.5v53q12 1 19.5 9t7.5 19t-8 19.5t-23 8.5q-4 0 -10 -2t-9 -5zM359 574h-78l-59 58l-58 -58h-78l106 111h59z" />
    <glyph glyph-name="glyph553" horiz-adv-x="441" 
d="M308 802l37 -33q-18 -22 -37 -34t-43 -12q-7 0 -13.5 1t-13 3t-14.5 5.5t-10 4.5q-1 1 -15 7t-25 6q-24 0 -46 -24l-35 32q17 20 35.5 32.5t43.5 12.5q17 0 53 -15q28 -11 31 -11.5t7 -0.5q24 0 45 26zM357 574h-78l-58 58l-59 -58h-78l107 111h59z" />
    <glyph glyph-name="glyph554" horiz-adv-x="426" 
d="M213 575q-48 0 -81.5 34.5t-33.5 83.5h60q0 -27 15 -43.5t40 -16.5t40.5 16.5t15.5 43.5h60q0 -23 -11.5 -50.5t-40.5 -47.5t-64 -20zM328 801l-89 -82h-70l77 82h82z" />
    <glyph glyph-name="glyph555" horiz-adv-x="426" 
d="M189 719l-89 82h83l76 -82h-70zM212 575q-48 0 -81.5 34.5t-33.5 83.5h60q0 -27 15 -43.5t40 -16.5t40.5 16.5t15.5 43.5h60q0 -23 -11.5 -50.5t-40.5 -47.5t-64 -20z" />
    <glyph glyph-name="glyph556" horiz-adv-x="426" 
d="M213 575q-48 0 -81.5 34.5t-33.5 83.5h60q0 -27 15 -43.5t40 -16.5t40.5 16.5t15.5 43.5h60q0 -23 -11.5 -50.5t-40.5 -47.5t-64 -20zM189 802l-40 32q12 12 28.5 19.5t31.5 7.5q35 0 58.5 -23t23.5 -56q0 -31 -23.5 -55t-55.5 -26v52q12 2 19.5 10t7.5 19t-8 19.5
t-23 8.5q-2 0 -8 -1.5t-11 -6.5z" />
    <glyph glyph-name="glyph557" horiz-adv-x="427" 
d="M213 575q-48 0 -81.5 34.5t-33.5 83.5h60q0 -27 15 -43.5t40 -16.5t40.5 16.5t15.5 43.5h60q0 -23 -11.5 -50.5t-40.5 -47.5t-64 -20zM303 816l37 -33q-18 -22 -37 -34t-43 -12q-7 0 -13.5 1t-13 3t-14.5 5.5t-10 4.5q-1 1 -15 7t-25 6q-24 0 -46 -24l-35 32
q17 20 35.5 32.5t43.5 12.5q17 0 53 -15q28 -11 31 -11.5t7 -0.5q24 0 45 26z" />
    <glyph glyph-name="glyph642" horiz-adv-x="447" 
d="M361 801h-275v48h275v-48zM372 616h-88v103h88v-103zM163 616h-88v103h88v-103z" />
    <glyph glyph-name="glyph643" horiz-adv-x="443" 
d="M331 840l-89 -83h-70l76 83h83zM372 616h-88v103h88v-103zM163 616h-88v103h88v-103z" />
    <glyph glyph-name="glyph644" horiz-adv-x="443" 
d="M86 868h78l59 -58l58 58h78l-106 -111h-59zM372 616h-88v103h88v-103zM163 616h-88v103h88v-103z" />
    <glyph glyph-name="glyph645" horiz-adv-x="443" 
d="M187 757l-89 83h82l77 -83h-70zM372 616h-88v103h88v-103zM163 616h-88v103h88v-103z" />
    </font>
</defs>
</svg>
