<?xml version="1.0" encoding="UTF-8"?>
<svg width="86px" height="52px" viewBox="0 0 86 52" version="1.1" xmlns="http://www.w3.org/2000/svg" xmlns:xlink="http://www.w3.org/1999/xlink">
    <title>Group 7</title>
    <g id="WEB-2.0" stroke="none" stroke-width="1" fill="none" fill-rule="evenodd">
        <g id="Home" transform="translate(-375.000000, -30.000000)">
            <g id="Group-7" transform="translate(375.000000, 30.000000)">
                <polygon id="Fill-1" fill="#FFFFFF" points="50.3639453 38.8388895 50.3639453 13.1352135 56.045256 13.1352135 56.045256 34.0680158 61.9459523 34.0680158 61.9459523 38.8388895"></polygon>
                <polygon id="Fill-2" fill="#FFFFFF" points="63.1513753 38.8389313 68.8298983 38.8389313 68.8298983 13.1352554 63.1513753 13.1352554"></polygon>
                <polygon id="Fill-3" fill="#FFFFFF" points="80.7288578 13.1352554 78.4435662 20.0856304 75.6209608 13.1352554 70.2572995 13.1352554 75.016744 25.0038298 70.0354049 38.8389313 74.732546 38.8389313 77.4931269 31.160151 80.6332424 38.8389313 85.965961 38.8389313 80.9510312 26.4950675 85.4572202 13.1352554"></polygon>
                <polygon id="Fill-4" fill="#FFFFFF" points="51.4550341 18.5245766 51.4550341 13.1352693 36.7496373 13.1352693 36.7496373 38.8389452 42.430948 38.8389452 42.430948 28.1726717 48.1666172 28.1726717 48.1666172 23.4016586 42.430948 23.4016586 42.430948 18.5245766"></polygon>
                <path d="M13.0572856,0 L13.0572856,22.3381813 L7.40859016,22.3381813 L7.40859016,28.1414503 L13.0572856,28.1414503 L13.0572856,52 L13.652582,51.641512 L35.7666386,38.8739298 L35.7666386,13.109902 L19.1274693,3.50334246 L19.1274693,3.47407245 L13.6548121,0.343713647 L13.0572856,0 Z M19.8444454,10.9755601 L29.733809,16.6405631 L29.733809,35.3431293 L19.5050526,41.0415838 L19.8444454,10.9755601 Z" id="Fill-5" fill="#EA001E"></path>
                <path d="M5.32310134,9.92931022 L5.32310134,12.554134 L2.62761138,12.554134 L2.62761138,9.93892752 L0,9.93892752 L0,42.0875828 L8.01092533,42.0875828 L8.01092533,41.6019792 L8.01092533,10.3683605 L8.01092533,9.92931022 L5.32310134,9.92931022 Z M2.66064469,17.929782 L5.31153271,17.929782 L5.31153271,15.2882325 L2.66064469,15.2882325 L2.66064469,17.929782 Z M2.67904299,23.2888436 L5.31780486,23.2888436 L5.31780486,20.6642986 L2.67904299,20.6642986 L2.67904299,23.2888436 Z M2.67277084,28.662819 L5.30930261,28.662819 L5.30930261,26.0113735 L2.67277084,26.0113735 L2.67277084,28.662819 Z M2.67207394,34.0310798 L5.30986014,34.0310798 L5.30986014,31.3796343 L2.67207394,31.3796343 L2.67207394,34.0310798 Z M2.65813583,39.3979468 L5.30916323,39.3979468 L5.30916323,36.7611363 L2.65813583,36.7611363 L2.65813583,39.3979468 Z" id="Fill-6" fill="#EA001E"></path>
            </g>
        </g>
    </g>
</svg>