<?xml version="1.0" standalone="no"?>
<!DOCTYPE svg PUBLIC "-//W3C//DTD SVG 1.1//EN" "http://www.w3.org/Graphics/SVG/1.1/DTD/svg11.dtd" >
<svg xmlns="http://www.w3.org/2000/svg" xmlns:xlink="http://www.w3.org/1999/xlink" version="1.1">
<metadata>
Created by FontForge 20170910 at Wed Feb 11 15:24:30 2015
 By Jimmy Wärting
Copyright (c) 2014 by Aakash Soneri. All rights reserved. Vietnamese by VietLinh
</metadata>
<defs>
<font id="VLAmple" horiz-adv-x="522" >
  <font-face 
    font-family="VL Ample 4"
    font-weight="400"
    font-stretch="normal"
    units-per-em="1000"
    panose-1="2 0 0 0 0 0 0 0 0 0"
    ascent="766"
    descent="-234"
    x-height="488"
    cap-height="650"
    bbox="-30 -230 978 932"
    underline-thickness="50"
    underline-position="-100"
    stemh="30"
    stemv="28"
    unicode-range="U+0020-FB02"
  />
<missing-glyph horiz-adv-x="184" 
 />
    <glyph glyph-name=".notdef" horiz-adv-x="184" 
 />
    <glyph glyph-name="NULL" horiz-adv-x="0" 
 />
    <glyph glyph-name="nonmarkingreturn" horiz-adv-x="333" 
 />
    <glyph glyph-name="space" unicode=" " horiz-adv-x="300" 
 />
    <glyph glyph-name="exclam" unicode="!" horiz-adv-x="232" 
d="M98 400v250h38v-250c0 -115 -2 -202 -7 -259h-24c-5 57 -7 144 -7 259zM91 6c-13 13 -13 37 0 50s37 13 50 0s13 -37 0 -50s-37 -13 -50 0z" />
    <glyph glyph-name="quotedbl" unicode="&#x22;" horiz-adv-x="223" 
d="M178 514h-28v209h28v-209zM73 514h-28v209h28v-209z" />
    <glyph glyph-name="numbersign" unicode="#" horiz-adv-x="623" 
d="M360 0h-37l41 167h-183l-41 -167h-37l41 167h-108v35h117l61 246h-133v35h142l42 167h37l-42 -167h183l42 167h37l-42 -167h107v-35h-116l-61 -246h132v-35h-141zM434 448h-183l-61 -246h183z" />
    <glyph glyph-name="dollar" unicode="$" horiz-adv-x="483" 
d="M51 29v39c46 -24 105 -36 177 -36c112 0 167 30 167 105c0 63 -33 94 -100 138l-143 94c-59 39 -97 80 -97 152c0 84 54 128 161 133v79h34v-78c55 -1 107 -12 154 -34v-39c-43 24 -99 36 -166 36c-104 0 -146 -31 -146 -98c0 -56 26 -86 81 -122l144 -96
c75 -49 115 -89 115 -164c0 -92 -69 -138 -182 -142v-79h-34v78c-62 1 -117 12 -165 34z" />
    <glyph glyph-name="percent" unicode="%" horiz-adv-x="705" 
d="M165 0l337 650h39l-338 -650h-38zM194 656c93 0 139 -52 139 -157s-46 -157 -139 -157s-139 52 -139 157s46 157 139 157zM274 404c16 19 24 51 24 95s-8 76 -24 95c-17 19 -43 29 -80 29s-63 -10 -79 -29c-17 -19 -25 -51 -25 -95s8 -76 25 -95c16 -19 42 -29 79 -29
s63 10 80 29zM511 308c93 0 139 -52 139 -157s-46 -157 -139 -157s-139 52 -139 157s46 157 139 157zM591 56c16 19 24 51 24 95s-8 76 -24 95c-17 19 -43 29 -80 29s-63 -10 -79 -29c-17 -19 -25 -51 -25 -95s8 -76 25 -95c16 -19 42 -29 79 -29s63 10 80 29z" />
    <glyph glyph-name="ampersand" unicode="&#x26;" horiz-adv-x="589" 
d="M570 360v-33h-78v-112c0 -149 -70 -223 -209 -223c-59 0 -103 8 -147 32c-44 23 -70 74 -70 146c0 100 53 158 138 174c-79 13 -116 67 -116 146c0 117 64 168 196 168c39 0 73 -4 104 -12v-37c-29 9 -64 14 -103 14c-107 0 -160 -44 -160 -131c0 -85 39 -132 155 -132
h175v91h37v-91h78zM104 171c0 -79 34 -115 81 -130c34 -12 59 -14 99 -14c47 0 77 6 114 30c36 23 57 77 57 158v112h-175c-112 0 -176 -39 -176 -156z" />
    <glyph glyph-name="quotesingle" unicode="'" horiz-adv-x="118" 
d="M73 514h-28v209h28v-209z" />
    <glyph glyph-name="parenleft" unicode="(" horiz-adv-x="299" 
d="M278 -200l-22 -20c-130 119 -195 276 -195 470s65 351 195 470l22 -20c-111 -97 -185 -254 -185 -450s74 -350 185 -450z" />
    <glyph glyph-name="parenright" unicode=")" horiz-adv-x="299" 
d="M21 700l22 20c130 -119 195 -276 195 -470s-65 -351 -195 -470l-22 20c111 100 185 254 185 450s-74 353 -185 450z" />
    <glyph glyph-name="asterisk" unicode="*" horiz-adv-x="444" 
d="M207 720h28v-161l155 50l9 -27l-155 -50l96 -132l-23 -17l-96 132l-95 -131l-23 16l95 131l-153 50l8 27l154 -50v162z" />
    <glyph glyph-name="plus" unicode="+" horiz-adv-x="550" 
d="M291 325h198v-30h-198v-198h-32v198h-198v30h198v198h32v-198z" />
    <glyph glyph-name="comma" unicode="," horiz-adv-x="170" 
d="M45 -135l-15 5c2 20 8 49 17 88s16 65 21 78c7 20 17 30 30 30s22 -11 22 -26c0 -11 -10 -38 -29 -81s-35 -75 -46 -94z" />
    <glyph glyph-name="hyphen" unicode="-" horiz-adv-x="342" 
d="M23 325h296v-30h-296v30z" />
    <glyph glyph-name="period" unicode="." horiz-adv-x="178" 
d="M64 6c-13 13 -13 37 0 50s37 13 50 0s13 -37 0 -50s-37 -13 -50 0z" />
    <glyph glyph-name="slash" unicode="/" horiz-adv-x="256" 
d="M-9 -30l240 750h34l-240 -750h-34z" />
    <glyph glyph-name="zero" unicode="0" horiz-adv-x="532" 
d="M442 225v198c0 144 -55 200 -176 200c-120 0 -176 -56 -176 -200v-198c0 -145 56 -198 176 -198c123 0 176 53 176 198zM51 225v198c0 167 66 235 215 235c151 0 215 -67 215 -235v-198c0 -165 -64 -233 -215 -233c-149 0 -215 68 -215 233z" />
    <glyph glyph-name="one" unicode="1" horiz-adv-x="298" 
d="M105 589l-79 -101l-26 25l80 102c23 29 49 43 78 43c48 0 69 -25 69 -97v-561h-37v544c0 65 -2 79 -34 79c-17 0 -34 -11 -51 -34z" />
    <glyph glyph-name="two" unicode="2" horiz-adv-x="470" 
d="M419 500c0 -61 -33 -120 -98 -175l-201 -168c-31 -26 -47 -52 -47 -77c0 -30 24 -45 71 -45h275v-35h-275c-72 0 -108 31 -108 79c0 39 20 74 60 107l199 164c65 53 87 94 87 146c0 85 -47 127 -163 127c-69 0 -125 -13 -170 -39v40c49 23 107 34 173 34
c131 0 197 -53 197 -158z" />
    <glyph glyph-name="three" unicode="3" horiz-adv-x="462" 
d="M217 322h-48v35h48c116 0 152 47 152 130c0 89 -39 136 -163 136c-53 0 -109 -10 -167 -29v40c59 16 115 24 167 24c147 0 200 -59 200 -171c0 -81 -32 -124 -99 -149c67 -15 109 -72 109 -161c0 -123 -70 -185 -210 -185c-63 0 -123 8 -178 24v38
c51 -18 111 -27 178 -27c128 0 173 49 173 150c0 84 -49 145 -162 145z" />
    <glyph glyph-name="four" unicode="4" horiz-adv-x="459" 
d="M78 299l117 351h38l-123 -374c-20 -61 -2 -86 65 -86h220v300h37v-490h-37v155h-209c-105 0 -141 45 -108 144z" />
    <glyph glyph-name="five" unicode="5" horiz-adv-x="459" 
d="M47 425v125c0 69 29 100 100 100h246v-35h-249c-43 0 -60 -19 -60 -60v-135c0 -43 17 -60 60 -60h58c151 0 221 -55 221 -179s-62 -187 -213 -187c-60 0 -118 8 -174 24v39c51 -19 111 -28 178 -28c128 0 172 50 172 151c0 112 -54 145 -185 145h-54
c-71 0 -100 29 -100 100z" />
    <glyph glyph-name="six" unicode="6" horiz-adv-x="495" 
d="M257 383c141 0 202 -63 202 -191c0 -132 -66 -198 -198 -198c-155 0 -210 83 -210 242v202c0 151 63 220 222 220c59 0 112 -11 161 -32v-39c-45 24 -100 36 -166 36c-136 0 -180 -58 -180 -185v-78c55 15 111 23 169 23zM255 348c-61 0 -117 -7 -167 -22v-90
c0 -69 12 -120 37 -155s71 -52 139 -52c112 0 158 49 158 161c0 111 -47 158 -167 158z" />
    <glyph glyph-name="seven" unicode="7" horiz-adv-x="469" 
d="M380 464l-219 -464h-40l225 478c19 39 28 69 28 88c0 35 -24 49 -80 49h-268v35h267c78 0 117 -28 117 -84c0 -25 -10 -59 -30 -102z" />
    <glyph glyph-name="eight" unicode="8" horiz-adv-x="524" 
d="M262 658c143 0 196 -58 196 -169c0 -79 -24 -121 -93 -148c80 -25 113 -77 113 -164c0 -123 -73 -185 -218 -185c-153 0 -214 67 -214 184c0 88 35 140 118 165c-72 27 -98 69 -98 148c0 111 52 169 196 169zM83 177c0 -103 48 -150 179 -150s179 47 179 150
c0 99 -55 146 -179 146s-179 -47 -179 -146zM103 488c0 -92 47 -133 159 -133c56 0 97 11 122 32s37 54 37 100s-11 80 -33 103c-22 22 -64 33 -127 33c-123 0 -158 -42 -158 -135z" />
    <glyph glyph-name="nine" unicode="9" horiz-adv-x="495" 
d="M244 269c-148 0 -208 60 -208 191c0 132 66 198 198 198c155 0 210 -83 210 -242v-204c0 -151 -63 -220 -222 -220c-55 0 -109 11 -161 32v39c45 -24 100 -36 166 -36c136 0 180 58 180 185v80c-43 -15 -97 -23 -163 -23zM251 304c64 0 116 7 156 22v90
c0 69 -12 120 -37 155s-71 52 -139 52c-112 0 -158 -49 -158 -161c0 -116 46 -158 178 -158z" />
    <glyph glyph-name="colon" unicode=":" horiz-adv-x="178" 
d="M64 6c-13 13 -13 37 0 50s37 13 50 0s13 -37 0 -50s-37 -13 -50 0zM64 432c-13 13 -13 37 0 50s37 13 50 0s13 -37 0 -50s-37 -13 -50 0z" />
    <glyph glyph-name="semicolon" unicode=";" horiz-adv-x="170" 
d="M60 432c-13 13 -13 37 0 50s37 13 50 0s13 -37 0 -50s-37 -13 -50 0zM45 -135l-15 5c2 20 8 49 17 88s16 65 21 78c7 20 17 30 30 30s22 -11 22 -26c0 -11 -10 -38 -29 -81s-35 -75 -46 -94z" />
    <glyph glyph-name="less" unicode="&#x3c;" horiz-adv-x="419" 
d="M77 282l291 -148v-36l-289 148c-39 20 -58 46 -58 79c0 32 11 55 58 79l289 150v-36l-291 -150c-17 -9 -26 -23 -26 -43s9 -34 26 -43z" />
    <glyph glyph-name="equal" unicode="=" horiz-adv-x="530" 
d="M61 224h408v-30h-408v30zM61 457h408v-30h-408v30z" />
    <glyph glyph-name="greater" unicode="&#x3e;" horiz-adv-x="419" 
d="M340 246l-289 -148v36l291 148c17 9 26 23 26 43s-9 34 -26 43l-291 150v36l289 -150c47 -24 58 -47 58 -79c0 -33 -19 -59 -58 -79z" />
    <glyph glyph-name="question" unicode="?" horiz-adv-x="381" 
d="M78 6c-13 13 -13 37 0 50s37 13 50 0s13 -37 0 -50s-37 -13 -50 0zM335 481c0 -41 -13 -78 -25 -99c-6 -11 -16 -22 -30 -35s-24 -21 -31 -26s-20 -14 -38 -26c-61 -40 -91 -76 -91 -140h-31c-11 63 26 121 109 174c35 21 38 22 66 50c24 24 34 57 34 102
c0 105 -49 142 -150 142c-39 0 -76 -7 -111 -20v39c31 11 66 16 107 16c127 0 191 -53 191 -177z" />
    <glyph glyph-name="at" unicode="@" horiz-adv-x="898" 
d="M811 217v56c0 125 -42 220 -111 273c-69 52 -151 76 -250 76s-180 -23 -248 -75c-69 -52 -110 -147 -110 -274v-69c0 -117 32 -202 96 -256c64 -53 149 -80 254 -80c93 0 168 25 225 76l17 -24c-18 -20 -49 -38 -92 -55c-44 -17 -94 -25 -150 -25
c-213 0 -381 102 -381 363v70c0 275 183 377 389 377c107 0 197 -28 272 -85s120 -160 120 -292v-56c0 -117 -43 -175 -129 -175c-55 0 -98 33 -113 98c-23 -65 -75 -98 -156 -98c-112 0 -168 58 -168 175v56c0 105 51 175 174 175s174 -70 174 -175v-68
c0 -90 28 -135 85 -135c80 0 102 55 102 147zM593 217v56c0 98 -48 147 -143 147s-143 -49 -143 -147v-56c0 -101 38 -147 137 -147c51 0 89 15 113 44s36 64 36 103z" />
    <glyph glyph-name="A" unicode="A" horiz-adv-x="574" 
d="M553 0h-38l-66 233h-324l-66 -233h-38l155 543c13 47 28 78 43 93s37 22 68 22s54 -7 69 -22s29 -46 42 -93zM219 563l-84 -295h304l-84 295c-13 48 -32 62 -68 62s-55 -14 -68 -62z" />
    <glyph glyph-name="B" unicode="B" horiz-adv-x="577" 
d="M181 650h106c157 0 214 -55 214 -167c0 -92 -32 -139 -129 -147v-4c113 -5 149 -56 149 -155c0 -120 -55 -177 -214 -177h-126c-71 0 -100 31 -100 100v450c0 69 29 100 100 100zM307 315h-189v-220c0 -41 17 -60 60 -60h129c69 0 115 11 140 33c25 21 37 57 37 107
s-12 86 -37 108c-25 21 -71 32 -140 32zM287 615h-109c-43 0 -60 -19 -60 -60v-205h169c68 0 115 11 140 32s37 54 37 101c0 92 -41 132 -177 132z" />
    <glyph glyph-name="C" unicode="C" horiz-adv-x="516" 
d="M98 399v-160c0 -144 58 -212 194 -212c76 0 136 14 180 41v-38c-49 -25 -107 -38 -173 -38c-165 0 -238 79 -238 247v160c0 180 71 259 234 259c52 0 99 -10 121 -17c11 -4 26 -10 46 -19v-39c-57 27 -114 40 -172 40c-135 0 -192 -71 -192 -224z" />
    <glyph glyph-name="D" unicode="D" horiz-adv-x="592" 
d="M81 100v450c0 69 29 100 100 100h85c99 0 168 -19 207 -56s58 -105 58 -202v-134c0 -96 -19 -163 -58 -201s-108 -57 -207 -57h-85c-71 0 -100 31 -100 100zM178 35h88c89 0 150 16 181 48c31 31 47 90 47 175v134c0 84 -16 142 -47 175c-32 32 -92 48 -181 48h-88
c-43 0 -60 -19 -60 -60v-460c0 -41 17 -60 60 -60z" />
    <glyph glyph-name="E" unicode="E" horiz-adv-x="512" 
d="M431 325h-313v-230c0 -41 17 -60 60 -60h293v-35h-290c-71 0 -100 31 -100 100v450c0 69 29 100 100 100h290v-35h-293c-43 0 -60 -19 -60 -60v-195h313v-35z" />
    <glyph glyph-name="F" unicode="F" horiz-adv-x="502" 
d="M431 325h-313v-325h-37v550c0 69 29 100 100 100h290v-35h-293c-43 0 -60 -19 -60 -60v-195h313v-35z" />
    <glyph glyph-name="G" unicode="G" horiz-adv-x="559" 
d="M98 399v-160c0 -144 63 -212 214 -212c40 0 72 3 96 8c39 8 58 33 58 75v238h37v-219c0 -81 -24 -117 -96 -130c-26 -5 -55 -7 -88 -7c-179 0 -258 79 -258 247v160c0 179 77 259 252 259c61 0 120 -12 177 -36v-39c-57 27 -117 40 -182 40c-148 0 -210 -71 -210 -224z
" />
    <glyph glyph-name="H" unicode="H" horiz-adv-x="592" 
d="M474 325h-356v-325h-37v650h37v-290h356v290h37v-650h-37v325z" />
    <glyph glyph-name="I" unicode="I" horiz-adv-x="209" 
d="M123 0h-37v650h37v-650z" />
    <glyph glyph-name="J" unicode="J" horiz-adv-x="209" 
d="M86 650h37v-546c0 -157 -42 -239 -129 -292l-20 30c80 48 112 126 112 262v546z" />
    <glyph glyph-name="K" unicode="K" horiz-adv-x="505" 
d="M225 430l192 220h47l-222 -256c-21 -25 -32 -43 -32 -54s11 -30 32 -55l242 -285h-47l-212 248c-39 45 -51 64 -51 92c0 27 12 46 51 90zM118 0h-37v650h37v-650z" />
    <glyph glyph-name="L" unicode="L" horiz-adv-x="452" 
d="M81 100v550h37v-555c0 -41 17 -60 60 -60h253v-35h-250c-71 0 -100 31 -100 100z" />
    <glyph glyph-name="M" unicode="M" horiz-adv-x="758" 
d="M116 561l-43 -561h-37l40 541c7 91 42 115 101 115c55 0 86 -24 99 -115l70 -467c5 -33 14 -43 33 -43c17 0 28 14 32 43l71 467c13 91 44 115 99 115c59 0 94 -26 101 -115l40 -541h-37l-41 561c-4 48 -26 62 -63 62c-32 0 -50 -14 -58 -62l-74 -487
c-8 -49 -26 -74 -70 -74s-62 25 -70 74l-74 487c-8 48 -26 62 -58 62c-36 0 -57 -15 -61 -62z" />
    <glyph glyph-name="N" unicode="N" horiz-adv-x="602" 
d="M118 0h-37v576c0 53 22 80 65 80c39 0 66 -23 83 -70l178 -512c13 -37 28 -46 49 -46c19 0 28 15 28 45v577h37v-576c0 -53 -22 -80 -65 -80c-45 0 -65 23 -84 75l-177 507c-11 31 -27 46 -48 46c-19 0 -29 -15 -29 -46v-576z" />
    <glyph glyph-name="O" unicode="O" horiz-adv-x="602" 
d="M140 80c27 -35 81 -53 161 -53s134 18 162 53c27 35 41 92 41 170v150c0 78 -14 135 -41 170c-28 35 -82 53 -162 53s-134 -18 -161 -53c-28 -35 -42 -92 -42 -170v-150c0 -78 14 -135 42 -170zM301 -8c-91 0 -153 21 -188 63c-35 41 -52 106 -52 195v150
c0 89 18 154 53 196c35 41 97 62 187 62c91 0 153 -21 188 -62c35 -42 52 -107 52 -196v-150c0 -89 -17 -154 -52 -195c-35 -42 -98 -63 -188 -63z" />
    <glyph glyph-name="P" unicode="P" horiz-adv-x="562" 
d="M181 650h136c81 0 137 -16 168 -48s46 -82 46 -150c0 -132 -57 -198 -214 -198h-199v-254h-37v550c0 69 29 100 100 100zM317 615h-139c-43 0 -60 -19 -60 -60v-266h199c69 0 116 13 141 38c24 25 36 66 36 125c0 58 -12 100 -37 125s-71 38 -140 38z" />
    <glyph glyph-name="Q" unicode="Q" horiz-adv-x="602" 
d="M301 -8c-91 0 -153 21 -188 63c-35 41 -52 106 -52 195v150c0 89 18 154 53 196c35 41 97 62 187 62c91 0 153 -21 188 -62c35 -42 52 -107 52 -196v-150c0 -152 -44 -232 -168 -252l117 -118v-4h-44l-111 117c-7 0 -26 -1 -34 -1zM140 80c27 -35 81 -53 161 -53
s134 18 162 53c27 35 41 92 41 170v150c0 78 -14 135 -41 170c-28 35 -82 53 -162 53s-134 -18 -161 -53c-28 -35 -42 -92 -42 -170v-150c0 -78 14 -135 42 -170z" />
    <glyph glyph-name="R" unicode="R" horiz-adv-x="582" 
d="M509 0l-172 284h-219v-284h-37v550c0 69 29 100 100 100h146c79 0 132 -15 161 -44c29 -30 43 -76 43 -139c0 -109 -37 -168 -154 -181l174 -286h-42zM327 615h-149c-43 0 -60 -19 -60 -60v-236h209c67 0 112 11 134 34s33 61 33 114s-11 91 -33 114
c-23 23 -67 34 -134 34z" />
    <glyph glyph-name="S" unicode="S" horiz-adv-x="509" 
d="M57 26v39c49 -24 111 -36 187 -36c120 0 177 28 177 107c0 33 -8 58 -31 81c-24 23 -34 29 -69 52l-163 104c-37 24 -58 39 -80 81c-11 21 -17 44 -17 70c0 89 64 134 192 134c67 0 126 -11 177 -34v-39c-46 24 -105 36 -177 36c-111 0 -155 -29 -155 -98
c0 -40 20 -73 40 -89c9 -8 23 -18 41 -30l164 -106c19 -13 33 -22 42 -28c9 -7 20 -17 34 -31c28 -28 39 -59 39 -102c0 -97 -72 -145 -217 -145c-70 0 -131 11 -184 34z" />
    <glyph glyph-name="T" unicode="T" horiz-adv-x="541" 
d="M252 615h-221v35h479v-35h-221v-615h-37v615z" />
    <glyph glyph-name="U" unicode="U" horiz-adv-x="606" 
d="M71 192v458h37v-458c0 -120 60 -165 195 -165s195 45 195 165v458h37v-458c0 -141 -79 -200 -232 -200s-232 59 -232 200z" />
    <glyph glyph-name="V" unicode="V" horiz-adv-x="554" 
d="M21 650h38l150 -563c12 -48 31 -62 68 -62s56 14 68 62l150 563h38l-145 -543c-13 -47 -27 -77 -42 -92c-15 -16 -38 -23 -69 -23s-54 7 -69 23c-15 15 -29 45 -42 92z" />
    <glyph glyph-name="W" unicode="W" horiz-adv-x="879" 
d="M25 650h36l100 -563c8 -48 28 -62 60 -62s50 14 58 62l88 478c12 61 29 85 72 85s60 -24 72 -85l88 -478c8 -48 26 -62 58 -62s52 14 60 62l100 563h36l-99 -561c-13 -73 -44 -97 -97 -97s-82 24 -95 97l-87 477c-8 44 -16 54 -36 54s-28 -10 -36 -54l-87 -477
c-13 -73 -42 -97 -95 -97s-84 24 -97 97z" />
    <glyph glyph-name="X" unicode="X" horiz-adv-x="569" 
d="M214 265l-137 -265h-41l129 245c36 71 50 90 73 99c-24 9 -38 30 -73 98l-109 208h40l118 -228c25 -48 38 -62 70 -62s46 14 70 62l118 228h40l-109 -208c-35 -68 -49 -89 -73 -98c23 -9 37 -28 73 -99l129 -245h-41l-137 265c-25 49 -35 62 -70 62s-43 -11 -70 -62z" />
    <glyph glyph-name="Y" unicode="Y" horiz-adv-x="568" 
d="M303 0h-37v280c-23 3 -41 12 -54 27c-14 15 -33 44 -57 88l-139 255h41l150 -275c27 -51 40 -62 77 -62c36 0 50 14 77 62l150 275h41l-139 -255c-24 -44 -43 -73 -56 -88c-14 -15 -32 -24 -54 -27v-280z" />
    <glyph glyph-name="Z" unicode="Z" horiz-adv-x="530" 
d="M426 450l-308 -294c-30 -29 -45 -55 -45 -79c0 -28 17 -42 52 -42h369v-35h-368c-59 0 -89 33 -89 70c0 27 -1 35 19 67c10 16 25 34 45 53l308 294c27 26 40 50 40 73c0 39 -24 58 -71 58h-324v35h323c67 0 108 -35 108 -91c0 -35 -20 -72 -59 -109z" />
    <glyph glyph-name="bracketleft" unicode="[" horiz-adv-x="277" 
d="M152 -192h94v-28h-95c-49 0 -70 21 -70 70v800c0 49 21 70 70 70h95v-28h-94c-27 0 -40 -13 -40 -40v-804c0 -27 13 -40 40 -40z" />
    <glyph glyph-name="backslash" unicode="\" horiz-adv-x="256" 
d="M231 -30l-240 750h34l240 -750h-34z" />
    <glyph glyph-name="bracketright" unicode="]" horiz-adv-x="277" 
d="M126 -220h-95v28h94c27 0 40 13 40 40v804c0 27 -13 40 -40 40h-94v28h95c49 0 70 -21 70 -70v-800c0 -49 -21 -70 -70 -70z" />
    <glyph glyph-name="asciicircum" unicode="^" horiz-adv-x="400" 
d="M248 632l121 -269h-35l-112 252c-11 20 -19 31 -23 32c-8 0 -10 -3 -23 -32l-110 -252h-35l119 269c16 36 26 45 49 45s33 -9 49 -45z" />
    <glyph glyph-name="underscore" unicode="_" horiz-adv-x="450" 
d="M0 -24h450v-30h-450v30z" />
    <glyph glyph-name="grave" unicode="`" horiz-adv-x="216" 
d="M165 750h-34l-80 136h35z" />
    <glyph glyph-name="a" unicode="a" horiz-adv-x="472" 
d="M416 351v-203c0 -113 -63 -156 -203 -156c-45 0 -84 11 -117 34c-33 22 -50 58 -50 109c0 100 62 140 205 140h130v76c0 81 -51 112 -150 112c-54 0 -101 -7 -141 -20v36c39 11 86 17 140 17c124 0 186 -48 186 -145zM381 148v96h-127c-120 0 -173 -27 -173 -110
c0 -77 56 -109 132 -109c119 0 168 28 168 123z" />
    <glyph glyph-name="b" unicode="b" horiz-adv-x="542" 
d="M76 193v507h35v-289c25 57 82 85 170 85c149 0 205 -72 205 -201v-102c0 -129 -56 -201 -205 -201s-205 72 -205 201zM414 423c-25 27 -69 40 -133 40s-108 -13 -133 -40s-37 -70 -37 -128v-102c0 -116 42 -168 170 -168s170 52 170 168v102c0 58 -12 101 -37 128z" />
    <glyph glyph-name="c" unicode="c" horiz-adv-x="429" 
d="M91 295v-102c0 -124 51 -168 182 -168c48 0 89 8 123 25v-34c-36 -16 -78 -24 -127 -24c-145 0 -213 60 -213 201v102c0 129 61 201 212 201c45 0 84 -9 117 -26v-34c-36 18 -75 27 -116 27c-135 0 -178 -59 -178 -168z" />
    <glyph glyph-name="d" unicode="d" 
d="M431 700h35v-507c0 -129 -56 -201 -205 -201s-205 72 -205 201v102c0 129 56 201 205 201c88 0 145 -28 170 -85v289zM394 423c-25 27 -69 40 -133 40s-108 -13 -133 -40s-37 -70 -37 -128v-102c0 -116 42 -168 170 -168s170 52 170 168v102c0 58 -12 101 -37 128z" />
    <glyph glyph-name="e" unicode="e" horiz-adv-x="497" 
d="M446 308c0 -31 -2 -57 -6 -79h-349v-40c0 -120 50 -164 173 -164c64 0 119 10 165 30v-33c-49 -20 -103 -30 -163 -30c-143 0 -210 58 -210 202v102c0 133 65 200 196 200c123 0 194 -63 194 -188zM91 308v-46h322v46c0 103 -54 155 -161 155s-161 -52 -161 -155z" />
    <glyph glyph-name="f" unicode="f" horiz-adv-x="354" 
d="M94 455h-80v26l80 7v98c0 85 50 128 149 128c38 0 74 -6 108 -17v-33c-40 11 -76 17 -109 17c-73 0 -113 -27 -113 -95v-98h209v-33h-209v-455h-35v455z" />
    <glyph glyph-name="g" unicode="g" horiz-adv-x="490" 
d="M440 330v-16c0 -111 -65 -166 -194 -166c-64 0 -106 -3 -126 -9s-30 -18 -30 -37c0 -17 10 -29 31 -34c20 -6 62 -9 125 -9c151 0 204 -34 204 -126c0 -109 -56 -151 -204 -151c-153 0 -206 46 -206 143c0 52 21 91 62 116c-31 11 -47 32 -47 61c0 39 31 66 84 67
c-57 17 -89 72 -89 145v16c0 107 72 166 196 166c43 0 81 -8 113 -24l71 60l19 -18l-63 -59c36 -27 54 -68 54 -125zM405 314v16c0 89 -53 133 -159 133c-107 0 -161 -44 -161 -133v-16c0 -89 38 -133 161 -133s159 44 159 133zM246 26c-45 0 -82 2 -110 6
c-41 -20 -61 -56 -61 -107c0 -85 46 -110 171 -110c121 0 169 24 169 115c0 40 -12 66 -37 78s-69 18 -132 18z" />
    <glyph glyph-name="h" unicode="h" horiz-adv-x="532" 
d="M111 0h-35v700h35v-279c26 50 79 75 160 75c141 0 195 -64 195 -176v-320h-35v320c0 96 -41 143 -160 143c-117 0 -160 -44 -160 -136v-327z" />
    <glyph glyph-name="i" unicode="i" horiz-adv-x="197" 
d="M116 0h-35v488h35v-488zM71 645c0 36 55 36 55 0c0 -35 -55 -35 -55 0z" />
    <glyph glyph-name="j" unicode="j" horiz-adv-x="177" 
d="M71 488h35v-420c0 -81 -10 -141 -30 -179c-20 -37 -48 -67 -85 -89l-18 28c33 23 58 50 74 83s24 85 24 157v420zM61 645c0 36 55 36 55 0c0 -35 -55 -35 -55 0z" />
    <glyph glyph-name="k" unicode="k" horiz-adv-x="427" 
d="M186 334l163 154h47l-198 -187c-15 -14 -22 -28 -22 -43c0 -14 7 -28 22 -43l218 -215h-47l-183 181c-28 28 -42 54 -42 78c0 25 7 43 42 75zM111 0h-35v670h35v-670z" />
    <glyph glyph-name="l" unicode="l" horiz-adv-x="210" 
d="M71 112v588h35v-588c0 -55 19 -82 56 -82c15 0 26 2 34 6v-33c-9 -4 -20 -6 -33 -6c-55 0 -92 34 -92 115z" />
    <glyph glyph-name="m" unicode="m" horiz-adv-x="797" 
d="M101 320v-320h-35v320c0 112 48 176 175 176c87 0 139 -32 157 -97c19 65 71 97 158 97c127 0 175 -64 175 -176v-320h-35v320c0 96 -36 143 -140 143s-140 -47 -140 -143v-320h-35v320c0 96 -36 143 -140 143s-140 -47 -140 -143z" />
    <glyph glyph-name="n" unicode="n" 
d="M101 320v-320h-35v320c0 112 54 176 195 176s195 -64 195 -176v-320h-35v320c0 96 -41 143 -160 143s-160 -47 -160 -143z" />
    <glyph glyph-name="o" unicode="o" 
d="M128 66c25 -27 69 -41 133 -41s108 14 133 41s37 69 37 127v102c0 116 -42 168 -170 168s-170 -52 -170 -168v-102c0 -58 12 -100 37 -127zM420 44c-31 -35 -84 -52 -159 -52s-127 17 -158 52s-47 84 -47 149v102c0 129 56 201 205 201s205 -72 205 -201v-102
c0 -65 -15 -114 -46 -149z" />
    <glyph glyph-name="p" unicode="p" horiz-adv-x="542" 
d="M111 -200h-35v495c0 129 56 201 205 201s205 -72 205 -201v-102c0 -129 -56 -201 -205 -201c-88 0 -145 28 -170 85v-277zM148 66c25 -27 69 -41 133 -41s108 14 133 41s37 69 37 127v102c0 116 -42 168 -170 168s-170 -52 -170 -168v-102c0 -58 12 -100 37 -127z" />
    <glyph glyph-name="q" unicode="q" horiz-adv-x="542" 
d="M466 295v-495h-35v277c-25 -57 -82 -85 -170 -85c-149 0 -205 72 -205 201v102c0 129 56 201 205 201s205 -72 205 -201zM128 66c25 -27 69 -41 133 -41s108 14 133 41s37 69 37 127v102c0 116 -42 168 -170 168s-170 -52 -170 -168v-102c0 -58 12 -100 37 -127z" />
    <glyph glyph-name="r" unicode="r" horiz-adv-x="287" 
d="M101 330v-330h-35v330c0 111 48 166 145 166c21 0 42 -2 62 -7v-35c-19 6 -40 9 -62 9c-81 0 -110 -44 -110 -133z" />
    <glyph glyph-name="s" unicode="s" horiz-adv-x="450" 
d="M56 19v33c60 -18 117 -27 171 -27c89 0 132 21 132 77c0 39 -22 69 -67 91l-143 71c-59 29 -85 58 -85 122c0 73 53 110 158 110c53 0 103 -10 150 -30v-34c-47 21 -97 31 -152 31c-84 0 -121 -21 -121 -76c0 -39 21 -69 62 -90l143 -71c61 -31 90 -58 90 -122
c0 -79 -58 -112 -171 -112c-50 0 -106 9 -167 27z" />
    <glyph glyph-name="t" unicode="t" horiz-adv-x="390" 
d="M94 455h-80v26l80 7l10 130h25v-130h209v-33h-209v-295c0 -100 40 -135 113 -135c46 0 84 7 115 20v-33c-29 -13 -67 -20 -114 -20c-99 0 -149 56 -149 168v295z" />
    <glyph glyph-name="u" unicode="u" horiz-adv-x="502" 
d="M56 488h35v-320c0 -96 41 -143 160 -143s160 47 160 143v320h35v-320c0 -112 -54 -176 -195 -176s-195 64 -195 176v320z" />
    <glyph glyph-name="v" unicode="v" horiz-adv-x="494" 
d="M31 488h35l111 -399c15 -51 31 -64 70 -64s55 13 70 64l111 399h35l-105 -379c-13 -47 -27 -77 -42 -92s-38 -23 -69 -23s-53 8 -68 23s-30 45 -43 92z" />
    <glyph glyph-name="w" unicode="w" horiz-adv-x="781" 
d="M36 488h35l70 -401c7 -43 27 -64 60 -64c32 0 52 21 60 64l54 305c12 71 30 96 75 96s63 -25 75 -96l54 -305c8 -43 28 -64 60 -64c33 0 53 21 60 64l71 401h35l-65 -381c-15 -87 -42 -115 -101 -115c-56 0 -85 30 -100 115l-47 283c-8 55 -19 69 -42 69s-34 -14 -42 -69
l-47 -283c-15 -85 -44 -115 -100 -115c-57 0 -86 30 -101 115z" />
    <glyph glyph-name="x" unicode="x" horiz-adv-x="492" 
d="M46 488h41l116 -183c13 -21 27 -31 43 -31c15 0 30 10 43 31l116 183h41l-110 -173c-20 -31 -37 -50 -52 -57c15 -7 32 -26 52 -57l130 -201h-41l-134 208c-15 23 -30 34 -45 34s-30 -11 -45 -34l-134 -208h-41l131 201c20 31 37 50 51 57c-15 7 -32 26 -52 57z" />
    <glyph glyph-name="y" unicode="y" horiz-adv-x="494" 
d="M299 0l5 17c-15 -11 -34 -17 -57 -17c-49 0 -73 27 -101 115l-115 373h35l121 -393c16 -51 31 -64 70 -64s58 15 70 64l101 393h35l-129 -488c-16 -60 -33 -102 -63 -143c-30 -40 -77 -61 -137 -57l-8 33c99 -7 138 50 173 167z" />
    <glyph glyph-name="z" unicode="z" horiz-adv-x="462" 
d="M369 334l-262 -212c-19 -15 -29 -32 -29 -49c0 -27 19 -40 57 -40h281v-33h-280c-61 0 -91 24 -91 72c0 29 14 55 43 78l258 208c25 21 37 40 37 59c0 25 -14 38 -57 38h-260v33h256c67 0 94 -20 94 -75c0 -27 -16 -54 -47 -79z" />
    <glyph glyph-name="braceleft" unicode="{" horiz-adv-x="315" 
d="M49 245h-18v28h18c60 0 92 57 92 160v150c0 99 36 147 120 147h23v-28h-27c-57 0 -86 -37 -86 -111v-167c0 -90 -24 -145 -73 -165c49 -18 73 -73 73 -165v-185c0 -74 29 -111 86 -111h27v-28h-23c-80 0 -120 49 -120 147v168c0 107 -31 160 -92 160z" />
    <glyph glyph-name="bar" unicode="|" horiz-adv-x="197" 
d="M83 720h31v-940h-31v940z" />
    <glyph glyph-name="braceright" unicode="}" horiz-adv-x="315" 
d="M266 273h18v-28h-18c-61 0 -92 -53 -92 -160v-168c0 -98 -40 -147 -120 -147h-23v28h27c57 0 86 37 86 111v185c0 92 24 147 73 165c-49 20 -73 75 -73 165v167c0 74 -29 111 -86 111h-27v28h23c84 0 120 -48 120 -147v-150c0 -103 32 -160 92 -160z" />
    <glyph glyph-name="asciitilde" unicode="~" horiz-adv-x="518" 
d="M73 206h-28c0 85 39 134 104 134c44 0 89 -29 117 -57c27 -28 67 -57 103 -57c51 0 76 35 76 104h28c0 -85 -39 -134 -104 -134c-44 0 -89 29 -116 57c-28 28 -68 57 -104 57c-49 0 -76 -47 -76 -104z" />
    <glyph glyph-name="exclamdown" unicode="&#xa1;" horiz-adv-x="232" 
d="M134 90v-250h-38v250c0 115 2 202 7 259h24c5 -57 7 -144 7 -259zM141 484c13 -13 13 -37 0 -50s-37 -13 -50 0s-13 37 0 50s37 13 50 0z" />
    <glyph glyph-name="cent" unicode="&#xa2;" horiz-adv-x="409" 
d="M91 354v-90c0 -125 49 -172 165 -172c44 0 84 7 120 20v-34c-33 -11 -68 -17 -105 -19v-80h-30v80c-127 5 -185 67 -185 206v90c0 134 62 203 185 206v80h30v-80c33 -2 65 -9 94 -21v-34c-31 15 -66 22 -107 22c-127 0 -167 -59 -167 -174z" />
    <glyph glyph-name="sterling" unicode="&#xa3;" horiz-adv-x="468" 
d="M194 35h233v-35h-230c-71 0 -100 31 -100 100v210h-76v30h76v112c0 137 56 206 169 206c48 0 91 -8 128 -23v-33c-39 14 -82 21 -128 21c-96 0 -132 -57 -132 -182v-101h167v-30h-167v-215c0 -41 17 -60 60 -60z" />
    <glyph glyph-name="currency" unicode="&#xa4;" horiz-adv-x="602" 
d="M376 406l143 144l22 -22l-144 -143c33 -43 33 -107 0 -150l143 -143l-21 -21l-143 143c-45 -35 -105 -35 -150 0l-143 -144l-22 22l144 143c-35 45 -35 105 0 150l-143 143l21 21l143 -143c43 33 107 33 150 0zM208 310c0 -52 41 -93 93 -93s93 41 93 93s-41 93 -93 93
s-93 -41 -93 -93z" />
    <glyph glyph-name="yen" unicode="&#xa5;" horiz-adv-x="568" 
d="M266 250h-171v30h169c-24 3 -43 12 -57 27s-31 43 -52 84l-129 259h40l137 -277c25 -49 40 -62 81 -62s57 14 81 62l137 277h40l-129 -259c-21 -41 -38 -69 -52 -84s-33 -24 -56 -27h169v-30h-171v-110h171v-30h-171v-110h-37v110h-171v30h171v110z" />
    <glyph glyph-name="brokenbar" unicode="&#xa6;" horiz-adv-x="193" 
d="M81 720h31v-373h-31v373zM81 174h31v-394h-31v394z" />
    <glyph glyph-name="section" unicode="&#xa7;" horiz-adv-x="531" 
d="M71 -162v39c46 -24 106 -36 181 -36c115 0 171 27 171 95c0 27 -7 47 -30 70c-23 22 -35 30 -74 57l-143 98c-42 29 -58 37 -83 83c-12 22 -18 46 -18 72c0 68 31 106 94 115c-37 25 -55 37 -77 77c-11 19 -17 41 -17 64c0 83 62 124 186 124c65 0 122 -11 171 -34v-39
c-43 24 -100 36 -170 36c-108 0 -150 -29 -150 -89c0 -52 25 -76 85 -112l144 -90c80 -51 119 -87 119 -155c0 -75 -45 -117 -118 -122c55 -36 76 -52 100 -91c12 -19 18 -40 18 -63c0 -89 -71 -133 -212 -133c-69 0 -128 11 -177 34zM112 314c0 -40 21 -73 41 -89
c9 -8 24 -19 44 -33l112 -78c76 3 114 30 114 98c0 52 -32 83 -104 127l-118 72c-64 -5 -89 -37 -89 -97z" />
    <glyph glyph-name="dieresis" unicode="&#xa8;" horiz-adv-x="324" 
d="M51 777c0 36 55 36 55 0c0 -35 -55 -35 -55 0zM218 777c0 36 55 36 55 0c0 -35 -55 -35 -55 0z" />
    <glyph glyph-name="copyright" unicode="&#xa9;" horiz-adv-x="813" 
d="M290 399v-100c0 -84 39 -112 142 -112c38 0 71 5 98 16v-31c-27 -10 -59 -15 -98 -15c-123 0 -174 41 -174 142v100c0 99 53 148 159 148c33 0 68 -5 104 -16v-29c-43 10 -77 15 -104 15c-95 0 -127 -45 -127 -118zM61 352c0 96 34 178 101 245s149 101 244 101
c96 0 178 -34 245 -101s101 -149 101 -245c0 -95 -34 -177 -101 -244s-149 -101 -245 -101c-95 0 -177 34 -244 101s-101 149 -101 244zM183 578c-63 -63 -94 -138 -94 -226s31 -163 94 -225c62 -62 136 -93 223 -93s162 31 225 93c62 62 93 137 93 225s-31 163 -93 226
c-63 62 -138 93 -225 93s-161 -31 -223 -93z" />
    <glyph glyph-name="guillemotleft" unicode="&#xab;" horiz-adv-x="419" 
d="M86 215l132 -160h-38l-114 136c-22 27 -33 46 -33 59s11 32 33 59l114 136h38l-132 -160c-14 -17 -21 -28 -21 -35s7 -18 21 -35zM246 215l132 -160h-38l-114 136c-22 27 -33 46 -33 59s11 32 33 59l114 136h38l-132 -160c-14 -17 -21 -28 -21 -35s7 -18 21 -35z" />
    <glyph glyph-name="logicalnot" unicode="&#xac;" horiz-adv-x="490" 
d="M444 352v-153h-32v153c0 27 -13 40 -40 40h-351v30h353c49 0 70 -21 70 -70z" />
    <glyph glyph-name="registered" unicode="&#xae;" horiz-adv-x="813" 
d="M554 163h-34l-109 171h-95v-171h-31v293c0 60 26 85 85 85h50c85 0 120 -31 120 -102c0 -62 -32 -96 -96 -103zM420 513h-54c-35 0 -50 -15 -50 -50v-100h94c73 0 99 21 99 76c0 52 -24 74 -89 74zM61 352c0 96 34 178 101 245s149 101 244 101c96 0 178 -34 245 -101
s101 -149 101 -245c0 -95 -34 -177 -101 -244s-149 -101 -245 -101c-95 0 -177 34 -244 101s-101 149 -101 244zM183 578c-63 -63 -94 -138 -94 -226s31 -163 94 -225c62 -62 136 -93 223 -93s162 31 225 93c62 62 93 137 93 225s-31 163 -93 226c-63 62 -138 93 -225 93
s-161 -31 -223 -93z" />
    <glyph glyph-name="degree" unicode="&#xb0;" horiz-adv-x="363" 
d="M275 683c25 -25 37 -56 37 -93s-12 -67 -37 -92s-56 -38 -93 -38c-75 0 -131 55 -131 130c0 73 56 130 131 130c37 0 68 -12 93 -37zM285 590c0 59 -43 104 -102 104c-61 0 -105 -45 -105 -104s45 -104 105 -104c27 0 50 10 71 31c21 20 31 44 31 73z" />
    <glyph glyph-name="plusminus" unicode="&#xb1;" horiz-adv-x="550" 
d="M291 97h198v-30h-428v30h198v198h-198v30h198v198h32v-198h198v-30h-198v-198z" />
    <glyph glyph-name="acute" unicode="&#xb4;" horiz-adv-x="216" 
d="M130 886h35l-80 -136h-34z" />
    <glyph glyph-name="mu" unicode="&#xb5;" 
d="M431 488h35v-319c0 -72 -23 -122 -63 -146s-79 -31 -131 -31c-78 0 -132 22 -161 65v-257h-35v688h35v-323c0 -107 57 -140 160 -140c112 0 160 39 160 144v319z" />
    <glyph glyph-name="paragraph" unicode="&#xb6;" horiz-adv-x="496" 
d="M420 550v-628h-31v636c0 43 -19 60 -60 60h-94v-368c0 -39 -1 -69 -2 -91c-2 -22 -6 -50 -13 -83c-14 -68 -50 -121 -109 -166l-17 26c41 33 71 80 86 117c7 18 13 40 17 67c7 57 7 70 7 130v66c-54 0 -96 16 -127 49s-46 73 -46 121c0 104 61 164 173 164h116
c69 0 100 -31 100 -100z" />
    <glyph glyph-name="middot" unicode="&#xb7;" horiz-adv-x="152" 
d="M51 285c-13 13 -13 37 0 50s37 13 50 0s13 -37 0 -50s-37 -13 -50 0z" />
    <glyph glyph-name="cedilla" unicode="&#xb8;" horiz-adv-x="201" 
d="M46 -76l27 101h28l-19 -71c65 10 98 -11 98 -63c0 -53 -29 -75 -90 -75c-17 0 -36 3 -56 10v28c16 -7 34 -10 55 -10c45 0 61 11 61 47c0 31 -11 39 -52 39c-16 0 -33 -2 -52 -6z" />
    <glyph glyph-name="guillemotright" unicode="&#xbb;" horiz-adv-x="419" 
d="M353 191l-114 -136h-38l132 160c14 17 21 28 21 35s-7 18 -21 35l-132 160h38l114 -136c22 -27 33 -46 33 -59s-11 -32 -33 -59zM193 191l-114 -136h-38l132 160c14 17 21 28 21 35s-7 18 -21 35l-132 160h38l114 -136c22 -27 33 -46 33 -59s-11 -32 -33 -59z" />
    <glyph glyph-name="questiondown" unicode="&#xbf;" horiz-adv-x="381" 
d="M303 484c13 -13 13 -37 0 -50s-37 -13 -50 0s-13 37 0 50s37 13 50 0zM46 9c0 41 13 78 25 99c6 11 16 22 30 35s25 22 32 27s19 13 37 25c61 40 91 76 91 140h31c11 -63 -26 -121 -109 -174c-35 -21 -38 -22 -65 -49c-25 -25 -35 -58 -35 -103c0 -105 49 -142 150 -142
c39 0 76 7 111 20v-39c-31 -11 -66 -16 -107 -16c-127 0 -191 53 -191 177z" />
    <glyph glyph-name="Agrave" unicode="&#xc0;" horiz-adv-x="574" 
d="M553 0h-38l-66 233h-324l-66 -233h-38l155 543c13 47 28 78 43 93s37 22 68 22s54 -7 69 -22s29 -46 42 -93zM219 563l-84 -295h304l-84 295c-13 48 -32 62 -68 62s-55 -14 -68 -62zM307 692h-34l-80 136h35z" />
    <glyph glyph-name="Aacute" unicode="&#xc1;" horiz-adv-x="574" 
d="M553 0h-38l-66 233h-324l-66 -233h-38l155 543c13 47 28 78 43 93s37 22 68 22s54 -7 69 -22s29 -46 42 -93zM219 563l-84 -295h304l-84 295c-13 48 -32 62 -68 62s-55 -14 -68 -62zM336 828h35l-80 -136h-34z" />
    <glyph glyph-name="Acircumflex" unicode="&#xc2;" horiz-adv-x="574" 
d="M553 0h-38l-66 233h-324l-66 -233h-38l155 543c13 47 28 78 43 93s37 22 68 22s54 -7 69 -22s29 -46 42 -93zM219 563l-84 -295h304l-84 295c-13 48 -32 62 -68 62s-55 -14 -68 -62zM217 696h-36l44 73c25 43 35 54 62 54c25 0 37 -11 62 -54l45 -73h-36l-42 73
c-11 19 -20 28 -29 28c-8 0 -17 -9 -28 -28z" />
    <glyph glyph-name="Atilde" unicode="&#xc3;" horiz-adv-x="574" 
d="M553 0h-38l-66 233h-324l-66 -233h-38l155 543c13 47 28 78 43 93s37 22 68 22s54 -7 69 -22s29 -46 42 -93zM219 563l-84 -295h304l-84 295c-13 48 -32 62 -68 62s-55 -14 -68 -62zM181 720h-30c0 60 23 90 69 90c21 0 45 -12 74 -36c28 -24 49 -36 62 -36
c25 0 37 21 37 62h30c0 -60 -23 -90 -69 -90c-21 0 -45 12 -73 36c-29 24 -50 36 -63 36c-25 0 -37 -21 -37 -62z" />
    <glyph glyph-name="Adieresis" unicode="&#xc4;" horiz-adv-x="574" 
d="M553 0h-38l-66 233h-324l-66 -233h-38l155 543c13 47 28 78 43 93s37 22 68 22s54 -7 69 -22s29 -46 42 -93zM219 563l-84 -295h304l-84 295c-13 48 -32 62 -68 62s-55 -14 -68 -62zM176 760c0 36 55 36 55 0c0 -35 -55 -35 -55 0zM343 760c0 36 55 36 55 0
c0 -35 -55 -35 -55 0z" />
    <glyph glyph-name="Aring" unicode="&#xc5;" horiz-adv-x="574" 
d="M553 0h-38l-66 233h-324l-66 -233h-38l155 543c13 47 28 78 43 93s37 22 68 22s54 -7 69 -22s29 -46 42 -93zM219 563l-84 -295h304l-84 295c-13 48 -32 62 -68 62s-55 -14 -68 -62zM286 680c-49 0 -80 33 -80 80c0 48 31 80 80 80c52 0 82 -32 82 -80
c0 -47 -30 -80 -82 -80zM286 707c35 0 54 25 54 53c0 32 -18 54 -54 54c-33 0 -52 -22 -52 -54c0 -28 19 -53 52 -53z" />
    <glyph glyph-name="AE" unicode="&#xc6;" horiz-adv-x="824" 
d="M743 325h-313v-230c0 -41 17 -60 60 -60h293v-35h-290c-71 0 -100 31 -100 100v133h-264l-71 -233h-37l163 535c15 48 28 79 41 94c13 14 33 21 60 21h498v-35h-293c-43 0 -60 -19 -60 -60v-195h313v-35zM227 555l-88 -287h254v282c0 33 6 55 19 65h-127
c-31 0 -43 -13 -58 -60z" />
    <glyph glyph-name="Ccedilla" unicode="&#xc7;" horiz-adv-x="516" 
d="M98 399v-160c0 -144 58 -212 194 -212c76 0 136 14 180 41v-38c-47 -24 -100 -37 -160 -38l-10 -38c65 10 98 -11 98 -63c0 -53 -29 -75 -90 -75c-17 0 -36 3 -56 10v28c16 -7 34 -10 55 -10c45 0 61 11 61 47c0 31 -11 39 -52 39c-16 0 -33 -2 -52 -6l18 68
c-155 5 -223 84 -223 247v160c0 180 71 259 234 259c52 0 99 -10 121 -17c11 -4 26 -10 46 -19v-39c-57 27 -114 40 -172 40c-135 0 -192 -71 -192 -224z" />
    <glyph glyph-name="Egrave" unicode="&#xc8;" horiz-adv-x="512" 
d="M431 325h-313v-230c0 -41 17 -60 60 -60h293v-35h-290c-71 0 -100 31 -100 100v450c0 69 29 100 100 100h290v-35h-293c-43 0 -60 -19 -60 -60v-195h313v-35zM310 692h-34l-80 136h35z" />
    <glyph glyph-name="Eacute" unicode="&#xc9;" horiz-adv-x="512" 
d="M431 325h-313v-230c0 -41 17 -60 60 -60h293v-35h-290c-71 0 -100 31 -100 100v450c0 69 29 100 100 100h290v-35h-293c-43 0 -60 -19 -60 -60v-195h313v-35zM309 828h35l-80 -136h-34z" />
    <glyph glyph-name="Ecircumflex" unicode="&#xca;" horiz-adv-x="512" 
d="M431 325h-313v-230c0 -41 17 -60 60 -60h293v-35h-290c-71 0 -100 31 -100 100v450c0 69 29 100 100 100h290v-35h-293c-43 0 -60 -19 -60 -60v-195h313v-35zM206 697h-36l44 73c25 43 35 54 62 54c25 0 37 -11 62 -54l45 -73h-36l-42 73c-11 19 -20 28 -29 28
c-8 0 -17 -9 -28 -28z" />
    <glyph glyph-name="Edieresis" unicode="&#xcb;" horiz-adv-x="512" 
d="M431 325h-313v-230c0 -41 17 -60 60 -60h293v-35h-290c-71 0 -100 31 -100 100v450c0 69 29 100 100 100h290v-35h-293c-43 0 -60 -19 -60 -60v-195h313v-35zM165 760c0 36 55 36 55 0c0 -35 -55 -35 -55 0zM332 760c0 36 55 36 55 0c0 -35 -55 -35 -55 0z" />
    <glyph glyph-name="Igrave" unicode="&#xcc;" horiz-adv-x="209" 
d="M123 0h-37v650h37v-650zM123 692h-34l-80 136h35z" />
    <glyph glyph-name="Iacute" unicode="&#xcd;" horiz-adv-x="209" 
d="M123 0h-37v650h37v-650zM163 828h35l-80 -136h-34z" />
    <glyph glyph-name="Icircumflex" unicode="&#xce;" horiz-adv-x="209" 
d="M123 0h-37v650h37v-650zM35 697h-36l44 73c25 43 35 54 62 54c25 0 37 -11 62 -54l45 -73h-36l-42 73c-11 19 -20 28 -29 28c-8 0 -17 -9 -28 -28z" />
    <glyph glyph-name="Idieresis" unicode="&#xcf;" horiz-adv-x="209" 
d="M123 0h-37v650h37v-650zM-5 760c0 36 55 36 55 0c0 -35 -55 -35 -55 0zM162 760c0 36 55 36 55 0c0 -35 -55 -35 -55 0z" />
    <glyph glyph-name="Eth" unicode="&#xd0;" horiz-adv-x="572" 
d="M81 310h-66v30h66v210c0 69 29 100 100 100h85c99 0 168 -19 207 -56s58 -105 58 -202v-134c0 -96 -19 -163 -58 -201s-108 -57 -207 -57h-85c-71 0 -100 31 -100 100v210zM178 35h88c89 0 150 16 181 48c31 31 47 90 47 175v134c0 84 -16 142 -47 175
c-32 32 -92 48 -181 48h-88c-43 0 -60 -19 -60 -60v-215h113v-30h-113v-215c0 -41 17 -60 60 -60z" />
    <glyph glyph-name="Ntilde" unicode="&#xd1;" horiz-adv-x="602" 
d="M189 720h-30c0 60 23 90 69 90c21 0 45 -12 74 -36c28 -24 49 -36 62 -36c25 0 37 21 37 62h30c0 -60 -23 -90 -69 -90c-21 0 -45 12 -73 36c-29 24 -50 36 -63 36c-25 0 -37 -21 -37 -62zM118 0h-37v576c0 53 22 80 65 80c39 0 66 -23 83 -70l178 -512
c13 -37 28 -46 49 -46c19 0 28 15 28 45v577h37v-576c0 -53 -22 -80 -65 -80c-45 0 -65 23 -84 75l-177 507c-11 31 -27 46 -48 46c-19 0 -29 -15 -29 -46v-576z" />
    <glyph glyph-name="Ograve" unicode="&#xd2;" horiz-adv-x="602" 
d="M140 80c27 -35 81 -53 161 -53s134 18 162 53c27 35 41 92 41 170v150c0 78 -14 135 -41 170c-28 35 -82 53 -162 53s-134 -18 -161 -53c-28 -35 -42 -92 -42 -170v-150c0 -78 14 -135 42 -170zM301 -8c-91 0 -153 21 -188 63c-35 41 -52 106 -52 195v150
c0 89 18 154 53 196c35 41 97 62 187 62c91 0 153 -21 188 -62c35 -42 52 -107 52 -196v-150c0 -89 -17 -154 -52 -195c-35 -42 -98 -63 -188 -63zM341 692h-34l-80 136h35z" />
    <glyph glyph-name="Oacute" unicode="&#xd3;" horiz-adv-x="602" 
d="M140 80c27 -35 81 -53 161 -53s134 18 162 53c27 35 41 92 41 170v150c0 78 -14 135 -41 170c-28 35 -82 53 -162 53s-134 -18 -161 -53c-28 -35 -42 -92 -42 -170v-150c0 -78 14 -135 42 -170zM301 -8c-91 0 -153 21 -188 63c-35 41 -52 106 -52 195v150
c0 89 18 154 53 196c35 41 97 62 187 62c91 0 153 -21 188 -62c35 -42 52 -107 52 -196v-150c0 -89 -17 -154 -52 -195c-35 -42 -98 -63 -188 -63zM359 828h35l-80 -136h-34z" />
    <glyph glyph-name="Ocircumflex" unicode="&#xd4;" horiz-adv-x="602" 
d="M140 80c27 -35 81 -53 161 -53s134 18 162 53c27 35 41 92 41 170v150c0 78 -14 135 -41 170c-28 35 -82 53 -162 53s-134 -18 -161 -53c-28 -35 -42 -92 -42 -170v-150c0 -78 14 -135 42 -170zM301 -8c-91 0 -153 21 -188 63c-35 41 -52 106 -52 195v150
c0 89 18 154 53 196c35 41 97 62 187 62c91 0 153 -21 188 -62c35 -42 52 -107 52 -196v-150c0 -89 -17 -154 -52 -195c-35 -42 -98 -63 -188 -63zM226 697h-36l44 73c25 43 35 54 62 54c25 0 37 -11 62 -54l45 -73h-36l-42 73c-11 19 -20 28 -29 28c-8 0 -17 -9 -28 -28z
" />
    <glyph glyph-name="Otilde" unicode="&#xd5;" horiz-adv-x="602" 
d="M140 80c27 -35 81 -53 161 -53s134 18 162 53c27 35 41 92 41 170v150c0 78 -14 135 -41 170c-28 35 -82 53 -162 53s-134 -18 -161 -53c-28 -35 -42 -92 -42 -170v-150c0 -78 14 -135 42 -170zM301 -8c-91 0 -153 21 -188 63c-35 41 -52 106 -52 195v150
c0 89 18 154 53 196c35 41 97 62 187 62c91 0 153 -21 188 -62c35 -42 52 -107 52 -196v-150c0 -89 -17 -154 -52 -195c-35 -42 -98 -63 -188 -63zM190 720h-30c0 60 23 90 69 90c21 0 45 -12 74 -36c28 -24 49 -36 62 -36c25 0 37 21 37 62h30c0 -60 -23 -90 -69 -90
c-21 0 -45 12 -73 36c-29 24 -50 36 -63 36c-25 0 -37 -21 -37 -62z" />
    <glyph glyph-name="Odieresis" unicode="&#xd6;" horiz-adv-x="602" 
d="M140 80c27 -35 81 -53 161 -53s134 18 162 53c27 35 41 92 41 170v150c0 78 -14 135 -41 170c-28 35 -82 53 -162 53s-134 -18 -161 -53c-28 -35 -42 -92 -42 -170v-150c0 -78 14 -135 42 -170zM301 -8c-91 0 -153 21 -188 63c-35 41 -52 106 -52 195v150
c0 89 18 154 53 196c35 41 97 62 187 62c91 0 153 -21 188 -62c35 -42 52 -107 52 -196v-150c0 -89 -17 -154 -52 -195c-35 -42 -98 -63 -188 -63zM185 759c0 36 55 36 55 0c0 -35 -55 -35 -55 0zM352 759c0 36 55 36 55 0c0 -35 -55 -35 -55 0z" />
    <glyph glyph-name="multiply" unicode="&#xd7;" horiz-adv-x="506" 
d="M422 133l-169 169l-169 -169l-23 23l169 169l-169 169l23 23l169 -169l169 169l23 -23l-169 -169l169 -169z" />
    <glyph glyph-name="Oslash" unicode="&#xd8;" horiz-adv-x="602" 
d="M301 -8c-67 0 -118 11 -155 34l-24 -42l-27 16l26 46c-40 38 -60 106 -60 204v150c0 89 18 154 53 196c35 41 97 62 187 62c66 0 117 -12 154 -35l25 43l27 -16l-27 -46c41 -39 61 -107 61 -204v-150c0 -89 -17 -154 -52 -195c-35 -42 -98 -63 -188 -63zM301 27
c80 0 134 18 162 53c27 35 41 92 41 170v150c0 83 -14 140 -43 171l-297 -513c31 -21 76 -31 137 -31zM98 400v-150c0 -83 14 -140 42 -172l297 514c-31 21 -77 31 -136 31c-80 0 -134 -18 -161 -53c-28 -35 -42 -92 -42 -170z" />
    <glyph glyph-name="Ugrave" unicode="&#xd9;" horiz-adv-x="606" 
d="M71 192v458h37v-458c0 -120 60 -165 195 -165s195 45 195 165v458h37v-458c0 -141 -79 -200 -232 -200s-232 59 -232 200zM322 692h-34l-80 136h35z" />
    <glyph glyph-name="Uacute" unicode="&#xda;" horiz-adv-x="606" 
d="M71 192v458h37v-458c0 -120 60 -165 195 -165s195 45 195 165v458h37v-458c0 -141 -79 -200 -232 -200s-232 59 -232 200zM349 828h35l-80 -136h-34z" />
    <glyph glyph-name="Ucircumflex" unicode="&#xdb;" horiz-adv-x="606" 
d="M71 192v458h37v-458c0 -120 60 -165 195 -165s195 45 195 165v458h37v-458c0 -141 -79 -200 -232 -200s-232 59 -232 200zM226 697h-36l44 73c25 43 35 54 62 54c25 0 37 -11 62 -54l45 -73h-36l-42 73c-11 19 -20 28 -29 28c-8 0 -17 -9 -28 -28z" />
    <glyph glyph-name="Udieresis" unicode="&#xdc;" horiz-adv-x="606" 
d="M71 192v458h37v-458c0 -120 60 -165 195 -165s195 45 195 165v458h37v-458c0 -141 -79 -200 -232 -200s-232 59 -232 200zM186 759c0 36 55 36 55 0c0 -35 -55 -35 -55 0zM353 759c0 36 55 36 55 0c0 -35 -55 -35 -55 0z" />
    <glyph glyph-name="Yacute" unicode="&#xdd;" horiz-adv-x="568" 
d="M303 0h-37v280c-23 3 -41 12 -54 27c-14 15 -33 44 -57 88l-139 255h41l150 -275c27 -51 40 -62 77 -62c36 0 50 14 77 62l150 275h41l-139 -255c-24 -44 -43 -73 -56 -88c-14 -15 -32 -24 -54 -27v-280zM346 828h35l-80 -136h-34z" />
    <glyph glyph-name="Thorn" unicode="&#xde;" horiz-adv-x="542" 
d="M118 0h-37v620h37v-122h177c81 0 138 -15 169 -45c31 -31 47 -78 47 -143c0 -127 -56 -188 -216 -188h-177v-122zM295 463h-177v-306h177c70 0 117 12 142 36c25 23 37 62 37 117c0 54 -13 93 -38 117s-72 36 -141 36z" />
    <glyph glyph-name="germandbls" unicode="&#xdf;" horiz-adv-x="492" 
d="M441 129c0 -91 -56 -137 -168 -137c-39 0 -68 4 -89 12v41c21 -12 49 -18 83 -18c97 0 137 30 137 97c0 139 -170 94 -170 210c0 43 30 76 59 93s59 52 59 99c0 57 -36 97 -121 97c-89 0 -133 -45 -133 -164v-459h-37v455c0 135 57 203 171 203c109 0 157 -59 157 -136
c0 -117 -119 -118 -119 -187c0 -82 171 -45 171 -206z" />
    <glyph glyph-name="agrave" unicode="&#xe0;" horiz-adv-x="472" 
d="M416 351v-203c0 -113 -63 -156 -203 -156c-45 0 -84 11 -117 34c-33 22 -50 58 -50 109c0 100 62 140 205 140h130v76c0 81 -51 112 -150 112c-54 0 -101 -7 -141 -20v36c39 11 86 17 140 17c124 0 186 -48 186 -145zM381 148v96h-127c-120 0 -173 -27 -173 -110
c0 -77 56 -109 132 -109c119 0 168 28 168 123zM281 536h-34l-80 136h35z" />
    <glyph glyph-name="aacute" unicode="&#xe1;" horiz-adv-x="472" 
d="M416 351v-203c0 -113 -63 -156 -203 -156c-45 0 -84 11 -117 34c-33 22 -50 58 -50 109c0 100 62 140 205 140h130v76c0 81 -51 112 -150 112c-54 0 -101 -7 -141 -20v36c39 11 86 17 140 17c124 0 186 -48 186 -145zM381 148v96h-127c-120 0 -173 -27 -173 -110
c0 -77 56 -109 132 -109c119 0 168 28 168 123zM266 672h35l-80 -136h-34z" />
    <glyph glyph-name="acircumflex" unicode="&#xe2;" horiz-adv-x="472" 
d="M416 351v-203c0 -113 -63 -156 -203 -156c-45 0 -84 11 -117 34c-33 22 -50 58 -50 109c0 100 62 140 205 140h130v76c0 81 -51 112 -150 112c-54 0 -101 -7 -141 -20v36c39 11 86 17 140 17c124 0 186 -48 186 -145zM381 148v96h-127c-120 0 -173 -27 -173 -110
c0 -77 56 -109 132 -109c119 0 168 28 168 123zM163 540h-36l44 73c25 43 35 54 62 54c25 0 37 -11 62 -54l45 -73h-36l-42 73c-11 19 -20 28 -29 28c-8 0 -17 -9 -28 -28z" />
    <glyph glyph-name="atilde" unicode="&#xe3;" horiz-adv-x="472" 
d="M416 351v-203c0 -113 -63 -156 -203 -156c-45 0 -84 11 -117 34c-33 22 -50 58 -50 109c0 100 62 140 205 140h130v76c0 81 -51 112 -150 112c-54 0 -101 -7 -141 -20v36c39 11 86 17 140 17c124 0 186 -48 186 -145zM381 148v96h-127c-120 0 -173 -27 -173 -110
c0 -77 56 -109 132 -109c119 0 168 28 168 123zM127 564h-30c0 60 23 90 69 90c21 0 45 -12 74 -36c28 -24 49 -36 62 -36c25 0 37 21 37 62h30c0 -60 -23 -90 -69 -90c-21 0 -45 12 -73 36c-29 24 -50 36 -63 36c-25 0 -37 -21 -37 -62z" />
    <glyph glyph-name="adieresis" unicode="&#xe4;" horiz-adv-x="472" 
d="M416 351v-203c0 -113 -63 -156 -203 -156c-45 0 -84 11 -117 34c-33 22 -50 58 -50 109c0 100 62 140 205 140h130v76c0 81 -51 112 -150 112c-54 0 -101 -7 -141 -20v36c39 11 86 17 140 17c124 0 186 -48 186 -145zM381 148v96h-127c-120 0 -173 -27 -173 -110
c0 -77 56 -109 132 -109c119 0 168 28 168 123zM118 603c0 36 55 36 55 0c0 -35 -55 -35 -55 0zM285 603c0 36 55 36 55 0c0 -35 -55 -35 -55 0z" />
    <glyph glyph-name="aring" unicode="&#xe5;" horiz-adv-x="472" 
d="M416 351v-203c0 -113 -63 -156 -203 -156c-45 0 -84 11 -117 34c-33 22 -50 58 -50 109c0 100 62 140 205 140h130v76c0 81 -51 112 -150 112c-54 0 -101 -7 -141 -20v36c39 11 86 17 140 17c124 0 186 -48 186 -145zM381 148v96h-127c-120 0 -173 -27 -173 -110
c0 -77 56 -109 132 -109c119 0 168 28 168 123zM227 524c-49 0 -80 33 -80 80c0 48 31 80 80 80c52 0 82 -32 82 -80c0 -47 -30 -80 -82 -80zM227 551c35 0 54 25 54 53c0 32 -18 54 -54 54c-33 0 -52 -22 -52 -54c0 -28 19 -53 52 -53z" />
    <glyph glyph-name="ae" unicode="&#xe6;" horiz-adv-x="822" 
d="M771 308c0 -31 -2 -57 -6 -79h-349v-40c0 -120 50 -164 173 -164c64 0 119 10 165 30v-33c-49 -20 -103 -30 -163 -30c-110 0 -173 38 -189 113h-4c-8 -81 -69 -113 -185 -113c-45 0 -84 11 -117 34c-33 22 -50 58 -50 109c0 100 62 140 205 140h130v76
c0 81 -51 112 -150 112c-54 0 -101 -7 -141 -20v36c39 11 86 17 140 17c107 0 164 -37 171 -110h4c15 68 73 110 172 110c123 0 194 -63 194 -188zM381 148v96h-127c-120 0 -173 -27 -173 -110c0 -77 56 -109 132 -109c119 0 168 28 168 123zM416 308v-46h322v46
c0 103 -54 155 -161 155s-161 -52 -161 -155z" />
    <glyph glyph-name="ccedilla" unicode="&#xe7;" horiz-adv-x="429" 
d="M91 295v-102c0 -124 51 -168 182 -168c48 0 89 8 123 25v-34c-35 -15 -76 -23 -124 -24l-10 -38c65 10 98 -11 98 -63c0 -53 -29 -75 -90 -75c-17 0 -36 3 -56 10v28c16 -7 34 -10 55 -10c45 0 61 11 61 47c0 31 -11 39 -52 39c-16 0 -33 -2 -52 -6l18 69
c-128 7 -188 65 -188 200v102c0 129 61 201 212 201c45 0 84 -9 117 -26v-34c-36 18 -75 27 -116 27c-135 0 -178 -59 -178 -168z" />
    <glyph glyph-name="egrave" unicode="&#xe8;" horiz-adv-x="497" 
d="M446 308c0 -31 -2 -57 -6 -79h-349v-40c0 -120 50 -164 173 -164c64 0 119 10 165 30v-33c-49 -20 -103 -30 -163 -30c-143 0 -210 58 -210 202v102c0 133 65 200 196 200c123 0 194 -63 194 -188zM91 308v-46h322v46c0 103 -54 155 -161 155s-161 -52 -161 -155z
M296 536h-34l-80 136h35z" />
    <glyph glyph-name="eacute" unicode="&#xe9;" horiz-adv-x="497" 
d="M446 308c0 -31 -2 -57 -6 -79h-349v-40c0 -120 50 -164 173 -164c64 0 119 10 165 30v-33c-49 -20 -103 -30 -163 -30c-143 0 -210 58 -210 202v102c0 133 65 200 196 200c123 0 194 -63 194 -188zM91 308v-46h322v46c0 103 -54 155 -161 155s-161 -52 -161 -155z
M284 672h35l-80 -136h-34z" />
    <glyph glyph-name="ecircumflex" unicode="&#xea;" horiz-adv-x="497" 
d="M446 308c0 -31 -2 -57 -6 -79h-349v-40c0 -120 50 -164 173 -164c64 0 119 10 165 30v-33c-49 -20 -103 -30 -163 -30c-143 0 -210 58 -210 202v102c0 133 65 200 196 200c123 0 194 -63 194 -188zM91 308v-46h322v46c0 103 -54 155 -161 155s-161 -52 -161 -155z
M181 540h-36l44 73c25 43 35 54 62 54c25 0 37 -11 62 -54l45 -73h-36l-42 73c-11 19 -20 28 -29 28c-8 0 -17 -9 -28 -28z" />
    <glyph glyph-name="edieresis" unicode="&#xeb;" horiz-adv-x="497" 
d="M446 308c0 -31 -2 -57 -6 -79h-349v-40c0 -120 50 -164 173 -164c64 0 119 10 165 30v-33c-49 -20 -103 -30 -163 -30c-143 0 -210 58 -210 202v102c0 133 65 200 196 200c123 0 194 -63 194 -188zM91 308v-46h322v46c0 103 -54 155 -161 155s-161 -52 -161 -155z
M140 603c0 36 55 36 55 0c0 -35 -55 -35 -55 0zM307 603c0 36 55 36 55 0c0 -35 -55 -35 -55 0z" />
    <glyph glyph-name="igrave" unicode="&#xec;" horiz-adv-x="197" 
d="M116 0h-35v488h35v-488zM115 536h-34l-80 136h35z" />
    <glyph glyph-name="iacute" unicode="&#xed;" horiz-adv-x="197" 
d="M116 0h-35v488h35v-488zM157 672h35l-80 -136h-34z" />
    <glyph glyph-name="icircumflex" unicode="&#xee;" horiz-adv-x="197" 
d="M116 0h-35v488h35v-488zM28 540h-36l44 73c25 43 35 54 62 54c25 0 37 -11 62 -54l45 -73h-36l-42 73c-11 19 -20 28 -29 28c-8 0 -17 -9 -28 -28z" />
    <glyph glyph-name="idieresis" unicode="&#xef;" horiz-adv-x="197" 
d="M116 0h-35v488h35v-488zM-13 603c0 36 55 36 55 0c0 -35 -55 -35 -55 0zM154 603c0 36 55 36 55 0c0 -35 -55 -35 -55 0z" />
    <glyph glyph-name="eth" unicode="&#xf0;" horiz-adv-x="500" 
d="M292 617l-103 -103l-21 20l99 99c-34 19 -86 32 -156 41l11 35c75 -11 132 -27 171 -50l79 79l21 -20l-75 -75c95 -69 121 -162 121 -309c0 -132 -7 -203 -37 -262s-81 -80 -169 -80c-124 0 -192 67 -192 202c0 131 73 196 202 196c50 0 103 -9 159 -26
c-3 124 -31 200 -110 253zM242 355c-109 0 -164 -54 -164 -162c0 -111 51 -166 153 -166c89 0 137 26 155 100c12 52 16 105 16 202c-52 17 -105 26 -160 26z" />
    <glyph glyph-name="ntilde" unicode="&#xf1;" 
d="M101 320v-320h-35v320c0 112 54 176 195 176s195 -64 195 -176v-320h-35v320c0 96 -41 143 -160 143s-160 -47 -160 -143zM156 564h-30c0 60 23 90 69 90c21 0 45 -12 74 -36c28 -24 49 -36 62 -36c25 0 37 21 37 62h30c0 -60 -23 -90 -69 -90c-21 0 -45 12 -73 36
c-29 24 -50 36 -63 36c-25 0 -37 -21 -37 -62z" />
    <glyph glyph-name="ograve" unicode="&#xf2;" 
d="M128 66c25 -27 69 -41 133 -41s108 14 133 41s37 69 37 127v102c0 116 -42 168 -170 168s-170 -52 -170 -168v-102c0 -58 12 -100 37 -127zM420 44c-31 -35 -84 -52 -159 -52s-127 17 -158 52s-47 84 -47 149v102c0 129 56 201 205 201s205 -72 205 -201v-102
c0 -65 -15 -114 -46 -149zM298 536h-34l-80 136h35z" />
    <glyph glyph-name="oacute" unicode="&#xf3;" 
d="M128 66c25 -27 69 -41 133 -41s108 14 133 41s37 69 37 127v102c0 116 -42 168 -170 168s-170 -52 -170 -168v-102c0 -58 12 -100 37 -127zM420 44c-31 -35 -84 -52 -159 -52s-127 17 -158 52s-47 84 -47 149v102c0 129 56 201 205 201s205 -72 205 -201v-102
c0 -65 -15 -114 -46 -149zM304 672h35l-80 -136h-34z" />
    <glyph glyph-name="ocircumflex" unicode="&#xf4;" 
d="M128 66c25 -27 69 -41 133 -41s108 14 133 41s37 69 37 127v102c0 116 -42 168 -170 168s-170 -52 -170 -168v-102c0 -58 12 -100 37 -127zM420 44c-31 -35 -84 -52 -159 -52s-127 17 -158 52s-47 84 -47 149v102c0 129 56 201 205 201s205 -72 205 -201v-102
c0 -65 -15 -114 -46 -149zM191 540h-36l44 73c25 43 35 54 62 54c25 0 37 -11 62 -54l45 -73h-36l-42 73c-11 19 -20 28 -29 28c-8 0 -17 -9 -28 -28z" />
    <glyph glyph-name="otilde" unicode="&#xf5;" 
d="M128 66c25 -27 69 -41 133 -41s108 14 133 41s37 69 37 127v102c0 116 -42 168 -170 168s-170 -52 -170 -168v-102c0 -58 12 -100 37 -127zM420 44c-31 -35 -84 -52 -159 -52s-127 17 -158 52s-47 84 -47 149v102c0 129 56 201 205 201s205 -72 205 -201v-102
c0 -65 -15 -114 -46 -149zM156 564h-30c0 60 23 90 69 90c21 0 45 -12 74 -36c28 -24 49 -36 62 -36c25 0 37 21 37 62h30c0 -60 -23 -90 -69 -90c-21 0 -45 12 -73 36c-29 24 -50 36 -63 36c-25 0 -37 -21 -37 -62z" />
    <glyph glyph-name="odieresis" unicode="&#xf6;" 
d="M128 66c25 -27 69 -41 133 -41s108 14 133 41s37 69 37 127v102c0 116 -42 168 -170 168s-170 -52 -170 -168v-102c0 -58 12 -100 37 -127zM420 44c-31 -35 -84 -52 -159 -52s-127 17 -158 52s-47 84 -47 149v102c0 129 56 201 205 201s205 -72 205 -201v-102
c0 -65 -15 -114 -46 -149zM150 603c0 36 55 36 55 0c0 -35 -55 -35 -55 0zM317 603c0 36 55 36 55 0c0 -35 -55 -35 -55 0z" />
    <glyph glyph-name="divide" unicode="&#xf7;" horiz-adv-x="550" 
d="M250 123c-13 13 -13 37 0 50s37 13 50 0s13 -37 0 -50s-37 -13 -50 0zM250 477c-13 13 -13 37 0 50s37 13 50 0s13 -37 0 -50s-37 -13 -50 0zM61 340h428v-30h-428v30z" />
    <glyph glyph-name="oslash" unicode="&#xf8;" 
d="M261 -8c-46 0 -85 7 -116 21l-21 -36l-26 15l21 37c-42 31 -63 86 -63 164v102c0 129 56 201 205 201c46 0 85 -7 116 -22l21 37l26 -15l-22 -37c43 -32 64 -87 64 -164v-102c0 -129 -56 -201 -205 -201zM91 295v-102c0 -65 15 -110 45 -135l224 388
c-25 11 -58 17 -99 17c-128 0 -170 -52 -170 -168zM261 25c128 0 170 52 170 168v102c0 65 -15 110 -45 135l-225 -388c23 -11 57 -17 100 -17z" />
    <glyph glyph-name="ugrave" unicode="&#xf9;" horiz-adv-x="502" 
d="M56 488h35v-320c0 -96 41 -143 160 -143s160 47 160 143v320h35v-320c0 -112 -54 -176 -195 -176s-195 64 -195 176v320zM296 536h-34l-80 136h35z" />
    <glyph glyph-name="uacute" unicode="&#xfa;" horiz-adv-x="502" 
d="M56 488h35v-320c0 -96 41 -143 160 -143s160 47 160 143v320h35v-320c0 -112 -54 -176 -195 -176s-195 64 -195 176v320zM302 672h35l-80 -136h-34z" />
    <glyph glyph-name="ucircumflex" unicode="&#xfb;" horiz-adv-x="502" 
d="M56 488h35v-320c0 -96 41 -143 160 -143s160 47 160 143v320h35v-320c0 -112 -54 -176 -195 -176s-195 64 -195 176v320zM184 540h-36l44 73c25 43 35 54 62 54c25 0 37 -11 62 -54l45 -73h-36l-42 73c-11 19 -20 28 -29 28c-8 0 -17 -9 -28 -28z" />
    <glyph glyph-name="udieresis" unicode="&#xfc;" horiz-adv-x="502" 
d="M56 488h35v-320c0 -96 41 -143 160 -143s160 47 160 143v320h35v-320c0 -112 -54 -176 -195 -176s-195 64 -195 176v320zM143 603c0 36 55 36 55 0c0 -35 -55 -35 -55 0zM310 603c0 36 55 36 55 0c0 -35 -55 -35 -55 0z" />
    <glyph glyph-name="yacute" unicode="&#xfd;" horiz-adv-x="494" 
d="M299 0l5 17c-15 -11 -34 -17 -57 -17c-49 0 -73 27 -101 115l-115 373h35l121 -393c16 -51 31 -64 70 -64s58 15 70 64l101 393h35l-129 -488c-16 -60 -33 -102 -63 -143c-30 -40 -77 -61 -137 -57l-8 33c99 -7 138 50 173 167zM304 672h35l-80 -136h-34z" />
    <glyph glyph-name="thorn" unicode="&#xfe;" horiz-adv-x="542" 
d="M111 -200h-35v870h35v-258c27 56 83 84 170 84c149 0 205 -72 205 -201v-102c0 -129 -56 -201 -205 -201c-88 0 -145 28 -170 85v-277zM148 66c25 -27 69 -41 133 -41s108 14 133 41s37 69 37 127v102c0 116 -42 168 -170 168c-125 0 -170 -52 -170 -160v-110
c0 -58 12 -100 37 -127z" />
    <glyph glyph-name="ydieresis" unicode="&#xff;" horiz-adv-x="494" 
d="M299 0l5 17c-15 -11 -34 -17 -57 -17c-49 0 -73 27 -101 115l-115 373h35l121 -393c16 -51 31 -64 70 -64s58 15 70 64l101 393h35l-129 -488c-16 -60 -33 -102 -63 -143c-30 -40 -77 -61 -137 -57l-8 33c99 -7 138 50 173 167zM149 603c0 36 55 36 55 0
c0 -35 -55 -35 -55 0zM316 603c0 36 55 36 55 0c0 -35 -55 -35 -55 0z" />
    <glyph glyph-name="Aogonek" unicode="&#x104;" horiz-adv-x="574" 
d="M515 0l-66 233h-324l-66 -233h-38l155 543c13 47 28 78 43 93s37 22 68 22s54 -7 69 -22s29 -46 42 -93l155 -543c-41 -25 -68 -44 -81 -59c-13 -14 -20 -30 -20 -49c0 -45 16 -56 51 -56c25 0 41 3 49 9v-28c-17 -6 -35 -9 -54 -9c-51 0 -76 22 -76 83c0 29 8 52 28 69
c19 17 32 24 65 40zM219 563l-84 -295h304l-84 295c-13 48 -32 62 -68 62s-55 -14 -68 -62z" />
    <glyph glyph-name="aogonek" unicode="&#x105;" horiz-adv-x="472" 
d="M416 351v-203c0 -65 -23 -109 -68 -132c-21 -11 -50 -30 -89 -59c-25 -19 -37 -40 -37 -65c0 -45 16 -56 51 -56c25 0 41 3 49 9v-28c-17 -6 -35 -9 -54 -9c-51 0 -76 22 -76 83c0 53 27 76 86 105c-27 -3 -48 -4 -65 -4c-45 0 -84 11 -117 34c-33 22 -50 58 -50 109
c0 100 62 140 205 140h130v76c0 81 -51 112 -150 112c-54 0 -101 -7 -141 -20v36c39 11 86 17 140 17c124 0 186 -48 186 -145zM381 148v96h-127c-120 0 -173 -27 -173 -110c0 -77 56 -109 132 -109c119 0 168 28 168 123z" />
    <glyph glyph-name="Cacute" unicode="&#x106;" horiz-adv-x="516" 
d="M98 399v-160c0 -144 58 -212 194 -212c76 0 136 14 180 41v-38c-49 -25 -107 -38 -173 -38c-165 0 -238 79 -238 247v160c0 180 71 259 234 259c52 0 99 -10 121 -17c11 -4 26 -10 46 -19v-39c-57 27 -114 40 -172 40c-135 0 -192 -71 -192 -224zM321 828h35l-80 -136
h-34z" />
    <glyph glyph-name="cacute" unicode="&#x107;" horiz-adv-x="429" 
d="M91 295v-102c0 -124 51 -168 182 -168c48 0 89 8 123 25v-34c-36 -16 -78 -24 -127 -24c-145 0 -213 60 -213 201v102c0 129 61 201 212 201c45 0 84 -9 117 -26v-34c-36 18 -75 27 -116 27c-135 0 -178 -59 -178 -168zM290 672h35l-80 -136h-34z" />
    <glyph glyph-name="Eogonek" unicode="&#x118;" horiz-adv-x="512" 
d="M434 0h-253c-71 0 -100 31 -100 100v450c0 69 29 100 100 100h290v-35h-293c-43 0 -60 -19 -60 -60v-195h313v-35h-313v-230c0 -41 17 -60 60 -60h293v-35c-41 -25 -68 -44 -81 -59c-13 -14 -20 -30 -20 -49c0 -45 16 -56 51 -56c25 0 41 3 49 9v-28
c-17 -6 -35 -9 -54 -9c-51 0 -76 22 -76 83c0 29 8 50 29 68c20 18 32 24 65 41z" />
    <glyph glyph-name="eogonek" unicode="&#x119;" horiz-adv-x="497" 
d="M446 308c0 -31 -2 -57 -6 -79h-349v-40c0 -120 50 -164 173 -164c64 0 119 10 165 30v-33c-75 -45 -113 -89 -113 -130c0 -45 16 -56 51 -56c25 0 41 3 49 9v-28c-17 -6 -35 -9 -54 -9c-51 0 -76 22 -76 83c0 38 25 75 76 111c-33 -7 -65 -10 -96 -10
c-143 0 -210 58 -210 202v102c0 133 65 200 196 200c123 0 194 -63 194 -188zM91 308v-46h322v46c0 103 -54 155 -161 155s-161 -52 -161 -155z" />
    <glyph glyph-name="dotlessi" unicode="&#x131;" horiz-adv-x="197" 
d="M116 0h-35v488h35v-488z" />
    <glyph glyph-name="Lslash" unicode="&#x141;" horiz-adv-x="452" 
d="M81 332l-58 -21l-11 28l69 25v286h37v-273l116 42l11 -28l-127 -46v-250c0 -41 17 -60 60 -60h253v-35h-250c-71 0 -100 31 -100 100v232z" />
    <glyph glyph-name="lslash" unicode="&#x142;" horiz-adv-x="210" 
d="M71 352l-53 -19l-11 28l64 23v316h35v-304l76 28l11 -28l-87 -32v-252c0 -55 19 -82 56 -82c15 0 26 2 34 6v-33c-9 -4 -20 -6 -33 -6c-55 0 -92 34 -92 115v240z" />
    <glyph glyph-name="Nacute" unicode="&#x143;" horiz-adv-x="602" 
d="M118 0h-37v576c0 53 22 80 65 80c39 0 66 -23 83 -70l178 -512c13 -37 28 -46 49 -46c19 0 28 15 28 45v577h37v-576c0 -53 -22 -80 -65 -80c-45 0 -65 23 -84 75l-177 507c-11 31 -27 46 -48 46c-19 0 -29 -15 -29 -46v-576zM359 827h35l-80 -136h-34z" />
    <glyph glyph-name="nacute" unicode="&#x144;" 
d="M101 320v-320h-35v320c0 112 54 176 195 176s195 -64 195 -176v-320h-35v320c0 96 -41 143 -160 143s-160 -47 -160 -143zM295 672h35l-80 -136h-34z" />
    <glyph glyph-name="OE" unicode="&#x152;" horiz-adv-x="934" 
d="M854 325h-313v-230c0 -41 19 -60 60 -60h293v-35h-290c-69 0 -100 31 -100 100c-18 -72 -86 -108 -203 -108c-91 0 -153 21 -188 63c-35 41 -52 106 -52 195v150c0 89 18 154 53 196c35 41 97 62 187 62c117 0 185 -36 203 -108c0 69 31 100 100 100h290v-35h-293
c-41 0 -60 -19 -60 -60v-195h313v-35zM140 80c27 -35 81 -53 161 -53s134 18 162 53c27 35 41 92 41 170v150c0 78 -14 135 -41 170c-28 35 -82 53 -162 53s-134 -18 -161 -53c-28 -35 -42 -92 -42 -170v-150c0 -78 14 -135 42 -170z" />
    <glyph glyph-name="oe" unicode="&#x153;" horiz-adv-x="872" 
d="M821 308c0 -31 -2 -57 -6 -79h-349v-40c0 -120 50 -164 173 -164c64 0 119 10 165 30v-33c-49 -20 -103 -30 -163 -30c-113 0 -177 42 -192 126c-14 -84 -77 -126 -188 -126c-149 0 -205 72 -205 201v102c0 129 56 201 205 201c111 0 174 -42 188 -127
c12 79 73 127 178 127c123 0 194 -63 194 -188zM128 66c25 -27 69 -41 133 -41s108 14 133 41s37 69 37 127v102c0 116 -42 168 -170 168s-170 -52 -170 -168v-102c0 -58 12 -100 37 -127zM466 308v-46h322v46c0 103 -54 155 -161 155s-161 -52 -161 -155z" />
    <glyph glyph-name="Sacute" unicode="&#x15a;" horiz-adv-x="509" 
d="M57 26v39c49 -24 111 -36 187 -36c120 0 177 28 177 107c0 33 -8 58 -31 81c-24 23 -34 29 -69 52l-163 104c-37 24 -58 39 -80 81c-11 21 -17 44 -17 70c0 89 64 134 192 134c67 0 126 -11 177 -34v-39c-46 24 -105 36 -177 36c-111 0 -155 -29 -155 -98
c0 -40 20 -73 40 -89c9 -8 23 -18 41 -30l164 -106c19 -13 33 -22 42 -28c9 -7 20 -17 34 -31c28 -28 39 -59 39 -102c0 -97 -72 -145 -217 -145c-70 0 -131 11 -184 34zM294 828h35l-80 -136h-34z" />
    <glyph glyph-name="sacute" unicode="&#x15b;" horiz-adv-x="450" 
d="M56 19v33c60 -18 117 -27 171 -27c89 0 132 21 132 77c0 39 -22 69 -67 91l-143 71c-59 29 -85 58 -85 122c0 73 53 110 158 110c53 0 103 -10 150 -30v-34c-47 21 -97 31 -152 31c-84 0 -121 -21 -121 -76c0 -39 21 -69 62 -90l143 -71c61 -31 90 -58 90 -122
c0 -79 -58 -112 -171 -112c-50 0 -106 9 -167 27zM265 672h35l-80 -136h-34z" />
    <glyph glyph-name="Scaron" unicode="&#x160;" horiz-adv-x="509" 
d="M57 26v39c49 -24 111 -36 187 -36c120 0 177 28 177 107c0 33 -8 58 -31 81c-24 23 -34 29 -69 52l-163 104c-37 24 -58 39 -80 81c-11 21 -17 44 -17 70c0 89 64 134 192 134c67 0 126 -11 177 -34v-39c-46 24 -105 36 -177 36c-111 0 -155 -29 -155 -98
c0 -40 20 -73 40 -89c9 -8 23 -18 41 -30l164 -106c19 -13 33 -22 42 -28c9 -7 20 -17 34 -31c28 -28 39 -59 39 -102c0 -97 -72 -145 -217 -145c-70 0 -131 11 -184 34zM195 749l-44 73h36l42 -73c11 -19 20 -28 28 -28c9 0 18 9 29 28l42 73h36l-45 -73
c-25 -43 -37 -54 -62 -54c-27 0 -37 11 -62 54z" />
    <glyph glyph-name="scaron" unicode="&#x161;" horiz-adv-x="450" 
d="M56 19v33c60 -18 117 -27 171 -27c89 0 132 21 132 77c0 39 -22 69 -67 91l-143 71c-59 29 -85 58 -85 122c0 73 53 110 158 110c53 0 103 -10 150 -30v-34c-47 21 -97 31 -152 31c-84 0 -121 -21 -121 -76c0 -39 21 -69 62 -90l143 -71c61 -31 90 -58 90 -122
c0 -79 -58 -112 -171 -112c-50 0 -106 9 -167 27zM163 594l-44 73h36l42 -73c11 -19 20 -28 28 -28c9 0 18 9 29 28l42 73h36l-45 -73c-25 -43 -37 -54 -62 -54c-27 0 -37 11 -62 54z" />
    <glyph glyph-name="Ydieresis" unicode="&#x178;" horiz-adv-x="568" 
d="M303 0h-37v280c-23 3 -41 12 -54 27c-14 15 -33 44 -57 88l-139 255h41l150 -275c27 -51 40 -62 77 -62c36 0 50 14 77 62l150 275h41l-139 -255c-24 -44 -43 -73 -56 -88c-14 -15 -32 -24 -54 -27v-280zM173 759c0 36 55 36 55 0c0 -35 -55 -35 -55 0zM340 759
c0 36 55 36 55 0c0 -35 -55 -35 -55 0z" />
    <glyph glyph-name="Zacute" unicode="&#x179;" horiz-adv-x="530" 
d="M426 450l-308 -294c-30 -29 -45 -55 -45 -79c0 -28 17 -42 52 -42h369v-35h-368c-59 0 -89 33 -89 70c0 27 -1 35 19 67c10 16 25 34 45 53l308 294c27 26 40 50 40 73c0 39 -24 58 -71 58h-324v35h323c67 0 108 -35 108 -91c0 -35 -20 -72 -59 -109zM292 827h35
l-80 -136h-34z" />
    <glyph glyph-name="zacute" unicode="&#x17a;" horiz-adv-x="462" 
d="M272 672h35l-80 -136h-34zM369 334l-262 -212c-19 -15 -29 -32 -29 -49c0 -27 19 -40 57 -40h281v-33h-280c-61 0 -91 24 -91 72c0 29 14 55 43 78l258 208c25 21 37 40 37 59c0 25 -14 38 -57 38h-260v33h256c67 0 94 -20 94 -75c0 -27 -16 -54 -47 -79z" />
    <glyph glyph-name="Zdotaccent" unicode="&#x17b;" horiz-adv-x="530" 
d="M426 450l-308 -294c-30 -29 -45 -55 -45 -79c0 -28 17 -42 52 -42h369v-35h-368c-59 0 -89 33 -89 70c0 27 -1 35 19 67c10 16 25 34 45 53l308 294c27 26 40 50 40 73c0 39 -24 58 -71 58h-324v35h323c67 0 108 -35 108 -91c0 -35 -20 -72 -59 -109zM228 734
c-13 13 -13 37 0 50s37 13 50 0s13 -37 0 -50s-37 -13 -50 0z" />
    <glyph glyph-name="zdotaccent" unicode="&#x17c;" horiz-adv-x="462" 
d="M369 334l-262 -212c-19 -15 -29 -32 -29 -49c0 -27 19 -40 57 -40h281v-33h-280c-61 0 -91 24 -91 72c0 29 14 55 43 78l258 208c25 21 37 40 37 59c0 25 -14 38 -57 38h-260v33h256c67 0 94 -20 94 -75c0 -27 -16 -54 -47 -79zM211 578c-13 13 -13 37 0 50s37 13 50 0
s13 -37 0 -50s-37 -13 -50 0z" />
    <glyph glyph-name="Zcaron" unicode="&#x17d;" horiz-adv-x="530" 
d="M426 450l-308 -294c-30 -29 -45 -55 -45 -79c0 -28 17 -42 52 -42h369v-35h-368c-59 0 -89 33 -89 70c0 27 -1 35 19 67c10 16 25 34 45 53l308 294c27 26 40 50 40 73c0 39 -24 58 -71 58h-324v35h323c67 0 108 -35 108 -91c0 -35 -20 -72 -59 -109zM191 750l-44 73h36
l42 -73c11 -19 20 -28 28 -28c9 0 18 9 29 28l42 73h36l-45 -73c-25 -43 -37 -54 -62 -54c-27 0 -37 11 -62 54z" />
    <glyph glyph-name="zcaron" unicode="&#x17e;" horiz-adv-x="462" 
d="M369 334l-262 -212c-19 -15 -29 -32 -29 -49c0 -27 19 -40 57 -40h281v-33h-280c-61 0 -91 24 -91 72c0 29 14 55 43 78l258 208c25 21 37 40 37 59c0 25 -14 38 -57 38h-260v33h256c67 0 94 -20 94 -75c0 -27 -16 -54 -47 -79zM171 594l-44 73h36l42 -73
c11 -19 20 -28 28 -28c9 0 18 9 29 28l42 73h36l-45 -73c-25 -43 -37 -54 -62 -54c-27 0 -37 11 -62 54z" />
    <glyph glyph-name="florin" unicode="&#x192;" horiz-adv-x="369" 
d="M382 651v-32c-13 4 -28 6 -43 6c-29 0 -51 -7 -65 -22c-15 -15 -26 -47 -33 -96l-28 -182h146v-30h-151l-39 -247c-11 -65 -17 -99 -32 -140c-7 -20 -16 -35 -25 -46c-19 -20 -49 -35 -89 -35c-13 0 -25 2 -34 5v33c7 -3 18 -5 31 -5c37 0 62 14 76 41
c14 28 27 78 38 149l39 245h-107v30h112l28 183c15 100 49 150 130 150c17 0 32 -2 46 -7z" />
    <glyph glyph-name="circumflex" unicode="&#x2c6;" horiz-adv-x="315" 
d="M87 750h-36l44 73c25 43 35 54 62 54c25 0 37 -11 62 -54l45 -73h-36l-42 73c-11 19 -20 28 -29 28c-8 0 -17 -9 -28 -28z" />
    <glyph glyph-name="caron" unicode="&#x2c7;" horiz-adv-x="315" 
d="M95 803l-44 73h36l42 -73c11 -19 20 -28 28 -28c9 0 18 9 29 28l42 73h36l-45 -73c-25 -43 -37 -54 -62 -54c-27 0 -37 11 -62 54z" />
    <glyph glyph-name="breve" unicode="&#x2d8;" horiz-adv-x="404" 
d="M317 858v-20c0 -59 -38 -88 -115 -88s-115 29 -115 88v20h30v-20c0 -41 26 -60 85 -60s85 18 85 61v19h30z" />
    <glyph glyph-name="dotaccent" unicode="&#x2d9;" horiz-adv-x="172" 
d="M61 760c-13 13 -13 37 0 50s37 13 50 0s13 -37 0 -50s-37 -13 -50 0z" />
    <glyph glyph-name="ring" unicode="&#x2da;" horiz-adv-x="264" 
d="M131 750c-49 0 -80 33 -80 80c0 48 31 80 80 80c52 0 82 -32 82 -80c0 -47 -30 -80 -82 -80zM131 777c35 0 54 25 54 53c0 32 -18 54 -54 54c-33 0 -52 -22 -52 -54c0 -28 19 -53 52 -53z" />
    <glyph glyph-name="ogonek" unicode="&#x2db;" horiz-adv-x="229" 
d="M145 0h37c-41 -25 -68 -44 -81 -59c-13 -14 -20 -30 -20 -49c0 -45 16 -56 51 -56c25 0 41 3 49 9v-28c-17 -6 -35 -9 -54 -9c-51 0 -76 22 -76 83c0 29 8 50 29 68c20 18 32 24 65 41z" />
    <glyph glyph-name="tilde" unicode="&#x2dc;" horiz-adv-x="434" 
d="M111 780h-30c0 60 23 90 69 90c21 0 45 -12 74 -36c28 -24 49 -36 62 -36c25 0 37 21 37 62h30c0 -60 -23 -90 -69 -90c-21 0 -45 12 -73 36c-29 24 -50 36 -63 36c-25 0 -37 -21 -37 -62z" />
    <glyph glyph-name="hungarumlaut" unicode="&#x2dd;" horiz-adv-x="304" 
d="M130 886h35l-80 -136h-34zM218 886h35l-80 -136h-34z" />
    <glyph glyph-name="endash" unicode="&#x2013;" horiz-adv-x="382" 
d="M391 295h-400v30h400v-30z" />
    <glyph glyph-name="emdash" unicode="&#x2014;" horiz-adv-x="782" 
d="M791 295h-800v30h800v-30z" />
    <glyph glyph-name="quoteleft" unicode="&#x2018;" horiz-adv-x="170" 
d="M125 700l15 -5c-2 -20 -8 -49 -17 -88s-16 -65 -21 -78c-7 -20 -17 -30 -30 -30s-22 11 -22 26c0 11 10 38 29 81s35 75 46 94z" />
    <glyph glyph-name="quoteright" unicode="&#x2019;" horiz-adv-x="170" 
d="M45 499l-15 5c2 20 8 49 17 88s16 65 21 78c7 20 17 30 30 30s22 -11 22 -26c0 -11 -10 -38 -29 -81s-35 -75 -46 -94z" />
    <glyph glyph-name="quotesinglbase" unicode="&#x201a;" horiz-adv-x="170" 
d="M45 -135l-15 5c2 20 8 49 17 88s16 65 21 78c7 20 17 30 30 30s22 -11 22 -26c0 -11 -10 -38 -29 -81s-35 -75 -46 -94z" />
    <glyph glyph-name="quotedblleft" unicode="&#x201c;" horiz-adv-x="310" 
d="M125 700l15 -5c-2 -20 -8 -49 -17 -88s-16 -65 -21 -78c-7 -20 -17 -30 -30 -30s-22 11 -22 26c0 11 10 38 29 81s35 75 46 94zM265 700l15 -5c-2 -20 -8 -49 -17 -88s-16 -65 -21 -78c-7 -20 -17 -30 -30 -30s-22 11 -22 26c0 11 10 38 29 81s35 75 46 94z" />
    <glyph glyph-name="quotedblright" unicode="&#x201d;" horiz-adv-x="310" 
d="M45 499l-15 5c2 20 8 49 17 88s16 65 21 78c7 20 17 30 30 30s22 -11 22 -26c0 -11 -10 -38 -29 -81s-35 -75 -46 -94zM185 499l-15 5c2 20 8 49 17 88s16 65 21 78c7 20 17 30 30 30s22 -11 22 -26c0 -11 -10 -38 -29 -81s-35 -75 -46 -94z" />
    <glyph glyph-name="quotedblbase" unicode="&#x201e;" horiz-adv-x="300" 
d="M45 -135l-15 5c2 20 8 49 17 88s16 65 21 78c7 20 17 30 30 30s22 -11 22 -26c0 -11 -10 -38 -29 -81s-35 -75 -46 -94zM175 -135l-15 5c2 20 8 49 17 88s16 65 21 78c7 20 17 30 30 30s22 -11 22 -26c0 -11 -10 -38 -29 -81s-35 -75 -46 -94z" />
    <glyph glyph-name="dagger" unicode="&#x2020;" horiz-adv-x="422" 
d="M227 480h169v-30h-169v-520h-32v520h-169v30h169v140h32v-140z" />
    <glyph glyph-name="daggerdbl" unicode="&#x2021;" horiz-adv-x="452" 
d="M210 70h-169v30h169v350h-169v30h169v140h32v-140h169v-30h-169v-350h169v-30h-169v-140h-32v140z" />
    <glyph glyph-name="bullet" unicode="&#x2022;" horiz-adv-x="214" 
d="M158 360c27 -27 27 -75 0 -102s-75 -27 -102 0s-27 75 0 102s75 27 102 0z" />
    <glyph glyph-name="ellipsis" unicode="&#x2026;" horiz-adv-x="578" 
d="M464 6c-13 13 -13 37 0 50s37 13 50 0s13 -37 0 -50s-37 -13 -50 0zM264 6c-13 13 -13 37 0 50s37 13 50 0s13 -37 0 -50s-37 -13 -50 0zM64 6c-13 13 -13 37 0 50s37 13 50 0s13 -37 0 -50s-37 -13 -50 0z" />
    <glyph glyph-name="perthousand" unicode="&#x2030;" horiz-adv-x="1033" 
d="M839 308c93 0 139 -52 139 -157s-46 -157 -139 -157s-139 52 -139 157s46 157 139 157zM919 56c16 19 24 51 24 95s-8 76 -24 95c-17 19 -43 29 -80 29s-63 -10 -79 -29c-17 -19 -25 -51 -25 -95s8 -76 25 -95c16 -19 42 -29 79 -29s63 10 80 29zM165 0l337 650h39
l-338 -650h-38zM194 656c93 0 139 -52 139 -157s-46 -157 -139 -157s-139 52 -139 157s46 157 139 157zM274 404c16 19 24 51 24 95s-8 76 -24 95c-17 19 -43 29 -80 29s-63 -10 -79 -29c-17 -19 -25 -51 -25 -95s8 -76 25 -95c16 -19 42 -29 79 -29s63 10 80 29zM511 308
c93 0 139 -52 139 -157s-46 -157 -139 -157s-139 52 -139 157s46 157 139 157zM591 56c16 19 24 51 24 95s-8 76 -24 95c-17 19 -43 29 -80 29s-63 -10 -79 -29c-17 -19 -25 -51 -25 -95s8 -76 25 -95c16 -19 42 -29 79 -29s63 10 80 29z" />
    <glyph glyph-name="guilsinglleft" unicode="&#x2039;" horiz-adv-x="259" 
d="M86 215l132 -160h-38l-114 136c-22 27 -33 46 -33 59s11 32 33 59l114 136h38l-132 -160c-14 -17 -21 -28 -21 -35s7 -18 21 -35z" />
    <glyph glyph-name="guilsinglright" unicode="&#x203a;" horiz-adv-x="259" 
d="M193 191l-114 -136h-38l132 160c14 17 21 28 21 35s-7 18 -21 35l-132 160h38l114 -136c22 -27 33 -46 33 -59s-11 -32 -33 -59z" />
    <glyph glyph-name="fraction" unicode="&#x2044;" horiz-adv-x="268" 
d="M-9 -20l254 690h32l-254 -690h-32z" />
    <glyph glyph-name="Euro" unicode="&#x20ac;" horiz-adv-x="528" 
d="M93 385h-72v30h73c3 91 23 154 61 190c38 35 92 53 161 53c60 0 110 -9 151 -28l-8 -34c-46 18 -93 27 -142 27c-59 0 -103 -15 -134 -44s-48 -84 -52 -164h283l-8 -30h-276v-120h246l-7 -30h-238c7 -153 60 -208 189 -208c59 0 128 17 164 41v-38
c-43 -25 -94 -38 -153 -38c-72 0 -121 12 -165 45s-68 99 -72 198h-73v30h72v120z" />
    <glyph glyph-name="trademark" unicode="&#x2122;" horiz-adv-x="792" 
d="M741 595v-354h-30v338l-109 -294c-11 -31 -47 -31 -59 0l-113 294v-338h-30v354c0 17 7 25 20 25h4c14 0 24 -8 30 -23l119 -309l114 309c6 15 16 23 30 23h4c13 0 20 -8 20 -25zM21 620h296v-28h-133v-351h-30v351h-133v28z" />
    <glyph glyph-name="minus" unicode="&#x2212;" horiz-adv-x="550" 
d="M61 325h428v-30h-428v30z" />
    <glyph glyph-name="fi" unicode="&#xfb01;" horiz-adv-x="551" 
d="M94 455h-80v26l80 7v98c0 85 50 128 149 128c31 0 62 -6 93 -17v-33c-35 11 -67 17 -94 17c-73 0 -113 -27 -113 -95v-98h209v-33h-209v-455h-35v455zM470 0h-35v488h35v-488zM425 645c0 36 55 36 55 0c0 -35 -55 -35 -55 0z" />
    <glyph glyph-name="fl" unicode="&#xfb02;" horiz-adv-x="564" 
d="M94 455h-80v26l80 7v98c0 85 50 128 149 128c31 0 62 -6 93 -17v-33c-35 11 -67 17 -94 17c-73 0 -113 -27 -113 -95v-98h209v-33h-209v-455h-35v455zM425 112v588h35v-588c0 -55 19 -82 56 -82c15 0 26 2 34 6v-33c-9 -4 -20 -6 -33 -6c-55 0 -92 34 -92 115z" />
    <glyph glyph-name="Abreve" unicode="&#x102;" horiz-adv-x="574" 
d="M400 804v-20c0 -59 -38 -88 -115 -88s-115 29 -115 88v20h30v-20c0 -41 26 -60 85 -60s85 18 85 61v19h30zM553 0h-38l-66 233h-324l-66 -233h-38l155 543c13 47 28 78 43 93s37 22 68 22s54 -7 69 -22s29 -46 42 -93zM219 563l-84 -295h304l-84 295
c-13 48 -32 62 -68 62s-55 -14 -68 -62z" />
    <glyph glyph-name="gravecomb" unicode="&#x300;" horiz-adv-x="145" 
d="M122 536h-34l-80 136h35z" />
    <glyph glyph-name="abreve" unicode="&#x103;" horiz-adv-x="472" 
d="M348 648v-20c0 -59 -38 -88 -115 -88s-115 29 -115 88v20h30v-20c0 -41 26 -60 85 -60s85 18 85 61v19h30zM416 351v-203c0 -113 -63 -156 -203 -156c-45 0 -84 11 -117 34c-33 22 -50 58 -50 109c0 100 62 140 205 140h130v76c0 81 -51 112 -150 112
c-54 0 -101 -7 -141 -20v36c39 11 86 17 140 17c124 0 186 -48 186 -145zM381 148v96h-127c-120 0 -173 -27 -173 -110c0 -77 56 -109 132 -109c119 0 168 28 168 123z" />
    <glyph glyph-name="Itilde" unicode="&#x128;" horiz-adv-x="209" 
d="M3 706h-30c0 60 23 90 69 90c21 0 45 -12 74 -36c28 -24 49 -36 62 -36c25 0 37 21 37 62h30c0 -60 -23 -90 -69 -90c-21 0 -45 12 -73 36c-29 24 -50 36 -63 36c-25 0 -37 -21 -37 -62zM123 0h-37v650h37v-650z" />
    <glyph glyph-name="itilde" unicode="&#x129;" horiz-adv-x="197" 
d="M116 0h-35v488h35v-488zM0 550h-30c0 60 23 90 69 90c21 0 45 -12 74 -36c28 -24 49 -36 62 -36c25 0 37 21 37 62h30c0 -60 -23 -90 -69 -90c-21 0 -45 12 -73 36c-29 24 -50 36 -63 36c-25 0 -37 -21 -37 -62z" />
    <glyph glyph-name="Utilde" unicode="&#x168;" horiz-adv-x="606" 
d="M199 706h-30c0 60 23 90 69 90c21 0 45 -12 74 -36c28 -24 49 -36 62 -36c25 0 37 21 37 62h30c0 -60 -23 -90 -69 -90c-21 0 -45 12 -73 36c-29 24 -50 36 -63 36c-25 0 -37 -21 -37 -62zM71 192v458h37v-458c0 -120 60 -165 195 -165s195 45 195 165v458h37v-458
c0 -141 -79 -200 -232 -200s-232 59 -232 200z" />
    <glyph glyph-name="utilde" unicode="&#x169;" horiz-adv-x="502" 
d="M148 550h-30c0 60 23 90 69 90c21 0 45 -12 74 -36c28 -24 49 -36 62 -36c25 0 37 21 37 62h30c0 -60 -23 -90 -69 -90c-21 0 -45 12 -73 36c-29 24 -50 36 -63 36c-25 0 -37 -21 -37 -62zM56 488h35v-320c0 -96 41 -143 160 -143s160 47 160 143v320h35v-320
c0 -112 -54 -176 -195 -176s-195 64 -195 176v320z" />
    <glyph glyph-name="acutecomb" unicode="&#x301;" horiz-adv-x="126" 
d="M87 672h35l-80 -136h-34z" />
    <glyph glyph-name="uni0302" unicode="&#x302;" horiz-adv-x="205" 
d="M34 539h-36l44 73c25 43 35 54 62 54c25 0 37 -11 62 -54l45 -73h-36l-42 73c-11 19 -20 28 -29 28c-8 0 -17 -9 -28 -28z" />
    <glyph glyph-name="tildecomb" unicode="&#x303;" horiz-adv-x="262" 
d="M24 550h-30c0 60 23 90 69 90c21 0 45 -12 74 -36c28 -24 49 -36 62 -36c25 0 37 21 37 62h30c0 -60 -23 -90 -69 -90c-21 0 -45 12 -73 36c-29 24 -50 36 -63 36c-25 0 -37 -21 -37 -62z" />
    <glyph glyph-name="uni0306" unicode="&#x306;" horiz-adv-x="262" 
d="M247 648v-20c0 -59 -38 -88 -115 -88s-115 29 -115 88v20h30v-20c0 -41 26 -60 85 -60s85 18 85 61v19h30z" />
    <glyph glyph-name="hookabovecomb" unicode="&#x309;" horiz-adv-x="143" 
d="M128 624c0 -23 -13 -40 -37 -53c-22 -12 -22 -20 -22 -30h-26c0 54 56 42 56 83c0 20 -9 29 -32 29c-15 0 -28 -5 -35 -9v29c11 4 21 7 35 7c42 0 61 -18 61 -56z" />
    <glyph glyph-name="dotbelowcomb" unicode="&#x323;" horiz-adv-x="172" 
d="M58 -95c0 36 55 36 55 0c0 -35 -55 -35 -55 0z" />
    <glyph glyph-name="Uhorn" unicode="&#x1af;" horiz-adv-x="606" 
d="M71 192v458h37v-458c0 -120 60 -165 195 -165s195 45 195 165v458h37v-75c46 0 50 38 50 75h33c0 -34 -4 -110 -83 -110v-348c0 -141 -79 -200 -232 -200s-232 59 -232 200z" />
    <glyph glyph-name="ohorn" unicode="&#x1a1;" 
d="M420 44c-31 -35 -84 -52 -159 -52s-127 17 -158 52s-47 84 -47 149v102c0 129 56 201 205 201c93 0 150 -28 180 -81c31 8 34 41 34 73h33c0 -29 -3 -89 -54 -106c8 -25 12 -54 12 -87v-102c0 -65 -15 -114 -46 -149zM128 66c25 -27 69 -41 133 -41s108 14 133 41
s37 69 37 127v102c0 116 -42 168 -170 168s-170 -52 -170 -168v-102c0 -58 12 -100 37 -127z" />
    <glyph glyph-name="Ohorn" unicode="&#x1a0;" horiz-adv-x="602" 
d="M301 -8c-91 0 -153 21 -188 63c-35 41 -52 106 -52 195v150c0 89 18 154 53 196c35 41 97 62 187 62c91 0 153 -21 188 -62c5 -6 10 -13 14 -20c36 6 39 40 39 74h33c0 -30 -3 -91 -56 -107c14 -38 22 -85 22 -143v-150c0 -89 -17 -154 -52 -195
c-35 -42 -98 -63 -188 -63zM140 80c27 -35 81 -53 161 -53s134 18 162 53c27 35 41 92 41 170v150c0 78 -14 135 -41 170c-28 35 -82 53 -162 53s-134 -18 -161 -53c-28 -35 -42 -92 -42 -170v-150c0 -78 14 -135 42 -170z" />
    <glyph glyph-name="uhorn" unicode="&#x1b0;" horiz-adv-x="502" 
d="M56 488h35v-320c0 -96 41 -143 160 -143s160 47 160 143v320h35v-75c43 2 47 39 47 75h33c0 -34 -4 -108 -80 -110v-210c0 -112 -54 -176 -195 -176s-195 64 -195 176v320z" />
    <glyph glyph-name="uni1EA0" unicode="&#x1ea0;" horiz-adv-x="574" 
d="M553 0h-38l-66 233h-324l-66 -233h-38l155 543c13 47 28 78 43 93s37 22 68 22s54 -7 69 -22s29 -46 42 -93zM219 563l-84 -295h304l-84 295c-13 48 -32 62 -68 62s-55 -14 -68 -62zM257 -95c0 36 55 36 55 0c0 -35 -55 -35 -55 0z" />
    <glyph glyph-name="uni1EA1" unicode="&#x1ea1;" horiz-adv-x="472" 
d="M416 351v-203c0 -113 -63 -156 -203 -156c-45 0 -84 11 -117 34c-33 22 -50 58 -50 109c0 100 62 140 205 140h130v76c0 81 -51 112 -150 112c-54 0 -101 -7 -141 -20v36c39 11 86 17 140 17c124 0 186 -48 186 -145zM381 148v96h-127c-120 0 -173 -27 -173 -110
c0 -77 56 -109 132 -109c119 0 168 28 168 123zM218 -95c0 36 55 36 55 0c0 -35 -55 -35 -55 0z" />
    <glyph glyph-name="uni1EA2" unicode="&#x1ea2;" horiz-adv-x="574" 
d="M553 0h-38l-66 233h-324l-66 -233h-38l155 543c13 47 28 78 43 93s37 22 68 22s54 -7 69 -22s29 -46 42 -93zM219 563l-84 -295h304l-84 295c-13 48 -32 62 -68 62s-55 -14 -68 -62zM351 779c0 -23 -13 -40 -37 -53c-22 -12 -22 -20 -22 -30h-26c0 54 56 42 56 83
c0 20 -9 29 -32 29c-15 0 -28 -5 -35 -9v29c11 4 21 7 35 7c42 0 61 -18 61 -56z" />
    <glyph glyph-name="uni1EA3" unicode="&#x1ea3;" horiz-adv-x="472" 
d="M416 351v-203c0 -113 -63 -156 -203 -156c-45 0 -84 11 -117 34c-33 22 -50 58 -50 109c0 100 62 140 205 140h130v76c0 81 -51 112 -150 112c-54 0 -101 -7 -141 -20v36c39 11 86 17 140 17c124 0 186 -48 186 -145zM381 148v96h-127c-120 0 -173 -27 -173 -110
c0 -77 56 -109 132 -109c119 0 168 28 168 123zM305 622c0 -23 -13 -40 -37 -53c-22 -12 -22 -20 -22 -30h-26c0 54 56 42 56 83c0 20 -9 29 -32 29c-15 0 -28 -5 -35 -9v29c11 4 21 7 35 7c42 0 61 -18 61 -56z" />
    <glyph glyph-name="uni1EA4" unicode="&#x1ea4;" horiz-adv-x="574" 
d="M553 0h-38l-66 233h-324l-66 -233h-38l155 543c13 47 28 78 43 93s37 22 68 22s54 -7 69 -22s29 -46 42 -93zM219 563l-84 -295h304l-84 295c-13 48 -32 62 -68 62s-55 -14 -68 -62zM217 696h-36l44 73c25 43 35 54 62 54c25 0 37 -11 62 -54l45 -73h-36l-42 73
c-11 19 -20 28 -29 28c-8 0 -17 -9 -28 -28zM476 929h35l-80 -136h-34z" />
    <glyph glyph-name="uni1EA5" unicode="&#x1ea5;" horiz-adv-x="472" 
d="M416 351v-203c0 -113 -63 -156 -203 -156c-45 0 -84 11 -117 34c-33 22 -50 58 -50 109c0 100 62 140 205 140h130v76c0 81 -51 112 -150 112c-54 0 -101 -7 -141 -20v36c39 11 86 17 140 17c124 0 186 -48 186 -145zM381 148v96h-127c-120 0 -173 -27 -173 -110
c0 -77 56 -109 132 -109c119 0 168 28 168 123zM163 540h-36l44 73c25 43 35 54 62 54c25 0 37 -11 62 -54l45 -73h-36l-42 73c-11 19 -20 28 -29 28c-8 0 -17 -9 -28 -28zM423 773h35l-80 -136h-34z" />
    <glyph glyph-name="uni1EA6" unicode="&#x1ea6;" horiz-adv-x="574" 
d="M553 0h-38l-66 233h-324l-66 -233h-38l155 543c13 47 28 78 43 93s37 22 68 22s54 -7 69 -22s29 -46 42 -93zM219 563l-84 -295h304l-84 295c-13 48 -32 62 -68 62s-55 -14 -68 -62zM217 696h-36l44 73c25 43 35 54 62 54c25 0 37 -11 62 -54l45 -73h-36l-42 73
c-11 19 -20 28 -29 28c-8 0 -17 -9 -28 -28zM450 793h-34l-80 136h35z" />
    <glyph glyph-name="uni1EA7" unicode="&#x1ea7;" horiz-adv-x="472" 
d="M416 351v-203c0 -113 -63 -156 -203 -156c-45 0 -84 11 -117 34c-33 22 -50 58 -50 109c0 100 62 140 205 140h130v76c0 81 -51 112 -150 112c-54 0 -101 -7 -141 -20v36c39 11 86 17 140 17c124 0 186 -48 186 -145zM381 148v96h-127c-120 0 -173 -27 -173 -110
c0 -77 56 -109 132 -109c119 0 168 28 168 123zM163 540h-36l44 73c25 43 35 54 62 54c25 0 37 -11 62 -54l45 -73h-36l-42 73c-11 19 -20 28 -29 28c-8 0 -17 -9 -28 -28zM395 637h-34l-80 136h35z" />
    <glyph glyph-name="uni1EA8" unicode="&#x1ea8;" horiz-adv-x="574" 
d="M553 0h-38l-66 233h-324l-66 -233h-38l155 543c13 47 28 78 43 93s37 22 68 22s54 -7 69 -22s29 -46 42 -93zM219 563l-84 -295h304l-84 295c-13 48 -32 62 -68 62s-55 -14 -68 -62zM217 696h-36l44 73c25 43 35 54 62 54c25 0 37 -11 62 -54l45 -73h-36l-42 73
c-11 19 -20 28 -29 28c-8 0 -17 -9 -28 -28zM481 876c0 -23 -13 -40 -37 -53c-22 -12 -22 -20 -22 -30h-26c0 54 56 42 56 83c0 20 -9 29 -32 29c-15 0 -28 -5 -35 -9v29c11 4 21 7 35 7c42 0 61 -18 61 -56z" />
    <glyph glyph-name="uni1EA9" unicode="&#x1ea9;" horiz-adv-x="472" 
d="M416 351v-203c0 -113 -63 -156 -203 -156c-45 0 -84 11 -117 34c-33 22 -50 58 -50 109c0 100 62 140 205 140h130v76c0 81 -51 112 -150 112c-54 0 -101 -7 -141 -20v36c39 11 86 17 140 17c124 0 186 -48 186 -145zM381 148v96h-127c-120 0 -173 -27 -173 -110
c0 -77 56 -109 132 -109c119 0 168 28 168 123zM163 540h-36l44 73c25 43 35 54 62 54c25 0 37 -11 62 -54l45 -73h-36l-42 73c-11 19 -20 28 -29 28c-8 0 -17 -9 -28 -28zM430 720c0 -23 -13 -40 -37 -53c-22 -12 -22 -20 -22 -30h-26c0 54 56 42 56 83c0 20 -9 29 -32 29
c-15 0 -28 -5 -35 -9v29c11 4 21 7 35 7c42 0 61 -18 61 -56z" />
    <glyph glyph-name="uni1EAA" unicode="&#x1eaa;" horiz-adv-x="574" 
d="M553 0h-38l-66 233h-324l-66 -233h-38l155 543c13 47 28 78 43 93s37 22 68 22s54 -7 69 -22s29 -46 42 -93zM219 563l-84 -295h304l-84 295c-13 48 -32 62 -68 62s-55 -14 -68 -62zM217 696h-36l44 73c25 43 35 54 62 54c25 0 37 -11 62 -54l45 -73h-36l-42 73
c-11 19 -20 28 -29 28c-8 0 -17 -9 -28 -28zM231 833h-30c0 60 23 90 69 90c21 0 45 -12 74 -36c28 -24 49 -36 62 -36c25 0 37 21 37 62h30c0 -60 -23 -90 -69 -90c-21 0 -45 12 -73 36c-29 24 -50 36 -63 36c-25 0 -37 -21 -37 -62z" />
    <glyph glyph-name="uni1EAB" unicode="&#x1eab;" horiz-adv-x="472" 
d="M416 351v-203c0 -113 -63 -156 -203 -156c-45 0 -84 11 -117 34c-33 22 -50 58 -50 109c0 100 62 140 205 140h130v76c0 81 -51 112 -150 112c-54 0 -101 -7 -141 -20v36c39 11 86 17 140 17c124 0 186 -48 186 -145zM381 148v96h-127c-120 0 -173 -27 -173 -110
c0 -77 56 -109 132 -109c119 0 168 28 168 123zM163 540h-36l44 73c25 43 35 54 62 54c25 0 37 -11 62 -54l45 -73h-36l-42 73c-11 19 -20 28 -29 28c-8 0 -17 -9 -28 -28zM169 678h-30c0 60 23 90 69 90c21 0 45 -12 74 -36c28 -24 49 -36 62 -36c25 0 37 21 37 62h30
c0 -60 -23 -90 -69 -90c-21 0 -45 12 -73 36c-29 24 -50 36 -63 36c-25 0 -37 -21 -37 -62z" />
    <glyph glyph-name="uni1EAC" unicode="&#x1eac;" horiz-adv-x="574" 
d="M261 -101c0 36 55 36 55 0c0 -35 -55 -35 -55 0zM553 0h-38l-66 233h-324l-66 -233h-38l155 543c13 47 28 78 43 93s37 22 68 22s54 -7 69 -22s29 -46 42 -93zM219 563l-84 -295h304l-84 295c-13 48 -32 62 -68 62s-55 -14 -68 -62zM217 696h-36l44 73c25 43 35 54 62 54
c25 0 37 -11 62 -54l45 -73h-36l-42 73c-11 19 -20 28 -29 28c-8 0 -17 -9 -28 -28z" />
    <glyph glyph-name="uni1EAD" unicode="&#x1ead;" horiz-adv-x="472" 
d="M206 -101c0 36 55 36 55 0c0 -35 -55 -35 -55 0zM416 351v-203c0 -113 -63 -156 -203 -156c-45 0 -84 11 -117 34c-33 22 -50 58 -50 109c0 100 62 140 205 140h130v76c0 81 -51 112 -150 112c-54 0 -101 -7 -141 -20v36c39 11 86 17 140 17c124 0 186 -48 186 -145z
M381 148v96h-127c-120 0 -173 -27 -173 -110c0 -77 56 -109 132 -109c119 0 168 28 168 123zM163 540h-36l44 73c25 43 35 54 62 54c25 0 37 -11 62 -54l45 -73h-36l-42 73c-11 19 -20 28 -29 28c-8 0 -17 -9 -28 -28z" />
    <glyph glyph-name="uni1EAE" unicode="&#x1eae;" horiz-adv-x="574" 
d="M400 804v-20c0 -59 -38 -88 -115 -88s-115 29 -115 88v20h30v-20c0 -41 26 -60 85 -60s85 18 85 61v19h30zM553 0h-38l-66 233h-324l-66 -233h-38l155 543c13 47 28 78 43 93s37 22 68 22s54 -7 69 -22s29 -46 42 -93zM219 563l-84 -295h304l-84 295
c-13 48 -32 62 -68 62s-55 -14 -68 -62zM334 929h35l-80 -136h-34z" />
    <glyph glyph-name="uni1EAF" unicode="&#x1eaf;" horiz-adv-x="472" 
d="M348 648v-20c0 -59 -38 -88 -115 -88s-115 29 -115 88v20h30v-20c0 -41 26 -60 85 -60s85 18 85 61v19h30zM416 351v-203c0 -113 -63 -156 -203 -156c-45 0 -84 11 -117 34c-33 22 -50 58 -50 109c0 100 62 140 205 140h130v76c0 81 -51 112 -150 112
c-54 0 -101 -7 -141 -20v36c39 11 86 17 140 17c124 0 186 -48 186 -145zM381 148v96h-127c-120 0 -173 -27 -173 -110c0 -77 56 -109 132 -109c119 0 168 28 168 123zM290 773h35l-80 -136h-34z" />
    <glyph glyph-name="uni1EB0" unicode="&#x1eb0;" horiz-adv-x="574" 
d="M400 804v-20c0 -59 -38 -88 -115 -88s-115 29 -115 88v20h30v-20c0 -41 26 -60 85 -60s85 18 85 61v19h30zM553 0h-38l-66 233h-324l-66 -233h-38l155 543c13 47 28 78 43 93s37 22 68 22s54 -7 69 -22s29 -46 42 -93zM219 563l-84 -295h304l-84 295
c-13 48 -32 62 -68 62s-55 -14 -68 -62zM333 793h-34l-80 136h35z" />
    <glyph glyph-name="uni1EB1" unicode="&#x1eb1;" horiz-adv-x="472" 
d="M348 648v-20c0 -59 -38 -88 -115 -88s-115 29 -115 88v20h30v-20c0 -41 26 -60 85 -60s85 18 85 61v19h30zM416 351v-203c0 -113 -63 -156 -203 -156c-45 0 -84 11 -117 34c-33 22 -50 58 -50 109c0 100 62 140 205 140h130v76c0 81 -51 112 -150 112
c-54 0 -101 -7 -141 -20v36c39 11 86 17 140 17c124 0 186 -48 186 -145zM381 148v96h-127c-120 0 -173 -27 -173 -110c0 -77 56 -109 132 -109c119 0 168 28 168 123zM274 637h-34l-80 136h35z" />
    <glyph glyph-name="uni1EB2" unicode="&#x1eb2;" horiz-adv-x="574" 
d="M400 804v-20c0 -59 -38 -88 -115 -88s-115 29 -115 88v20h30v-20c0 -41 26 -60 85 -60s85 18 85 61v19h30zM553 0h-38l-66 233h-324l-66 -233h-38l155 543c13 47 28 78 43 93s37 22 68 22s54 -7 69 -22s29 -46 42 -93zM219 563l-84 -295h304l-84 295
c-13 48 -32 62 -68 62s-55 -14 -68 -62zM355 876c0 -23 -13 -40 -37 -53c-22 -12 -22 -20 -22 -30h-26c0 54 56 42 56 83c0 20 -9 29 -32 29c-15 0 -28 -5 -35 -9v29c11 4 21 7 35 7c42 0 61 -18 61 -56z" />
    <glyph glyph-name="uni1EB3" unicode="&#x1eb3;" horiz-adv-x="472" 
d="M348 648v-20c0 -59 -38 -88 -115 -88s-115 29 -115 88v20h30v-20c0 -41 26 -60 85 -60s85 18 85 61v19h30zM416 351v-203c0 -113 -63 -156 -203 -156c-45 0 -84 11 -117 34c-33 22 -50 58 -50 109c0 100 62 140 205 140h130v76c0 81 -51 112 -150 112
c-54 0 -101 -7 -141 -20v36c39 11 86 17 140 17c124 0 186 -48 186 -145zM381 148v96h-127c-120 0 -173 -27 -173 -110c0 -77 56 -109 132 -109c119 0 168 28 168 123zM306 720c0 -23 -13 -40 -37 -53c-22 -12 -22 -20 -22 -30h-26c0 54 56 42 56 83c0 20 -9 29 -32 29
c-15 0 -28 -5 -35 -9v29c11 4 21 7 35 7c42 0 61 -18 61 -56z" />
    <glyph glyph-name="uni1EB4" unicode="&#x1eb4;" horiz-adv-x="574" 
d="M400 804v-20c0 -59 -38 -88 -115 -88s-115 29 -115 88v20h30v-20c0 -41 26 -60 85 -60s85 18 85 61v19h30zM553 0h-38l-66 233h-324l-66 -233h-38l155 543c13 47 28 78 43 93s37 22 68 22s54 -7 69 -22s29 -46 42 -93zM219 563l-84 -295h304l-84 295
c-13 48 -32 62 -68 62s-55 -14 -68 -62zM311 814h-30c0 60 23 90 69 90c21 0 45 -12 74 -36c28 -24 49 -36 62 -36c25 0 37 21 37 62h30c0 -60 -23 -90 -69 -90c-21 0 -45 12 -73 36c-29 24 -50 36 -63 36c-25 0 -37 -21 -37 -62z" />
    <glyph glyph-name="uni1EB5" unicode="&#x1eb5;" horiz-adv-x="472" 
d="M348 648v-20c0 -59 -38 -88 -115 -88s-115 29 -115 88v20h30v-20c0 -41 26 -60 85 -60s85 18 85 61v19h30zM416 351v-203c0 -113 -63 -156 -203 -156c-45 0 -84 11 -117 34c-33 22 -50 58 -50 109c0 100 62 140 205 140h130v76c0 81 -51 112 -150 112
c-54 0 -101 -7 -141 -20v36c39 11 86 17 140 17c124 0 186 -48 186 -145zM381 148v96h-127c-120 0 -173 -27 -173 -110c0 -77 56 -109 132 -109c119 0 168 28 168 123zM255 658h-30c0 60 23 90 69 90c21 0 45 -12 74 -36c28 -24 49 -36 62 -36c25 0 37 21 37 62h30
c0 -60 -23 -90 -69 -90c-21 0 -45 12 -73 36c-29 24 -50 36 -63 36c-25 0 -37 -21 -37 -62z" />
    <glyph glyph-name="uni1EB6" unicode="&#x1eb6;" horiz-adv-x="574" 
d="M259 -95c0 36 55 36 55 0c0 -35 -55 -35 -55 0zM400 804v-20c0 -59 -38 -88 -115 -88s-115 29 -115 88v20h30v-20c0 -41 26 -60 85 -60s85 18 85 61v19h30zM553 0h-38l-66 233h-324l-66 -233h-38l155 543c13 47 28 78 43 93s37 22 68 22s54 -7 69 -22s29 -46 42 -93z
M219 563l-84 -295h304l-84 295c-13 48 -32 62 -68 62s-55 -14 -68 -62z" />
    <glyph glyph-name="uni1EB7" unicode="&#x1eb7;" horiz-adv-x="472" 
d="M216 -95c0 36 55 36 55 0c0 -35 -55 -35 -55 0zM348 648v-20c0 -59 -38 -88 -115 -88s-115 29 -115 88v20h30v-20c0 -41 26 -60 85 -60s85 18 85 61v19h30zM416 351v-203c0 -113 -63 -156 -203 -156c-45 0 -84 11 -117 34c-33 22 -50 58 -50 109c0 100 62 140 205 140
h130v76c0 81 -51 112 -150 112c-54 0 -101 -7 -141 -20v36c39 11 86 17 140 17c124 0 186 -48 186 -145zM381 148v96h-127c-120 0 -173 -27 -173 -110c0 -77 56 -109 132 -109c119 0 168 28 168 123z" />
    <glyph glyph-name="uni1EB8" unicode="&#x1eb8;" horiz-adv-x="512" 
d="M431 325h-313v-230c0 -41 17 -60 60 -60h293v-35h-290c-71 0 -100 31 -100 100v450c0 69 29 100 100 100h290v-35h-293c-43 0 -60 -19 -60 -60v-195h313v-35zM245 -95c0 36 55 36 55 0c0 -35 -55 -35 -55 0z" />
    <glyph glyph-name="uni1EB9" unicode="&#x1eb9;" horiz-adv-x="497" 
d="M446 308c0 -31 -2 -57 -6 -79h-349v-40c0 -120 50 -164 173 -164c64 0 119 10 165 30v-33c-49 -20 -103 -30 -163 -30c-143 0 -210 58 -210 202v102c0 133 65 200 196 200c123 0 194 -63 194 -188zM91 308v-46h322v46c0 103 -54 155 -161 155s-161 -52 -161 -155z
M211 -95c0 36 55 36 55 0c0 -35 -55 -35 -55 0z" />
    <glyph glyph-name="uni1EBA" unicode="&#x1eba;" horiz-adv-x="512" 
d="M431 325h-313v-230c0 -41 17 -60 60 -60h293v-35h-290c-71 0 -100 31 -100 100v450c0 69 29 100 100 100h290v-35h-293c-43 0 -60 -19 -60 -60v-195h313v-35zM339 780c0 -23 -13 -40 -37 -53c-22 -12 -22 -20 -22 -30h-26c0 54 56 42 56 83c0 20 -9 29 -32 29
c-15 0 -28 -5 -35 -9v29c11 4 21 7 35 7c42 0 61 -18 61 -56z" />
    <glyph glyph-name="uni1EBB" unicode="&#x1ebb;" horiz-adv-x="497" 
d="M446 308c0 -31 -2 -57 -6 -79h-349v-40c0 -120 50 -164 173 -164c64 0 119 10 165 30v-33c-49 -20 -103 -30 -163 -30c-143 0 -210 58 -210 202v102c0 133 65 200 196 200c123 0 194 -63 194 -188zM91 308v-46h322v46c0 103 -54 155 -161 155s-161 -52 -161 -155z
M327 624c0 -23 -13 -40 -37 -53c-22 -12 -22 -20 -22 -30h-26c0 54 56 42 56 83c0 20 -9 29 -32 29c-15 0 -28 -5 -35 -9v29c11 4 21 7 35 7c42 0 61 -18 61 -56z" />
    <glyph glyph-name="Etilde" unicode="&#x1ebc;" horiz-adv-x="512" 
d="M431 325h-313v-230c0 -41 17 -60 60 -60h293v-35h-290c-71 0 -100 31 -100 100v450c0 69 29 100 100 100h290v-35h-293c-43 0 -60 -19 -60 -60v-195h313v-35zM194 706h-30c0 60 23 90 69 90c21 0 45 -12 74 -36c28 -24 49 -36 62 -36c25 0 37 21 37 62h30
c0 -60 -23 -90 -69 -90c-21 0 -45 12 -73 36c-29 24 -50 36 -63 36c-25 0 -37 -21 -37 -62z" />
    <glyph glyph-name="etilde" unicode="&#x1ebd;" horiz-adv-x="497" 
d="M446 308c0 -31 -2 -57 -6 -79h-349v-40c0 -120 50 -164 173 -164c64 0 119 10 165 30v-33c-49 -20 -103 -30 -163 -30c-143 0 -210 58 -210 202v102c0 133 65 200 196 200c123 0 194 -63 194 -188zM91 308v-46h322v46c0 103 -54 155 -161 155s-161 -52 -161 -155z
M148 550h-30c0 60 23 90 69 90c21 0 45 -12 74 -36c28 -24 49 -36 62 -36c25 0 37 21 37 62h30c0 -60 -23 -90 -69 -90c-21 0 -45 12 -73 36c-29 24 -50 36 -63 36c-25 0 -37 -21 -37 -62z" />
    <glyph glyph-name="uni1EBE" unicode="&#x1ebe;" horiz-adv-x="512" 
d="M431 325h-313v-230c0 -41 17 -60 60 -60h293v-35h-290c-71 0 -100 31 -100 100v450c0 69 29 100 100 100h290v-35h-293c-43 0 -60 -19 -60 -60v-195h313v-35zM206 697h-36l44 73c25 43 35 54 62 54c25 0 37 -11 62 -54l45 -73h-36l-42 73c-11 19 -20 28 -29 28
c-8 0 -17 -9 -28 -28zM461 929h35l-80 -136h-34z" />
    <glyph glyph-name="uni1EBF" unicode="&#x1ebf;" horiz-adv-x="497" 
d="M446 308c0 -31 -2 -57 -6 -79h-349v-40c0 -120 50 -164 173 -164c64 0 119 10 165 30v-33c-49 -20 -103 -30 -163 -30c-143 0 -210 58 -210 202v102c0 133 65 200 196 200c123 0 194 -63 194 -188zM91 308v-46h322v46c0 103 -54 155 -161 155s-161 -52 -161 -155z
M181 540h-36l44 73c25 43 35 54 62 54c25 0 37 -11 62 -54l45 -73h-36l-42 73c-11 19 -20 28 -29 28c-8 0 -17 -9 -28 -28zM435 773h35l-80 -136h-34z" />
    <glyph glyph-name="uni1EC0" unicode="&#x1ec0;" horiz-adv-x="512" 
d="M431 325h-313v-230c0 -41 17 -60 60 -60h293v-35h-290c-71 0 -100 31 -100 100v450c0 69 29 100 100 100h290v-35h-293c-43 0 -60 -19 -60 -60v-195h313v-35zM206 697h-36l44 73c25 43 35 54 62 54c25 0 37 -11 62 -54l45 -73h-36l-42 73c-11 19 -20 28 -29 28
c-8 0 -17 -9 -28 -28zM441 793h-34l-80 136h35z" />
    <glyph glyph-name="uni1EC1" unicode="&#x1ec1;" horiz-adv-x="497" 
d="M446 308c0 -31 -2 -57 -6 -79h-349v-40c0 -120 50 -164 173 -164c64 0 119 10 165 30v-33c-49 -20 -103 -30 -163 -30c-143 0 -210 58 -210 202v102c0 133 65 200 196 200c123 0 194 -63 194 -188zM91 308v-46h322v46c0 103 -54 155 -161 155s-161 -52 -161 -155z
M181 540h-36l44 73c25 43 35 54 62 54c25 0 37 -11 62 -54l45 -73h-36l-42 73c-11 19 -20 28 -29 28c-8 0 -17 -9 -28 -28zM413 637h-34l-80 136h35z" />
    <glyph glyph-name="uni1EC2" unicode="&#x1ec2;" horiz-adv-x="512" 
d="M431 325h-313v-230c0 -41 17 -60 60 -60h293v-35h-290c-71 0 -100 31 -100 100v450c0 69 29 100 100 100h290v-35h-293c-43 0 -60 -19 -60 -60v-195h313v-35zM206 697h-36l44 73c25 43 35 54 62 54c25 0 37 -11 62 -54l45 -73h-36l-42 73c-11 19 -20 28 -29 28
c-8 0 -17 -9 -28 -28zM469 875c0 -23 -13 -40 -37 -53c-22 -12 -22 -20 -22 -30h-26c0 54 56 42 56 83c0 20 -9 29 -32 29c-15 0 -28 -5 -35 -9v29c11 4 21 7 35 7c42 0 61 -18 61 -56z" />
    <glyph glyph-name="uni1EC3" unicode="&#x1ec3;" horiz-adv-x="497" 
d="M446 308c0 -31 -2 -57 -6 -79h-349v-40c0 -120 50 -164 173 -164c64 0 119 10 165 30v-33c-49 -20 -103 -30 -163 -30c-143 0 -210 58 -210 202v102c0 133 65 200 196 200c123 0 194 -63 194 -188zM91 308v-46h322v46c0 103 -54 155 -161 155s-161 -52 -161 -155z
M181 540h-36l44 73c25 43 35 54 62 54c25 0 37 -11 62 -54l45 -73h-36l-42 73c-11 19 -20 28 -29 28c-8 0 -17 -9 -28 -28zM444 720c0 -23 -13 -40 -37 -53c-22 -12 -22 -20 -22 -30h-26c0 54 56 42 56 83c0 20 -9 29 -32 29c-15 0 -28 -5 -35 -9v29c11 4 21 7 35 7
c42 0 61 -18 61 -56z" />
    <glyph glyph-name="uni1EC4" unicode="&#x1ec4;" horiz-adv-x="512" 
d="M431 325h-313v-230c0 -41 17 -60 60 -60h293v-35h-290c-71 0 -100 31 -100 100v450c0 69 29 100 100 100h290v-35h-293c-43 0 -60 -19 -60 -60v-195h313v-35zM206 697h-36l44 73c25 43 35 54 62 54c25 0 37 -11 62 -54l45 -73h-36l-42 73c-11 19 -20 28 -29 28
c-8 0 -17 -9 -28 -28zM214 834h-30c0 60 23 90 69 90c21 0 45 -12 74 -36c28 -24 49 -36 62 -36c25 0 37 21 37 62h30c0 -60 -23 -90 -69 -90c-21 0 -45 12 -73 36c-29 24 -50 36 -63 36c-25 0 -37 -21 -37 -62z" />
    <glyph glyph-name="uni1EC5" unicode="&#x1ec5;" horiz-adv-x="497" 
d="M446 308c0 -31 -2 -57 -6 -79h-349v-40c0 -120 50 -164 173 -164c64 0 119 10 165 30v-33c-49 -20 -103 -30 -163 -30c-143 0 -210 58 -210 202v102c0 133 65 200 196 200c123 0 194 -63 194 -188zM91 308v-46h322v46c0 103 -54 155 -161 155s-161 -52 -161 -155z
M181 540h-36l44 73c25 43 35 54 62 54c25 0 37 -11 62 -54l45 -73h-36l-42 73c-11 19 -20 28 -29 28c-8 0 -17 -9 -28 -28zM188 677h-30c0 60 23 90 69 90c21 0 45 -12 74 -36c28 -24 49 -36 62 -36c25 0 37 21 37 62h30c0 -60 -23 -90 -69 -90c-21 0 -45 12 -73 36
c-29 24 -50 36 -63 36c-25 0 -37 -21 -37 -62z" />
    <glyph glyph-name="uni1EC6" unicode="&#x1ec6;" horiz-adv-x="512" 
d="M249 -95c0 36 55 36 55 0c0 -35 -55 -35 -55 0zM431 325h-313v-230c0 -41 17 -60 60 -60h293v-35h-290c-71 0 -100 31 -100 100v450c0 69 29 100 100 100h290v-35h-293c-43 0 -60 -19 -60 -60v-195h313v-35zM206 697h-36l44 73c25 43 35 54 62 54c25 0 37 -11 62 -54
l45 -73h-36l-42 73c-11 19 -20 28 -29 28c-8 0 -17 -9 -28 -28z" />
    <glyph glyph-name="uni1EC7" unicode="&#x1ec7;" horiz-adv-x="497" 
d="M446 308c0 -31 -2 -57 -6 -79h-349v-40c0 -120 50 -164 173 -164c64 0 119 10 165 30v-33c-49 -20 -103 -30 -163 -30c-143 0 -210 58 -210 202v102c0 133 65 200 196 200c123 0 194 -63 194 -188zM91 308v-46h322v46c0 103 -54 155 -161 155s-161 -52 -161 -155z
M181 540h-36l44 73c25 43 35 54 62 54c25 0 37 -11 62 -54l45 -73h-36l-42 73c-11 19 -20 28 -29 28c-8 0 -17 -9 -28 -28zM223 -95c0 36 55 36 55 0c0 -35 -55 -35 -55 0z" />
    <glyph glyph-name="uni1EC8" unicode="&#x1ec8;" horiz-adv-x="209" 
d="M143 0h-37v650h37v-650zM195 779c0 -23 -13 -40 -37 -53c-22 -12 -22 -20 -22 -30h-26c0 54 56 42 56 83c0 20 -9 29 -32 29c-15 0 -28 -5 -35 -9v29c11 4 21 7 35 7c42 0 61 -18 61 -56z" />
    <glyph glyph-name="uni1EC9" unicode="&#x1ec9;" horiz-adv-x="197" 
d="M182 624c0 -23 -13 -40 -37 -53c-22 -12 -22 -20 -22 -30h-26c0 54 56 42 56 83c0 20 -9 29 -32 29c-15 0 -28 -5 -35 -9v29c11 4 21 7 35 7c42 0 61 -18 61 -56zM134 0h-35v488h35v-488z" />
    <glyph glyph-name="uni1ECA" unicode="&#x1eca;" horiz-adv-x="209" 
d="M124 0h-37v650h37v-650zM77 -95c0 36 55 36 55 0c0 -35 -55 -35 -55 0z" />
    <glyph glyph-name="uni1ECB" unicode="&#x1ecb;" horiz-adv-x="197" 
d="M121 0h-35v488h35v-488zM76 645c0 36 55 36 55 0c0 -35 -55 -35 -55 0zM78 -95c0 36 55 36 55 0c0 -35 -55 -35 -55 0z" />
    <glyph glyph-name="uni1ECC" unicode="&#x1ecc;" horiz-adv-x="602" 
d="M140 80c27 -35 81 -53 161 -53s134 18 162 53c27 35 41 92 41 170v150c0 78 -14 135 -41 170c-28 35 -82 53 -162 53s-134 -18 -161 -53c-28 -35 -42 -92 -42 -170v-150c0 -78 14 -135 42 -170zM301 -8c-91 0 -153 21 -188 63c-35 41 -52 106 -52 195v150
c0 89 18 154 53 196c35 41 97 62 187 62c91 0 153 -21 188 -62c35 -42 52 -107 52 -196v-150c0 -89 -17 -154 -52 -195c-35 -42 -98 -63 -188 -63zM280 -95c0 36 55 36 55 0c0 -35 -55 -35 -55 0z" />
    <glyph glyph-name="uni1ECD" unicode="&#x1ecd;" 
d="M128 66c25 -27 69 -41 133 -41s108 14 133 41s37 69 37 127v102c0 116 -42 168 -170 168s-170 -52 -170 -168v-102c0 -58 12 -100 37 -127zM420 44c-31 -35 -84 -52 -159 -52s-127 17 -158 52s-47 84 -47 149v102c0 129 56 201 205 201s205 -72 205 -201v-102
c0 -65 -15 -114 -46 -149zM235 -95c0 36 55 36 55 0c0 -35 -55 -35 -55 0z" />
    <glyph glyph-name="uni1ECE" unicode="&#x1ece;" horiz-adv-x="602" 
d="M140 80c27 -35 81 -53 161 -53s134 18 162 53c27 35 41 92 41 170v150c0 78 -14 135 -41 170c-28 35 -82 53 -162 53s-134 -18 -161 -53c-28 -35 -42 -92 -42 -170v-150c0 -78 14 -135 42 -170zM301 -8c-91 0 -153 21 -188 63c-35 41 -52 106 -52 195v150
c0 89 18 154 53 196c35 41 97 62 187 62c91 0 153 -21 188 -62c35 -42 52 -107 52 -196v-150c0 -89 -17 -154 -52 -195c-35 -42 -98 -63 -188 -63zM382 779c0 -23 -13 -40 -37 -53c-22 -12 -22 -20 -22 -30h-26c0 54 56 42 56 83c0 20 -9 29 -32 29c-15 0 -28 -5 -35 -9v29
c11 4 21 7 35 7c42 0 61 -18 61 -56z" />
    <glyph glyph-name="uni1ECF" unicode="&#x1ecf;" 
d="M128 66c25 -27 69 -41 133 -41s108 14 133 41s37 69 37 127v102c0 116 -42 168 -170 168s-170 -52 -170 -168v-102c0 -58 12 -100 37 -127zM420 44c-31 -35 -84 -52 -159 -52s-127 17 -158 52s-47 84 -47 149v102c0 129 56 201 205 201s205 -72 205 -201v-102
c0 -65 -15 -114 -46 -149zM345 622c0 -23 -13 -40 -37 -53c-22 -12 -22 -20 -22 -30h-26c0 54 56 42 56 83c0 20 -9 29 -32 29c-15 0 -28 -5 -35 -9v29c11 4 21 7 35 7c42 0 61 -18 61 -56z" />
    <glyph glyph-name="uni1ED0" unicode="&#x1ed0;" horiz-adv-x="602" 
d="M140 80c27 -35 81 -53 161 -53s134 18 162 53c27 35 41 92 41 170v150c0 78 -14 135 -41 170c-28 35 -82 53 -162 53s-134 -18 -161 -53c-28 -35 -42 -92 -42 -170v-150c0 -78 14 -135 42 -170zM301 -8c-91 0 -153 21 -188 63c-35 41 -52 106 -52 195v150
c0 89 18 154 53 196c35 41 97 62 187 62c91 0 153 -21 188 -62c35 -42 52 -107 52 -196v-150c0 -89 -17 -154 -52 -195c-35 -42 -98 -63 -188 -63zM226 697h-36l44 73c25 43 35 54 62 54c25 0 37 -11 62 -54l45 -73h-36l-42 73c-11 19 -20 28 -29 28c-8 0 -17 -9 -28 -28z
M483 929h35l-80 -136h-34z" />
    <glyph glyph-name="uni1ED1" unicode="&#x1ed1;" 
d="M128 66c25 -27 69 -41 133 -41s108 14 133 41s37 69 37 127v102c0 116 -42 168 -170 168s-170 -52 -170 -168v-102c0 -58 12 -100 37 -127zM420 44c-31 -35 -84 -52 -159 -52s-127 17 -158 52s-47 84 -47 149v102c0 129 56 201 205 201s205 -72 205 -201v-102
c0 -65 -15 -114 -46 -149zM191 540h-36l44 73c25 43 35 54 62 54c25 0 37 -11 62 -54l45 -73h-36l-42 73c-11 19 -20 28 -29 28c-8 0 -17 -9 -28 -28zM450 772h35l-80 -136h-34z" />
    <glyph glyph-name="uni1ED2" unicode="&#x1ed2;" horiz-adv-x="602" 
d="M140 80c27 -35 81 -53 161 -53s134 18 162 53c27 35 41 92 41 170v150c0 78 -14 135 -41 170c-28 35 -82 53 -162 53s-134 -18 -161 -53c-28 -35 -42 -92 -42 -170v-150c0 -78 14 -135 42 -170zM301 -8c-91 0 -153 21 -188 63c-35 41 -52 106 -52 195v150
c0 89 18 154 53 196c35 41 97 62 187 62c91 0 153 -21 188 -62c35 -42 52 -107 52 -196v-150c0 -89 -17 -154 -52 -195c-35 -42 -98 -63 -188 -63zM226 697h-36l44 73c25 43 35 54 62 54c25 0 37 -11 62 -54l45 -73h-36l-42 73c-11 19 -20 28 -29 28c-8 0 -17 -9 -28 -28z
M460 792h-34l-80 136h35z" />
    <glyph glyph-name="uni1ED3" unicode="&#x1ed3;" 
d="M128 66c25 -27 69 -41 133 -41s108 14 133 41s37 69 37 127v102c0 116 -42 168 -170 168s-170 -52 -170 -168v-102c0 -58 12 -100 37 -127zM420 44c-31 -35 -84 -52 -159 -52s-127 17 -158 52s-47 84 -47 149v102c0 129 56 201 205 201s205 -72 205 -201v-102
c0 -65 -15 -114 -46 -149zM191 540h-36l44 73c25 43 35 54 62 54c25 0 37 -11 62 -54l45 -73h-36l-42 73c-11 19 -20 28 -29 28c-8 0 -17 -9 -28 -28zM424 636h-34l-80 136h35z" />
    <glyph glyph-name="uni1ED4" unicode="&#x1ed4;" horiz-adv-x="602" 
d="M140 80c27 -35 81 -53 161 -53s134 18 162 53c27 35 41 92 41 170v150c0 78 -14 135 -41 170c-28 35 -82 53 -162 53s-134 -18 -161 -53c-28 -35 -42 -92 -42 -170v-150c0 -78 14 -135 42 -170zM301 -8c-91 0 -153 21 -188 63c-35 41 -52 106 -52 195v150
c0 89 18 154 53 196c35 41 97 62 187 62c91 0 153 -21 188 -62c35 -42 52 -107 52 -196v-150c0 -89 -17 -154 -52 -195c-35 -42 -98 -63 -188 -63zM226 697h-36l44 73c25 43 35 54 62 54c25 0 37 -11 62 -54l45 -73h-36l-42 73c-11 19 -20 28 -29 28c-8 0 -17 -9 -28 -28z
M485 875c0 -23 -13 -40 -37 -53c-22 -12 -22 -20 -22 -30h-26c0 54 56 42 56 83c0 20 -9 29 -32 29c-15 0 -28 -5 -35 -9v29c11 4 21 7 35 7c42 0 61 -18 61 -56z" />
    <glyph glyph-name="uni1ED5" unicode="&#x1ed5;" 
d="M128 66c25 -27 69 -41 133 -41s108 14 133 41s37 69 37 127v102c0 116 -42 168 -170 168s-170 -52 -170 -168v-102c0 -58 12 -100 37 -127zM420 44c-31 -35 -84 -52 -159 -52s-127 17 -158 52s-47 84 -47 149v102c0 129 56 201 205 201s205 -72 205 -201v-102
c0 -65 -15 -114 -46 -149zM191 540h-36l44 73c25 43 35 54 62 54c25 0 37 -11 62 -54l45 -73h-36l-42 73c-11 19 -20 28 -29 28c-8 0 -17 -9 -28 -28zM460 720c0 -23 -13 -40 -37 -53c-22 -12 -22 -20 -22 -30h-26c0 54 56 42 56 83c0 20 -9 29 -32 29c-15 0 -28 -5 -35 -9
v29c11 4 21 7 35 7c42 0 61 -18 61 -56z" />
    <glyph glyph-name="uni1ED6" unicode="&#x1ed6;" horiz-adv-x="602" 
d="M140 80c27 -35 81 -53 161 -53s134 18 162 53c27 35 41 92 41 170v150c0 78 -14 135 -41 170c-28 35 -82 53 -162 53s-134 -18 -161 -53c-28 -35 -42 -92 -42 -170v-150c0 -78 14 -135 42 -170zM301 -8c-91 0 -153 21 -188 63c-35 41 -52 106 -52 195v150
c0 89 18 154 53 196c35 41 97 62 187 62c91 0 153 -21 188 -62c35 -42 52 -107 52 -196v-150c0 -89 -17 -154 -52 -195c-35 -42 -98 -63 -188 -63zM226 697h-36l44 73c25 43 35 54 62 54c25 0 37 -11 62 -54l45 -73h-36l-42 73c-11 19 -20 28 -29 28c-8 0 -17 -9 -28 -28z
M233 834h-30c0 60 23 90 69 90c21 0 45 -12 74 -36c28 -24 49 -36 62 -36c25 0 37 21 37 62h30c0 -60 -23 -90 -69 -90c-21 0 -45 12 -73 36c-29 24 -50 36 -63 36c-25 0 -37 -21 -37 -62z" />
    <glyph glyph-name="uni1ED7" unicode="&#x1ed7;" 
d="M128 66c25 -27 69 -41 133 -41s108 14 133 41s37 69 37 127v102c0 116 -42 168 -170 168s-170 -52 -170 -168v-102c0 -58 12 -100 37 -127zM420 44c-31 -35 -84 -52 -159 -52s-127 17 -158 52s-47 84 -47 149v102c0 129 56 201 205 201s205 -72 205 -201v-102
c0 -65 -15 -114 -46 -149zM191 540h-36l44 73c25 43 35 54 62 54c25 0 37 -11 62 -54l45 -73h-36l-42 73c-11 19 -20 28 -29 28c-8 0 -17 -9 -28 -28zM200 678h-30c0 60 23 90 69 90c21 0 45 -12 74 -36c28 -24 49 -36 62 -36c25 0 37 21 37 62h30c0 -60 -23 -90 -69 -90
c-21 0 -45 12 -73 36c-29 24 -50 36 -63 36c-25 0 -37 -21 -37 -62z" />
    <glyph glyph-name="uni1ED8" unicode="&#x1ed8;" horiz-adv-x="602" 
d="M271 -95c0 36 55 36 55 0c0 -35 -55 -35 -55 0zM140 80c27 -35 81 -53 161 -53s134 18 162 53c27 35 41 92 41 170v150c0 78 -14 135 -41 170c-28 35 -82 53 -162 53s-134 -18 -161 -53c-28 -35 -42 -92 -42 -170v-150c0 -78 14 -135 42 -170zM301 -8
c-91 0 -153 21 -188 63c-35 41 -52 106 -52 195v150c0 89 18 154 53 196c35 41 97 62 187 62c91 0 153 -21 188 -62c35 -42 52 -107 52 -196v-150c0 -89 -17 -154 -52 -195c-35 -42 -98 -63 -188 -63zM226 697h-36l44 73c25 43 35 54 62 54c25 0 37 -11 62 -54l45 -73h-36
l-42 73c-11 19 -20 28 -29 28c-8 0 -17 -9 -28 -28z" />
    <glyph glyph-name="uni1ED9" unicode="&#x1ed9;" 
d="M240 -95c0 36 55 36 55 0c0 -35 -55 -35 -55 0zM128 66c25 -27 69 -41 133 -41s108 14 133 41s37 69 37 127v102c0 116 -42 168 -170 168s-170 -52 -170 -168v-102c0 -58 12 -100 37 -127zM420 44c-31 -35 -84 -52 -159 -52s-127 17 -158 52s-47 84 -47 149v102
c0 129 56 201 205 201s205 -72 205 -201v-102c0 -65 -15 -114 -46 -149zM191 540h-36l44 73c25 43 35 54 62 54c25 0 37 -11 62 -54l45 -73h-36l-42 73c-11 19 -20 28 -29 28c-8 0 -17 -9 -28 -28z" />
    <glyph glyph-name="uni1EDA" unicode="&#x1eda;" horiz-adv-x="602" 
d="M301 -8c-91 0 -153 21 -188 63c-35 41 -52 106 -52 195v150c0 89 18 154 53 196c35 41 97 62 187 62c91 0 153 -21 188 -62c5 -6 10 -13 14 -20c36 6 39 40 39 74h33c0 -30 -3 -91 -56 -107c14 -38 22 -85 22 -143v-150c0 -89 -17 -154 -52 -195
c-35 -42 -98 -63 -188 -63zM140 80c27 -35 81 -53 161 -53s134 18 162 53c27 35 41 92 41 170v150c0 78 -14 135 -41 170c-28 35 -82 53 -162 53s-134 -18 -161 -53c-28 -35 -42 -92 -42 -170v-150c0 -78 14 -135 42 -170zM369 832h35l-80 -136h-34z" />
    <glyph glyph-name="uni1EDB" unicode="&#x1edb;" 
d="M327 676h35l-80 -136h-34zM420 44c-31 -35 -84 -52 -159 -52s-127 17 -158 52s-47 84 -47 149v102c0 129 56 201 205 201c93 0 150 -28 180 -81c31 8 34 41 34 73h33c0 -29 -3 -89 -54 -106c8 -25 12 -54 12 -87v-102c0 -65 -15 -114 -46 -149zM128 66
c25 -27 69 -41 133 -41s108 14 133 41s37 69 37 127v102c0 116 -42 168 -170 168s-170 -52 -170 -168v-102c0 -58 12 -100 37 -127z" />
    <glyph glyph-name="uni1EDC" unicode="&#x1edc;" horiz-adv-x="602" 
d="M301 -8c-91 0 -153 21 -188 63c-35 41 -52 106 -52 195v150c0 89 18 154 53 196c35 41 97 62 187 62c91 0 153 -21 188 -62c5 -6 10 -13 14 -20c36 6 39 40 39 74h33c0 -30 -3 -91 -56 -107c14 -38 22 -85 22 -143v-150c0 -89 -17 -154 -52 -195
c-35 -42 -98 -63 -188 -63zM140 80c27 -35 81 -53 161 -53s134 18 162 53c27 35 41 92 41 170v150c0 78 -14 135 -41 170c-28 35 -82 53 -162 53s-134 -18 -161 -53c-28 -35 -42 -92 -42 -170v-150c0 -78 14 -135 42 -170zM381 696h-34l-80 136h35z" />
    <glyph glyph-name="uni1EDD" unicode="&#x1edd;" 
d="M325 540h-34l-80 136h35zM420 44c-31 -35 -84 -52 -159 -52s-127 17 -158 52s-47 84 -47 149v102c0 129 56 201 205 201c93 0 150 -28 180 -81c31 8 34 41 34 73h33c0 -29 -3 -89 -54 -106c8 -25 12 -54 12 -87v-102c0 -65 -15 -114 -46 -149zM128 66
c25 -27 69 -41 133 -41s108 14 133 41s37 69 37 127v102c0 116 -42 168 -170 168s-170 -52 -170 -168v-102c0 -58 12 -100 37 -127z" />
    <glyph glyph-name="uni1EDE" unicode="&#x1ede;" horiz-adv-x="602" 
d="M301 -8c-91 0 -153 21 -188 63c-35 41 -52 106 -52 195v150c0 89 18 154 53 196c35 41 97 62 187 62c91 0 153 -21 188 -62c5 -6 10 -13 14 -20c36 6 39 40 39 74h33c0 -30 -3 -91 -56 -107c14 -38 22 -85 22 -143v-150c0 -89 -17 -154 -52 -195
c-35 -42 -98 -63 -188 -63zM140 80c27 -35 81 -53 161 -53s134 18 162 53c27 35 41 92 41 170v150c0 78 -14 135 -41 170c-28 35 -82 53 -162 53s-134 -18 -161 -53c-28 -35 -42 -92 -42 -170v-150c0 -78 14 -135 42 -170zM381 778c0 -23 -13 -40 -37 -53
c-22 -12 -22 -20 -22 -30h-26c0 54 56 42 56 83c0 20 -9 29 -32 29c-15 0 -28 -5 -35 -9v29c11 4 21 7 35 7c42 0 61 -18 61 -56z" />
    <glyph glyph-name="uni1EDF" unicode="&#x1edf;" 
d="M338 623c0 -23 -13 -40 -37 -53c-22 -12 -22 -20 -22 -30h-26c0 54 56 42 56 83c0 20 -9 29 -32 29c-15 0 -28 -5 -35 -9v29c11 4 21 7 35 7c42 0 61 -18 61 -56zM420 44c-31 -35 -84 -52 -159 -52s-127 17 -158 52s-47 84 -47 149v102c0 129 56 201 205 201
c93 0 150 -28 180 -81c31 8 34 41 34 73h33c0 -29 -3 -89 -54 -106c8 -25 12 -54 12 -87v-102c0 -65 -15 -114 -46 -149zM128 66c25 -27 69 -41 133 -41s108 14 133 41s37 69 37 127v102c0 116 -42 168 -170 168s-170 -52 -170 -168v-102c0 -58 12 -100 37 -127z" />
    <glyph glyph-name="uni1EE0" unicode="&#x1ee0;" horiz-adv-x="602" 
d="M301 -8c-91 0 -153 21 -188 63c-35 41 -52 106 -52 195v150c0 89 18 154 53 196c35 41 97 62 187 62c91 0 153 -21 188 -62c5 -6 10 -13 14 -20c36 6 39 40 39 74h33c0 -30 -3 -91 -56 -107c14 -38 22 -85 22 -143v-150c0 -89 -17 -154 -52 -195
c-35 -42 -98 -63 -188 -63zM140 80c27 -35 81 -53 161 -53s134 18 162 53c27 35 41 92 41 170v150c0 78 -14 135 -41 170c-28 35 -82 53 -162 53s-134 -18 -161 -53c-28 -35 -42 -92 -42 -170v-150c0 -78 14 -135 42 -170zM216 706h-30c0 60 23 90 69 90c21 0 45 -12 74 -36
c28 -24 49 -36 62 -36c25 0 37 21 37 62h30c0 -60 -23 -90 -69 -90c-21 0 -45 12 -73 36c-29 24 -50 36 -63 36c-25 0 -37 -21 -37 -62z" />
    <glyph glyph-name="uni1EE1" unicode="&#x1ee1;" 
d="M170 550h-30c0 60 23 90 69 90c21 0 45 -12 74 -36c28 -24 49 -36 62 -36c25 0 37 21 37 62h30c0 -60 -23 -90 -69 -90c-21 0 -45 12 -73 36c-29 24 -50 36 -63 36c-25 0 -37 -21 -37 -62zM420 44c-31 -35 -84 -52 -159 -52s-127 17 -158 52s-47 84 -47 149v102
c0 129 56 201 205 201c93 0 150 -28 180 -81c31 8 34 41 34 73h33c0 -29 -3 -89 -54 -106c8 -25 12 -54 12 -87v-102c0 -65 -15 -114 -46 -149zM128 66c25 -27 69 -41 133 -41s108 14 133 41s37 69 37 127v102c0 116 -42 168 -170 168s-170 -52 -170 -168v-102
c0 -58 12 -100 37 -127z" />
    <glyph glyph-name="uni1EE2" unicode="&#x1ee2;" horiz-adv-x="602" 
d="M301 -8c-91 0 -153 21 -188 63c-35 41 -52 106 -52 195v150c0 89 18 154 53 196c35 41 97 62 187 62c91 0 153 -21 188 -62c5 -6 10 -13 14 -20c36 6 39 40 39 74h33c0 -30 -3 -91 -56 -107c14 -38 22 -85 22 -143v-150c0 -89 -17 -154 -52 -195
c-35 -42 -98 -63 -188 -63zM140 80c27 -35 81 -53 161 -53s134 18 162 53c27 35 41 92 41 170v150c0 78 -14 135 -41 170c-28 35 -82 53 -162 53s-134 -18 -161 -53c-28 -35 -42 -92 -42 -170v-150c0 -78 14 -135 42 -170zM280 -95c0 36 55 36 55 0c0 -35 -55 -35 -55 0z
" />
    <glyph glyph-name="uni1EE3" unicode="&#x1ee3;" 
d="M235 -95c0 36 55 36 55 0c0 -35 -55 -35 -55 0zM420 44c-31 -35 -84 -52 -159 -52s-127 17 -158 52s-47 84 -47 149v102c0 129 56 201 205 201c93 0 150 -28 180 -81c31 8 34 41 34 73h33c0 -29 -3 -89 -54 -106c8 -25 12 -54 12 -87v-102c0 -65 -15 -114 -46 -149z
M128 66c25 -27 69 -41 133 -41s108 14 133 41s37 69 37 127v102c0 116 -42 168 -170 168s-170 -52 -170 -168v-102c0 -58 12 -100 37 -127z" />
    <glyph glyph-name="uni1EE4" unicode="&#x1ee4;" horiz-adv-x="606" 
d="M71 192v458h37v-458c0 -120 60 -165 195 -165s195 45 195 165v458h37v-458c0 -141 -79 -200 -232 -200s-232 59 -232 200zM278 -95c0 36 55 36 55 0c0 -35 -55 -35 -55 0z" />
    <glyph glyph-name="uni1EE5" unicode="&#x1ee5;" horiz-adv-x="502" 
d="M56 488h35v-320c0 -96 41 -143 160 -143s160 47 160 143v320h35v-320c0 -112 -54 -176 -195 -176s-195 64 -195 176v320zM231 -95c0 36 55 36 55 0c0 -35 -55 -35 -55 0z" />
    <glyph glyph-name="uni1EE6" unicode="&#x1ee6;" horiz-adv-x="606" 
d="M71 192v458h37v-458c0 -120 60 -165 195 -165s195 45 195 165v458h37v-458c0 -141 -79 -200 -232 -200s-232 59 -232 200zM388 779c0 -23 -13 -40 -37 -53c-22 -12 -22 -20 -22 -30h-26c0 54 56 42 56 83c0 20 -9 29 -32 29c-15 0 -28 -5 -35 -9v29c11 4 21 7 35 7
c42 0 61 -18 61 -56z" />
    <glyph glyph-name="uni1EE7" unicode="&#x1ee7;" horiz-adv-x="502" 
d="M56 488h35v-320c0 -96 41 -143 160 -143s160 47 160 143v320h35v-320c0 -112 -54 -176 -195 -176s-195 64 -195 176v320zM331 623c0 -23 -13 -40 -37 -53c-22 -12 -22 -20 -22 -30h-26c0 54 56 42 56 83c0 20 -9 29 -32 29c-15 0 -28 -5 -35 -9v29c11 4 21 7 35 7
c42 0 61 -18 61 -56z" />
    <glyph glyph-name="uni1EE8" unicode="&#x1ee8;" horiz-adv-x="606" 
d="M71 192v458h37v-458c0 -120 60 -165 195 -165s195 45 195 165v458h37v-75c46 0 50 38 50 75h33c0 -34 -4 -110 -83 -110v-348c0 -141 -79 -200 -232 -200s-232 59 -232 200zM369 832h35l-80 -136h-34z" />
    <glyph glyph-name="uni1EE9" unicode="&#x1ee9;" horiz-adv-x="502" 
d="M301 674h35l-80 -136h-34zM56 488h35v-320c0 -96 41 -143 160 -143s160 47 160 143v320h35v-75c43 2 47 39 47 75h33c0 -34 -4 -108 -80 -110v-210c0 -112 -54 -176 -195 -176s-195 64 -195 176v320z" />
    <glyph glyph-name="uni1EEA" unicode="&#x1eea;" horiz-adv-x="606" 
d="M71 192v458h37v-458c0 -120 60 -165 195 -165s195 45 195 165v458h37v-75c46 0 50 38 50 75h33c0 -34 -4 -110 -83 -110v-348c0 -141 -79 -200 -232 -200s-232 59 -232 200zM364 696h-34l-80 136h35z" />
    <glyph glyph-name="uni1EEB" unicode="&#x1eeb;" horiz-adv-x="502" 
d="M297 540h-34l-80 136h35zM56 488h35v-320c0 -96 41 -143 160 -143s160 47 160 143v320h35v-75c43 2 47 39 47 75h33c0 -34 -4 -108 -80 -110v-210c0 -112 -54 -176 -195 -176s-195 64 -195 176v320z" />
    <glyph glyph-name="uni1EEC" unicode="&#x1eec;" horiz-adv-x="606" 
d="M71 192v458h37v-458c0 -120 60 -165 195 -165s195 45 195 165v458h37v-75c46 0 50 38 50 75h33c0 -34 -4 -110 -83 -110v-348c0 -141 -79 -200 -232 -200s-232 59 -232 200zM394 779c0 -23 -13 -40 -37 -53c-22 -12 -22 -20 -22 -30h-26c0 54 56 42 56 83
c0 20 -9 29 -32 29c-15 0 -28 -5 -35 -9v29c11 4 21 7 35 7c42 0 61 -18 61 -56z" />
    <glyph glyph-name="uni1EED" unicode="&#x1eed;" horiz-adv-x="502" 
d="M56 488h35v-320c0 -96 41 -143 160 -143s160 47 160 143v320h35v-75c43 2 47 39 47 75h33c0 -34 -4 -108 -80 -110v-210c0 -112 -54 -176 -195 -176s-195 64 -195 176v320zM326 623c0 -23 -13 -40 -37 -53c-22 -12 -22 -20 -22 -30h-26c0 54 56 42 56 83
c0 20 -9 29 -32 29c-15 0 -28 -5 -35 -9v29c11 4 21 7 35 7c42 0 61 -18 61 -56z" />
    <glyph glyph-name="uni1EEE" unicode="&#x1eee;" horiz-adv-x="606" 
d="M71 192v458h37v-458c0 -120 60 -165 195 -165s195 45 195 165v458h37v-75c46 0 50 38 50 75h33c0 -34 -4 -110 -83 -110v-348c0 -141 -79 -200 -232 -200s-232 59 -232 200zM212 706h-30c0 60 23 90 69 90c21 0 45 -12 74 -36c28 -24 49 -36 62 -36c25 0 37 21 37 62h30
c0 -60 -23 -90 -69 -90c-21 0 -45 12 -73 36c-29 24 -50 36 -63 36c-25 0 -37 -21 -37 -62z" />
    <glyph glyph-name="uni1EEF" unicode="&#x1eef;" horiz-adv-x="502" 
d="M56 488h35v-320c0 -96 41 -143 160 -143s160 47 160 143v320h35v-75c43 2 47 39 47 75h33c0 -34 -4 -108 -80 -110v-210c0 -112 -54 -176 -195 -176s-195 64 -195 176v320zM149 550h-30c0 60 23 90 69 90c21 0 45 -12 74 -36c28 -24 49 -36 62 -36c25 0 37 21 37 62h30
c0 -60 -23 -90 -69 -90c-21 0 -45 12 -73 36c-29 24 -50 36 -63 36c-25 0 -37 -21 -37 -62z" />
    <glyph glyph-name="uni1EF0" unicode="&#x1ef0;" horiz-adv-x="606" 
d="M71 192v458h37v-458c0 -120 60 -165 195 -165s195 45 195 165v458h37v-75c46 0 50 38 50 75h33c0 -34 -4 -110 -83 -110v-348c0 -141 -79 -200 -232 -200s-232 59 -232 200zM272 -95c0 36 55 36 55 0c0 -35 -55 -35 -55 0z" />
    <glyph glyph-name="uni1EF1" unicode="&#x1ef1;" horiz-adv-x="502" 
d="M56 488h35v-320c0 -96 41 -143 160 -143s160 47 160 143v320h35v-75c43 2 47 39 47 75h33c0 -34 -4 -108 -80 -110v-210c0 -112 -54 -176 -195 -176s-195 64 -195 176v320zM225 -95c0 36 55 36 55 0c0 -35 -55 -35 -55 0z" />
    <glyph glyph-name="Ygrave" unicode="&#x1ef2;" horiz-adv-x="568" 
d="M303 0h-37v280c-23 3 -41 12 -54 27c-14 15 -33 44 -57 88l-139 255h41l150 -275c27 -51 40 -62 77 -62c36 0 50 14 77 62l150 275h41l-139 -255c-24 -44 -43 -73 -56 -88c-14 -15 -32 -24 -54 -27v-280zM317 696h-34l-80 136h35z" />
    <glyph glyph-name="ygrave" unicode="&#x1ef3;" horiz-adv-x="494" 
d="M299 0l5 17c-15 -11 -34 -17 -57 -17c-49 0 -73 27 -101 115l-115 373h35l121 -393c16 -51 31 -64 70 -64s58 15 70 64l101 393h35l-129 -488c-16 -60 -33 -102 -63 -143c-30 -40 -77 -61 -137 -57l-8 33c99 -7 138 50 173 167zM285 540h-34l-80 136h35z" />
    <glyph glyph-name="uni1EF4" unicode="&#x1ef4;" horiz-adv-x="568" 
d="M303 0h-37v280c-23 3 -41 12 -54 27c-14 15 -33 44 -57 88l-139 255h41l150 -275c27 -51 40 -62 77 -62c36 0 50 14 77 62l150 275h41l-139 -255c-24 -44 -43 -73 -56 -88c-14 -15 -32 -24 -54 -27v-280zM258 -113c0 36 55 36 55 0c0 -35 -55 -35 -55 0z" />
    <glyph glyph-name="uni1EF5" unicode="&#x1ef5;" horiz-adv-x="494" 
d="M299 0l5 17c-15 -11 -34 -17 -57 -17c-49 0 -73 27 -101 115l-115 373h35l121 -393c16 -51 31 -64 70 -64s58 15 70 64l101 393h35l-129 -488c-16 -60 -33 -102 -63 -143c-30 -40 -77 -61 -137 -57l-8 33c99 -7 138 50 173 167zM334 -113c0 36 55 36 55 0
c0 -35 -55 -35 -55 0z" />
    <glyph glyph-name="uni1EF6" unicode="&#x1ef6;" horiz-adv-x="568" 
d="M303 0h-37v280c-23 3 -41 12 -54 27c-14 15 -33 44 -57 88l-139 255h41l150 -275c27 -51 40 -62 77 -62c36 0 50 14 77 62l150 275h41l-139 -255c-24 -44 -43 -73 -56 -88c-14 -15 -32 -24 -54 -27v-280zM357 779c0 -23 -13 -40 -37 -53c-22 -12 -22 -20 -22 -30h-26
c0 54 56 42 56 83c0 20 -9 29 -32 29c-15 0 -28 -5 -35 -9v29c11 4 21 7 35 7c42 0 61 -18 61 -56z" />
    <glyph glyph-name="uni1EF7" unicode="&#x1ef7;" horiz-adv-x="494" 
d="M299 0l5 17c-15 -11 -34 -17 -57 -17c-49 0 -73 27 -101 115l-115 373h35l121 -393c16 -51 31 -64 70 -64s58 15 70 64l101 393h35l-129 -488c-16 -60 -33 -102 -63 -143c-30 -40 -77 -61 -137 -57l-8 33c99 -7 138 50 173 167zM308 623c0 -23 -13 -40 -37 -53
c-22 -12 -22 -20 -22 -30h-26c0 54 56 42 56 83c0 20 -9 29 -32 29c-15 0 -28 -5 -35 -9v29c11 4 21 7 35 7c42 0 61 -18 61 -56z" />
    <glyph glyph-name="Ytilde" unicode="&#x1ef8;" horiz-adv-x="568" 
d="M303 0h-37v280c-23 3 -41 12 -54 27c-14 15 -33 44 -57 88l-139 255h41l150 -275c27 -51 40 -62 77 -62c36 0 50 14 77 62l150 275h41l-139 -255c-24 -44 -43 -73 -56 -88c-14 -15 -32 -24 -54 -27v-280zM179 706h-30c0 60 23 90 69 90c21 0 45 -12 74 -36
c28 -24 49 -36 62 -36c25 0 37 21 37 62h30c0 -60 -23 -90 -69 -90c-21 0 -45 12 -73 36c-29 24 -50 36 -63 36c-25 0 -37 -21 -37 -62z" />
    <glyph glyph-name="ytilde" unicode="&#x1ef9;" horiz-adv-x="494" 
d="M299 0l5 17c-15 -11 -34 -17 -57 -17c-49 0 -73 27 -101 115l-115 373h35l121 -393c16 -51 31 -64 70 -64s58 15 70 64l101 393h35l-129 -488c-16 -60 -33 -102 -63 -143c-30 -40 -77 -61 -137 -57l-8 33c99 -7 138 50 173 167zM153 550h-30c0 60 23 90 69 90
c21 0 45 -12 74 -36c28 -24 49 -36 62 -36c25 0 37 21 37 62h30c0 -60 -23 -90 -69 -90c-21 0 -45 12 -73 36c-29 24 -50 36 -63 36c-25 0 -37 -21 -37 -62z" />
    <glyph glyph-name="Dcroat" unicode="&#x110;" horiz-adv-x="572" 
d="M81 310h-66v30h66v210c0 69 29 100 100 100h85c99 0 168 -19 207 -56s58 -105 58 -202v-134c0 -96 -19 -163 -58 -201s-108 -57 -207 -57h-85c-71 0 -100 31 -100 100v210zM178 35h88c89 0 150 16 181 48c31 31 47 90 47 175v134c0 84 -16 142 -47 175
c-32 32 -92 48 -181 48h-88c-43 0 -60 -19 -60 -60v-215h113v-30h-113v-215c0 -41 17 -60 60 -60z" />
    <glyph glyph-name="dcroat" unicode="&#x111;" 
d="M431 700h35v-63h56v-35h-56v-409c0 -129 -56 -201 -205 -201s-205 72 -205 201v102c0 129 56 201 205 201c88 0 145 -28 170 -85v191h-214v35h214v63zM394 423c-25 27 -69 40 -133 40s-108 -13 -133 -40s-37 -70 -37 -128v-102c0 -116 42 -168 170 -168s170 52 170 168
v102c0 58 -12 101 -37 128z" />
    </font>
</defs>
</svg>
