<?xml version="1.0" encoding="utf-8"?>
<!-- Generator: Adobe Illustrator 18.0.0, SVG Export Plug-In . SVG Version: 6.00 Build 0)  -->
<!DOCTYPE svg PUBLIC "-//W3C//DTD SVG 1.1//EN" "http://www.w3.org/Graphics/SVG/1.1/DTD/svg11.dtd">
<svg version="1.1" id="Layer_1" xmlns="http://www.w3.org/2000/svg" xmlns:xlink="http://www.w3.org/1999/xlink" x="0px" y="0px"
	 viewBox="0 0 325.3 40" enable-background="new 0 0 325.3 40" xml:space="preserve">
<g>
	<path fill="#606161" d="M26.8,7.3c0,0.2,0,0.3-0.2,0.3s-0.4,0-0.5-0.1c-0.3-0.1-0.8-0.1-1.3-0.2s-1.1-0.1-1.8-0.2S21.6,7.2,21,7.1
		s-1.2,0-1.8,0c-1,0.9-1.9,2-2.8,3.2c-0.9,1.2-1.7,2.3-2.4,3.4c0.6,0,1.3-0.1,2-0.1c0.7,0,1.5,0,2.2-0.1s1.5,0,2.2,0s1.4,0,2,0.1
		c0.2,0,0.3,0.1,0.3,0.3s-0.1,0.2-0.3,0.2c-0.4,0-0.8,0-1.3,0s-1.1,0-1.6,0.1s-1.2,0.1-1.8,0.1s-1.2,0.1-1.7,0.1
		c-0.6,0.1-1.1,0.1-1.5,0.2s-0.8,0.1-1.1,0.2c-0.2,0.4-0.4,0.8-0.7,1.2c-0.2,0.4-0.5,0.9-0.7,1.4s-0.4,1-0.5,1.6s-0.2,1.1-0.2,1.7
		c0,0.4,0.1,0.8,0.3,1s0.4,0.5,0.7,0.7s0.6,0.3,0.9,0.3s0.7,0.1,1,0c0.5,0,1-0.1,1.6-0.2c0.6-0.1,1.3-0.3,1.9-0.5s1.3-0.4,2-0.7
		s1.3-0.6,1.9-0.9c0.2-0.1,0.3-0.1,0.3,0s0,0.2-0.1,0.3c-0.6,0.5-1.2,0.8-1.8,1.2s-1.3,0.6-2,0.9s-1.4,0.4-2,0.5
		c-0.7,0.1-1.3,0.2-1.8,0.2c-0.2,0-0.5,0-0.9-0.1s-0.7-0.2-1.1-0.4s-0.7-0.5-1-0.9s-0.5-0.8-0.5-1.4c0-0.4,0-0.9,0.1-1.4
		s0.2-1,0.4-1.5s0.4-1,0.6-1.4c0.2-0.5,0.4-0.8,0.6-1.1c-0.1,0-0.3,0-0.4,0s-0.3-0.1-0.3-0.2c0,0-0.1-0.1-0.2-0.1s-0.1-0.1-0.1-0.2
		s-0.1-0.2-0.1-0.2c0-0.1,0-0.2,0.1-0.3c0.1-0.1,0.2-0.1,0.3-0.1s0.3-0.1,0.5-0.1s0.3,0,0.5-0.1s0.3-0.1,0.4-0.1
		c0.8-1.1,1.5-2.2,2.4-3.4c0.8-1.1,1.7-2.2,2.5-3.3c-0.7,0-1.4,0-2.1,0.1c-0.8,0.1-1.5,0.2-2.3,0.4S11.7,8,11,8.3S9.5,8.9,8.8,9.4
		C8,9.9,7.2,10.6,6.6,11.4s-1,1.8-1,2.9c0,0.8,0.1,1.6,0.3,2.4c0.2,0.8,0.6,1.5,1,2.2c0.1,0.2,0.1,0.3,0,0.4s-0.2,0-0.3-0.2
		c-0.2-0.3-0.4-0.6-0.6-1s-0.4-0.8-0.5-1.2s-0.3-0.8-0.4-1.3C5.1,15.2,5,14.8,5,14.3c0-1.2,0.2-2.3,0.8-3.2s1.4-1.7,2.6-2.5
		c0.7-0.5,1.5-0.9,2.3-1.2s1.6-0.6,2.4-0.7s1.7-0.3,2.6-0.4c0.9-0.1,1.9-0.2,2.9-0.2c0.2-0.2,0.3-0.3,0.4-0.4s0.3-0.2,0.4-0.3
		c0.1-0.1,0.2-0.1,0.2,0s0.1,0.2,0.1,0.3S19.9,5.9,20,6s0.2,0.2,0.4,0.2c1.2,0,2.2,0.1,3.2,0.2s1.8,0.2,2.6,0.3
		C26.6,6.8,26.8,7,26.8,7.3z"/>
	<path fill="#606161" d="M28.7,14.5c-0.2,0-0.3,0-0.5,0s-0.4,0-0.5,0c0,0-0.1,0-0.1,0.1s-0.1,0-0.1,0.1c-0.2,0.3-0.4,0.7-0.6,1.2
		c-0.3,0.5-0.6,1-1,1.7c2.3-1.6,3.8-2.5,4.6-2.5c0.3,0,0.5,0.1,0.6,0.4c0,0.2-0.1,0.5-0.2,0.9c-0.3,0.6-1,1.1-2,1.6
		c-0.9,0.4-1.8,0.6-2.7,0.6c0.4,0.6,0.8,1.2,1.3,1.9s1.1,1.3,1.8,1.9c1.5,1.4,2.8,2.3,4,2.6c0.2,0.1,0.4,0.1,0.6,0.1
		c0.8,0,1.4-0.3,1.7-1c0-0.1,0.1-0.1,0.1-0.1c0,0,0,0,0,0.1c0,0,0,0.1,0,0.1c-0.1,0.2-0.2,0.4-0.4,0.6s-0.4,0.4-0.6,0.6
		c0,0-0.3,0-0.9-0.1c-0.3,0-0.5-0.1-0.6-0.1s-0.3-0.1-0.3-0.1c-2.2-0.6-4.7-2.7-7.6-6.2c-0.2,0.4-0.5,0.9-0.7,1.4s-0.5,1.2-0.8,1.9
		c0,0.1-0.1,0.1-0.1,0.1c-0.1,0-0.1-0.1-0.2-0.3c0-0.1,0-0.1,0-0.1c0.3-0.8,0.6-1.5,0.8-2.1s0.4-1,0.6-1.4c-0.1-0.3-0.1-0.5,0-0.7
		s0.2-0.2,0.4-0.2c0.3-0.6,0.6-1.1,0.9-1.6c0.3-0.5,0.6-0.9,0.8-1.4H27c-0.1,0-0.1,0-0.2,0s-0.2,0-0.3,0c-0.2,0-0.3-0.1-0.5-0.3
		s-0.2-0.4-0.2-0.5c0-0.1,0-0.2,0.1-0.3c0.3-0.3,0.7-0.6,1.1-0.8s1-0.4,1.5-0.5c1.7-2.5,3.4-4.5,5-6.1c1.7-1.5,3.4-2.6,5.2-3.2
		C39.7,2.2,40.7,2,41.6,2c1.5,0,2.8,0.4,3.9,1.3c1,0.9,1.5,1.9,1.5,3c0,0.9-0.3,1.7-0.9,2.5c-0.6,0.9-1.6,1.6-3,2.3
		C38.2,13.3,33.4,14.5,28.7,14.5z M29,17.4c0.6-0.5,0.9-0.9,0.8-1.4c0-0.3-0.2-0.5-0.6-0.4c-0.4,0-1,0.4-1.9,1
		c-0.8,0.5-1.3,0.9-1.6,1.2c0,0.1,0.1,0.1,0.1,0.2s0.1,0.2,0.2,0.3c0,0,0.1,0,0.2,0c0.2,0,0.4,0,0.6-0.1s0.5-0.1,0.8-0.2
		c0.3-0.1,0.6-0.2,0.8-0.3S28.9,17.5,29,17.4z M27.1,14.1c0.2-0.4,0.5-0.7,0.7-1.1s0.4-0.7,0.6-1c-1,0.3-1.7,0.7-2.2,1.3
		c-0.1,0.1-0.1,0.2-0.1,0.3c0,0.2,0.1,0.3,0.4,0.3c0.2,0,0.3,0.1,0.4,0.1S27.1,14.1,27.1,14.1z M27.7,14.1c0.2,0,0.4,0,0.6,0
		s0.5,0,0.7,0c2,0,4-0.2,6.1-0.7c2.7-0.7,5.3-1.7,7.6-3c2.5-1.5,3.7-3,3.7-4.6c0-1-0.5-1.9-1.5-2.6c-1-0.7-2.2-1.1-3.5-1.1
		c-0.9,0-1.7,0.2-2.6,0.5c-2,0.8-3.9,2.2-5.8,4.1C31.3,8.7,29.5,11.2,27.7,14.1z"/>
	<path fill="#606161" d="M32.9,22.5c-0.1,0-0.2,0-0.3,0s-0.2-0.1-0.3-0.1s-0.1-0.1-0.2-0.2s-0.1-0.2-0.1-0.3c0-1,0.8-2.5,2.4-4.4
		c0.1-0.1,0-0.1,0-0.2c-0.1-0.1-0.2-0.1-0.3-0.2S34,17,34,16.9c0,0,0-0.1,0.1-0.1s0.2-0.1,0.5-0.1c0.4,0,0.7,0,0.7,0
		c0,0,0.1,0,0.2-0.1c0.3-0.3,0.5-0.4,0.8-0.4c0.2,0,0.5,0.1,0.8,0.3c0,0,0,0,0.1,0s0,0,0.1,0c0.3,0,0.6,0,1,0s0.8,0,1.3,0
		c0.2,0,0.3,0,0.3,0.1c0,0.1-0.1,0.1-0.3,0.1c-0.4,0-0.6,0.1-0.7,0.2c0,0,0,0.1,0,0.1c0,0,0,0.1,0,0.1s0,0.1,0,0.1
		c0,0.5-0.2,0.9-0.6,1.5s-0.9,1.1-1.6,1.7C35.2,21.7,34,22.4,32.9,22.5z M32.7,21.6c-0.1,0.1-0.1,0.3-0.1,0.4c0,0.3,0.2,0.4,0.6,0.3
		c0.8-0.1,1.8-0.7,2.9-1.8c1.2-1.1,1.9-2,2.1-2.9c0.1-0.4-0.1-0.6-0.7-0.6c-0.3,0-0.6,0-0.8,0s-0.5,0.1-0.7,0.2c0,0-0.1,0-0.3,0.2
		C34.3,18.5,33.3,19.9,32.7,21.6z"/>
	<path fill="#606161" d="M49.1,14.5c-0.6,1-1.2,2.1-1.8,3.2s-1.3,2.3-1.9,3.5c0.1,0,0.1-0.1,0.2-0.2s0.2-0.2,0.4-0.4
		c0.4-0.4,0.8-0.8,1.2-1.1s0.9-0.8,1.3-1.2c1.1-0.9,1.9-1.3,2.3-1.4c0-0.1,0.3-0.1,0.7-0.3c0.1,0,0.2,0,0.3,0.1s0.2,0.2,0.2,0.3
		c0,0,0,0.1,0,0.1c-0.2,0.3-0.4,0.6-0.7,0.9s-0.5,0.8-0.7,1.2c-0.6,1.1-0.9,1.8-0.9,2.3c0,0.3,0.2,0.5,0.5,0.5
		c0.6,0,1.5-0.5,2.9-1.5c0,0,0.1,0,0.1-0.1s0,0,0.1,0c0,0,0,0,0,0l0,0l-0.1,0.1c-1.6,1.3-2.7,1.9-3.4,1.9c-0.2,0-0.4-0.1-0.7-0.3
		c-0.3-0.2-0.4-0.5-0.3-0.7c0.2-0.9,0.9-2.1,1.9-3.5c0.1-0.1,0.1-0.1,0.1-0.2c0-0.2-0.1-0.2-0.3-0.2c-0.1,0-0.2,0-0.4,0.1
		c-0.7,0.4-1.6,1.1-2.8,2.3c-1,1-1.8,1.8-2.3,2.4c0-0.1-0.1,0-0.2,0.1c0,0.1-0.1,0.1-0.1,0.1c-0.1,0-0.1-0.1-0.1-0.3
		c0-0.1,0-0.1,0-0.1c0.5-1,1.1-2.1,1.7-3.4s1.4-2.6,2.3-4.1c-0.1,0-0.1,0-0.2,0s-0.2,0-0.3-0.1c-0.2,0-0.3-0.1-0.4-0.3
		s-0.2-0.4-0.2-0.5c0-0.1,0-0.1,0-0.2s0.1-0.1,0.1-0.1c0.6-0.6,1.5-1.1,2.6-1.3c1.7-2.5,3.4-4.6,5-6.1s3.4-2.6,5.2-3.2
		c0.9-0.3,1.9-0.5,2.8-0.5c1.5,0,2.8,0.4,3.8,1.3c1,0.8,1.5,1.8,1.5,3c0,0.9-0.3,1.7-0.9,2.5c-0.7,0.9-1.6,1.6-3,2.2
		c-4.8,2.3-9.6,3.4-14.3,3.4c-0.2,0-0.4,0-0.6,0S49.3,14.5,49.1,14.5z M48.7,14.2c0.2-0.3,0.4-0.7,0.7-1s0.4-0.7,0.7-1
		c-0.5,0.1-0.9,0.3-1.3,0.5s-0.7,0.5-0.9,0.7c-0.1,0.1-0.1,0.2-0.1,0.3c0,0.2,0.1,0.3,0.4,0.4c0.2,0,0.3,0,0.4,0.1
		S48.7,14.2,48.7,14.2z M49.3,14.2c0.2,0,0.4,0,0.6,0s0.4,0,0.7,0c1,0,2-0.1,3-0.2s2.1-0.3,3.1-0.5c1.4-0.3,2.7-0.7,3.9-1.2
		s2.5-1.1,3.7-1.8c2.5-1.5,3.7-3,3.7-4.6c0-1-0.5-1.9-1.5-2.6c-1-0.7-2.2-1.1-3.5-1.1c-0.9,0-1.7,0.2-2.5,0.5
		c-2,0.8-3.9,2.2-5.8,4.1S51,11.2,49.3,14.2z"/>
	<path fill="#606161" d="M54.5,22.5c-0.1,0-0.2,0-0.3,0s-0.2-0.1-0.3-0.1s-0.1-0.1-0.2-0.2s-0.1-0.2-0.1-0.3c0-1,0.8-2.5,2.4-4.4
		c0.1-0.1,0-0.1,0-0.2c-0.1-0.1-0.2-0.1-0.3-0.2s-0.2-0.2-0.2-0.2c0,0,0-0.1,0.1-0.1s0.2-0.1,0.5-0.1c0.4,0,0.7,0,0.7,0
		c0,0,0.1,0,0.2-0.1c0.3-0.3,0.5-0.4,0.8-0.4c0.2,0,0.5,0.1,0.8,0.3c0,0,0,0,0.1,0s0,0,0.1,0c0.3,0,0.6,0,1,0s0.8,0,1.3,0
		c0.2,0,0.3,0,0.3,0.1c0,0.1-0.1,0.1-0.3,0.1c-0.4,0-0.6,0.1-0.7,0.2c0,0,0,0.1,0,0.1c0,0,0,0.1,0,0.1s0,0.1,0,0.1
		c0,0.5-0.2,0.9-0.6,1.5s-0.9,1.1-1.6,1.7C56.7,21.7,55.5,22.4,54.5,22.5z M54.2,21.6c-0.1,0.1-0.1,0.3-0.1,0.4
		c0,0.3,0.2,0.4,0.6,0.3c0.8-0.1,1.8-0.7,2.9-1.8c1.2-1.1,1.9-2,2.1-2.9c0.1-0.4-0.1-0.6-0.7-0.6c-0.3,0-0.6,0-0.8,0
		s-0.5,0.1-0.7,0.2c0,0-0.1,0-0.3,0.2C55.9,18.5,54.9,19.9,54.2,21.6z"/>
	<path fill="#606161" d="M60.2,22.2C60.2,22.2,60.1,22.2,60.2,22.2c-0.1-0.2-0.1-0.2-0.1-0.3c0-0.1,0.1-0.2,0.2-0.4
		c0.2-0.3,0.4-0.7,0.6-1.1s0.6-0.9,0.9-1.4c0.3-0.5,0.7-0.9,0.9-1.3s0.5-0.6,0.7-0.8c0.1-0.1,0.2-0.1,0.3-0.2s0.2-0.1,0.3,0
		c0,0,0,0.1-0.1,0.2c-0.1,0-0.3,0.3-0.7,0.8c-0.5,0.5-0.9,1.1-1.2,1.8c-0.2,0.3-0.2,0.4,0,0.4c0.1,0,0.1,0,0.2-0.1
		c0.7-0.7,1.6-1.4,2.6-2.1c0.8-0.5,1.3-0.6,1.6-0.5c0.1,0,0.2,0.1,0.2,0.3c0,0.1-0.1,0.3-0.2,0.7s-0.3,0.7-0.6,1.2
		c-0.1,0.1-0.1,0.2-0.1,0.3c0,0.1,0.1,0.2,0.2,0.2c0.1,0,0.1,0,0.2-0.1c0.8-0.8,1.6-1.4,2.3-1.9s1.4-0.9,2-1.2
		c0.1,0,0.1-0.1,0.2-0.1c0.2,0,0.3,0.1,0.2,0.4c0,0-0.1,0.1-0.2,0.2s-0.1,0.1-0.2,0.2c-0.2,0.5-0.5,1.1-0.8,1.7S69,20.3,68.6,21
		c-0.1,0.2-0.2,0.3-0.2,0.4c0,0.1,0,0.1,0.1,0.1c0,0,0.1,0,0.1,0s0.1,0,0.2-0.1c0.9-0.4,2-0.8,3.3-1.2c0.9-0.3,1.8-0.5,2.6-0.7
		s1.5-0.3,2.1-0.3c0.5,0,1,0,1.4,0.1s0.8,0.2,1.1,0.4c0.7,0.4,1,0.9,1,1.4c0,0.2,0,0.3-0.1,0.5c-0.1,0.2-0.2,0.4-0.4,0.5
		c-0.1,0.1-0.2,0.1-0.2,0.1c0,0-0.1,0-0.1-0.1c0-0.1,0-0.1,0.1-0.2s0.2-0.2,0.3-0.5c0.1-0.2,0.1-0.4,0.1-0.5c0-0.4-0.2-0.8-0.6-1.1
		c-0.5-0.3-1.1-0.5-1.9-0.5c-0.1,0-0.2,0-0.3,0s-0.2,0-0.3,0c-1.8,0.2-3.5,0.6-5.3,1.2c-1.8,0.6-3.4,1.4-4.6,2.4
		c-0.1,0-0.1,0.1-0.2,0.1c-0.1,0-0.2-0.1-0.2-0.2c0,0,0-0.1,0.1-0.1l0.4-0.4c0-0.1,0-0.3,0-0.4c1-1.2,1.7-2.4,2.1-3.5
		c0.1-0.2,0.1-0.3,0.1-0.5c0-0.2-0.1-0.3-0.3-0.3c-0.1,0-0.2,0.1-0.4,0.2c-1.8,1.4-3,2.5-3.5,3.2c0,0-0.1,0.1-0.1,0.1
		s-0.2,0.1-0.3,0.1c-0.2,0.1-0.3,0.1-0.4,0.2s-0.2,0.1-0.2,0.1c-0.1,0-0.1,0-0.2-0.1s-0.1-0.2,0-0.2c0.4-0.5,0.7-1,0.9-1.5
		s0.5-1,0.6-1.4c0-0.1,0.1-0.2,0.1-0.3c0-0.2-0.1-0.3-0.3-0.3c0,0-0.1,0-0.2,0.1c-0.1,0.1-0.3,0.2-0.5,0.3s-0.5,0.4-0.8,0.6
		c-0.7,0.6-1.3,1.1-1.8,1.7c-0.1,0.1-0.3,0.3-0.4,0.6s-0.4,0.5-0.6,0.8c0,0.1-0.2,0.1-0.4,0.2c-0.1,0.1-0.2,0.1-0.3,0.1
		S60.2,22.2,60.2,22.2z"/>
	<path fill="#606161" d="M79.5,16.7c-0.1,0.1-0.3,0.3-0.6,0.5s-0.6,0.3-0.9,0.3c-0.2,0-0.5,0.1-0.9,0.1s-0.8,0-1.3,0s-1,0-1.4,0
		s-0.9,0-1.3,0c-0.1,0.2-0.3,0.4-0.4,0.6s-0.3,0.5-0.4,0.7s-0.2,0.5-0.3,0.8s-0.2,0.6-0.2,0.8c0,0.3,0,0.5,0.1,0.6s0.2,0.3,0.3,0.4
		s0.2,0.2,0.4,0.2s0.3,0,0.5,0c0.4-0.1,0.8-0.2,1.3-0.3s0.8-0.3,1.2-0.5c0.1-0.1,0.2-0.1,0.2,0s0,0.1-0.1,0.2
		c-0.1,0.1-0.3,0.2-0.5,0.3s-0.4,0.2-0.6,0.3S74,21.9,73.8,22s-0.5,0.2-0.7,0.2c-0.2,0-0.4,0-0.6-0.1s-0.4-0.2-0.6-0.4
		s-0.3-0.3-0.4-0.5s-0.2-0.4-0.2-0.7c0-0.7,0.2-1.3,0.5-2s0.7-1.3,1.2-1.8s1-1.1,1.5-1.5s1-0.7,1.4-0.9c0.2-0.1,0.4-0.1,0.6,0
		s0.3,0.2,0.4,0.4s0.2,0.4,0.2,0.6s0,0.4-0.1,0.6c-0.2,0.3-0.5,0.6-1,0.9s-1,0.4-1.6,0.5c0.3,0,0.7,0,1,0c0.4,0,0.7,0,1,0
		s0.6,0,0.9,0s0.5,0,0.7-0.1c0.3,0,0.5-0.1,0.8-0.2s0.5-0.3,0.6-0.4c0.1-0.1,0.1-0.1,0.1-0.1S79.6,16.6,79.5,16.7z M76.6,15.8
		c0.1-0.2,0.2-0.4,0.2-0.5s0-0.3-0.1-0.3s-0.2-0.1-0.3-0.1s-0.3,0.1-0.5,0.2c-0.4,0.3-0.9,0.6-1.3,1c-0.5,0.4-0.9,0.8-1.3,1.3
		c0.3,0,0.6,0,1-0.1s0.7-0.2,1-0.3s0.6-0.3,0.8-0.5S76.5,16.1,76.6,15.8z"/>
	<path fill="#606161" d="M107,6.4c-0.5,0-1.2-0.1-2.2-0.3s-2-0.3-3.2-0.5c-0.5,0.8-1,1.7-1.5,2.6s-1.1,2-1.6,3s-1.1,2.1-1.6,3.1
		s-1,2-1.5,3s-0.8,1.9-1.2,2.7s-0.6,1.5-0.7,2.1c-0.1,0.3-0.1,0.6,0,0.8s0.1,0.5,0.2,0.6c0,0.1,0,0.2,0,0.3s-0.2,0.2-0.3,0.2
		s-0.2,0-0.3-0.1s-0.1-0.2-0.1-0.4c0-0.5,0.1-1.2,0.4-2.1s0.6-1.9,1.1-3s1-2.3,1.5-3.5s1.2-2.4,1.8-3.6s1.2-2.3,1.7-3.3
		s1-1.9,1.5-2.6c-1.1-0.2-2.3-0.4-3.5-0.5s-2.4-0.3-3.6-0.4s-2.3-0.2-3.4-0.2s-2,0-2.9,0.1c-0.3,0-0.7,0.1-1.1,0.2S85.6,4.8,85.2,5
		s-0.6,0.5-0.8,0.8s-0.1,0.8,0.1,1.3c0.2,0.6,0.6,1.3,1,1.9s0.8,1.2,1.2,1.6C86.9,10.8,87,11,87,11s0.1,0.1,0,0.1s-0.1,0-0.2-0.1
		s-0.2-0.1-0.3-0.2c-0.5-0.5-1-1.1-1.4-1.5s-0.7-1-1-1.6c-0.3-0.5-0.4-1-0.2-1.5s0.4-0.8,0.8-1.2s0.8-0.6,1.3-0.8s0.9-0.4,1.3-0.4
		c0.6-0.1,1.5-0.2,2.5-0.2s2.2,0.1,3.5,0.2s2.6,0.2,4,0.3s2.7,0.3,4,0.4c0.1-0.2,0.2-0.3,0.3-0.5c0.1-0.1,0.2-0.2,0.2-0.3
		c0.1-0.1,0.1-0.1,0.1-0.2s-0.1-0.1-0.1-0.1c-0.1,0-0.2,0-0.3,0.1s-0.2,0.1-0.3,0.1c-0.2,0.1-0.3,0.1-0.3,0s0.1-0.2,0.2-0.2
		c0.2-0.2,0.4-0.3,0.8-0.5s0.6-0.3,0.8-0.4c0.2,0,0.4,0,0.5,0.2s0.1,0.4,0,0.5c-0.3,0.4-0.6,0.9-1,1.4c1.1,0.1,2,0.2,2.9,0.3
		s1.6,0.1,2.1,0.1c0.3,0,0.4-0.1,0.5-0.2s0.1-0.3,0.1-0.4c0-0.2-0.1-0.3-0.1-0.4c0-0.1-0.1-0.3-0.1-0.4c-0.1-0.3-0.1-0.5-0.1-0.5
		s0.2,0.1,0.4,0.4c0,0.1,0.1,0.2,0.2,0.3s0.1,0.3,0.2,0.5s0.1,0.3,0.1,0.5s0,0.4-0.1,0.5c-0.1,0.1-0.1,0.2-0.2,0.3S108,5.9,107.8,6
		c-0.2,0.1-0.3,0.2-0.4,0.3S107.1,6.4,107,6.4z"/>
	<path fill="#606161" d="M100.8,22c-0.2,0.1-0.3,0.1-0.4,0.1c-0.3,0-0.4-0.2-0.4-0.6c0-0.8,0.7-1.9,2-3.3c0.6-0.6,1.2-1.1,1.7-1.5
		s1-0.7,1.5-0.9c0.1,0,0.2-0.1,0.3-0.1s0.3,0,0.4,0c0.1,0,0.3,0,0.4,0s0.3,0.1,0.4,0.1c0.2,0,0.3,0,0.3,0c0.2,0,0.4-0.1,0.5-0.2
		c0,0,0.1,0,0.1,0c0,0,0.1,0,0.1,0.1s0,0.1,0,0.1c-0.3,0.5-0.7,1.1-1,1.6s-0.7,1.1-1,1.6c-0.3,0.4-0.5,0.9-0.7,1.4s-0.5,1.1-0.7,1.7
		s-0.4,1.1-0.5,1.6s-0.2,0.9-0.3,1.3c0,0.1,0,0.1,0,0.2c0,0.1,0,0.1,0,0.2c0,0.4,0.1,0.7,0.4,0.9s0.6,0.3,1,0.3
		c0.4,0,0.9-0.1,1.3-0.2c0.6-0.2,1.5-0.7,2.5-1.5c0.5-0.4,0.9-0.8,1.3-1.2s0.7-0.8,1-1.2c0.1-0.1,0.2-0.2,0.2-0.2c0,0,0,0,0,0.1
		c0,0,0,0.1-0.1,0.2c-0.3,0.4-0.6,0.8-1,1.3s-0.9,0.9-1.4,1.4c-0.5,0.4-1,0.7-1.4,1s-0.8,0.5-1.1,0.6c-0.2,0.1-0.3,0.1-0.5,0.1
		s-0.4,0-0.5,0c-0.3,0-0.6,0-0.8-0.1s-0.5-0.2-0.6-0.3c-0.2-0.1-0.4-0.3-0.5-0.6s-0.1-0.5-0.1-0.8c0-0.3,0.1-0.6,0.2-1
		s0.2-0.9,0.4-1.3s0.3-0.9,0.5-1.4s0.3-0.9,0.5-1.2c0.2-0.4,0.4-0.8,0.6-1.2s0.4-0.7,0.6-1c0.1-0.1,0.1-0.2,0-0.2c0,0,0,0-0.1,0
		c-0.3,0.3-0.6,0.7-1,1.1s-0.9,0.8-1.4,1.3C102.5,20.9,101.6,21.6,100.8,22z M101.9,25.3c0,0,0,0.1-0.1,0.2s-0.2,0.1-0.2,0.1
		s-0.2,0.1-0.3,0.1s-0.2,0-0.2,0c0,0,0-0.1-0.1-0.2s0-0.2-0.1-0.3s0-0.2,0-0.3c0-0.1,0-0.2,0-0.2s0.1-0.1,0.1-0.1s0.2-0.1,0.2-0.1
		s0.2-0.1,0.2-0.1s0.1,0,0.1,0c0,0,0.1,0.1,0.1,0.2s0,0.2,0,0.3s0,0.2,0,0.3S101.9,25.2,101.9,25.3z M101.1,20.5
		c0,0.1-0.1,0.3-0.1,0.4c0,0.3,0.1,0.4,0.3,0.4c0.1,0,0.2,0,0.3-0.1c0.7-0.4,1.4-1,2.1-1.7s1.5-1.6,2.4-2.6c0,0,0.1-0.1,0.1-0.1
		c0-0.1-0.1-0.3-0.2-0.4s-0.4-0.2-0.6-0.2c-0.1,0-0.3,0-0.4,0.1c-0.6,0.1-1.3,0.7-2.1,1.6c-0.4,0.5-0.8,0.9-1,1.3
		S101.3,20.1,101.1,20.5z M107.1,14.1c-0.5,0.1-1.2,0.4-1.9,0.7c-0.1,0.1-0.2,0.1-0.2,0c0,0,0-0.1,0-0.1s0,0,0.1-0.1
		c0.1,0,0.2-0.1,0.4-0.2s0.5-0.3,0.8-0.4c0.5-0.3,0.8-0.5,0.8-0.5c0,0,0.2,0.1,0.4,0.3s0.6,0.5,1,0.9c0.1,0,0.1,0.1,0.1,0.1
		s0,0-0.1,0.1c0,0-0.1,0-0.1,0c-0.1-0.1-0.2-0.2-0.4-0.2s-0.3-0.1-0.4-0.2C107.4,14.2,107.2,14.1,107.1,14.1z"/>
	<path fill="#606161" d="M106.3,21.8c-0.1,0-0.2,0-0.2-0.1c0-0.1,0-0.1,0-0.3c0.3-0.6,0.7-1.4,1.4-2.4c0.3-0.5,0.6-0.9,0.9-1.3
		s0.5-0.7,0.8-1c0-0.1,0.1-0.1,0.2-0.1s0.2-0.1,0.3-0.1c0.1,0,0.1,0,0.1,0c0,0,0,0.1-0.1,0.1c-0.5,0.5-0.9,1.1-1.2,1.6
		s-0.6,1.1-0.9,1.6c0,0.1-0.1,0.1-0.1,0.2c0,0.1,0,0.2,0.1,0.2c0.1,0,0.1,0,0.2-0.1c0.3-0.3,0.7-0.6,1.1-1s0.7-0.6,1.1-0.9
		c0.9-0.7,1.5-1.1,1.8-1.3c0.2-0.1,0.3-0.2,0.4-0.3c0.3-0.1,0.5-0.1,0.6-0.1c0.2,0.1,0.2,0.2,0,0.4c-0.9,1.1-1.6,2.3-2.3,3.8
		c-0.7,1.4-1,2.5-1.1,3.4c0,0.6,0.1,1,0.3,1.3c0.3,0.3,0.6,0.4,1,0.4c0.2,0,0.4,0,0.5-0.1c0.7-0.2,1.5-0.7,2.6-1.6
		c1.1-1,1.7-1.8,1.7-2.3c0-0.1,0-0.2-0.1-0.3s-0.1-0.1-0.2-0.1s-0.1,0-0.2,0c0,0-0.1,0-0.1-0.1c0-0.1,0-0.1,0.1-0.2s0.2-0.1,0.3-0.1
		c0.2,0,0.3,0.1,0.3,0.4c0,0.1,0,0.3-0.1,0.5c-0.1,0.3-0.3,0.7-0.6,1.1s-0.6,0.8-1,1.2c-1.2,1.1-2.4,1.8-3.7,1.9
		c-0.5,0-0.9-0.1-1.2-0.4c-0.3-0.4-0.5-0.9-0.4-1.7c0.1-0.9,0.4-1.9,1.1-3.3c0.3-0.6,0.6-1.1,0.9-1.6s0.6-1,1-1.5
		c0,0,0.1-0.1,0.1-0.2c0-0.2-0.1-0.3-0.3-0.3c-0.1,0-0.2,0-0.3,0.1c-0.7,0.5-1.4,1-2,1.7s-1.4,1.4-2.1,2.2
		C107.1,21.6,106.8,21.7,106.3,21.8z"/>
	<path fill="#606161" d="M122.4,32.3c-1,0-1.8-0.4-2.4-1.1c-0.3-0.4-0.5-0.7-0.6-1.2s-0.1-0.9-0.1-1.4c0-1.7,0.7-4.1,2.1-7.3
		c0.6-1.4,1.2-2.6,1.8-3.8s1.2-2.1,1.8-3c0.1-0.2,0.2-0.3,0.2-0.5c0-0.2-0.1-0.4-0.3-0.5c-0.4-0.2-0.6-0.4-0.5-0.6
		c0-0.1,0.2-0.1,0.5-0.2s0.8-0.1,1.3-0.1c0,0,0.1,0,0-0.1s0-0.1,0-0.1c0.6-0.9,1.2-1.8,2-2.7c0.8-0.9,1.5-1.8,2.4-2.8
		c0.1-0.1,0.4-0.2,1-0.5c0.3-0.1,0.5-0.2,0.6-0.2s0.3-0.1,0.4-0.1c0.1,0,0.2,0.1,0.2,0.2c0,0-0.1,0.1-0.2,0.1
		c-1.1,0.2-3,2.1-5.6,5.7c-0.2,0.3-0.2,0.4,0.1,0.4h2.6c0.7,0,1.3,0,1.6,0s0.6,0,0.7,0c0.1,0,0.2,0,0.2,0.1c0,0,0,0.1-0.1,0.2
		s-0.2,0.2-0.3,0.2c-0.7,0-1.5,0.1-2.4,0.1s-1.9,0.1-3,0.2c-0.2,0-0.4,0.1-0.4,0.3c-0.6,0.9-1.2,1.9-1.8,2.8c-0.6,0.9-1.1,1.9-1.7,3
		c-0.8,1.7-1.5,3.3-2,4.7s-0.8,2.7-0.9,3.8c0,0.2,0,0.3,0,0.4c0,0.1,0,0.3,0,0.4c0,2.1,0.7,3.1,2.2,3.1c0.4,0,0.9-0.1,1.4-0.2
		c0.8-0.2,1.5-0.6,2.3-1.1s1.5-1.2,2.3-2c0.8-0.8,1.4-1.6,1.8-2.3s0.7-1.4,0.8-2.1c0-1.1-0.4-1.6-1.2-1.5c-0.2,0-0.3,0.1-0.5,0.2
		s-0.2,0.1-0.3,0.1c-0.1,0-0.2-0.1-0.1-0.2c0.1-0.1,0.1-0.2,0.3-0.3s0.3-0.2,0.6-0.3c0,0,0.1,0,0.2,0c0.4,0,0.7,0.3,1.1,0.8
		c0.4,0.5,0.5,0.9,0.5,1.2c-0.2,1.6-1.4,3.3-3.4,5.2c-1,0.9-2,1.6-2.9,2.1C124.1,32,123.2,32.3,122.4,32.3z"/>
	<path fill="#606161" d="M135.9,19.9c-0.1,0.1-0.4,0.3-0.7,0.6s-0.6,0.5-1,0.7s-0.7,0.5-1.1,0.7s-0.7,0.4-0.9,0.5
		c-0.1,0-0.2,0-0.3,0s-0.3-0.1-0.4-0.2s-0.3-0.2-0.4-0.4s-0.2-0.3-0.2-0.6c0-0.2,0.1-0.4,0.2-0.7s0.3-0.6,0.4-1s0.4-0.7,0.6-1
		s0.4-0.7,0.6-0.9s0.3-0.5,0.4-0.7s0.2-0.3,0.2-0.4c0-0.1,0.1-0.2,0.3-0.3s0.3,0,0.4,0s0.2,0.1,0.2,0.3s0,0.3-0.2,0.5
		c-0.2,0.2-0.4,0.5-0.6,0.7s-0.4,0.6-0.7,0.9s-0.4,0.7-0.7,1.1s-0.4,0.7-0.5,1.1c-0.1,0.3-0.2,0.6-0.2,0.7c0,0.2,0,0.3,0.1,0.3
		s0.2,0.1,0.3,0.1s0.2,0,0.3,0c0.2,0,0.5-0.2,0.9-0.3s0.7-0.4,1.1-0.6s0.7-0.5,1-0.7s0.6-0.4,0.7-0.6c0.1-0.1,0.2-0.2,0.2-0.2
		s0.1,0,0.1,0s0,0.1,0,0.2S135.9,19.8,135.9,19.9z M135.3,15.1c0.1,0.1,0.2,0.2,0.1,0.3s-0.1,0.1-0.3,0c-0.1-0.1-0.3-0.2-0.4-0.3
		s-0.3-0.2-0.5-0.4s-0.4-0.3-0.6-0.4s-0.4-0.3-0.6-0.4c-0.1-0.1-0.2-0.2-0.2-0.3s0-0.2,0.1-0.2s0.1-0.1,0.2-0.1s0.2,0,0.3,0.1
		c0.3,0.3,0.6,0.6,0.9,1S135,14.8,135.3,15.1z"/>
	<path fill="#606161" d="M135.3,21.8c-0.1,0-0.2,0-0.2-0.1c0-0.1,0-0.1,0-0.3c0.3-0.6,0.7-1.4,1.4-2.4c0.3-0.5,0.6-0.9,0.9-1.3
		s0.5-0.7,0.8-1c0-0.1,0.1-0.1,0.2-0.1s0.2-0.1,0.3-0.1c0.1,0,0.1,0,0.1,0c0,0,0,0.1-0.1,0.1c-0.5,0.5-0.9,1.1-1.2,1.6
		s-0.6,1.1-0.9,1.6c0,0.1-0.1,0.1-0.1,0.2c0,0.1,0,0.2,0.1,0.2c0.1,0,0.1,0,0.2-0.1c0.3-0.3,0.7-0.6,1.1-1s0.7-0.6,1.1-0.9
		c0.9-0.7,1.5-1.1,1.8-1.3c0.2-0.1,0.3-0.2,0.4-0.3c0.3-0.1,0.5-0.1,0.6-0.1c0.2,0.1,0.2,0.2,0,0.4c-0.9,1.1-1.6,2.3-2.3,3.8
		c-0.7,1.4-1,2.5-1.1,3.4c0,0.6,0.1,1,0.3,1.3c0.3,0.3,0.6,0.4,1,0.4c0.2,0,0.4,0,0.5-0.1c0.7-0.2,1.5-0.7,2.6-1.6
		c1.1-1,1.7-1.8,1.7-2.3c0-0.1,0-0.2-0.1-0.3s-0.1-0.1-0.2-0.1s-0.1,0-0.2,0c0,0-0.1,0-0.1-0.1c0-0.1,0-0.1,0.1-0.2s0.2-0.1,0.3-0.1
		c0.2,0,0.3,0.1,0.3,0.4c0,0.1,0,0.3-0.1,0.5c-0.1,0.3-0.3,0.7-0.6,1.1s-0.6,0.8-1,1.2c-1.2,1.1-2.4,1.8-3.7,1.9
		c-0.5,0-0.9-0.1-1.2-0.4c-0.3-0.4-0.5-0.9-0.4-1.7c0.1-0.9,0.4-1.9,1.1-3.3c0.3-0.6,0.6-1.1,0.9-1.6s0.6-1,1-1.5
		c0,0,0.1-0.1,0.1-0.2c0-0.2-0.1-0.3-0.3-0.3c-0.1,0-0.2,0-0.3,0.1c-0.7,0.5-1.4,1-2,1.7s-1.4,1.4-2.1,2.2
		C136.1,21.6,135.8,21.7,135.3,21.8z"/>
	<path fill="#606161" d="M146,14.5c-0.6,1-1.2,2.1-1.8,3.2s-1.3,2.3-1.9,3.5c0.1,0,0.1-0.1,0.2-0.2s0.2-0.2,0.4-0.4
		c0.4-0.4,0.8-0.8,1.2-1.1s0.9-0.8,1.3-1.2c1.1-0.9,1.9-1.3,2.3-1.4c0-0.1,0.3-0.1,0.7-0.3c0.1,0,0.2,0,0.3,0.1s0.2,0.2,0.2,0.3
		c0,0,0,0.1,0,0.1c-0.2,0.3-0.4,0.6-0.7,0.9s-0.5,0.8-0.7,1.2c-0.6,1.1-0.9,1.8-0.9,2.3c0,0.3,0.2,0.5,0.5,0.5
		c0.6,0,1.5-0.5,2.9-1.5c0,0,0.1,0,0.1-0.1s0,0,0.1,0c0,0,0,0,0,0l0,0l-0.1,0.1c-1.6,1.3-2.7,1.9-3.4,1.9c-0.2,0-0.4-0.1-0.7-0.3
		c-0.3-0.2-0.4-0.5-0.3-0.7c0.2-0.9,0.9-2.1,1.9-3.5c0.1-0.1,0.1-0.1,0.1-0.2c0-0.2-0.1-0.2-0.3-0.2c-0.1,0-0.2,0-0.4,0.1
		c-0.7,0.4-1.6,1.1-2.8,2.3c-1,1-1.8,1.8-2.3,2.4c0-0.1-0.1,0-0.2,0.1c0,0.1-0.1,0.1-0.1,0.1c-0.1,0-0.1-0.1-0.1-0.3
		c0-0.1,0-0.1,0-0.1c0.5-1,1.1-2.1,1.7-3.4s1.4-2.6,2.3-4.1c-0.1,0-0.1,0-0.2,0s-0.2,0-0.3-0.1c-0.2,0-0.3-0.1-0.4-0.3
		s-0.2-0.4-0.2-0.5c0-0.1,0-0.1,0-0.2s0.1-0.1,0.1-0.1c0.6-0.6,1.5-1.1,2.6-1.3c1.7-2.5,3.4-4.6,5-6.1s3.4-2.6,5.2-3.2
		c0.9-0.3,1.9-0.5,2.8-0.5c1.5,0,2.8,0.4,3.8,1.3c1,0.8,1.5,1.8,1.5,3c0,0.9-0.3,1.7-0.9,2.5c-0.7,0.9-1.6,1.6-3,2.2
		c-4.8,2.3-9.6,3.4-14.3,3.4c-0.2,0-0.4,0-0.6,0S146.1,14.5,146,14.5z M145.6,14.2c0.2-0.3,0.4-0.7,0.7-1s0.4-0.7,0.7-1
		c-0.5,0.1-0.9,0.3-1.3,0.5s-0.7,0.5-0.9,0.7c-0.1,0.1-0.1,0.2-0.1,0.3c0,0.2,0.1,0.3,0.4,0.4c0.2,0,0.3,0,0.4,0.1
		S145.5,14.2,145.6,14.2z M146.1,14.2c0.2,0,0.4,0,0.6,0s0.4,0,0.7,0c1,0,2-0.1,3-0.2s2.1-0.3,3.1-0.5c1.4-0.3,2.7-0.7,3.9-1.2
		s2.5-1.1,3.7-1.8c2.5-1.5,3.7-3,3.7-4.6c0-1-0.5-1.9-1.5-2.6c-1-0.7-2.2-1.1-3.5-1.1c-0.9,0-1.7,0.2-2.5,0.5
		c-2,0.8-3.9,2.2-5.8,4.1S147.9,11.2,146.1,14.2z"/>
	<path fill="#606161" d="M156.4,19.1c0-0.2,0.2-0.3,0.6-0.3h2.5c0.2,0,0.3,0.1,0.3,0.2c0,0.2-0.2,0.3-0.5,0.3h-2.6
		C156.5,19.3,156.4,19.2,156.4,19.1z"/>
	<path fill="#606161" d="M174,22.3c-1.9,0-3.5-0.5-4.9-1.3c-1.5-0.9-2.3-2.1-2.3-3.5c0-1.7,1-3.6,3-5.6c1.8-1.8,3.9-3.4,6.6-4.8
		c2.5-1.3,4.5-2.1,6.2-2.3c0.4,0,0.8-0.1,1.3-0.1c1.2,0,2,0.2,2.5,0.7l0.3-0.3c0-0.1,0.1-0.1,0.2-0.1c0.1,0,0.1,0.1,0.1,0.2
		c0,0-0.1,0.2-0.3,0.4c0.2,0.3,0.3,0.7,0.3,1.3c0,0.6-0.1,1.2-0.3,1.7s-0.6,1.1-1.1,1.7c-0.6,0.8-1.4,1.4-2.3,1.9c0,0-0.2,0-0.4,0
		c-0.3,0-0.4-0.1-0.4-0.2c0-0.9,0.4-2,1.3-3.4c0.7-1.1,1.3-2,2-2.7c-0.3-0.6-1.1-0.9-2.3-0.9c-0.2,0-0.4,0-0.5,0s-0.4,0-0.6,0.1
		c-2.6,0.5-5.5,1.9-8.6,4.2c-3.3,2.5-5.2,4.9-6,7.2c-0.1,0.4-0.2,0.8-0.2,1.1c0,1.2,0.5,2.1,1.5,2.8c1.2,0.8,2.8,1.2,4.8,1.2
		c1.2,0,2.4-0.2,3.6-0.5s2.5-0.7,3.7-1.2c1.2-0.5,2.2-1,3.2-1.6s1.8-1.2,2.5-1.8c0.1-0.1,0.2-0.2,0.3-0.2c0.1,0,0.1,0,0.1,0.1
		c0,0.1-0.1,0.1-0.2,0.3c-1.4,1.5-3.4,2.7-5.8,3.7c-1.3,0.5-2.6,1-3.8,1.2S175.2,22.4,174,22.3z M183.2,11.8c0,0.1,0,0.2,0.1,0.2
		c0.1,0,0.1,0,0.2,0c1.2-0.8,2-1.8,2.5-3c0.1-0.3,0.2-0.5,0.2-0.7s0.1-0.5,0.1-0.7c0-0.4-0.1-0.8-0.2-1c-0.3,0.3-0.6,0.7-0.9,1.1
		s-0.6,0.9-0.9,1.4C183.8,10,183.4,11,183.2,11.8z"/>
	<path fill="#606161" d="M188.8,14.5c-0.6,1-1.2,2.1-1.8,3.2s-1.3,2.3-1.9,3.5c0.1,0,0.1-0.1,0.2-0.2s0.2-0.2,0.4-0.4
		c0.4-0.4,0.8-0.8,1.2-1.1s0.9-0.8,1.3-1.2c1.1-0.9,1.9-1.3,2.3-1.4c0-0.1,0.3-0.1,0.7-0.3c0.1,0,0.2,0,0.3,0.1s0.2,0.2,0.2,0.3
		c0,0,0,0.1,0,0.1c-0.2,0.3-0.4,0.6-0.7,0.9s-0.5,0.8-0.7,1.2c-0.6,1.1-0.9,1.8-0.9,2.3c0,0.3,0.2,0.5,0.5,0.5
		c0.6,0,1.5-0.5,2.9-1.5c0,0,0.1,0,0.1-0.1s0,0,0.1,0c0,0,0,0,0,0l0,0l-0.1,0.1c-1.6,1.3-2.7,1.9-3.4,1.9c-0.2,0-0.4-0.1-0.7-0.3
		c-0.3-0.2-0.4-0.5-0.3-0.7c0.2-0.9,0.9-2.1,1.9-3.5c0.1-0.1,0.1-0.1,0.1-0.2c0-0.2-0.1-0.2-0.3-0.2c-0.1,0-0.2,0-0.4,0.1
		c-0.7,0.4-1.6,1.1-2.8,2.3c-1,1-1.8,1.8-2.3,2.4c0-0.1-0.1,0-0.2,0.1c0,0.1-0.1,0.1-0.1,0.1c-0.1,0-0.1-0.1-0.1-0.3
		c0-0.1,0-0.1,0-0.1c0.5-1,1.1-2.1,1.7-3.4s1.4-2.6,2.3-4.1c-0.1,0-0.1,0-0.2,0s-0.2,0-0.3-0.1c-0.2,0-0.3-0.1-0.4-0.3
		s-0.2-0.4-0.2-0.5c0-0.1,0-0.1,0-0.2s0.1-0.1,0.1-0.1c0.6-0.6,1.5-1.1,2.6-1.3c1.7-2.5,3.4-4.6,5-6.1s3.4-2.6,5.2-3.2
		c0.9-0.3,1.9-0.5,2.8-0.5c1.5,0,2.8,0.4,3.8,1.3c1,0.8,1.5,1.8,1.5,3c0,0.9-0.3,1.7-0.9,2.5c-0.7,0.9-1.6,1.6-3,2.2
		c-4.8,2.3-9.6,3.4-14.3,3.4c-0.2,0-0.4,0-0.6,0S189,14.5,188.8,14.5z M188.4,14.2c0.2-0.3,0.4-0.7,0.7-1s0.4-0.7,0.7-1
		c-0.5,0.1-0.9,0.3-1.3,0.5s-0.7,0.5-0.9,0.7c-0.1,0.1-0.1,0.2-0.1,0.3c0,0.2,0.1,0.3,0.4,0.4c0.2,0,0.3,0,0.4,0.1
		S188.4,14.2,188.4,14.2z M189,14.2c0.2,0,0.4,0,0.6,0s0.5,0,0.7,0c1,0,2-0.1,3-0.2s2.1-0.3,3.1-0.5c1.4-0.3,2.7-0.7,3.9-1.2
		s2.5-1.1,3.7-1.8c2.5-1.5,3.7-3,3.7-4.6c0-1-0.5-1.9-1.5-2.6c-1-0.7-2.2-1.1-3.5-1.1c-0.9,0-1.7,0.2-2.5,0.5
		c-2,0.8-3.9,2.2-5.8,4.1S190.7,11.2,189,14.2z"/>
	<path fill="#606161" d="M201,16.9c-0.2,0.3-0.4,0.6-0.6,0.9s-0.4,0.7-0.6,1.1s-0.4,0.7-0.5,1.1s-0.2,0.7-0.3,0.9c0,0.2,0,0.4,0,0.5
		s0.1,0.2,0.1,0.2s0.1,0,0.2,0s0.2,0,0.3-0.1c0.1,0,0.2-0.1,0.3-0.1s0.2-0.1,0.3-0.2c0.2-0.1,0.3-0.1,0.3,0s0,0.2-0.2,0.3
		c-0.1,0.1-0.3,0.3-0.4,0.4s-0.3,0.2-0.5,0.3c-0.1,0-0.2,0-0.3,0s-0.2-0.1-0.3-0.2s-0.2-0.2-0.2-0.3s-0.1-0.2-0.1-0.4
		c0-0.2,0-0.5,0.1-0.7s0.1-0.5,0.2-0.7s0.2-0.5,0.3-0.7s0.2-0.5,0.3-0.7c0.1-0.2,0.1-0.3,0-0.4s-0.2-0.1-0.4,0.2
		c-0.3,0.3-0.7,0.7-1.1,1.1s-0.9,0.9-1.4,1.3s-0.9,0.8-1.3,1.1s-0.7,0.5-0.9,0.6c-0.3,0.1-0.6,0.1-0.8-0.2s-0.3-0.5-0.3-0.8
		c0-0.3,0.1-0.6,0.2-1s0.3-0.7,0.5-1.1s0.4-0.8,0.7-1.2s0.5-0.8,0.7-1.1s0.5-0.7,0.7-0.9c0.2-0.3,0.4-0.5,0.5-0.7
		c0.1-0.1,0.1-0.1,0.2-0.2s0.2,0,0.3,0s0.1,0.1,0.1,0.2s0,0.2-0.1,0.3c-0.3,0.3-0.6,0.7-0.9,1.2s-0.6,0.9-0.9,1.3s-0.5,0.9-0.7,1.3
		s-0.4,0.8-0.5,1.1c-0.1,0.5-0.1,0.8,0,0.9s0.4,0.1,0.7,0c0.5-0.3,1-0.7,1.5-1.1s1-1,1.5-1.5s1-1,1.5-1.5s0.9-0.9,1.2-1.2
		c0.1-0.1,0.2-0.1,0.3-0.1s0.2,0.1,0.2,0.2s0.1,0.2,0.1,0.3S201,16.8,201,16.9z"/>
	<path fill="#606161" d="M215.9,13.9c-0.3,0-0.5-0.1-0.5-0.1c-0.2,0-0.3-0.1-0.5-0.3s-0.2-0.4-0.2-0.5c0-0.1,0-0.2,0.1-0.3
		c0.6-0.6,1.5-1.1,2.6-1.3h0c0.7-1.1,1.4-2,1.8-2.6c2.7-3.5,5.5-5.7,8.3-6.7c1-0.3,1.9-0.5,2.8-0.5c1.4,0,2.6,0.4,3.6,1.1
		c1.2,0.8,1.7,1.9,1.7,3.2c0,1-0.4,2-1.2,2.9c-0.7,0.7-1.5,1.3-2.6,1.9c-4.8,2.3-9.6,3.4-14.2,3.4h-0.6c-0.2,0-0.4,0-0.6,0
		c-0.6,1.1-1.1,2-1.6,2.9c-1.1,2.2-1.7,3.9-1.7,5.2c0,0.1,0,0.1,0.1,0.2c0.1,0,0.2,0,0.3,0.1c0,0,0.1,0,0.1,0.1c0,0,0,0,0,0.1
		c-0.1,0.1-0.1,0.1-0.1,0.1s-0.1,0-0.1,0c-0.1,0-0.2,0-0.3-0.1c-0.1-0.2-0.2-0.5-0.2-0.8c0-0.7,0.3-2,1-3.8c0.1-0.2,0-0.3-0.1-0.3
		c0,0-0.1,0-0.1,0.1c-0.7,0.8-1.5,1.7-2.5,2.6c-1.2,1.1-2.2,1.8-3,2.1c-0.1,0-0.1,0-0.2,0c-0.4,0-0.7-0.2-0.7-0.6
		c0-0.8,0.7-1.9,2.1-3.2c1.3-1.2,2.4-2,3.3-2.3c0.2-0.1,0.5-0.1,0.7-0.1s0.6,0.1,1,0.2L215.9,13.9z M208.7,20.7
		c-0.1,0.1-0.1,0.3-0.1,0.4c0,0.3,0.1,0.4,0.3,0.4c0.1,0,0.2,0,0.3-0.1c1.7-1.1,3.2-2.4,4.6-4c0.1-0.2,0.2-0.3,0.2-0.5
		c0-0.3-0.2-0.4-0.7-0.4c-0.2,0-0.3,0-0.5,0.1c-0.6,0.1-1.4,0.7-2.3,1.6C209.6,19,209,19.9,208.7,20.7z M213.2,14.1
		c0.4,0,1.3,0,2.6,0l-0.2,0.3c-0.2,0-0.6,0-1.2,0c-0.7,0-1.1-0.1-1.4-0.1L213.2,14.1z M215,13.2c0,0.2,0.1,0.3,0.4,0.4
		s0.5,0.1,0.7,0.1l1.3-2.1c-1,0.3-1.7,0.7-2.3,1.4C215.1,12.9,215,13,215,13.2z M216.4,14.1l1.7-0.1l-0.2,0.3
		c-1.1,0-1.6,0.1-1.6,0.1L216.4,14.1z M227.8,2.2c-3.9,1.7-7.6,5.5-11.1,11.4c0.2,0,0.3,0,0.5,0h0.6c5,0,9.6-1.2,13.9-3.7
		c2.5-1.5,3.7-3,3.7-4.6c0-1-0.5-1.9-1.5-2.6s-2.2-1.1-3.5-1.1C229.5,1.7,228.6,1.9,227.8,2.2z"/>
	<path fill="#606161" d="M215.8,22.7c-0.1,0.1-0.3,0.1-0.4,0.1c-0.3,0-0.4-0.2-0.4-0.6c0-0.9,0.7-2,2-3.3c0.6-0.6,1.2-1.1,1.7-1.5
		s1-0.7,1.5-0.8c0.2-0.1,0.5-0.1,0.7-0.1c0.3,0,0.6,0.1,0.9,0.2c0.2,0,0.3,0,0.3,0c0.2,0,0.3-0.1,0.5-0.2c0,0,0.1,0,0.1,0
		c0.1,0,0.1,0,0.1,0.1s0,0.1,0,0.1c-0.3,0.5-0.7,1.1-1,1.6s-0.7,1.1-1,1.6c-0.5,0.8-0.9,1.6-1.2,2.4c-0.3,0.8-0.5,1.5-0.6,2.2
		c0,0.1,0,0.1,0,0.2c0,0.1,0,0.1,0,0.2c0,0.8,0.5,1.2,1.4,1.2c0.4,0,0.8-0.1,1.3-0.2c0.7-0.2,1.5-0.7,2.5-1.5c1-0.8,1.8-1.6,2.3-2.3
		c0.1-0.1,0.2-0.2,0.2-0.2c0,0,0,0,0,0.1c0,0,0,0.1-0.1,0.2c-0.3,0.4-0.6,0.8-1,1.2c-0.4,0.4-0.9,0.8-1.4,1.3
		c-1,0.8-1.8,1.3-2.5,1.6c-0.2,0.1-0.3,0.1-0.5,0.1s-0.4,0-0.5,0c-0.6,0-1.1-0.2-1.5-0.5c-0.4-0.3-0.6-0.8-0.6-1.4
		c0-0.5,0.1-1.1,0.3-1.7s0.4-1.3,0.8-2c0.2-0.4,0.4-0.9,0.6-1.2c0.2-0.4,0.4-0.7,0.6-1c0.1-0.1,0.1-0.2,0-0.2c0,0,0,0-0.1,0
		c-0.3,0.3-0.6,0.7-1,1.1s-0.9,0.8-1.4,1.3c-0.5,0.5-1,0.8-1.5,1.2C216.6,22.2,216.2,22.5,215.8,22.7z M216.1,21.2
		c-0.1,0.1-0.1,0.3-0.1,0.4c0,0.3,0.1,0.4,0.3,0.4c0.1,0,0.2,0,0.3-0.1c0.7-0.4,1.4-1,2.1-1.7s1.5-1.6,2.4-2.6c0,0,0.1-0.1,0.1-0.1
		c0-0.1-0.1-0.2-0.2-0.4s-0.4-0.2-0.6-0.2c-0.1,0-0.3,0-0.4,0.1c-0.6,0.1-1.3,0.7-2.1,1.6C217,19.6,216.4,20.4,216.1,21.2z
		 M221.3,14.9c-0.1,0-0.1,0-0.2,0s0-0.1,0.1-0.2c0.2-0.1,0.5-0.2,0.7-0.3s0.5-0.3,0.8-0.4c0.3-0.1,0.5-0.3,0.8-0.4s0.5-0.2,0.6-0.3
		c0.1,0,0.2,0,0.2,0s0.1,0.1,0.1,0.2s0,0.2,0,0.2s-0.1,0.1-0.1,0.2c-0.2,0.1-0.4,0.1-0.7,0.2s-0.5,0.2-0.8,0.3s-0.6,0.2-0.8,0.3
		S221.6,14.9,221.3,14.9z"/>
	<path fill="#606161" d="M224.2,22.5c-0.1,0-0.2,0-0.3,0c-0.1,0-0.2-0.1-0.3-0.1c-0.1-0.1-0.1-0.1-0.2-0.2s-0.1-0.2-0.1-0.3
		c0-1,0.8-2.5,2.4-4.4c0.1-0.1,0-0.1,0-0.2c-0.1-0.1-0.2-0.1-0.3-0.2c-0.1-0.1-0.2-0.2-0.2-0.2c0,0,0-0.1,0.1-0.1s0.2-0.1,0.5-0.1
		c0.4,0,0.7,0,0.7,0c0,0,0.1,0,0.2-0.1c0.3-0.3,0.5-0.4,0.8-0.4c0.2,0,0.5,0.1,0.8,0.3c0,0,0,0,0.1,0s0,0,0.1,0c0.3,0,0.6,0,1,0
		s0.8,0,1.3,0c0.2,0,0.3,0,0.3,0.1c0,0.1-0.1,0.1-0.3,0.1c-0.4,0-0.6,0.1-0.7,0.2c0,0,0,0.1,0,0.1c0,0,0,0.1,0,0.1s0,0.1,0,0.1
		c0,0.5-0.2,0.9-0.6,1.5c-0.4,0.5-0.9,1.1-1.6,1.7C226.5,21.7,225.3,22.4,224.2,22.5z M224,21.6c-0.1,0.1-0.1,0.3-0.1,0.4
		c0,0.3,0.2,0.4,0.6,0.3c0.8-0.1,1.8-0.7,2.9-1.8c1.2-1.1,1.9-2,2.1-2.9c0.1-0.4-0.1-0.6-0.7-0.6c-0.3,0-0.6,0-0.8,0
		s-0.5,0.1-0.7,0.2c0,0-0.1,0-0.3,0.2C225.7,18.5,224.7,19.9,224,21.6z"/>
	<path fill="#606161" d="M236,19.1c0-0.2,0.2-0.3,0.6-0.3h2.5c0.2,0,0.3,0.1,0.3,0.2c0,0.2-0.2,0.3-0.5,0.3h-2.6
		C236.1,19.3,236,19.2,236,19.1z"/>
	<path fill="#606161" d="M276.8,4.6c-0.6,0.7-1.3,1.5-1.9,2.3s-1.3,1.7-1.9,2.6s-1.2,1.8-1.7,2.6c-0.5,0.9-1,1.7-1.3,2.5
		c0.2,0,0.3,0,0.5,0s0.3,0,0.4,0c0.1,0,0.2,0.1,0.2,0.1s0,0.1,0,0.2s-0.1,0.1-0.1,0.1s-0.2,0.1-0.3,0c-0.1,0-0.3,0-0.5,0
		s-0.4,0-0.6,0c-0.1,0.3-0.3,0.7-0.5,1.1c-0.2,0.5-0.4,1-0.6,1.6c-0.2,0.6-0.4,1.2-0.5,1.8s-0.2,1.2-0.2,1.7c0,0.2,0.1,0.4,0.3,0.4
		s0.3,0.1,0.4,0c0.1-0.1,0.2-0.1,0.2,0s0,0.1,0,0.3c-0.1,0.1-0.2,0.2-0.3,0.3c-0.1,0-0.2,0-0.3,0s-0.2-0.1-0.3-0.2s-0.2-0.2-0.3-0.3
		s-0.1-0.2-0.1-0.3c-0.1-0.4-0.1-0.9,0-1.5c0.1-0.6,0.2-1.1,0.3-1.7s0.3-1.2,0.5-1.7c0.2-0.6,0.4-1.1,0.6-1.5c-0.3,0-0.8,0-1.4,0
		s-1.2,0-1.8,0.1s-1.2,0-1.8,0.1c-0.6,0-1.1,0.1-1.5,0.2c-0.8,1.1-1.7,2.2-2.6,3.3s-1.9,2.1-2.9,3c-1,0.9-2.1,1.7-3.2,2.4
		s-2.2,1.2-3.3,1.6c-0.8,0.2-1.4,0.3-2,0.3s-1-0.1-1.4-0.3s-0.6-0.4-0.8-0.8c-0.2-0.3-0.2-0.6-0.2-1c0-0.3,0.1-0.6,0.3-0.9
		s0.3-0.6,0.5-0.9s0.4-0.5,0.6-0.8c0.2-0.2,0.4-0.4,0.6-0.6c0.1-0.1,0.2-0.2,0.3-0.1s0.1,0.1-0.1,0.3c-0.1,0.2-0.3,0.4-0.5,0.6
		s-0.3,0.5-0.5,0.7c-0.1,0.3-0.3,0.6-0.4,0.9s-0.2,0.6-0.2,0.9c-0.1,0.5,0,0.8,0.1,1.1c0.1,0.2,0.4,0.4,0.7,0.5
		c0.3,0.1,0.7,0.1,1.1,0s0.9-0.2,1.5-0.4c1-0.3,2-0.9,3-1.6c1-0.7,2-1.5,3-2.4c1-0.9,1.9-1.8,2.7-2.8s1.6-1.9,2.2-2.9
		c-0.1,0-0.3,0-0.5,0.1s-0.4,0.1-0.6,0.1c-0.1,0-0.3-0.1-0.4-0.2s-0.2-0.2-0.2-0.3c-0.1-0.1-0.1-0.2,0-0.3s0.1-0.2,0.3-0.2
		c0.3-0.1,0.6-0.1,0.9-0.1s0.7,0,1.1,0c0.2-0.3,0.4-0.6,0.7-1s0.5-0.8,0.7-1.3s0.4-0.9,0.6-1.3s0.3-0.8,0.4-1.1
		c0.2-0.8,0.2-1.5,0.1-2.1c-0.1-0.6-0.4-1.1-0.8-1.4s-0.9-0.6-1.6-0.7s-1.4,0-2.3,0.2c-1.5,0.4-3,1-4.4,2c-1.4,1-2.7,2.2-3.9,3.5
		c0,0.2,0,0.3,0,0.4s-0.1,0.2-0.1,0.3c-0.1,0.2-0.3,0.4-0.5,0.6s-0.4,0.4-0.6,0.5c-0.1,0.1-0.2,0.1-0.3,0c-0.1-0.1-0.2-0.2-0.2-0.3
		c0-0.1-0.1-0.3-0.1-0.4c0-0.1,0-0.3,0.1-0.4c0.6-0.8,1.2-1.7,2.1-2.4c0.8-0.8,1.7-1.5,2.5-2.1c0.9-0.6,1.8-1.1,2.7-1.5
		c0.9-0.4,1.7-0.7,2.5-0.9c1-0.2,1.9-0.2,2.7-0.1c0.8,0.1,1.4,0.4,1.9,0.8c0.5,0.4,0.8,1,1,1.6s0.2,1.4,0.1,2.3
		c-0.1,0.4-0.1,0.8-0.3,1.2c-0.1,0.4-0.3,0.9-0.5,1.3s-0.4,0.8-0.6,1.2s-0.4,0.7-0.6,1c0.3,0,0.8,0,1.3,0c0.5,0,1.1,0,1.7,0
		c0.6,0,1.2,0,1.7,0c0.6,0,1,0,1.4,0c0.3-0.6,0.6-1.3,1-2s0.8-1.4,1.3-2.1s0.9-1.4,1.3-2s0.8-1.1,1.1-1.5c0.1-0.1,0.1-0.2,0-0.2
		s-0.1-0.1-0.2,0c-0.1,0-0.2,0-0.2-0.1c0-0.1,0-0.1,0-0.2c0.2-0.2,0.4-0.5,0.6-0.7s0.5-0.5,0.7-0.8s0.5-0.5,0.7-0.7s0.4-0.4,0.6-0.6
		c0.1-0.1,0.2-0.1,0.3-0.1s0.2,0.1,0.3,0.2s0.1,0.2,0.2,0.3C276.8,4.3,276.8,4.5,276.8,4.6z"/>
	<path fill="#606161" d="M272.4,22.5c-0.1,0-0.2,0-0.3,0c-0.1,0-0.2-0.1-0.3-0.1c-0.1-0.1-0.1-0.1-0.2-0.2s-0.1-0.2-0.1-0.3
		c0-1,0.8-2.5,2.4-4.4c0.1-0.1,0-0.1,0-0.2c-0.1-0.1-0.2-0.1-0.3-0.2c-0.1-0.1-0.2-0.2-0.2-0.2c0,0,0-0.1,0.1-0.1s0.2-0.1,0.5-0.1
		c0.4,0,0.7,0,0.7,0c0,0,0.1,0,0.2-0.1c0.3-0.3,0.5-0.4,0.8-0.4c0.2,0,0.5,0.1,0.8,0.3c0,0,0,0,0.1,0s0,0,0.1,0c0.3,0,0.6,0,1,0
		s0.8,0,1.3,0c0.2,0,0.3,0,0.3,0.1c0,0.1-0.1,0.1-0.3,0.1c-0.4,0-0.6,0.1-0.7,0.2c0,0,0,0.1,0,0.1c0,0,0,0.1,0,0.1s0,0.1,0,0.1
		c0,0.5-0.2,0.9-0.6,1.5c-0.4,0.5-0.9,1.1-1.6,1.7C274.7,21.7,273.5,22.4,272.4,22.5z M272.1,21.6c-0.1,0.1-0.1,0.3-0.1,0.4
		c0,0.3,0.2,0.4,0.6,0.3c0.8-0.1,1.8-0.7,2.9-1.8c1.2-1.1,1.9-2,2.1-2.9c0.1-0.4-0.1-0.6-0.7-0.6c-0.3,0-0.6,0-0.8,0
		s-0.5,0.1-0.7,0.2c0,0-0.1,0-0.3,0.2C273.8,18.5,272.8,19.9,272.1,21.6z"/>
	<path fill="#606161" d="M278.6,22.7c-0.1,0.1-0.3,0.1-0.4,0.1c-0.3,0-0.4-0.2-0.4-0.6c0-0.9,0.7-2,2-3.3c0.6-0.6,1.2-1.1,1.7-1.5
		s1-0.7,1.5-0.8c0.2-0.1,0.5-0.1,0.7-0.1c0.3,0,0.6,0.1,0.9,0.2c0.2,0,0.3,0,0.3,0c0.2,0,0.3-0.1,0.5-0.2c0,0,0.1,0,0.1,0
		c0.1,0,0.1,0,0.1,0.1s0,0.1,0,0.1c-0.3,0.5-0.7,1.1-1,1.6s-0.7,1.1-1,1.6c-0.5,0.8-0.9,1.6-1.2,2.4c-0.3,0.8-0.5,1.5-0.6,2.2
		c0,0.1,0,0.1,0,0.2c0,0.1,0,0.1,0,0.2c0,0.8,0.5,1.2,1.4,1.2c0.4,0,0.8-0.1,1.3-0.2c0.7-0.2,1.5-0.7,2.5-1.5c1-0.8,1.8-1.6,2.3-2.3
		c0.1-0.1,0.2-0.2,0.2-0.2c0,0,0,0,0,0.1c0,0,0,0.1-0.1,0.2c-0.3,0.4-0.6,0.8-1,1.2c-0.4,0.4-0.9,0.8-1.4,1.3
		c-1,0.8-1.8,1.3-2.5,1.6c-0.2,0.1-0.3,0.1-0.5,0.1s-0.4,0-0.5,0c-0.6,0-1.1-0.2-1.5-0.5c-0.4-0.3-0.6-0.8-0.6-1.4
		c0-0.5,0.1-1.1,0.3-1.7s0.4-1.3,0.8-2c0.2-0.4,0.4-0.9,0.6-1.2c0.2-0.4,0.4-0.7,0.6-1c0.1-0.1,0.1-0.2,0-0.2c0,0,0,0-0.1,0
		c-0.3,0.3-0.6,0.7-1,1.1s-0.9,0.8-1.4,1.3c-0.5,0.5-1,0.8-1.5,1.2C279.4,22.2,279,22.5,278.6,22.7z M278.9,21.2
		c-0.1,0.1-0.1,0.3-0.1,0.4c0,0.3,0.1,0.4,0.3,0.4c0.1,0,0.2,0,0.3-0.1c0.7-0.4,1.4-1,2.1-1.7s1.5-1.6,2.4-2.6c0,0,0.1-0.1,0.1-0.1
		c0-0.1-0.1-0.2-0.2-0.4s-0.4-0.2-0.6-0.2c-0.1,0-0.3,0-0.4,0.1c-0.6,0.1-1.3,0.7-2.1,1.6C279.8,19.6,279.2,20.4,278.9,21.2z
		 M284.8,14.7c0.1,0.1,0.1,0.1,0,0.1s-0.1,0-0.1,0c-0.2-0.1-0.4-0.3-0.6-0.4s-0.5-0.3-0.7-0.5s-0.5-0.3-0.7-0.5s-0.4-0.3-0.6-0.4
		C282,13,282,13,282,12.9s0-0.2,0.1-0.2c0.1-0.1,0.1-0.1,0.2-0.1s0.2,0,0.2,0.1c0.1,0.1,0.3,0.3,0.5,0.5s0.4,0.4,0.6,0.6
		c0.2,0.2,0.4,0.4,0.6,0.6S284.6,14.5,284.8,14.7z"/>
	<path fill="#606161" d="M284.4,21.8c-0.1,0-0.2,0-0.2-0.1c0-0.1,0-0.1,0-0.3c0.3-0.6,0.7-1.4,1.4-2.4c0.3-0.5,0.6-0.9,0.9-1.3
		s0.5-0.7,0.8-1c0-0.1,0.1-0.1,0.2-0.1s0.2-0.1,0.3-0.1c0.1,0,0.1,0,0.1,0c0,0,0,0.1-0.1,0.1c-0.5,0.5-0.9,1.1-1.2,1.6
		c-0.3,0.5-0.6,1.1-0.9,1.6c0,0.1-0.1,0.1-0.1,0.2c0,0.1,0,0.2,0.1,0.2c0.1,0,0.1,0,0.2-0.1c0.3-0.3,0.7-0.6,1.1-1s0.7-0.6,1.1-0.9
		c0.9-0.7,1.5-1.1,1.8-1.3c0.2-0.1,0.3-0.2,0.4-0.3c0.3-0.1,0.5-0.1,0.6-0.1c0.2,0.1,0.2,0.2,0,0.4c-0.9,1.1-1.6,2.3-2.3,3.8
		c-0.7,1.4-1,2.5-1.1,3.4c0,0.6,0.1,1,0.3,1.3c0.3,0.3,0.6,0.4,1,0.4c0.2,0,0.4,0,0.5-0.1c0.7-0.2,1.5-0.7,2.6-1.6
		c1.1-1,1.7-1.8,1.7-2.3c0-0.1,0-0.2-0.1-0.3s-0.1-0.1-0.2-0.1c-0.1,0-0.1,0-0.2,0c0,0-0.1,0-0.1-0.1c0-0.1,0-0.1,0.1-0.2
		s0.2-0.1,0.3-0.1c0.2,0,0.3,0.1,0.3,0.4c0,0.1,0,0.3-0.1,0.5c-0.1,0.3-0.3,0.7-0.6,1.1s-0.6,0.8-1,1.2c-1.2,1.1-2.4,1.8-3.7,1.9
		c-0.5,0-0.9-0.1-1.2-0.4c-0.3-0.4-0.5-0.9-0.4-1.7c0.1-0.9,0.4-1.9,1.1-3.3c0.3-0.6,0.6-1.1,0.9-1.6s0.6-1,1-1.5
		c0,0,0.1-0.1,0.1-0.2c0-0.2-0.1-0.3-0.3-0.3c-0.1,0-0.2,0-0.3,0.1c-0.7,0.5-1.4,1-2,1.7c-0.7,0.6-1.4,1.4-2.1,2.2
		C285.2,21.6,284.9,21.7,284.4,21.8z"/>
	<path fill="#606161" d="M297.7,22.2C297.7,22.2,297.7,22.2,297.7,22.2c-0.1-0.2-0.1-0.2-0.1-0.3c0-0.1,0.1-0.2,0.2-0.4
		c0.2-0.3,0.4-0.7,0.6-1.1s0.6-0.9,0.9-1.4c0.3-0.5,0.7-0.9,0.9-1.3s0.5-0.6,0.7-0.8c0.1-0.1,0.2-0.1,0.3-0.2c0.1-0.1,0.2-0.1,0.3,0
		c0,0,0,0.1-0.1,0.2c-0.1,0-0.3,0.3-0.7,0.8c-0.5,0.5-0.9,1.1-1.2,1.8c-0.2,0.3-0.2,0.4,0,0.4c0.1,0,0.1,0,0.2-0.1
		c0.7-0.7,1.6-1.4,2.6-2.1c0.8-0.5,1.3-0.6,1.6-0.5c0.1,0,0.2,0.1,0.2,0.3c0,0.1-0.1,0.3-0.2,0.7s-0.3,0.7-0.6,1.2
		c-0.1,0.1-0.1,0.2-0.1,0.3c0,0.1,0.1,0.2,0.2,0.2c0.1,0,0.1,0,0.2-0.1c0.8-0.8,1.6-1.4,2.3-1.9s1.4-0.9,2-1.2
		c0.1,0,0.1-0.1,0.2-0.1c0.2,0,0.3,0.1,0.2,0.4c0,0-0.1,0.1-0.2,0.2c-0.1,0.1-0.1,0.1-0.2,0.2c-0.2,0.5-0.5,1.1-0.8,1.7
		s-0.7,1.2-1.1,1.9c-0.1,0.2-0.2,0.3-0.2,0.4c0,0.1,0,0.1,0.1,0.1c0,0,0.1,0,0.1,0s0.1,0,0.2-0.1c0.9-0.4,2-0.8,3.3-1.2
		c0.9-0.3,1.8-0.5,2.6-0.7s1.5-0.3,2.1-0.3c0.5,0,1,0,1.4,0.1s0.8,0.2,1.1,0.4c0.7,0.4,1,0.9,1,1.4c0,0.2,0,0.3-0.1,0.5
		c-0.1,0.2-0.2,0.4-0.4,0.5c-0.1,0.1-0.2,0.1-0.2,0.1c0,0-0.1,0-0.1-0.1c0-0.1,0-0.1,0.1-0.2c0.1-0.1,0.2-0.2,0.3-0.5
		c0.1-0.2,0.1-0.4,0.1-0.5c0-0.4-0.2-0.8-0.6-1.1c-0.5-0.3-1.1-0.5-1.9-0.5c-0.1,0-0.2,0-0.3,0c-0.1,0-0.2,0-0.3,0
		c-1.8,0.2-3.5,0.6-5.3,1.2c-1.8,0.6-3.4,1.4-4.6,2.4c-0.1,0-0.1,0.1-0.2,0.1c-0.1,0-0.2-0.1-0.2-0.2c0,0,0-0.1,0.1-0.1l0.4-0.4
		c0-0.1,0-0.3,0-0.4c1-1.2,1.7-2.4,2.1-3.5c0.1-0.2,0.1-0.3,0.1-0.5c0-0.2-0.1-0.3-0.3-0.3c-0.1,0-0.2,0.1-0.4,0.2
		c-1.8,1.4-3,2.5-3.5,3.2c0,0-0.1,0.1-0.1,0.1s-0.2,0.1-0.3,0.1c-0.2,0.1-0.3,0.1-0.4,0.2s-0.2,0.1-0.2,0.1c-0.1,0-0.1,0-0.2-0.1
		c-0.1-0.1-0.1-0.2,0-0.2c0.4-0.5,0.7-1,0.9-1.5s0.5-1,0.6-1.4c0-0.1,0.1-0.2,0.1-0.3c0-0.2-0.1-0.3-0.3-0.3c0,0-0.1,0-0.2,0.1
		c-0.1,0.1-0.3,0.2-0.5,0.3s-0.5,0.4-0.8,0.6c-0.7,0.6-1.3,1.1-1.8,1.7c-0.1,0.1-0.3,0.3-0.4,0.6s-0.4,0.5-0.6,0.8
		c0,0.1-0.2,0.1-0.4,0.2c-0.1,0.1-0.2,0.1-0.3,0.1S297.8,22.2,297.7,22.2z"/>
	<path fill="#606161" d="M313.5,22.2c0.2-0.5,0.4-1.3,0.6-2.2c0.1-0.4,0.2-0.7,0.2-1s0.1-0.5,0.1-0.7c-0.6,0.5-1.3,1.1-2.2,1.7
		c-1.2,0.8-2.1,1.3-2.8,1.6c-0.1,0-0.1,0-0.2,0c-0.1,0-0.2,0-0.3-0.1c-0.1-0.1-0.1-0.2-0.1-0.3c0.1-0.2,0.6-1.3,1.6-3.1
		c0,0,0-0.1,0-0.3s0-0.3,0-0.3c0-0.1,0.3-0.2,0.7-0.4c0.4-0.2,0.7-0.3,0.8-0.3c0.2,0,0.3,0.1,0.3,0.3c-0.3,0.1-0.7,0.6-1.3,1.4
		c-0.5,0.7-0.9,1.3-1.1,1.8c0,0.1-0.1,0.2-0.1,0.2c0,0.1,0,0.2,0.1,0.2c0.1,0,0.2,0,0.3,0c0.3-0.1,0.6-0.3,1-0.5s0.8-0.5,1.3-0.9
		c0.4-0.3,0.7-0.5,1-0.7s0.5-0.4,0.7-0.6c0.1-0.1,0.1-0.2,0.2-0.3c0.1-0.1,0.2-0.1,0.2-0.1c0.2,0,0.4,0,0.5,0.1
		c0.1,0.1,0.1,0.2,0.1,0.3c0,0.1-0.1,0.1-0.1,0.2c0,0.1-0.1,0.2-0.2,0.3c-0.2,0.9-0.6,2.1-1.1,3.6c1.8-0.3,3.6-0.5,5.2-0.5
		c0.6,0,1,0,1.4,0.1c0.1,0,0.3,0.1,0.4,0.2s0.3,0.2,0.4,0.3c0.1,0.1,0.2,0.2,0.3,0.4c0.1,0.1,0.1,0.3,0.1,0.4c0,0.2,0,0.3-0.1,0.4
		c-0.2,0.3-0.5,0.7-1.2,1.2c-0.1,0.1-0.2,0.1-0.2,0.1c0,0,0,0,0,0c0-0.1,0.1-0.1,0.2-0.2c0.7-0.7,1.1-1.3,1.1-1.8
		c0-0.4-0.3-0.7-0.9-0.7c-0.2,0-0.4,0-0.6,0s-0.5,0-0.7,0c-2.2,0-3.9,0.1-5.3,0.4c-3.5,10.1-7.8,15.3-12.9,15.6
		c-1.7,0.1-3.3-0.4-4.7-1.6c-1.5-1.1-2.2-2.4-2.2-3.8c0-0.5,0.1-0.9,0.3-1.4c0.9-2.1,3.8-4.2,8.6-6.1c1.7-0.7,3.4-1.2,5.1-1.7
		S311.7,22.6,313.5,22.2z M295,31.8c-0.1,0.2-0.1,0.4-0.2,0.6c0,0.2-0.1,0.4-0.1,0.6c0,1.3,0.6,2.4,1.9,3.4c1.3,1,2.8,1.5,4.5,1.4
		c2.9-0.1,5.6-2.3,8.3-6.5c0.8-1.3,1.5-2.7,2.2-4.1c0.7-1.4,1.3-3,1.8-4.6c-4.3,0.9-8.1,2.1-11.4,3.6
		C298.1,27.9,295.7,29.8,295,31.8z M313.5,14.4c-0.1,0.1-0.2,0.1-0.2,0.1s0-0.1,0.1-0.2c0.1-0.1,0.1-0.1,0.2-0.2
		c0.1-0.1,0.2-0.2,0.3-0.2c0.1-0.1,0.2-0.1,0.3-0.2s0.2-0.1,0.3-0.1c0.1,0,0.3,0,0.4,0.1c0.2,0.1,0.3,0.1,0.5,0.2
		c0.2,0.1,0.4,0.1,0.5,0.2s0.3,0.1,0.4,0.1c0.3,0,0.5,0,0.6-0.1c0.1,0,0.2-0.1,0.3-0.2c0.1-0.1,0.2-0.1,0.2-0.1s0,0.1-0.1,0.2
		c-0.1,0.1-0.3,0.3-0.5,0.4s-0.4,0.3-0.6,0.3c-0.1,0-0.3,0-0.4-0.1s-0.3-0.1-0.5-0.2c-0.2-0.1-0.4-0.1-0.5-0.2
		c-0.2-0.1-0.3-0.1-0.4-0.1c-0.2,0-0.4,0-0.6,0.1C313.8,14.2,313.7,14.3,313.5,14.4z"/>
</g>
</svg>
