<?xml version="1.0" standalone="no"?>
<!DOCTYPE svg PUBLIC "-//W3C//DTD SVG 1.1//EN" "http://www.w3.org/Graphics/SVG/1.1/DTD/svg11.dtd" >
<svg xmlns="http://www.w3.org/2000/svg" xmlns:xlink="http://www.w3.org/1999/xlink" version="1.1">
<metadata>
Created by FontForge 20170910 at Wed Sep  1 11:24:45 2010
 By Jimmy Wärting
VIE-HandelGothic Bold is a trademark of VietSoft.
</metadata>
<defs>
<font id="VIE-HandelGothic-Bold" horiz-adv-x="500" >
  <font-face 
    font-family="VIE-HandelGothic"
    font-weight="700"
    font-stretch="normal"
    units-per-em="1000"
    panose-1="0 0 0 0 0 0 0 0 0 0"
    ascent="800"
    descent="-200"
    x-height="487"
    cap-height="667"
    bbox="-520 -293 1238 1030"
    underline-thickness="109"
    underline-position="-147"
    stemh="104"
    stemv="134"
    unicode-range="U+0020-F002"
  />
<missing-glyph 
d="M125 968v-905h250v905h-250zM438 0h-375v1030h375v-1030z" />
    <glyph glyph-name=".notdef" 
d="M125 968v-905h250v905h-250zM438 0h-375v1030h375v-1030z" />
    <glyph glyph-name="space" unicode=" " horiz-adv-x="250" 
 />
    <glyph glyph-name="exclam" unicode="!" horiz-adv-x="274" 
d="M66 113h142v-113h-142v113zM66 667h142v-504h-142v504z" />
    <glyph glyph-name="quotedbl" unicode="&#x22;" horiz-adv-x="409" 
d="M347 667v-268h-91v268h91zM154 667v-268h-91v268h91z" />
    <glyph glyph-name="numbersign" unicode="#" horiz-adv-x="653" 
d="M383 282l19 116h-131l-18 -116h130zM169 465l27 168h112l-27 -168h131l27 168h113l-27 -168h110l-10 -67h-111l-18 -116h110l-10 -67h-111l-29 -182h-112l29 182h-131l-29 -182h-113l29 182h-110l11 67h110l18 116h-110l10 67h111z" />
    <glyph glyph-name="dollar" unicode="$" horiz-adv-x="696" 
d="M308 399v149c-21 0 -41 -1 -60 -4c-37 -5 -56 -29 -56 -70c0 -42 23 -66 69 -73c9 -1 25 -2 47 -2zM390 280v-161c25 1 42 2 53 5c39 9 60 38 60 73c0 33 -14 56 -43 71c-14 7 -37 11 -70 12zM67 119h241v161c-48 0 -77 0 -86 1c-31 2 -59 8 -83 17c-33 13 -58 36 -77 69
c-18 31 -27 65 -27 102c0 46 13 88 38 125c28 40 64 63 107 69c21 3 63 4 128 4v96h82v-96h234v-119h-234v-149c47 0 78 -1 92 -2c119 -11 179 -78 179 -201c0 -37 -8 -72 -24 -103c-18 -35 -43 -60 -74 -74c-23 -10 -52 -18 -85 -18c-6 -1 -35 -1 -88 -1v-98h-82v98h-241
v119z" />
    <glyph glyph-name="percent" unicode="%" horiz-adv-x="883" 
d="M662 261c-51 0 -77 -31 -77 -94c0 -66 28 -99 84 -99c51 0 76 33 76 99c0 63 -28 94 -83 94zM664 333c119 0 179 -56 179 -169c0 -112 -57 -168 -170 -168c-124 0 -186 57 -186 170c0 111 59 167 177 167zM262 0l269 667h85l-269 -667h-85zM214 598
c-51 0 -77 -31 -77 -93c0 -67 28 -100 83 -100c51 0 76 33 76 99c0 63 -27 94 -82 94zM215 670c119 0 179 -56 179 -169c0 -112 -57 -168 -170 -168c-123 0 -185 57 -185 170c0 111 59 167 176 167z" />
    <glyph glyph-name="ampersand" unicode="&#x26;" horiz-adv-x="751" 
d="M398 393h339v-119h-93c-32 -99 -72 -169 -121 -210c-54 -45 -131 -68 -230 -68c-166 0 -249 66 -249 198c0 71 28 117 84 138c-62 39 -93 92 -93 158c0 33 8 63 23 92c16 29 37 51 64 64c27 14 73 21 138 21h223v-119h-191c-63 0 -94 -25 -94 -75c0 -47 32 -80 79 -80h48
v-119h-22c-39 0 -65 -4 -76 -13c-18 -13 -27 -34 -27 -61c0 -56 36 -84 109 -84c54 0 96 13 125 40c28 25 48 64 60 118h-96v119z" />
    <glyph glyph-name="quoteright" unicode="&#x2019;" horiz-adv-x="234" 
d="M61 667h121v-116l-77 -151h-61l61 137h-44v130z" />
    <glyph glyph-name="parenleft" unicode="(" horiz-adv-x="425" 
d="M392 762v-111c-84 -5 -141 -42 -172 -112c-21 -47 -32 -120 -32 -218c0 -113 21 -194 63 -241c30 -33 77 -53 141 -60v-112c-114 9 -197 40 -248 94c-67 70 -100 179 -100 327c0 161 42 280 125 356c33 29 67 50 103 61c28 8 68 13 120 16z" />
    <glyph glyph-name="parenright" unicode=")" horiz-adv-x="425" 
d="M33 651v111c63 -3 109 -11 138 -23c75 -31 131 -87 166 -170c29 -67 44 -147 44 -240c0 -163 -41 -279 -123 -347c-51 -42 -126 -67 -225 -74v112c64 7 111 27 141 60c42 47 63 128 63 241c0 98 -11 171 -32 218c-31 70 -88 107 -172 112z" />
    <glyph glyph-name="asterisk" unicode="*" horiz-adv-x="367" 
d="M183 455l-52 -75l-64 46l54 74l-91 27l28 74l89 -29l-3 95h79l-3 -95l88 29l29 -74l-91 -27l54 -74l-64 -46z" />
    <glyph glyph-name="plus" unicode="+" horiz-adv-x="559" 
d="M37 286v109h187v178h113v-178h186v-109h-186v-179h-113v179h-187z" />
    <glyph glyph-name="comma" unicode="," horiz-adv-x="234" 
d="M61 130h121v-116l-77 -151h-61l61 137h-44v130z" />
    <glyph glyph-name="hyphen" unicode="-" horiz-adv-x="233" 
d="M0 318h233v-120h-233v120z" />
    <glyph glyph-name="period" unicode="." horiz-adv-x="224" 
d="M51 130h121v-130h-121v130z" />
    <glyph glyph-name="slash" unicode="/" horiz-adv-x="533" 
d="M575 758l-491 -850h-125l491 850h125z" />
    <glyph glyph-name="zero" unicode="0" horiz-adv-x="725" 
d="M356 559c-111 0 -167 -73 -167 -218c0 -75 11 -130 33 -165c28 -45 77 -68 147 -68c111 0 166 77 166 231c0 147 -60 220 -179 220zM359 671c221 0 332 -113 332 -338s-105 -337 -314 -337c-229 0 -344 113 -344 339c0 224 109 336 326 336z" />
    <glyph glyph-name="one" unicode="1" horiz-adv-x="278" 
d="M210 667v-667h-142v667h142z" />
    <glyph glyph-name="two" unicode="2" horiz-adv-x="661" 
d="M177 177v-59h435v-118h-577v177c0 52 9 96 28 131c22 43 56 70 102 79c16 3 44 5 85 5h109c76 0 114 25 114 75c0 55 -38 82 -114 82h-313v118h343c77 0 134 -13 172 -39c45 -31 68 -83 68 -156c0 -85 -27 -142 -81 -171c-33 -18 -82 -27 -149 -27h-94
c-62 0 -100 -10 -113 -31c-10 -15 -15 -37 -15 -66z" />
    <glyph glyph-name="three" unicode="3" horiz-adv-x="619" 
d="M326 0h-293v118h286c35 0 60 5 75 14c21 12 31 34 31 65c0 32 -10 54 -31 67c-15 9 -40 14 -75 14h-223v118h223c36 0 61 4 75 11c20 11 30 32 30 64c0 30 -11 52 -32 66c-12 8 -36 12 -73 12h-286v118h311c63 0 107 -5 130 -15c64 -27 106 -97 106 -169
c0 -63 -30 -111 -89 -145c60 -39 90 -92 90 -161c0 -99 -61 -160 -160 -173c-19 -3 -51 -4 -95 -4z" />
    <glyph glyph-name="four" unicode="4" horiz-adv-x="706" 
d="M446 519l-262 -285h262v285zM446 116h-421v141l376 410h187v-433h88v-118h-88v-116h-142v116z" />
    <glyph glyph-name="five" unicode="5" horiz-adv-x="676" 
d="M58 667h548v-118h-406v-153h211c78 0 133 -13 165 -39c44 -35 66 -86 66 -153c0 -87 -37 -147 -112 -180c-37 -16 -97 -24 -180 -24h-292v118h292c44 0 74 3 91 9c30 11 45 35 45 70c0 41 -16 66 -47 75c-13 4 -43 6 -89 6h-292v389z" />
    <glyph glyph-name="six" unicode="6" horiz-adv-x="691" 
d="M392 275h-200c1 -87 28 -139 81 -156c22 -7 55 -11 99 -11c39 0 68 5 87 14c27 13 41 36 41 71c0 43 -18 69 -55 78c-11 3 -28 4 -53 4zM192 393h225c45 0 76 -1 93 -4c95 -15 146 -82 146 -182c0 -79 -35 -138 -104 -177c-40 -23 -101 -34 -183 -34
c-111 0 -191 23 -240 69c-64 61 -96 151 -96 270c0 53 8 104 25 153c19 57 47 100 84 127c46 35 123 52 232 52h246v-118h-203c-93 0 -151 -9 -176 -28c-33 -25 -49 -67 -49 -128z" />
    <glyph glyph-name="seven" unicode="7" horiz-adv-x="632" 
d="M27 667h582v-118l-405 -549h-174l419 549h-422v118z" />
    <glyph glyph-name="eight" unicode="8" horiz-adv-x="707" 
d="M352 281c-60 0 -98 -4 -115 -11c-28 -13 -42 -38 -42 -75c0 -46 17 -73 52 -82c13 -3 48 -5 105 -5c66 0 106 3 119 10c25 13 38 37 38 74c0 45 -19 73 -57 83c-15 4 -49 6 -100 6zM352 559c-59 0 -97 -3 -114 -10c-29 -12 -44 -37 -44 -74c0 -45 17 -71 52 -79
c14 -3 50 -5 107 -5c65 0 105 3 120 10c26 12 39 36 39 71c0 45 -20 72 -59 81c-17 4 -50 6 -101 6zM138 333c-35 21 -60 43 -75 66c-17 25 -25 57 -25 96c0 82 38 136 113 161c30 10 92 15 186 15c68 0 107 -1 117 -1c52 -3 90 -8 114 -19c64 -28 100 -93 100 -165
s-34 -123 -102 -153c31 -17 52 -34 64 -49c23 -29 35 -64 35 -105c0 -52 -20 -97 -60 -136c-23 -22 -60 -36 -113 -42c-25 -3 -66 -5 -123 -5c-39 0 -82 1 -131 3c-56 2 -102 18 -139 47c-41 32 -61 75 -61 130c0 41 11 76 34 105c12 16 34 33 66 52z" />
    <glyph glyph-name="nine" unicode="9" horiz-adv-x="691" 
d="M299 392h200c-1 123 -49 167 -176 167c-41 0 -71 -4 -90 -13c-28 -13 -42 -37 -42 -73c0 -29 11 -52 34 -67c14 -9 39 -14 74 -14zM499 274h-225c-45 0 -76 1 -93 4c-95 15 -146 82 -146 182c0 79 35 138 104 177c40 23 101 34 183 34c111 0 191 -23 240 -69
c64 -61 96 -151 96 -270c0 -53 -8 -104 -25 -153c-19 -57 -47 -100 -84 -127c-46 -35 -123 -52 -232 -52h-246v118h203c93 0 151 9 176 28c33 25 49 67 49 128z" />
    <glyph glyph-name="colon" unicode=":" horiz-adv-x="224" 
d="M51 364h121v-130h-121v130zM51 130h121v-130h-121v130z" />
    <glyph glyph-name="semicolon" unicode=";" horiz-adv-x="234" 
d="M61 130h121v-116l-77 -151h-61l61 137h-44v130zM61 364h121v-130h-121v130z" />
    <glyph glyph-name="less" unicode="&#x3c;" 
d="M33 402l433 229v-154l-270 -140l270 -141v-152l-433 229v129z" />
    <glyph glyph-name="equal" unicode="=" horiz-adv-x="559" 
d="M37 190v109h486v-109h-486zM37 382v109h486v-109h-486z" />
    <glyph glyph-name="greater" unicode="&#x3e;" 
d="M466 272l-433 -228v153l269 141l-269 140v153l433 -229v-130z" />
    <glyph glyph-name="question" unicode="?" horiz-adv-x="681" 
d="M79 113h142v-113h-142v113zM59 549v118h349c45 0 74 -1 88 -3c101 -15 152 -89 152 -196c0 -74 -24 -128 -73 -161c-31 -21 -79 -31 -146 -31h-88c-41 0 -69 -3 -84 -10c-24 -11 -36 -34 -36 -69v-34h-142v48c0 68 18 117 54 146c30 25 85 37 165 37h81c39 0 65 4 80 11
c22 11 33 34 33 69c0 50 -31 75 -92 75h-341z" />
    <glyph glyph-name="at" unicode="@" horiz-adv-x="793" 
d="M429 233l29 200h-16c-81 0 -122 -43 -122 -128c0 -48 30 -72 89 -72h20zM393 73h195v-73h-226c-108 0 -185 22 -231 66c-32 31 -57 72 -74 124c-16 46 -24 94 -24 143c0 56 10 109 29 158c21 57 52 100 93 129c53 38 137 57 251 57c116 0 201 -21 256 -62
c65 -49 97 -119 97 -211c0 -79 -25 -143 -74 -194c-23 -24 -57 -43 -101 -58h-213c-33 0 -54 1 -64 2c-22 3 -41 11 -58 23c-31 23 -46 58 -46 106c0 154 76 231 229 231h149l-41 -294h42c49 37 73 97 73 181c0 81 -26 138 -78 169c-37 23 -94 34 -171 34
c-95 0 -162 -21 -203 -64c-41 -42 -61 -111 -61 -207c0 -42 6 -82 18 -121c15 -47 36 -81 63 -103c30 -24 87 -36 170 -36z" />
    <glyph glyph-name="A" unicode="A" horiz-adv-x="723" 
d="M457 274l-95 233l-95 -233h190zM171 0h-167l276 667h163l276 -667h-166l-64 155h-254z" />
    <glyph glyph-name="B" unicode="B" horiz-adv-x="699" 
d="M210 274v-155h193c34 0 58 5 72 16c21 16 31 38 31 66c0 37 -17 60 -50 69c-10 3 -27 4 -50 4h-196zM210 548v-155h193c33 0 57 5 71 16c21 16 31 38 31 66c0 37 -17 60 -50 69c-9 3 -26 4 -49 4h-196zM437 0h-369v667h377c49 0 86 -5 112 -14c35 -12 63 -36 82 -71
c15 -28 23 -58 23 -90c0 -67 -38 -134 -97 -159c65 -29 97 -81 97 -156c0 -83 -33 -137 -98 -162c-26 -10 -68 -15 -127 -15z" />
    <glyph glyph-name="C" unicode="C" horiz-adv-x="607" 
d="M370 119h204v-119h-232c-51 0 -90 3 -119 10c-40 10 -74 29 -103 56c-59 57 -88 145 -88 266c0 67 10 125 31 176c25 61 64 104 116 129c43 20 99 30 169 30h226v-119h-209c-65 0 -113 -18 -142 -54c-23 -28 -34 -78 -34 -149c0 -101 20 -166 61 -196
c27 -20 67 -30 120 -30z" />
    <glyph glyph-name="D" unicode="D" horiz-adv-x="717" 
d="M351 548h-141v-429h141c64 0 108 15 132 44c31 38 46 95 46 170c0 89 -20 150 -61 184c-25 21 -64 31 -117 31zM68 0v667h283c129 0 218 -31 268 -92c22 -27 39 -66 51 -116c10 -42 15 -84 15 -127c0 -63 -9 -122 -28 -177c-27 -79 -82 -128 -164 -146
c-27 -6 -75 -9 -142 -9h-283z" />
    <glyph glyph-name="E" unicode="E" horiz-adv-x="714" 
d="M341 667h240v-119h-185c-41 0 -70 -2 -88 -6c-32 -7 -56 -21 -72 -42s-26 -57 -30 -109h375v-119h-375c5 -60 24 -101 58 -124c29 -19 75 -29 138 -29h179v-119h-185c-61 0 -108 4 -141 11c-51 11 -91 32 -122 64c-59 61 -88 149 -88 262c0 121 38 213 113 276
c43 36 104 54 183 54z" />
    <glyph glyph-name="F" unicode="F" horiz-adv-x="636" 
d="M203 394h397v-119h-397v-275h-142v348c0 88 10 153 29 196c27 59 78 97 155 113c32 7 74 10 125 10h230v-119h-212c-63 0 -106 -6 -131 -17c-36 -17 -54 -50 -54 -101v-36z" />
    <glyph glyph-name="G" unicode="G" horiz-adv-x="692" 
d="M312 277v119h328v-396h-298c-93 0 -161 17 -205 52c-70 55 -105 148 -105 279s35 224 104 279c47 38 118 57 212 57h292v-119h-275c-67 0 -114 -18 -141 -53c-24 -31 -36 -82 -36 -151c0 -89 16 -151 48 -185c25 -27 70 -40 134 -40h128v158h-186z" />
    <glyph glyph-name="H" unicode="H" horiz-adv-x="677" 
d="M467 667h142v-667h-142v275h-257v-275h-142v667h142v-273h257v273z" />
    <glyph glyph-name="I" unicode="I" horiz-adv-x="278" 
d="M210 0h-142v667h142v-667z" />
    <glyph glyph-name="J" unicode="J" horiz-adv-x="533" 
d="M166 0h-151v119h136c77 0 125 8 143 24c24 21 36 71 36 150v374h142v-374c0 -111 -23 -188 -69 -230c-45 -42 -124 -63 -237 -63z" />
    <glyph glyph-name="K" unicode="K" horiz-adv-x="659" 
d="M456 0l-241 338l255 329h186l-278 -329l265 -338h-187zM68 667h142v-667h-142v667z" />
    <glyph glyph-name="L" unicode="L" horiz-adv-x="533" 
d="M61 293v374h142v-374c0 -52 2 -85 5 -98c9 -34 30 -56 63 -67c19 -6 56 -9 111 -9h136v-119h-151c-72 0 -122 4 -150 11c-71 19 -118 61 -140 128c-11 33 -16 84 -16 154z" />
    <glyph glyph-name="M" unicode="M" horiz-adv-x="890" 
d="M66 667h208l166 -521l175 521h207v-667h-135v501l-175 -501h-146l-165 501v-501h-135v667z" />
    <glyph glyph-name="N" unicode="N" horiz-adv-x="718" 
d="M476 0l-273 489v-489h-135v667h181l266 -497v497h135v-667h-174z" />
    <glyph glyph-name="O" unicode="O" horiz-adv-x="705" 
d="M362 559c-67 0 -115 -22 -143 -67c-21 -33 -31 -85 -31 -157c0 -71 11 -124 34 -160c28 -45 75 -67 140 -67c115 0 172 75 172 225c0 70 -11 123 -33 159c-27 45 -74 67 -139 67zM361 672c116 0 201 -30 254 -89c50 -57 75 -143 75 -259c0 -219 -106 -328 -319 -328
c-226 0 -339 111 -339 334c0 231 104 342 329 342z" />
    <glyph glyph-name="P" unicode="P" horiz-adv-x="686" 
d="M210 548v-196h193c73 0 104 28 104 103c0 47 -16 76 -49 87c-11 4 -29 6 -52 6h-196zM438 233h-228v-233h-142v667h333c51 0 88 -2 109 -7c37 -9 68 -27 93 -54c40 -44 60 -96 60 -156c0 -83 -30 -146 -90 -187c-29 -20 -74 -30 -135 -30z" />
    <glyph glyph-name="Q" unicode="Q" horiz-adv-x="757" 
d="M362 560c-115 0 -173 -72 -173 -216c0 -72 11 -126 33 -163c27 -46 74 -69 141 -69c65 0 112 23 139 69c21 36 32 89 32 160c0 146 -57 219 -172 219zM616 119h114v-119h-250c-87 0 -139 1 -156 2c-195 15 -292 125 -292 329c0 229 104 341 329 341
c124 0 212 -34 265 -103c21 -27 37 -63 49 -110c11 -41 16 -81 16 -120c0 -86 -25 -159 -75 -220z" />
    <glyph glyph-name="R" unicode="R" horiz-adv-x="715" 
d="M210 548v-176h199c69 0 102 24 102 92c0 42 -16 68 -49 79c-10 3 -28 5 -53 5h-199zM324 253h-114v-253h-142v667h326c95 0 162 -13 200 -39c49 -34 74 -83 74 -147c0 -101 -42 -166 -127 -195c75 -20 115 -82 121 -185c3 -45 8 -79 16 -101h-159c-4 11 -9 43 -14 95
c-6 61 -22 103 -49 125c-26 22 -70 33 -132 33z" />
    <glyph glyph-name="S" unicode="S" horiz-adv-x="695" 
d="M401 0h-335v119h304c49 0 82 5 99 16c22 14 33 34 33 61c0 55 -38 83 -115 83h-123c-153 0 -230 64 -230 191c0 83 45 159 120 184c26 9 72 13 139 13h330v-119h-298c-43 0 -73 -2 -89 -6c-30 -7 -45 -30 -45 -68c0 -32 13 -54 38 -65c16 -7 44 -11 84 -11h107
c78 0 136 -14 174 -42c44 -32 66 -85 66 -160c0 -36 -8 -70 -25 -102c-18 -35 -42 -59 -73 -74c-27 -13 -81 -20 -161 -20z" />
    <glyph glyph-name="T" unicode="T" horiz-adv-x="585" 
d="M218 0v548h-213v119h575v-119h-220v-548h-142z" />
    <glyph glyph-name="U" unicode="U" horiz-adv-x="703" 
d="M61 667h142v-400c0 -107 51 -160 152 -160c71 0 115 21 134 64c8 18 12 50 12 96v400h142v-393c0 -196 -92 -279 -291 -279c-106 0 -183 24 -230 72c-25 26 -43 56 -52 91c-6 25 -9 60 -9 106v403z" />
    <glyph glyph-name="V" unicode="V" horiz-adv-x="719" 
d="M557 667h160l-292 -667h-142l-281 667h160l196 -502z" />
    <glyph glyph-name="W" unicode="W" horiz-adv-x="1058" 
d="M13 667h147l150 -502l139 502h159l140 -502l150 502h146l-216 -667h-161l-138 482l-139 -482h-161z" />
    <glyph glyph-name="X" unicode="X" horiz-adv-x="637" 
d="M5 0l227 337l-219 330h174l131 -219l142 219h172l-226 -330l226 -337h-167l-147 229l-144 -229h-169z" />
    <glyph glyph-name="Y" unicode="Y" horiz-adv-x="654" 
d="M250 0v292l-247 375h167l153 -260l161 260h168l-260 -380v-287h-142z" />
    <glyph glyph-name="Z" unicode="Z" horiz-adv-x="654" 
d="M37 116l421 432h-421v119h580v-123l-406 -425h406v-119h-580v116z" />
    <glyph glyph-name="bracketleft" unicode="[" horiz-adv-x="353" 
d="M226 758h93v-107h-34c-37 0 -60 -4 -69 -11c-11 -9 -16 -31 -16 -66v-482c0 -35 5 -56 15 -65c10 -8 33 -12 70 -12h34v-107h-93c-33 0 -56 1 -71 4c-27 5 -48 15 -64 31c-20 19 -30 56 -30 111v557c0 59 13 98 39 119c23 19 65 28 126 28z" />
    <glyph glyph-name="backslash" unicode="\" horiz-adv-x="533" 
d="M575 -92h-125l-491 850h125z" />
    <glyph glyph-name="bracketright" unicode="]" horiz-adv-x="353" 
d="M34 651v107h93c33 0 56 -1 71 -4c27 -5 48 -15 64 -31c20 -19 30 -57 30 -112v-557c0 -58 -13 -97 -40 -118c-23 -19 -65 -28 -125 -28h-93v107h34c37 0 60 4 70 12c10 9 15 30 15 65v482c0 35 -5 57 -16 66c-9 7 -32 11 -69 11h-34z" />
    <glyph glyph-name="asciicircum" unicode="^" 
d="M250 567l-99 -218h-137l150 322h172l150 -322h-137z" />
    <glyph glyph-name="underscore" unicode="_" 
d="M0 -148v109h500v-109h-500z" />
    <glyph glyph-name="quoteleft" unicode="&#x2018;" horiz-adv-x="234" 
d="M172 400h-121v116l77 151h61l-61 -137h44v-130z" />
    <glyph glyph-name="a" unicode="a" horiz-adv-x="595" 
d="M402 104v88h-177c-33 0 -50 -15 -50 -45c0 -29 24 -43 72 -43h155zM238 296h164v9c0 32 -9 54 -28 65c-15 9 -39 13 -74 13h-226v104h226c63 0 106 -4 131 -12c45 -15 77 -49 94 -102c7 -23 11 -56 11 -99v-274h-282c-48 0 -76 0 -83 1c-32 3 -57 11 -76 25
c-37 27 -56 67 -56 118c0 64 32 122 89 141c23 7 59 11 110 11z" />
    <glyph glyph-name="b" unicode="b" horiz-adv-x="597" 
d="M299 383h-99v-279h99c41 0 73 14 96 41c21 25 31 59 31 101c0 91 -42 137 -127 137zM200 667v-180h119c152 0 244 -86 244 -237c0 -52 -12 -98 -35 -139c-25 -43 -60 -74 -106 -93c-29 -12 -75 -18 -138 -18h-218v667h134z" />
    <glyph glyph-name="c" unicode="c" horiz-adv-x="510" 
d="M289 487h183v-104h-160c-99 0 -142 -40 -142 -139c0 -93 52 -140 157 -140h145v-104h-183c-44 0 -79 3 -105 11c-35 10 -64 29 -88 56c-42 47 -63 106 -63 178c0 87 25 151 75 194c37 32 98 48 181 48z" />
    <glyph glyph-name="d" unicode="d" horiz-adv-x="592" 
d="M294 104h97v279h-97c-81 0 -125 -53 -125 -136c0 -42 10 -76 30 -101c22 -28 54 -42 95 -42zM265 487h126v180h134v-667h-231c-43 0 -78 3 -103 10c-33 9 -63 27 -89 52c-46 45 -69 107 -69 185c0 86 29 152 88 198c36 28 84 42 144 42z" />
    <glyph glyph-name="e" unicode="e" horiz-adv-x="565" 
d="M181 296h282v-104h-282c3 -34 15 -58 37 -71c18 -11 45 -17 81 -17h164v-104h-178c-69 0 -124 15 -164 46c-59 45 -88 113 -88 204c0 41 8 78 23 113c17 39 41 68 72 89c35 23 84 35 147 35h188v-104h-178c-35 0 -60 -6 -75 -17c-17 -13 -26 -36 -29 -70z" />
    <glyph glyph-name="f" unicode="f" horiz-adv-x="380" 
d="M106 0v383h-88v104h88v29c0 103 40 151 141 151h118v-104h-68c-38 0 -57 -18 -57 -54v-22h125v-104h-125v-383h-134z" />
    <glyph glyph-name="g" unicode="g" horiz-adv-x="599" 
d="M399 104v279h-111c-77 0 -115 -47 -115 -140s41 -139 122 -139h104zM283 487h250v-483c0 -127 -58 -177 -187 -177h-267v104h249c52 0 71 11 71 60v9h-123c-153 0 -240 89 -240 244c0 159 90 243 247 243z" />
    <glyph glyph-name="h" unicode="h" horiz-adv-x="597" 
d="M66 667h134v-180h137c137 0 200 -48 200 -183v-304h-134v277c0 41 -6 69 -18 84c-11 15 -37 22 -77 22h-108v-383h-134v667z" />
    <glyph glyph-name="i" unicode="i" horiz-adv-x="266" 
d="M200 537h-134v130h134v-130zM66 0v487h134v-487h-134z" />
    <glyph glyph-name="j" unicode="j" horiz-adv-x="298" 
d="M232 541h-134v126h134v-126zM98 487h134v-448c0 -147 -54 -212 -197 -212h-59v102h34c43 0 69 10 79 30c6 12 9 35 9 70v458z" />
    <glyph glyph-name="k" unicode="k" horiz-adv-x="544" 
d="M66 667h134v-373l179 193h150l-190 -193h37c52 0 87 -19 105 -58c12 -25 18 -68 18 -128v-108h-134v114c0 59 -17 77 -74 77h-91v-191h-134v667z" />
    <glyph glyph-name="l" unicode="l" horiz-adv-x="266" 
d="M200 667v-667h-134v667h134z" />
    <glyph glyph-name="m" unicode="m" horiz-adv-x="822" 
d="M66 0v487h492c69 0 119 -12 151 -36c36 -28 54 -75 54 -141v-310h-134v289c0 68 -16 94 -80 94h-71v-383h-134v383h-144v-383h-134z" />
    <glyph glyph-name="n" unicode="n" horiz-adv-x="578" 
d="M66 0v487h258c35 0 61 -2 77 -5c79 -16 118 -77 118 -182v-300h-134v315c0 45 -23 68 -69 68h-116v-383h-134z" />
    <glyph glyph-name="o" unicode="o" horiz-adv-x="566" 
d="M291 391c-81 0 -121 -50 -121 -149c0 -97 41 -146 122 -146c79 0 119 49 119 148c0 98 -40 147 -120 147zM290 494c161 0 258 -96 258 -256c0 -77 -24 -138 -72 -181c-47 -43 -110 -64 -188 -64c-161 0 -255 93 -255 254c0 76 24 137 72 182c47 43 108 65 185 65z" />
    <glyph glyph-name="p" unicode="p" horiz-adv-x="590" 
d="M292 383h-92v-279h82c92 0 138 47 138 142c0 91 -43 137 -128 137zM66 -183v670h234c40 0 70 -2 90 -6c30 -6 57 -18 80 -36c58 -45 87 -115 87 -209c0 -147 -92 -236 -239 -236h-118v-183h-134z" />
    <glyph glyph-name="q" unicode="q" horiz-adv-x="596" 
d="M396 104v279h-98c-85 0 -128 -46 -128 -139s44 -140 133 -140h93zM290 487h240v-670h-134v183h-129c-145 0 -234 91 -234 238c0 51 11 97 30 136c23 46 55 78 98 96c27 11 70 17 129 17z" />
    <glyph glyph-name="r" unicode="r" horiz-adv-x="468" 
d="M66 0v487h198c70 0 118 -11 145 -33c30 -25 45 -71 45 -139v-48h-129v26c0 68 -19 90 -86 90h-39v-383h-134z" />
    <glyph glyph-name="s" unicode="s" horiz-adv-x="549" 
d="M203 487h286v-104h-238c-27 0 -44 -1 -51 -4c-15 -6 -23 -19 -23 -39c0 -19 8 -32 23 -41c8 -5 29 -7 64 -7h79c50 0 89 -10 118 -31c33 -24 50 -60 50 -108c0 -29 -7 -56 -20 -81c-15 -29 -35 -48 -59 -59c-19 -9 -56 -13 -109 -13h-277v104h238c31 0 52 1 63 2
c22 3 33 16 33 39c0 22 -8 36 -25 42c-7 4 -26 6 -56 6h-82c-56 0 -97 10 -123 30c-37 29 -55 69 -55 122c0 51 19 91 56 119c20 15 56 23 108 23z" />
    <glyph glyph-name="t" unicode="t" horiz-adv-x="385" 
d="M16 487h85v180h134v-180h124v-104h-124v-177c0 -41 4 -67 11 -78c11 -16 31 -24 60 -24h53v-104h-97c-59 0 -102 16 -127 47c-23 29 -34 74 -34 136v200h-85v104z" />
    <glyph glyph-name="u" unicode="u" horiz-adv-x="566" 
d="M257 104h126v383h134v-487h-263c-35 0 -61 2 -77 5c-79 16 -118 77 -118 182v300h134v-313c0 -47 21 -70 64 -70z" />
    <glyph glyph-name="v" unicode="v" horiz-adv-x="561" 
d="M153 487l124 -335l136 335h142l-210 -487h-144l-194 487h146z" />
    <glyph glyph-name="w" unicode="w" horiz-adv-x="822" 
d="M273 104h71v383h134v-383h144v383h134v-487h-492c-69 0 -119 12 -151 36c-36 28 -54 75 -54 141v310h134v-289c0 -34 5 -58 15 -71c11 -15 33 -23 65 -23z" />
    <glyph glyph-name="x" unicode="x" horiz-adv-x="525" 
d="M4 0l183 241l-175 246h149l103 -144l100 144h157l-182 -246l182 -241h-157l-100 139l-103 -139h-157z" />
    <glyph glyph-name="y" unicode="y" horiz-adv-x="574" 
d="M263 104h110v383h134v-477c0 -81 -28 -135 -84 -162c-29 -14 -70 -21 -125 -21h-239v104h239c24 0 41 3 51 8c14 7 22 21 23 43l1 18h-119c-110 0 -173 42 -190 127c-3 17 -5 46 -5 88v272h134v-259c0 -43 2 -71 7 -84c9 -27 30 -40 63 -40z" />
    <glyph glyph-name="z" unicode="z" horiz-adv-x="527" 
d="M31 101l281 282h-281v104h459v-101l-281 -282h281v-104h-459v101z" />
    <glyph glyph-name="braceleft" unicode="{" horiz-adv-x="380" 
d="M227 555v-98c0 -31 -4 -55 -11 -72c-9 -21 -25 -38 -49 -52c40 -23 60 -65 60 -124v-98c0 -36 0 -50 -1 -42c3 -37 12 -54 61 -54h59v-107h-68c-42 0 -69 1 -82 3c-72 11 -108 59 -108 142v144c0 53 -16 83 -48 90v92c32 7 48 37 48 90v144c0 78 30 124 91 139
c17 4 44 6 83 6h84v-107h-59c-36 0 -55 -12 -58 -35c-1 -7 -2 -28 -2 -61z" />
    <glyph glyph-name="bar" unicode="|" 
d="M172 -167v834h155v-834h-155z" />
    <glyph glyph-name="braceright" unicode="}" horiz-adv-x="380" 
d="M153 111v98c0 59 20 101 60 124c-24 14 -40 31 -49 52c-7 17 -11 41 -11 72v98c0 45 -4 73 -11 82s-24 14 -49 14h-59v107h84c60 0 102 -10 128 -28c30 -22 46 -60 46 -117v-144c0 -53 16 -83 48 -90v-92c-32 -7 -48 -37 -48 -90v-144c0 -60 -18 -100 -53 -121
c-27 -16 -72 -24 -137 -24h-68v107h59c36 0 56 11 59 34c1 7 1 28 1 62z" />
    <glyph glyph-name="asciitilde" unicode="~" horiz-adv-x="667" 
d="M168 550l-75 63c37 92 87 138 150 138c23 0 60 -11 112 -33c39 -17 65 -25 76 -25c25 0 49 20 71 60l75 -62c-19 -44 -38 -76 -57 -96c-26 -27 -59 -40 -100 -40c-21 0 -58 11 -111 34c-34 15 -58 22 -72 22c-24 0 -47 -20 -69 -61z" />
    <glyph glyph-name="exclamdown" unicode="&#xa1;" horiz-adv-x="274" 
d="M208 667v-113h-142v113h142zM208 503v-503h-142v503h142z" />
    <glyph glyph-name="cent" unicode="&#xa2;" horiz-adv-x="511" 
d="M290 172v276c-88 -7 -120 -49 -120 -138c0 -85 40 -131 120 -138zM472 449h-106v-278h106v-104h-106v-98h-76v98c-83 0 -143 18 -181 53c-51 47 -76 111 -76 191c0 109 37 181 110 218c32 16 81 24 147 24v98h76v-98h106v-104z" />
    <glyph glyph-name="sterling" unicode="&#xa3;" horiz-adv-x="642" 
d="M384 667h188v-118h-188c-55 0 -89 -6 -104 -19c-21 -17 -31 -53 -31 -106v-53h220v-83h-220v-170h366v-118h-562v118h54v170h-54v83h54v13c0 54 2 94 7 120c9 45 26 80 53 105c31 29 72 47 121 54c20 3 52 4 96 4z" />
    <glyph glyph-name="fraction" unicode="&#x2044;" horiz-adv-x="159" 
d="M-158 -4l374 675h96l-374 -675h-96z" />
    <glyph glyph-name="yen" unicode="&#xa5;" horiz-adv-x="629" 
d="M79 323h138l-214 344h166l140 -261l147 261h169l-224 -344h134v-80h-157v-53h137v-80h-137v-110h-142v110h-137v80h137v53h-157v80z" />
    <glyph glyph-name="florin" unicode="&#x192;" horiz-adv-x="506" 
d="M135 35l44 281h-88l17 104h88l15 96c16 103 64 151 165 151h118l-17 -104h-67c-39 0 -60 -18 -66 -54l-14 -89h125l-17 -104h-125l-47 -299c-9 -54 -25 -93 -48 -117c-26 -27 -65 -40 -118 -40h-118l16 104h68c27 0 46 7 55 20c5 7 10 24 14 51z" />
    <glyph glyph-name="section" unicode="&#xa7;" horiz-adv-x="624" 
d="M345 323h-53c-43 0 -71 -3 -84 -10c-21 -11 -32 -30 -32 -57c0 -45 34 -67 101 -67h68c29 0 50 2 63 5c27 7 41 28 41 61c0 28 -11 47 -33 58c-15 7 -38 10 -71 10zM346 85h-110c-65 0 -113 11 -144 32c-37 25 -55 69 -55 131c0 55 17 96 52 125c-35 29 -52 72 -52 127
c0 37 9 69 27 97c20 31 47 51 80 61c21 6 61 9 121 9h295v-104h-267c-45 0 -74 -5 -88 -14c-19 -13 -29 -30 -29 -53c0 -46 34 -69 102 -69h108c33 0 59 -2 78 -6c27 -6 50 -17 69 -34c37 -32 55 -75 55 -128c0 -44 -16 -84 -48 -121c32 -30 48 -69 48 -118
c0 -36 -9 -69 -26 -99c-19 -32 -44 -54 -77 -65c-21 -7 -63 -11 -124 -11h-291v104h262c36 0 62 2 78 6c27 7 40 27 40 62s-16 56 -48 64c-11 3 -29 4 -56 4z" />
    <glyph glyph-name="currency" unicode="&#xa4;" horiz-adv-x="649" 
d="M326 489c-81 0 -122 -49 -122 -148s40 -149 121 -149c80 0 120 50 120 149s-40 148 -119 148zM464 561l79 79l79 -79l-78 -78c25 -43 38 -90 38 -143c0 -49 -12 -95 -35 -138l79 -79l-79 -80l-79 79c-42 -21 -90 -32 -144 -32c-53 0 -101 11 -143 32l-79 -79l-79 79
l79 80c-23 42 -35 88 -35 138c0 53 12 100 37 141l-81 80l80 80l81 -81c41 21 88 31 140 31c51 0 98 -10 140 -30z" />
    <glyph glyph-name="quotesingle" unicode="'" horiz-adv-x="216" 
d="M154 667v-268h-91v268h91z" />
    <glyph glyph-name="quotedblleft" unicode="&#x201c;" horiz-adv-x="428" 
d="M367 400h-121v116l77 151h61l-61 -137h44v-130zM172 400h-121v116l77 151h61l-61 -137h44v-130z" />
    <glyph glyph-name="guillemotleft" unicode="&#xab;" horiz-adv-x="401" 
d="M218 300l133 108v-119l-70 -49l70 -47v-119l-133 105v121zM42 300l133 108v-119l-70 -49l70 -47v-119l-133 105v121z" />
    <glyph glyph-name="guilsinglleft" unicode="&#x2039;" horiz-adv-x="225" 
d="M42 300l133 108v-119l-70 -49l70 -47v-119l-133 105v121z" />
    <glyph glyph-name="guilsinglright" unicode="&#x203a;" horiz-adv-x="225" 
d="M50 289v119l133 -108v-121l-133 -105v119l70 47z" />
    <glyph glyph-name="fi" unicode="&#xf001;" horiz-adv-x="613" 
d="M547 537h-134v130h134v-130zM240 487h307v-487h-134v383h-173v-383h-134v383h-88v104h88v29c0 103 40 151 141 151h98v-104h-48c-38 0 -57 -18 -57 -54v-22z" />
    <glyph glyph-name="fl" unicode="&#xf002;" horiz-adv-x="613" 
d="M547 667v-667h-134v667h134zM240 509v-22h105v-104h-105v-383h-134v383h-88v104h88v29c0 103 40 151 141 151h98v-104h-48c-38 0 -57 -18 -57 -54z" />
    <glyph glyph-name="endash" unicode="&#x2013;" horiz-adv-x="720" 
d="M133 318h453v-100h-453v100z" />
    <glyph glyph-name="dagger" unicode="&#x2020;" horiz-adv-x="543" 
d="M338 383v-538h-134v538h-171v104h171v180h134v-180h172v-104h-172z" />
    <glyph glyph-name="daggerdbl" unicode="&#x2021;" horiz-adv-x="543" 
d="M338 383v-125h172v-104h-172v-309h-134v309h-171v104h171v125h-171v104h171v180h134v-180h172v-104h-172z" />
    <glyph glyph-name="paragraph" unicode="&#xb6;" horiz-adv-x="643" 
d="M366 -155h-118v388c-49 1 -88 7 -115 18c-34 15 -60 41 -80 80c-18 36 -28 76 -28 119c0 39 9 75 26 108c18 36 43 63 74 81c31 19 81 28 149 28h361v-117h-60v-705h-118v705h-165c-35 0 -58 -3 -71 -10c-27 -15 -41 -43 -41 -86c0 -68 35 -102 105 -102h81v-507z" />
    <glyph glyph-name="bullet" unicode="&#x2022;" horiz-adv-x="667" 
d="M337 478c37 0 69 -14 96 -41s40 -60 40 -97c0 -39 -13 -72 -40 -99s-59 -40 -98 -40c-38 0 -71 13 -98 40s-41 60 -41 98c0 39 14 72 41 99s61 40 100 40z" />
    <glyph glyph-name="quotesinglbase" unicode="&#x201a;" horiz-adv-x="234" 
d="M61 130h121v-116l-77 -151h-61l61 137h-44v130z" />
    <glyph glyph-name="quotedblbase" unicode="&#x201e;" horiz-adv-x="428" 
d="M256 130h121v-116l-77 -151h-61l61 137h-44v130zM61 130h121v-116l-77 -151h-61l61 137h-44v130z" />
    <glyph glyph-name="quotedblright" unicode="&#x201d;" horiz-adv-x="428" 
d="M256 667h121v-116l-77 -151h-61l61 137h-44v130zM61 667h121v-116l-77 -151h-61l61 137h-44v130z" />
    <glyph glyph-name="guillemotright" unicode="&#xbb;" horiz-adv-x="401" 
d="M226 289v119l133 -108v-121l-133 -105v119l70 47zM50 289v119l133 -108v-121l-133 -105v119l70 47z" />
    <glyph glyph-name="ellipsis" unicode="&#x2026;" horiz-adv-x="672" 
d="M499 130h121v-130h-121v130zM275 130h121v-130h-121v130zM51 130h121v-130h-121v130z" />
    <glyph glyph-name="perthousand" unicode="&#x2030;" horiz-adv-x="1278" 
d="M1057 261c-51 0 -77 -31 -77 -94c0 -66 28 -99 84 -99c51 0 76 33 76 99c0 63 -28 94 -83 94zM1059 333c119 0 179 -56 179 -169c0 -112 -57 -168 -170 -168c-124 0 -186 57 -186 170c0 111 59 167 177 167zM662 261c-51 0 -77 -31 -77 -94c0 -66 28 -99 84 -99
c51 0 76 33 76 99c0 63 -28 94 -83 94zM664 333c119 0 179 -56 179 -169c0 -112 -57 -168 -170 -168c-124 0 -186 57 -186 170c0 111 59 167 177 167zM262 0l269 667h85l-269 -667h-85zM214 598c-51 0 -77 -31 -77 -93c0 -67 28 -100 83 -100c51 0 76 33 76 99
c0 63 -27 94 -82 94zM215 670c119 0 179 -56 179 -169c0 -112 -57 -168 -170 -168c-123 0 -185 57 -185 170c0 111 59 167 176 167z" />
    <glyph glyph-name="questiondown" unicode="&#xbf;" horiz-adv-x="681" 
d="M602 554h-142v113h142v-113zM622 118v-118h-349c-45 0 -74 1 -88 3c-51 7 -89 29 -115 65c-25 34 -37 78 -37 131c0 74 24 128 73 161c31 21 79 31 146 31h88c41 0 69 3 84 10c24 11 36 34 36 69v34h142v-47c0 -69 -18 -118 -54 -147c-30 -25 -85 -37 -165 -37h-81
c-39 0 -65 -4 -80 -11c-22 -11 -33 -34 -33 -69c0 -50 31 -75 92 -75h341z" />
    <glyph glyph-name="grave" unicode="`" 
d="M221 545l-124 130h118l92 -130h-86z" />
    <glyph glyph-name="acute" unicode="&#xb4;" 
d="M285 675h118l-124 -130h-86z" />
    <glyph glyph-name="circumflex" unicode="&#x2c6;" 
d="M314 545l-64 79l-63 -79h-97l106 130h108l106 -130h-96z" />
    <glyph glyph-name="tilde" unicode="&#x2dc;" 
d="M351 658h60c-8 -72 -39 -108 -93 -108c-20 0 -49 8 -87 23c-21 9 -36 13 -45 13c-21 0 -33 -11 -38 -34h-60c10 72 41 108 94 108c17 0 44 -7 79 -21c23 -9 41 -14 54 -14c19 0 31 11 36 33z" />
    <glyph glyph-name="breve" unicode="&#x2d8;" 
d="M103 675h74c9 -37 34 -56 73 -56c40 0 64 19 72 56h74c-7 -87 -56 -131 -146 -131c-85 0 -142 47 -147 131z" />
    <glyph glyph-name="dotaccent" unicode="&#x2d9;" 
d="M197 660h107v-110h-107v110z" />
    <glyph glyph-name="dieresis" unicode="&#xa8;" 
d="M103 660h107v-110h-107v110zM289 660h107v-110h-107v110z" />
    <glyph glyph-name="ring" unicode="&#x2da;" 
d="M250 668c-21 0 -39 -17 -39 -38s18 -39 39 -39s38 18 38 39s-17 38 -38 38zM251 725c51 0 94 -44 94 -95c0 -53 -42 -96 -95 -96s-96 43 -96 96c0 55 42 95 97 95z" />
    <glyph glyph-name="cedilla" unicode="&#xb8;" 
d="M201 -85v85h51v-45h10c59 0 89 -24 89 -73c0 -34 -13 -56 -40 -65c-11 -4 -30 -6 -56 -6h-77v49h69c20 0 30 9 30 27c0 19 -11 28 -34 28h-42z" />
    <glyph glyph-name="hungarumlaut" unicode="&#x2dd;" 
d="M339 675h104l-114 -130h-73zM199 675h103l-113 -130h-73z" />
    <glyph glyph-name="ogonek" unicode="&#x2db;" 
d="M406 0h74c-40 -21 -60 -46 -60 -74c0 -25 14 -37 42 -37c13 0 28 4 45 11v-57c-23 -9 -46 -13 -67 -13c-63 0 -95 25 -95 76c0 37 20 69 61 94z" />
    <glyph glyph-name="caron" unicode="&#x2c7;" 
d="M186 675l64 -79l63 79h97l-106 -130h-108l-106 130h96z" />
    <glyph glyph-name="emdash" unicode="&#x2014;" horiz-adv-x="697" 
d="M0 318h697v-100h-697v100z" />
    <glyph glyph-name="ordfeminine" unicode="&#xaa;" horiz-adv-x="395" 
d="M260 335v45h-94c-13 0 -22 0 -26 -1c-11 -3 -16 -11 -16 -22c0 -15 14 -22 42 -22h94zM160 448h100c0 19 -6 31 -18 38c-7 4 -22 6 -43 6h-146v68h146c33 0 55 -1 66 -3c57 -10 86 -52 86 -125v-165h-181c-52 0 -86 5 -101 15c-25 17 -38 41 -38 73c0 46 20 75 59 87
c13 4 37 6 70 6z" />
    <glyph glyph-name="Lslash" unicode="&#x141;" horiz-adv-x="537" 
d="M65 667h142v-224l124 64v-111l-124 -65v-38c0 -51 1 -82 4 -94c7 -33 26 -56 57 -68c20 -8 59 -12 118 -12h136v-119h-150c-59 0 -101 2 -125 6c-39 7 -73 21 -103 44c-33 25 -54 55 -65 91c-8 27 -13 75 -14 142l-62 -30v111l62 31v272z" />
    <glyph glyph-name="OE" unicode="&#x152;" horiz-adv-x="0" 
d="M-310 767h-9c-13 -3 -13 -4 -13 -20v-18h-56v22c0 52 19 69 72 69h3c5 0 8 0 9 1l1 2c5 5 8 12 8 21c0 15 -10 22 -30 22h-57v52h72c21 0 35 -2 42 -7c22 -15 33 -38 33 -70c0 -49 -25 -74 -75 -74z" />
    <glyph glyph-name="ordmasculine" unicode="&#xba;" horiz-adv-x="387" 
d="M194 498c-49 0 -73 -28 -73 -85c0 -55 24 -83 73 -83c48 0 72 28 72 84s-24 84 -72 84zM193 565c101 0 166 -55 166 -155c0 -48 -16 -85 -49 -111c-30 -24 -69 -36 -118 -36c-100 0 -164 54 -164 153c0 47 16 84 48 111c30 25 69 38 117 38z" />
    <glyph glyph-name="dotlessi" unicode="&#x131;" horiz-adv-x="266" 
d="M66 0v487h134v-487h-134z" />
    <glyph glyph-name="lslash" unicode="&#x142;" horiz-adv-x="266" 
d="M66 667h134v-255l62 42v-100l-62 -42v-312h-134v254l-63 -43v100l63 43v313z" />
    <glyph glyph-name="oe" unicode="&#x153;" horiz-adv-x="0" 
d="M-220 587h-9c-13 -3 -13 -4 -13 -20v-18h-56v22c0 52 19 69 72 69h3c5 0 8 0 9 1l1 2c5 5 8 12 8 21c0 15 -10 22 -30 22h-57v52h72c21 0 35 -2 42 -7c22 -15 33 -38 33 -70c0 -49 -25 -74 -75 -74z" />
    <glyph glyph-name="germandbls" unicode="&#xdf;" horiz-adv-x="603" 
d="M200 481v-23h101c24 0 41 2 50 6c15 7 23 20 23 41c0 41 -25 62 -74 62c-38 0 -63 -5 -76 -15c-16 -11 -24 -35 -24 -71zM282 354h-82v-354h-134v472c0 67 20 118 61 152c37 31 90 47 158 47c51 0 94 -10 131 -32c43 -25 65 -63 65 -110c0 -41 -17 -75 -52 -103
c47 -6 82 -29 107 -68c21 -34 32 -76 32 -126c0 -142 -70 -219 -209 -231c-7 -1 -34 -1 -79 -1h-47v104h69c91 0 130 34 130 123c0 53 -15 89 -46 109c-19 12 -53 18 -104 18z" />
    <glyph glyph-name="onesuperior" unicode="&#xb9;" horiz-adv-x="474" 
d="M285 667v-400h-96v400h96z" />
    <glyph glyph-name="logicalnot" unicode="&#xac;" 
d="M466 0h-151v156h-282v135h433v-291z" />
    <glyph glyph-name="mu" unicode="&#xb5;" horiz-adv-x="590" 
d="M200 3v-186h-134v670h134v-316c0 -45 21 -67 64 -67h126v383h134v-487h-263c-30 0 -50 1 -61 3z" />
    <glyph glyph-name="trademark" unicode="&#x2122;" horiz-adv-x="898" 
d="M397 667h130l98 -280l102 280h130v-374h-88v261l-99 -261h-92l-93 260v-260h-88v374zM131 293v302h-128v72h351v-72h-131v-302h-92z" />
    <glyph glyph-name="Eth" unicode="&#xd0;" horiz-adv-x="717" 
d="M359 281h-149v-162h141c64 0 108 15 132 44c31 37 46 94 46 170c0 89 -20 150 -61 184c-25 21 -64 31 -117 31h-141v-157h149v-110zM68 0v281h-64v110h64v276h283c129 0 218 -31 268 -92c22 -27 39 -66 51 -116c10 -42 15 -84 15 -127c0 -63 -9 -122 -28 -177
c-27 -79 -81 -127 -164 -146c-27 -6 -74 -9 -142 -9h-283z" />
    <glyph glyph-name="onehalf" unicode="&#xbd;" horiz-adv-x="1107" 
d="M793 108v-32h274v-76h-370v108c0 47 12 80 36 101c22 19 56 28 103 28h68c46 0 69 14 69 42c0 30 -23 45 -69 45h-200v76h219c103 0 155 -39 155 -118c0 -47 -14 -80 -42 -99c-23 -15 -58 -22 -107 -22h-59c-27 0 -46 -2 -55 -7c-15 -7 -22 -23 -22 -46zM315 -4l374 675
h96l-374 -675h-96zM325 667v-400h-96v400h96z" />
    <glyph glyph-name="plusminus" unicode="&#xb1;" horiz-adv-x="559" 
d="M37 28v109h486v-109h-486zM37 351v109h187v178h113v-178h186v-109h-186v-178h-113v178h-187z" />
    <glyph glyph-name="Thorn" unicode="&#xde;" horiz-adv-x="686" 
d="M210 441v-196h195c72 0 102 30 102 103c0 47 -17 76 -50 87c-11 4 -29 6 -52 6h-195zM210 0h-142v667h142v-107h195c50 0 86 -2 108 -7c37 -9 67 -26 91 -53c39 -43 59 -96 59 -157c0 -83 -30 -146 -90 -187c-29 -20 -74 -30 -135 -30h-228v-126z" />
    <glyph glyph-name="onequarter" unicode="&#xbc;" horiz-adv-x="1107" 
d="M889 301l-154 -157h154v157zM889 68h-266v88l239 244h123v-256h55v-76h-55v-68h-96v68zM315 -4l374 675h96l-374 -675h-96zM325 667v-400h-96v400h96z" />
    <glyph glyph-name="divide" unicode="&#xf7;" horiz-adv-x="559" 
d="M37 286v109h486v-109h-486zM281 241c39 0 71 -33 71 -72c0 -40 -32 -72 -72 -72s-72 32 -72 72c0 41 32 72 73 72zM281 583c39 0 71 -33 71 -72c0 -40 -32 -72 -72 -72s-72 32 -72 72c0 41 32 72 73 72z" />
    <glyph glyph-name="brokenbar" unicode="&#xa6;" 
d="M172 -167v320h155v-320h-155zM172 314v353h155v-353h-155z" />
    <glyph glyph-name="degree" unicode="&#xb0;" horiz-adv-x="385" 
d="M192 596c-41 0 -75 -33 -75 -74s33 -74 74 -74s74 33 74 74c0 40 -33 74 -73 74zM192 671c43 0 79 -15 108 -44c30 -29 45 -64 45 -106s-15 -78 -45 -107s-66 -44 -108 -44c-43 0 -79 14 -109 44s-44 66 -44 109c0 41 15 76 45 105s66 43 108 43z" />
    <glyph glyph-name="thorn" unicode="&#xfe;" horiz-adv-x="590" 
d="M292 383h-92v-279h82c92 0 138 47 138 142c0 91 -43 137 -128 137zM200 667v-180h100c40 0 70 -2 90 -6c30 -6 57 -18 80 -36c58 -45 87 -115 87 -209c0 -147 -92 -236 -239 -236h-118v-183h-134v850h134z" />
    <glyph glyph-name="threequarters" unicode="&#xbe;" horiz-adv-x="1107" 
d="M882 301l-154 -157h154v157zM882 68h-265v88l239 244h122v-256h55v-76h-55v-68h-96v68zM315 -4l374 675h96l-374 -675h-96zM249 267h-188v76h184c42 0 63 14 63 43c0 19 -6 31 -19 38c-7 4 -22 6 -44 6h-144v77h144c21 0 35 2 43 6c13 6 20 18 20 35c0 16 -6 28 -18 36
c-7 5 -22 7 -45 7h-184v76h199c45 0 77 -4 95 -13c39 -19 58 -51 58 -97c0 -39 -18 -68 -53 -88c35 -23 53 -55 53 -95c0 -39 -16 -67 -47 -86c-23 -14 -62 -21 -117 -21z" />
    <glyph glyph-name="twosuperior" unicode="&#xb2;" horiz-adv-x="474" 
d="M147 375v-32h274v-76h-370v108c0 47 12 80 36 101c22 19 56 28 103 28h68c46 0 69 14 69 42c0 30 -23 45 -69 45h-200v76h219c103 0 155 -39 155 -118c0 -47 -14 -80 -42 -99c-23 -15 -58 -22 -107 -22h-59c-27 0 -46 -2 -55 -7c-15 -7 -22 -23 -22 -46z" />
    <glyph glyph-name="registered" unicode="&#xae;" horiz-adv-x="769" 
d="M312 454v-92h88c41 0 62 16 62 48c0 29 -21 44 -62 44h-88zM347 288h-35v-142h-96v380h175c62 0 105 -7 128 -22c32 -20 48 -48 48 -85c0 -56 -24 -92 -72 -109c42 -13 65 -47 68 -104c1 -25 5 -45 12 -60h-108l-3 10l-4 20l-3 26c-8 69 -37 86 -110 86zM389 612
c-79 0 -145 -27 -199 -81c-53 -53 -80 -119 -80 -198c0 -77 27 -142 80 -197c53 -54 118 -81 195 -81s142 27 195 81c53 55 80 120 80 197c0 76 -26 141 -79 196s-117 83 -192 83zM390 677c94 0 174 -34 241 -101s100 -148 100 -243s-34 -176 -101 -243s-148 -100 -244 -100
s-178 33 -246 100c-67 67 -101 148 -101 243c0 98 34 180 102 245c68 66 151 99 249 99z" />
    <glyph glyph-name="minus" unicode="&#x2212;" horiz-adv-x="559" 
d="M37 286v109h486v-109h-486z" />
    <glyph glyph-name="eth" unicode="&#xf0;" horiz-adv-x="584" 
d="M291 392c-81 0 -121 -50 -121 -150c0 -97 41 -146 122 -146c79 0 119 50 119 149c0 98 -40 147 -120 147zM233 551l-91 -61l-36 56l55 38l-63 22l49 79c38 -6 78 -16 119 -31l95 64l38 -56l-61 -41c53 -33 95 -68 124 -104c59 -72 88 -157 88 -255
c0 -87 -26 -157 -79 -210c-39 -39 -100 -59 -181 -59c-161 0 -257 92 -257 252c0 74 22 134 67 180s105 69 179 69c23 0 41 -3 54 -9c-19 23 -53 45 -100 66z" />
    <glyph glyph-name="multiply" unicode="&#xd7;" horiz-adv-x="559" 
d="M127 111l-77 77l152 152l-152 152l77 78l152 -153l152 153l78 -78l-152 -152l152 -152l-78 -77l-152 152z" />
    <glyph glyph-name="threesuperior" unicode="&#xb3;" horiz-adv-x="474" 
d="M249 267h-188v76h184c42 0 63 14 63 43c0 19 -6 31 -19 38c-7 4 -22 6 -44 6h-144v77h144c21 0 35 2 43 6c13 6 20 18 20 35c0 16 -6 28 -18 36c-7 5 -22 7 -45 7h-184v76h199c45 0 77 -4 95 -13c39 -19 58 -51 58 -97c0 -39 -18 -68 -53 -88c35 -23 53 -55 53 -95
c0 -39 -16 -67 -47 -86c-23 -14 -62 -21 -117 -21z" />
    <glyph glyph-name="copyright" unicode="&#xa9;" horiz-adv-x="769" 
d="M413 217h130v-73h-147c-66 0 -115 15 -146 44c-33 31 -50 79 -50 145c0 90 31 148 93 174c27 11 62 17 107 17h143v-73h-133c-77 0 -106 -33 -106 -110c0 -44 7 -75 21 -93c17 -21 46 -31 88 -31zM389 612c-79 0 -145 -27 -199 -81c-53 -53 -80 -119 -80 -198
c0 -77 27 -142 80 -197c53 -54 118 -81 195 -81s142 27 195 81c53 55 80 120 80 197c0 76 -26 141 -79 196s-117 83 -192 83zM390 677c94 0 174 -34 241 -101s100 -148 100 -243s-34 -176 -101 -243s-148 -100 -244 -100s-178 33 -246 100c-67 67 -101 148 -101 243
c0 98 34 180 102 245c68 66 151 99 249 99z" />
    <glyph glyph-name="Aacute" unicode="&#xc1;" horiz-adv-x="723" 
d="M405 860h121l-125 -123h-88zM457 274l-95 233l-95 -233h190zM171 0h-167l276 667h163l276 -667h-166l-64 155h-254z" />
    <glyph glyph-name="Acircumflex" unicode="&#xc2;" horiz-adv-x="723" 
d="M426 717l-63 71l-62 -71h-101l108 123h110l109 -123h-101zM457 274l-95 233l-95 -233h190zM171 0h-167l276 667h163l276 -667h-166l-64 155h-254z" />
    <glyph glyph-name="Agrave" unicode="&#xc0;" horiz-adv-x="723" 
d="M4 0h167l64 155h254l64 -155h166l-276 667h-163zM362 507l95 -233h-190zM197 860h121l92 -123h-88z" />
    <glyph glyph-name="Atilde" unicode="&#xc3;" horiz-adv-x="723" 
d="M412 716c-12 0 -28 4 -49 14c-20 9 -32 15 -37 15c-21 0 -33 -8 -36 -25h-49c3 25 11 47 24 64c15 20 35 30 59 30c11 0 26 -5 45 -14c20 -9 34 -14 41 -14c16 0 25 8 28 25h49c-5 -63 -30 -95 -75 -95zM457 274l-95 233l-95 -233h190zM171 0h-167l276 667h163l276 -667
h-166l-64 155h-254z" />
    <glyph glyph-name="Eacute" unicode="&#xc9;" horiz-adv-x="714" 
d="M384 860h121l-125 -123h-88zM341 667h240v-119h-185c-41 0 -70 -2 -88 -6c-32 -7 -56 -21 -72 -42s-26 -57 -30 -109h375v-119h-375c5 -60 24 -101 58 -124c29 -19 75 -29 138 -29h179v-119h-185c-61 0 -108 4 -141 11c-51 11 -91 32 -122 64c-59 61 -88 149 -88 262
c0 121 38 213 113 276c43 36 104 54 183 54z" />
    <glyph glyph-name="Ecircumflex" unicode="&#xca;" horiz-adv-x="714" 
d="M409 717l-63 71l-62 -71h-101l108 123h110l109 -123h-101zM341 667h240v-119h-185c-41 0 -70 -2 -88 -6c-32 -7 -56 -21 -72 -42s-26 -57 -30 -109h375v-119h-375c5 -60 24 -101 58 -124c29 -19 75 -29 138 -29h179v-119h-185c-61 0 -108 4 -141 11
c-51 11 -91 32 -122 64c-59 61 -88 149 -88 262c0 121 38 213 113 276c43 36 104 54 183 54z" />
    <glyph glyph-name="Egrave" unicode="&#xc8;" horiz-adv-x="714" 
d="M581 667h-240c-79 0 -140 -18 -183 -54c-75 -63 -113 -155 -113 -276c0 -113 29 -201 88 -262c31 -32 71 -53 122 -64c33 -7 80 -11 141 -11h185v119h-179c-63 0 -109 10 -138 29c-34 23 -53 64 -58 124h375v119h-375c4 52 14 88 30 109s40 35 72 42c18 4 47 6 88 6h185
v119zM171 860h121l92 -123h-88z" />
    <glyph glyph-name="Iacute" unicode="&#xcd;" horiz-adv-x="278" 
d="M192 860h121l-125 -123h-88zM210 0h-142v667h142v-667z" />
    <glyph glyph-name="Idieresis" unicode="&#xcf;" horiz-adv-x="0" 
d="M-392 -57h101v-100h-101v100z" />
    <glyph glyph-name="Igrave" unicode="&#xcc;" horiz-adv-x="278" 
d="M68 0h142v667h-142v-667zM-40 860h121l92 -123h-88z" />
    <glyph glyph-name="Oacute" unicode="&#xd3;" horiz-adv-x="705" 
d="M399 860h121l-125 -123h-88zM362 559c-67 0 -115 -22 -143 -67c-21 -33 -31 -85 -31 -157c0 -71 11 -124 34 -160c28 -45 75 -67 140 -67c115 0 172 75 172 225c0 70 -11 123 -33 159c-27 45 -74 67 -139 67zM361 672c116 0 201 -30 254 -89c50 -57 75 -143 75 -259
c0 -219 -106 -328 -319 -328c-226 0 -339 111 -339 334c0 231 104 342 329 342z" />
    <glyph glyph-name="Ocircumflex" unicode="&#xd4;" horiz-adv-x="705" 
d="M424 717l-63 71l-62 -71h-101l108 123h110l109 -123h-101zM362 559c-67 0 -115 -22 -143 -67c-21 -33 -31 -85 -31 -157c0 -71 11 -124 34 -160c28 -45 75 -67 140 -67c115 0 172 75 172 225c0 70 -11 123 -33 159c-27 45 -74 67 -139 67zM361 672c116 0 201 -30 254 -89
c50 -57 75 -143 75 -259c0 -219 -106 -328 -319 -328c-226 0 -339 111 -339 334c0 231 104 342 329 342z" />
    <glyph glyph-name="Ograve" unicode="&#xd2;" horiz-adv-x="705" 
d="M361 672c-225 0 -329 -111 -329 -342c0 -223 113 -334 339 -334c213 0 319 109 319 328c0 116 -25 202 -75 259c-53 59 -138 89 -254 89zM362 559c65 0 112 -22 139 -67c22 -36 33 -89 33 -159c0 -150 -57 -225 -172 -225c-65 0 -112 22 -140 67c-23 36 -34 89 -34 160
c0 72 10 124 31 157c28 45 76 67 143 67zM195 860h121l92 -123h-88z" />
    <glyph glyph-name="Otilde" unicode="&#xd5;" horiz-adv-x="705" 
d="M410 716c-12 0 -28 4 -49 14c-20 9 -32 15 -37 15c-21 0 -33 -8 -36 -25h-49c3 25 11 47 24 64c15 20 35 30 59 30c11 0 26 -5 45 -14c20 -9 34 -14 41 -14c16 0 25 8 28 25h49c-5 -63 -30 -95 -75 -95zM362 559c-67 0 -115 -22 -143 -67c-21 -33 -31 -85 -31 -157
c0 -71 11 -124 34 -160c28 -45 75 -67 140 -67c115 0 172 75 172 225c0 70 -11 123 -33 159c-27 45 -74 67 -139 67zM361 672c116 0 201 -30 254 -89c50 -57 75 -143 75 -259c0 -219 -106 -328 -319 -328c-226 0 -339 111 -339 334c0 231 104 342 329 342z" />
    <glyph glyph-name="Scaron" unicode="&#x160;" horiz-adv-x="695" 
d="M305 840l62 -71l62 71h102l-109 -123h-110l-108 123h101zM401 0h-335v119h304c49 0 82 5 99 16c22 14 33 34 33 61c0 55 -38 83 -115 83h-123c-153 0 -230 64 -230 191c0 83 45 159 120 184c26 9 72 13 139 13h330v-119h-298c-43 0 -73 -2 -89 -6c-30 -7 -45 -30 -45 -68
c0 -32 13 -54 38 -65c16 -7 44 -11 84 -11h107c78 0 136 -14 174 -42c44 -32 66 -85 66 -160c0 -36 -8 -70 -25 -102c-18 -35 -42 -59 -73 -74c-27 -13 -81 -20 -161 -20z" />
    <glyph glyph-name="Uacute" unicode="&#xda;" horiz-adv-x="703" 
d="M397 860h121l-125 -123h-88zM61 667h142v-400c0 -107 51 -160 152 -160c71 0 115 21 134 64c8 18 12 50 12 96v400h142v-393c0 -196 -92 -279 -291 -279c-106 0 -183 24 -230 72c-25 26 -43 56 -52 91c-6 25 -9 60 -9 106v403z" />
    <glyph glyph-name="Ugrave" unicode="&#xd9;" horiz-adv-x="703" 
d="M203 667h-142v-403c0 -46 3 -81 9 -106c9 -35 27 -65 52 -91c47 -48 124 -72 230 -72c199 0 291 83 291 279v393h-142v-400c0 -46 -4 -78 -12 -96c-19 -43 -63 -64 -134 -64c-101 0 -152 53 -152 160v400zM185 860h121l92 -123h-88z" />
    <glyph glyph-name="Yacute" unicode="&#xdd;" horiz-adv-x="654" 
d="M359 840h121l-125 -123h-88zM250 0v292l-247 375h167l153 -260l161 260h168l-260 -380v-287h-142z" />
    <glyph glyph-name="Ydieresis" unicode="&#x178;" horiz-adv-x="654" 
d="M266 -57h101v-100h-101v100zM250 0v292l-247 375h167l153 -260l161 260h168l-260 -380v-287h-142z" />
    <glyph glyph-name="Zcaron" unicode="&#x17d;" horiz-adv-x="654" 
d="M264 840l62 -71l62 71h102l-109 -123h-110l-108 123h101zM37 116l421 432h-421v119h580v-123l-406 -425h406v-119h-580v116z" />
    <glyph glyph-name="aacute" unicode="&#xe1;" horiz-adv-x="595" 
d="M332 662h94l-99 -104h-69zM402 104v88h-177c-33 0 -50 -15 -50 -45c0 -29 24 -43 72 -43h155zM238 296h164v9c0 32 -9 54 -28 65c-15 9 -39 13 -74 13h-226v104h226c63 0 106 -4 131 -12c45 -15 77 -49 94 -102c7 -23 11 -56 11 -99v-274h-282c-48 0 -76 0 -83 1
c-32 3 -57 11 -76 25c-37 27 -56 67 -56 118c0 64 32 122 89 141c23 7 59 11 110 11z" />
    <glyph glyph-name="acircumflex" unicode="&#xe2;" horiz-adv-x="595" 
d="M364 544l-63 71l-62 -71h-101l108 123h110l109 -123h-101zM402 104v88h-177c-33 0 -50 -15 -50 -45c0 -29 24 -43 72 -43h155zM238 296h164v9c0 32 -9 54 -28 65c-15 9 -39 13 -74 13h-226v104h226c63 0 106 -4 131 -12c45 -15 77 -49 94 -102c7 -23 11 -56 11 -99v-274
h-282c-48 0 -76 0 -83 1c-32 3 -57 11 -76 25c-37 27 -56 67 -56 118c0 64 32 122 89 141c23 7 59 11 110 11z" />
    <glyph glyph-name="agrave" unicode="&#xe0;" horiz-adv-x="595" 
d="M402 296h-164c-51 0 -87 -4 -110 -11c-57 -19 -89 -77 -89 -141c0 -51 19 -91 56 -118c19 -14 44 -22 76 -25c7 -1 35 -1 83 -1h282v274c0 43 -4 76 -11 99c-17 53 -49 87 -94 102c-25 8 -68 12 -131 12h-226v-104h226c35 0 59 -4 74 -13c19 -11 28 -33 28 -65v-9z
M402 192v-88h-155c-48 0 -72 14 -72 43c0 30 17 45 50 45h177zM168 662h94l74 -104h-69z" />
    <glyph glyph-name="atilde" unicode="&#xe3;" horiz-adv-x="595" 
d="M350 556c-12 0 -28 4 -49 14c-20 9 -32 15 -37 15c-21 0 -33 -8 -36 -25h-49c3 25 11 47 24 64c15 20 35 30 59 30c11 0 26 -5 45 -14c20 -9 34 -14 41 -14c16 0 25 8 28 25h49c-5 -63 -30 -95 -75 -95zM402 104v88h-177c-33 0 -50 -15 -50 -45c0 -29 24 -43 72 -43h155z
M238 296h164v9c0 32 -9 54 -28 65c-15 9 -39 13 -74 13h-226v104h226c63 0 106 -4 131 -12c45 -15 77 -49 94 -102c7 -23 11 -56 11 -99v-274h-282c-48 0 -76 0 -83 1c-32 3 -57 11 -76 25c-37 27 -56 67 -56 118c0 64 32 122 89 141c23 7 59 11 110 11z" />
    <glyph glyph-name="eacute" unicode="&#xe9;" horiz-adv-x="565" 
d="M319 662h94l-99 -104h-69zM181 296h282v-104h-282c3 -34 15 -58 37 -71c18 -11 45 -17 81 -17h164v-104h-178c-69 0 -124 15 -164 46c-59 45 -88 113 -88 204c0 41 8 78 23 113c17 39 41 68 72 89c35 23 84 35 147 35h188v-104h-178c-35 0 -60 -6 -75 -17
c-17 -13 -26 -36 -29 -70z" />
    <glyph glyph-name="ecircumflex" unicode="&#xea;" horiz-adv-x="565" 
d="M347 544l-63 71l-62 -71h-101l108 123h110l109 -123h-101zM181 296h282v-104h-282c3 -34 15 -58 37 -71c18 -11 45 -17 81 -17h164v-104h-178c-69 0 -124 15 -164 46c-59 45 -88 113 -88 204c0 41 8 78 23 113c17 39 41 68 72 89c35 23 84 35 147 35h188v-104h-178
c-35 0 -60 -6 -75 -17c-17 -13 -26 -36 -29 -70z" />
    <glyph glyph-name="egrave" unicode="&#xe8;" horiz-adv-x="565" 
d="M463 296h-282c3 34 12 57 29 70c15 11 40 17 75 17h178v104h-188c-63 0 -112 -12 -147 -35c-31 -21 -55 -50 -72 -89c-15 -35 -23 -72 -23 -113c0 -91 29 -159 88 -204c40 -31 95 -46 164 -46h178v104h-164c-36 0 -63 6 -81 17c-22 13 -34 37 -37 71h282v104zM153 662h94
l74 -104h-69z" />
    <glyph glyph-name="iacute" unicode="&#xed;" horiz-adv-x="266" 
d="M164 648h94l-99 -104h-69zM66 0v487h134v-487h-134z" />
    <glyph glyph-name="icircumflex" unicode="&#xee;" horiz-adv-x="574" 
d="M242 -193h101v-100h-101v100zM263 104h110v383h134v-477c0 -81 -28 -135 -84 -162c-29 -14 -70 -21 -125 -21h-239v104h239c24 0 41 3 51 8c14 7 22 21 23 43l1 18h-119c-110 0 -173 42 -190 127c-3 17 -5 46 -5 88v272h134v-259c0 -43 2 -71 7 -84c9 -27 30 -40 63 -40z
" />
    <glyph glyph-name="idieresis" unicode="&#xef;" horiz-adv-x="0" 
d="M-325 -57h101v-100h-101v100z" />
    <glyph glyph-name="igrave" unicode="&#xec;" horiz-adv-x="266" 
d="M66 487v-487h134v487h-134zM4 662h94l74 -104h-69z" />
    <glyph glyph-name="oacute" unicode="&#xf3;" horiz-adv-x="566" 
d="M321 662h94l-99 -104h-69zM291 391c-81 0 -121 -50 -121 -149c0 -97 41 -146 122 -146c79 0 119 49 119 148c0 98 -40 147 -120 147zM290 494c161 0 258 -96 258 -256c0 -77 -24 -138 -72 -181c-47 -43 -110 -64 -188 -64c-161 0 -255 93 -255 254c0 76 24 137 72 182
c47 43 108 65 185 65z" />
    <glyph glyph-name="ocircumflex" unicode="&#xf4;" horiz-adv-x="566" 
d="M354 544l-63 71l-62 -71h-101l108 123h110l109 -123h-101zM291 391c-81 0 -121 -50 -121 -149c0 -97 41 -146 122 -146c79 0 119 49 119 148c0 98 -40 147 -120 147zM290 494c161 0 258 -96 258 -256c0 -77 -24 -138 -72 -181c-47 -43 -110 -64 -188 -64
c-161 0 -255 93 -255 254c0 76 24 137 72 182c47 43 108 65 185 65z" />
    <glyph glyph-name="ograve" unicode="&#xf2;" horiz-adv-x="566" 
d="M290 494c-77 0 -138 -22 -185 -65c-48 -45 -72 -106 -72 -182c0 -161 94 -254 255 -254c78 0 141 21 188 64c48 43 72 104 72 181c0 160 -97 256 -258 256zM291 391c80 0 120 -49 120 -147c0 -99 -40 -148 -119 -148c-81 0 -122 49 -122 146c0 99 40 149 121 149z
M158 662h94l74 -104h-69z" />
    <glyph glyph-name="otilde" unicode="&#xf5;" horiz-adv-x="566" 
d="M333 556c-12 0 -28 4 -49 14c-20 9 -32 15 -37 15c-21 0 -33 -8 -36 -25h-49c3 25 11 47 24 64c15 20 35 30 59 30c11 0 26 -5 45 -14c20 -9 34 -14 41 -14c16 0 25 8 28 25h49c-5 -63 -30 -95 -75 -95zM291 391c-81 0 -121 -50 -121 -149c0 -97 41 -146 122 -146
c79 0 119 49 119 148c0 98 -40 147 -120 147zM290 494c161 0 258 -96 258 -256c0 -77 -24 -138 -72 -181c-47 -43 -110 -64 -188 -64c-161 0 -255 93 -255 254c0 76 24 137 72 182c47 43 108 65 185 65z" />
    <glyph glyph-name="scaron" unicode="&#x161;" horiz-adv-x="549" 
d="M221 675l64 -79l63 79h97l-106 -130h-108l-106 130h96zM203 487h286v-104h-238c-27 0 -44 -1 -51 -4c-15 -6 -23 -19 -23 -39c0 -19 8 -32 23 -41c8 -5 29 -7 64 -7h79c50 0 89 -10 118 -31c33 -24 50 -60 50 -108c0 -29 -7 -56 -20 -81c-15 -29 -35 -48 -59 -59
c-19 -9 -56 -13 -109 -13h-277v104h238c31 0 52 1 63 2c22 3 33 16 33 39c0 22 -8 36 -25 42c-7 4 -26 6 -56 6h-82c-56 0 -97 10 -123 30c-37 29 -55 69 -55 122c0 51 19 91 56 119c20 15 56 23 108 23z" />
    <glyph glyph-name="uacute" unicode="&#xfa;" horiz-adv-x="566" 
d="M319 662h94l-99 -104h-69zM257 104h126v383h134v-487h-263c-35 0 -61 2 -77 5c-79 16 -118 77 -118 182v300h134v-313c0 -47 21 -70 64 -70z" />
    <glyph glyph-name="ugrave" unicode="&#xf9;" horiz-adv-x="566" 
d="M383 104h-126c-43 0 -64 23 -64 70v313h-134v-300c0 -105 39 -166 118 -182c16 -3 42 -5 77 -5h263v487h-134v-383zM155 662h94l74 -104h-69z" />
    <glyph glyph-name="yacute" unicode="&#xfd;" horiz-adv-x="574" 
d="M315 675h118l-124 -130h-86zM263 104h110v383h134v-477c0 -81 -28 -135 -84 -162c-29 -14 -70 -21 -125 -21h-239v104h239c24 0 41 3 51 8c14 7 22 21 23 43l1 18h-119c-110 0 -173 42 -190 127c-3 17 -5 46 -5 88v272h134v-259c0 -43 2 -71 7 -84c9 -27 30 -40 63 -40z
" />
    <glyph glyph-name="ydieresis" unicode="&#xff;" horiz-adv-x="574" 
d="M137 660h107v-110h-107v110zM323 660h107v-110h-107v110zM263 104h110v383h134v-477c0 -81 -28 -135 -84 -162c-29 -14 -70 -21 -125 -21h-239v104h239c24 0 41 3 51 8c14 7 22 21 23 43l1 18h-119c-110 0 -173 42 -190 127c-3 17 -5 46 -5 88v272h134v-259
c0 -43 2 -71 7 -84c9 -27 30 -40 63 -40z" />
    <glyph glyph-name="zcaron" unicode="&#x17e;" horiz-adv-x="527" 
d="M197 675l64 -79l63 79h97l-106 -130h-108l-106 130h96zM31 101l281 282h-281v104h459v-101l-281 -282h281v-104h-459v101z" />
    <glyph glyph-name="nbspace" unicode="&#xa0;" horiz-adv-x="250" 
 />
    <glyph glyph-name="sfthyphen" unicode="&#xad;" horiz-adv-x="233" 
d="M0 318h233v-120h-233v120z" />
    <glyph glyph-name="overscore" unicode="&#xaf;" 
d="M92 633h317v-67h-317v67z" />
    <glyph glyph-name="middot" unicode="&#xb7;" horiz-adv-x="224" 
d="M51 398h121v-130h-121v130z" />
    <glyph glyph-name="middot" unicode="&#x25ef;" horiz-adv-x="224" 
d="M51 398h121v-130h-121v130z" />
    <glyph glyph-name="NULL" horiz-adv-x="0" 
 />
    <glyph glyph-name="CR.001" horiz-adv-x="250" 
 />
    <glyph glyph-name="uni1EC8" unicode="&#x1ec8;" horiz-adv-x="278" 
d="M189 767h-9c-13 -3 -13 -4 -13 -20v-18h-56v22c0 52 19 69 72 69h3c5 0 8 0 9 1l1 2c5 5 8 12 8 21c0 15 -10 22 -30 22h-57v52h72c21 0 35 -2 42 -7c22 -15 33 -38 33 -70c0 -49 -25 -74 -75 -74zM210 0h-142v667h142v-667z" />
    <glyph glyph-name="uni1EC9" unicode="&#x1ec9;" horiz-adv-x="266" 
d="M174 587h-9c-13 -3 -13 -4 -13 -20v-18h-56v22c0 52 19 69 72 69h3c5 0 8 0 9 1l1 2c5 5 8 12 8 21c0 15 -10 22 -30 22h-57v52h72c21 0 35 -2 42 -7c22 -15 33 -38 33 -70c0 -49 -25 -74 -75 -74zM66 0v487h134v-487h-134z" />
    <glyph glyph-name="HT" horiz-adv-x="250" 
 />
    <glyph glyph-name="CR" horiz-adv-x="250" 
 />
    <glyph glyph-name="Dcroat" unicode="&#x110;" horiz-adv-x="717" 
d="M359 281h-149v-162h141c64 0 108 15 132 44c31 37 46 94 46 170c0 89 -20 150 -61 184c-25 21 -64 31 -117 31h-141v-157h149v-110zM68 0v281h-64v110h64v276h283c129 0 218 -31 268 -92c22 -27 39 -66 51 -116c10 -42 15 -84 15 -127c0 -63 -9 -122 -28 -177
c-27 -79 -81 -127 -164 -146c-27 -6 -74 -9 -142 -9h-283z" />
    <glyph glyph-name="Uhorn" unicode="&#x1af;" horiz-adv-x="703" 
d="M654 739h77v-93l-88 -96v-276c0 -196 -92 -279 -291 -279c-106 0 -183 24 -230 72c-25 26 -43 56 -52 91c-6 25 -9 60 -9 106v403h142v-400c0 -107 51 -160 152 -160c71 0 115 21 134 64c8 18 12 50 12 96v400h142v-62l27 30h-16v104z" />
    <glyph glyph-name="dcroat" unicode="&#x111;" horiz-adv-x="592" 
d="M294 104h97v279h-97c-81 0 -125 -53 -125 -136c0 -42 10 -76 30 -101c22 -28 54 -42 95 -42zM525 691v-691h-231c-43 0 -78 3 -103 10c-33 9 -63 27 -89 52c-46 45 -69 107 -69 185c0 86 29 152 88 198c36 28 84 42 144 42h126v64h-82v84h82v56h134z" />
    <glyph glyph-name="itilde" unicode="&#x129;" horiz-adv-x="266" 
d="M181 556c-12 0 -28 4 -49 14c-20 9 -32 15 -37 15c-21 0 -33 -8 -36 -25h-49c3 25 11 47 24 64c15 20 35 30 59 30c11 0 26 -5 45 -14c20 -9 34 -14 41 -14c16 0 25 8 28 25h49c-5 -63 -30 -95 -75 -95zM66 0v487h134v-487h-134z" />
    <glyph glyph-name="uni1ECB" unicode="&#x1ecb;" horiz-adv-x="266" 
d="M83 -57h101v-100h-101v100zM200 537h-134v130h134v-130zM66 0v487h134v-487h-134z" />
    <glyph glyph-name="ohorn" unicode="&#x1a1;" horiz-adv-x="558" 
d="M499 549h77v-93l-69 -66c27 -43 41 -93 41 -152c0 -77 -24 -138 -72 -181c-47 -43 -110 -64 -188 -64c-161 0 -255 93 -255 254c0 76 24 137 72 182c47 43 108 65 185 65c88 0 154 -25 197 -76l28 27h-16v104zM291 391c-81 0 -121 -50 -121 -149c0 -97 41 -146 122 -146
c79 0 119 49 119 148c0 98 -40 147 -120 147z" />
    <glyph glyph-name="uhorn" unicode="&#x1b0;" horiz-adv-x="584" 
d="M529 549h77v-93l-89 -85v-371h-263c-35 0 -61 2 -77 5c-79 16 -118 77 -118 182v300h134v-313c0 -47 21 -70 64 -70h126v383h134v-69l28 27h-16v104z" />
    <glyph glyph-name="uFFFFFFFF" horiz-adv-x="0" 
d="M-357 788l63 -71h101l-109 123h-110l-108 -123h101zM-343 930h121l92 -123h-88z" />
    <glyph glyph-name="sac" horiz-adv-x="0" 
d="M-141 930h121l-125 -123h-88zM-294 717l-63 71l-62 -71h-101l108 123h110l109 -123h-101z" />
    <glyph glyph-name="Itilde" unicode="&#x128;" horiz-adv-x="278" 
d="M187 716c-12 0 -28 4 -49 14c-20 9 -32 15 -37 15c-21 0 -33 -8 -36 -25h-49c3 25 11 47 24 64c15 20 35 30 59 30c11 0 26 -5 45 -14c20 -9 34 -14 41 -14c16 0 25 8 28 25h49c-5 -63 -30 -95 -75 -95zM210 0h-142v667h142v-667z" />
    <glyph glyph-name="Ohorn" unicode="&#x1a0;" horiz-adv-x="705" 
d="M614 739h77v-93l-67 -74l2 -3c43 -64 64 -146 64 -245c0 -219 -106 -328 -319 -328c-226 0 -339 111 -339 334c0 231 104 342 329 342c102 0 181 -24 237 -73l32 36h-16v104zM362 559c-67 0 -115 -22 -143 -67c-21 -33 -31 -85 -31 -157c0 -71 11 -124 34 -160
c28 -45 75 -67 140 -67c115 0 172 75 172 225c0 70 -11 123 -33 159c-27 45 -74 67 -139 67z" />
    <glyph glyph-name="uni1ECA" unicode="&#x1eca;" horiz-adv-x="278" 
d="M93 -57h101v-100h-101v100zM210 0h-142v667h142v-667z" />
    <glyph glyph-name="glyph234" horiz-adv-x="250" 
 />
    <glyph glyph-name="uni1EA0" unicode="&#x1ea0;" horiz-adv-x="723" 
d="M311 -57h101v-100h-101v100zM457 274l-95 233l-95 -233h190zM171 0h-167l276 667h163l276 -667h-166l-64 155h-254z" />
    <glyph glyph-name="uni1EA1" unicode="&#x1ea1;" horiz-adv-x="595" 
d="M250 -57h101v-100h-101v100zM402 104v88h-177c-33 0 -50 -15 -50 -45c0 -29 24 -43 72 -43h155zM238 296h164v9c0 32 -9 54 -28 65c-15 9 -39 13 -74 13h-226v104h226c63 0 106 -4 131 -12c45 -15 77 -49 94 -102c7 -23 11 -56 11 -99v-274h-282c-48 0 -76 0 -83 1
c-32 3 -57 11 -76 25c-37 27 -56 67 -56 118c0 64 32 122 89 141c23 7 59 11 110 11z" />
    <glyph glyph-name="uni1EA2" unicode="&#x1ea2;" horiz-adv-x="723" 
d="M411 767h-9c-13 -3 -13 -4 -13 -20v-18h-56v22c0 52 19 69 72 69h3c5 0 8 0 9 1l1 2c5 5 8 12 8 21c0 15 -10 22 -30 22h-57v52h72c21 0 35 -2 42 -7c22 -15 33 -38 33 -70c0 -49 -25 -74 -75 -74zM457 274l-95 233l-95 -233h190zM171 0h-167l276 667h163l276 -667h-166
l-64 155h-254z" />
    <glyph glyph-name="uni1EA3" unicode="&#x1ea3;" horiz-adv-x="595" 
d="M351 587h-9c-13 -3 -13 -4 -13 -20v-18h-56v22c0 52 19 69 72 69h3c5 0 8 0 9 1l1 2c5 5 8 12 8 21c0 15 -10 22 -30 22h-57v52h72c21 0 35 -2 42 -7c22 -15 33 -38 33 -70c0 -49 -25 -74 -75 -74zM402 104v88h-177c-33 0 -50 -15 -50 -45c0 -29 24 -43 72 -43h155z
M238 296h164v9c0 32 -9 54 -28 65c-15 9 -39 13 -74 13h-226v104h226c63 0 106 -4 131 -12c45 -15 77 -49 94 -102c7 -23 11 -56 11 -99v-274h-282c-48 0 -76 0 -83 1c-32 3 -57 11 -76 25c-37 27 -56 67 -56 118c0 64 32 122 89 141c23 7 59 11 110 11z" />
    <glyph glyph-name="uni1EA4" unicode="&#x1ea4;" horiz-adv-x="723" 
d="M578 930h121l-125 -123h-88zM425 717l-63 71l-62 -71h-101l108 123h110l109 -123h-101zM457 274l-95 233l-95 -233h190zM171 0h-167l276 667h163l276 -667h-166l-64 155h-254z" />
    <glyph glyph-name="uni1EA5" unicode="&#x1ea5;" horiz-adv-x="595" 
d="M363 544l-63 71l-62 -71h-101l108 123h110l109 -123h-101zM493 739h94l-99 -104h-69zM402 104v88h-177c-33 0 -50 -15 -50 -45c0 -29 24 -43 72 -43h155zM238 296h164v9c0 32 -9 54 -28 65c-15 9 -39 13 -74 13h-226v104h226c63 0 106 -4 131 -12c45 -15 77 -49 94 -102
c7 -23 11 -56 11 -99v-274h-282c-48 0 -76 0 -83 1c-32 3 -57 11 -76 25c-37 27 -56 67 -56 118c0 64 32 122 89 141c23 7 59 11 110 11z" />
    <glyph glyph-name="uni1EA6" unicode="&#x1ea6;" horiz-adv-x="723" 
d="M4 0h167l64 155h254l64 -155h166l-276 667h-163zM362 507l95 -233h-190zM362 788l63 -71h101l-109 123h-110l-108 -123h101zM376 930h121l92 -123h-88z" />
    <glyph glyph-name="uni1EA7" unicode="&#x1ea7;" horiz-adv-x="595" 
d="M402 296h-164c-51 0 -87 -4 -110 -11c-57 -19 -89 -77 -89 -141c0 -51 19 -91 56 -118c19 -14 44 -22 76 -25c7 -1 35 -1 83 -1h282v274c0 43 -4 76 -11 99c-17 53 -49 87 -94 102c-25 8 -68 12 -131 12h-226v-104h226c35 0 59 -4 74 -13c19 -11 28 -33 28 -65v-9z
M402 192v-88h-155c-48 0 -72 14 -72 43c0 30 17 45 50 45h177zM359 739h94l74 -104h-69zM300 615l63 -71h101l-109 123h-110l-108 -123h101z" />
    <glyph glyph-name="uni1EA8" unicode="&#x1ea8;" horiz-adv-x="723" 
d="M579 827h-9c-13 -3 -13 -4 -13 -20v-18h-56v22c0 52 19 69 72 69h3c5 0 8 0 9 1l1 2c5 5 8 12 8 21c0 15 -10 22 -30 22h-57v52h72c21 0 35 -2 42 -7c22 -15 33 -38 33 -70c0 -49 -25 -74 -75 -74zM425 717l-63 71l-62 -71h-101l108 123h110l109 -123h-101zM457 274
l-95 233l-95 -233h190zM171 0h-167l276 667h163l276 -667h-166l-64 155h-254z" />
    <glyph glyph-name="uni1EA9" unicode="&#x1ea9;" horiz-adv-x="595" 
d="M363 544l-63 71l-62 -71h-101l108 123h110l109 -123h-101zM516 657h-9c-13 -3 -13 -4 -13 -20v-18h-56v22c0 52 19 69 72 69h3c5 0 8 0 9 1l1 2c5 5 8 12 8 21c0 15 -10 22 -30 22h-57v52h72c21 0 35 -2 42 -7c22 -15 33 -38 33 -70c0 -49 -25 -74 -75 -74zM402 104v88
h-177c-33 0 -50 -15 -50 -45c0 -29 24 -43 72 -43h155zM238 296h164v9c0 32 -9 54 -28 65c-15 9 -39 13 -74 13h-226v104h226c63 0 106 -4 131 -12c45 -15 77 -49 94 -102c7 -23 11 -56 11 -99v-274h-282c-48 0 -76 0 -83 1c-32 3 -57 11 -76 25c-37 27 -56 67 -56 118
c0 64 32 122 89 141c23 7 59 11 110 11z" />
    <glyph glyph-name="uni1EAA" unicode="&#x1eaa;" horiz-adv-x="723" 
d="M407 856c-12 0 -28 4 -49 14c-20 9 -32 15 -37 15c-21 0 -33 -8 -36 -25h-49c3 25 11 47 24 64c15 20 35 30 59 30c11 0 26 -5 45 -14c20 -9 34 -14 41 -14c16 0 25 8 28 25h49c-5 -63 -30 -95 -75 -95zM425 717l-63 71l-62 -71h-101l108 123h110l109 -123h-101zM457 274
l-95 233l-95 -233h190zM171 0h-167l276 667h163l276 -667h-166l-64 155h-254z" />
    <glyph glyph-name="uni1EAB" unicode="&#x1eab;" horiz-adv-x="595" 
d="M363 544l-63 71l-62 -71h-101l108 123h110l109 -123h-101zM354 686c-12 0 -28 4 -49 14c-20 9 -32 15 -37 15c-21 0 -33 -8 -36 -25h-49c3 25 11 47 24 64c15 20 35 30 59 30c11 0 26 -5 45 -14c20 -9 34 -14 41 -14c16 0 25 8 28 25h49c-5 -63 -30 -95 -75 -95zM402 104
v88h-177c-33 0 -50 -15 -50 -45c0 -29 24 -43 72 -43h155zM238 296h164v9c0 32 -9 54 -28 65c-15 9 -39 13 -74 13h-226v104h226c63 0 106 -4 131 -12c45 -15 77 -49 94 -102c7 -23 11 -56 11 -99v-274h-282c-48 0 -76 0 -83 1c-32 3 -57 11 -76 25c-37 27 -56 67 -56 118
c0 64 32 122 89 141c23 7 59 11 110 11z" />
    <glyph glyph-name="uni1EAC" unicode="&#x1eac;" horiz-adv-x="723" 
d="M313 -57h101v-100h-101v100zM426 717l-63 71l-62 -71h-101l108 123h110l109 -123h-101zM457 274l-95 233l-95 -233h190zM171 0h-167l276 667h163l276 -667h-166l-64 155h-254z" />
    <glyph glyph-name="uni1EAD" unicode="&#x1ead;" horiz-adv-x="595" 
d="M365 544l-63 71l-62 -71h-101l108 123h110l109 -123h-101zM253 -57h101v-100h-101v100zM402 104v88h-177c-33 0 -50 -15 -50 -45c0 -29 24 -43 72 -43h155zM238 296h164v9c0 32 -9 54 -28 65c-15 9 -39 13 -74 13h-226v104h226c63 0 106 -4 131 -12
c45 -15 77 -49 94 -102c7 -23 11 -56 11 -99v-274h-282c-48 0 -76 0 -83 1c-32 3 -57 11 -76 25c-37 27 -56 67 -56 118c0 64 32 122 89 141c23 7 59 11 110 11z" />
    <glyph glyph-name="uni1EAE" unicode="&#x1eae;" horiz-adv-x="723" 
d="M411 930h121l-125 -123h-88zM457 831h51c-11 -81 -59 -122 -146 -122c-89 0 -136 41 -142 122h51c9 -42 41 -63 96 -63c48 0 78 21 90 63zM457 274l-95 233l-95 -233h190zM171 0h-167l276 667h163l276 -667h-166l-64 155h-254z" />
    <glyph glyph-name="uni1EAF" unicode="&#x1eaf;" horiz-adv-x="595" 
d="M335 745h94l-99 -104h-69zM395 662h51c-11 -81 -59 -122 -146 -122c-89 0 -136 41 -142 122h51c9 -42 41 -63 96 -63c48 0 78 21 90 63zM402 104v88h-177c-33 0 -50 -15 -50 -45c0 -29 24 -43 72 -43h155zM238 296h164v9c0 32 -9 54 -28 65c-15 9 -39 13 -74 13h-226v104
h226c63 0 106 -4 131 -12c45 -15 77 -49 94 -102c7 -23 11 -56 11 -99v-274h-282c-48 0 -76 0 -83 1c-32 3 -57 11 -76 25c-37 27 -56 67 -56 118c0 64 32 122 89 141c23 7 59 11 110 11z" />
    <glyph glyph-name="uni1EB0" unicode="&#x1eb0;" horiz-adv-x="723" 
d="M4 0h167l64 155h254l64 -155h166l-276 667h-163zM362 507l95 -233h-190zM509 831h-51c-12 -42 -42 -63 -90 -63c-55 0 -87 21 -96 63h-51c6 -81 53 -122 142 -122c87 0 135 41 146 122zM210 930h121l92 -123h-88z" />
    <glyph glyph-name="uni1EB1" unicode="&#x1eb1;" horiz-adv-x="595" 
d="M402 296h-164c-51 0 -87 -4 -110 -11c-57 -19 -89 -77 -89 -141c0 -51 19 -91 56 -118c19 -14 44 -22 76 -25c7 -1 35 -1 83 -1h282v274c0 43 -4 76 -11 99c-17 53 -49 87 -94 102c-25 8 -68 12 -131 12h-226v-104h226c35 0 59 -4 74 -13c19 -11 28 -33 28 -65v-9z
M402 192v-88h-155c-48 0 -72 14 -72 43c0 30 17 45 50 45h177zM446 662h-51c-12 -42 -42 -63 -90 -63c-55 0 -87 21 -96 63h-51c6 -81 53 -122 142 -122c87 0 135 41 146 122zM181 745h94l74 -104h-69z" />
    <glyph glyph-name="uni1EB2" unicode="&#x1eb2;" horiz-adv-x="723" 
d="M410 837h-9c-13 -3 -13 -4 -13 -20v-18h-56v22c0 52 19 69 72 69h3c5 0 8 0 9 1l1 2c5 5 8 12 8 21c0 15 -10 22 -30 22h-57v52h72c21 0 35 -2 42 -7c22 -15 33 -38 33 -70c0 -49 -25 -74 -75 -74zM458 831h51c-11 -81 -59 -122 -146 -122c-89 0 -136 41 -142 122h51
c9 -42 41 -63 96 -63c48 0 78 21 90 63zM457 274l-95 233l-95 -233h190zM171 0h-167l276 667h163l276 -667h-166l-64 155h-254z" />
    <glyph glyph-name="uni1EB3" unicode="&#x1eb3;" horiz-adv-x="595" 
d="M343 670h-9c-13 -3 -13 -4 -13 -20v-18h-56v22c0 52 19 69 72 69h3c5 0 8 0 9 1l1 2c5 5 8 12 8 21c0 15 -10 22 -30 22h-57v52h72c21 0 35 -2 42 -7c22 -15 33 -38 33 -70c0 -49 -25 -74 -75 -74zM395 662h51c-11 -81 -59 -122 -146 -122c-89 0 -136 41 -142 122h51
c9 -42 41 -63 96 -63c48 0 78 21 90 63zM402 104v88h-177c-33 0 -50 -15 -50 -45c0 -29 24 -43 72 -43h155zM238 296h164v9c0 32 -9 54 -28 65c-15 9 -39 13 -74 13h-226v104h226c63 0 106 -4 131 -12c45 -15 77 -49 94 -102c7 -23 11 -56 11 -99v-274h-282
c-48 0 -76 0 -83 1c-32 3 -57 11 -76 25c-37 27 -56 67 -56 118c0 64 32 122 89 141c23 7 59 11 110 11z" />
    <glyph glyph-name="uni1EB4" unicode="&#x1eb4;" horiz-adv-x="723" 
d="M407 846c-12 0 -28 4 -49 14c-20 9 -32 15 -37 15c-21 0 -33 -8 -36 -25h-49c3 25 11 47 24 64c15 20 35 30 59 30c11 0 26 -5 45 -14c20 -9 34 -14 41 -14c16 0 25 8 28 25h49c-5 -63 -30 -95 -75 -95zM457 831h51c-11 -81 -59 -122 -146 -122c-89 0 -136 41 -142 122
h51c9 -42 41 -63 96 -63c48 0 78 21 90 63zM457 274l-95 233l-95 -233h190zM171 0h-167l276 667h163l276 -667h-166l-64 155h-254z" />
    <glyph glyph-name="uni1EB5" unicode="&#x1eb5;" horiz-adv-x="595" 
d="M351 686c-12 0 -28 4 -49 14c-20 9 -32 15 -37 15c-21 0 -33 -8 -36 -25h-49c3 25 11 47 24 64c15 20 35 30 59 30c11 0 26 -5 45 -14c20 -9 34 -14 41 -14c16 0 25 8 28 25h49c-5 -63 -30 -95 -75 -95zM395 662h51c-11 -81 -59 -122 -146 -122c-89 0 -136 41 -142 122
h51c9 -42 41 -63 96 -63c48 0 78 21 90 63zM402 104v88h-177c-33 0 -50 -15 -50 -45c0 -29 24 -43 72 -43h155zM238 296h164v9c0 32 -9 54 -28 65c-15 9 -39 13 -74 13h-226v104h226c63 0 106 -4 131 -12c45 -15 77 -49 94 -102c7 -23 11 -56 11 -99v-274h-282
c-48 0 -76 0 -83 1c-32 3 -57 11 -76 25c-37 27 -56 67 -56 118c0 64 32 122 89 141c23 7 59 11 110 11z" />
    <glyph glyph-name="uni1EB6" unicode="&#x1eb6;" horiz-adv-x="723" 
d="M311 -57h101v-100h-101v100zM457 831h51c-11 -81 -59 -122 -146 -122c-89 0 -136 41 -142 122h51c9 -42 41 -63 96 -63c48 0 78 21 90 63zM457 274l-95 233l-95 -233h190zM171 0h-167l276 667h163l276 -667h-166l-64 155h-254z" />
    <glyph glyph-name="uni1EB7" unicode="&#x1eb7;" horiz-adv-x="595" 
d="M252 -57h101v-100h-101v100zM395 662h51c-11 -81 -59 -122 -146 -122c-89 0 -136 41 -142 122h51c9 -42 41 -63 96 -63c48 0 78 21 90 63zM402 104v88h-177c-33 0 -50 -15 -50 -45c0 -29 24 -43 72 -43h155zM238 296h164v9c0 32 -9 54 -28 65c-15 9 -39 13 -74 13h-226
v104h226c63 0 106 -4 131 -12c45 -15 77 -49 94 -102c7 -23 11 -56 11 -99v-274h-282c-48 0 -76 0 -83 1c-32 3 -57 11 -76 25c-37 27 -56 67 -56 118c0 64 32 122 89 141c23 7 59 11 110 11z" />
    <glyph glyph-name="uni1EB8" unicode="&#x1eb8;" horiz-adv-x="714" 
d="M290 -57h101v-100h-101v100zM341 667h240v-119h-185c-41 0 -70 -2 -88 -6c-32 -7 -56 -21 -72 -42s-26 -57 -30 -109h375v-119h-375c5 -60 24 -101 58 -124c29 -19 75 -29 138 -29h179v-119h-185c-61 0 -108 4 -141 11c-51 11 -91 32 -122 64c-59 61 -88 149 -88 262
c0 121 38 213 113 276c43 36 104 54 183 54z" />
    <glyph glyph-name="uni1EB9" unicode="&#x1eb9;" horiz-adv-x="565" 
d="M226 -57h101v-100h-101v100zM181 296h282v-104h-282c3 -34 15 -58 37 -71c18 -11 45 -17 81 -17h164v-104h-178c-69 0 -124 15 -164 46c-59 45 -88 113 -88 204c0 41 8 78 23 113c17 39 41 68 72 89c35 23 84 35 147 35h188v-104h-178c-35 0 -60 -6 -75 -17
c-17 -13 -26 -36 -29 -70z" />
    <glyph glyph-name="uni1EBA" unicode="&#x1eba;" horiz-adv-x="714" 
d="M389 767h-9c-13 -3 -13 -4 -13 -20v-18h-56v22c0 52 19 69 72 69h3c5 0 8 0 9 1l1 2c5 5 8 12 8 21c0 15 -10 22 -30 22h-57v52h72c21 0 35 -2 42 -7c22 -15 33 -38 33 -70c0 -49 -25 -74 -75 -74zM341 667h240v-119h-185c-41 0 -70 -2 -88 -6c-32 -7 -56 -21 -72 -42
s-26 -57 -30 -109h375v-119h-375c5 -60 24 -101 58 -124c29 -19 75 -29 138 -29h179v-119h-185c-61 0 -108 4 -141 11c-51 11 -91 32 -122 64c-59 61 -88 149 -88 262c0 121 38 213 113 276c43 36 104 54 183 54z" />
    <glyph glyph-name="uni1EBB" unicode="&#x1ebb;" horiz-adv-x="565" 
d="M326 587h-9c-13 -3 -13 -4 -13 -20v-18h-56v22c0 52 19 69 72 69h3c5 0 8 0 9 1l1 2c5 5 8 12 8 21c0 15 -10 22 -30 22h-57v52h72c21 0 35 -2 42 -7c22 -15 33 -38 33 -70c0 -49 -25 -74 -75 -74zM181 296h282v-104h-282c3 -34 15 -58 37 -71c18 -11 45 -17 81 -17h164
v-104h-178c-69 0 -124 15 -164 46c-59 45 -88 113 -88 204c0 41 8 78 23 113c17 39 41 68 72 89c35 23 84 35 147 35h188v-104h-178c-35 0 -60 -6 -75 -17c-17 -13 -26 -36 -29 -70z" />
    <glyph glyph-name="uni1EBC" unicode="&#x1ebc;" horiz-adv-x="714" 
d="M389 716c-12 0 -28 4 -49 14c-20 9 -32 15 -37 15c-21 0 -33 -8 -36 -25h-49c3 25 11 47 24 64c15 20 35 30 59 30c11 0 26 -5 45 -14c20 -9 34 -14 41 -14c16 0 25 8 28 25h49c-5 -63 -30 -95 -75 -95zM341 667h240v-119h-185c-41 0 -70 -2 -88 -6
c-32 -7 -56 -21 -72 -42s-26 -57 -30 -109h375v-119h-375c5 -60 24 -101 58 -124c29 -19 75 -29 138 -29h179v-119h-185c-61 0 -108 4 -141 11c-51 11 -91 32 -122 64c-59 61 -88 149 -88 262c0 121 38 213 113 276c43 36 104 54 183 54z" />
    <glyph glyph-name="uni1EBD" unicode="&#x1ebd;" horiz-adv-x="565" 
d="M325 556c-12 0 -28 4 -49 14c-20 9 -32 15 -37 15c-21 0 -33 -8 -36 -25h-49c3 25 11 47 24 64c15 20 35 30 59 30c11 0 26 -5 45 -14c20 -9 34 -14 41 -14c16 0 25 8 28 25h49c-5 -63 -30 -95 -75 -95zM181 296h282v-104h-282c3 -34 15 -58 37 -71c18 -11 45 -17 81 -17
h164v-104h-178c-69 0 -124 15 -164 46c-59 45 -88 113 -88 204c0 41 8 78 23 113c17 39 41 68 72 89c35 23 84 35 147 35h188v-104h-178c-35 0 -60 -6 -75 -17c-17 -13 -26 -36 -29 -70z" />
    <glyph glyph-name="uni1EBE" unicode="&#x1ebe;" horiz-adv-x="714" 
d="M560 930h121l-125 -123h-88zM407 717l-63 71l-62 -71h-101l108 123h110l109 -123h-101zM341 667h240v-119h-185c-41 0 -70 -2 -88 -6c-32 -7 -56 -21 -72 -42s-26 -57 -30 -109h375v-119h-375c5 -60 24 -101 58 -124c29 -19 75 -29 138 -29h179v-119h-185
c-61 0 -108 4 -141 11c-51 11 -91 32 -122 64c-59 61 -88 149 -88 262c0 121 38 213 113 276c43 36 104 54 183 54z" />
    <glyph glyph-name="uni1EBF" unicode="&#x1ebf;" horiz-adv-x="565" 
d="M338 544l-63 71l-62 -71h-101l108 123h110l109 -123h-101zM468 739h94l-99 -104h-69zM181 296h282v-104h-282c3 -34 15 -58 37 -71c18 -11 45 -17 81 -17h164v-104h-178c-69 0 -124 15 -164 46c-59 45 -88 113 -88 204c0 41 8 78 23 113c17 39 41 68 72 89
c35 23 84 35 147 35h188v-104h-178c-35 0 -60 -6 -75 -17c-17 -13 -26 -36 -29 -70z" />
    <glyph glyph-name="uni1EC0" unicode="&#x1ec0;" horiz-adv-x="714" 
d="M581 667h-240c-79 0 -140 -18 -183 -54c-75 -63 -113 -155 -113 -276c0 -113 29 -201 88 -262c31 -32 71 -53 122 -64c33 -7 80 -11 141 -11h185v119h-179c-63 0 -109 10 -138 29c-34 23 -53 64 -58 124h375v119h-375c4 52 14 88 30 109s40 35 72 42c18 4 47 6 88 6h185
v119zM344 788l63 -71h101l-109 123h-110l-108 -123h101zM358 930h121l92 -123h-88z" />
    <glyph glyph-name="uni1EC1" unicode="&#x1ec1;" horiz-adv-x="565" 
d="M463 296h-282c3 34 12 57 29 70c15 11 40 17 75 17h178v104h-188c-63 0 -112 -12 -147 -35c-31 -21 -55 -50 -72 -89c-15 -35 -23 -72 -23 -113c0 -91 29 -159 88 -204c40 -31 95 -46 164 -46h178v104h-164c-36 0 -63 6 -81 17c-22 13 -34 37 -37 71h282v104zM344 739h94
l74 -104h-69zM285 615l63 -71h101l-109 123h-110l-108 -123h101z" />
    <glyph glyph-name="uni1EC2" unicode="&#x1ec2;" horiz-adv-x="714" 
d="M561 827h-9c-13 -3 -13 -4 -13 -20v-18h-56v22c0 52 19 69 72 69h3c5 0 8 0 9 1l1 2c5 5 8 12 8 21c0 15 -10 22 -30 22h-57v52h72c21 0 35 -2 42 -7c22 -15 33 -38 33 -70c0 -49 -25 -74 -75 -74zM407 717l-63 71l-62 -71h-101l108 123h110l109 -123h-101zM341 667h240
v-119h-185c-41 0 -70 -2 -88 -6c-32 -7 -56 -21 -72 -42s-26 -57 -30 -109h375v-119h-375c5 -60 24 -101 58 -124c29 -19 75 -29 138 -29h179v-119h-185c-61 0 -108 4 -141 11c-51 11 -91 32 -122 64c-59 61 -88 149 -88 262c0 121 38 213 113 276c43 36 104 54 183 54z" />
    <glyph glyph-name="uni1EC3" unicode="&#x1ec3;" horiz-adv-x="565" 
d="M339 544l-63 71l-62 -71h-101l108 123h110l109 -123h-101zM492 657h-9c-13 -3 -13 -4 -13 -20v-18h-56v22c0 52 19 69 72 69h3c5 0 8 0 9 1l1 2c5 5 8 12 8 21c0 15 -10 22 -30 22h-57v52h72c21 0 35 -2 42 -7c22 -15 33 -38 33 -70c0 -49 -25 -74 -75 -74zM181 296h282
v-104h-282c3 -34 15 -58 37 -71c18 -11 45 -17 81 -17h164v-104h-178c-69 0 -124 15 -164 46c-59 45 -88 113 -88 204c0 41 8 78 23 113c17 39 41 68 72 89c35 23 84 35 147 35h188v-104h-178c-35 0 -60 -6 -75 -17c-17 -13 -26 -36 -29 -70z" />
    <glyph glyph-name="uni1EC4" unicode="&#x1ec4;" horiz-adv-x="714" 
d="M386 856c-12 0 -28 4 -49 14c-20 9 -32 15 -37 15c-21 0 -33 -8 -36 -25h-49c3 25 11 47 24 64c15 20 35 30 59 30c11 0 26 -5 45 -14c20 -9 34 -14 41 -14c16 0 25 8 28 25h49c-5 -63 -30 -95 -75 -95zM404 717l-63 71l-62 -71h-101l108 123h110l109 -123h-101zM341 667
h240v-119h-185c-41 0 -70 -2 -88 -6c-32 -7 -56 -21 -72 -42s-26 -57 -30 -109h375v-119h-375c5 -60 24 -101 58 -124c29 -19 75 -29 138 -29h179v-119h-185c-61 0 -108 4 -141 11c-51 11 -91 32 -122 64c-59 61 -88 149 -88 262c0 121 38 213 113 276c43 36 104 54 183 54z
" />
    <glyph glyph-name="uni1EC5" unicode="&#x1ec5;" horiz-adv-x="565" 
d="M348 544l-63 71l-62 -71h-101l108 123h110l109 -123h-101zM339 686c-12 0 -28 4 -49 14c-20 9 -32 15 -37 15c-21 0 -33 -8 -36 -25h-49c3 25 11 47 24 64c15 20 35 30 59 30c11 0 26 -5 45 -14c20 -9 34 -14 41 -14c16 0 25 8 28 25h49c-5 -63 -30 -95 -75 -95zM181 296
h282v-104h-282c3 -34 15 -58 37 -71c18 -11 45 -17 81 -17h164v-104h-178c-69 0 -124 15 -164 46c-59 45 -88 113 -88 204c0 41 8 78 23 113c17 39 41 68 72 89c35 23 84 35 147 35h188v-104h-178c-35 0 -60 -6 -75 -17c-17 -13 -26 -36 -29 -70z" />
    <glyph glyph-name="uni1EC6" unicode="&#x1ec6;" horiz-adv-x="714" 
d="M307 -57h101v-100h-101v100zM405 717l-63 71l-62 -71h-101l108 123h110l109 -123h-101zM341 667h240v-119h-185c-41 0 -70 -2 -88 -6c-32 -7 -56 -21 -72 -42s-26 -57 -30 -109h375v-119h-375c5 -60 24 -101 58 -124c29 -19 75 -29 138 -29h179v-119h-185
c-61 0 -108 4 -141 11c-51 11 -91 32 -122 64c-59 61 -88 149 -88 262c0 121 38 213 113 276c43 36 104 54 183 54z" />
    <glyph glyph-name="uni1EC7" unicode="&#x1ec7;" horiz-adv-x="565" 
d="M348 544l-63 71l-62 -71h-101l108 123h110l109 -123h-101zM236 -57h101v-100h-101v100zM181 296h282v-104h-282c3 -34 15 -58 37 -71c18 -11 45 -17 81 -17h164v-104h-178c-69 0 -124 15 -164 46c-59 45 -88 113 -88 204c0 41 8 78 23 113c17 39 41 68 72 89
c35 23 84 35 147 35h188v-104h-178c-35 0 -60 -6 -75 -17c-17 -13 -26 -36 -29 -70z" />
    <glyph glyph-name="uni1ECC" unicode="&#x1ecc;" horiz-adv-x="705" 
d="M312 -57h101v-100h-101v100zM362 559c-67 0 -115 -22 -143 -67c-21 -33 -31 -85 -31 -157c0 -71 11 -124 34 -160c28 -45 75 -67 140 -67c115 0 172 75 172 225c0 70 -11 123 -33 159c-27 45 -74 67 -139 67zM361 672c116 0 201 -30 254 -89c50 -57 75 -143 75 -259
c0 -219 -106 -328 -319 -328c-226 0 -339 111 -339 334c0 231 104 342 329 342z" />
    <glyph glyph-name="uni1ECD" unicode="&#x1ecd;" horiz-adv-x="566" 
d="M238 -57h101v-100h-101v100zM291 391c-81 0 -121 -50 -121 -149c0 -97 41 -146 122 -146c79 0 119 49 119 148c0 98 -40 147 -120 147zM290 494c161 0 258 -96 258 -256c0 -77 -24 -138 -72 -181c-47 -43 -110 -64 -188 -64c-161 0 -255 93 -255 254c0 76 24 137 72 182
c47 43 108 65 185 65z" />
    <glyph glyph-name="uni1ECE" unicode="&#x1ece;" horiz-adv-x="705" 
d="M407 767h-9c-13 -3 -13 -4 -13 -20v-18h-56v22c0 52 19 69 72 69h3c5 0 8 0 9 1l1 2c5 5 8 12 8 21c0 15 -10 22 -30 22h-57v52h72c21 0 35 -2 42 -7c22 -15 33 -38 33 -70c0 -49 -25 -74 -75 -74zM362 559c-67 0 -115 -22 -143 -67c-21 -33 -31 -85 -31 -157
c0 -71 11 -124 34 -160c28 -45 75 -67 140 -67c115 0 172 75 172 225c0 70 -11 123 -33 159c-27 45 -74 67 -139 67zM361 672c116 0 201 -30 254 -89c50 -57 75 -143 75 -259c0 -219 -106 -328 -319 -328c-226 0 -339 111 -339 334c0 231 104 342 329 342z" />
    <glyph glyph-name="uni1ECF" unicode="&#x1ecf;" horiz-adv-x="566" 
d="M336 587h-9c-13 -3 -13 -4 -13 -20v-18h-56v22c0 52 19 69 72 69h3c5 0 8 0 9 1l1 2c5 5 8 12 8 21c0 15 -10 22 -30 22h-57v52h72c21 0 35 -2 42 -7c22 -15 33 -38 33 -70c0 -49 -25 -74 -75 -74zM291 391c-81 0 -121 -50 -121 -149c0 -97 41 -146 122 -146
c79 0 119 49 119 148c0 98 -40 147 -120 147zM290 494c161 0 258 -96 258 -256c0 -77 -24 -138 -72 -181c-47 -43 -110 -64 -188 -64c-161 0 -255 93 -255 254c0 76 24 137 72 182c47 43 108 65 185 65z" />
    <glyph glyph-name="uni1ED0" unicode="&#x1ed0;" horiz-adv-x="705" 
d="M579 930h121l-125 -123h-88zM426 717l-63 71l-62 -71h-101l108 123h110l109 -123h-101zM362 559c-67 0 -115 -22 -143 -67c-21 -33 -31 -85 -31 -157c0 -71 11 -124 34 -160c28 -45 75 -67 140 -67c115 0 172 75 172 225c0 70 -11 123 -33 159c-27 45 -74 67 -139 67z
M361 672c116 0 201 -30 254 -89c50 -57 75 -143 75 -259c0 -219 -106 -328 -319 -328c-226 0 -339 111 -339 334c0 231 104 342 329 342z" />
    <glyph glyph-name="uni1ED1" unicode="&#x1ed1;" horiz-adv-x="566" 
d="M352 544l-63 71l-62 -71h-101l108 123h110l109 -123h-101zM482 739h94l-99 -104h-69zM291 391c-81 0 -121 -50 -121 -149c0 -97 41 -146 122 -146c79 0 119 49 119 148c0 98 -40 147 -120 147zM290 494c161 0 258 -96 258 -256c0 -77 -24 -138 -72 -181
c-47 -43 -110 -64 -188 -64c-161 0 -255 93 -255 254c0 76 24 137 72 182c47 43 108 65 185 65z" />
    <glyph glyph-name="uni1ED2" unicode="&#x1ed2;" horiz-adv-x="705" 
d="M361 672c-225 0 -329 -111 -329 -342c0 -223 113 -334 339 -334c213 0 319 109 319 328c0 116 -25 202 -75 259c-53 59 -138 89 -254 89zM362 559c65 0 112 -22 139 -67c22 -36 33 -89 33 -159c0 -150 -57 -225 -172 -225c-65 0 -112 22 -140 67c-23 36 -34 89 -34 160
c0 72 10 124 31 157c28 45 76 67 143 67zM361 788l63 -71h101l-109 123h-110l-108 -123h101zM375 930h121l92 -123h-88z" />
    <glyph glyph-name="uni1ED3" unicode="&#x1ed3;" horiz-adv-x="566" 
d="M290 494c-77 0 -138 -22 -185 -65c-48 -45 -72 -106 -72 -182c0 -161 94 -254 255 -254c78 0 141 21 188 64c48 43 72 104 72 181c0 160 -97 256 -258 256zM291 391c80 0 120 -49 120 -147c0 -99 -40 -148 -119 -148c-81 0 -122 49 -122 146c0 99 40 149 121 149z
M349 739h94l74 -104h-69zM290 615l63 -71h101l-109 123h-110l-108 -123h101z" />
    <glyph glyph-name="uni1ED4" unicode="&#x1ed4;" horiz-adv-x="705" 
d="M582 827h-9c-13 -3 -13 -4 -13 -20v-18h-56v22c0 52 19 69 72 69h3c5 0 8 0 9 1l1 2c5 5 8 12 8 21c0 15 -10 22 -30 22h-57v52h72c21 0 35 -2 42 -7c22 -15 33 -38 33 -70c0 -49 -25 -74 -75 -74zM428 717l-63 71l-62 -71h-101l108 123h110l109 -123h-101zM362 559
c-67 0 -115 -22 -143 -67c-21 -33 -31 -85 -31 -157c0 -71 11 -124 34 -160c28 -45 75 -67 140 -67c115 0 172 75 172 225c0 70 -11 123 -33 159c-27 45 -74 67 -139 67zM361 672c116 0 201 -30 254 -89c50 -57 75 -143 75 -259c0 -219 -106 -328 -319 -328
c-226 0 -339 111 -339 334c0 231 104 342 329 342z" />
    <glyph glyph-name="uni1ED5" unicode="&#x1ed5;" horiz-adv-x="566" 
d="M353 544l-63 71l-62 -71h-101l108 123h110l109 -123h-101zM506 657h-9c-13 -3 -13 -4 -13 -20v-18h-56v22c0 52 19 69 72 69h3c5 0 8 0 9 1l1 2c5 5 8 12 8 21c0 15 -10 22 -30 22h-57v52h72c21 0 35 -2 42 -7c22 -15 33 -38 33 -70c0 -49 -25 -74 -75 -74zM291 391
c-81 0 -121 -50 -121 -149c0 -97 41 -146 122 -146c79 0 119 49 119 148c0 98 -40 147 -120 147zM290 494c161 0 258 -96 258 -256c0 -77 -24 -138 -72 -181c-47 -43 -110 -64 -188 -64c-161 0 -255 93 -255 254c0 76 24 137 72 182c47 43 108 65 185 65z" />
    <glyph glyph-name="uni1ED6" unicode="&#x1ed6;" horiz-adv-x="705" 
d="M406 856c-12 0 -28 4 -49 14c-20 9 -32 15 -37 15c-21 0 -33 -8 -36 -25h-49c3 25 11 47 24 64c15 20 35 30 59 30c11 0 26 -5 45 -14c20 -9 34 -14 41 -14c16 0 25 8 28 25h49c-5 -63 -30 -95 -75 -95zM424 717l-63 71l-62 -71h-101l108 123h110l109 -123h-101zM362 559
c-67 0 -115 -22 -143 -67c-21 -33 -31 -85 -31 -157c0 -71 11 -124 34 -160c28 -45 75 -67 140 -67c115 0 172 75 172 225c0 70 -11 123 -33 159c-27 45 -74 67 -139 67zM361 672c116 0 201 -30 254 -89c50 -57 75 -143 75 -259c0 -219 -106 -328 -319 -328
c-226 0 -339 111 -339 334c0 231 104 342 329 342z" />
    <glyph glyph-name="uni1ED7" unicode="&#x1ed7;" horiz-adv-x="566" 
d="M353 544l-63 71l-62 -71h-101l108 123h110l109 -123h-101zM344 686c-12 0 -28 4 -49 14c-20 9 -32 15 -37 15c-21 0 -33 -8 -36 -25h-49c3 25 11 47 24 64c15 20 35 30 59 30c11 0 26 -5 45 -14c20 -9 34 -14 41 -14c16 0 25 8 28 25h49c-5 -63 -30 -95 -75 -95zM291 391
c-81 0 -121 -50 -121 -149c0 -97 41 -146 122 -146c79 0 119 49 119 148c0 98 -40 147 -120 147zM290 494c161 0 258 -96 258 -256c0 -77 -24 -138 -72 -181c-47 -43 -110 -64 -188 -64c-161 0 -255 93 -255 254c0 76 24 137 72 182c47 43 108 65 185 65z" />
    <glyph glyph-name="uni1ED8" unicode="&#x1ed8;" horiz-adv-x="705" 
d="M311 -57h101v-100h-101v100zM424 717l-63 71l-62 -71h-101l108 123h110l109 -123h-101zM362 559c-67 0 -115 -22 -143 -67c-21 -33 -31 -85 -31 -157c0 -71 11 -124 34 -160c28 -45 75 -67 140 -67c115 0 172 75 172 225c0 70 -11 123 -33 159c-27 45 -74 67 -139 67z
M361 672c116 0 201 -30 254 -89c50 -57 75 -143 75 -259c0 -219 -106 -328 -319 -328c-226 0 -339 111 -339 334c0 231 104 342 329 342z" />
    <glyph glyph-name="uni1ED9" unicode="&#x1ed9;" horiz-adv-x="566" 
d="M353 544l-63 71l-62 -71h-101l108 123h110l109 -123h-101zM241 -57h101v-100h-101v100zM291 391c-81 0 -121 -50 -121 -149c0 -97 41 -146 122 -146c79 0 119 49 119 148c0 98 -40 147 -120 147zM290 494c161 0 258 -96 258 -256c0 -77 -24 -138 -72 -181
c-47 -43 -110 -64 -188 -64c-161 0 -255 93 -255 254c0 76 24 137 72 182c47 43 108 65 185 65z" />
    <glyph glyph-name="uni1EDA" unicode="&#x1eda;" horiz-adv-x="705" 
d="M403 860h121l-125 -123h-88zM614 739h77v-93l-67 -74l2 -3c43 -64 64 -146 64 -245c0 -219 -106 -328 -319 -328c-226 0 -339 111 -339 334c0 231 104 342 329 342c102 0 181 -24 237 -73l32 36h-16v104zM362 559c-67 0 -115 -22 -143 -67c-21 -33 -31 -85 -31 -157
c0 -71 11 -124 34 -160c28 -45 75 -67 140 -67c115 0 172 75 172 225c0 70 -11 123 -33 159c-27 45 -74 67 -139 67z" />
    <glyph glyph-name="uni1EDB" unicode="&#x1edb;" horiz-adv-x="558" 
d="M322 662h94l-99 -104h-69zM499 549h77v-93l-69 -66c27 -43 41 -93 41 -152c0 -77 -24 -138 -72 -181c-47 -43 -110 -64 -188 -64c-161 0 -255 93 -255 254c0 76 24 137 72 182c47 43 108 65 185 65c88 0 154 -25 197 -76l28 27h-16v104zM291 391
c-81 0 -121 -50 -121 -149c0 -97 41 -146 122 -146c79 0 119 49 119 148c0 98 -40 147 -120 147z" />
    <glyph glyph-name="uni1EDC" unicode="&#x1edc;" horiz-adv-x="705" 
d="M362 559c65 0 112 -22 139 -67c22 -36 33 -89 33 -159c0 -150 -57 -225 -172 -225c-65 0 -112 22 -140 67c-23 36 -34 89 -34 160c0 72 10 124 31 157c28 45 76 67 143 67zM691 739h-77v-104h16l-32 -36c-56 49 -135 73 -237 73c-225 0 -329 -111 -329 -342
c0 -223 113 -334 339 -334c213 0 319 109 319 328c0 99 -21 181 -64 245l-2 3l67 74v93zM193 860h121l92 -123h-88z" />
    <glyph glyph-name="uni1EDD" unicode="&#x1edd;" horiz-adv-x="558" 
d="M291 391c80 0 120 -49 120 -147c0 -99 -40 -148 -119 -148c-81 0 -122 49 -122 146c0 99 40 149 121 149zM576 549h-77v-104h16l-28 -27c-43 51 -109 76 -197 76c-77 0 -138 -22 -185 -65c-48 -45 -72 -106 -72 -182c0 -161 94 -254 255 -254c78 0 141 21 188 64
c48 43 72 104 72 181c0 59 -14 109 -41 152l69 66v93zM159 662h94l74 -104h-69z" />
    <glyph glyph-name="uni1EDE" unicode="&#x1ede;" horiz-adv-x="705" 
d="M407 767h-9c-13 -3 -13 -4 -13 -20v-18h-56v22c0 52 19 69 72 69h3c5 0 8 0 9 1l1 2c5 5 8 12 8 21c0 15 -10 22 -30 22h-57v52h72c21 0 35 -2 42 -7c22 -15 33 -38 33 -70c0 -49 -25 -74 -75 -74zM614 739h77v-93l-67 -74l2 -3c43 -64 64 -146 64 -245
c0 -219 -106 -328 -319 -328c-226 0 -339 111 -339 334c0 231 104 342 329 342c102 0 181 -24 237 -73l32 36h-16v104zM362 559c-67 0 -115 -22 -143 -67c-21 -33 -31 -85 -31 -157c0 -71 11 -124 34 -160c28 -45 75 -67 140 -67c115 0 172 75 172 225c0 70 -11 123 -33 159
c-27 45 -74 67 -139 67z" />
    <glyph glyph-name="uni1EDF" unicode="&#x1edf;" horiz-adv-x="558" 
d="M334 587h-9c-13 -3 -13 -4 -13 -20v-18h-56v22c0 52 19 69 72 69h3c5 0 8 0 9 1l1 2c5 5 8 12 8 21c0 15 -10 22 -30 22h-57v52h72c21 0 35 -2 42 -7c22 -15 33 -38 33 -70c0 -49 -25 -74 -75 -74zM499 549h77v-93l-69 -66c27 -43 41 -93 41 -152
c0 -77 -24 -138 -72 -181c-47 -43 -110 -64 -188 -64c-161 0 -255 93 -255 254c0 76 24 137 72 182c47 43 108 65 185 65c88 0 154 -25 197 -76l28 27h-16v104zM291 391c-81 0 -121 -50 -121 -149c0 -97 41 -146 122 -146c79 0 119 49 119 148c0 98 -40 147 -120 147z" />
    <glyph glyph-name="uni1EE0" unicode="&#x1ee0;" horiz-adv-x="705" 
d="M406 716c-12 0 -28 4 -49 14c-20 9 -32 15 -37 15c-21 0 -33 -8 -36 -25h-49c3 25 11 47 24 64c15 20 35 30 59 30c11 0 26 -5 45 -14c20 -9 34 -14 41 -14c16 0 25 8 28 25h49c-5 -63 -30 -95 -75 -95zM614 739h77v-93l-67 -74l2 -3c43 -64 64 -146 64 -245
c0 -219 -106 -328 -319 -328c-226 0 -339 111 -339 334c0 231 104 342 329 342c102 0 181 -24 237 -73l32 36h-16v104zM362 559c-67 0 -115 -22 -143 -67c-21 -33 -31 -85 -31 -157c0 -71 11 -124 34 -160c28 -45 75 -67 140 -67c115 0 172 75 172 225c0 70 -11 123 -33 159
c-27 45 -74 67 -139 67z" />
    <glyph glyph-name="uni1EE1" unicode="&#x1ee1;" horiz-adv-x="558" 
d="M341 556c-12 0 -28 4 -49 14c-20 9 -32 15 -37 15c-21 0 -33 -8 -36 -25h-49c3 25 11 47 24 64c15 20 35 30 59 30c11 0 26 -5 45 -14c20 -9 34 -14 41 -14c16 0 25 8 28 25h49c-5 -63 -30 -95 -75 -95zM499 549h77v-93l-69 -66c27 -43 41 -93 41 -152
c0 -77 -24 -138 -72 -181c-47 -43 -110 -64 -188 -64c-161 0 -255 93 -255 254c0 76 24 137 72 182c47 43 108 65 185 65c88 0 154 -25 197 -76l28 27h-16v104zM291 391c-81 0 -121 -50 -121 -149c0 -97 41 -146 122 -146c79 0 119 49 119 148c0 98 -40 147 -120 147z" />
    <glyph glyph-name="uni1EE2" unicode="&#x1ee2;" horiz-adv-x="705" 
d="M310 -57h101v-100h-101v100zM614 739h77v-93l-67 -74l2 -3c43 -64 64 -146 64 -245c0 -219 -106 -328 -319 -328c-226 0 -339 111 -339 334c0 231 104 342 329 342c102 0 181 -24 237 -73l32 36h-16v104zM362 559c-67 0 -115 -22 -143 -67c-21 -33 -31 -85 -31 -157
c0 -71 11 -124 34 -160c28 -45 75 -67 140 -67c115 0 172 75 172 225c0 70 -11 123 -33 159c-27 45 -74 67 -139 67z" />
    <glyph glyph-name="uni1EE3" unicode="&#x1ee3;" horiz-adv-x="558" 
d="M237 -57h101v-100h-101v100zM499 549h77v-93l-69 -66c27 -43 41 -93 41 -152c0 -77 -24 -138 -72 -181c-47 -43 -110 -64 -188 -64c-161 0 -255 93 -255 254c0 76 24 137 72 182c47 43 108 65 185 65c88 0 154 -25 197 -76l28 27h-16v104zM291 391
c-81 0 -121 -50 -121 -149c0 -97 41 -146 122 -146c79 0 119 49 119 148c0 98 -40 147 -120 147z" />
    <glyph glyph-name="uni1EE4" unicode="&#x1ee4;" horiz-adv-x="703" 
d="M303 -57h101v-100h-101v100zM61 667h142v-400c0 -107 51 -160 152 -160c71 0 115 21 134 64c8 18 12 50 12 96v400h142v-393c0 -196 -92 -279 -291 -279c-106 0 -183 24 -230 72c-25 26 -43 56 -52 91c-6 25 -9 60 -9 106v403z" />
    <glyph glyph-name="uni1EE5" unicode="&#x1ee5;" horiz-adv-x="566" 
d="M237 -57h101v-100h-101v100zM257 104h126v383h134v-487h-263c-35 0 -61 2 -77 5c-79 16 -118 77 -118 182v300h134v-313c0 -47 21 -70 64 -70z" />
    <glyph glyph-name="uni1EE6" unicode="&#x1ee6;" horiz-adv-x="703" 
d="M399 767h-9c-13 -3 -13 -4 -13 -20v-18h-56v22c0 52 19 69 72 69h3c5 0 8 0 9 1l1 2c5 5 8 12 8 21c0 15 -10 22 -30 22h-57v52h72c21 0 35 -2 42 -7c22 -15 33 -38 33 -70c0 -49 -25 -74 -75 -74zM61 667h142v-400c0 -107 51 -160 152 -160c71 0 115 21 134 64
c8 18 12 50 12 96v400h142v-393c0 -196 -92 -279 -291 -279c-106 0 -183 24 -230 72c-25 26 -43 56 -52 91c-6 25 -9 60 -9 106v403z" />
    <glyph glyph-name="uni1EE7" unicode="&#x1ee7;" horiz-adv-x="566" 
d="M336 587h-9c-13 -3 -13 -4 -13 -20v-18h-56v22c0 52 19 69 72 69h3c5 0 8 0 9 1l1 2c5 5 8 12 8 21c0 15 -10 22 -30 22h-57v52h72c21 0 35 -2 42 -7c22 -15 33 -38 33 -70c0 -49 -25 -74 -75 -74zM257 104h126v383h134v-487h-263c-35 0 -61 2 -77 5
c-79 16 -118 77 -118 182v300h134v-313c0 -47 21 -70 64 -70z" />
    <glyph glyph-name="uni1EE8" unicode="&#x1ee8;" horiz-adv-x="703" 
d="M393 860h121l-125 -123h-88zM654 739h77v-93l-88 -96v-276c0 -196 -92 -279 -291 -279c-106 0 -183 24 -230 72c-25 26 -43 56 -52 91c-6 25 -9 60 -9 106v403h142v-400c0 -107 51 -160 152 -160c71 0 115 21 134 64c8 18 12 50 12 96v400h142v-62l27 30h-16v104z" />
    <glyph glyph-name="uni1EE9" unicode="&#x1ee9;" horiz-adv-x="584" 
d="M321 662h94l-99 -104h-69zM529 549h77v-93l-89 -85v-371h-263c-35 0 -61 2 -77 5c-79 16 -118 77 -118 182v300h134v-313c0 -47 21 -70 64 -70h126v383h134v-69l28 27h-16v104z" />
    <glyph glyph-name="uni1EEA" unicode="&#x1eea;" horiz-adv-x="703" 
d="M731 739h-77v-104h16l-27 -30v62h-142v-400c0 -46 -4 -78 -12 -96c-19 -43 -63 -64 -134 -64c-101 0 -152 53 -152 160v400h-142v-403c0 -46 3 -81 9 -106c9 -35 27 -65 52 -91c47 -48 124 -72 230 -72c199 0 291 83 291 279v276l88 96v93zM189 860h121l92 -123h-88z" />
    <glyph glyph-name="uni1EEB" unicode="&#x1eeb;" horiz-adv-x="584" 
d="M606 549h-77v-104h16l-28 -27v69h-134v-383h-126c-43 0 -64 23 -64 70v313h-134v-300c0 -105 39 -166 118 -182c16 -3 42 -5 77 -5h263v371l89 85v93zM158 662h94l74 -104h-69z" />
    <glyph glyph-name="uni1EEC" unicode="&#x1eec;" horiz-adv-x="703" 
d="M400 767h-9c-13 -3 -13 -4 -13 -20v-18h-56v22c0 52 19 69 72 69h3c5 0 8 0 9 1l1 2c5 5 8 12 8 21c0 15 -10 22 -30 22h-57v52h72c21 0 35 -2 42 -7c22 -15 33 -38 33 -70c0 -49 -25 -74 -75 -74zM654 739h77v-93l-88 -96v-276c0 -196 -92 -279 -291 -279
c-106 0 -183 24 -230 72c-25 26 -43 56 -52 91c-6 25 -9 60 -9 106v403h142v-400c0 -107 51 -160 152 -160c71 0 115 21 134 64c8 18 12 50 12 96v400h142v-62l27 30h-16v104z" />
    <glyph glyph-name="uni1EED" unicode="&#x1eed;" horiz-adv-x="584" 
d="M334 587h-9c-13 -3 -13 -4 -13 -20v-18h-56v22c0 52 19 69 72 69h3c5 0 8 0 9 1l1 2c5 5 8 12 8 21c0 15 -10 22 -30 22h-57v52h72c21 0 35 -2 42 -7c22 -15 33 -38 33 -70c0 -49 -25 -74 -75 -74zM529 549h77v-93l-89 -85v-371h-263c-35 0 -61 2 -77 5
c-79 16 -118 77 -118 182v300h134v-313c0 -47 21 -70 64 -70h126v383h134v-69l28 27h-16v104z" />
    <glyph glyph-name="uni1EEE" unicode="&#x1eee;" horiz-adv-x="703" 
d="M407 716c-12 0 -28 4 -49 14c-20 9 -32 15 -37 15c-21 0 -33 -8 -36 -25h-49c3 25 11 47 24 64c15 20 35 30 59 30c11 0 26 -5 45 -14c20 -9 34 -14 41 -14c16 0 25 8 28 25h49c-5 -63 -30 -95 -75 -95zM654 739h77v-93l-88 -96v-276c0 -196 -92 -279 -291 -279
c-106 0 -183 24 -230 72c-25 26 -43 56 -52 91c-6 25 -9 60 -9 106v403h142v-400c0 -107 51 -160 152 -160c71 0 115 21 134 64c8 18 12 50 12 96v400h142v-62l27 30h-16v104z" />
    <glyph glyph-name="uni1EEF" unicode="&#x1eef;" horiz-adv-x="584" 
d="M333 550c-12 0 -28 4 -49 14c-20 9 -32 15 -37 15c-21 0 -33 -8 -36 -25h-49c3 25 11 47 24 64c15 20 35 30 59 30c11 0 26 -5 45 -14c20 -9 34 -14 41 -14c16 0 25 8 28 25h49c-5 -63 -30 -95 -75 -95zM529 549h77v-93l-89 -85v-371h-263c-35 0 -61 2 -77 5
c-79 16 -118 77 -118 182v300h134v-313c0 -47 21 -70 64 -70h126v383h134v-69l28 27h-16v104z" />
    <glyph glyph-name="uni1EF0" unicode="&#x1ef0;" horiz-adv-x="703" 
d="M305 -57h101v-100h-101v100zM654 739h77v-93l-88 -96v-276c0 -196 -92 -279 -291 -279c-106 0 -183 24 -230 72c-25 26 -43 56 -52 91c-6 25 -9 60 -9 106v403h142v-400c0 -107 51 -160 152 -160c71 0 115 21 134 64c8 18 12 50 12 96v400h142v-62l27 30h-16v104z" />
    <glyph glyph-name="uni1EF1" unicode="&#x1ef1;" horiz-adv-x="584" 
d="M243 -57h101v-100h-101v100zM529 549h77v-93l-89 -85v-371h-263c-35 0 -61 2 -77 5c-79 16 -118 77 -118 182v300h134v-313c0 -47 21 -70 64 -70h126v383h134v-69l28 27h-16v104z" />
    <glyph glyph-name="Ygrave" unicode="&#x1ef2;" horiz-adv-x="654" 
d="M250 292v-292h142v287l260 380h-168l-161 -260l-153 260h-167zM152 860h121l92 -123h-88z" />
    <glyph glyph-name="ygrave" unicode="&#x1ef3;" horiz-adv-x="574" 
d="M373 104h-110c-33 0 -54 13 -63 40c-5 13 -7 41 -7 84v259h-134v-272c0 -42 2 -71 5 -88c17 -85 80 -127 190 -127h119l-1 -18c-1 -22 -9 -36 -23 -43c-10 -5 -27 -8 -51 -8h-239v-104h239c55 0 96 7 125 21c56 27 84 81 84 162v477h-134v-383zM149 662h94l74 -104h-69z
" />
    <glyph glyph-name="uni1EF4" unicode="&#x1ef4;" horiz-adv-x="654" 
d="M273 -57h101v-100h-101v100zM250 0v292l-247 375h167l153 -260l161 260h168l-260 -380v-287h-142z" />
    <glyph glyph-name="uni1EF5" unicode="&#x1ef5;" horiz-adv-x="574" 
d="M232 -193h101v-100h-101v100zM263 104h110v383h134v-477c0 -81 -28 -135 -84 -162c-29 -14 -70 -21 -125 -21h-239v104h239c24 0 41 3 51 8c14 7 22 21 23 43l1 18h-119c-110 0 -173 42 -190 127c-3 17 -5 46 -5 88v272h134v-259c0 -43 2 -71 7 -84c9 -27 30 -40 63 -40z
" />
    <glyph glyph-name="uni1EF6" unicode="&#x1ef6;" horiz-adv-x="654" 
d="M370 767h-9c-13 -3 -13 -4 -13 -20v-18h-56v22c0 52 19 69 72 69h3c5 0 8 0 9 1l1 2c5 5 8 12 8 21c0 15 -10 22 -30 22h-57v52h72c21 0 35 -2 42 -7c22 -15 33 -38 33 -70c0 -49 -25 -74 -75 -74zM250 0v292l-247 375h167l153 -260l161 260h168l-260 -380v-287h-142z
" />
    <glyph glyph-name="uni1EF7" unicode="&#x1ef7;" horiz-adv-x="574" 
d="M330 587h-9c-13 -3 -13 -4 -13 -20v-18h-56v22c0 52 19 69 72 69h3c5 0 8 0 9 1l1 2c5 5 8 12 8 21c0 15 -10 22 -30 22h-57v52h72c21 0 35 -2 42 -7c22 -15 33 -38 33 -70c0 -49 -25 -74 -75 -74zM263 104h110v383h134v-477c0 -81 -28 -135 -84 -162
c-29 -14 -70 -21 -125 -21h-239v104h239c24 0 41 3 51 8c14 7 22 21 23 43l1 18h-119c-110 0 -173 42 -190 127c-3 17 -5 46 -5 88v272h134v-259c0 -43 2 -71 7 -84c9 -27 30 -40 63 -40z" />
    <glyph glyph-name="uni1EF8" unicode="&#x1ef8;" horiz-adv-x="654" 
d="M372 716c-12 0 -28 4 -49 14c-20 9 -32 15 -37 15c-21 0 -33 -8 -36 -25h-49c3 25 11 47 24 64c15 20 35 30 59 30c11 0 26 -5 45 -14c20 -9 34 -14 41 -14c16 0 25 8 28 25h49c-5 -63 -30 -95 -75 -95zM250 0v292l-247 375h167l153 -260l161 260h168l-260 -380v-287
h-142z" />
    <glyph glyph-name="uni1EF9" unicode="&#x1ef9;" horiz-adv-x="574" 
d="M336 550c-12 0 -28 4 -49 14c-20 9 -32 15 -37 15c-21 0 -33 -8 -36 -25h-49c3 25 11 47 24 64c15 20 35 30 59 30c11 0 26 -5 45 -14c20 -9 34 -14 41 -14c16 0 25 8 28 25h49c-5 -63 -30 -95 -75 -95zM263 104h110v383h134v-477c0 -81 -28 -135 -84 -162
c-29 -14 -70 -21 -125 -21h-239v104h239c24 0 41 3 51 8c14 7 22 21 23 43l1 18h-119c-110 0 -173 42 -190 127c-3 17 -5 46 -5 88v272h134v-259c0 -43 2 -71 7 -84c9 -27 30 -40 63 -40z" />
    <glyph glyph-name="Abreve" unicode="&#x102;" horiz-adv-x="723" 
d="M457 831h51c-11 -81 -59 -122 -146 -122c-89 0 -136 41 -142 122h51c9 -42 41 -63 96 -63c48 0 78 21 90 63zM457 274l-95 233l-95 -233h190zM171 0h-167l276 667h163l276 -667h-166l-64 155h-254z" />
    <glyph glyph-name="abreve" unicode="&#x103;" horiz-adv-x="595" 
d="M394 662h51c-11 -81 -59 -122 -146 -122c-89 0 -136 41 -142 122h51c9 -42 41 -63 96 -63c48 0 78 21 90 63zM402 104v88h-177c-33 0 -50 -15 -50 -45c0 -29 24 -43 72 -43h155zM238 296h164v9c0 32 -9 54 -28 65c-15 9 -39 13 -74 13h-226v104h226c63 0 106 -4 131 -12
c45 -15 77 -49 94 -102c7 -23 11 -56 11 -99v-274h-282c-48 0 -76 0 -83 1c-32 3 -57 11 -76 25c-37 27 -56 67 -56 118c0 64 32 122 89 141c23 7 59 11 110 11z" />
    <glyph glyph-name="Utilde" unicode="&#x168;" horiz-adv-x="703" 
d="M407 716c-12 0 -28 4 -49 14c-20 9 -32 15 -37 15c-21 0 -33 -8 -36 -25h-49c3 25 11 47 24 64c15 20 35 30 59 30c11 0 26 -5 45 -14c20 -9 34 -14 41 -14c16 0 25 8 28 25h49c-5 -63 -30 -95 -75 -95zM61 667h142v-400c0 -107 51 -160 152 -160c71 0 115 21 134 64
c8 18 12 50 12 96v400h142v-393c0 -196 -92 -279 -291 -279c-106 0 -183 24 -230 72c-25 26 -43 56 -52 91c-6 25 -9 60 -9 106v403z" />
    <glyph glyph-name="utilde" unicode="&#x169;" horiz-adv-x="566" 
d="M333 550c-12 0 -28 4 -49 14c-20 9 -32 15 -37 15c-21 0 -33 -8 -36 -25h-49c3 25 11 47 24 64c15 20 35 30 59 30c11 0 26 -5 45 -14c20 -9 34 -14 41 -14c16 0 25 8 28 25h49c-5 -63 -30 -95 -75 -95zM257 104h126v383h134v-487h-263c-35 0 -61 2 -77 5
c-79 16 -118 77 -118 182v300h134v-313c0 -47 21 -70 64 -70z" />
    <glyph glyph-name="uni2010" unicode="&#x2010;" horiz-adv-x="233" 
d="M0 318h233v-120h-233v120z" />
    <glyph glyph-name="uni2219" unicode="&#x2219;" horiz-adv-x="224" 
d="M51 398h121v-130h-121v130z" />
    <glyph glyph-name="uni02C9" unicode="&#x2c9;" 
d="M92 633h317v-67h-317v67z" />
    <glyph glyph-name="uni03BC" unicode="&#x3bc;" horiz-adv-x="590" 
d="M200 3v-186h-134v670h134v-316c0 -45 21 -67 64 -67h126v383h134v-487h-263c-30 0 -50 1 -61 3z" />
  </font>
</defs>
</svg>
