<?xml version="1.0" standalone="no"?>
<!DOCTYPE svg PUBLIC "-//W3C//DTD SVG 1.1//EN" "http://www.w3.org/Graphics/SVG/1.1/DTD/svg11.dtd" >
<svg xmlns="http://www.w3.org/2000/svg" xmlns:xlink="http://www.w3.org/1999/xlink" version="1.1">
<metadata>
Created by FontForge 20170910 at Wed Sep  1 12:29:12 2010
 By Jimmy Wärting
VIE-HandelGothic Medium is a trademark of VietSoft.
</metadata>
<defs>
<font id="VIE-HandelGothicMedium" horiz-adv-x="500" >
  <font-face 
    font-family="VIE-HandelGothic"
    font-weight="500"
    font-stretch="normal"
    units-per-em="1000"
    panose-1="0 0 0 0 0 0 0 0 0 0"
    ascent="800"
    descent="-200"
    x-height="487"
    cap-height="667"
    bbox="-359 -271 1248 1024"
    underline-thickness="84"
    underline-position="-122"
    stemh="85"
    stemv="100"
    unicode-range="U+0020-F002"
  />
<missing-glyph 
d="M125 962v-899h250v899h-250zM438 0h-375v1024h375v-1024z" />
    <glyph glyph-name=".notdef" 
d="M125 962v-899h250v899h-250zM438 0h-375v1024h375v-1024z" />
    <glyph glyph-name="space" unicode=" " horiz-adv-x="250" 
 />
    <glyph glyph-name="exclam" unicode="!" horiz-adv-x="239" 
d="M69 108h100v-108h-100v108zM69 667h100v-513h-100v513z" />
    <glyph glyph-name="quotedbl" unicode="&#x22;" horiz-adv-x="337" 
d="M286 667v-268h-68v268h68zM118 667v-268h-68v268h68z" />
    <glyph glyph-name="numbersign" unicode="#" horiz-adv-x="609" 
d="M352 282l18 116h-113l-18 -116h113zM181 465l27 168h86l-27 -168h114l27 168h86l-27 -168h124l-11 -67h-123l-18 -116h123l-11 -67h-123l-29 -182h-87l29 182h-113l-29 -182h-87l29 182h-123l11 67h123l18 116h-123l10 67h124z" />
    <glyph glyph-name="dollar" unicode="$" horiz-adv-x="637" 
d="M286 389v193h-15c-81 0 -122 -33 -122 -100c0 -36 13 -61 38 -75c11 -7 26 -11 44 -13l46 -4zM351 292v-207h8l19 1c73 4 110 38 110 102c0 70 -41 105 -123 105c-5 0 -10 0 -14 -1zM60 85h226v207c-53 0 -94 3 -122 10c-45 11 -79 32 -100 64c-19 28 -28 62 -28 101
c0 80 33 138 98 173c33 18 79 27 138 27h14v96h65v-96h218v-85h-218v-193h10c85 0 144 -13 175 -39c43 -36 65 -89 65 -158c0 -83 -32 -139 -97 -169c-33 -15 -78 -23 -135 -23h-18v-98h-65v98h-226v85z" />
    <glyph glyph-name="percent" unicode="%" horiz-adv-x="883" 
d="M666 290c-67 0 -100 -38 -100 -113c0 -83 34 -124 103 -124c66 0 99 39 99 118c0 41 -7 70 -20 88c-16 21 -43 31 -82 31zM675 348c112 0 168 -58 168 -173c0 -120 -57 -180 -172 -180c-124 0 -180 52 -180 175c0 119 61 178 184 178zM272 -13l272 693h69l-273 -693h-68z
M216 614c-67 0 -100 -38 -100 -113c0 -83 34 -124 103 -124c66 0 99 39 99 118c0 41 -7 70 -20 88c-16 21 -43 31 -82 31zM225 672c112 0 168 -58 168 -173c0 -120 -57 -180 -172 -180c-124 0 -180 52 -180 175c0 119 61 178 184 178z" />
    <glyph glyph-name="ampersand" unicode="&#x26;" horiz-adv-x="740" 
d="M420 391h314v-85h-107c-1 -59 -3 -101 -8 -125c-13 -68 -50 -118 -110 -150c-50 -27 -113 -41 -190 -41c-87 0 -151 12 -194 37c-59 34 -88 84 -88 151c0 39 9 72 27 98c17 23 43 45 80 65c-69 26 -104 75 -104 146c0 120 79 180 236 180h251v-85h-239
c-43 0 -74 -6 -95 -18c-27 -15 -40 -43 -40 -82c0 -37 16 -63 48 -77c21 -9 54 -14 97 -14h65v-85h-41c-115 0 -172 -38 -172 -113c0 -79 59 -118 176 -118c134 0 201 68 201 203v28h-107v85z" />
    <glyph glyph-name="quoteright" unicode="&#x2019;" horiz-adv-x="214" 
d="M61 667h100v-96l-66 -138h-52l52 126h-34v108z" />
    <glyph glyph-name="parenleft" unicode="(" horiz-adv-x="382" 
d="M350 750v-80c-84 -10 -142 -53 -175 -129c-22 -52 -33 -128 -33 -228c0 -124 21 -208 63 -252c34 -35 82 -56 145 -62v-80c-205 10 -308 143 -308 399c0 161 35 277 106 350c47 48 114 75 202 82z" />
    <glyph glyph-name="parenright" unicode=")" horiz-adv-x="382" 
d="M42 670v80c205 -14 308 -158 308 -432c0 -256 -103 -389 -308 -399v80c63 6 111 27 145 62c42 44 63 128 63 252c0 100 -11 176 -33 228c-33 76 -91 119 -175 129z" />
    <glyph glyph-name="asterisk" unicode="*" horiz-adv-x="357" 
d="M179 468l-67 -83l-54 41l74 81l-102 29l23 61l96 -32l-3 102h65l-2 -102l95 32l23 -61l-102 -29l74 -81l-53 -41z" />
    <glyph glyph-name="plus" unicode="+" horiz-adv-x="550" 
d="M231 299h-198v84h198v187h87v-187h198v-84h-198v-187h-87v187z" />
    <glyph glyph-name="comma" unicode="," horiz-adv-x="214" 
d="M61 108h100v-96l-66 -137h-52l52 125h-34v108z" />
    <glyph glyph-name="hyphen" unicode="-" horiz-adv-x="334" 
d="M0 305h334v-77h-334v77z" />
    <glyph glyph-name="period" unicode="." horiz-adv-x="208" 
d="M54 108h100v-108h-100v108z" />
    <glyph glyph-name="slash" unicode="/" horiz-adv-x="479" 
d="M517 744l-471 -821h-84l472 821h83z" />
    <glyph glyph-name="zero" unicode="0" horiz-adv-x="700" 
d="M348 587c-89 0 -147 -32 -175 -96c-17 -40 -26 -89 -26 -148c0 -82 12 -144 37 -185c31 -52 85 -78 161 -78c80 0 136 26 169 77c26 41 39 105 39 190c0 79 -14 137 -43 175c-33 43 -87 65 -162 65zM352 672c110 0 190 -28 241 -84c49 -53 73 -136 73 -247
c0 -231 -103 -346 -308 -346c-114 0 -197 28 -249 83c-50 53 -75 138 -75 253c0 227 106 341 318 341z" />
    <glyph glyph-name="one" unicode="1" horiz-adv-x="250" 
d="M179 667v-667h-107v667h107z" />
    <glyph glyph-name="two" unicode="2" horiz-adv-x="620" 
d="M143 189v-104h443v-85h-550v178c0 39 2 69 7 88c7 30 21 55 43 74c37 32 97 48 180 48h44c58 0 97 6 117 18c30 18 45 46 45 85c0 38 -14 64 -42 78c-17 9 -53 13 -108 13h-280v85h293c67 0 111 -3 133 -10c75 -23 117 -89 117 -169c0 -75 -32 -128 -97 -161
c-31 -16 -82 -24 -153 -24h-60c-48 0 -81 -7 -100 -21c-21 -16 -32 -47 -32 -93z" />
    <glyph glyph-name="three" unicode="3" horiz-adv-x="604" 
d="M298 0h-264v85h271c97 0 146 34 146 103c0 44 -16 75 -49 94c-21 12 -58 18 -111 18h-191v85h205c57 0 95 7 114 21c26 19 39 46 39 81c0 39 -15 66 -45 80c-21 10 -54 15 -99 15h-280v85h290c82 0 139 -10 171 -30c49 -31 73 -79 73 -144c0 -40 -11 -72 -32 -96
c-18 -21 -47 -40 -87 -56c78 -22 117 -74 117 -157c0 -71 -30 -123 -89 -156c-23 -13 -52 -21 -87 -25c-19 -2 -49 -3 -92 -3z" />
    <glyph glyph-name="four" unicode="4" horiz-adv-x="698" 
d="M465 602l-331 -362h331v362zM465 155h-442v90l386 422h163v-427h99v-85h-99v-155h-107v155z" />
    <glyph glyph-name="five" unicode="5" horiz-adv-x="654" 
d="M54 667h521v-85h-414v-189h209c45 0 76 -1 95 -4c36 -5 65 -17 87 -35c43 -35 65 -86 65 -153c0 -84 -32 -143 -97 -176c-33 -17 -89 -25 -170 -25h-296v85h301c49 0 84 6 104 19c30 19 45 51 45 97c0 43 -14 72 -42 89c-21 12 -55 18 -102 18h-306v359z" />
    <glyph glyph-name="six" unicode="6" horiz-adv-x="670" 
d="M369 317h-222v-26c0 -141 70 -211 211 -211c108 0 162 41 162 124c0 75 -50 113 -151 113zM152 402h210c93 0 157 -12 192 -36c53 -36 79 -89 79 -158c0 -81 -33 -140 -99 -178c-41 -23 -100 -35 -177 -35c-90 0 -159 17 -208 52c-77 55 -115 146 -115 275
c0 145 45 246 136 304c43 27 101 41 176 41h264v-85h-248c-45 0 -79 -4 -102 -11c-33 -10 -59 -30 -78 -60c-17 -27 -27 -64 -30 -109z" />
    <glyph glyph-name="seven" unicode="7" horiz-adv-x="614" 
d="M23 667h567v-121l-364 -546h-119l391 582h-475v85z" />
    <glyph glyph-name="eight" unicode="8" horiz-adv-x="710" 
d="M355 308c-59 0 -103 -5 -132 -15c-47 -17 -71 -50 -71 -97c0 -48 24 -81 73 -99c31 -11 76 -17 135 -17c133 0 199 38 199 114c0 49 -24 82 -71 99c-28 10 -72 15 -133 15zM361 587c-61 0 -105 -4 -131 -11c-50 -15 -75 -45 -75 -90c0 -41 20 -69 59 -82
c26 -9 74 -13 143 -13c70 0 118 6 143 17c35 16 53 42 53 79c0 44 -21 73 -62 87c-25 9 -69 13 -130 13zM148 343c-71 28 -106 75 -106 140c0 77 37 130 110 159c50 20 123 30 218 30c101 0 174 -14 217 -41c53 -33 79 -81 79 -143c0 -48 -16 -85 -49 -111
c-13 -11 -33 -22 -59 -34c80 -25 114 -67 114 -148c0 -72 -32 -126 -95 -163c-43 -25 -114 -37 -215 -37c-116 0 -196 13 -239 40c-56 34 -84 84 -84 151c0 47 14 84 42 113c15 15 38 30 67 44z" />
    <glyph glyph-name="nine" unicode="9" horiz-adv-x="670" 
d="M300 350h222v26c0 141 -70 211 -211 211c-108 0 -162 -41 -162 -124c0 -75 50 -113 151 -113zM517 265h-210c-93 0 -157 12 -192 36c-53 36 -79 89 -79 158c0 81 33 140 99 178c41 23 100 35 177 35c90 0 159 -17 208 -52c77 -55 115 -146 115 -275
c0 -123 -33 -214 -98 -275c-50 -47 -121 -70 -214 -70h-264v85h248c45 0 79 4 102 11c33 10 59 30 78 61c17 27 27 63 30 108z" />
    <glyph glyph-name="colon" unicode=":" horiz-adv-x="208" 
d="M54 325h100v-108h-100v108zM54 108h100v-108h-100v108z" />
    <glyph glyph-name="semicolon" unicode=";" horiz-adv-x="214" 
d="M61 108h100v-96l-66 -137h-52l52 125h-34v108zM61 325h100v-108h-100v108z" />
    <glyph glyph-name="less" unicode="&#x3c;" 
d="M33 384l433 214v-106l-320 -153l320 -154v-105l-433 214v90z" />
    <glyph glyph-name="equal" unicode="=" horiz-adv-x="550" 
d="M33 218v84h483v-84h-483zM33 380v84h483v-84h-483z" />
    <glyph glyph-name="greater" unicode="&#x3e;" 
d="M466 293l-433 -213v106l320 153l-320 153v105l433 -214v-90z" />
    <glyph glyph-name="question" unicode="?" horiz-adv-x="564" 
d="M62 108h100v-108h-100v108zM62 582v85h276c134 0 201 -56 201 -169c0 -69 -25 -120 -75 -152c-30 -19 -80 -29 -151 -29h-47c-46 0 -75 -6 -87 -17c-11 -11 -17 -39 -17 -84v-62h-100v71c0 37 1 63 3 76c4 28 14 50 31 67c22 23 74 34 157 34h60c75 0 113 31 113 93
c0 36 -12 61 -35 74c-15 9 -44 13 -87 13h-242z" />
    <glyph glyph-name="at" unicode="@" horiz-adv-x="768" 
d="M442 220l32 226h-69c-83 0 -125 -49 -125 -148c0 -52 29 -78 88 -78h74zM369 56h207v-56h-213c-109 0 -186 22 -231 66c-31 31 -56 72 -74 124c-16 47 -24 94 -24 143c0 55 10 108 29 158c22 57 53 100 93 129c53 38 132 57 238 57c163 0 268 -51 315 -153
c17 -38 26 -78 26 -120c0 -78 -25 -142 -75 -193c-25 -25 -59 -45 -101 -59h-200c-35 0 -56 1 -64 2c-22 3 -41 10 -58 23c-31 23 -46 59 -46 106c0 154 76 231 229 231h149l-42 -300h47c18 12 32 25 41 40c27 43 41 93 41 149c0 35 -6 69 -18 100c-14 36 -34 63 -59 80
c-37 25 -99 38 -184 38c-107 0 -178 -22 -215 -66c-41 -50 -62 -124 -62 -222c0 -45 5 -87 17 -128c14 -50 36 -87 64 -110c31 -26 87 -39 170 -39z" />
    <glyph glyph-name="A" unicode="A" horiz-adv-x="689" 
d="M470 259l-122 328l-128 -328h250zM117 0h-113l276 667h140l265 -667h-113l-68 174h-316z" />
    <glyph glyph-name="B" unicode="B" horiz-adv-x="669" 
d="M179 300v-215h203c91 0 136 37 136 111c0 39 -12 67 -35 84c-19 13 -50 20 -92 20h-212zM179 582v-197h212c80 0 120 33 120 99c0 41 -15 70 -45 87c-13 7 -38 11 -75 11h-212zM365 0h-293v667h319c45 0 78 -3 100 -7c37 -8 65 -22 86 -45c29 -33 44 -72 44 -119
c0 -71 -34 -122 -103 -153c75 -27 113 -78 113 -154c0 -70 -26 -121 -78 -154c-37 -23 -99 -35 -188 -35z" />
    <glyph glyph-name="C" unicode="C" horiz-adv-x="605" 
d="M373 85h198v-85h-207c-115 0 -196 25 -245 76c-57 59 -85 143 -85 253c0 57 9 110 28 161c21 58 52 102 92 131c43 31 111 46 204 46h213v-85h-207c-39 0 -69 -2 -89 -7c-32 -8 -57 -23 -75 -46c-35 -45 -53 -112 -53 -203c0 -85 20 -150 61 -193c20 -21 45 -35 76 -42
c19 -4 49 -6 89 -6z" />
    <glyph glyph-name="D" unicode="D" horiz-adv-x="695" 
d="M342 582h-163v-497h170c74 0 127 22 159 67c27 39 41 96 41 173c0 85 -13 147 -40 186c-32 47 -88 71 -167 71zM72 0v667h256c61 0 106 -3 135 -10c45 -11 84 -32 115 -65c56 -59 84 -143 84 -252c0 -203 -74 -315 -222 -336c-19 -3 -53 -4 -102 -4h-266z" />
    <glyph glyph-name="E" unicode="E" horiz-adv-x="681" 
d="M366 667h188v-85h-194c-43 0 -77 -5 -100 -14c-61 -23 -99 -83 -104 -190h398v-85h-399c1 -40 8 -76 22 -109c17 -40 41 -67 72 -81c25 -12 60 -18 105 -18h200v-85h-219c-54 0 -97 6 -130 17c-41 14 -76 39 -103 76c-43 57 -64 132 -64 227c0 136 39 234 117 295
c45 35 115 52 211 52z" />
    <glyph glyph-name="F" unicode="F" horiz-adv-x="599" 
d="M171 378h390v-85h-390v-293h-107v402c0 65 8 114 23 145c25 51 67 86 125 105c31 10 82 15 152 15h197v-85h-206c-65 0 -111 -11 -138 -34c-31 -25 -46 -69 -46 -132v-38z" />
    <glyph glyph-name="G" unicode="G" horiz-adv-x="663" 
d="M297 297v85h312v-382h-247c-57 0 -100 3 -129 10c-44 10 -82 30 -113 60c-57 55 -86 142 -86 260c0 147 41 245 123 295c46 28 116 42 210 42h242v-85h-233c-38 0 -63 -1 -74 -2c-103 -12 -155 -93 -155 -242c0 -131 36 -209 107 -237c26 -10 67 -16 122 -16h126v212
h-205z" />
    <glyph glyph-name="H" unicode="H" horiz-adv-x="710" 
d="M531 667h107v-667h-107v295h-352v-295h-107v667h107v-287h352v287z" />
    <glyph glyph-name="I" unicode="I" horiz-adv-x="250" 
d="M179 0h-107v667h107v-667z" />
    <glyph glyph-name="J" unicode="J" horiz-adv-x="487" 
d="M134 0h-129v85h129c81 0 133 12 154 35c19 22 29 74 29 157v390h107v-390c0 -55 -2 -94 -6 -117c-16 -87 -74 -137 -162 -153c-26 -5 -67 -7 -122 -7z" />
    <glyph glyph-name="K" unicode="K" horiz-adv-x="654" 
d="M508 0l-329 340l322 327h130l-338 -322l358 -345h-143zM72 667h107v-667h-107v667z" />
    <glyph glyph-name="L" unicode="L" horiz-adv-x="494" 
d="M64 266v401h107v-388c0 -76 10 -126 31 -149c26 -30 74 -45 144 -45h143v-85h-164c-95 0 -163 21 -202 62c-40 42 -59 110 -59 204z" />
    <glyph glyph-name="M" unicode="M" horiz-adv-x="878" 
d="M72 667h157l219 -544l202 544h157v-667h-103v567l-208 -567h-106l-215 567v-567h-103v667z" />
    <glyph glyph-name="N" unicode="N" horiz-adv-x="714" 
d="M520 0l-345 532v-532h-103v667h127l341 -534v534h103v-667h-123z" />
    <glyph glyph-name="O" unicode="O" horiz-adv-x="690" 
d="M352 592c-79 0 -136 -24 -170 -72c-29 -41 -44 -103 -44 -186c0 -84 14 -146 42 -187c34 -48 91 -72 170 -72c95 0 157 34 186 103c15 35 22 85 22 151c0 87 -13 150 -39 188c-34 50 -90 75 -167 75zM353 677c111 0 193 -30 245 -90c49 -56 73 -141 73 -255
c0 -228 -109 -342 -328 -342c-212 0 -318 114 -318 342c0 110 27 194 81 253c56 61 138 92 247 92z" />
    <glyph glyph-name="P" unicode="P" horiz-adv-x="628" 
d="M179 582v-255h175c96 0 137 37 137 132c0 43 -12 76 -36 98c-18 17 -53 25 -105 25h-171zM347 242h-168v-242h-107v667h295c167 0 238 -75 238 -210c0 -79 -25 -137 -74 -176c-33 -26 -95 -39 -184 -39z" />
    <glyph glyph-name="Q" unicode="Q" horiz-adv-x="719" 
d="M358 592c-77 0 -133 -24 -168 -73c-29 -41 -43 -103 -43 -184c0 -82 15 -143 46 -183c35 -46 92 -69 171 -69c69 0 120 25 154 74c29 42 44 99 44 170c0 177 -68 265 -204 265zM572 85h120v-85h-192c-3 0 -10 -1 -22 -1h-41h-46c-54 0 -97 3 -128 9c-45 9 -83 26 -115 51
c-76 60 -114 149 -114 268c0 107 28 191 83 253c58 65 140 97 245 97c101 0 179 -30 234 -89c53 -57 79 -137 79 -240c0 -57 -7 -105 -21 -144c-16 -42 -43 -82 -82 -119z" />
    <glyph glyph-name="R" unicode="R" horiz-adv-x="673" 
d="M179 582v-215h190c59 0 97 7 115 22c25 20 37 49 37 86c0 47 -15 78 -45 94c-16 9 -52 13 -107 13h-190zM285 282h-106v-282h-107v667h304c90 0 153 -13 189 -39c46 -33 69 -82 69 -146c0 -93 -46 -151 -139 -175c47 -21 80 -47 97 -80c13 -27 23 -69 26 -126l3 -52
c1 -20 7 -36 15 -49h-110c-4 8 -9 40 -14 96c-7 72 -28 122 -65 149c-33 25 -87 37 -162 37z" />
    <glyph glyph-name="S" unicode="S" horiz-adv-x="637" 
d="M335 0h-275v85h288c45 0 78 6 99 18c27 15 41 44 41 85c0 53 -20 85 -60 97c-15 5 -49 7 -100 7h-55c-79 0 -135 11 -169 34c-45 31 -68 77 -68 140c0 80 32 138 96 173c33 19 88 28 163 28h274v-85h-274c-53 0 -89 -6 -108 -19c-25 -17 -38 -44 -38 -82
c0 -39 16 -65 47 -79c21 -9 54 -14 99 -14h40c49 0 83 -1 104 -4c43 -5 75 -17 97 -35c43 -35 65 -88 65 -158c0 -81 -32 -137 -97 -168c-32 -15 -88 -23 -169 -23z" />
    <glyph glyph-name="T" unicode="T" horiz-adv-x="575" 
d="M234 0v582h-231v85h568v-85h-230v-582h-107z" />
    <glyph glyph-name="U" unicode="U" horiz-adv-x="695" 
d="M64 667h107v-396c0 -70 11 -118 33 -144c29 -35 77 -52 143 -52c78 0 131 22 158 67c13 22 20 68 20 137v388h107v-388c0 -55 -2 -93 -7 -116c-8 -41 -26 -74 -54 -100c-53 -49 -132 -73 -237 -73c-108 0 -184 32 -229 97c-27 39 -41 101 -41 184v396z" />
    <glyph glyph-name="V" unicode="V" horiz-adv-x="704" 
d="M585 667h115l-284 -667h-127l-286 667h123l228 -567z" />
    <glyph glyph-name="W" unicode="W" horiz-adv-x="901" 
d="M14 667h116l120 -559l136 559h132l134 -559l122 559h113l-171 -667h-134l-131 543l-138 -543h-134z" />
    <glyph glyph-name="X" unicode="X" horiz-adv-x="672" 
d="M5 0l261 342l-221 325h128l164 -245l183 245h128l-249 -325l267 -342h-129l-206 266l-197 -266h-129z" />
    <glyph glyph-name="Y" unicode="Y" horiz-adv-x="646" 
d="M270 0v268l-267 399h124l199 -315l195 315h123l-267 -399v-268h-107z" />
    <glyph glyph-name="Z" unicode="Z" horiz-adv-x="635" 
d="M39 106l444 476h-444v85h556v-106l-439 -476h439v-85h-556v106z" />
    <glyph glyph-name="bracketleft" unicode="[" horiz-adv-x="336" 
d="M209 744h94v-77h-57c-37 0 -60 -4 -69 -11c-11 -9 -16 -31 -16 -66v-513c0 -35 5 -56 15 -65c10 -8 33 -12 70 -12h57v-77h-94c-55 0 -93 11 -114 32s-31 59 -31 114v529c0 55 10 93 31 114s59 32 114 32z" />
    <glyph glyph-name="backslash" unicode="\" horiz-adv-x="479" 
d="M-38 744h84l471 -821h-83z" />
    <glyph glyph-name="bracketright" unicode="]" horiz-adv-x="336" 
d="M34 667v77h94c55 0 93 -11 114 -32s31 -59 31 -114v-529c0 -55 -10 -93 -31 -114s-59 -32 -114 -32h-94v77h57c37 0 60 4 70 12c10 9 15 30 15 65v513c0 35 -5 57 -16 66c-9 7 -32 11 -69 11h-57z" />
    <glyph glyph-name="asciicircum" unicode="^" 
d="M250 585l-125 -238h-112l167 323h140l167 -323h-113z" />
    <glyph glyph-name="underscore" unicode="_" 
d="M0 -122v84h500v-84h-500z" />
    <glyph glyph-name="quoteleft" unicode="&#x2018;" horiz-adv-x="214" 
d="M154 434h-100v96l66 137h52l-52 -125h34v-108z" />
    <glyph glyph-name="a" unicode="a" horiz-adv-x="533" 
d="M397 77v143h-162c-31 0 -54 -4 -68 -13c-18 -11 -27 -30 -27 -59s9 -48 27 -59c14 -8 37 -12 68 -12h162zM224 297h173v12c0 43 -7 71 -21 83s-44 18 -89 18h-229v77h250c42 0 73 -3 93 -8c39 -11 66 -32 79 -65c9 -22 14 -57 14 -106v-308h-247c-40 0 -67 1 -82 3
c-83 11 -125 59 -125 143c0 63 21 106 64 131c23 13 63 20 120 20z" />
    <glyph glyph-name="b" unicode="b" horiz-adv-x="555" 
d="M283 410h-117v-333h113c55 0 93 15 114 45c18 25 27 66 27 122c0 55 -9 95 -27 121c-21 30 -58 45 -110 45zM166 667v-180h135c146 0 219 -79 219 -236c0 -133 -42 -212 -127 -237c-29 -9 -73 -14 -132 -14h-192v667h97z" />
    <glyph glyph-name="c" unicode="c" horiz-adv-x="470" 
d="M282 487h155v-77h-155c-55 0 -94 -14 -117 -43c-20 -26 -30 -67 -30 -124c0 -66 14 -112 43 -139c19 -18 54 -27 104 -27h155v-77h-155c-90 0 -152 19 -186 56c-41 45 -61 104 -61 179c0 79 21 141 64 187c24 26 52 44 83 53c25 8 59 12 100 12z" />
    <glyph glyph-name="d" unicode="d" horiz-adv-x="557" 
d="M271 77h120v333h-104c-55 0 -94 -14 -119 -43c-23 -26 -34 -67 -34 -122c0 -57 9 -97 26 -122c21 -31 58 -46 111 -46zM279 487h112v180h97v-667h-217c-81 0 -138 16 -171 47c-44 41 -66 104 -66 187c0 41 6 79 19 115c15 43 36 75 64 96c37 28 91 42 162 42z" />
    <glyph glyph-name="e" unicode="e" horiz-adv-x="522" 
d="M139 289h292v-77h-292c0 -51 13 -86 39 -107c23 -19 61 -28 113 -28h140v-77h-166c-75 0 -129 15 -162 46c-45 42 -67 105 -67 188c0 105 37 179 111 222c36 21 84 31 144 31h140v-77h-126c-51 0 -88 -8 -112 -23c-27 -18 -45 -51 -54 -98z" />
    <glyph glyph-name="f" unicode="f" horiz-adv-x="369" 
d="M105 0v410h-86v77h86v22c0 112 46 158 158 158h101v-77h-88c-60 0 -74 -16 -74 -76v-27h153v-77h-153v-410h-97z" />
    <glyph glyph-name="g" unicode="g" horiz-adv-x="563" 
d="M396 77v333h-97c-35 0 -60 -2 -75 -6c-25 -7 -45 -21 -59 -43c-19 -31 -29 -73 -29 -128c0 -105 42 -156 146 -156h114zM292 487h201v-432c0 -56 -1 -95 -4 -116c-5 -42 -30 -70 -74 -83c-25 -7 -64 -11 -118 -11h-208v77h223c27 0 43 1 49 2c19 5 30 15 33 31
c1 7 2 16 2 27v18h-104c-44 0 -72 1 -83 2c-29 3 -55 12 -78 26c-63 39 -95 108 -95 205c0 81 21 145 62 192c23 26 53 44 89 53c25 6 60 9 105 9z" />
    <glyph glyph-name="h" unicode="h" horiz-adv-x="563" 
d="M69 667h97v-180h113c82 0 139 -15 172 -45s49 -86 49 -167v-275h-97v283c0 50 -8 84 -25 101s-50 26 -99 26h-113v-410h-97v667z" />
    <glyph glyph-name="i" unicode="i" horiz-adv-x="235" 
d="M166 566h-97v101h97v-101zM69 0v487h97v-487h-97z" />
    <glyph glyph-name="j" unicode="j" horiz-adv-x="266" 
d="M196 566h-97v101h97v-101zM99 487h97v-455c0 -51 -1 -84 -3 -97c-7 -43 -26 -71 -57 -86c-22 -10 -58 -15 -109 -15h-61v76h61c35 0 56 7 64 21c5 9 8 34 8 73v483z" />
    <glyph glyph-name="k" unicode="k" horiz-adv-x="539" 
d="M69 667h97v-372l230 192h124l-239 -192h49c119 0 163 -46 163 -163v-132h-97v112c0 50 -11 82 -33 97c-17 11 -52 16 -106 16h-91v-225h-97v667z" />
    <glyph glyph-name="l" unicode="l" horiz-adv-x="235" 
d="M166 667v-667h-97v667h97z" />
    <glyph glyph-name="m" unicode="m" horiz-adv-x="787" 
d="M69 0v487h431c51 0 81 -1 92 -2c35 -4 63 -15 85 -33c32 -27 48 -78 48 -151v-301h-97v301c0 81 -29 109 -110 109h-75v-410h-97v410h-180v-410h-97z" />
    <glyph glyph-name="n" unicode="n" horiz-adv-x="554" 
d="M69 0v487h225c143 0 197 -54 197 -197v-290h-97v280c0 92 -26 130 -115 130h-113v-410h-97z" />
    <glyph glyph-name="o" unicode="o" horiz-adv-x="513" 
d="M260 412c-50 0 -88 -16 -113 -49c-23 -30 -35 -71 -35 -122c0 -111 49 -166 146 -166c101 0 151 55 151 164c0 52 -12 93 -35 123c-25 33 -63 50 -114 50zM266 492c159 0 243 -91 243 -251c0 -156 -92 -246 -248 -246c-159 0 -249 83 -249 240c0 163 91 257 254 257z" />
    <glyph glyph-name="p" unicode="p" horiz-adv-x="545" 
d="M259 410h-93v-333h93c59 0 100 14 122 43c19 25 29 68 29 130c0 112 -40 160 -151 160zM69 -155v642h201c45 0 78 -3 99 -8c32 -8 60 -25 83 -51c39 -43 58 -104 58 -184c0 -89 -24 -156 -73 -201c-22 -20 -50 -33 -84 -39c-16 -3 -47 -4 -94 -4h-93v-155h-97z" />
    <glyph glyph-name="q" unicode="q" horiz-adv-x="547" 
d="M381 77v333h-98c-57 0 -96 -15 -119 -45c-19 -26 -29 -69 -29 -128c0 -53 10 -93 30 -118c23 -28 60 -42 111 -42h105zM289 487h189v-642h-97v155h-105c-45 0 -73 1 -84 2c-31 4 -57 13 -78 28c-53 39 -79 108 -79 208c0 102 28 172 84 211c37 25 93 38 170 38z" />
    <glyph glyph-name="r" unicode="r" horiz-adv-x="402" 
d="M69 0v487h125c70 0 118 -11 145 -33c29 -25 44 -71 44 -139v-48h-91v48c0 69 -20 91 -88 91h-38v-406h-97z" />
    <glyph glyph-name="s" unicode="s" horiz-adv-x="527" 
d="M220 487h245v-77h-219c-51 0 -81 -5 -91 -16s-15 -28 -15 -52c0 -28 10 -46 29 -53c11 -4 33 -6 67 -6h66c53 0 87 -1 102 -3c13 -1 25 -6 36 -14c31 -21 46 -61 46 -120c0 -69 -22 -113 -66 -133c-19 -9 -58 -13 -118 -13h-257v77h234c45 0 73 2 84 7c15 7 23 25 23 54
c0 32 -10 50 -31 55c-9 2 -32 3 -70 3h-39c-49 0 -76 0 -82 1c-33 3 -58 13 -75 28c-33 28 -49 67 -49 118c0 61 22 103 67 126c23 12 61 18 113 18z" />
    <glyph glyph-name="t" unicode="t" horiz-adv-x="376" 
d="M17 487h93v180h97v-180h141v-77h-141v-256c0 -35 5 -56 15 -65c10 -8 33 -12 70 -12h57v-77h-94c-55 0 -93 10 -114 31s-31 60 -31 115v264h-93v77z" />
    <glyph glyph-name="u" unicode="u" horiz-adv-x="536" 
d="M278 77h107v410h97v-487h-212c-47 0 -81 3 -102 9c-34 9 -61 29 -80 60c-17 27 -26 70 -26 130v288h97v-284c0 -43 5 -72 14 -88c15 -25 50 -38 105 -38z" />
    <glyph glyph-name="v" unicode="v" horiz-adv-x="529" 
d="M112 487l149 -361l159 361h102l-225 -487h-78l-212 487h105z" />
    <glyph glyph-name="w" unicode="w" horiz-adv-x="788" 
d="M265 77h80v410h97v-410h179v410h97v-487h-453c-40 0 -69 2 -88 6c-77 17 -115 73 -115 170v311h97v-279c0 -53 5 -86 14 -100c14 -21 45 -31 92 -31z" />
    <glyph glyph-name="x" unicode="x" horiz-adv-x="514" 
d="M3 0l194 246l-189 241h117l133 -179l134 179h114l-189 -241l194 -246h-117l-136 182l-141 -182h-114z" />
    <glyph glyph-name="y" unicode="y" horiz-adv-x="552" 
d="M264 77h121v410h97v-407c0 -37 -1 -70 -3 -100c-4 -59 -26 -99 -66 -118c-23 -11 -69 -17 -136 -17h-215v77h209h49c20 0 35 6 45 15c13 11 19 32 20 63h-134c-109 0 -170 38 -183 114c-4 23 -6 58 -6 106v267h97v-294c0 -43 7 -73 20 -89c15 -18 43 -27 85 -27z" />
    <glyph glyph-name="z" unicode="z" horiz-adv-x="484" 
d="M32 105l322 305h-322v77h413v-106l-325 -304h325v-77h-413v105z" />
    <glyph glyph-name="braceleft" unicode="{" horiz-adv-x="362" 
d="M187 572v-115c0 -31 -4 -55 -11 -72c-9 -19 -25 -37 -49 -52c24 -15 40 -33 49 -52c7 -17 11 -41 11 -72v-114c0 -43 3 -69 10 -77c10 -12 30 -18 61 -18h70v-77h-76c-60 0 -102 11 -126 34c-24 22 -36 62 -36 121v126c0 29 -4 50 -11 63c-9 15 -27 25 -54 30v73
c27 5 45 15 54 30c7 13 11 34 11 63v126c0 32 2 56 7 73c9 33 29 56 60 69c22 9 54 13 95 13h76v-77h-70c-35 0 -57 -8 -65 -25c-4 -8 -6 -31 -6 -70z" />
    <glyph glyph-name="bar" unicode="|" 
d="M197 -167v834h107v-834h-107z" />
    <glyph glyph-name="braceright" unicode="}" horiz-adv-x="362" 
d="M175 95v115c0 61 12 93 60 124c-24 15 -40 33 -49 52c-7 17 -11 41 -11 72v114c0 43 -3 69 -10 77c-10 12 -30 18 -61 18h-71v77h77c60 0 102 -11 126 -34c24 -22 36 -62 36 -121v-126c0 -29 4 -50 11 -62c9 -15 26 -26 53 -31v-73c-27 -5 -44 -16 -53 -31
c-7 -12 -11 -33 -11 -62v-126c0 -32 -2 -56 -7 -73c-9 -34 -29 -57 -60 -69c-21 -9 -53 -13 -95 -13h-77v77h71c35 0 57 8 65 25c4 8 6 31 6 70z" />
    <glyph glyph-name="asciitilde" unicode="~" horiz-adv-x="667" 
d="M151 569l-60 40c9 18 21 42 38 72c27 38 63 57 108 57c23 0 57 -9 103 -28c47 -19 78 -28 95 -28c29 0 56 19 79 58l61 -36c-19 -39 -38 -69 -58 -88c-27 -25 -59 -37 -96 -37c-19 0 -66 15 -143 45c-19 7 -35 11 -50 11c-29 0 -54 -22 -77 -66z" />
    <glyph glyph-name="exclamdown" unicode="&#xa1;" horiz-adv-x="239" 
d="M169 667v-108h-100v108h100zM169 512v-512h-100v512h100z" />
    <glyph glyph-name="cent" unicode="&#xa2;" horiz-adv-x="474" 
d="M272 152h6v316c-38 -1 -66 -8 -84 -22c-31 -24 -47 -70 -47 -137c0 -105 42 -157 125 -157zM436 468h-98v-316h98v-85h-98v-98h-60v98c-77 1 -132 13 -163 38c-54 43 -81 108 -81 196c0 75 19 135 58 180c41 48 98 72 171 72h15v95h60v-95h98v-85z" />
    <glyph glyph-name="sterling" unicode="&#xa3;" horiz-adv-x="624" 
d="M379 667h164v-85h-143c-70 0 -118 -15 -144 -45c-21 -23 -31 -73 -31 -149v-44h218v-67h-218v-192h371v-85h-541v85h63v192h-63v67h63v57c0 49 4 87 11 115c10 40 29 72 58 97c41 36 105 54 192 54z" />
    <glyph glyph-name="fraction" unicode="&#x2044;" horiz-adv-x="121" 
d="M-185 -13l425 693h71l-425 -693h-71z" />
    <glyph glyph-name="yen" unicode="&#xa5;" horiz-adv-x="594" 
d="M72 301h151l-220 366h117l179 -315l174 315h117l-220 -366h150v-63h-170v-57h150v-63h-150v-118h-107v118h-151v63h151v57h-171v63z" />
    <glyph glyph-name="florin" unicode="&#x192;" horiz-adv-x="570" 
d="M180 77l51 288h-119l12 67h119l14 77c20 111 74 158 186 158h113l-15 -85h-90c-31 0 -52 -5 -63 -15s-20 -30 -25 -61l-13 -74h150l-12 -67h-150l-56 -320c-15 -83 -41 -136 -79 -161c-25 -16 -72 -24 -139 -24h-81l15 85h74c42 0 70 12 84 35c7 12 15 44 24 97z" />
    <glyph glyph-name="section" unicode="&#xa7;" horiz-adv-x="588" 
d="M276 183h31c51 0 85 4 102 11c25 11 38 32 38 63c0 36 -17 58 -50 67c-15 4 -45 6 -90 6h-38c-43 0 -73 -3 -88 -9c-29 -11 -43 -34 -43 -67s16 -54 49 -64c16 -5 46 -7 89 -7zM276 415h39c64 0 111 -4 142 -13c63 -18 95 -66 95 -144c0 -50 -18 -91 -55 -124
c32 -32 48 -72 48 -119c0 -71 -30 -121 -89 -150c-28 -13 -78 -20 -149 -20h-249v85h257c85 0 128 29 128 86c0 39 -18 64 -54 75c-15 5 -42 7 -82 7h-57c-71 0 -122 10 -153 30c-41 27 -61 67 -61 121c0 46 19 88 57 127c-33 39 -50 79 -50 119c0 31 8 61 25 88
s39 48 67 62c28 15 75 22 141 22h247v-85h-247c-40 0 -69 -4 -86 -12c-30 -14 -45 -39 -45 -75c0 -33 15 -56 44 -68c19 -8 48 -12 87 -12z" />
    <glyph glyph-name="currency" unicode="&#xa4;" horiz-adv-x="605" 
d="M303 509c-49 0 -87 -16 -113 -49c-24 -29 -36 -69 -36 -120c0 -49 12 -89 35 -119c26 -33 63 -50 111 -50c50 0 88 16 115 48c24 30 36 71 36 122c0 50 -12 90 -36 119c-26 33 -63 49 -112 49zM152 131l-70 -71l-60 60l72 72c-27 45 -40 95 -40 148s13 103 40 150l-72 72
l60 60l71 -72c41 26 91 39 150 39s108 -13 149 -39l72 72l59 -60l-72 -72c27 -45 40 -95 40 -150c0 -53 -13 -103 -39 -148l71 -72l-59 -60l-71 71c-39 -27 -89 -40 -150 -40s-112 13 -151 40z" />
    <glyph glyph-name="quotesingle" unicode="'" horiz-adv-x="168" 
d="M118 667v-268h-68v268h68z" />
    <glyph glyph-name="quotedblleft" unicode="&#x201c;" horiz-adv-x="382" 
d="M322 434h-100v96l66 137h52l-52 -125h34v-108zM154 434h-100v96l66 137h52l-52 -125h34v-108z" />
    <glyph glyph-name="guillemotleft" unicode="&#xab;" horiz-adv-x="529" 
d="M280 284l111 130v-109l-49 -63l49 -60v-108l-111 126v84zM120 284l111 130v-109l-49 -63l49 -60v-108l-111 126v84z" />
    <glyph glyph-name="guilsinglleft" unicode="&#x2039;" horiz-adv-x="369" 
d="M120 284l111 130v-109l-49 -63l49 -60v-108l-111 126v84z" />
    <glyph glyph-name="guilsinglright" unicode="&#x203a;" horiz-adv-x="369" 
d="M138 305v109l111 -130v-84l-111 -126v108l49 60z" />
    <glyph glyph-name="fi" unicode="&#xf001;" horiz-adv-x="542" 
d="M473 566h-97v101h97v-101zM202 487h271v-487h-97v410h-174v-410h-97v410h-86v77h86v22c0 112 46 158 158 158h67v-77h-54c-60 0 -74 -16 -74 -76v-27z" />
    <glyph glyph-name="fl" unicode="&#xf002;" horiz-adv-x="542" 
d="M473 667v-667h-97v667h97zM202 514v-27h113v-77h-113v-410h-97v410h-86v77h86v22c0 112 46 158 158 158h67v-77h-54c-60 0 -74 -16 -74 -76z" />
    <glyph glyph-name="endash" unicode="&#x2013;" horiz-adv-x="713" 
d="M92 305h530v-72h-530v72z" />
    <glyph glyph-name="dagger" unicode="&#x2020;" horiz-adv-x="541" 
d="M320 372v-527h-100v527h-187v85h187v210h100v-210h188v-85h-188z" />
    <glyph glyph-name="daggerdbl" unicode="&#x2021;" horiz-adv-x="541" 
d="M320 372v-124h188v-85h-188v-318h-100v318h-187v85h187v124h-187v85h187v210h100v-210h188v-85h-188z" />
    <glyph glyph-name="paragraph" unicode="&#xb6;" horiz-adv-x="559" 
d="M319 -155h-85v397c-140 7 -210 79 -210 215c0 89 32 150 97 185c31 17 78 25 141 25h290v-85h-70v-737h-88v737h-98c-56 0 -93 -6 -112 -18c-31 -21 -47 -55 -47 -104c0 -89 57 -133 170 -133h12v-482z" />
    <glyph glyph-name="bullet" unicode="&#x2022;" horiz-adv-x="667" 
d="M337 478c37 0 69 -14 96 -41s40 -60 40 -97c0 -39 -13 -72 -40 -99s-59 -40 -98 -40c-38 0 -71 13 -98 40s-41 60 -41 98c0 39 14 72 41 99s61 40 100 40z" />
    <glyph glyph-name="quotesinglbase" unicode="&#x201a;" horiz-adv-x="214" 
d="M61 108h100v-96l-66 -137h-52l52 125h-34v108z" />
    <glyph glyph-name="quotedblbase" unicode="&#x201e;" horiz-adv-x="382" 
d="M228 108h100v-96l-66 -137h-52l52 125h-34v108zM61 108h100v-96l-66 -137h-52l52 125h-34v108z" />
    <glyph glyph-name="quotedblright" unicode="&#x201d;" horiz-adv-x="382" 
d="M228 667h100v-96l-66 -138h-52l52 126h-34v108zM61 667h100v-96l-66 -138h-52l52 126h-34v108z" />
    <glyph glyph-name="guillemotright" unicode="&#xbb;" horiz-adv-x="529" 
d="M298 305v109l111 -130v-84l-111 -126v108l49 60zM138 305v109l111 -130v-84l-111 -126v108l49 60z" />
    <glyph glyph-name="ellipsis" unicode="&#x2026;" horiz-adv-x="623" 
d="M469 108h100v-108h-100v108zM262 108h100v-108h-100v108zM54 108h100v-108h-100v108z" />
    <glyph glyph-name="perthousand" unicode="&#x2030;" horiz-adv-x="1288" 
d="M1071 290c-67 0 -100 -38 -100 -113c0 -83 34 -124 103 -124c66 0 99 39 99 118c0 41 -7 70 -20 88c-16 21 -43 31 -82 31zM1080 348c112 0 168 -58 168 -173c0 -120 -57 -180 -172 -180c-124 0 -180 52 -180 175c0 119 61 178 184 178zM666 290
c-67 0 -100 -38 -100 -113c0 -83 34 -124 103 -124c66 0 99 39 99 118c0 41 -7 70 -20 88c-16 21 -43 31 -82 31zM675 348c112 0 168 -58 168 -173c0 -120 -57 -180 -172 -180c-124 0 -180 52 -180 175c0 119 61 178 184 178zM272 -13l272 693h69l-273 -693h-68zM216 614
c-67 0 -100 -38 -100 -113c0 -83 34 -124 103 -124c66 0 99 39 99 118c0 41 -7 70 -20 88c-16 21 -43 31 -82 31zM225 672c112 0 168 -58 168 -173c0 -120 -57 -180 -172 -180c-124 0 -180 52 -180 175c0 119 61 178 184 178z" />
    <glyph glyph-name="questiondown" unicode="&#xbf;" horiz-adv-x="564" 
d="M501 559h-100v108h100v-108zM501 85v-85h-276c-134 0 -201 56 -201 169c0 69 25 120 75 152c30 19 80 29 151 29h47c46 0 75 5 86 16c12 11 18 39 18 84v62h100v-70c0 -39 -1 -66 -4 -81c-8 -43 -31 -71 -69 -84c-23 -8 -62 -12 -118 -12h-60c-75 0 -113 -31 -113 -93
c0 -36 12 -61 35 -74c15 -9 44 -13 87 -13h242z" />
    <glyph glyph-name="grave" unicode="`" 
d="M203 673l93 -126h-74l-119 126h100z" />
    <glyph glyph-name="acute" unicode="&#xb4;" 
d="M277 547h-74l93 126h100z" />
    <glyph glyph-name="circumflex" unicode="&#x2c6;" 
d="M318 547l-68 81l-68 -81h-85l108 126h90l109 -126h-86z" />
    <glyph glyph-name="tilde" unicode="&#x2dc;" 
d="M353 658h56c-9 -71 -38 -106 -85 -106c-19 0 -48 9 -86 26c-22 10 -39 15 -52 15c-21 0 -34 -13 -38 -39h-56c9 71 39 106 89 106c17 0 42 -7 73 -21c31 -13 52 -20 63 -20c18 0 30 13 36 39z" />
    <glyph glyph-name="breve" unicode="&#x2d8;" 
d="M110 673h62c9 -41 35 -62 77 -62c43 0 69 21 79 62h62c-7 -85 -53 -127 -139 -127c-87 0 -134 42 -141 127z" />
    <glyph glyph-name="dotaccent" unicode="&#x2d9;" 
d="M203 657h94v-104h-94v104z" />
    <glyph glyph-name="dieresis" unicode="&#xa8;" 
d="M111 657h94v-104h-94v104zM294 657h94v-104h-94v104z" />
    <glyph glyph-name="ring" unicode="&#x2da;" 
d="M251 672c-25 0 -45 -19 -45 -44s20 -44 45 -44c24 0 44 20 44 44s-20 44 -44 44zM252 722c51 0 93 -43 93 -94c0 -52 -42 -94 -94 -94c-53 0 -95 42 -95 95s43 93 96 93z" />
    <glyph glyph-name="cedilla" unicode="&#xb8;" 
d="M206 -83v83h47v-40h9c47 0 70 -22 70 -67c0 -49 -33 -74 -100 -74h-51v43h48c30 0 45 10 45 29c0 17 -15 26 -45 26h-23z" />
    <glyph glyph-name="hungarumlaut" unicode="&#x2dd;" 
d="M350 673h87l-107 -126h-63zM210 673h87l-107 -126h-63z" />
    <glyph glyph-name="ogonek" unicode="&#x2db;" 
d="M415 0h58c-33 -18 -50 -42 -50 -71c0 -27 13 -40 40 -40c13 0 27 4 44 11v-47c-18 -9 -38 -13 -61 -13c-57 0 -86 25 -86 76c0 37 18 65 55 84z" />
    <glyph glyph-name="caron" unicode="&#x2c7;" 
d="M182 673l68 -80l68 80h86l-109 -126h-90l-108 126h85z" />
    <glyph glyph-name="emdash" unicode="&#x2014;" horiz-adv-x="919" 
d="M92 305h735v-72h-735v72z" />
    <glyph glyph-name="ordfeminine" unicode="&#xaa;" horiz-adv-x="371" 
d="M256 319v78h-98c-19 0 -33 -2 -40 -5c-11 -5 -17 -16 -17 -33c0 -27 19 -40 57 -40h98zM151 449h105c0 27 -5 44 -14 51c-7 5 -24 8 -51 8h-147v52h160c45 0 76 -7 92 -20c19 -15 28 -44 28 -88v-185h-158c-41 0 -72 5 -92 14c-28 14 -42 39 -42 76c0 39 14 65 42 80
c15 8 41 12 77 12z" />
    <glyph glyph-name="Lslash" unicode="&#x141;" 
d="M70 667h107v-258l138 70v-86l-138 -70v-44c0 -76 10 -126 31 -149c26 -30 74 -45 144 -45h143v-85h-164c-95 0 -163 21 -202 62c-40 42 -59 110 -59 204v16l-67 -33v86l67 33v299z" />
    <glyph glyph-name="OE" unicode="&#x152;" horiz-adv-x="0" 
d="M-347 905v56h37c64 0 96 -25 96 -76c0 -32 -9 -54 -27 -66c0 0 -11 -6 -34 -17c-17 -8 -26 -14 -27 -19v-26h-57v26c0 29 0 34 20 46c8 8 18 12 30 13c25 7 37 17 37 29c0 16 -5 26 -16 30c-7 3 -27 4 -59 4z" />
    <glyph glyph-name="ordmasculine" unicode="&#xba;" horiz-adv-x="377" 
d="M189 510c-60 0 -90 -32 -90 -97c0 -63 29 -95 88 -95c61 0 92 31 92 93c0 66 -30 99 -90 99zM193 564c97 0 156 -54 156 -151s-61 -149 -160 -149c-107 0 -160 48 -160 145c0 103 55 155 164 155z" />
    <glyph glyph-name="dotlessi" unicode="&#x131;" horiz-adv-x="235" 
d="M69 0v487h97v-487h-97z" />
    <glyph glyph-name="lslash" unicode="&#x142;" horiz-adv-x="235" 
d="M70 667h97v-262l64 35v-79l-64 -35v-326h-97v290l-65 -36v79l65 36v298z" />
    <glyph glyph-name="oe" unicode="&#x153;" horiz-adv-x="0" 
d="M-256 695v56h37c64 0 96 -25 96 -76c0 -32 -9 -54 -27 -66c0 0 -11 -6 -34 -17c-17 -8 -26 -14 -27 -19v-26h-57v26c0 29 0 34 20 46c8 8 18 12 30 13c25 7 37 17 37 29c0 16 -5 26 -16 30c-7 3 -27 4 -59 4z" />
    <glyph glyph-name="germandbls" unicode="&#xdf;" horiz-adv-x="560" 
d="M166 503v-23h101c27 0 47 3 60 8c19 8 29 24 29 48c0 35 -31 53 -94 53c-69 0 -96 -18 -96 -86zM287 403h-121v-403h-97v464c0 87 14 142 41 164c34 27 85 41 154 41c122 0 183 -41 183 -122c0 -32 -14 -60 -42 -83c79 -20 118 -88 118 -204c0 -101 -27 -174 -80 -219
c-29 -25 -71 -38 -125 -40c-17 -1 -45 -1 -82 -1h-37v78h95c28 0 49 3 63 8c20 7 35 22 45 43c14 29 21 67 21 116c0 75 -16 123 -47 143c-16 10 -46 15 -89 15z" />
    <glyph glyph-name="onesuperior" unicode="&#xb9;" horiz-adv-x="469" 
d="M272 667v-400h-74v400h74z" />
    <glyph glyph-name="logicalnot" unicode="&#xac;" 
d="M466 0h-107v167h-326v100h433v-267z" />
    <glyph glyph-name="mu" unicode="&#xb5;" horiz-adv-x="559" 
d="M69 -155v642h97v-284c0 -43 5 -72 14 -88c15 -25 50 -38 105 -38h107v410h97v-487h-212c-55 0 -92 4 -111 12v-167h-97z" />
    <glyph glyph-name="trademark" unicode="&#x2122;" horiz-adv-x="871" 
d="M383 667h100l129 -294l119 294h100v-374h-69v298l-119 -298h-68l-123 299v-299h-69v374zM137 293v321h-138v53h347v-53h-138v-321h-71z" />
    <glyph glyph-name="Eth" unicode="&#xd0;" horiz-adv-x="695" 
d="M345 297h-166v-212h169c75 0 128 22 160 67c27 38 41 96 41 173c0 85 -13 147 -40 186c-32 47 -88 71 -168 71h-162v-205h166v-80zM72 0v297h-67v80h67v290h256c61 0 106 -3 135 -10c45 -11 84 -32 115 -65c56 -59 84 -144 84 -253c0 -204 -74 -316 -223 -335
c-21 -3 -55 -4 -102 -4h-265z" />
    <glyph glyph-name="onehalf" unicode="&#xbd;" horiz-adv-x="1060" 
d="M754 115v-58h279v-57h-353v109c0 26 1 44 4 54c13 49 61 73 144 73h28c36 0 60 3 72 10c18 10 27 26 27 47s-8 36 -25 43c-11 5 -33 7 -66 7h-181v57h188c35 0 57 -1 67 -2c57 -8 95 -50 95 -107c0 -45 -21 -78 -63 -97c-21 -10 -54 -15 -99 -15h-37
c-29 0 -48 -4 -59 -11c-14 -9 -21 -26 -21 -53zM284 -13l425 693h71l-425 -693h-71zM358 667v-400h-74v400h74z" />
    <glyph glyph-name="plusminus" unicode="&#xb1;" horiz-adv-x="550" 
d="M33 49v84h483v-84h-483zM33 351v84h198v187h87v-187h198v-84h-198v-183h-87v183h-198z" />
    <glyph glyph-name="Thorn" unicode="&#xde;" horiz-adv-x="628" 
d="M179 478v-255h175c96 0 137 37 137 132c0 43 -12 76 -36 98c-18 17 -53 25 -105 25h-171zM179 0h-107v667h107v-104h188c167 0 238 -75 238 -210c0 -79 -25 -137 -74 -176c-33 -26 -95 -39 -184 -39h-168v-138z" />
    <glyph glyph-name="onequarter" unicode="&#xbc;" horiz-adv-x="1060" 
d="M899 350l-198 -201h198v201zM899 92h-279v58l245 250h108v-251h62v-57h-62v-92h-74v92zM285 -13l425 693h71l-425 -693h-71zM312 667v-400h-74v400h74z" />
    <glyph glyph-name="divide" unicode="&#xf7;" horiz-adv-x="550" 
d="M33 299v84h483v-84h-483zM275 223c32 0 59 -27 59 -59c0 -33 -27 -60 -60 -60c-32 0 -59 27 -59 59c0 33 27 60 60 60zM275 578c33 0 59 -27 59 -60s-27 -59 -60 -59c-32 0 -59 27 -59 59c0 33 27 60 60 60z" />
    <glyph glyph-name="brokenbar" unicode="&#xa6;" 
d="M197 -167v320h107v-320h-107zM197 326v341h107v-341h-107z" />
    <glyph glyph-name="degree" unicode="&#xb0;" horiz-adv-x="379" 
d="M190 603c-43 0 -79 -33 -79 -76c0 -44 35 -78 79 -78c43 0 78 34 78 77s-35 77 -78 77zM190 672c41 0 76 -14 105 -42s43 -63 43 -104s-15 -75 -44 -104c-29 -28 -63 -42 -104 -42s-77 14 -106 43s-43 64 -43 105c0 40 15 74 44 102s64 42 105 42z" />
    <glyph glyph-name="thorn" unicode="&#xfe;" horiz-adv-x="545" 
d="M259 410h-93v-333h93c59 0 100 14 122 43c19 25 29 68 29 130c0 112 -40 160 -151 160zM166 667v-180h104c45 0 78 -3 99 -8c32 -8 60 -25 83 -51c39 -43 58 -104 58 -184c0 -89 -24 -156 -73 -201c-22 -20 -50 -33 -84 -39c-16 -3 -47 -4 -94 -4h-93v-155h-97v822h97z
" />
    <glyph glyph-name="threequarters" unicode="&#xbe;" horiz-adv-x="1060" 
d="M855 350l-197 -201h197v201zM855 92h-278v58l244 250h108v-251h62v-57h-62v-92h-74v92zM284 -13l425 693h71l-425 -693h-71zM222 266h-169v57h174c59 0 89 19 89 57c0 42 -33 63 -98 63h-124v57h133c35 0 58 4 69 12c15 11 23 26 23 45c0 23 -10 38 -29 46
c-12 5 -31 7 -58 7h-179v57h185c53 0 90 -6 110 -18c31 -19 47 -48 47 -88c0 -41 -23 -71 -68 -90c45 -13 68 -44 68 -93c0 -43 -19 -75 -58 -95c-22 -11 -60 -17 -115 -17z" />
    <glyph glyph-name="twosuperior" unicode="&#xb2;" horiz-adv-x="469" 
d="M137 382v-59h279v-57h-353v109c0 49 13 83 38 103c22 17 59 25 110 25h28c36 0 60 3 72 10c18 10 27 26 27 47s-8 36 -25 43c-11 5 -33 7 -66 7h-180v57h187c35 0 57 -1 67 -2c57 -8 95 -50 95 -107c0 -45 -21 -78 -63 -97c-21 -10 -54 -15 -99 -15h-37
c-29 0 -48 -4 -59 -11c-14 -9 -21 -26 -21 -53z" />
    <glyph glyph-name="registered" unicode="&#xae;" horiz-adv-x="760" 
d="M295 455v-101h107c27 0 46 2 57 7c18 7 27 22 27 44c0 21 -8 35 -23 44c-10 4 -30 6 -61 6h-107zM353 298h-58v-149h-74v362h186c55 0 92 -7 113 -21c29 -20 44 -47 44 -82c0 -32 -12 -57 -35 -75c-4 -3 -16 -9 -35 -18c23 -10 39 -24 48 -43c7 -14 11 -35 13 -63
c2 -30 7 -50 15 -60h-78l-7 18l-4 38c-4 38 -17 64 -39 77c-18 11 -48 16 -89 16zM384 616c-81 0 -149 -27 -204 -81s-83 -121 -83 -202c0 -79 28 -145 83 -200s122 -82 201 -82s145 27 200 82s83 122 83 201c0 77 -27 144 -82 199s-121 83 -198 83zM384 677
c95 0 175 -34 242 -101s101 -148 101 -243c0 -96 -34 -177 -102 -244c-67 -66 -149 -99 -245 -99s-178 33 -246 100c-67 67 -101 148 -101 243c0 97 34 179 102 245s151 99 249 99z" />
    <glyph glyph-name="minus" unicode="&#x2212;" horiz-adv-x="550" 
d="M33 299v84h483v-84h-483z" />
    <glyph glyph-name="eth" unicode="&#xf0;" horiz-adv-x="567" 
d="M283 412c-50 0 -88 -16 -113 -49c-23 -30 -35 -71 -35 -122c0 -111 49 -166 146 -166c101 0 151 55 151 164c0 52 -12 93 -35 123c-25 33 -63 50 -114 50zM332 701l33 -50l-61 -40c152 -83 228 -204 228 -364s-88 -252 -248 -252c-156 0 -249 83 -249 238
c0 79 20 142 60 187c43 48 103 72 180 72c20 0 43 -3 69 -9c-30 30 -68 56 -114 79l-91 -58l-33 51l60 38l-74 25l23 57c39 -6 80 -18 124 -35z" />
    <glyph glyph-name="multiply" unicode="&#xd7;" horiz-adv-x="549" 
d="M115 122l-60 59l160 160l-160 160l60 59l159 -159l160 159l60 -59l-160 -160l160 -160l-60 -59l-160 159z" />
    <glyph glyph-name="threesuperior" unicode="&#xb3;" horiz-adv-x="469" 
d="M232 266h-169v57h174c59 0 89 19 89 57c0 42 -33 63 -98 63h-124v57h133c35 0 58 4 69 12c15 11 23 26 23 45c0 23 -10 38 -29 46c-12 5 -31 7 -58 7h-179v57h185c53 0 90 -6 110 -18c31 -19 47 -48 47 -88c0 -41 -23 -71 -68 -90c45 -13 68 -44 68 -93
c0 -43 -19 -75 -58 -95c-22 -11 -60 -17 -115 -17z" />
    <glyph glyph-name="copyright" unicode="&#xa9;" horiz-adv-x="760" 
d="M406 205h123v-56h-128c-134 0 -201 59 -201 178c0 74 25 127 74 159c26 17 67 25 123 25h132v-56h-128c-47 0 -78 -9 -93 -26c-20 -22 -30 -56 -30 -103c0 -46 13 -80 40 -101c17 -13 46 -20 88 -20zM384 616c-81 0 -149 -27 -204 -81s-83 -121 -83 -202
c0 -79 27 -145 82 -200s122 -82 201 -82s146 27 201 82s82 122 82 201c0 77 -27 144 -82 199c-54 55 -120 83 -197 83zM384 677c95 0 175 -34 242 -101s101 -148 101 -243c0 -96 -34 -177 -102 -244c-67 -66 -149 -99 -245 -99s-178 33 -246 100c-67 67 -101 148 -101 243
c0 97 34 179 102 245s151 99 249 99z" />
    <glyph glyph-name="Aacute" unicode="&#xc1;" horiz-adv-x="689" 
d="M383 743h-74l93 120h107zM470 259l-122 328l-128 -328h250zM117 0h-113l276 667h140l265 -667h-113l-68 174h-316z" />
    <glyph glyph-name="Acircumflex" unicode="&#xc2;" horiz-adv-x="689" 
d="M417 723l-70 72l-70 -72h-87l112 120h90l111 -120h-86zM470 259l-122 328l-128 -328h250zM117 0h-113l276 667h140l265 -667h-113l-68 174h-316z" />
    <glyph glyph-name="Agrave" unicode="&#xc0;" horiz-adv-x="689" 
d="M4 0h113l71 174h316l68 -174h113l-265 667h-140zM348 587l122 -328h-250zM374 743h-74l-126 120h107z" />
    <glyph glyph-name="Atilde" unicode="&#xc3;" horiz-adv-x="689" 
d="M452 868h50c-8 -71 -33 -106 -76 -106c-18 0 -44 9 -78 26c-20 10 -36 15 -47 15c-19 0 -30 -13 -34 -39h-50c8 71 35 106 80 106c16 0 38 -8 65 -21c28 -14 47 -20 57 -20c16 0 27 13 33 39zM470 259l-122 328l-128 -328h250zM117 0h-113l276 667h140l265 -667h-113
l-68 174h-316z" />
    <glyph glyph-name="Eacute" unicode="&#xc9;" horiz-adv-x="681" 
d="M403 743h-74l93 120h107zM366 667h188v-85h-194c-43 0 -77 -5 -100 -14c-61 -23 -99 -83 -104 -190h398v-85h-399c1 -40 8 -76 22 -109c17 -40 41 -67 72 -81c25 -12 60 -18 105 -18h200v-85h-219c-54 0 -97 6 -130 17c-41 14 -76 39 -103 76c-43 57 -64 132 -64 227
c0 136 39 234 117 295c45 35 115 52 211 52z" />
    <glyph glyph-name="Ecircumflex" unicode="&#xca;" horiz-adv-x="681" 
d="M439 723l-70 72l-70 -72h-87l112 120h90l111 -120h-86zM366 667h188v-85h-194c-43 0 -77 -5 -100 -14c-61 -23 -99 -83 -104 -190h398v-85h-399c1 -40 8 -76 22 -109c17 -40 41 -67 72 -81c25 -12 60 -18 105 -18h200v-85h-219c-54 0 -97 6 -130 17
c-41 14 -76 39 -103 76c-43 57 -64 132 -64 227c0 136 39 234 117 295c45 35 115 52 211 52z" />
    <glyph glyph-name="Egrave" unicode="&#xc8;" horiz-adv-x="681" 
d="M554 667h-188c-96 0 -166 -17 -211 -52c-78 -61 -117 -159 -117 -295c0 -95 21 -170 64 -227c27 -37 62 -62 103 -76c33 -11 76 -17 130 -17h219v85h-200c-45 0 -80 6 -105 18c-31 14 -55 41 -72 81c-14 33 -21 69 -22 109h399v85h-398c5 107 43 167 104 190
c23 9 57 14 100 14h194v85zM402 743h-74l-126 120h107z" />
    <glyph glyph-name="Iacute" unicode="&#xcd;" horiz-adv-x="250" 
d="M163 743h-74l93 120h107zM179 0h-107v667h107v-667z" />
    <glyph glyph-name="Igrave" unicode="&#xcc;" horiz-adv-x="250" 
d="M72 0h107v667h-107v-667zM166 743h-74l-126 120h107z" />
    <glyph glyph-name="Oacute" unicode="&#xd3;" horiz-adv-x="690" 
d="M391 743h-74l93 120h107zM352 592c-79 0 -136 -24 -170 -72c-29 -41 -44 -103 -44 -186c0 -84 14 -146 42 -187c34 -48 91 -72 170 -72c95 0 157 34 186 103c15 35 22 85 22 151c0 87 -13 150 -39 188c-34 50 -90 75 -167 75zM353 677c111 0 193 -30 245 -90
c49 -56 73 -141 73 -255c0 -228 -109 -342 -328 -342c-212 0 -318 114 -318 342c0 110 27 194 81 253c56 61 138 92 247 92z" />
    <glyph glyph-name="Ocircumflex" unicode="&#xd4;" horiz-adv-x="690" 
d="M423 723l-70 72l-70 -72h-87l112 120h90l111 -120h-86zM352 592c-79 0 -136 -24 -170 -72c-29 -41 -44 -103 -44 -186c0 -84 14 -146 42 -187c34 -48 91 -72 170 -72c95 0 157 34 186 103c15 35 22 85 22 151c0 87 -13 150 -39 188c-34 50 -90 75 -167 75zM353 677
c111 0 193 -30 245 -90c49 -56 73 -141 73 -255c0 -228 -109 -342 -328 -342c-212 0 -318 114 -318 342c0 110 27 194 81 253c56 61 138 92 247 92z" />
    <glyph glyph-name="Ograve" unicode="&#xd2;" horiz-adv-x="690" 
d="M353 677c-109 0 -191 -31 -247 -92c-54 -59 -81 -143 -81 -253c0 -228 106 -342 318 -342c219 0 328 114 328 342c0 114 -24 199 -73 255c-52 60 -134 90 -245 90zM352 592c77 0 133 -25 167 -75c26 -38 39 -101 39 -188c0 -66 -7 -116 -22 -151
c-29 -69 -91 -103 -186 -103c-79 0 -136 24 -170 72c-28 41 -42 103 -42 187c0 83 15 145 44 186c34 48 91 72 170 72zM387 743h-74l-126 120h107z" />
    <glyph glyph-name="Otilde" unicode="&#xd5;" horiz-adv-x="690" 
d="M458 868h50c-8 -71 -33 -106 -76 -106c-18 0 -44 9 -78 26c-20 10 -36 15 -47 15c-19 0 -30 -13 -34 -39h-50c8 71 35 106 80 106c16 0 38 -8 65 -21c28 -14 47 -20 57 -20c16 0 27 13 33 39zM352 592c-79 0 -136 -24 -170 -72c-29 -41 -44 -103 -44 -186
c0 -84 14 -146 42 -187c34 -48 91 -72 170 -72c95 0 157 34 186 103c15 35 22 85 22 151c0 87 -13 150 -39 188c-34 50 -90 75 -167 75zM353 677c111 0 193 -30 245 -90c49 -56 73 -141 73 -255c0 -228 -109 -342 -328 -342c-212 0 -318 114 -318 342c0 110 27 194 81 253
c56 61 138 92 247 92z" />
    <glyph glyph-name="Scaron" unicode="&#x160;" horiz-adv-x="637" 
d="M269 843l70 -72l70 72h86l-111 -120h-90l-112 120h87zM335 0h-275v85h288c45 0 78 6 99 18c27 15 41 44 41 85c0 53 -20 85 -60 97c-15 5 -49 7 -100 7h-55c-79 0 -135 11 -169 34c-45 31 -68 77 -68 140c0 80 32 138 96 173c33 19 88 28 163 28h274v-85h-274
c-53 0 -89 -6 -108 -19c-25 -17 -38 -44 -38 -82c0 -39 16 -65 47 -79c21 -9 54 -14 99 -14h40c49 0 83 -1 104 -4c43 -5 75 -17 97 -35c43 -35 65 -88 65 -158c0 -81 -32 -137 -97 -168c-32 -15 -88 -23 -169 -23z" />
    <glyph glyph-name="Uacute" unicode="&#xda;" horiz-adv-x="695" 
d="M373 743h-74l93 120h107zM64 667h107v-396c0 -70 11 -118 33 -144c29 -35 77 -52 143 -52c78 0 131 22 158 67c13 22 20 68 20 137v388h107v-388c0 -55 -2 -93 -7 -116c-8 -41 -26 -74 -54 -100c-53 -49 -132 -73 -237 -73c-108 0 -184 32 -229 97
c-27 39 -41 101 -41 184v396z" />
    <glyph glyph-name="Ugrave" unicode="&#xd9;" horiz-adv-x="695" 
d="M171 667h-107v-396c0 -83 14 -145 41 -184c45 -65 121 -97 229 -97c105 0 184 24 237 73c28 26 46 59 54 100c5 23 7 61 7 116v388h-107v-388c0 -69 -7 -115 -20 -137c-27 -45 -80 -67 -158 -67c-66 0 -114 17 -143 52c-22 26 -33 74 -33 144v396zM373 743h-74l-126 120
h107z" />
    <glyph glyph-name="Yacute" unicode="&#xdd;" horiz-adv-x="646" 
d="M334 723h-74l93 120h107zM270 0v268l-267 399h124l199 -315l195 315h123l-267 -399v-268h-107z" />
    <glyph glyph-name="Zcaron" unicode="&#x17d;" horiz-adv-x="635" 
d="M247 843l70 -72l70 72h86l-111 -120h-90l-112 120h87zM39 106l444 476h-444v85h556v-106l-439 -476h439v-85h-556v106z" />
    <glyph glyph-name="aacute" unicode="&#xe1;" horiz-adv-x="533" 
d="M308 547h-73l73 126h93zM397 77v143h-162c-31 0 -54 -4 -68 -13c-18 -11 -27 -30 -27 -59s9 -48 27 -59c14 -8 37 -12 68 -12h162zM224 297h173v12c0 43 -7 71 -21 83s-44 18 -89 18h-229v77h250c42 0 73 -3 93 -8c39 -11 66 -32 79 -65c9 -22 14 -57 14 -106v-308h-247
c-40 0 -67 1 -82 3c-83 11 -125 59 -125 143c0 63 21 106 64 131c23 13 63 20 120 20z" />
    <glyph glyph-name="acircumflex" unicode="&#xe2;" horiz-adv-x="533" 
d="M348 543l-61 73l-61 -73h-77l98 114h81l98 -114h-78zM397 77v143h-162c-31 0 -54 -4 -68 -13c-18 -11 -27 -30 -27 -59s9 -48 27 -59c14 -8 37 -12 68 -12h162zM224 297h173v12c0 43 -7 71 -21 83s-44 18 -89 18h-229v77h250c42 0 73 -3 93 -8c39 -11 66 -32 79 -65
c9 -22 14 -57 14 -106v-308h-247c-40 0 -67 1 -82 3c-83 11 -125 59 -125 143c0 63 21 106 64 131c23 13 63 20 120 20z" />
    <glyph glyph-name="agrave" unicode="&#xe0;" horiz-adv-x="533" 
d="M397 297h-173c-57 0 -97 -7 -120 -20c-43 -25 -64 -68 -64 -131c0 -84 42 -132 125 -143c15 -2 42 -3 82 -3h247v308c0 49 -5 84 -14 106c-13 33 -40 54 -79 65c-20 5 -51 8 -93 8h-250v-77h229c45 0 75 -6 89 -18s21 -40 21 -83v-12zM397 220v-143h-162
c-31 0 -54 4 -68 12c-18 11 -27 30 -27 59s9 48 27 59c14 9 37 13 68 13h162zM310 547h-73l-93 126h93z" />
    <glyph glyph-name="atilde" unicode="&#xe3;" horiz-adv-x="533" 
d="M390 668h50c-8 -71 -33 -106 -76 -106c-18 0 -44 9 -78 26c-20 10 -36 15 -47 15c-19 0 -30 -13 -34 -39h-50c8 71 35 106 80 106c16 0 38 -8 65 -21c28 -14 47 -20 57 -20c16 0 27 13 33 39zM397 77v143h-162c-31 0 -54 -4 -68 -13c-18 -11 -27 -30 -27 -59
s9 -48 27 -59c14 -8 37 -12 68 -12h162zM224 297h173v12c0 43 -7 71 -21 83s-44 18 -89 18h-229v77h250c42 0 73 -3 93 -8c39 -11 66 -32 79 -65c9 -22 14 -57 14 -106v-308h-247c-40 0 -67 1 -82 3c-83 11 -125 59 -125 143c0 63 21 106 64 131c23 13 63 20 120 20z" />
    <glyph glyph-name="eacute" unicode="&#xe9;" horiz-adv-x="522" 
d="M324 547h-73l73 126h93zM139 289h292v-77h-292c0 -51 13 -86 39 -107c23 -19 61 -28 113 -28h140v-77h-166c-75 0 -129 15 -162 46c-45 42 -67 105 -67 188c0 105 37 179 111 222c36 21 84 31 144 31h140v-77h-126c-51 0 -88 -8 -112 -23c-27 -18 -45 -51 -54 -98z" />
    <glyph glyph-name="ecircumflex" unicode="&#xea;" horiz-adv-x="522" 
d="M351 543l-61 73l-61 -73h-77l98 114h81l98 -114h-78zM139 289h292v-77h-292c0 -51 13 -86 39 -107c23 -19 61 -28 113 -28h140v-77h-166c-75 0 -129 15 -162 46c-45 42 -67 105 -67 188c0 105 37 179 111 222c36 21 84 31 144 31h140v-77h-126c-51 0 -88 -8 -112 -23
c-27 -18 -45 -51 -54 -98z" />
    <glyph glyph-name="egrave" unicode="&#xe8;" horiz-adv-x="522" 
d="M431 289h-292c9 47 27 80 54 98c24 15 61 23 112 23h126v77h-140c-60 0 -108 -10 -144 -31c-74 -43 -111 -117 -111 -222c0 -83 22 -146 67 -188c33 -31 87 -46 162 -46h166v77h-140c-52 0 -90 9 -113 28c-26 21 -39 56 -39 107h292v77zM316 547h-73l-93 126h93z" />
    <glyph glyph-name="iacute" unicode="&#xed;" horiz-adv-x="235" 
d="M159 547h-73l73 126h93zM69 0v487h97v-487h-97z" />
    <glyph glyph-name="igrave" unicode="&#xec;" horiz-adv-x="235" 
d="M69 487v-487h97v487h-97zM149 547h-73l-93 126h93z" />
    <glyph glyph-name="oacute" unicode="&#xf3;" horiz-adv-x="513" 
d="M300 547h-73l73 126h93zM260 412c-50 0 -88 -16 -113 -49c-23 -30 -35 -71 -35 -122c0 -111 49 -166 146 -166c101 0 151 55 151 164c0 52 -12 93 -35 123c-25 33 -63 50 -114 50zM266 492c159 0 243 -91 243 -251c0 -156 -92 -246 -248 -246c-159 0 -249 83 -249 240
c0 163 91 257 254 257z" />
    <glyph glyph-name="ocircumflex" unicode="&#xf4;" horiz-adv-x="513" 
d="M328 543l-61 73l-61 -73h-77l98 114h81l98 -114h-78zM260 412c-50 0 -88 -16 -113 -49c-23 -30 -35 -71 -35 -122c0 -111 49 -166 146 -166c101 0 151 55 151 164c0 52 -12 93 -35 123c-25 33 -63 50 -114 50zM266 492c159 0 243 -91 243 -251c0 -156 -92 -246 -248 -246
c-159 0 -249 83 -249 240c0 163 91 257 254 257z" />
    <glyph glyph-name="ograve" unicode="&#xf2;" horiz-adv-x="513" 
d="M266 492c-163 0 -254 -94 -254 -257c0 -157 90 -240 249 -240c156 0 248 90 248 246c0 160 -84 251 -243 251zM260 412c51 0 89 -17 114 -50c23 -30 35 -71 35 -123c0 -109 -50 -164 -151 -164c-97 0 -146 55 -146 166c0 51 12 92 35 122c25 33 63 49 113 49zM295 547
h-73l-93 126h93z" />
    <glyph glyph-name="otilde" unicode="&#xf5;" horiz-adv-x="513" 
d="M371 668h50c-8 -71 -33 -106 -76 -106c-18 0 -44 9 -78 26c-20 10 -36 15 -47 15c-19 0 -30 -13 -34 -39h-50c8 71 35 106 80 106c16 0 38 -8 65 -21c28 -14 47 -20 57 -20c16 0 27 13 33 39zM260 412c-50 0 -88 -16 -113 -49c-23 -30 -35 -71 -35 -122
c0 -111 49 -166 146 -166c101 0 151 55 151 164c0 52 -12 93 -35 123c-25 33 -63 50 -114 50zM266 492c159 0 243 -91 243 -251c0 -156 -92 -246 -248 -246c-159 0 -249 83 -249 240c0 163 91 257 254 257z" />
    <glyph glyph-name="scaron" unicode="&#x161;" horiz-adv-x="527" 
d="M205 673l68 -80l68 80h86l-109 -126h-90l-108 126h85zM220 487h245v-77h-219c-51 0 -81 -5 -91 -16s-15 -28 -15 -52c0 -28 10 -46 29 -53c11 -4 33 -6 67 -6h66c53 0 87 -1 102 -3c13 -1 25 -6 36 -14c31 -21 46 -61 46 -120c0 -69 -22 -113 -66 -133
c-19 -9 -58 -13 -118 -13h-257v77h234c45 0 73 2 84 7c15 7 23 25 23 54c0 32 -10 50 -31 55c-9 2 -32 3 -70 3h-39c-49 0 -76 0 -82 1c-33 3 -58 13 -75 28c-33 28 -49 67 -49 118c0 61 22 103 67 126c23 12 61 18 113 18z" />
    <glyph glyph-name="uacute" unicode="&#xfa;" horiz-adv-x="536" 
d="M300 547h-73l73 126h93zM278 77h107v410h97v-487h-212c-47 0 -81 3 -102 9c-34 9 -61 29 -80 60c-17 27 -26 70 -26 130v288h97v-284c0 -43 5 -72 14 -88c15 -25 50 -38 105 -38z" />
    <glyph glyph-name="ugrave" unicode="&#xf9;" horiz-adv-x="536" 
d="M385 77h-107c-55 0 -90 13 -105 38c-9 16 -14 45 -14 88v284h-97v-288c0 -60 9 -103 26 -130c19 -31 46 -51 80 -60c21 -6 55 -9 102 -9h212v487h-97v-410zM307 547h-73l-93 126h93z" />
    <glyph glyph-name="yacute" unicode="&#xfd;" horiz-adv-x="552" 
d="M288 547h-74l93 126h100zM264 77h121v410h97v-407c0 -37 -1 -70 -3 -100c-4 -59 -26 -99 -66 -118c-23 -11 -69 -17 -136 -17h-215v77h209h49c20 0 35 6 45 15c13 11 19 32 20 63h-134c-109 0 -170 38 -183 114c-4 23 -6 58 -6 106v267h97v-294c0 -43 7 -73 20 -89
c15 -18 43 -27 85 -27z" />
    <glyph glyph-name="ydieresis" unicode="&#xff;" horiz-adv-x="552" 
d="M134 657h94v-104h-94v104zM317 657h94v-104h-94v104zM264 77h121v410h97v-407c0 -37 -1 -70 -3 -100c-4 -59 -26 -99 -66 -118c-23 -11 -69 -17 -136 -17h-215v77h209h49c20 0 35 6 45 15c13 11 19 32 20 63h-134c-109 0 -170 38 -183 114c-4 23 -6 58 -6 106v267h97
v-294c0 -43 7 -73 20 -89c15 -18 43 -27 85 -27z" />
    <glyph glyph-name="zcaron" unicode="&#x17e;" horiz-adv-x="484" 
d="M170 673l68 -80l68 80h86l-109 -126h-90l-108 126h85zM32 105l322 305h-322v77h413v-106l-325 -304h325v-77h-413v105z" />
    <glyph glyph-name="nbspace" unicode="&#xa0;" horiz-adv-x="250" 
 />
    <glyph glyph-name="sfthyphen" unicode="&#xad;" horiz-adv-x="334" 
d="M0 305h334v-77h-334v77z" />
    <glyph glyph-name="overscore" unicode="&#xaf;" 
d="M97 630h307v-60h-307v60z" />
    <glyph glyph-name="middot" unicode="&#xb7;" horiz-adv-x="208" 
d="M54 325h100v-108h-100v108z" />
    <glyph glyph-name="middot" unicode="&#x25ef;" horiz-adv-x="208" 
d="M54 325h100v-108h-100v108z" />
    <glyph glyph-name="NULL" horiz-adv-x="0" 
 />
    <glyph glyph-name="CR" horiz-adv-x="250" 
 />
    <glyph glyph-name="uni1EC8" unicode="&#x1ec8;" horiz-adv-x="250" 
d="M102 870v51h33c48 0 87 -22 87 -69c0 -37 -20 -62 -59 -77c-11 -4 -18 -9 -20 -14v-24h-52v23c0 28 -1 29 18 42c7 7 16 11 27 12c23 7 34 15 34 26c0 15 -5 24 -15 27c-6 2 -24 3 -53 3zM179 0h-107v667h107v-667z" />
    <glyph glyph-name="uni1EC9" unicode="&#x1ec9;" horiz-adv-x="235" 
d="M92 680v51h33c48 0 87 -22 87 -69c0 -37 -20 -62 -59 -77c-11 -4 -18 -9 -20 -14v-24h-52v23c0 28 -1 29 18 42c7 7 16 11 27 12c23 7 34 15 34 26c0 15 -5 24 -15 27c-6 2 -24 3 -53 3zM69 0v487h97v-487h-97z" />
    <glyph glyph-name="HT" horiz-adv-x="250" 
 />
    <glyph glyph-name="CR.001" horiz-adv-x="250" 
 />
    <glyph glyph-name="Dcroat" unicode="&#x110;" horiz-adv-x="695" 
d="M345 297h-166v-212h169c75 0 128 22 160 67c27 38 41 96 41 173c0 85 -13 147 -40 186c-32 47 -88 71 -168 71h-162v-205h166v-80zM72 0v297h-67v80h67v290h256c61 0 106 -3 135 -10c45 -11 84 -32 115 -65c56 -59 84 -144 84 -253c0 -204 -74 -316 -223 -335
c-21 -3 -55 -4 -102 -4h-265z" />
    <glyph glyph-name="Uhorn" unicode="&#x1af;" horiz-adv-x="695" 
d="M642 742h78v-85l-88 -114v-264c0 -55 -2 -93 -7 -116c-8 -41 -26 -74 -54 -100c-53 -49 -132 -73 -237 -73c-108 0 -184 32 -229 97c-27 39 -41 101 -41 184v396h107v-396c0 -70 11 -118 33 -144c29 -35 77 -52 143 -52c78 0 131 22 158 67c13 22 20 68 20 137v388h107
v-60l29 39h-19v96z" />
    <glyph glyph-name="uni1EF5" unicode="&#x1ef5;" horiz-adv-x="552" 
d="M330 -271h-87v91h87v-91zM264 77h121v410h97v-407c0 -37 -1 -70 -3 -100c-4 -59 -26 -99 -66 -118c-23 -11 -69 -17 -136 -17h-215v77h209h49c20 0 35 6 45 15c13 11 19 32 20 63h-134c-109 0 -170 38 -183 114c-4 23 -6 58 -6 106v267h97v-294c0 -43 7 -73 20 -89
c15 -18 43 -27 85 -27z" />
    <glyph glyph-name="dcroat" unicode="&#x111;" horiz-adv-x="557" 
d="M271 77h120v333h-104c-55 0 -94 -14 -119 -43c-23 -26 -34 -67 -34 -122c0 -57 9 -97 26 -122c21 -31 58 -46 111 -46zM279 487h112v77h-102v66h102v77h97v-707h-217c-81 0 -138 16 -171 47c-44 41 -66 104 -66 187c0 41 6 79 19 115c15 43 36 75 64 96
c37 28 91 42 162 42z" />
    <glyph glyph-name="itilde" unicode="&#x129;" horiz-adv-x="235" 
d="M204 665h45c-7 -67 -30 -100 -69 -100c-17 0 -41 8 -70 24c-18 10 -32 15 -42 15c-17 0 -28 -12 -31 -37h-45c7 67 31 100 72 100c15 0 35 -7 60 -20s42 -19 51 -19c15 0 24 12 29 37zM69 0v487h97v-487h-97z" />
    <glyph glyph-name="uni1ECB" unicode="&#x1ecb;" horiz-adv-x="235" 
d="M162 -146h-87v91h87v-91zM166 566h-97v101h97v-101zM69 0v487h97v-487h-97z" />
    <glyph glyph-name="ohorn" unicode="&#x1a1;" horiz-adv-x="517" 
d="M443 586h70v-78l-65 -84c41 -43 61 -104 61 -183c0 -156 -92 -246 -248 -246c-159 0 -249 83 -249 240c0 163 91 257 254 257c64 0 116 -15 156 -44l37 50h-16v88zM260 412c-50 0 -88 -16 -113 -49c-23 -30 -35 -71 -35 -122c0 -111 49 -166 146 -166
c101 0 151 55 151 164c0 52 -12 93 -35 123c-25 33 -63 50 -114 50z" />
    <glyph glyph-name="uhorn" unicode="&#x1b0;" horiz-adv-x="512" 
d="M496 586h70v-78l-84 -108v-400h-212c-47 0 -81 3 -102 9c-34 9 -61 29 -80 60c-17 27 -26 70 -26 130v288h97v-284c0 -43 5 -72 14 -88c15 -25 50 -38 105 -38h107v410h97v-30l30 41h-16v88z" />
    <glyph glyph-name="uni1EF4" unicode="&#x1ef4;" horiz-adv-x="646" 
d="M366 -146h-87v91h87v-91zM270 0v268l-267 399h124l199 -315l195 315h123l-267 -399v-268h-107z" />
    <glyph glyph-name="Itilde" unicode="&#x128;" horiz-adv-x="250" 
d="M224 858h50c-8 -71 -33 -106 -76 -106c-18 0 -44 9 -78 26c-20 10 -36 15 -47 15c-19 0 -30 -13 -34 -39h-50c8 71 35 106 80 106c16 0 38 -8 65 -21c28 -14 47 -20 57 -20c16 0 27 13 33 39zM179 0h-107v667h107v-667z" />
    <glyph glyph-name="Ohorn" unicode="&#x1a0;" horiz-adv-x="714" 
d="M602 742h78v-85l-63 -82c42 -56 63 -137 63 -243c0 -228 -109 -342 -328 -342c-212 0 -318 114 -318 342c0 110 27 194 81 253c56 61 138 92 247 92c101 0 177 -24 228 -72l31 41h-19v96zM361 592c-79 0 -136 -24 -170 -72c-29 -41 -44 -103 -44 -186
c0 -84 14 -146 42 -187c34 -48 91 -72 170 -72c95 0 157 34 186 103c15 35 22 85 22 151c0 87 -13 150 -39 188c-34 50 -90 75 -167 75z" />
    <glyph glyph-name="uni1ECA" unicode="&#x1eca;" horiz-adv-x="250" 
d="M167 -146h-87v91h87v-91zM179 0h-107v667h107v-667z" />
    <glyph glyph-name="glyph231" horiz-adv-x="250" 
 />
    <glyph glyph-name="uni1EA0" unicode="&#x1ea0;" horiz-adv-x="689" 
d="M392 -146h-87v91h87v-91zM470 259l-122 328l-128 -328h250zM117 0h-113l276 667h140l265 -667h-113l-68 174h-316z" />
    <glyph glyph-name="uni1EA2" unicode="&#x1ea2;" horiz-adv-x="689" 
d="M326 870v56h37c64 0 96 -25 96 -76c0 -32 -9 -54 -27 -66c0 0 -11 -6 -34 -17c-17 -8 -26 -14 -27 -19v-26h-57v26c0 29 0 34 20 46c8 8 18 12 30 13c25 7 37 17 37 29c0 16 -5 26 -16 30c-7 3 -27 4 -59 4zM470 259l-122 328l-128 -328h250zM117 0h-113l276 667h140
l265 -667h-113l-68 174h-316z" />
    <glyph glyph-name="uni1EA4" unicode="&#x1ea4;" horiz-adv-x="689" 
d="M540 823h-74l93 120h107zM420 723l-70 72l-70 -72h-87l112 120h90l111 -120h-86zM470 259l-122 328l-128 -328h250zM117 0h-113l276 667h140l265 -667h-113l-68 174h-316z" />
    <glyph glyph-name="uni1EA6" unicode="&#x1ea6;" horiz-adv-x="689" 
d="M4 0h113l71 174h316l68 -174h113l-265 667h-140zM348 587l122 -328h-250zM348 795l70 -72h86l-111 120h-90l-112 -120h87zM554 823h-74l-126 120h107z" />
    <glyph glyph-name="uni1EA8" unicode="&#x1ea8;" horiz-adv-x="689" 
d="M472 968v56h37c64 0 96 -25 96 -76c0 -32 -9 -54 -27 -66c0 0 -11 -6 -34 -17c-17 -8 -26 -14 -27 -19v-26h-57v26c0 29 0 34 20 46c8 8 18 12 30 13c25 7 37 17 37 29c0 16 -5 26 -16 30c-7 3 -27 4 -59 4zM418 723l-70 72l-70 -72h-87l112 120h90l111 -120h-86z
M470 259l-122 328l-128 -328h250zM117 0h-113l276 667h140l265 -667h-113l-68 174h-316z" />
    <glyph glyph-name="uni1EAA" unicode="&#x1eaa;" horiz-adv-x="689" 
d="M444 968h50c-8 -71 -33 -106 -76 -106c-18 0 -44 9 -78 26c-20 10 -36 15 -47 15c-19 0 -30 -13 -34 -39h-50c8 71 35 106 80 106c16 0 38 -8 65 -21c28 -14 47 -20 57 -20c16 0 27 13 33 39zM418 723l-70 72l-70 -72h-87l112 120h90l111 -120h-86zM470 259l-122 328
l-128 -328h250zM117 0h-113l276 667h140l265 -667h-113l-68 174h-316z" />
    <glyph glyph-name="uni1EAC" unicode="&#x1eac;" horiz-adv-x="689" 
d="M390 -146h-87v91h87v-91zM417 723l-70 72l-70 -72h-87l112 120h90l111 -120h-86zM470 259l-122 328l-128 -328h250zM117 0h-113l276 667h140l265 -667h-113l-68 174h-316z" />
    <glyph glyph-name="uni1EAE" unicode="&#x1eae;" horiz-adv-x="689" 
d="M388 820h-74l93 120h107zM347 703c-90 0 -139 43 -146 129h54c11 -45 43 -67 96 -67c49 0 79 22 92 67h54c-13 -86 -63 -129 -150 -129zM470 259l-122 328l-128 -328h250zM117 0h-113l276 667h140l265 -667h-113l-68 174h-316z" />
    <glyph glyph-name="uni1EA1" unicode="&#x1ea1;" horiz-adv-x="533" 
d="M330 -146h-87v91h87v-91zM397 77v143h-162c-31 0 -54 -4 -68 -13c-18 -11 -27 -30 -27 -59s9 -48 27 -59c14 -8 37 -12 68 -12h162zM224 297h173v12c0 43 -7 71 -21 83s-44 18 -89 18h-229v77h250c42 0 73 -3 93 -8c39 -11 66 -32 79 -65c9 -22 14 -57 14 -106v-308h-247
c-40 0 -67 1 -82 3c-83 11 -125 59 -125 143c0 63 21 106 64 131c23 13 63 20 120 20z" />
    <glyph glyph-name="uni1EA3" unicode="&#x1ea3;" horiz-adv-x="533" 
d="M253 695v56h37c64 0 96 -25 96 -76c0 -32 -9 -54 -27 -66c0 0 -11 -6 -34 -17c-17 -8 -26 -14 -27 -19v-26h-57v26c0 29 0 34 20 46c8 8 18 12 30 13c25 7 37 17 37 29c0 16 -5 26 -16 30c-7 3 -27 4 -59 4zM397 77v143h-162c-31 0 -54 -4 -68 -13
c-18 -11 -27 -30 -27 -59s9 -48 27 -59c14 -8 37 -12 68 -12h162zM224 297h173v12c0 43 -7 71 -21 83s-44 18 -89 18h-229v77h250c42 0 73 -3 93 -8c39 -11 66 -32 79 -65c9 -22 14 -57 14 -106v-308h-247c-40 0 -67 1 -82 3c-83 11 -125 59 -125 143c0 63 21 106 64 131
c23 13 63 20 120 20z" />
    <glyph glyph-name="uni1EA5" unicode="&#x1ea5;" horiz-adv-x="533" 
d="M438 635h-73l73 126h93zM335 543l-61 73l-61 -73h-77l98 114h81l98 -114h-78zM397 77v143h-162c-31 0 -54 -4 -68 -13c-18 -11 -27 -30 -27 -59s9 -48 27 -59c14 -8 37 -12 68 -12h162zM224 297h173v12c0 43 -7 71 -21 83s-44 18 -89 18h-229v77h250c42 0 73 -3 93 -8
c39 -11 66 -32 79 -65c9 -22 14 -57 14 -106v-308h-247c-40 0 -67 1 -82 3c-83 11 -125 59 -125 143c0 63 21 106 64 131c23 13 63 20 120 20z" />
    <glyph glyph-name="uni1EA7" unicode="&#x1ea7;" horiz-adv-x="533" 
d="M397 297h-173c-57 0 -97 -7 -120 -20c-43 -25 -64 -68 -64 -131c0 -84 42 -132 125 -143c15 -2 42 -3 82 -3h247v308c0 49 -5 84 -14 106c-13 33 -40 54 -79 65c-20 5 -51 8 -93 8h-250v-77h229c45 0 75 -6 89 -18s21 -40 21 -83v-12zM397 220v-143h-162
c-31 0 -54 4 -68 12c-18 11 -27 30 -27 59s9 48 27 59c14 9 37 13 68 13h162zM281 616l61 -73h78l-98 114h-81l-98 -114h77zM478 635h-73l-93 126h93z" />
    <glyph glyph-name="uni1EA9" unicode="&#x1ea9;" horiz-adv-x="533" 
d="M390 781v56h37c64 0 96 -25 96 -76c0 -32 -9 -54 -27 -66c0 0 -11 -6 -34 -17c-17 -8 -26 -14 -27 -19v-26h-57v26c0 29 0 34 20 46c8 8 18 12 30 13c25 7 37 17 37 29c0 16 -5 26 -16 30c-7 3 -27 4 -59 4zM335 543l-61 73l-61 -73h-77l98 114h81l98 -114h-78zM397 77
v143h-162c-31 0 -54 -4 -68 -13c-18 -11 -27 -30 -27 -59s9 -48 27 -59c14 -8 37 -12 68 -12h162zM224 297h173v12c0 43 -7 71 -21 83s-44 18 -89 18h-229v77h250c42 0 73 -3 93 -8c39 -11 66 -32 79 -65c9 -22 14 -57 14 -106v-308h-247c-40 0 -67 1 -82 3
c-83 11 -125 59 -125 143c0 63 21 106 64 131c23 13 63 20 120 20z" />
    <glyph glyph-name="uni1EAB" unicode="&#x1eab;" horiz-adv-x="533" 
d="M369 785h50c-8 -71 -33 -106 -76 -106c-18 0 -44 9 -78 26c-20 10 -36 15 -47 15c-19 0 -30 -13 -34 -39h-50c8 71 35 106 80 106c16 0 38 -8 65 -21c28 -14 47 -20 57 -20c16 0 27 13 33 39zM338 543l-61 73l-61 -73h-77l98 114h81l98 -114h-78zM397 77v143h-162
c-31 0 -54 -4 -68 -13c-18 -11 -27 -30 -27 -59s9 -48 27 -59c14 -8 37 -12 68 -12h162zM224 297h173v12c0 43 -7 71 -21 83s-44 18 -89 18h-229v77h250c42 0 73 -3 93 -8c39 -11 66 -32 79 -65c9 -22 14 -57 14 -106v-308h-247c-40 0 -67 1 -82 3c-83 11 -125 59 -125 143
c0 63 21 106 64 131c23 13 63 20 120 20z" />
    <glyph glyph-name="uni1EAD" unicode="&#x1ead;" horiz-adv-x="533" 
d="M314 -146h-87v91h87v-91zM336 543l-61 73l-61 -73h-77l98 114h81l98 -114h-78zM397 77v143h-162c-31 0 -54 -4 -68 -13c-18 -11 -27 -30 -27 -59s9 -48 27 -59c14 -8 37 -12 68 -12h162zM224 297h173v12c0 43 -7 71 -21 83s-44 18 -89 18h-229v77h250c42 0 73 -3 93 -8
c39 -11 66 -32 79 -65c9 -22 14 -57 14 -106v-308h-247c-40 0 -67 1 -82 3c-83 11 -125 59 -125 143c0 63 21 106 64 131c23 13 63 20 120 20z" />
    <glyph glyph-name="uni1EAF" unicode="&#x1eaf;" horiz-adv-x="533" 
d="M281 543c-90 0 -139 43 -146 129h54c11 -45 43 -67 96 -67c49 0 79 22 92 67h54c-13 -86 -63 -129 -150 -129zM305 778h93l-93 -126h-73zM397 77v143h-162c-31 0 -54 -4 -68 -13c-18 -11 -27 -30 -27 -59s9 -48 27 -59c14 -8 37 -12 68 -12h162zM224 297h173v12
c0 43 -7 71 -21 83s-44 18 -89 18h-229v77h250c42 0 73 -3 93 -8c39 -11 66 -32 79 -65c9 -22 14 -57 14 -106v-308h-247c-40 0 -67 1 -82 3c-83 11 -125 59 -125 143c0 63 21 106 64 131c23 13 63 20 120 20z" />
    <glyph glyph-name="uni1EB0" unicode="&#x1eb0;" horiz-adv-x="689" 
d="M4 0h113l71 174h316l68 -174h113l-265 667h-140zM348 587l122 -328h-250zM348 703c87 0 137 43 150 129h-54c-13 -45 -43 -67 -92 -67c-53 0 -85 22 -96 67h-54c7 -86 56 -129 146 -129zM405 820h-74l-126 120h107z" />
    <glyph glyph-name="uni1EB2" unicode="&#x1eb2;" horiz-adv-x="689" 
d="M334 955v56h37c64 0 96 -25 96 -76c0 -32 -9 -54 -27 -66c0 0 -11 -6 -34 -17c-17 -8 -26 -14 -27 -19v-26h-57v26c0 29 0 34 20 46c8 8 18 12 30 13c25 7 37 17 37 29c0 16 -5 26 -16 30c-7 3 -27 4 -59 4zM347 703c-90 0 -139 43 -146 129h54c11 -45 43 -67 96 -67
c49 0 79 22 92 67h54c-13 -86 -63 -129 -150 -129zM470 259l-122 328l-128 -328h250zM117 0h-113l276 667h140l265 -667h-113l-68 174h-316z" />
    <glyph glyph-name="uni1EB4" unicode="&#x1eb4;" horiz-adv-x="689" 
d="M434 958h50c-8 -71 -33 -106 -76 -106c-18 0 -44 9 -78 26c-20 10 -36 15 -47 15c-19 0 -30 -13 -34 -39h-50c8 71 35 106 80 106c16 0 38 -8 65 -21c28 -14 47 -20 57 -20c16 0 27 13 33 39zM347 703c-90 0 -139 43 -146 129h54c11 -45 43 -67 96 -67c49 0 79 22 92 67
h54c-13 -86 -63 -129 -150 -129zM470 259l-122 328l-128 -328h250zM117 0h-113l276 667h140l265 -667h-113l-68 174h-316z" />
    <glyph glyph-name="uni1EB6" unicode="&#x1eb6;" horiz-adv-x="689" 
d="M383 -146h-87v91h87v-91zM349 703c-90 0 -139 43 -146 129h54c11 -45 43 -67 96 -67c49 0 79 22 92 67h54c-13 -86 -63 -129 -150 -129zM470 259l-122 328l-128 -328h250zM117 0h-113l276 667h140l265 -667h-113l-68 174h-316z" />
    <glyph glyph-name="uni1EB1" unicode="&#x1eb1;" horiz-adv-x="533" 
d="M279 543c-90 0 -139 43 -146 129h54c11 -45 43 -67 96 -67c49 0 79 22 92 67h54c-13 -86 -63 -129 -150 -129zM243 778l73 -126h-73l-93 126h93zM397 77v143h-162c-31 0 -54 -4 -68 -13c-18 -11 -27 -30 -27 -59s9 -48 27 -59c14 -8 37 -12 68 -12h162zM224 297h173v12
c0 43 -7 71 -21 83s-44 18 -89 18h-229v77h250c42 0 73 -3 93 -8c39 -11 66 -32 79 -65c9 -22 14 -57 14 -106v-308h-247c-40 0 -67 1 -82 3c-83 11 -125 59 -125 143c0 63 21 106 64 131c23 13 63 20 120 20z" />
    <glyph glyph-name="uni1EB3" unicode="&#x1eb3;" horiz-adv-x="533" 
d="M279 543c-90 0 -139 43 -146 129h54c11 -45 43 -67 96 -67c49 0 79 22 92 67h54c-13 -86 -63 -129 -150 -129zM390 763c0 -32 -9 -54 -27 -66c0 0 -11 -6 -34 -17c-17 -8 -26 -14 -27 -19v-26h-57v26c0 29 0 34 20 46c8 8 18 12 30 13c25 7 37 17 37 29
c0 16 -5 26 -16 30c-7 3 -27 4 -59 4v56h37c64 0 96 -25 96 -76zM397 77v143h-162c-31 0 -54 -4 -68 -13c-18 -11 -27 -30 -27 -59s9 -48 27 -59c14 -8 37 -12 68 -12h162zM224 297h173v12c0 43 -7 71 -21 83s-44 18 -89 18h-229v77h250c42 0 73 -3 93 -8
c39 -11 66 -32 79 -65c9 -22 14 -57 14 -106v-308h-247c-40 0 -67 1 -82 3c-83 11 -125 59 -125 143c0 63 21 106 64 131c23 13 63 20 120 20z" />
    <glyph glyph-name="uni1EB5" unicode="&#x1eb5;" horiz-adv-x="533" 
d="M374 798h50c-8 -71 -33 -106 -76 -106c-18 0 -44 9 -78 26c-20 10 -36 15 -47 15c-19 0 -30 -13 -34 -39h-50c8 71 35 106 80 106c16 0 38 -8 65 -21c28 -14 47 -20 57 -20c16 0 27 13 33 39zM374 669h49c-12 -83 -61 -124 -147 -124c-89 0 -136 41 -143 124h49
c11 -45 43 -67 98 -67c50 0 81 22 94 67zM397 77v143h-162c-31 0 -54 -4 -68 -13c-18 -11 -27 -30 -27 -59s9 -48 27 -59c14 -8 37 -12 68 -12h162zM224 297h173v12c0 43 -7 71 -21 83s-44 18 -89 18h-229v77h250c42 0 73 -3 93 -8c39 -11 66 -32 79 -65
c9 -22 14 -57 14 -106v-308h-247c-40 0 -67 1 -82 3c-83 11 -125 59 -125 143c0 63 21 106 64 131c23 13 63 20 120 20z" />
    <glyph glyph-name="uni1EB7" unicode="&#x1eb7;" horiz-adv-x="533" 
d="M325 -146h-87v91h87v-91zM280 543c-90 0 -139 43 -146 129h54c11 -45 43 -67 96 -67c49 0 79 22 92 67h54c-13 -86 -63 -129 -150 -129zM397 77v143h-162c-31 0 -54 -4 -68 -13c-18 -11 -27 -30 -27 -59s9 -48 27 -59c14 -8 37 -12 68 -12h162zM224 297h173v12
c0 43 -7 71 -21 83s-44 18 -89 18h-229v77h250c42 0 73 -3 93 -8c39 -11 66 -32 79 -65c9 -22 14 -57 14 -106v-308h-247c-40 0 -67 1 -82 3c-83 11 -125 59 -125 143c0 63 21 106 64 131c23 13 63 20 120 20z" />
    <glyph glyph-name="uni1EB8" unicode="&#x1eb8;" horiz-adv-x="681" 
d="M411 -146h-87v91h87v-91zM366 667h188v-85h-194c-43 0 -77 -5 -100 -14c-61 -23 -99 -83 -104 -190h398v-85h-399c1 -40 8 -76 22 -109c17 -40 41 -67 72 -81c25 -12 60 -18 105 -18h200v-85h-219c-54 0 -97 6 -130 17c-41 14 -76 39 -103 76c-43 57 -64 132 -64 227
c0 136 39 234 117 295c45 35 115 52 211 52z" />
    <glyph glyph-name="uni1EBA" unicode="&#x1eba;" horiz-adv-x="681" 
d="M350 870v56h37c64 0 96 -25 96 -76c0 -32 -9 -54 -27 -66c0 0 -11 -6 -34 -17c-17 -8 -26 -14 -27 -19v-26h-57v26c0 29 0 34 20 46c8 8 18 12 30 13c25 7 37 17 37 29c0 16 -5 26 -16 30c-7 3 -27 4 -59 4zM366 667h188v-85h-194c-43 0 -77 -5 -100 -14
c-61 -23 -99 -83 -104 -190h398v-85h-399c1 -40 8 -76 22 -109c17 -40 41 -67 72 -81c25 -12 60 -18 105 -18h200v-85h-219c-54 0 -97 6 -130 17c-41 14 -76 39 -103 76c-43 57 -64 132 -64 227c0 136 39 234 117 295c45 35 115 52 211 52z" />
    <glyph glyph-name="uni1EBC" unicode="&#x1ebc;" horiz-adv-x="681" 
d="M469 858h50c-8 -71 -33 -106 -76 -106c-18 0 -44 9 -78 26c-20 10 -36 15 -47 15c-19 0 -30 -13 -34 -39h-50c8 71 35 106 80 106c16 0 38 -8 65 -21c28 -14 47 -20 57 -20c16 0 27 13 33 39zM366 667h188v-85h-194c-43 0 -77 -5 -100 -14c-61 -23 -99 -83 -104 -190h398
v-85h-399c1 -40 8 -76 22 -109c17 -40 41 -67 72 -81c25 -12 60 -18 105 -18h200v-85h-219c-54 0 -97 6 -130 17c-41 14 -76 39 -103 76c-43 57 -64 132 -64 227c0 136 39 234 117 295c45 35 115 52 211 52z" />
    <glyph glyph-name="uni1EBE" unicode="&#x1ebe;" horiz-adv-x="681" 
d="M558 823h-74l93 120h107zM438 723l-70 72l-70 -72h-87l112 120h90l111 -120h-86zM366 667h188v-85h-194c-43 0 -77 -5 -100 -14c-61 -23 -99 -83 -104 -190h398v-85h-399c1 -40 8 -76 22 -109c17 -40 41 -67 72 -81c25 -12 60 -18 105 -18h200v-85h-219
c-54 0 -97 6 -130 17c-41 14 -76 39 -103 76c-43 57 -64 132 -64 227c0 136 39 234 117 295c45 35 115 52 211 52z" />
    <glyph glyph-name="uni1EC0" unicode="&#x1ec0;" horiz-adv-x="681" 
d="M554 667h-188c-96 0 -166 -17 -211 -52c-78 -61 -117 -159 -117 -295c0 -95 21 -170 64 -227c27 -37 62 -62 103 -76c33 -11 76 -17 130 -17h219v85h-200c-45 0 -80 6 -105 18c-31 14 -55 41 -72 81c-14 33 -21 69 -22 109h399v85h-398c5 107 43 167 104 190
c23 9 57 14 100 14h194v85zM368 795l70 -72h86l-111 120h-90l-112 -120h87zM574 823h-74l-126 120h107z" />
    <glyph glyph-name="uni1EC2" unicode="&#x1ec2;" horiz-adv-x="681" 
d="M502 968v56h37c64 0 96 -25 96 -76c0 -32 -9 -54 -27 -66c0 0 -11 -6 -34 -17c-17 -8 -26 -14 -27 -19v-26h-57v26c0 29 0 34 20 46c8 8 18 12 30 13c25 7 37 17 37 29c0 16 -5 26 -16 30c-7 3 -27 4 -59 4zM448 723l-70 72l-70 -72h-87l112 120h90l111 -120h-86z
M366 667h188v-85h-194c-43 0 -77 -5 -100 -14c-61 -23 -99 -83 -104 -190h398v-85h-399c1 -40 8 -76 22 -109c17 -40 41 -67 72 -81c25 -12 60 -18 105 -18h200v-85h-219c-54 0 -97 6 -130 17c-41 14 -76 39 -103 76c-43 57 -64 132 -64 227c0 136 39 234 117 295
c45 35 115 52 211 52z" />
    <glyph glyph-name="uni1EC4" unicode="&#x1ec4;" horiz-adv-x="681" 
d="M453 958h50c-8 -71 -33 -106 -76 -106c-18 0 -44 9 -78 26c-20 10 -36 15 -47 15c-19 0 -30 -13 -34 -39h-50c8 71 35 106 80 106c16 0 38 -8 65 -21c28 -14 47 -20 57 -20c16 0 27 13 33 39zM366 703c-90 0 -139 43 -146 129h54c11 -45 43 -67 96 -67c49 0 79 22 92 67
h54c-13 -86 -63 -129 -150 -129zM366 667h188v-85h-194c-43 0 -77 -5 -100 -14c-61 -23 -99 -83 -104 -190h398v-85h-399c1 -40 8 -76 22 -109c17 -40 41 -67 72 -81c25 -12 60 -18 105 -18h200v-85h-219c-54 0 -97 6 -130 17c-41 14 -76 39 -103 76c-43 57 -64 132 -64 227
c0 136 39 234 117 295c45 35 115 52 211 52z" />
    <glyph glyph-name="uni1EC6" unicode="&#x1ec6;" horiz-adv-x="681" 
d="M409 -146h-87v91h87v-91zM436 723l-70 72l-70 -72h-87l112 120h90l111 -120h-86zM366 667h188v-85h-194c-43 0 -77 -5 -100 -14c-61 -23 -99 -83 -104 -190h398v-85h-399c1 -40 8 -76 22 -109c17 -40 41 -67 72 -81c25 -12 60 -18 105 -18h200v-85h-219
c-54 0 -97 6 -130 17c-41 14 -76 39 -103 76c-43 57 -64 132 -64 227c0 136 39 234 117 295c45 35 115 52 211 52z" />
    <glyph glyph-name="uni1EB9" unicode="&#x1eb9;" horiz-adv-x="522" 
d="M334 -146h-87v91h87v-91zM139 289h292v-77h-292c0 -51 13 -86 39 -107c23 -19 61 -28 113 -28h140v-77h-166c-75 0 -129 15 -162 46c-45 42 -67 105 -67 188c0 105 37 179 111 222c36 21 84 31 144 31h140v-77h-126c-51 0 -88 -8 -112 -23c-27 -18 -45 -51 -54 -98z" />
    <glyph glyph-name="uni1EBB" unicode="&#x1ebb;" horiz-adv-x="522" 
d="M277 695v56h37c64 0 96 -25 96 -76c0 -32 -9 -54 -27 -66c0 0 -11 -6 -34 -17c-17 -8 -26 -14 -27 -19v-26h-57v26c0 29 0 34 20 46c8 8 18 12 30 13c25 7 37 17 37 29c0 16 -5 26 -16 30c-7 3 -27 4 -59 4zM139 289h292v-77h-292c0 -51 13 -86 39 -107
c23 -19 61 -28 113 -28h140v-77h-166c-75 0 -129 15 -162 46c-45 42 -67 105 -67 188c0 105 37 179 111 222c36 21 84 31 144 31h140v-77h-126c-51 0 -88 -8 -112 -23c-27 -18 -45 -51 -54 -98z" />
    <glyph glyph-name="uni1EBD" unicode="&#x1ebd;" horiz-adv-x="522" 
d="M399 668h50c-8 -71 -33 -106 -76 -106c-18 0 -44 9 -78 26c-20 10 -36 15 -47 15c-19 0 -30 -13 -34 -39h-50c8 71 35 106 80 106c16 0 38 -8 65 -21c28 -14 47 -20 57 -20c16 0 27 13 33 39zM139 289h292v-77h-292c0 -51 13 -86 39 -107c23 -19 61 -28 113 -28h140v-77
h-166c-75 0 -129 15 -162 46c-45 42 -67 105 -67 188c0 105 37 179 111 222c36 21 84 31 144 31h140v-77h-126c-51 0 -88 -8 -112 -23c-27 -18 -45 -51 -54 -98z" />
    <glyph glyph-name="uni1EBF" unicode="&#x1ebf;" horiz-adv-x="522" 
d="M457 635h-73l73 126h93zM354 543l-61 73l-61 -73h-77l98 114h81l98 -114h-78zM139 289h292v-77h-292c0 -51 13 -86 39 -107c23 -19 61 -28 113 -28h140v-77h-166c-75 0 -129 15 -162 46c-45 42 -67 105 -67 188c0 105 37 179 111 222c36 21 84 31 144 31h140v-77h-126
c-51 0 -88 -8 -112 -23c-27 -18 -45 -51 -54 -98z" />
    <glyph glyph-name="uni1EC1" unicode="&#x1ec1;" horiz-adv-x="522" 
d="M431 289h-292c9 47 27 80 54 98c24 15 61 23 112 23h126v77h-140c-60 0 -108 -10 -144 -31c-74 -43 -111 -117 -111 -222c0 -83 22 -146 67 -188c33 -31 87 -46 162 -46h166v77h-140c-52 0 -90 9 -113 28c-26 21 -39 56 -39 107h292v77zM291 616l61 -73h78l-98 114h-81
l-98 -114h77zM488 635h-73l-93 126h93z" />
    <glyph glyph-name="uni1EC3" unicode="&#x1ec3;" horiz-adv-x="522" 
d="M404 781v56h37c64 0 96 -25 96 -76c0 -32 -9 -54 -27 -66c0 0 -11 -6 -34 -17c-17 -8 -26 -14 -27 -19v-26h-57v26c0 29 0 34 20 46c8 8 18 12 30 13c25 7 37 17 37 29c0 16 -5 26 -16 30c-7 3 -27 4 -59 4zM349 543l-61 73l-61 -73h-77l98 114h81l98 -114h-78zM139 289
h292v-77h-292c0 -51 13 -86 39 -107c23 -19 61 -28 113 -28h140v-77h-166c-75 0 -129 15 -162 46c-45 42 -67 105 -67 188c0 105 37 179 111 222c36 21 84 31 144 31h140v-77h-126c-51 0 -88 -8 -112 -23c-27 -18 -45 -51 -54 -98z" />
    <glyph glyph-name="uni1EC5" unicode="&#x1ec5;" horiz-adv-x="522" 
d="M381 785h50c-8 -71 -33 -106 -76 -106c-18 0 -44 9 -78 26c-20 10 -36 15 -47 15c-19 0 -30 -13 -34 -39h-50c8 71 35 106 80 106c16 0 38 -8 65 -21c28 -14 47 -20 57 -20c16 0 27 13 33 39zM350 543l-61 73l-61 -73h-77l98 114h81l98 -114h-78zM139 289h292v-77h-292
c0 -51 13 -86 39 -107c23 -19 61 -28 113 -28h140v-77h-166c-75 0 -129 15 -162 46c-45 42 -67 105 -67 188c0 105 37 179 111 222c36 21 84 31 144 31h140v-77h-126c-51 0 -88 -8 -112 -23c-27 -18 -45 -51 -54 -98z" />
    <glyph glyph-name="uni1EC7" unicode="&#x1ec7;" horiz-adv-x="522" 
d="M328 -146h-87v91h87v-91zM350 543l-61 73l-61 -73h-77l98 114h81l98 -114h-78zM139 289h292v-77h-292c0 -51 13 -86 39 -107c23 -19 61 -28 113 -28h140v-77h-166c-75 0 -129 15 -162 46c-45 42 -67 105 -67 188c0 105 37 179 111 222c36 21 84 31 144 31h140v-77h-126
c-51 0 -88 -8 -112 -23c-27 -18 -45 -51 -54 -98z" />
    <glyph glyph-name="uni1ECC" unicode="&#x1ecc;" horiz-adv-x="690" 
d="M384 -146h-87v91h87v-91zM352 592c-79 0 -136 -24 -170 -72c-29 -41 -44 -103 -44 -186c0 -84 14 -146 42 -187c34 -48 91 -72 170 -72c95 0 157 34 186 103c15 35 22 85 22 151c0 87 -13 150 -39 188c-34 50 -90 75 -167 75zM353 677c111 0 193 -30 245 -90
c49 -56 73 -141 73 -255c0 -228 -109 -342 -328 -342c-212 0 -318 114 -318 342c0 110 27 194 81 253c56 61 138 92 247 92z" />
    <glyph glyph-name="uni1ECE" unicode="&#x1ece;" horiz-adv-x="690" 
d="M326 870v56h37c64 0 96 -25 96 -76c0 -32 -9 -54 -27 -66c0 0 -11 -6 -34 -17c-17 -8 -26 -14 -27 -19v-26h-57v26c0 29 0 34 20 46c8 8 18 12 30 13c25 7 37 17 37 29c0 16 -5 26 -16 30c-7 3 -27 4 -59 4zM352 592c-79 0 -136 -24 -170 -72c-29 -41 -44 -103 -44 -186
c0 -84 14 -146 42 -187c34 -48 91 -72 170 -72c95 0 157 34 186 103c15 35 22 85 22 151c0 87 -13 150 -39 188c-34 50 -90 75 -167 75zM353 677c111 0 193 -30 245 -90c49 -56 73 -141 73 -255c0 -228 -109 -342 -328 -342c-212 0 -318 114 -318 342c0 110 27 194 81 253
c56 61 138 92 247 92z" />
    <glyph glyph-name="uni1ED0" unicode="&#x1ed0;" horiz-adv-x="690" 
d="M544 823h-74l93 120h107zM424 723l-70 72l-70 -72h-87l112 120h90l111 -120h-86zM352 592c-79 0 -136 -24 -170 -72c-29 -41 -44 -103 -44 -186c0 -84 14 -146 42 -187c34 -48 91 -72 170 -72c95 0 157 34 186 103c15 35 22 85 22 151c0 87 -13 150 -39 188
c-34 50 -90 75 -167 75zM353 677c111 0 193 -30 245 -90c49 -56 73 -141 73 -255c0 -228 -109 -342 -328 -342c-212 0 -318 114 -318 342c0 110 27 194 81 253c56 61 138 92 247 92z" />
    <glyph glyph-name="uni1ED2" unicode="&#x1ed2;" horiz-adv-x="690" 
d="M353 677c-109 0 -191 -31 -247 -92c-54 -59 -81 -143 -81 -253c0 -228 106 -342 318 -342c219 0 328 114 328 342c0 114 -24 199 -73 255c-52 60 -134 90 -245 90zM352 592c77 0 133 -25 167 -75c26 -38 39 -101 39 -188c0 -66 -7 -116 -22 -151
c-29 -69 -91 -103 -186 -103c-79 0 -136 24 -170 72c-28 41 -42 103 -42 187c0 83 15 145 44 186c34 48 91 72 170 72zM352 795l70 -72h86l-111 120h-90l-112 -120h87zM558 823h-74l-126 120h107z" />
    <glyph glyph-name="uni1ED4" unicode="&#x1ed4;" horiz-adv-x="690" 
d="M477 968v56h37c64 0 96 -25 96 -76c0 -32 -9 -54 -27 -66c0 0 -11 -6 -34 -17c-17 -8 -26 -14 -27 -19v-26h-57v26c0 29 0 34 20 46c8 8 18 12 30 13c25 7 37 17 37 29c0 16 -5 26 -16 30c-7 3 -27 4 -59 4zM423 723l-70 72l-70 -72h-87l112 120h90l111 -120h-86z
M352 592c-79 0 -136 -24 -170 -72c-29 -41 -44 -103 -44 -186c0 -84 14 -146 42 -187c34 -48 91 -72 170 -72c95 0 157 34 186 103c15 35 22 85 22 151c0 87 -13 150 -39 188c-34 50 -90 75 -167 75zM353 677c111 0 193 -30 245 -90c49 -56 73 -141 73 -255
c0 -228 -109 -342 -328 -342c-212 0 -318 114 -318 342c0 110 27 194 81 253c56 61 138 92 247 92z" />
    <glyph glyph-name="uni1ED6" unicode="&#x1ed6;" horiz-adv-x="690" 
d="M449 968h50c-8 -71 -33 -106 -76 -106c-18 0 -44 9 -78 26c-20 10 -36 15 -47 15c-19 0 -30 -13 -34 -39h-50c8 71 35 106 80 106c16 0 38 -8 65 -21c28 -14 47 -20 57 -20c16 0 27 13 33 39zM423 723l-70 72l-70 -72h-87l112 120h90l111 -120h-86zM352 592
c-79 0 -136 -24 -170 -72c-29 -41 -44 -103 -44 -186c0 -84 14 -146 42 -187c34 -48 91 -72 170 -72c95 0 157 34 186 103c15 35 22 85 22 151c0 87 -13 150 -39 188c-34 50 -90 75 -167 75zM353 677c111 0 193 -30 245 -90c49 -56 73 -141 73 -255
c0 -228 -109 -342 -328 -342c-212 0 -318 114 -318 342c0 110 27 194 81 253c56 61 138 92 247 92z" />
    <glyph glyph-name="uni1ED8" unicode="&#x1ed8;" horiz-adv-x="690" 
d="M396 -146h-87v91h87v-91zM423 723l-70 72l-70 -72h-87l112 120h90l111 -120h-86zM352 592c-79 0 -136 -24 -170 -72c-29 -41 -44 -103 -44 -186c0 -84 14 -146 42 -187c34 -48 91 -72 170 -72c95 0 157 34 186 103c15 35 22 85 22 151c0 87 -13 150 -39 188
c-34 50 -90 75 -167 75zM353 677c111 0 193 -30 245 -90c49 -56 73 -141 73 -255c0 -228 -109 -342 -328 -342c-212 0 -318 114 -318 342c0 110 27 194 81 253c56 61 138 92 247 92z" />
    <glyph glyph-name="uni1ECD" unicode="&#x1ecd;" horiz-adv-x="513" 
d="M300 -146h-87v91h87v-91zM260 412c-50 0 -88 -16 -113 -49c-23 -30 -35 -71 -35 -122c0 -111 49 -166 146 -166c101 0 151 55 151 164c0 52 -12 93 -35 123c-25 33 -63 50 -114 50zM266 492c159 0 243 -91 243 -251c0 -156 -92 -246 -248 -246c-159 0 -249 83 -249 240
c0 163 91 257 254 257z" />
    <glyph glyph-name="uni1ECF" unicode="&#x1ecf;" horiz-adv-x="513" 
d="M247 695v56h37c64 0 96 -25 96 -76c0 -32 -9 -54 -27 -66c0 0 -11 -6 -34 -17c-17 -8 -26 -14 -27 -19v-26h-57v26c0 29 0 34 20 46c8 8 18 12 30 13c25 7 37 17 37 29c0 16 -5 26 -16 30c-7 3 -27 4 -59 4zM260 412c-50 0 -88 -16 -113 -49c-23 -30 -35 -71 -35 -122
c0 -111 49 -166 146 -166c101 0 151 55 151 164c0 52 -12 93 -35 123c-25 33 -63 50 -114 50zM266 492c159 0 243 -91 243 -251c0 -156 -92 -246 -248 -246c-159 0 -249 83 -249 240c0 163 91 257 254 257z" />
    <glyph glyph-name="uni1ED1" unicode="&#x1ed1;" horiz-adv-x="513" 
d="M430 635h-73l73 126h93zM327 543l-61 73l-61 -73h-77l98 114h81l98 -114h-78zM260 412c-50 0 -88 -16 -113 -49c-23 -30 -35 -71 -35 -122c0 -111 49 -166 146 -166c101 0 151 55 151 164c0 52 -12 93 -35 123c-25 33 -63 50 -114 50zM266 492c159 0 243 -91 243 -251
c0 -156 -92 -246 -248 -246c-159 0 -249 83 -249 240c0 163 91 257 254 257z" />
    <glyph glyph-name="uni1ED3" unicode="&#x1ed3;" horiz-adv-x="513" 
d="M266 492c-163 0 -254 -94 -254 -257c0 -157 90 -240 249 -240c156 0 248 90 248 246c0 160 -84 251 -243 251zM260 412c51 0 89 -17 114 -50c23 -30 35 -71 35 -123c0 -109 -50 -164 -151 -164c-97 0 -146 55 -146 166c0 51 12 92 35 122c25 33 63 49 113 49zM265 616
l61 -73h78l-98 114h-81l-98 -114h77zM462 635h-73l-93 126h93z" />
    <glyph glyph-name="uni1ED5" unicode="&#x1ed5;" horiz-adv-x="513" 
d="M381 781v56h37c64 0 96 -25 96 -76c0 -32 -9 -54 -27 -66c0 0 -11 -6 -34 -17c-17 -8 -26 -14 -27 -19v-26h-57v26c0 29 0 34 20 46c8 8 18 12 30 13c25 7 37 17 37 29c0 16 -5 26 -16 30c-7 3 -27 4 -59 4zM326 543l-61 73l-61 -73h-77l98 114h81l98 -114h-78zM260 412
c-50 0 -88 -16 -113 -49c-23 -30 -35 -71 -35 -122c0 -111 49 -166 146 -166c101 0 151 55 151 164c0 52 -12 93 -35 123c-25 33 -63 50 -114 50zM266 492c159 0 243 -91 243 -251c0 -156 -92 -246 -248 -246c-159 0 -249 83 -249 240c0 163 91 257 254 257z" />
    <glyph glyph-name="uni1ED7" unicode="&#x1ed7;" horiz-adv-x="513" 
d="M353 785h50c-8 -71 -33 -106 -76 -106c-18 0 -44 9 -78 26c-20 10 -36 15 -47 15c-19 0 -30 -13 -34 -39h-50c8 71 35 106 80 106c16 0 38 -8 65 -21c28 -14 47 -20 57 -20c16 0 27 13 33 39zM322 543l-61 73l-61 -73h-77l98 114h81l98 -114h-78zM260 412
c-50 0 -88 -16 -113 -49c-23 -30 -35 -71 -35 -122c0 -111 49 -166 146 -166c101 0 151 55 151 164c0 52 -12 93 -35 123c-25 33 -63 50 -114 50zM266 492c159 0 243 -91 243 -251c0 -156 -92 -246 -248 -246c-159 0 -249 83 -249 240c0 163 91 257 254 257z" />
    <glyph glyph-name="uni1ED9" unicode="&#x1ed9;" horiz-adv-x="513" 
d="M304 -146h-87v91h87v-91zM326 543l-61 73l-61 -73h-77l98 114h81l98 -114h-78zM260 412c-50 0 -88 -16 -113 -49c-23 -30 -35 -71 -35 -122c0 -111 49 -166 146 -166c101 0 151 55 151 164c0 52 -12 93 -35 123c-25 33 -63 50 -114 50zM266 492c159 0 243 -91 243 -251
c0 -156 -92 -246 -248 -246c-159 0 -249 83 -249 240c0 163 91 257 254 257z" />
    <glyph glyph-name="uni1EDA" unicode="&#x1eda;" horiz-adv-x="714" 
d="M400 743h-74l93 120h107zM602 742h78v-85l-63 -82c42 -56 63 -137 63 -243c0 -228 -109 -342 -328 -342c-212 0 -318 114 -318 342c0 110 27 194 81 253c56 61 138 92 247 92c101 0 177 -24 228 -72l31 41h-19v96zM361 592c-79 0 -136 -24 -170 -72
c-29 -41 -44 -103 -44 -186c0 -84 14 -146 42 -187c34 -48 91 -72 170 -72c95 0 157 34 186 103c15 35 22 85 22 151c0 87 -13 150 -39 188c-34 50 -90 75 -167 75z" />
    <glyph glyph-name="uni1EDC" unicode="&#x1edc;" horiz-adv-x="714" 
d="M361 592c77 0 133 -25 167 -75c26 -38 39 -101 39 -188c0 -66 -7 -116 -22 -151c-29 -69 -91 -103 -186 -103c-79 0 -136 24 -170 72c-28 41 -42 103 -42 187c0 83 15 145 44 186c34 48 91 72 170 72zM680 742h-78v-96h19l-31 -41c-51 48 -127 72 -228 72
c-109 0 -191 -31 -247 -92c-54 -59 -81 -143 -81 -253c0 -228 106 -342 318 -342c219 0 328 114 328 342c0 106 -21 187 -63 243l63 82v85zM396 743h-74l-126 120h107z" />
    <glyph glyph-name="uni1EDE" unicode="&#x1ede;" horiz-adv-x="714" 
d="M344 870v56h37c64 0 96 -25 96 -76c0 -32 -9 -54 -27 -66c0 0 -11 -6 -34 -17c-17 -8 -26 -14 -27 -19v-26h-57v26c0 29 0 34 20 46c8 8 18 12 30 13c25 7 37 17 37 29c0 16 -5 26 -16 30c-7 3 -27 4 -59 4zM602 742h78v-85l-63 -82c42 -56 63 -137 63 -243
c0 -228 -109 -342 -328 -342c-212 0 -318 114 -318 342c0 110 27 194 81 253c56 61 138 92 247 92c101 0 177 -24 228 -72l31 41h-19v96zM361 592c-79 0 -136 -24 -170 -72c-29 -41 -44 -103 -44 -186c0 -84 14 -146 42 -187c34 -48 91 -72 170 -72c95 0 157 34 186 103
c15 35 22 85 22 151c0 87 -13 150 -39 188c-34 50 -90 75 -167 75z" />
    <glyph glyph-name="uni1EE0" unicode="&#x1ee0;" horiz-adv-x="714" 
d="M469 858h50c-8 -71 -33 -106 -76 -106c-18 0 -44 9 -78 26c-20 10 -36 15 -47 15c-19 0 -30 -13 -34 -39h-50c8 71 35 106 80 106c16 0 38 -8 65 -21c28 -14 47 -20 57 -20c16 0 27 13 33 39zM602 742h78v-85l-63 -82c42 -56 63 -137 63 -243c0 -228 -109 -342 -328 -342
c-212 0 -318 114 -318 342c0 110 27 194 81 253c56 61 138 92 247 92c101 0 177 -24 228 -72l31 41h-19v96zM361 592c-79 0 -136 -24 -170 -72c-29 -41 -44 -103 -44 -186c0 -84 14 -146 42 -187c34 -48 91 -72 170 -72c95 0 157 34 186 103c15 35 22 85 22 151
c0 87 -13 150 -39 188c-34 50 -90 75 -167 75z" />
    <glyph glyph-name="uni1EE2" unicode="&#x1ee2;" horiz-adv-x="714" 
d="M398 -146h-87v91h87v-91zM602 742h78v-85l-63 -82c42 -56 63 -137 63 -243c0 -228 -109 -342 -328 -342c-212 0 -318 114 -318 342c0 110 27 194 81 253c56 61 138 92 247 92c101 0 177 -24 228 -72l31 41h-19v96zM361 592c-79 0 -136 -24 -170 -72
c-29 -41 -44 -103 -44 -186c0 -84 14 -146 42 -187c34 -48 91 -72 170 -72c95 0 157 34 186 103c15 35 22 85 22 151c0 87 -13 150 -39 188c-34 50 -90 75 -167 75z" />
    <glyph glyph-name="uni1EDB" unicode="&#x1edb;" horiz-adv-x="517" 
d="M297 547h-73l73 126h93zM443 586h70v-78l-65 -84c41 -43 61 -104 61 -183c0 -156 -92 -246 -248 -246c-159 0 -249 83 -249 240c0 163 91 257 254 257c64 0 116 -15 156 -44l37 50h-16v88zM260 412c-50 0 -88 -16 -113 -49c-23 -30 -35 -71 -35 -122
c0 -111 49 -166 146 -166c101 0 151 55 151 164c0 52 -12 93 -35 123c-25 33 -63 50 -114 50z" />
    <glyph glyph-name="uni1EDD" unicode="&#x1edd;" horiz-adv-x="517" 
d="M260 412c51 0 89 -17 114 -50c23 -30 35 -71 35 -123c0 -109 -50 -164 -151 -164c-97 0 -146 55 -146 166c0 51 12 92 35 122c25 33 63 49 113 49zM513 586h-70v-88h16l-37 -50c-40 29 -92 44 -156 44c-163 0 -254 -94 -254 -257c0 -157 90 -240 249 -240
c156 0 248 90 248 246c0 79 -20 140 -61 183l65 84v78zM302 547h-73l-93 126h93z" />
    <glyph glyph-name="uni1EDF" unicode="&#x1edf;" horiz-adv-x="517" 
d="M247 695v56h37c64 0 96 -25 96 -76c0 -32 -9 -54 -27 -66c0 0 -11 -6 -34 -17c-17 -8 -26 -14 -27 -19v-26h-57v26c0 29 0 34 20 46c8 8 18 12 30 13c25 7 37 17 37 29c0 16 -5 26 -16 30c-7 3 -27 4 -59 4zM443 586h70v-78l-65 -84c41 -43 61 -104 61 -183
c0 -156 -92 -246 -248 -246c-159 0 -249 83 -249 240c0 163 91 257 254 257c64 0 116 -15 156 -44l37 50h-16v88zM260 412c-50 0 -88 -16 -113 -49c-23 -30 -35 -71 -35 -122c0 -111 49 -166 146 -166c101 0 151 55 151 164c0 52 -12 93 -35 123c-25 33 -63 50 -114 50z" />
    <glyph glyph-name="uni1EE1" unicode="&#x1ee1;" horiz-adv-x="517" 
d="M366 668h50c-8 -71 -33 -106 -76 -106c-18 0 -44 9 -78 26c-20 10 -36 15 -47 15c-19 0 -30 -13 -34 -39h-50c8 71 35 106 80 106c16 0 38 -8 65 -21c28 -14 47 -20 57 -20c16 0 27 13 33 39zM443 586h70v-78l-65 -84c41 -43 61 -104 61 -183c0 -156 -92 -246 -248 -246
c-159 0 -249 83 -249 240c0 163 91 257 254 257c64 0 116 -15 156 -44l37 50h-16v88zM260 412c-50 0 -88 -16 -113 -49c-23 -30 -35 -71 -35 -122c0 -111 49 -166 146 -166c101 0 151 55 151 164c0 52 -12 93 -35 123c-25 33 -63 50 -114 50z" />
    <glyph glyph-name="uni1EE3" unicode="&#x1ee3;" horiz-adv-x="517" 
d="M300 -146h-87v91h87v-91zM443 586h70v-78l-65 -84c41 -43 61 -104 61 -183c0 -156 -92 -246 -248 -246c-159 0 -249 83 -249 240c0 163 91 257 254 257c64 0 116 -15 156 -44l37 50h-16v88zM260 412c-50 0 -88 -16 -113 -49c-23 -30 -35 -71 -35 -122
c0 -111 49 -166 146 -166c101 0 151 55 151 164c0 52 -12 93 -35 123c-25 33 -63 50 -114 50z" />
    <glyph glyph-name="uni1EE4" unicode="&#x1ee4;" horiz-adv-x="695" 
d="M377 -146h-87v91h87v-91zM64 667h107v-396c0 -70 11 -118 33 -144c29 -35 77 -52 143 -52c78 0 131 22 158 67c13 22 20 68 20 137v388h107v-388c0 -55 -2 -93 -7 -116c-8 -41 -26 -74 -54 -100c-53 -49 -132 -73 -237 -73c-108 0 -184 32 -229 97
c-27 39 -41 101 -41 184v396z" />
    <glyph glyph-name="uni1EE6" unicode="&#x1ee6;" horiz-adv-x="695" 
d="M326 870v56h37c64 0 96 -25 96 -76c0 -32 -9 -54 -27 -66c0 0 -11 -6 -34 -17c-17 -8 -26 -14 -27 -19v-26h-57v26c0 29 0 34 20 46c8 8 18 12 30 13c25 7 37 17 37 29c0 16 -5 26 -16 30c-7 3 -27 4 -59 4zM64 667h107v-396c0 -70 11 -118 33 -144
c29 -35 77 -52 143 -52c78 0 131 22 158 67c13 22 20 68 20 137v388h107v-388c0 -55 -2 -93 -7 -116c-8 -41 -26 -74 -54 -100c-53 -49 -132 -73 -237 -73c-108 0 -184 32 -229 97c-27 39 -41 101 -41 184v396z" />
    <glyph glyph-name="Utilde" unicode="&#x168;" horiz-adv-x="695" 
d="M450 868h50c-8 -71 -33 -106 -76 -106c-18 0 -44 9 -78 26c-20 10 -36 15 -47 15c-19 0 -30 -13 -34 -39h-50c8 71 35 106 80 106c16 0 38 -8 65 -21c28 -14 47 -20 57 -20c16 0 27 13 33 39zM64 667h107v-396c0 -70 11 -118 33 -144c29 -35 77 -52 143 -52
c78 0 131 22 158 67c13 22 20 68 20 137v388h107v-388c0 -55 -2 -93 -7 -116c-8 -41 -26 -74 -54 -100c-53 -49 -132 -73 -237 -73c-108 0 -184 32 -229 97c-27 39 -41 101 -41 184v396z" />
    <glyph glyph-name="uni1EE5" unicode="&#x1ee5;" horiz-adv-x="536" 
d="M311 -146h-87v91h87v-91zM278 77h107v410h97v-487h-212c-47 0 -81 3 -102 9c-34 9 -61 29 -80 60c-17 27 -26 70 -26 130v288h97v-284c0 -43 5 -72 14 -88c15 -25 50 -38 105 -38z" />
    <glyph glyph-name="uni1EE7" unicode="&#x1ee7;" horiz-adv-x="536" 
d="M250 695v56h37c64 0 96 -25 96 -76c0 -32 -9 -54 -27 -66c0 0 -11 -6 -34 -17c-17 -8 -26 -14 -27 -19v-26h-57v26c0 29 0 34 20 46c8 8 18 12 30 13c25 7 37 17 37 29c0 16 -5 26 -16 30c-7 3 -27 4 -59 4zM278 77h107v410h97v-487h-212c-47 0 -81 3 -102 9
c-34 9 -61 29 -80 60c-17 27 -26 70 -26 130v288h97v-284c0 -43 5 -72 14 -88c15 -25 50 -38 105 -38z" />
    <glyph glyph-name="utilde" unicode="&#x169;" horiz-adv-x="536" 
d="M361 668h50c-8 -71 -33 -106 -76 -106c-18 0 -44 9 -78 26c-20 10 -36 15 -47 15c-19 0 -30 -13 -34 -39h-50c8 71 35 106 80 106c16 0 38 -8 65 -21c28 -14 47 -20 57 -20c16 0 27 13 33 39zM278 77h107v410h97v-487h-212c-47 0 -81 3 -102 9c-34 9 -61 29 -80 60
c-17 27 -26 70 -26 130v288h97v-284c0 -43 5 -72 14 -88c15 -25 50 -38 105 -38z" />
    <glyph glyph-name="uni1EE8" unicode="&#x1ee8;" horiz-adv-x="695" 
d="M379 743h-74l93 120h107zM642 742h78v-85l-88 -114v-264c0 -55 -2 -93 -7 -116c-8 -41 -26 -74 -54 -100c-53 -49 -132 -73 -237 -73c-108 0 -184 32 -229 97c-27 39 -41 101 -41 184v396h107v-396c0 -70 11 -118 33 -144c29 -35 77 -52 143 -52c78 0 131 22 158 67
c13 22 20 68 20 137v388h107v-60l29 39h-19v96z" />
    <glyph glyph-name="uni1EEA" unicode="&#x1eea;" horiz-adv-x="695" 
d="M720 742h-78v-96h19l-29 -39v60h-107v-388c0 -69 -7 -115 -20 -137c-27 -45 -80 -67 -158 -67c-66 0 -114 17 -143 52c-22 26 -33 74 -33 144v396h-107v-396c0 -83 14 -145 41 -184c45 -65 121 -97 229 -97c105 0 184 24 237 73c28 26 46 59 54 100c5 23 7 61 7 116v264
l88 114v85zM387 743h-74l-126 120h107z" />
    <glyph glyph-name="uni1EEC" unicode="&#x1eec;" horiz-adv-x="695" 
d="M326 870v56h37c64 0 96 -25 96 -76c0 -32 -9 -54 -27 -66c0 0 -11 -6 -34 -17c-17 -8 -26 -14 -27 -19v-26h-57v26c0 29 0 34 20 46c8 8 18 12 30 13c25 7 37 17 37 29c0 16 -5 26 -16 30c-7 3 -27 4 -59 4zM642 742h78v-85l-88 -114v-264c0 -55 -2 -93 -7 -116
c-8 -41 -26 -74 -54 -100c-53 -49 -132 -73 -237 -73c-108 0 -184 32 -229 97c-27 39 -41 101 -41 184v396h107v-396c0 -70 11 -118 33 -144c29 -35 77 -52 143 -52c78 0 131 22 158 67c13 22 20 68 20 137v388h107v-60l29 39h-19v96z" />
    <glyph glyph-name="uni1EEE" unicode="&#x1eee;" horiz-adv-x="695" 
d="M452 868h50c-8 -71 -33 -106 -76 -106c-18 0 -44 9 -78 26c-20 10 -36 15 -47 15c-19 0 -30 -13 -34 -39h-50c8 71 35 106 80 106c16 0 38 -8 65 -21c28 -14 47 -20 57 -20c16 0 27 13 33 39zM642 742h78v-85l-88 -114v-264c0 -55 -2 -93 -7 -116
c-8 -41 -26 -74 -54 -100c-53 -49 -132 -73 -237 -73c-108 0 -184 32 -229 97c-27 39 -41 101 -41 184v396h107v-396c0 -70 11 -118 33 -144c29 -35 77 -52 143 -52c78 0 131 22 158 67c13 22 20 68 20 137v388h107v-60l29 39h-19v96z" />
    <glyph glyph-name="uni1EF0" unicode="&#x1ef0;" horiz-adv-x="695" 
d="M380 -146h-87v91h87v-91zM642 742h78v-85l-88 -114v-264c0 -55 -2 -93 -7 -116c-8 -41 -26 -74 -54 -100c-53 -49 -132 -73 -237 -73c-108 0 -184 32 -229 97c-27 39 -41 101 -41 184v396h107v-396c0 -70 11 -118 33 -144c29 -35 77 -52 143 -52c78 0 131 22 158 67
c13 22 20 68 20 137v388h107v-60l29 39h-19v96z" />
    <glyph glyph-name="uni1EE9" unicode="&#x1ee9;" horiz-adv-x="512" 
d="M304 547h-73l73 126h93zM496 586h70v-78l-84 -108v-400h-212c-47 0 -81 3 -102 9c-34 9 -61 29 -80 60c-17 27 -26 70 -26 130v288h97v-284c0 -43 5 -72 14 -88c15 -25 50 -38 105 -38h107v410h97v-30l30 41h-16v88z" />
    <glyph glyph-name="uni1EEB" unicode="&#x1eeb;" horiz-adv-x="512" 
d="M566 586h-70v-88h16l-30 -41v30h-97v-410h-107c-55 0 -90 13 -105 38c-9 16 -14 45 -14 88v284h-97v-288c0 -60 9 -103 26 -130c19 -31 46 -51 80 -60c21 -6 55 -9 102 -9h212v400l84 108v78zM306 547h-73l-93 126h93z" />
    <glyph glyph-name="uni1EED" unicode="&#x1eed;" horiz-adv-x="512" 
d="M256 695v56h37c64 0 96 -25 96 -76c0 -32 -9 -54 -27 -66c0 0 -11 -6 -34 -17c-17 -8 -26 -14 -27 -19v-26h-57v26c0 29 0 34 20 46c8 8 18 12 30 13c25 7 37 17 37 29c0 16 -5 26 -16 30c-7 3 -27 4 -59 4zM496 586h70v-78l-84 -108v-400h-212c-47 0 -81 3 -102 9
c-34 9 -61 29 -80 60c-17 27 -26 70 -26 130v288h97v-284c0 -43 5 -72 14 -88c15 -25 50 -38 105 -38h107v410h97v-30l30 41h-16v88z" />
    <glyph glyph-name="uni1EEF" unicode="&#x1eef;" horiz-adv-x="512" 
d="M373 668h50c-8 -71 -33 -106 -76 -106c-18 0 -44 9 -78 26c-20 10 -36 15 -47 15c-19 0 -30 -13 -34 -39h-50c8 71 35 106 80 106c16 0 38 -8 65 -21c28 -14 47 -20 57 -20c16 0 27 13 33 39zM496 586h70v-78l-84 -108v-400h-212c-47 0 -81 3 -102 9c-34 9 -61 29 -80 60
c-17 27 -26 70 -26 130v288h97v-284c0 -43 5 -72 14 -88c15 -25 50 -38 105 -38h107v410h97v-30l30 41h-16v88z" />
    <glyph glyph-name="uni1EF1" unicode="&#x1ef1;" horiz-adv-x="512" 
d="M319 -146h-87v91h87v-91zM496 586h70v-78l-84 -108v-400h-212c-47 0 -81 3 -102 9c-34 9 -61 29 -80 60c-17 27 -26 70 -26 130v288h97v-284c0 -43 5 -72 14 -88c15 -25 50 -38 105 -38h107v410h97v-30l30 41h-16v88z" />
    <glyph glyph-name="Ygrave" unicode="&#x1ef2;" horiz-adv-x="646" 
d="M270 268v-268h107v268l267 399h-123l-195 -315l-199 315h-124zM346 743h-74l-126 120h107z" />
    <glyph glyph-name="ygrave" unicode="&#x1ef3;" horiz-adv-x="552" 
d="M385 77h-121c-42 0 -70 9 -85 27c-13 16 -20 46 -20 89v294h-97v-267c0 -48 2 -83 6 -106c13 -76 74 -114 183 -114h134c-1 -31 -7 -52 -20 -63c-10 -9 -25 -15 -45 -15h-49h-209v-77h215c67 0 113 6 136 17c40 19 62 59 66 118c2 30 3 63 3 100v407h-97v-410zM315 547
h-73l-93 126h93z" />
    <glyph glyph-name="uni1EF6" unicode="&#x1ef6;" horiz-adv-x="646" 
d="M306 870v56h37c64 0 96 -25 96 -76c0 -32 -9 -54 -27 -66c0 0 -11 -6 -34 -17c-17 -8 -26 -14 -27 -19v-26h-57v26c0 29 0 34 20 46c8 8 18 12 30 13c25 7 37 17 37 29c0 16 -5 26 -16 30c-7 3 -27 4 -59 4zM270 0v268l-267 399h124l199 -315l195 315h123l-267 -399v-268
h-107z" />
    <glyph glyph-name="uni1EF8" unicode="&#x1ef8;" horiz-adv-x="646" 
d="M431 868h50c-8 -71 -33 -106 -76 -106c-18 0 -44 9 -78 26c-20 10 -36 15 -47 15c-19 0 -30 -13 -34 -39h-50c8 71 35 106 80 106c16 0 38 -8 65 -21c28 -14 47 -20 57 -20c16 0 27 13 33 39zM270 0v268l-267 399h124l199 -315l195 315h123l-267 -399v-268h-107z" />
    <glyph glyph-name="uni1EF7" unicode="&#x1ef7;" horiz-adv-x="552" 
d="M253 695v56h37c64 0 96 -25 96 -76c0 -32 -9 -54 -27 -66c0 0 -11 -6 -34 -17c-17 -8 -26 -14 -27 -19v-26h-57v26c0 29 0 34 20 46c8 8 18 12 30 13c25 7 37 17 37 29c0 16 -5 26 -16 30c-7 3 -27 4 -59 4zM264 77h121v410h97v-407c0 -37 -1 -70 -3 -100
c-4 -59 -26 -99 -66 -118c-23 -11 -69 -17 -136 -17h-215v77h209h49c20 0 35 6 45 15c13 11 19 32 20 63h-134c-109 0 -170 38 -183 114c-4 23 -6 58 -6 106v267h97v-294c0 -43 7 -73 20 -89c15 -18 43 -27 85 -27z" />
    <glyph glyph-name="uni1EF9" unicode="&#x1ef9;" horiz-adv-x="552" 
d="M376 668h50c-8 -71 -33 -106 -76 -106c-18 0 -44 9 -78 26c-20 10 -36 15 -47 15c-19 0 -30 -13 -34 -39h-50c8 71 35 106 80 106c16 0 38 -8 65 -21c28 -14 47 -20 57 -20c16 0 27 13 33 39zM264 77h121v410h97v-407c0 -37 -1 -70 -3 -100c-4 -59 -26 -99 -66 -118
c-23 -11 -69 -17 -136 -17h-215v77h209h49c20 0 35 6 45 15c13 11 19 32 20 63h-134c-109 0 -170 38 -183 114c-4 23 -6 58 -6 106v267h97v-294c0 -43 7 -73 20 -89c15 -18 43 -27 85 -27z" />
    <glyph glyph-name="Abreve" unicode="&#x102;" horiz-adv-x="689" 
d="M348 703c-90 0 -139 43 -146 129h54c11 -45 43 -67 96 -67c49 0 79 22 92 67h54c-13 -86 -63 -129 -150 -129zM470 259l-122 328l-128 -328h250zM117 0h-113l276 667h140l265 -667h-113l-68 174h-316z" />
    <glyph glyph-name="abreve" unicode="&#x103;" horiz-adv-x="533" 
d="M285 543c-90 0 -139 43 -146 129h54c11 -45 43 -67 96 -67c49 0 79 22 92 67h54c-13 -86 -63 -129 -150 -129zM397 77v143h-162c-31 0 -54 -4 -68 -13c-18 -11 -27 -30 -27 -59s9 -48 27 -59c14 -8 37 -12 68 -12h162zM224 297h173v12c0 43 -7 71 -21 83s-44 18 -89 18
h-229v77h250c42 0 73 -3 93 -8c39 -11 66 -32 79 -65c9 -22 14 -57 14 -106v-308h-247c-40 0 -67 1 -82 3c-83 11 -125 59 -125 143c0 63 21 106 64 131c23 13 63 20 120 20z" />
    <glyph glyph-name="uni2010" unicode="&#x2010;" horiz-adv-x="334" 
d="M0 305h334v-77h-334v77z" />
    <glyph glyph-name="uni2219" unicode="&#x2219;" horiz-adv-x="208" 
d="M54 325h100v-108h-100v108z" />
    <glyph glyph-name="uni02C9" unicode="&#x2c9;" 
d="M97 630h307v-60h-307v60z" />
    <glyph glyph-name="uni03BC" unicode="&#x3bc;" horiz-adv-x="559" 
d="M69 -155v642h97v-284c0 -43 5 -72 14 -88c15 -25 50 -38 105 -38h107v410h97v-487h-212c-55 0 -92 4 -111 12v-167h-97z" />
  </font>
</defs>
</svg>
