<?xml version="1.0" standalone="no"?>
<!DOCTYPE svg PUBLIC "-//W3C//DTD SVG 1.1//EN" "http://www.w3.org/Graphics/SVG/1.1/DTD/svg11.dtd" >
<svg xmlns="http://www.w3.org/2000/svg" xmlns:xlink="http://www.w3.org/1999/xlink" version="1.1">
<metadata>
Created by FontForge 20170924 at Thu Feb  6 22:43:00 2020
 By www-data
\(c\) Bayerische Motoren Werke AG \(BMW AG\) 2019. The font is subject to copyright protection and other intellectual property rights. All rights reserved.
</metadata>
<defs>
<font id="VN_BMWTypeNextLatin-Light" horiz-adv-x="578" >
  <font-face 
    font-family="VN_BMWTypeNext Latin"
    font-weight="300"
    font-stretch="normal"
    units-per-em="1000"
    panose-1="0 0 0 0 0 0 0 0 0 0"
    ascent="800"
    descent="-200"
    x-height="528"
    cap-height="754"
    bbox="-139 -280 1367 1130.02"
    underline-thickness="50"
    underline-position="-176"
    stemh="60"
    stemv="62"
    unicode-range="U+000D-FB02"
  />
<missing-glyph horiz-adv-x="600" 
d="M50 0v754h500v-754h-500zM321 377l194 -314v627zM279 377l-194 313v-627zM300 411l191 309h-382zM300 343l-191 -309h382z" />
    <glyph glyph-name=".notdef" horiz-adv-x="600" 
d="M50 0v754h500v-754h-500zM321 377l194 -314v627zM279 377l-194 313v-627zM300 411l191 309h-382zM300 343l-191 -309h382z" />
    <glyph glyph-name="uni0000" horiz-adv-x="0" 
 />
    <glyph glyph-name="uni0000" horiz-adv-x="0" 
 />
    <glyph glyph-name="uni000D" unicode="&#xd;" horiz-adv-x="253" 
 />
    <glyph glyph-name="space" unicode=" " horiz-adv-x="255" 
 />
    <glyph glyph-name="uni00A0" unicode="&#xa0;" horiz-adv-x="255" 
 />
    <glyph glyph-name="quotesingle" unicode="'" horiz-adv-x="244" 
d="M93 449c-1 17 -8 171 -8 225v80h74v-80c0 -54 -7 -208 -8 -225h-58z" />
    <glyph glyph-name="quotedbl" unicode="&#x22;" horiz-adv-x="398" 
d="M239 674v80h74v-80c0 -54 -7 -208 -8 -225h-58c-1 17 -8 171 -8 225zM93 449c-1 17 -8 171 -8 225v80h74v-80c0 -54 -7 -208 -8 -225h-58z" />
    <glyph glyph-name="degree" unicode="&#xb0;" horiz-adv-x="463" 
d="M231 433c-105 0 -171 64 -171 169s66 169 171 169s172 -64 172 -169s-67 -169 -172 -169zM118 602c0 -70 43 -113 114 -113c69 0 113 43 113 113s-44 113 -113 113c-71 0 -114 -43 -114 -113z" />
    <glyph glyph-name="uni2103" unicode="&#x2103;" horiz-adv-x="1081" 
d="M60 602c0 105 66 169 171 169s172 -64 172 -169s-67 -169 -172 -169s-171 64 -171 169zM547 124c-25 56 -37 153 -37 249c0 109 13 218 52 285c44 75 105 113 237 113c76 0 154 -18 226 -39v-62c-73 20 -150 41 -226 41c-98 0 -152 -25 -188 -97
c-26 -52 -37 -148 -37 -241c0 -91 10 -172 30 -220c31 -74 88 -110 191 -110c75 0 153 16 230 33v-62c-78 -16 -151 -31 -230 -31c-140 0 -207 48 -248 141zM118 602c0 -70 43 -113 114 -113c69 0 113 43 113 113s-44 113 -113 113c-71 0 -114 -43 -114 -113z" />
    <glyph glyph-name="uni2109" unicode="&#x2109;" horiz-adv-x="1066" 
d="M60 602c0 105 66 169 171 169s172 -64 172 -169s-67 -169 -172 -169s-171 64 -171 169zM538 754h496v-60h-434v-289h401v-60h-401v-345h-62v754zM232 715c-71 0 -114 -43 -114 -113s43 -113 114 -113c69 0 113 43 113 113s-44 113 -113 113z" />
    <glyph glyph-name="parenleft" unicode="(" horiz-adv-x="314" 
d="M127 -116c-35 48 -37 107 -37 167v462c0 60 2 119 37 167c36 50 91 78 153 95v-61c-111 -43 -128 -101 -128 -214v-436c0 -113 17 -171 128 -214v-61c-62 17 -117 45 -153 95z" />
    <glyph glyph-name="parenright" unicode=")" horiz-adv-x="314" 
d="M34 714v61c62 -17 117 -45 153 -95c35 -48 37 -107 37 -167v-462c0 -60 -2 -119 -37 -167c-36 -50 -91 -78 -153 -95v61c111 43 128 101 128 214v436c0 113 -17 171 -128 214z" />
    <glyph glyph-name="bracketleft" unicode="[" horiz-adv-x="322" 
d="M284 -192h-182v946h182v-57h-120v-832h120v-57z" />
    <glyph glyph-name="bracketright" unicode="]" horiz-adv-x="322" 
d="M158 697h-120v57h182v-946h-182v57h120v832z" />
    <glyph glyph-name="braceleft" unicode="{" horiz-adv-x="340" 
d="M34 309c18 6 30 10 48 17c28 11 43 28 43 66v248c0 92 49 114 132 114h46v-56h-46c-64 0 -70 -35 -70 -89v-219c0 -59 -26 -94 -81 -109c57 -17 81 -50 81 -111v-217c0 -56 7 -89 70 -89h46v-56h-46c-83 0 -132 27 -132 116v244c0 41 -11 55 -43 68c-17 7 -29 11 -48 17
v56z" />
    <glyph glyph-name="braceright" unicode="}" horiz-adv-x="340" 
d="M83 698h-46v56h46c83 0 132 -22 132 -114v-248c0 -38 15 -55 43 -66c18 -7 30 -11 48 -17v-56c-19 -6 -31 -10 -48 -17c-32 -13 -43 -27 -43 -68v-244c0 -43 -11 -75 -33 -91c-19 -14 -61 -25 -99 -25h-46v56h46c63 0 70 33 70 89v217c0 61 24 94 81 111
c-55 15 -81 51 -81 109v219c0 54 -6 89 -70 89z" />
    <glyph glyph-name="asterisk" unicode="*" horiz-adv-x="541" 
d="M244 508l-149 -87v66l121 69l-121 69v66l149 -87l-2 150h57l-2 -150l149 87v-66l-121 -69l121 -69v-66l-149 87l2 -150h-57z" />
    <glyph glyph-name="dagger" unicode="&#x2020;" 
d="M258 468h-193v60h193v226h62v-226h193v-60h-193v-564h-62v564z" />
    <glyph glyph-name="daggerdbl" unicode="&#x2021;" 
d="M65 468v60h193v226h62v-226h193v-60h-193v-278h193v-60h-193v-226h-62v226h-193v60h193v278h-193z" />
    <glyph glyph-name="period" unicode="." horiz-adv-x="253" 
d="M168 0h-83v136h83v-136z" />
    <glyph glyph-name="comma" unicode="," horiz-adv-x="253" 
d="M119 -173h-54c15 65 26 113 26 223v86h77v-112c0 -77 -26 -141 -49 -197z" />
    <glyph glyph-name="colon" unicode=":" horiz-adv-x="253" 
d="M168 0h-83v136h83v-136zM168 392h-83v136h83v-136z" />
    <glyph glyph-name="semicolon" unicode=";" horiz-adv-x="253" 
d="M119 -173h-54c15 65 26 113 26 223v86h77v-112c0 -77 -26 -141 -49 -197zM85 392v136h83v-136h-83z" />
    <glyph glyph-name="ellipsis" unicode="&#x2026;" horiz-adv-x="819" 
d="M651 0v136h83v-136h-83zM368 136h83v-136h-83v136zM85 0v136h83v-136h-83z" />
    <glyph glyph-name="periodcentered" unicode="&#xb7;" horiz-adv-x="253" 
d="M168 196h-83v136h83v-136z" />
    <glyph glyph-name="bullet" unicode="&#x2022;" horiz-adv-x="466" 
d="M96 377c0 88 44 133 137 133s137 -45 137 -133s-44 -133 -137 -133s-137 45 -137 133z" />
    <glyph glyph-name="slash" unicode="/" horiz-adv-x="372" 
d="M79 0h-67l281 754h67z" />
    <glyph glyph-name="backslash" unicode="\" horiz-adv-x="372" 
d="M360 0h-67l-281 754h67z" />
    <glyph glyph-name="bar" unicode="|" horiz-adv-x="258" 
d="M158 -192h-58v946h58v-946z" />
    <glyph glyph-name="brokenbar" unicode="&#xa6;" horiz-adv-x="258" 
d="M158 336h-58v418h58v-418zM158 -192h-58v418h58v-418z" />
    <glyph glyph-name="underscore" unicode="_" horiz-adv-x="500" 
d="M500 -115h-500v60h500v-60z" />
    <glyph glyph-name="hyphen" unicode="-" horiz-adv-x="410" 
d="M340 233h-270v62h270v-62z" />
    <glyph glyph-name="endash" unicode="&#x2013;" horiz-adv-x="600" 
d="M550 234h-500v60h500v-60z" />
    <glyph glyph-name="emdash" unicode="&#x2014;" horiz-adv-x="1000" 
d="M1000 234h-1000v60h1000v-60z" />
    <glyph glyph-name="zero" unicode="0" horiz-adv-x="655" 
d="M145 59c-44 64 -55 175 -55 318c0 181 1 394 236 394c84 0 147 -26 186 -89c42 -68 53 -176 53 -299c0 -130 -9 -237 -49 -306c-36 -62 -97 -94 -190 -94c-84 0 -145 23 -181 76zM154 377c0 -126 7 -228 42 -281c26 -40 71 -53 131 -53s111 18 138 72
c28 56 36 146 36 266c0 124 -12 219 -43 269c-25 41 -73 61 -133 61c-54 0 -100 -17 -127 -54c-38 -52 -44 -143 -44 -280z" />
    <glyph glyph-name="one" unicode="1" horiz-adv-x="357" 
d="M247 0h-62v690l-183 -59v64l245 79v-774z" />
    <glyph glyph-name="two" unicode="2" horiz-adv-x="554" 
d="M25 64c102 114 259 295 301 347c52 65 86 110 86 176c0 100 -62 124 -153 124c-62 0 -162 -26 -202 -37v61c42 12 138 36 202 36c128 0 217 -46 217 -184c0 -77 -36 -138 -97 -213c-102 -125 -226 -261 -275 -314h401v-60h-480v64z" />
    <glyph glyph-name="three" unicode="3" horiz-adv-x="577" 
d="M45 66c51 -9 131 -23 192 -23c108 0 188 37 188 158c0 69 -25 112 -73 139c-27 15 -56 17 -102 17h-129v60h207l44 61c31 43 47 78 47 116c0 98 -77 117 -161 117c-72 0 -166 -23 -207 -33v61c47 12 139 32 207 32c91 0 141 -15 181 -55c31 -31 44 -77 44 -121
c0 -43 -16 -85 -47 -132c-18 -27 -38 -54 -50 -70c71 -42 103 -107 103 -190c0 -60 -19 -118 -57 -157c-45 -46 -106 -63 -195 -63c-69 0 -148 14 -192 22v61z" />
    <glyph glyph-name="four" unicode="4" horiz-adv-x="606" 
d="M47 169v60l352 525h77l-351 -524h326v185h62v-415h-62v169h-404z" />
    <glyph glyph-name="five" unicode="5" horiz-adv-x="582" 
d="M88 3v61c55 -10 117 -21 178 -21c121 0 182 55 182 178c0 161 -123 161 -252 161h-97v372h389v-60h-327v-252h81c152 0 270 -44 270 -220c0 -160 -88 -239 -246 -239c-67 0 -128 11 -178 20z" />
    <glyph glyph-name="six" unicode="6" horiz-adv-x="624" 
d="M319 -17c-188 0 -232 120 -232 285c0 103 4 272 110 372c77 72 198 108 309 127v-61c-160 -30 -316 -86 -342 -267c24 1 81 3 132 3c154 0 257 -49 257 -217c0 -153 -76 -242 -234 -242zM156 380c-3 -28 -5 -60 -5 -112c0 -125 19 -225 168 -225c122 0 170 65 170 182
c0 133 -78 158 -197 158c-51 0 -108 -2 -136 -3z" />
    <glyph glyph-name="seven" unicode="7" horiz-adv-x="513" 
d="M137 0h-72l350 694h-400v60h471v-61z" />
    <glyph glyph-name="eight" unicode="8" horiz-adv-x="685" 
d="M88 195c0 92 49 147 118 199c-76 32 -94 103 -94 179c0 145 103 198 234 198c129 0 227 -62 227 -198c0 -89 -41 -134 -99 -192c81 -38 123 -93 123 -186c0 -154 -115 -212 -254 -212c-151 0 -255 45 -255 212zM152 195c0 -50 8 -88 41 -115c35 -28 83 -37 150 -37
c103 0 190 35 190 152c0 53 -18 93 -69 120c-45 24 -114 39 -197 57c-58 -47 -115 -96 -115 -177zM345 711c-96 0 -169 -33 -169 -138c0 -59 10 -98 46 -118s122 -39 192 -54c20 21 41 43 62 71c23 31 33 62 33 101c0 102 -70 138 -164 138z" />
    <glyph glyph-name="nine" unicode="9" horiz-adv-x="624" 
d="M296 305c-162 0 -225 60 -225 218c0 152 62 248 227 248c228 0 239 -207 239 -386c0 -84 -2 -132 -14 -190c-29 -140 -120 -212 -263 -212c-59 0 -119 11 -165 20v61c46 -9 109 -21 165 -21c51 0 96 12 127 35c67 49 86 163 86 241c-45 -6 -118 -14 -177 -14zM298 711
c-129 0 -163 -72 -163 -188c0 -120 38 -158 162 -158c57 0 132 8 176 14c0 104 -4 203 -38 264c-27 48 -76 68 -137 68z" />
    <glyph glyph-name="zero.tf" horiz-adv-x="650" 
d="M150 59c-44 64 -55 174 -55 318c0 174 0 394 229 394c221 0 231 -217 231 -388c0 -130 -9 -237 -49 -306c-36 -62 -88 -94 -182 -94c-83 0 -138 23 -174 76zM159 377c0 -126 7 -228 42 -281c26 -40 65 -53 124 -53s102 18 130 72c28 55 36 146 36 266
c0 124 -12 219 -43 269c-25 41 -66 61 -125 61c-53 0 -93 -17 -120 -54c-38 -52 -44 -143 -44 -280z" />
    <glyph glyph-name="one.tf" horiz-adv-x="650" 
d="M340 690l-225 -72v64l287 92v-714h139v-60h-370v60h169v630z" />
    <glyph glyph-name="two.tf" horiz-adv-x="650" 
d="M75 64c102 114 259 295 301 347c52 65 86 110 86 176c0 100 -62 124 -153 124c-62 0 -162 -26 -202 -37v61c42 12 138 36 202 36c128 0 217 -46 217 -184c0 -77 -36 -138 -97 -213c-102 -125 -226 -261 -275 -314h401v-60h-480v64z" />
    <glyph glyph-name="three.tf" horiz-adv-x="650" 
d="M93 66c51 -9 131 -23 192 -23c108 0 188 37 188 158c0 69 -25 112 -73 139c-27 15 -56 17 -102 17h-129v60h207l44 61c31 43 47 78 47 116c0 98 -77 117 -161 117c-72 0 -166 -23 -207 -33v61c46 12 141 32 207 32c91 0 141 -15 181 -55c31 -31 44 -77 44 -121
c0 -43 -16 -85 -47 -132c-18 -27 -38 -54 -50 -70c71 -42 103 -107 103 -190c0 -60 -19 -118 -57 -157c-45 -46 -106 -63 -195 -63c-70 0 -148 14 -192 22v61z" />
    <glyph glyph-name="four.tf" horiz-adv-x="650" 
d="M52 169v60l352 525h77l-351 -524h326v185h62v-415h-62v169h-404z" />
    <glyph glyph-name="five.tf" horiz-adv-x="650" 
d="M104 3v61c55 -10 122 -21 183 -21c123 0 187 52 187 178c0 53 -14 98 -49 125s-89 36 -206 36h-104v372h399v-60h-337v-252h86c154 0 275 -41 275 -220c0 -163 -91 -239 -251 -239c-68 0 -131 11 -183 20z" />
    <glyph glyph-name="six.tf" horiz-adv-x="650" 
d="M330 -17c-184 0 -227 124 -227 285c0 103 3 272 109 372c77 72 189 108 300 127v-61c-158 -29 -306 -91 -332 -267c24 1 76 3 127 3c100 0 159 -18 201 -63c36 -39 51 -95 51 -154c0 -150 -71 -242 -229 -242zM172 380c-3 -28 -5 -60 -5 -112c0 -121 18 -225 163 -225
c120 0 165 69 165 182c0 130 -74 158 -192 158c-51 0 -105 -2 -131 -3z" />
    <glyph glyph-name="seven.tf" horiz-adv-x="650" 
d="M205 0h-74l368 694h-441v60h514v-61z" />
    <glyph glyph-name="eight.tf" horiz-adv-x="650" 
d="M80 192c0 92 49 146 117 199c-78 32 -94 104 -94 182c0 141 96 198 226 198c127 0 218 -65 218 -197c0 -89 -41 -134 -99 -192c82 -38 122 -93 122 -187c0 -60 -19 -113 -60 -152c-46 -44 -103 -60 -184 -60c-146 0 -246 49 -246 209zM144 192c0 -122 72 -149 182 -149
c101 0 180 40 180 152c0 53 -18 94 -69 122c-44 24 -96 35 -177 52c-59 -47 -116 -95 -116 -177zM167 573c0 -59 10 -101 46 -121c34 -19 101 -34 175 -50c20 21 41 43 62 71c23 31 33 62 33 101c0 98 -62 137 -155 137c-96 0 -161 -35 -161 -138z" />
    <glyph glyph-name="nine.tf" horiz-adv-x="650" 
d="M309 305c-159 0 -218 64 -218 218c0 149 60 248 222 248c86 0 146 -31 181 -88c39 -64 53 -164 53 -298c0 -84 -2 -132 -14 -190c-28 -137 -117 -212 -258 -212c-58 0 -114 11 -160 20v61c45 -9 105 -21 160 -21c162 0 208 130 208 275c-46 -6 -115 -13 -174 -13z
M313 711c-126 0 -158 -76 -158 -188c0 -115 34 -158 155 -158c57 0 126 7 173 13c0 104 -4 204 -38 265c-27 48 -71 68 -132 68z" />
    <glyph glyph-name="percent" unicode="%" horiz-adv-x="1034" 
d="M75 541c0 85 4 133 31 171c23 33 71 53 125 53c142 0 157 -108 157 -224c0 -112 -22 -217 -157 -217c-143 0 -156 95 -156 217zM646 206c0 85 4 133 31 171c23 33 71 53 125 53c142 0 157 -108 157 -224c0 -112 -22 -217 -157 -217c-143 0 -156 95 -156 217zM726 347
c-22 -28 -22 -68 -22 -141c0 -61 2 -107 21 -134c16 -22 38 -28 77 -28c98 0 99 86 99 162c0 66 -2 107 -21 135c-16 24 -42 34 -79 34c-33 0 -59 -7 -75 -28zM133 541c0 -61 2 -107 21 -134c16 -22 38 -28 77 -28c98 0 99 86 99 162c0 66 -2 107 -21 135
c-16 24 -42 34 -79 34c-33 0 -59 -7 -75 -28c-22 -28 -22 -68 -22 -141zM370 0h-66l370 754h66z" />
    <glyph glyph-name="perthousand" unicode="&#x2030;" horiz-adv-x="1442" 
d="M802 -11c-143 0 -156 95 -156 217c0 85 4 133 31 171c23 33 71 53 125 53c142 0 157 -108 157 -224c0 -112 -22 -217 -157 -217zM1210 -11c-143 0 -156 95 -156 217c0 85 4 133 31 171c23 33 71 53 125 53c142 0 157 -108 157 -224c0 -112 -22 -217 -157 -217zM231 324
c-143 0 -156 95 -156 217c0 85 4 133 31 171c23 33 71 53 125 53c142 0 157 -108 157 -224c0 -112 -22 -217 -157 -217zM1134 347c-22 -28 -22 -68 -22 -141c0 -61 2 -107 21 -134c16 -22 38 -28 77 -28c98 0 99 86 99 162c0 66 -2 107 -21 135c-16 24 -42 34 -79 34
c-33 0 -59 -7 -75 -28zM155 682c-22 -28 -22 -68 -22 -141c0 -61 2 -107 21 -134c16 -22 38 -28 77 -28c98 0 99 86 99 162c0 66 -2 107 -21 135c-16 24 -42 34 -79 34c-33 0 -59 -7 -75 -28zM704 206c0 -61 2 -107 21 -134c16 -22 38 -28 77 -28c98 0 99 86 99 162
c0 66 -2 107 -21 135c-16 24 -42 34 -79 34c-33 0 -59 -7 -75 -28c-22 -28 -22 -68 -22 -141zM370 0h-66l370 754h66z" />
    <glyph glyph-name="onequarter" unicode="&#xbc;" horiz-adv-x="832" 
d="M143 0l370 754h66l-370 -754h-66zM460 146l203 273h72l-203 -273h165v89h57v-235h-57v91h-237v55zM27 713l175 54v-432h-57v356l-118 -36v58z" />
    <glyph glyph-name="onehalf" unicode="&#xbd;" horiz-adv-x="821" 
d="M470 0v58c52 49 139 133 182 179c32 34 42 56 42 79c0 46 -31 59 -73 59c-56 0 -115 -15 -138 -21v56c25 7 85 20 138 20c72 0 131 -32 131 -111c0 -43 -13 -71 -49 -110c-58 -62 -124 -124 -158 -154h229v-55h-304zM209 0h-66l370 754h66zM27 713l175 54v-432h-57v356
l-118 -36v58z" />
    <glyph glyph-name="threequarters" unicode="&#xbe;" horiz-adv-x="968" 
d="M56 339v56c33 -6 88 -16 129 -16c50 0 100 8 100 70c0 61 -46 69 -95 69h-92v55h143l16 21c16 21 24 36 24 59c0 52 -44 57 -86 57c-53 0 -111 -14 -136 -20v56c27 7 87 19 136 19c70 0 143 -23 143 -106c0 -40 -25 -77 -50 -107c38 -25 55 -55 55 -102
c0 -97 -72 -126 -158 -126c-43 0 -101 10 -129 15zM279 0l370 754h66l-370 -754h-66zM596 146l203 273h72l-203 -273h165v89h57v-235h-57v91h-237v55z" />
    <glyph glyph-name="onethird" unicode="&#x2153;" horiz-adv-x="848" 
d="M486 4v56c33 -6 88 -16 129 -16c50 0 100 8 100 70c0 61 -46 69 -95 69h-92v55h143l16 21c16 21 24 36 24 59c0 52 -44 57 -86 57c-53 0 -111 -14 -136 -20v56c27 7 87 19 136 19c70 0 143 -23 143 -106c0 -40 -25 -77 -50 -107c38 -25 55 -55 55 -102
c0 -97 -72 -126 -158 -126c-43 0 -101 10 -129 15zM209 0h-66l370 754h66zM145 691l-118 -36v58l175 54v-432h-57v356z" />
    <glyph glyph-name="twothirds" unicode="&#x2154;" horiz-adv-x="957" 
d="M595 4v56c33 -6 88 -16 129 -16c50 0 100 8 100 70c0 61 -46 69 -95 69h-92v55h143l16 21c16 21 24 36 24 59c0 52 -44 57 -86 57c-53 0 -111 -14 -136 -20v56c27 7 87 19 136 19c70 0 143 -23 143 -106c0 -40 -25 -77 -50 -107c38 -25 55 -55 55 -102
c0 -97 -72 -126 -158 -126c-43 0 -101 10 -129 15zM40 335v58c52 49 139 133 182 179c32 34 42 56 42 79c0 46 -31 59 -73 59c-56 0 -115 -15 -138 -21v56c25 7 85 20 138 20c72 0 131 -32 131 -111c0 -43 -13 -71 -49 -110c-58 -62 -124 -124 -158 -154h229v-55h-304z
M252 0l370 754h66l-370 -754h-66z" />
    <glyph glyph-name="oneeighth" unicode="&#x215b;" horiz-adv-x="906" 
d="M504 110c0 51 33 77 71 102c-43 20 -55 57 -55 103c0 88 75 115 150 115c76 0 148 -29 148 -115c0 -45 -31 -76 -60 -105c45 -17 74 -48 74 -99c0 -93 -82 -122 -162 -122c-85 0 -166 21 -166 121zM143 0l370 754h66l-370 -754h-66zM27 713l175 54v-432h-57v356l-118 -36
v58zM561 111c0 -62 60 -68 109 -68c46 0 105 8 105 67c0 26 -14 44 -50 56c-27 9 -65 17 -103 25c-26 -18 -61 -46 -61 -80zM577 315c0 -37 11 -51 33 -62c21 -10 56 -17 97 -25c8 8 24 25 35 39s19 29 19 48c0 52 -49 61 -91 61s-93 -9 -93 -61z" />
    <glyph glyph-name="threeeighths" unicode="&#x215c;" horiz-adv-x="1042" 
d="M806 -11c-85 0 -166 21 -166 121c0 51 33 77 71 102c-43 20 -55 57 -55 103c0 88 75 115 150 115c76 0 148 -29 148 -115c0 -45 -31 -76 -60 -105c45 -17 74 -48 74 -99c0 -93 -82 -122 -162 -122zM56 395c33 -6 88 -16 129 -16c50 0 100 8 100 70c0 61 -46 69 -95 69
h-92v55h143l16 21c16 21 24 36 24 59c0 52 -44 57 -86 57c-53 0 -111 -14 -136 -20v56c27 7 87 19 136 19c70 0 143 -23 143 -106c0 -40 -25 -77 -50 -107c38 -25 55 -55 55 -102c0 -97 -72 -126 -158 -126c-43 0 -101 10 -129 15v56zM279 0l370 754h66l-370 -754h-66z
M758 191c-26 -18 -61 -46 -61 -80c0 -62 60 -68 109 -68c46 0 105 8 105 67c0 26 -14 44 -50 56c-27 9 -65 17 -103 25zM806 376c-42 0 -93 -9 -93 -61c0 -37 11 -51 33 -62c21 -10 56 -17 97 -25c8 8 24 25 35 39s19 29 19 48c0 52 -49 61 -91 61z" />
    <glyph glyph-name="fiveeighths" unicode="&#x215d;" horiz-adv-x="1037" 
d="M801 -11c-85 0 -166 21 -166 121c0 51 33 77 71 102c-43 20 -55 57 -55 103c0 88 75 115 150 115c76 0 148 -29 148 -115c0 -45 -31 -76 -60 -105c45 -17 74 -48 74 -99c0 -93 -82 -122 -162 -122zM191 324c-46 0 -88 7 -118 12v56c34 -6 75 -13 118 -13
c61 0 101 12 101 79c0 21 -8 39 -23 50c-21 15 -53 18 -128 18h-62v228h253v-55h-197v-118h47c50 0 89 -7 112 -20c36 -20 56 -60 56 -103c0 -102 -65 -134 -159 -134zM274 0l370 754h66l-370 -754h-66zM692 111c0 -62 60 -68 109 -68c46 0 105 8 105 67c0 26 -14 44 -50 56
c-27 9 -65 17 -103 25c-26 -18 -61 -46 -61 -80zM801 376c-42 0 -93 -9 -93 -61c0 -37 11 -51 33 -62c21 -10 56 -17 97 -25c8 8 24 25 35 39s19 29 19 48c0 52 -49 61 -91 61z" />
    <glyph glyph-name="seveneighths" unicode="&#x215e;" horiz-adv-x="974" 
d="M572 110c0 51 33 77 71 102c-43 20 -55 57 -55 103c0 88 75 115 150 115c76 0 148 -29 148 -115c0 -45 -31 -76 -60 -105c45 -17 74 -48 74 -99c0 -93 -82 -122 -162 -122c-85 0 -166 21 -166 121zM277 0h-66l370 754h66zM12 754h315v-55l-202 -364h-67l203 364h-249v55z
M629 111c0 -62 60 -68 109 -68c46 0 105 8 105 67c0 26 -14 44 -50 56c-27 9 -65 17 -103 25c-26 -18 -61 -46 -61 -80zM645 315c0 -37 11 -51 33 -62c21 -10 56 -17 97 -25c8 8 24 25 35 39s19 29 19 48c0 52 -49 61 -91 61s-93 -9 -93 -61z" />
    <glyph glyph-name="uni215F" unicode="&#x215f;" horiz-adv-x="430" 
d="M209 0h-66l370 754h66zM202 335h-57v356l-118 -36v58l175 54v-432z" />
    <glyph glyph-name="fraction" unicode="&#x2044;" horiz-adv-x="148" 
d="M-73 0h-66l370 754h66z" />
    <glyph glyph-name="uni2070" unicode="&#x2070;" horiz-adv-x="443" 
d="M221 439c-143 0 -156 95 -156 217c0 85 4 133 31 171c23 33 71 53 125 53c142 0 157 -108 157 -224c0 -112 -22 -217 -157 -217zM123 656c0 -61 2 -107 21 -134c16 -22 38 -28 77 -28c98 0 99 86 99 162c0 66 -2 107 -21 135c-16 24 -42 34 -79 34c-33 0 -59 -7 -75 -28
c-22 -28 -22 -68 -22 -141z" />
    <glyph glyph-name="onesuperior" unicode="&#xb9;" horiz-adv-x="282" 
d="M202 450h-57v356l-118 -36v58l175 54v-432z" />
    <glyph glyph-name="twosuperior" unicode="&#xb2;" horiz-adv-x="391" 
d="M40 508c52 49 139 133 182 179c32 34 42 56 42 79c0 46 -31 59 -73 59c-56 0 -115 -15 -138 -21v56c25 7 85 20 138 20c72 0 131 -32 131 -111c0 -43 -13 -71 -49 -110c-58 -62 -124 -124 -158 -154h229v-55h-304v58z" />
    <glyph glyph-name="threesuperior" unicode="&#xb3;" horiz-adv-x="418" 
d="M56 510c33 -6 88 -16 129 -16c50 0 100 8 100 70c0 61 -46 69 -95 69h-92v55h143l16 21c16 21 24 36 24 59c0 52 -44 57 -86 57c-53 0 -111 -14 -136 -20v56c27 7 87 19 136 19c70 0 143 -23 143 -106c0 -40 -25 -77 -50 -107c38 -25 55 -55 55 -102
c0 -97 -72 -126 -158 -126c-43 0 -101 10 -129 15v56z" />
    <glyph glyph-name="uni2074" unicode="&#x2074;" horiz-adv-x="402" 
d="M30 541v55l203 273h72l-203 -273h165v89h57v-235h-57v91h-237z" />
    <glyph glyph-name="uni2075" unicode="&#x2075;" horiz-adv-x="413" 
d="M73 451v56c34 -6 75 -13 118 -13c61 0 101 12 101 79c0 21 -8 39 -23 50c-21 15 -53 18 -128 18h-62v228h253v-55h-197v-118h47c50 0 89 -7 112 -20c36 -20 56 -60 56 -103c0 -102 -65 -134 -159 -134c-46 0 -88 7 -118 12z" />
    <glyph glyph-name="uni2076" unicode="&#x2076;" horiz-adv-x="430" 
d="M217 439c-103 0 -152 52 -152 153c0 99 10 165 73 215c49 39 116 59 203 74v-57c-71 -12 -194 -41 -210 -126c30 1 69 2 100 2c87 0 141 -36 141 -127s-70 -134 -155 -134zM124 645c-2 -16 -2 -33 -2 -52c0 -68 25 -99 95 -99c53 0 97 20 97 79c0 56 -30 74 -83 74
c-42 0 -78 -1 -107 -2z" />
    <glyph glyph-name="uni2077" unicode="&#x2077;" horiz-adv-x="350" 
d="M125 450h-67l203 364h-249v55h315v-55z" />
    <glyph glyph-name="uni2078" unicode="&#x2078;" horiz-adv-x="476" 
d="M240 439c-85 0 -166 21 -166 121c0 51 33 77 71 102c-43 20 -55 57 -55 103c0 88 75 115 150 115c76 0 148 -29 148 -115c0 -45 -31 -76 -60 -105c45 -17 74 -48 74 -99c0 -93 -82 -122 -162 -122zM131 561c0 -62 60 -68 109 -68c46 0 105 8 105 67c0 26 -14 44 -50 56
c-27 9 -65 17 -103 25c-26 -18 -61 -46 -61 -80zM240 826c-42 0 -93 -9 -93 -61c0 -37 11 -51 33 -62c21 -10 56 -17 97 -25c8 8 24 25 35 39s19 29 19 48c0 52 -49 61 -91 61z" />
    <glyph glyph-name="uni2079" unicode="&#x2079;" horiz-adv-x="430" 
d="M194 606c-95 0 -136 36 -136 132c0 92 58 142 150 142c132 0 158 -95 158 -208c0 -67 0 -148 -55 -196c-26 -23 -65 -37 -116 -37c-49 0 -78 5 -117 12v56c33 -6 72 -13 117 -13c78 0 113 42 113 121c-29 -4 -78 -9 -114 -9zM116 738c0 -61 20 -79 81 -79
c38 0 77 4 111 10c0 78 -2 156 -100 156c-61 0 -92 -24 -92 -87z" />
    <glyph glyph-name="uni207D" unicode="&#x207d;" horiz-adv-x="266" 
d="M112 416c-35 48 -37 110 -37 170v147c0 60 2 122 37 170c30 41 73 68 129 82v-57c-102 -39 -108 -108 -108 -208v-121c0 -100 6 -169 108 -208v-57c-56 14 -99 41 -129 82z" />
    <glyph glyph-name="uni207E" unicode="&#x207e;" horiz-adv-x="266" 
d="M25 928v57c56 -14 99 -41 129 -82c35 -48 37 -110 37 -170v-147c0 -60 -2 -122 -37 -170c-30 -41 -73 -68 -129 -82v57c102 39 108 108 108 208v121c0 100 -6 169 -108 208z" />
    <glyph glyph-name="uni2071" unicode="&#x2071;" horiz-adv-x="222" 
d="M140 450h-58v313h58v-313zM142 830h-62v109h62v-109z" />
    <glyph glyph-name="uni207F" unicode="&#x207f;" horiz-adv-x="449" 
d="M80 450v313h58v-28c35 16 79 36 116 36c91 0 116 -40 116 -126v-195h-58v179c0 46 -1 88 -58 88c-41 0 -89 -23 -116 -36v-231h-58z" />
    <glyph glyph-name="uni2080" unicode="&#x2080;" horiz-adv-x="443" 
d="M221 -141c-143 0 -156 95 -156 217c0 85 4 133 31 171c23 33 71 53 125 53c142 0 157 -108 157 -224c0 -112 -22 -217 -157 -217zM123 76c0 -61 2 -107 21 -134c16 -22 38 -28 77 -28c98 0 99 86 99 162c0 66 -2 107 -21 135c-16 24 -42 34 -79 34c-33 0 -59 -7 -75 -28
c-22 -28 -22 -68 -22 -141z" />
    <glyph glyph-name="uni2081" unicode="&#x2081;" horiz-adv-x="282" 
d="M202 -130h-57v356l-118 -36v58l175 54v-432z" />
    <glyph glyph-name="uni2082" unicode="&#x2082;" horiz-adv-x="391" 
d="M40 -72c52 49 139 133 182 179c32 34 42 56 42 79c0 46 -31 59 -73 59c-56 0 -115 -15 -138 -21v56c25 7 85 20 138 20c72 0 131 -32 131 -111c0 -43 -13 -71 -49 -110c-58 -62 -124 -124 -158 -154h229v-55h-304v58z" />
    <glyph glyph-name="uni2083" unicode="&#x2083;" horiz-adv-x="418" 
d="M56 -70c33 -6 88 -16 129 -16c50 0 100 8 100 70c0 61 -46 69 -95 69h-92v55h143l16 21c16 21 24 36 24 59c0 52 -44 57 -86 57c-53 0 -111 -14 -136 -20v56c27 7 87 19 136 19c70 0 143 -23 143 -106c0 -40 -25 -77 -50 -107c38 -25 55 -55 55 -102
c0 -97 -72 -126 -158 -126c-43 0 -101 10 -129 15v56z" />
    <glyph glyph-name="uni2084" unicode="&#x2084;" horiz-adv-x="402" 
d="M30 -40v55l203 273h72l-203 -273h165v89h57v-235h-57v91h-237z" />
    <glyph glyph-name="uni2085" unicode="&#x2085;" horiz-adv-x="413" 
d="M73 -129v56c34 -6 75 -13 118 -13c61 0 101 12 101 79c0 21 -8 39 -23 50c-21 15 -53 18 -128 18h-62v228h253v-55h-197v-118h47c50 0 89 -7 112 -20c36 -20 56 -60 56 -103c0 -102 -65 -134 -159 -134c-46 0 -88 7 -118 12z" />
    <glyph glyph-name="uni2086" unicode="&#x2086;" horiz-adv-x="430" 
d="M217 -141c-103 0 -152 52 -152 153c0 99 10 165 73 215c49 39 116 59 203 74v-57c-71 -12 -194 -41 -210 -126c30 1 69 2 100 2c87 0 141 -36 141 -127s-70 -134 -155 -134zM124 65c-2 -16 -2 -33 -2 -52c0 -68 25 -99 95 -99c53 0 97 20 97 79c0 56 -30 74 -83 74
c-42 0 -78 -1 -107 -2z" />
    <glyph glyph-name="uni2087" unicode="&#x2087;" horiz-adv-x="350" 
d="M125 -130h-67l203 364h-249v55h315v-55z" />
    <glyph glyph-name="uni2088" unicode="&#x2088;" horiz-adv-x="476" 
d="M240 -141c-85 0 -166 21 -166 121c0 51 33 77 71 102c-43 20 -55 57 -55 103c0 88 75 115 150 115c76 0 148 -29 148 -115c0 -45 -31 -76 -60 -105c45 -17 74 -48 74 -99c0 -93 -82 -122 -162 -122zM131 -19c0 -62 60 -68 109 -68c46 0 105 8 105 67c0 26 -14 44 -50 56
c-27 9 -65 17 -103 25c-26 -18 -61 -46 -61 -80zM240 246c-42 0 -93 -9 -93 -61c0 -37 11 -51 33 -62c21 -10 56 -17 97 -25c8 8 24 25 35 39s19 29 19 48c0 52 -49 61 -91 61z" />
    <glyph glyph-name="uni2089" unicode="&#x2089;" horiz-adv-x="430" 
d="M194 26c-95 0 -136 36 -136 132c0 92 58 142 150 142c132 0 158 -95 158 -208c0 -67 0 -148 -55 -196c-26 -23 -65 -37 -116 -37c-49 0 -78 5 -117 12v56c33 -6 72 -13 117 -13c78 0 113 42 113 121c-29 -4 -78 -9 -114 -9zM116 158c0 -61 20 -79 81 -79
c38 0 77 4 111 10c0 78 -2 156 -100 156c-61 0 -92 -24 -92 -87z" />
    <glyph glyph-name="uni208D" unicode="&#x208d;" horiz-adv-x="266" 
d="M112 -164c-35 48 -37 110 -37 170v147c0 60 2 122 37 170c30 41 73 68 129 82v-57c-102 -39 -108 -108 -108 -208v-121c0 -100 6 -169 108 -208v-57c-56 14 -99 41 -129 82z" />
    <glyph glyph-name="uni208E" unicode="&#x208e;" horiz-adv-x="266" 
d="M25 348v57c56 -14 99 -41 129 -82c35 -48 37 -110 37 -170v-147c0 -60 -2 -122 -37 -170c-30 -41 -73 -68 -129 -82v57c102 39 108 108 108 208v121c0 100 -6 169 -108 208z" />
    <glyph glyph-name="uni2093" unicode="&#x2093;" horiz-adv-x="381" 
d="M97 -130h-70l124 160l-120 153h72l85 -110l86 110h70l-117 -149l127 -164h-71l-93 121z" />
    <glyph glyph-name="zero.numr" horiz-adv-x="443" 
d="M221 324c-143 0 -156 95 -156 217c0 85 4 133 31 171c23 33 71 53 125 53c142 0 157 -108 157 -224c0 -112 -22 -217 -157 -217zM123 541c0 -61 2 -107 21 -134c16 -22 38 -28 77 -28c98 0 99 86 99 162c0 66 -2 107 -21 135c-16 24 -42 34 -79 34c-33 0 -59 -7 -75 -28
c-22 -28 -22 -68 -22 -141z" />
    <glyph glyph-name="one.numr" horiz-adv-x="282" 
d="M202 335h-57v356l-118 -36v58l175 54v-432z" />
    <glyph glyph-name="two.numr" horiz-adv-x="391" 
d="M40 393c52 49 139 133 182 179c32 34 42 56 42 79c0 46 -31 59 -73 59c-56 0 -115 -15 -138 -21v56c25 7 85 20 138 20c72 0 131 -32 131 -111c0 -43 -13 -71 -49 -110c-58 -62 -124 -124 -158 -154h229v-55h-304v58z" />
    <glyph glyph-name="three.numr" horiz-adv-x="418" 
d="M56 395c33 -6 88 -16 129 -16c50 0 100 8 100 70c0 61 -46 69 -95 69h-92v55h143l16 21c16 21 24 36 24 59c0 52 -44 57 -86 57c-53 0 -111 -14 -136 -20v56c27 7 87 19 136 19c70 0 143 -23 143 -106c0 -40 -25 -77 -50 -107c38 -25 55 -55 55 -102
c0 -97 -72 -126 -158 -126c-43 0 -101 10 -129 15v56z" />
    <glyph glyph-name="four.numr" horiz-adv-x="402" 
d="M30 426v55l203 273h72l-203 -273h165v89h57v-235h-57v91h-237z" />
    <glyph glyph-name="five.numr" horiz-adv-x="413" 
d="M73 336v56c34 -6 75 -13 118 -13c61 0 101 12 101 79c0 21 -8 39 -23 50c-21 15 -53 18 -128 18h-62v228h253v-55h-197v-118h47c50 0 89 -7 112 -20c36 -20 56 -60 56 -103c0 -102 -65 -134 -159 -134c-46 0 -88 7 -118 12z" />
    <glyph glyph-name="six.numr" horiz-adv-x="430" 
d="M217 324c-103 0 -152 52 -152 153c0 99 10 165 73 215c49 39 116 59 203 74v-57c-71 -12 -194 -41 -210 -126c30 1 69 2 100 2c87 0 141 -36 141 -127s-70 -134 -155 -134zM124 530c-2 -16 -2 -33 -2 -52c0 -68 25 -99 95 -99c53 0 97 20 97 79c0 56 -30 74 -83 74
c-42 0 -78 -1 -107 -2z" />
    <glyph glyph-name="seven.numr" horiz-adv-x="350" 
d="M125 335h-67l203 364h-249v55h315v-55z" />
    <glyph glyph-name="eight.numr" horiz-adv-x="476" 
d="M240 324c-85 0 -166 21 -166 121c0 51 33 77 71 102c-43 20 -55 57 -55 103c0 88 75 115 150 115c76 0 148 -29 148 -115c0 -45 -31 -76 -60 -105c45 -17 74 -48 74 -99c0 -93 -82 -122 -162 -122zM131 446c0 -62 60 -68 109 -68c46 0 105 8 105 67c0 26 -14 44 -50 56
c-27 9 -65 17 -103 25c-26 -18 -61 -46 -61 -80zM240 711c-42 0 -93 -9 -93 -61c0 -37 11 -51 33 -62c21 -10 56 -17 97 -25c8 8 24 25 35 39s19 29 19 48c0 52 -49 61 -91 61z" />
    <glyph glyph-name="nine.numr" horiz-adv-x="430" 
d="M194 491c-95 0 -136 36 -136 132c0 92 58 142 150 142c132 0 158 -95 158 -208c0 -67 0 -148 -55 -196c-26 -23 -65 -37 -116 -37c-49 0 -78 5 -117 12v56c33 -6 72 -13 117 -13c78 0 113 42 113 121c-29 -4 -78 -9 -114 -9zM116 623c0 -61 20 -79 81 -79
c38 0 77 4 111 10c0 78 -2 156 -100 156c-61 0 -92 -24 -92 -87z" />
    <glyph glyph-name="zero.dnom" horiz-adv-x="443" 
d="M221 -11c-143 0 -156 95 -156 217c0 85 4 133 31 171c23 33 71 53 125 53c142 0 157 -108 157 -224c0 -112 -22 -217 -157 -217zM123 206c0 -61 2 -107 21 -134c16 -22 38 -28 77 -28c98 0 99 86 99 162c0 66 -2 107 -21 135c-16 24 -42 34 -79 34c-33 0 -59 -7 -75 -28
c-22 -28 -22 -68 -22 -141z" />
    <glyph glyph-name="one.dnom" horiz-adv-x="282" 
d="M202 0h-57v356l-118 -36v58l175 54v-432z" />
    <glyph glyph-name="two.dnom" horiz-adv-x="391" 
d="M40 58c52 49 139 133 182 179c32 34 42 56 42 79c0 46 -31 59 -73 59c-56 0 -115 -15 -138 -21v56c25 7 85 20 138 20c72 0 131 -32 131 -111c0 -43 -13 -71 -49 -110c-58 -62 -124 -124 -158 -154h229v-55h-304v58z" />
    <glyph glyph-name="three.dnom" horiz-adv-x="418" 
d="M56 60c33 -6 88 -16 129 -16c50 0 100 8 100 70c0 61 -46 69 -95 69h-92v55h143l16 21c16 21 24 36 24 59c0 52 -44 57 -86 57c-53 0 -111 -14 -136 -20v56c27 7 87 19 136 19c70 0 143 -23 143 -106c0 -40 -25 -77 -50 -107c38 -25 55 -55 55 -102
c0 -97 -72 -126 -158 -126c-43 0 -101 10 -129 15v56z" />
    <glyph glyph-name="four.dnom" horiz-adv-x="402" 
d="M30 91v55l203 273h72l-203 -273h165v89h57v-235h-57v91h-237z" />
    <glyph glyph-name="five.dnom" horiz-adv-x="413" 
d="M73 1v56c34 -6 75 -13 118 -13c61 0 101 12 101 79c0 21 -8 39 -23 50c-21 15 -53 18 -128 18h-62v228h253v-55h-197v-118h47c50 0 89 -7 112 -20c36 -20 56 -60 56 -103c0 -102 -65 -134 -159 -134c-46 0 -88 7 -118 12z" />
    <glyph glyph-name="six.dnom" horiz-adv-x="430" 
d="M217 -11c-103 0 -152 52 -152 153c0 99 10 165 73 215c49 39 116 59 203 74v-57c-71 -12 -194 -41 -210 -126c30 1 69 2 100 2c87 0 141 -36 141 -127s-70 -134 -155 -134zM124 195c-2 -16 -2 -33 -2 -52c0 -68 25 -99 95 -99c53 0 97 20 97 79c0 56 -30 74 -83 74
c-42 0 -78 -1 -107 -2z" />
    <glyph glyph-name="seven.dnom" horiz-adv-x="350" 
d="M125 0h-67l203 364h-249v55h315v-55z" />
    <glyph glyph-name="eight.dnom" horiz-adv-x="476" 
d="M240 -11c-85 0 -166 21 -166 121c0 51 33 77 71 102c-43 20 -55 57 -55 103c0 88 75 115 150 115c76 0 148 -29 148 -115c0 -45 -31 -76 -60 -105c45 -17 74 -48 74 -99c0 -93 -82 -122 -162 -122zM131 111c0 -62 60 -68 109 -68c46 0 105 8 105 67c0 26 -14 44 -50 56
c-27 9 -65 17 -103 25c-26 -18 -61 -46 -61 -80zM240 376c-42 0 -93 -9 -93 -61c0 -37 11 -51 33 -62c21 -10 56 -17 97 -25c8 8 24 25 35 39s19 29 19 48c0 52 -49 61 -91 61z" />
    <glyph glyph-name="nine.dnom" horiz-adv-x="430" 
d="M194 156c-95 0 -136 36 -136 132c0 92 58 142 150 142c132 0 158 -95 158 -208c0 -67 0 -148 -55 -196c-26 -23 -65 -37 -116 -37c-49 0 -78 5 -117 12v56c33 -6 72 -13 117 -13c78 0 113 42 113 121c-29 -4 -78 -9 -114 -9zM116 288c0 -61 20 -79 81 -79
c38 0 77 4 111 10c0 78 -2 156 -100 156c-61 0 -92 -24 -92 -87z" />
    <glyph glyph-name="plus" unicode="+" horiz-adv-x="700" 
d="M84 407h235v240h62v-240h235v-60h-235v-240h-62v240h-235v60z" />
    <glyph glyph-name="minus" unicode="&#x2212;" horiz-adv-x="700" 
d="M616 347h-532v60h532v-60z" />
    <glyph glyph-name="plusminus" unicode="&#xb1;" horiz-adv-x="700" 
d="M84 407h235v240h62v-240h235v-60h-235v-240h-62v240h-235v60zM616 0h-532v60h532v-60z" />
    <glyph glyph-name="multiply" unicode="&#xd7;" horiz-adv-x="700" 
d="M110 617h77l163 -195l163 195h77l-202 -240l202 -240h-77l-163 195l-163 -195h-77l202 240z" />
    <glyph glyph-name="divide" unicode="&#xf7;" horiz-adv-x="700" 
d="M84 407h532v-60h-532v60zM310 514v116h80v-116h-80zM310 124v116h80v-116h-80z" />
    <glyph glyph-name="less" unicode="&#x3c;" horiz-adv-x="700" 
d="M616 104l-532 243v60l532 243v-66l-455 -207l455 -207v-66z" />
    <glyph glyph-name="greater" unicode="&#x3e;" horiz-adv-x="700" 
d="M84 650l532 -243v-60l-532 -243v66l455 207l-455 207v66z" />
    <glyph glyph-name="lessequal" unicode="&#x2264;" horiz-adv-x="700" 
d="M84 407l532 243v-66l-455 -207l455 -207v-66l-532 243v60zM616 0h-532v60h532v-60z" />
    <glyph glyph-name="greaterequal" unicode="&#x2265;" horiz-adv-x="700" 
d="M616 347l-532 -243v66l455 207l-455 207v66l532 -243v-60zM616 0h-532v60h532v-60z" />
    <glyph glyph-name="equal" unicode="=" horiz-adv-x="700" 
d="M616 242h-532v60h532v-60zM616 452h-532v60h532v-60z" />
    <glyph glyph-name="notequal" unicode="&#x2260;" horiz-adv-x="700" 
d="M84 512h308l96 160h71l-95 -160h152v-60h-188l-89 -150h277v-60h-313l-95 -160h-71l95 160h-148v60h183l90 150h-273v60z" />
    <glyph glyph-name="approxequal" unicode="&#x2248;" horiz-adv-x="700" 
d="M213 277c-66 0 -101 -35 -129 -63v73c30 28 60 51 129 51c50 0 72 -5 157 -40c60 -25 74 -31 114 -31c66 0 103 35 132 63v-73c-30 -28 -66 -51 -132 -51c-50 0 -74 7 -154 40c-60 25 -77 31 -117 31zM84 497c30 28 60 51 129 51c50 0 72 -5 157 -40
c60 -25 74 -31 114 -31c66 0 103 35 132 63v-73c-30 -28 -66 -51 -132 -51c-50 0 -74 7 -154 40c-60 25 -77 31 -117 31c-66 0 -101 -35 -129 -63v73z" />
    <glyph glyph-name="radical" unicode="&#x221a;" horiz-adv-x="700" 
d="M351 0h-63l-137 347h-111v60h155l126 -320l313 762h66z" />
    <glyph glyph-name="infinity" unicode="&#x221e;" horiz-adv-x="964" 
d="M253 211c-116 0 -179 57 -179 166s71 166 174 166c97 0 160 -52 236 -124c78 71 137 124 231 124c112 0 175 -63 175 -166c0 -104 -68 -166 -169 -166c-89 0 -159 43 -240 124c-78 -75 -139 -124 -228 -124zM715 485c-66 0 -110 -35 -189 -109c82 -75 126 -107 195 -107
c72 0 110 50 110 108c0 66 -42 108 -116 108zM248 485c-72 0 -115 -47 -115 -108c0 -69 42 -108 120 -108c64 0 109 38 186 107c-94 83 -122 109 -191 109z" />
    <glyph glyph-name="integral" unicode="&#x222b;" horiz-adv-x="600" 
d="M66 -193v59c19 -5 67 -17 105 -17s79 9 92 67c7 31 7 69 7 151v510c0 160 62 194 158 194c40 0 90 -12 106 -16v-59c-16 4 -71 17 -106 17c-51 0 -93 -17 -96 -110c-1 -27 -1 -77 -1 -240v-262c0 -27 0 -114 -2 -157c-6 -119 -75 -153 -158 -153c-46 0 -79 9 -105 16z
" />
    <glyph glyph-name="logicalnot" unicode="&#xac;" horiz-adv-x="700" 
d="M616 220h-62v248h-470v60h532v-308z" />
    <glyph glyph-name="numbersign" unicode="#" horiz-adv-x="650" 
d="M151 199h-115v57h123l38 244h-115v57h123l31 197h60l-31 -197h174l31 197h60l-31 -197h115v-57h-123l-38 -244h115v-57h-123l-31 -199h-60l31 199h-174l-31 -199h-60zM257 500l-38 -244h174l38 244h-174z" />
    <glyph glyph-name="uni2116" unicode="&#x2116;" horiz-adv-x="1154" 
d="M937 715c-102 0 -119 -66 -119 -154s19 -150 119 -150c96 0 119 68 119 153c0 84 -23 151 -119 151zM563 0l-399 685v-685h-62v754h93l398 -685v685h62v-754h-92zM937 771c138 0 177 -84 177 -209c0 -120 -44 -207 -177 -207c-72 0 -115 19 -143 59
c-22 32 -34 92 -34 146c0 122 36 211 177 211z" />
    <glyph glyph-name="uni2113" unicode="&#x2113;" horiz-adv-x="418" 
d="M83 525c0 105 4 158 28 196c23 36 57 50 108 50c104 0 129 -77 129 -168c0 -92 -48 -195 -204 -391v-30c0 -83 1 -105 19 -124c15 -16 42 -17 65 -17c46 0 99 17 135 30v-61c-45 -16 -87 -27 -135 -27c-55 0 -100 9 -121 40c-24 35 -24 89 -24 180v322zM161 683
c-15 -27 -17 -73 -17 -135v-242c68 92 142 192 142 297c0 49 -3 110 -67 110c-28 0 -46 -8 -58 -30z" />
    <glyph glyph-name="ampersand" unicode="&#x26;" horiz-adv-x="731" 
d="M63 177c0 117 74 182 157 250c-45 48 -79 103 -79 172c0 127 81 172 197 172c52 0 132 -19 169 -28v-60c-48 12 -121 28 -169 28c-79 0 -133 -24 -133 -112c0 -48 19 -75 43 -107c30 -39 120 -131 180 -192h-85l-82 84c-70 -54 -134 -111 -134 -206
c0 -91 44 -135 134 -135c89 0 153 60 207 125l109 132h79l-107 -130l160 -170h-87l-114 121c-69 -78 -136 -138 -247 -138c-126 0 -198 66 -198 194z" />
    <glyph glyph-name="at" unicode="@" horiz-adv-x="937" 
d="M226 -148c-117 78 -140 223 -140 375c0 121 23 248 95 326c57 62 136 95 291 95c121 0 288 -60 363 -87v-306c0 -60 -2 -119 -36 -168c-43 -63 -136 -98 -211 -98v83c-46 -39 -100 -85 -162 -85c-141 0 -153 129 -153 240c0 62 10 134 38 175c34 50 82 66 157 66
c53 0 117 -21 181 -42v-373c43 13 76 32 100 69s25 75 25 133v266c-61 21 -202 69 -302 69c-121 0 -186 -19 -236 -68c-66 -64 -88 -178 -88 -295c0 -172 33 -275 116 -328c36 -23 79 -37 126 -49v-60c-56 13 -116 30 -164 62zM362 366c-20 -31 -27 -90 -27 -139
c0 -48 4 -106 18 -135c16 -33 34 -47 74 -47c33 0 62 18 91 40c25 19 50 39 70 56v243c-39 13 -79 26 -120 26c-51 0 -83 -8 -106 -44z" />
    <glyph glyph-name="A" unicode="A" horiz-adv-x="686" 
d="M17 0l285 754h82l285 -754h-67l-76 200h-368l-76 -200h-65zM180 260h323l-161 430z" />
    <glyph glyph-name="B" unicode="B" horiz-adv-x="722" 
d="M400 0h-298v754h294c121 0 241 -16 241 -167c0 -46 -18 -84 -42 -127c-13 -23 -33 -56 -40 -67c68 -45 100 -97 100 -182c0 -161 -110 -211 -255 -211zM439 358h-275v-298h236c107 0 191 28 191 151c0 93 -63 147 -152 147zM164 418h335c14 24 25 43 37 64
c22 38 37 67 37 104c0 105 -97 108 -177 108h-232v-276z" />
    <glyph glyph-name="C" unicode="C" horiz-adv-x="658" 
d="M124 124c-25 56 -37 153 -37 249c0 109 13 218 52 285c44 75 105 113 237 113c76 0 154 -18 226 -39v-62c-73 20 -150 41 -226 41c-98 0 -152 -25 -188 -97c-26 -52 -37 -148 -37 -241c0 -91 10 -172 30 -220c31 -74 88 -110 191 -110c75 0 153 16 230 33v-62
c-78 -16 -151 -31 -230 -31c-140 0 -207 48 -248 141z" />
    <glyph glyph-name="D" unicode="D" horiz-adv-x="748" 
d="M102 0v754h255c105 0 161 -16 213 -65c63 -60 91 -178 91 -309s-28 -245 -92 -309c-54 -54 -119 -71 -220 -71h-247zM164 60h185c94 0 143 21 182 64c42 46 66 140 66 256c0 108 -21 207 -67 259c-41 46 -95 55 -173 55h-193v-634z" />
    <glyph glyph-name="E" unicode="E" horiz-adv-x="652" 
d="M102 754h494v-60h-432v-279h410v-60h-410v-295h448v-60h-510v754z" />
    <glyph glyph-name="F" unicode="F" horiz-adv-x="630" 
d="M102 754h496v-60h-434v-289h401v-60h-401v-345h-62v754z" />
    <glyph glyph-name="G" unicode="G" horiz-adv-x="737" 
d="M127 120c-27 55 -40 148 -40 253c0 109 13 218 52 285c44 75 106 113 237 113c79 0 159 -20 235 -40v-62c-39 10 -84 21 -129 30c-34 7 -69 12 -106 12c-98 0 -152 -25 -188 -97c-26 -52 -37 -148 -37 -241c0 -163 17 -330 221 -330c63 0 151 10 203 17v342h62v-394
c-80 -12 -171 -25 -265 -25c-146 0 -205 55 -245 137z" />
    <glyph glyph-name="H" unicode="H" horiz-adv-x="764" 
d="M164 0h-62v754h62v-324h436v324h62v-754h-62v370h-436v-370z" />
    <glyph glyph-name="I" unicode="I" horiz-adv-x="266" 
d="M164 0h-62v754h62v-754z" />
    <glyph glyph-name="J" unicode="J" horiz-adv-x="372" 
d="M-10 -92v63c35 11 114 39 155 62c28 16 46 32 55 57c10 29 10 79 10 128v536h62v-534c0 -69 0 -113 -12 -152c-8 -26 -27 -52 -56 -71c-57 -37 -160 -73 -214 -89z" />
    <glyph glyph-name="K" unicode="K" horiz-adv-x="637" 
d="M164 0h-62v754h62v-361l362 361h89l-373 -372l405 -382h-93l-390 367v-367z" />
    <glyph glyph-name="L" unicode="L" horiz-adv-x="614" 
d="M579 0h-477v754h62v-694h415v-60z" />
    <glyph glyph-name="M" unicode="M" horiz-adv-x="873" 
d="M102 754h96l238 -533l238 533h97v-754h-62v685l-239 -535h-68l-238 533v-683h-62v754z" />
    <glyph glyph-name="N" unicode="N" horiz-adv-x="757" 
d="M164 0h-62v754h93l398 -685v685h62v-754h-92l-399 685v-685z" />
    <glyph glyph-name="O" unicode="O" horiz-adv-x="796" 
d="M140 93c-41 67 -53 184 -53 284c0 88 10 201 44 263c43 79 130 131 267 131c121 0 196 -33 247 -105c48 -67 64 -189 64 -289c0 -223 -55 -394 -311 -394c-137 0 -214 37 -258 110zM151 377c0 -78 9 -190 40 -245c42 -74 119 -89 207 -89c213 0 247 150 247 334
c0 88 -12 187 -48 245c-41 66 -109 89 -199 89c-223 0 -247 -149 -247 -334z" />
    <glyph glyph-name="P" unicode="P" horiz-adv-x="662" 
d="M102 0v754h281c86 0 135 -18 173 -58c35 -36 54 -99 54 -160c0 -142 -50 -224 -197 -237c-44 -4 -147 -4 -249 -4v-295h-62zM164 694v-339c92 0 190 0 243 5c114 11 139 70 139 176c0 50 -15 97 -43 124s-68 34 -125 34h-214z" />
    <glyph glyph-name="Q" unicode="Q" horiz-adv-x="796" 
d="M87 377c0 88 10 201 44 263c43 79 130 131 267 131c121 0 196 -33 247 -105c48 -67 64 -189 64 -289c0 -85 -11 -211 -60 -282c-35 -51 -81 -80 -138 -97l194 -49v-62l-387 100c-88 23 -143 48 -178 106c-41 67 -53 184 -53 284zM151 377c0 -78 9 -190 40 -245
c39 -70 127 -90 207 -90c213 0 247 152 247 335c0 88 -12 187 -48 245c-41 66 -109 89 -199 89c-223 0 -247 -149 -247 -334z" />
    <glyph glyph-name="R" unicode="R" horiz-adv-x="690" 
d="M164 0h-62v754h256c101 0 158 -10 202 -41c45 -32 66 -88 66 -149c0 -66 -30 -114 -67 -155c-29 -32 -65 -68 -87 -89l193 -320h-76l-189 313h-236v-313zM164 694v-321h276c27 28 48 50 67 72c29 33 55 71 55 118c0 130 -105 131 -205 131h-193z" />
    <glyph glyph-name="S" unicode="S" horiz-adv-x="641" 
d="M62 571c0 49 14 105 56 146c43 42 98 54 188 54c83 0 168 -22 253 -44v-62c-70 18 -179 46 -253 46c-99 0 -180 -25 -180 -140c0 -37 5 -63 26 -84c17 -17 55 -31 101 -47l162 -56c104 -36 164 -75 164 -193c0 -57 -21 -110 -59 -147c-46 -45 -109 -61 -200 -61
c-85 0 -191 24 -252 38v62c70 -16 180 -40 252 -40c68 0 107 9 143 36c34 26 52 68 52 112c0 33 -5 60 -24 82s-52 35 -107 54l-162 56c-104 36 -160 67 -160 188z" />
    <glyph glyph-name="Germandbls" unicode="&#x1e9e;" horiz-adv-x="754" 
d="M161 0h-62v373c0 236 -1 398 289 398c88 0 188 -21 261 -41v-62l-146 -254l41 -21c95 -48 158 -90 158 -205c0 -159 -120 -205 -260 -205c-58 0 -129 12 -162 18v62c34 -7 99 -20 162 -20c102 0 196 24 196 145c0 86 -49 113 -121 148l-101 50l170 297
c-44 12 -128 28 -198 28c-100 0 -165 -14 -201 -89c-25 -52 -26 -135 -26 -235v-387z" />
    <glyph glyph-name="T" unicode="T" horiz-adv-x="664" 
d="M301 694h-276v60h614v-60h-276v-694h-62v694z" />
    <glyph glyph-name="U" unicode="U" horiz-adv-x="739" 
d="M99 754h62v-471c0 -169 30 -240 209 -240c180 0 208 71 208 240v471h62v-471c0 -116 -7 -195 -71 -247c-48 -39 -111 -53 -198 -53c-220 0 -272 87 -272 300v471z" />
    <glyph glyph-name="V" unicode="V" horiz-adv-x="656" 
d="M289 0l-288 754h68l258 -677l261 677h67l-291 -754h-75z" />
    <glyph glyph-name="W" unicode="W" horiz-adv-x="893" 
d="M190 0l-158 754h63l146 -694l164 580h82l166 -580l145 694h63l-157 -754h-96l-162 566l-160 -566h-96z" />
    <glyph glyph-name="X" unicode="X" horiz-adv-x="626" 
d="M79 0h-76l259 381l-242 373h78l215 -332l215 332h76l-240 -367l259 -387h-78l-232 346z" />
    <glyph glyph-name="Y" unicode="Y" horiz-adv-x="606" 
d="M271 289l-279 465h75l237 -396l238 396h72l-279 -465v-289h-64v289z" />
    <glyph glyph-name="Z" unicode="Z" horiz-adv-x="641" 
d="M591 0h-541v64l458 630h-443v60h519v-64l-458 -630h465v-60z" />
    <glyph glyph-name="a" unicode="a" 
d="M242 -17c-163 0 -179 154 -179 283c0 158 43 279 223 279c64 0 131 -25 209 -54v-491h-61v89c-51 -46 -121 -106 -192 -106zM155 424c-21 -37 -30 -97 -30 -158c0 -63 7 -130 22 -163c19 -42 46 -62 95 -62c33 0 66 18 102 46c31 24 65 53 90 75v289
c-49 18 -98 36 -148 36c-65 0 -105 -17 -131 -63z" />
    <glyph glyph-name="b" unicode="b" horiz-adv-x="584" 
d="M83 21v733h61v-277c57 31 126 68 192 68c159 0 185 -151 185 -279c0 -152 -48 -283 -223 -283c-40 0 -68 4 -109 12c-34 7 -72 17 -106 26zM144 67c50 -14 101 -26 154 -26c134 0 161 113 161 225c0 85 -10 221 -124 221c-35 0 -59 -9 -93 -24c-38 -17 -70 -33 -98 -48
v-348z" />
    <glyph glyph-name="c" unicode="c" horiz-adv-x="483" 
d="M103 67c-29 50 -40 126 -40 193c0 63 5 129 22 172c29 74 78 113 198 113c50 0 116 -19 157 -31v-59c-38 11 -112 32 -157 32c-75 0 -113 -16 -138 -73c-15 -34 -20 -96 -20 -152c0 -61 10 -125 30 -161c26 -47 67 -60 128 -60c47 0 113 15 157 26v-59
c-43 -10 -108 -25 -157 -25c-98 0 -145 25 -180 84z" />
    <glyph glyph-name="d" unicode="d" horiz-adv-x="584" 
d="M97 67c-24 49 -34 121 -34 198c0 151 28 280 207 280c60 0 131 -22 170 -34v243h61v-754h-61v70c-58 -42 -121 -87 -196 -87c-86 0 -122 33 -147 84zM151 425c-20 -41 -26 -98 -26 -160c0 -66 6 -120 23 -161c18 -43 43 -63 96 -63c67 0 145 59 196 99v310
c-64 20 -118 37 -170 37c-56 0 -96 -15 -119 -62z" />
    <glyph glyph-name="e" unicode="e" horiz-adv-x="559" 
d="M63 262c0 160 39 283 226 283c140 0 210 -73 210 -207c0 -25 -3 -66 -10 -102h-364c0 -129 37 -195 177 -195c60 0 128 13 170 21v-59c-40 -8 -118 -20 -170 -20c-199 0 -239 102 -239 279zM125 290h308c2 15 4 32 4 52c0 96 -48 145 -148 145c-129 0 -164 -82 -164 -197
z" />
    <glyph glyph-name="f" unicode="f" horiz-adv-x="298" 
d="M83 519c0 172 27 212 208 256v-60c-74 -19 -136 -33 -144 -118c-3 -30 -3 -55 -3 -76h149v-58h-149v-463h-61v519z" />
    <glyph glyph-name="g" unicode="g" horiz-adv-x="580" 
d="M64 269c0 78 10 143 36 190c37 67 95 86 178 86c65 0 162 -32 219 -51v-457c0 -163 -84 -246 -247 -246c-59 0 -121 8 -167 14v59c36 -5 110 -15 167 -15c120 0 186 62 186 182v26c-58 -29 -123 -57 -189 -57c-87 0 -125 32 -149 77c-22 41 -34 113 -34 192zM126 269
c0 -68 8 -122 24 -157c18 -39 46 -54 97 -54c60 0 136 35 189 62v331c-29 10 -107 36 -158 36c-65 0 -102 -16 -126 -63c-18 -36 -26 -94 -26 -155z" />
    <glyph glyph-name="h" unicode="h" 
d="M83 0v754h61v-261c70 29 128 52 186 52c142 0 166 -75 166 -201v-344h-61v343c0 84 -7 144 -105 144c-60 0 -130 -31 -186 -56v-431h-61z" />
    <glyph glyph-name="i" unicode="i" horiz-adv-x="227" 
d="M144 0h-61v528h61v-528zM146 622h-65v132h65v-132z" />
    <glyph glyph-name="j" unicode="j" horiz-adv-x="241" 
d="M86 -148c-33 -24 -94 -50 -126 -63v61c20 9 75 36 95 54c17 15 26 29 33 48s7 60 7 89v487h61v-487c0 -37 0 -85 -8 -109c-11 -33 -29 -56 -62 -80zM93 622v132h65v-132h-65z" />
    <glyph glyph-name="k" unicode="k" horiz-adv-x="497" 
d="M144 0h-61v754h61v-456l243 230h87l-255 -242l278 -286h-85l-268 275v-275z" />
    <glyph glyph-name="l" unicode="l" horiz-adv-x="227" 
d="M144 0h-61v754h61v-754z" />
    <glyph glyph-name="m" unicode="m" horiz-adv-x="890" 
d="M83 0v528h61v-41c66 32 122 58 179 58c54 0 116 -12 137 -69c51 29 124 69 190 69c140 0 158 -81 158 -203v-342h-61v341c0 78 -2 146 -97 146c-57 0 -128 -40 -174 -66v-421h-61v359c0 74 -3 128 -92 128c-57 0 -127 -36 -179 -63v-424h-61z" />
    <glyph glyph-name="n" unicode="n" horiz-adv-x="581" 
d="M83 0v528h61v-39c69 30 134 56 192 56c140 0 163 -77 163 -201v-344h-61v344c0 80 -6 143 -102 143c-60 0 -137 -35 -192 -60v-427h-61z" />
    <glyph glyph-name="o" unicode="o" 
d="M106 64c-28 42 -43 121 -43 196c0 158 38 285 226 285c184 0 226 -118 226 -281c0 -158 -43 -281 -226 -281c-95 0 -146 26 -183 81zM125 262c0 -62 10 -124 30 -159c28 -49 70 -62 134 -62c63 0 107 18 132 60c22 37 32 100 32 166c0 121 -21 220 -164 220
c-145 0 -164 -105 -164 -225z" />
    <glyph glyph-name="p" unicode="p" horiz-adv-x="584" 
d="M83 528h61v-61c23 16 46 32 71 46c32 18 67 32 109 32c168 0 197 -143 197 -281c0 -147 -38 -281 -211 -281c-58 0 -112 22 -166 48v-223h-61v720zM144 398v-304c50 -25 107 -53 166 -53c131 0 149 116 149 223c0 96 -11 223 -135 223c-35 0 -65 -12 -96 -31
c-28 -17 -57 -38 -84 -58z" />
    <glyph glyph-name="q" unicode="q" horiz-adv-x="584" 
d="M97 65c-24 47 -34 121 -34 197c0 78 12 151 41 200c38 64 97 83 178 83c71 0 172 -34 219 -50v-687h-61v243c-58 -35 -123 -68 -192 -68c-87 0 -124 29 -151 82zM155 426c-20 -37 -30 -100 -30 -164c0 -65 8 -124 22 -158c18 -43 44 -63 101 -63c68 0 136 41 192 75v337
c-54 17 -108 34 -158 34c-60 0 -102 -15 -127 -61z" />
    <glyph glyph-name="r" unicode="r" horiz-adv-x="344" 
d="M83 528h61v-66c63 45 110 64 188 78v-62c-73 -14 -128 -40 -188 -82v-396h-61v528z" />
    <glyph glyph-name="s" unicode="s" horiz-adv-x="508" 
d="M58 400c0 117 90 145 190 145c59 0 146 -21 182 -31v-59c-40 10 -130 32 -182 32c-64 0 -128 -8 -128 -87c0 -24 5 -46 22 -58c15 -11 38 -19 75 -31l99 -31c76 -24 134 -54 134 -144c0 -123 -104 -153 -207 -153c-69 0 -135 15 -179 25v59c55 -12 125 -26 179 -26
c63 0 145 11 145 92c0 21 -5 41 -19 55c-17 17 -46 26 -81 37l-92 29c-81 26 -138 48 -138 146z" />
    <glyph glyph-name="germandbls" unicode="&#xdf;" horiz-adv-x="588" 
d="M144 0h-61v511c0 32 0 70 7 109c15 92 99 144 189 144c102 0 177 -46 177 -157c0 -52 -19 -84 -48 -119c-26 -31 -50 -56 -69 -75l105 -93c55 -49 95 -92 95 -170c0 -114 -103 -159 -203 -159c-37 0 -74 4 -109 9v59c38 -6 73 -10 109 -10c64 0 141 24 141 101
c0 58 -32 89 -74 126l-149 131c23 24 63 66 93 102c35 42 47 64 47 98c0 75 -46 99 -115 99c-42 0 -89 -19 -112 -53c-16 -23 -18 -45 -20 -66c-3 -30 -3 -55 -3 -76v-511z" />
    <glyph glyph-name="t" unicode="t" horiz-adv-x="317" 
d="M82 200v461h61v-140h160v-58h-160v-263c0 -42 0 -64 3 -88s12 -39 36 -47s61 -11 98 -14v-58c-48 3 -97 8 -129 18s-50 26 -59 53c-10 30 -10 62 -10 136z" />
    <glyph glyph-name="u" unicode="u" horiz-adv-x="571" 
d="M82 528h61v-328c0 -97 2 -159 115 -159c76 0 126 15 169 28v459h61v-503c-82 -23 -150 -42 -230 -42c-157 0 -176 78 -176 217v328z" />
    <glyph glyph-name="v" unicode="v" horiz-adv-x="497" 
d="M202 0l-191 528h66l172 -478l172 478h65l-191 -528h-93z" />
    <glyph glyph-name="w" unicode="w" horiz-adv-x="777" 
d="M167 0l-150 528h63l131 -463l139 463h78l140 -463l130 463h62l-149 -528h-85l-138 464l-138 -464h-83z" />
    <glyph glyph-name="x" unicode="x" horiz-adv-x="496" 
d="M79 0h-71l194 269l-184 259h75l154 -219l159 219h72l-183 -252l193 -276h-75l-163 236z" />
    <glyph glyph-name="y" unicode="y" horiz-adv-x="507" 
d="M220 7l-209 521h67l175 -439l176 439h67l-290 -720h-66z" />
    <glyph glyph-name="z" unicode="z" horiz-adv-x="516" 
d="M478 0h-437v53l343 417h-328v58h413v-53l-344 -417h353v-58z" />
    <glyph glyph-name="fi" unicode="&#xfb01;" horiz-adv-x="535" 
d="M144 0h-61v519c0 172 27 212 208 256v-60c-74 -19 -136 -33 -144 -118c-3 -30 -3 -55 -3 -76h149v-58h-149v-463zM452 0h-61v528h61v-528zM389 754h65v-132h-65v132z" />
    <glyph glyph-name="fl" unicode="&#xfb02;" horiz-adv-x="535" 
d="M144 0h-61v519c0 172 27 212 208 256v-60c-74 -19 -136 -33 -144 -118c-3 -30 -3 -55 -3 -76h149v-58h-149v-463zM391 754h61v-754h-61v754z" />
    <glyph glyph-name="guillemotleft" unicode="&#xab;" horiz-adv-x="523" 
d="M424 58l-169 206l169 206h80l-169 -206l169 -206h-80zM231 58l-169 206l169 206h80l-169 -206l169 -206h-80z" />
    <glyph glyph-name="guillemotright" unicode="&#xbb;" horiz-adv-x="523" 
d="M292 58h-80l169 206l-169 206h80l169 -206zM19 58l169 206l-169 206h80l169 -206l-169 -206h-80z" />
    <glyph glyph-name="guilsinglleft" unicode="&#x2039;" horiz-adv-x="330" 
d="M311 58h-80l-169 206l169 206h80l-169 -206z" />
    <glyph glyph-name="guilsinglright" unicode="&#x203a;" horiz-adv-x="330" 
d="M99 58h-80l169 206l-169 206h80l169 -206z" />
    <glyph glyph-name="quotedblbase" unicode="&#x201e;" horiz-adv-x="410" 
d="M279 -173h-53c16 66 26 113 26 223v82h71v-108c0 -77 -21 -141 -44 -197zM127 -173h-53c16 66 26 113 26 223v82h71v-108c0 -77 -21 -141 -44 -197z" />
    <glyph glyph-name="quotedblleft" unicode="&#x201c;" horiz-adv-x="410" 
d="M310 449h-71v108c0 77 21 141 44 197h53c-16 -66 -26 -113 -26 -223v-82zM87 449v108c0 77 21 141 44 197h53c-16 -66 -26 -113 -26 -223v-82h-71z" />
    <glyph glyph-name="quotedblright" unicode="&#x201d;" horiz-adv-x="410" 
d="M279 449h-53c16 66 26 113 26 223v82h71v-108c0 -77 -21 -141 -44 -197zM127 449h-53c16 66 26 113 26 223v82h71v-108c0 -77 -21 -141 -44 -197z" />
    <glyph glyph-name="quotesinglbase" unicode="&#x201a;" horiz-adv-x="258" 
d="M127 -173h-53c16 66 26 113 26 223v82h71v-108c0 -77 -21 -141 -44 -197z" />
    <glyph glyph-name="quoteleft" unicode="&#x2018;" horiz-adv-x="258" 
d="M158 449h-71v108c0 77 21 141 44 197h53c-16 -66 -26 -113 -26 -223v-82z" />
    <glyph glyph-name="quoteright" unicode="&#x2019;" horiz-adv-x="258" 
d="M127 449h-53c16 66 26 113 26 223v82h71v-108c0 -77 -21 -141 -44 -197z" />
    <glyph glyph-name="questiondown" unicode="&#xbf;" horiz-adv-x="508" 
d="M263 -209c-115 0 -198 48 -198 173c0 59 19 106 51 150c24 33 47 60 89 106c50 54 63 82 71 102h70c-16 -44 -30 -72 -82 -128c-39 -42 -66 -72 -90 -106c-28 -40 -45 -74 -45 -124c0 -87 56 -113 134 -113c50 0 115 16 172 30v-60c-51 -13 -119 -30 -172 -30zM273 426
v136h78v-136h-78z" />
    <glyph glyph-name="question" unicode="?" horiz-adv-x="508" 
d="M73 681v60c51 13 119 30 172 30c115 0 198 -48 198 -173c0 -59 -19 -106 -51 -150c-24 -33 -47 -60 -89 -106c-50 -54 -63 -82 -71 -102h-70c16 44 30 72 82 128c39 42 66 72 90 106c28 40 45 74 45 124c0 87 -56 113 -134 113c-50 0 -115 -16 -172 -30zM157 136h78v-136
h-78v136z" />
    <glyph glyph-name="exclamdown" unicode="&#xa1;" horiz-adv-x="274" 
d="M95 -63c0 150 1 356 2 385h60c1 -29 2 -229 2 -385v-129h-64v129zM166 426h-78v136h78v-136z" />
    <glyph glyph-name="exclam" unicode="!" horiz-adv-x="274" 
d="M115 754h64v-129c0 -150 -1 -356 -2 -385h-60c-1 29 -2 229 -2 385v129zM108 136h78v-136h-78v136z" />
    <glyph glyph-name="section" unicode="&#xa7;" horiz-adv-x="643" 
d="M91 376c0 50 46 108 79 143c-39 32 -51 63 -51 114c0 123 109 138 208 138c51 0 153 -18 202 -27v-61c-47 9 -146 28 -202 28c-55 0 -144 -2 -144 -78c0 -25 6 -44 19 -57c16 -16 44 -31 82 -51l123 -64c48 -25 80 -42 105 -63c26 -21 40 -55 40 -92
c0 -28 -9 -53 -31 -82c-18 -23 -34 -41 -52 -60c43 -33 59 -65 59 -120c0 -39 -19 -84 -55 -110c-38 -27 -92 -39 -167 -39c-53 0 -150 16 -196 24v62c58 -11 143 -26 196 -26c61 0 158 6 158 89c0 20 -3 39 -17 54c-15 16 -41 31 -75 49l-136 70c-46 24 -87 49 -111 71
c-20 19 -34 48 -34 88zM155 376c0 -25 8 -40 26 -54c17 -13 42 -28 76 -46l161 -83c17 18 27 29 42 48c20 25 28 46 28 65c0 20 -6 37 -28 53c-20 14 -42 27 -75 44l-165 85c-30 -30 -65 -68 -65 -112z" />
    <glyph glyph-name="dollar" unicode="$" horiz-adv-x="668" 
d="M239 381c-103 35 -157 66 -157 182c0 47 14 100 53 139c35 35 88 51 173 54v101h58v-103c64 -6 149 -26 197 -38v-62c-67 17 -163 41 -237 41c-96 0 -180 -19 -180 -132c0 -35 3 -59 24 -79c17 -16 56 -31 102 -47l154 -52c100 -34 160 -75 160 -187
c0 -135 -96 -193 -220 -200v-111h-58v111c-74 3 -163 21 -219 33v62c65 -14 162 -35 241 -35c95 0 192 24 192 139c0 33 -4 57 -24 79s-52 35 -103 52z" />
    <glyph glyph-name="cent" unicode="&#xa2;" horiz-adv-x="523" 
d="M85 260c0 136 14 259 181 272v106h57v-106c46 -4 100 -18 135 -29v-60c-46 14 -106 32 -157 32c-62 0 -110 -9 -138 -73c-15 -34 -16 -86 -16 -140c0 -55 6 -110 26 -146c28 -51 75 -60 128 -60c51 0 110 15 157 27v-60c-36 -9 -90 -21 -135 -24v-112h-57v112
c-150 13 -181 131 -181 261z" />
    <glyph glyph-name="Euro" unicode="&#x20ac;" horiz-adv-x="692" 
d="M102 381c0 220 32 390 293 390c84 0 168 -17 227 -29v-61c-63 13 -145 30 -227 30c-97 0 -158 -24 -194 -92c-19 -36 -31 -106 -33 -151h341v-59h-343c-1 -10 -1 -19 -1 -26c0 -8 0 -18 1 -31h343v-59h-341c2 -50 13 -113 25 -143c28 -70 81 -107 193 -107
c79 0 166 10 236 19v-61c-65 -8 -154 -18 -236 -18c-148 0 -212 50 -251 143c-21 50 -33 141 -33 255z" />
    <glyph glyph-name="sterling" unicode="&#xa3;" horiz-adv-x="620" 
d="M558 0h-442v571c0 139 52 200 195 200c56 0 139 -16 209 -31v-61c-66 14 -152 32 -209 32c-108 0 -133 -36 -133 -140v-103h224v-59h-224v-349h380v-60z" />
    <glyph glyph-name="yen" unicode="&#xa5;" horiz-adv-x="654" 
d="M16 754h75l237 -396l238 396h72l-172 -286h142v-59h-177l-72 -120v-289h-64v289l-71 120h-178v59h142z" />
    <glyph glyph-name="uni20BA" unicode="&#x20ba;" horiz-adv-x="593" 
d="M116 -14v768h62v-231l274 88v-62l-274 -88v-61l274 88v-62l-274 -88v-295c103 0 160 10 210 63c48 50 61 135 64 176h63c-3 -52 -15 -140 -65 -203c-52 -65 -123 -96 -273 -96c-27 0 -50 2 -61 3z" />
    <glyph glyph-name="uni20BD" unicode="&#x20bd;" horiz-adv-x="690" 
d="M116 0v754h281c86 0 135 -18 173 -58c35 -36 54 -99 54 -160c0 -142 -50 -224 -197 -237c-44 -4 -147 -4 -249 -4v-57h332v-59h-332v-179h-62zM392 694h-214v-339c92 0 190 0 243 5c114 11 139 70 139 176c0 50 -15 97 -43 124s-68 34 -125 34z" />
    <glyph glyph-name="currency" unicode="&#xa4;" horiz-adv-x="745" 
d="M90 100l118 136c-24 34 -34 81 -34 140c0 65 10 107 35 141l-119 137h78l85 -98c31 19 75 28 121 28c42 0 85 -10 117 -29l86 99h78l-120 -137c27 -35 40 -80 40 -138c0 -59 -12 -108 -39 -143l119 -136h-78l-85 97c-30 -19 -72 -27 -118 -27c-47 0 -90 9 -121 27
l-85 -97h-78zM235 377c0 -101 38 -147 139 -147c43 0 85 12 105 35c20 24 35 65 35 115c0 94 -46 144 -141 144c-100 0 -138 -49 -138 -147z" />
    <glyph glyph-name="copyright" unicode="&#xa9;" horiz-adv-x="938" 
d="M80 377c0 235 151 394 389 394s389 -159 389 -394s-151 -394 -389 -394s-389 159 -389 394zM469 711c-206 0 -327 -134 -327 -334s121 -334 327 -334s327 134 327 334s-121 334 -327 334zM276 377c0 142 43 228 198 228c51 0 102 -11 151 -24v-56c-49 12 -100 25 -151 25
c-60 0 -91 -9 -117 -49c-19 -30 -24 -73 -24 -124c0 -106 21 -168 142 -168c50 0 103 10 150 19v-56c-49 -9 -98 -18 -150 -18c-155 0 -199 83 -199 223z" />
    <glyph glyph-name="registered" unicode="&#xae;" horiz-adv-x="938" 
d="M80 377c0 235 151 394 389 394s389 -159 389 -394s-151 -394 -389 -394s-389 159 -389 394zM142 377c0 -200 121 -334 327 -334s327 134 327 334s-121 334 -327 334s-327 -134 -327 -334zM315 595h174c78 0 159 -14 159 -111c0 -38 -13 -67 -36 -93
c-16 -18 -35 -37 -48 -50l102 -177h-66l-95 165h-135v-165h-55v431zM489 541h-119v-158h161c25 25 60 63 60 100c0 54 -46 58 -88 58h-14z" />
    <glyph glyph-name="trademark" unicode="&#x2122;" horiz-adv-x="1050" 
d="M508 325v429h90l130 -279l131 279h89v-429h-57v372l-135 -287h-57l-134 287v-372h-57zM47 754h383v-55h-163v-374h-57v374h-163v55z" />
    <glyph glyph-name="ordfeminine" unicode="&#xaa;" horiz-adv-x="470" 
d="M194 355c-122 0 -137 115 -137 211c0 126 38 205 177 205c48 0 106 -18 166 -38v-367h-56v69l-45 -36c-32 -26 -66 -44 -105 -44zM234 715c-104 0 -119 -58 -119 -149c0 -50 3 -88 15 -115c13 -29 30 -39 66 -39c30 0 57 15 84 36c22 17 45 36 64 52v192
c-35 11 -73 23 -110 23z" />
    <glyph glyph-name="ordmasculine" unicode="&#xba;" horiz-adv-x="466" 
d="M233 355c-137 0 -177 79 -177 205c0 122 36 211 177 211c138 0 177 -84 177 -209c0 -120 -44 -207 -177 -207zM114 561c0 -88 19 -150 119 -150c96 0 119 68 119 153c0 84 -23 151 -119 151c-102 0 -119 -66 -119 -154z" />
    <glyph glyph-name="paragraph" unicode="&#xb6;" horiz-adv-x="668" 
d="M58 515c0 74 17 142 56 184c40 43 94 55 171 55h273v-946h-57v891h-100v-891h-57v466c-122 0 -179 11 -224 55s-62 112 -62 186z" />
    <glyph glyph-name="Aacute" unicode="&#xc1;" horiz-adv-x="686" 
d="M17 0l285 754h82l285 -754h-67l-76 200h-368l-76 -200h-65zM180 260h323l-161 430zM378 813h-78l119 137h80z" />
    <glyph glyph-name="aacute" unicode="&#xe1;" 
d="M242 -17c-163 0 -179 154 -179 283c0 158 43 279 223 279c64 0 131 -25 209 -54v-491h-61v89c-51 -46 -121 -106 -192 -106zM155 424c-21 -37 -30 -97 -30 -158c0 -63 7 -130 22 -163c19 -42 46 -62 95 -62c33 0 66 18 102 46c31 24 65 53 90 75v289
c-49 18 -98 36 -148 36c-65 0 -105 -17 -131 -63zM303 617h-78l119 137h80z" />
    <glyph glyph-name="Agrave" unicode="&#xc0;" horiz-adv-x="686" 
d="M17 0l285 754h82l285 -754h-67l-76 200h-368l-76 -200h-65zM180 260h323l-161 430zM192 950h79l116 -137h-77z" />
    <glyph glyph-name="agrave" unicode="&#xe0;" 
d="M242 -17c-163 0 -179 154 -179 283c0 158 43 279 223 279c64 0 131 -25 209 -54v-491h-61v89c-51 -46 -121 -106 -192 -106zM155 424c-21 -37 -30 -97 -30 -158c0 -63 7 -130 22 -163c19 -42 46 -62 95 -62c33 0 66 18 102 46c31 24 65 53 90 75v289
c-49 18 -98 36 -148 36c-65 0 -105 -17 -131 -63zM285 617l-118 137h79l116 -137h-77z" />
    <glyph glyph-name="Acircumflex" unicode="&#xc2;" horiz-adv-x="686" 
d="M82 0h-65l285 754h82l285 -754h-67l-76 200h-368zM180 260h323l-161 430zM257 794h-75l126 137h70l126 -137h-75l-86 92z" />
    <glyph glyph-name="acircumflex" unicode="&#xe2;" 
d="M242 -17c-163 0 -179 154 -179 283c0 158 43 279 223 279c64 0 131 -25 209 -54v-491h-61v89c-51 -46 -121 -106 -192 -106zM125 266c0 -63 7 -130 22 -163c19 -42 46 -62 95 -62c33 0 66 18 102 46c31 24 65 53 90 75v289c-49 18 -98 36 -148 36
c-65 0 -105 -17 -131 -63c-21 -37 -30 -97 -30 -158zM209 617h-75l126 137h70l126 -137h-75l-86 92z" />
    <glyph glyph-name="Adieresis" unicode="&#xc4;" horiz-adv-x="686" 
d="M17 0l285 754h82l285 -754h-67l-76 200h-368l-76 -200h-65zM342 690l-162 -430h323zM409 950h63v-132h-63v132zM216 818v132h63v-132h-63z" />
    <glyph glyph-name="adieresis" unicode="&#xe4;" 
d="M242 -17c-163 0 -179 154 -179 283c0 158 43 279 223 279c64 0 131 -25 209 -54v-491h-61v89c-51 -46 -121 -106 -192 -106zM155 424c-21 -37 -30 -97 -30 -158c0 -63 7 -130 22 -163c19 -42 46 -62 95 -62c33 0 66 18 102 46c31 24 65 53 90 75v289
c-49 18 -98 36 -148 36c-65 0 -105 -17 -131 -63zM352 622v132h62v-132h-62zM165 754h62v-132h-62v132z" />
    <glyph glyph-name="Atilde" unicode="&#xc3;" horiz-adv-x="686" 
d="M82 0h-65l285 754h82l285 -754h-67l-76 200h-368zM342 690l-162 -430h323zM161 818c34 87 56 115 114 115c27 0 51 -8 85 -35c28 -22 41 -31 62 -31c31 0 41 21 56 56h59c-28 -63 -50 -110 -115 -110c-28 0 -52 7 -80 29c-31 25 -47 37 -67 37c-31 0 -42 -27 -56 -61h-58
z" />
    <glyph glyph-name="atilde" unicode="&#xe3;" 
d="M242 -17c-163 0 -179 154 -179 283c0 158 43 279 223 279c64 0 131 -25 209 -54v-491h-61v89c-51 -46 -121 -106 -192 -106zM125 266c0 -63 7 -130 22 -163c19 -42 46 -62 95 -62c33 0 66 18 102 46c31 24 65 53 90 75v289c-49 18 -98 36 -148 36
c-65 0 -105 -17 -131 -63c-21 -37 -30 -97 -30 -158zM111 625c34 87 56 115 114 115c27 0 51 -8 85 -35c28 -22 41 -31 62 -31c31 0 41 21 56 56h59c-28 -63 -50 -110 -115 -110c-28 0 -52 7 -80 29c-31 25 -47 37 -67 37c-31 0 -42 -27 -56 -61h-58z" />
    <glyph glyph-name="Aring" unicode="&#xc5;" horiz-adv-x="686" 
d="M82 0h-65l270 713c-40 19 -61 55 -61 99c0 71 47 113 117 113s117 -42 117 -113c0 -44 -21 -81 -61 -99l270 -713h-67l-76 200h-368zM180 260h323l-161 430zM343 875c-40 0 -65 -22 -65 -63c0 -39 28 -60 65 -60s65 22 65 60c0 40 -25 63 -65 63z" />
    <glyph glyph-name="aring" unicode="&#xe5;" 
d="M242 -17c-163 0 -179 154 -179 283c0 158 43 279 223 279c64 0 131 -25 209 -54v-491h-61v89c-51 -46 -121 -106 -192 -106zM155 424c-21 -37 -30 -97 -30 -158c0 -63 7 -130 22 -163c19 -42 46 -62 95 -62c33 0 66 18 102 46c31 24 65 53 90 75v289
c-49 18 -98 36 -148 36c-65 0 -105 -17 -131 -63zM293 588c-67 0 -117 42 -117 110c0 71 47 113 117 113s117 -42 117 -113c0 -68 -50 -110 -117 -110zM228 698c0 -39 28 -60 65 -60s65 22 65 60c0 40 -25 63 -65 63s-65 -23 -65 -63z" />
    <glyph glyph-name="Aringacute" unicode="&#x1fa;" horiz-adv-x="686" 
d="M17 0l270 713c-40 19 -61 55 -61 99c0 71 47 113 117 113s117 -42 117 -113c0 -44 -21 -81 -61 -99l270 -713h-67l-76 200h-368l-76 -200h-65zM180 260h323l-161 430zM278 812c0 -39 28 -60 65 -60s65 22 65 60c0 40 -25 63 -65 63s-65 -23 -65 -63zM292 960l89 100h79
l-91 -100h-77z" />
    <glyph glyph-name="aringacute" unicode="&#x1fb;" 
d="M242 -17c-163 0 -179 154 -179 283c0 158 43 279 223 279c64 0 131 -25 209 -54v-491h-61v89c-51 -46 -121 -106 -192 -106zM125 266c0 -63 7 -130 22 -163c19 -42 46 -62 95 -62c33 0 66 18 102 46c31 24 65 53 90 75v289c-49 18 -98 36 -148 36
c-65 0 -105 -17 -131 -63c-21 -37 -30 -97 -30 -158zM178 698c0 71 47 113 117 113s117 -42 117 -113c0 -68 -50 -110 -117 -110s-117 42 -117 110zM295 761c-40 0 -65 -23 -65 -63c0 -39 28 -60 65 -60s65 22 65 60c0 40 -25 63 -65 63zM247 826l108 124h79l-110 -124h-77z
" />
    <glyph glyph-name="AE" unicode="&#xc6;" horiz-adv-x="1090" 
d="M74 0h-74l507 754h527v-60h-432v-279h410v-60h-410v-295h448v-60h-510v200h-332zM249 260h291v435z" />
    <glyph glyph-name="ae" unicode="&#xe6;" horiz-adv-x="918" 
d="M60 135c0 148 111 155 229 155h136v68c0 102 -21 129 -133 129c-58 0 -165 -23 -209 -33v59c50 11 152 32 209 32c86 0 150 -18 178 -78c30 46 84 78 178 78c140 0 210 -73 210 -207c0 -25 -3 -66 -10 -102h-364c0 -130 32 -195 177 -195c60 0 128 13 170 21v-59
c-40 -8 -118 -20 -170 -20c-93 0 -173 18 -215 108c-62 -49 -140 -108 -222 -108c-105 0 -164 40 -164 152zM648 487c-132 0 -164 -82 -164 -197h308c2 15 4 32 4 52c0 96 -48 145 -148 145zM122 136c0 -75 32 -95 103 -95c40 0 80 17 124 45c24 15 49 32 76 51v99h-135
c-57 0 -102 -1 -134 -22c-26 -17 -34 -45 -34 -78z" />
    <glyph glyph-name="AEacute" unicode="&#x1fc;" horiz-adv-x="1090" 
d="M74 0h-74l507 754h527v-60h-432v-279h410v-60h-410v-295h448v-60h-510v200h-332zM249 260h291v435zM605 813h-78l119 137h80z" />
    <glyph glyph-name="aeacute" unicode="&#x1fd;" horiz-adv-x="918" 
d="M60 135c0 148 111 155 229 155h136v68c0 102 -21 129 -133 129c-58 0 -165 -23 -209 -33v59c50 11 152 32 209 32c86 0 150 -18 178 -78c30 46 84 78 178 78c140 0 210 -73 210 -207c0 -25 -3 -66 -10 -102h-364c0 -130 32 -195 177 -195c60 0 128 13 170 21v-59
c-40 -8 -118 -20 -170 -20c-93 0 -173 18 -215 108c-62 -49 -140 -108 -222 -108c-105 0 -164 40 -164 152zM648 487c-132 0 -164 -82 -164 -197h308c2 15 4 32 4 52c0 96 -48 145 -148 145zM156 214c-26 -17 -34 -45 -34 -78c0 -75 32 -95 103 -95c40 0 80 17 124 45
c24 15 49 32 76 51v99h-135c-57 0 -102 -1 -134 -22zM475 617h-78l119 137h80z" />
    <glyph glyph-name="Amacron" unicode="&#x100;" horiz-adv-x="686" 
d="M17 0l285 754h82l285 -754h-67l-76 200h-368l-76 -200h-65zM342 690l-162 -430h323zM490 839h-294v55h294v-55z" />
    <glyph glyph-name="amacron" unicode="&#x101;" 
d="M242 -17c-163 0 -179 154 -179 283c0 158 43 279 223 279c64 0 131 -25 209 -54v-491h-61v89c-51 -46 -121 -106 -192 -106zM155 424c-21 -37 -30 -97 -30 -158c0 -63 7 -130 22 -163c19 -42 46 -62 95 -62c33 0 66 18 102 46c31 24 65 53 90 75v289
c-49 18 -98 36 -148 36c-65 0 -105 -17 -131 -63zM443 645h-294v55h294v-55z" />
    <glyph glyph-name="Abreve" unicode="&#x102;" horiz-adv-x="686" 
d="M82 0h-65l285 754h82l285 -754h-67l-76 200h-368zM180 260h323l-161 430zM191 935h61c16 -51 30 -90 91 -90c57 0 78 41 91 90h61c-24 -82 -59 -141 -152 -141s-130 58 -152 141z" />
    <glyph glyph-name="abreve" unicode="&#x103;" 
d="M63 266c0 158 43 279 223 279c64 0 131 -25 209 -54v-491h-61v89c-51 -46 -121 -106 -192 -106c-163 0 -179 155 -179 283zM155 424c-21 -37 -30 -97 -30 -158c0 -63 7 -130 22 -163c19 -42 46 -62 95 -62c33 0 66 18 102 46c31 24 65 53 90 75v289
c-49 18 -98 36 -148 36c-65 0 -105 -17 -131 -63zM287 613c-93 0 -130 58 -152 141h61c16 -51 30 -90 91 -90c57 0 78 41 91 90h61c-24 -82 -59 -141 -152 -141z" />
    <glyph glyph-name="Aogonek" unicode="&#x104;" horiz-adv-x="686" 
d="M83 0h-66l285 754h82l287 -754c-22 -17 -57 -44 -78 -66c-19 -20 -25 -34 -25 -51s10 -24 30 -24c22 0 50 12 73 22v-59c-24 -10 -54 -19 -80 -19c-54 0 -86 21 -86 77c0 51 56 98 93 127l-73 193h-367zM180 260h323l-161 430z" />
    <glyph glyph-name="aogonek" unicode="&#x105;" 
d="M63 266c0 158 43 279 223 279c64 0 131 -25 209 -54v-491c-22 -16 -59 -45 -78 -66c-20 -22 -25 -34 -25 -51s10 -24 30 -24c22 0 50 12 73 22v-59c-24 -10 -54 -19 -80 -19c-54 0 -86 21 -86 77c0 55 64 104 105 133v76c-51 -46 -121 -106 -192 -106
c-163 0 -179 155 -179 283zM155 424c-21 -37 -30 -97 -30 -158c0 -63 7 -130 22 -163c19 -42 46 -62 95 -62c33 0 66 18 102 46c31 24 65 53 90 75v289c-49 18 -98 36 -148 36c-65 0 -105 -17 -131 -63z" />
    <glyph glyph-name="uni1EA0" unicode="&#x1ea0;" horiz-adv-x="686" 
d="M17 0l285 754h82l285 -754h-67l-76 200h-368l-76 -200h-65zM342 690l-162 -430h323zM312 -192v132h65v-132h-65z" />
    <glyph glyph-name="uni1EA1" unicode="&#x1ea1;" 
d="M63 266c0 158 43 279 223 279c64 0 131 -25 209 -54v-491h-61v89c-51 -46 -121 -106 -192 -106c-163 0 -179 155 -179 283zM155 424c-21 -37 -30 -97 -30 -158c0 -63 7 -130 22 -163c19 -42 46 -62 95 -62c33 0 66 18 102 46c31 24 65 53 90 75v289
c-49 18 -98 36 -148 36c-65 0 -105 -17 -131 -63zM310 -192h-65v132h65v-132z" />
    <glyph glyph-name="Cacute" unicode="&#x106;" horiz-adv-x="658" 
d="M124 124c-25 56 -37 153 -37 249c0 109 13 218 52 285c44 75 105 113 237 113c76 0 154 -18 226 -39v-62c-73 20 -150 41 -226 41c-98 0 -152 -25 -188 -97c-26 -52 -37 -148 -37 -241c0 -91 10 -172 30 -220c31 -74 88 -110 191 -110c75 0 153 16 230 33v-62
c-78 -16 -151 -31 -230 -31c-140 0 -207 48 -248 141zM375 813h-78l119 137h80z" />
    <glyph glyph-name="cacute" unicode="&#x107;" horiz-adv-x="483" 
d="M103 67c-29 50 -40 126 -40 193c0 63 5 129 22 172c29 74 78 113 198 113c50 0 116 -19 157 -31v-59c-38 11 -112 32 -157 32c-75 0 -113 -16 -138 -73c-15 -34 -20 -96 -20 -152c0 -61 10 -125 30 -161c26 -47 67 -60 128 -60c47 0 113 15 157 26v-59
c-43 -10 -108 -25 -157 -25c-98 0 -145 25 -180 84zM273 617h-78l119 137h80z" />
    <glyph glyph-name="Ccircumflex" unicode="&#x108;" horiz-adv-x="658" 
d="M87 373c0 109 13 218 52 285c44 75 105 113 237 113c76 0 154 -18 226 -39v-62c-73 20 -150 41 -226 41c-98 0 -152 -25 -188 -97c-26 -52 -37 -148 -37 -241c0 -91 10 -172 30 -220c31 -74 88 -110 191 -110c75 0 153 16 230 33v-62c-78 -16 -151 -31 -230 -31
c-140 0 -207 48 -248 141c-25 56 -37 153 -37 249zM285 813h-75l126 137h70l126 -137h-75l-86 92z" />
    <glyph glyph-name="ccircumflex" unicode="&#x109;" horiz-adv-x="483" 
d="M63 260c0 63 5 129 22 172c29 74 78 113 198 113c50 0 116 -19 157 -31v-59c-38 11 -112 32 -157 32c-75 0 -113 -16 -138 -73c-15 -34 -20 -96 -20 -152c0 -61 10 -125 30 -161c26 -47 67 -60 128 -60c47 0 113 15 157 26v-59c-43 -10 -108 -25 -157 -25
c-98 0 -146 25 -180 84c-29 50 -40 126 -40 193zM107 617l126 137h70l126 -137h-75l-86 92l-86 -92h-75z" />
    <glyph glyph-name="Ccaron" unicode="&#x10c;" horiz-adv-x="658" 
d="M124 124c-25 56 -37 153 -37 249c0 109 13 218 52 285c44 75 105 113 237 113c76 0 154 -18 226 -39v-62c-73 20 -150 41 -226 41c-98 0 -152 -25 -188 -97c-26 -52 -37 -148 -37 -241c0 -91 10 -172 30 -220c31 -74 88 -110 191 -110c75 0 153 16 230 33v-62
c-78 -16 -151 -31 -230 -31c-140 0 -207 48 -248 141zM203 950h75l86 -92l86 92h75l-126 -137h-70z" />
    <glyph glyph-name="ccaron" unicode="&#x10d;" horiz-adv-x="483" 
d="M63 260c0 63 5 129 22 172c29 74 78 113 198 113c50 0 116 -19 157 -31v-59c-38 11 -112 32 -157 32c-75 0 -113 -16 -138 -73c-15 -34 -20 -96 -20 -152c0 -61 10 -125 30 -161c26 -47 67 -60 128 -60c47 0 113 15 157 26v-59c-43 -10 -108 -25 -157 -25
c-98 0 -146 25 -180 84c-29 50 -40 126 -40 193zM103 754h75l86 -92l86 92h75l-126 -137h-70z" />
    <glyph glyph-name="Ccedilla" unicode="&#xc7;" horiz-adv-x="658" 
d="M124 124c-25 56 -37 153 -37 249c0 109 13 218 52 285c44 75 105 113 237 113c76 0 154 -18 226 -39v-62c-73 20 -150 41 -226 41c-98 0 -152 -25 -188 -97c-26 -52 -37 -148 -37 -241c0 -91 10 -172 30 -220c31 -74 88 -110 191 -110c75 0 153 16 230 33v-62
c-78 -16 -151 -31 -230 -31c-140 0 -207 48 -248 141zM333 -192h-74l82 132h74z" />
    <glyph glyph-name="ccedilla" unicode="&#xe7;" horiz-adv-x="483" 
d="M103 67c-29 50 -40 126 -40 193c0 63 5 129 22 172c29 74 78 113 198 113c50 0 116 -19 157 -31v-59c-38 11 -112 32 -157 32c-75 0 -113 -16 -138 -73c-15 -34 -20 -96 -20 -152c0 -61 10 -125 30 -161c26 -47 67 -60 128 -60c47 0 113 15 157 26v-59
c-43 -10 -108 -25 -157 -25c-98 0 -145 25 -180 84zM235 -192h-74l82 132h74z" />
    <glyph glyph-name="Cdotaccent" unicode="&#x10a;" horiz-adv-x="658" 
d="M124 124c-25 56 -37 153 -37 249c0 109 13 218 52 285c44 75 105 113 237 113c76 0 154 -18 226 -39v-62c-73 20 -150 41 -226 41c-98 0 -152 -25 -188 -97c-26 -52 -37 -148 -37 -241c0 -91 10 -172 30 -220c31 -74 88 -110 191 -110c75 0 153 16 230 33v-62
c-78 -16 -151 -31 -230 -31c-140 0 -207 48 -248 141zM393 818h-65v132h65v-132z" />
    <glyph glyph-name="cdotaccent" unicode="&#x10b;" horiz-adv-x="483" 
d="M63 260c0 63 5 129 22 172c29 74 78 113 198 113c50 0 116 -19 157 -31v-59c-38 11 -112 32 -157 32c-75 0 -113 -16 -138 -73c-15 -34 -20 -96 -20 -152c0 -61 10 -125 30 -161c26 -47 67 -60 128 -60c47 0 113 15 157 26v-59c-43 -10 -108 -25 -157 -25
c-98 0 -146 25 -180 84c-29 50 -40 126 -40 193zM233 754h65v-132h-65v132z" />
    <glyph glyph-name="Dcaron" unicode="&#x10e;" horiz-adv-x="748" 
d="M349 0h-247v754h255c105 0 161 -16 213 -65c63 -60 91 -178 91 -309s-28 -245 -92 -309c-54 -54 -119 -71 -220 -71zM357 694h-193v-634h185c94 0 143 21 182 64c42 46 66 140 66 256c0 108 -21 207 -67 259c-41 46 -95 55 -173 55zM171 950h75l86 -92l86 92h75
l-126 -137h-70z" />
    <glyph glyph-name="dcaron" unicode="&#x10f;" horiz-adv-x="610" 
d="M97 67c-24 49 -34 121 -34 198c0 151 28 280 207 280c60 0 131 -22 170 -34v243h61v-754h-61v70c-58 -42 -121 -87 -196 -87c-86 0 -122 33 -147 84zM125 265c0 -66 6 -120 23 -161c18 -43 43 -63 96 -63c67 0 145 59 196 99v310c-64 20 -118 37 -170 37
c-56 0 -96 -15 -119 -62c-20 -41 -26 -98 -26 -160zM610 563h-50v191h61v-66c0 -30 -2 -69 -11 -125z" />
    <glyph glyph-name="Dcroat" unicode="&#x110;" horiz-adv-x="757" 
d="M35 360v60h76v334h255c105 0 161 -16 213 -65c63 -60 91 -178 91 -309s-28 -245 -92 -309c-54 -54 -119 -71 -220 -71h-247v360h-76zM173 420h216v-60h-216v-300h185c94 0 143 21 182 64c42 46 66 140 66 256c0 108 -21 207 -67 259c-41 46 -95 55 -173 55h-193v-274z
" />
    <glyph glyph-name="dcroat" unicode="&#x111;" horiz-adv-x="584" 
d="M97 67c-24 49 -34 121 -34 198c0 151 28 280 207 280c59 0 131 -22 170 -34v90h-142v58h142v95h61v-95h83v-58h-83v-601h-61v70c-58 -42 -121 -87 -196 -87c-86 0 -122 33 -147 84zM125 265c0 -66 6 -120 23 -161c18 -43 43 -63 96 -63c67 0 145 59 196 99v310
c-64 20 -118 37 -170 37c-56 0 -96 -15 -119 -62c-20 -41 -26 -98 -26 -160z" />
    <glyph glyph-name="Eth" unicode="&#xd0;" horiz-adv-x="757" 
d="M35 360v60h76v334h255c105 0 161 -16 213 -65c63 -60 91 -178 91 -309s-28 -245 -92 -309c-54 -54 -119 -71 -220 -71h-247v360h-76zM173 420h216v-60h-216v-300h185c94 0 143 21 182 64c42 46 66 140 66 256c0 108 -21 207 -67 259c-41 46 -95 55 -173 55h-193v-274z
" />
    <glyph glyph-name="eth" unicode="&#xf0;" horiz-adv-x="587" 
d="M288 -17c-172 0 -225 102 -225 259c0 150 43 256 216 256c53 0 107 -19 150 -34c-7 37 -25 108 -72 163l-159 -78v58l118 58c-41 27 -85 42 -118 50v60c58 -15 123 -38 176 -81l121 60v-58l-82 -41c77 -96 100 -267 100 -409c0 -151 -54 -263 -225 -263zM279 440
c-131 0 -154 -84 -154 -196c0 -62 9 -106 29 -141c28 -49 70 -62 134 -62c135 0 163 91 163 208c0 60 -3 108 -12 152c-34 13 -103 39 -160 39z" />
    <glyph glyph-name="Eacute" unicode="&#xc9;" horiz-adv-x="652" 
d="M102 0v754h494v-60h-432v-279h410v-60h-410v-295h448v-60h-510zM275 813l119 137h80l-121 -137h-78z" />
    <glyph glyph-name="eacute" unicode="&#xe9;" horiz-adv-x="559" 
d="M302 -17c-199 0 -239 102 -239 279c0 160 39 283 226 283c140 0 210 -73 210 -207c0 -25 -3 -66 -10 -102h-364c0 -129 37 -195 177 -195c60 0 128 13 170 21v-59c-40 -8 -118 -20 -170 -20zM125 290h308c2 15 4 32 4 52c0 96 -48 145 -148 145
c-129 0 -164 -82 -164 -197zM297 617h-78l119 137h80z" />
    <glyph glyph-name="Egrave" unicode="&#xc8;" horiz-adv-x="652" 
d="M102 0v754h494v-60h-432v-279h410v-60h-410v-295h448v-60h-510zM335 813l-118 137h79l116 -137h-77z" />
    <glyph glyph-name="egrave" unicode="&#xe8;" horiz-adv-x="559" 
d="M302 -17c-199 0 -239 102 -239 279c0 160 39 283 226 283c140 0 210 -73 210 -207c0 -25 -3 -66 -10 -102h-364c0 -129 37 -195 177 -195c60 0 128 13 170 21v-59c-40 -8 -118 -20 -170 -20zM125 290h308c2 15 4 32 4 52c0 96 -48 145 -148 145
c-129 0 -164 -82 -164 -197zM161 754h79l116 -137h-77z" />
    <glyph glyph-name="Ecircumflex" unicode="&#xca;" horiz-adv-x="652" 
d="M612 0h-510v754h494v-60h-432v-279h410v-60h-410v-295h448v-60zM263 802h-75l126 137h70l126 -137h-75l-86 92z" />
    <glyph glyph-name="ecircumflex" unicode="&#xea;" horiz-adv-x="559" 
d="M302 -17c-199 0 -239 102 -239 279c0 160 39 283 226 283c140 0 210 -73 210 -207c0 -25 -3 -66 -10 -102h-364c0 -129 37 -195 177 -195c60 0 128 13 170 21v-59c-40 -8 -118 -20 -170 -20zM289 487c-129 0 -164 -82 -164 -197h308c2 15 4 32 4 52
c0 96 -48 145 -148 145zM201 617h-75l126 137h70l126 -137h-75l-86 92z" />
    <glyph glyph-name="Ecaron" unicode="&#x11a;" horiz-adv-x="652" 
d="M102 0v754h494v-60h-432v-279h410v-60h-410v-295h448v-60h-510zM314 813l-126 137h75l86 -92l86 92h75l-126 -137h-70z" />
    <glyph glyph-name="ecaron" unicode="&#x11b;" horiz-adv-x="559" 
d="M302 -17c-199 0 -239 102 -239 279c0 160 39 283 226 283c140 0 210 -73 210 -207c0 -25 -3 -66 -10 -102h-364c0 -129 37 -195 177 -195c60 0 128 13 170 21v-59c-40 -8 -118 -20 -170 -20zM289 487c-129 0 -164 -82 -164 -197h308c2 15 4 32 4 52
c0 96 -48 145 -148 145zM245 617l-126 137h75l86 -92l86 92h75l-126 -137h-70z" />
    <glyph glyph-name="Edieresis" unicode="&#xcb;" horiz-adv-x="652" 
d="M102 754h494v-60h-432v-279h410v-60h-410v-295h448v-60h-510v754zM420 950h63v-132h-63v132zM280 818h-63v132h63v-132z" />
    <glyph glyph-name="edieresis" unicode="&#xeb;" horiz-adv-x="559" 
d="M302 -17c-199 0 -239 102 -239 279c0 160 39 283 226 283c140 0 210 -73 210 -207c0 -25 -3 -66 -10 -102h-364c0 -129 37 -195 177 -195c60 0 128 13 170 21v-59c-40 -8 -118 -20 -170 -20zM125 290h308c2 15 4 32 4 52c0 96 -48 145 -148 145
c-129 0 -164 -82 -164 -197zM342 754h62v-132h-62v132zM168 622v132h62v-132h-62z" />
    <glyph glyph-name="uni1EBC" unicode="&#x1ebc;" horiz-adv-x="652" 
d="M102 0v754h494v-60h-432v-279h410v-60h-410v-295h448v-60h-510zM226 818h-58c34 87 56 115 114 115c27 0 51 -8 85 -35c28 -22 41 -31 62 -31c31 0 41 21 56 56h59c-28 -63 -50 -110 -115 -110c-28 0 -52 7 -80 29c-31 25 -47 37 -67 37c-31 0 -42 -27 -56 -61z" />
    <glyph glyph-name="uni1EBD" unicode="&#x1ebd;" horiz-adv-x="559" 
d="M63 262c0 160 39 283 226 283c140 0 210 -73 210 -207c0 -25 -3 -66 -10 -102h-364c0 -129 37 -195 177 -195c60 0 128 13 170 21v-59c-40 -8 -118 -20 -170 -20c-199 0 -239 102 -239 279zM289 487c-129 0 -164 -82 -164 -197h308c2 15 4 32 4 52c0 96 -48 145 -148 145
zM101 629c34 87 56 115 114 115c27 0 51 -8 85 -35c28 -22 41 -31 62 -31c31 0 41 21 56 56h59c-28 -63 -50 -110 -115 -110c-28 0 -52 7 -80 29c-31 25 -47 37 -67 37c-31 0 -42 -27 -56 -61h-58z" />
    <glyph glyph-name="Emacron" unicode="&#x112;" horiz-adv-x="652" 
d="M102 0v754h494v-60h-432v-279h410v-60h-410v-295h448v-60h-510zM202 894h294v-55h-294v55z" />
    <glyph glyph-name="emacron" unicode="&#x113;" horiz-adv-x="559" 
d="M302 -17c-199 0 -239 102 -239 279c0 160 39 283 226 283c140 0 210 -73 210 -207c0 -25 -3 -66 -10 -102h-364c0 -129 37 -195 177 -195c60 0 128 13 170 21v-59c-40 -8 -118 -20 -170 -20zM289 487c-129 0 -164 -82 -164 -197h308c2 15 4 32 4 52
c0 96 -48 145 -148 145zM436 645h-294v55h294v-55z" />
    <glyph glyph-name="Ebreve" unicode="&#x114;" horiz-adv-x="652" 
d="M102 0v754h494v-60h-432v-279h410v-60h-410v-295h448v-60h-510zM191 950h61c16 -51 30 -90 91 -90c57 0 78 41 91 90h61c-24 -82 -59 -141 -152 -141s-130 58 -152 141z" />
    <glyph glyph-name="ebreve" unicode="&#x115;" horiz-adv-x="559" 
d="M302 -17c-199 0 -239 102 -239 279c0 160 39 283 226 283c140 0 210 -73 210 -207c0 -25 -3 -66 -10 -102h-364c0 -129 37 -195 177 -195c60 0 128 13 170 21v-59c-40 -8 -118 -20 -170 -20zM125 290h308c2 15 4 32 4 52c0 96 -48 145 -148 145
c-129 0 -164 -82 -164 -197zM286 613c-93 0 -130 58 -152 141h61c16 -51 30 -90 91 -90c57 0 78 41 91 90h61c-24 -82 -59 -141 -152 -141z" />
    <glyph glyph-name="Eogonek" unicode="&#x118;" horiz-adv-x="652" 
d="M102 0v754h494v-60h-432v-279h410v-60h-410v-295h448v-60c-22 -18 -56 -42 -78 -66c-19 -20 -25 -34 -25 -51s10 -24 30 -24c22 0 50 12 73 22v-59c-24 -10 -54 -19 -80 -19c-54 0 -86 21 -86 77s51 92 93 120h-437z" />
    <glyph glyph-name="eogonek" unicode="&#x119;" horiz-adv-x="559" 
d="M302 -17c-199 0 -239 102 -239 279c0 160 39 283 226 283c140 0 210 -73 210 -207c0 -25 -3 -66 -10 -102h-364c0 -129 37 -195 177 -195c60 0 128 13 170 21v-59c-22 -17 -56 -44 -78 -68c-19 -20 -25 -35 -25 -52s10 -24 30 -24c22 0 50 12 73 22v-59
c-24 -10 -54 -19 -80 -19c-54 0 -86 21 -86 77c0 50 41 83 78 110c-28 -4 -59 -7 -82 -7zM289 487c-131 0 -163 -82 -163 -197h307c2 15 4 32 4 52c0 96 -48 145 -148 145z" />
    <glyph glyph-name="Edotaccent" unicode="&#x116;" horiz-adv-x="652" 
d="M102 0v754h494v-60h-432v-279h410v-60h-410v-295h448v-60h-510zM313 950h65v-132h-65v132z" />
    <glyph glyph-name="edotaccent" unicode="&#x117;" horiz-adv-x="559" 
d="M302 -17c-199 0 -239 102 -239 279c0 160 39 283 226 283c140 0 210 -73 210 -207c0 -25 -3 -66 -10 -102h-364c0 -129 37 -195 177 -195c60 0 128 13 170 21v-59c-40 -8 -118 -20 -170 -20zM125 290h308c2 15 4 32 4 52c0 96 -48 145 -148 145
c-129 0 -164 -82 -164 -197zM316 622h-65v132h65v-132z" />
    <glyph glyph-name="uni1EB8" unicode="&#x1eb8;" horiz-adv-x="652" 
d="M102 0v754h494v-60h-432v-279h410v-60h-410v-295h448v-60h-510zM318 -60h65v-132h-65v132z" />
    <glyph glyph-name="uni1EB9" unicode="&#x1eb9;" horiz-adv-x="559" 
d="M302 -17c-199 0 -239 102 -239 279c0 160 39 283 226 283c140 0 210 -73 210 -207c0 -25 -3 -66 -10 -102h-364c0 -129 37 -195 177 -195c60 0 128 13 170 21v-59c-40 -8 -118 -20 -170 -20zM125 290h308c2 15 4 32 4 52c0 96 -48 145 -148 145
c-129 0 -164 -82 -164 -197zM311 -192h-65v132h65v-132z" />
    <glyph glyph-name="uni018F" unicode="&#x18f;" horiz-adv-x="727" 
d="M85 258c0 48 3 91 9 135h482c0 89 -11 170 -38 221c-38 72 -91 97 -189 97c-80 0 -163 -20 -238 -38v61c73 18 156 37 238 37c259 0 291 -188 291 -403c0 -197 -46 -385 -285 -385c-189 0 -270 89 -270 275zM153 333c-2 -15 -4 -35 -4 -75c0 -146 52 -215 206 -215
c97 0 158 42 190 113c18 40 31 115 31 177h-423z" />
    <glyph glyph-name="uni0259" unicode="&#x259;" horiz-adv-x="559" 
d="M60 190c0 25 3 64 10 100h364c0 129 -36 197 -177 197c-61 0 -129 -13 -170 -21v59c41 7 121 20 170 20c199 0 239 -102 239 -279c0 -160 -38 -283 -226 -283c-140 0 -210 73 -210 207zM122 186c0 -96 48 -145 148 -145c129 0 163 81 163 195h-307c-2 -15 -4 -30 -4 -50z
" />
    <glyph glyph-name="Gcircumflex" unicode="&#x11c;" horiz-adv-x="737" 
d="M87 373c0 109 13 218 52 285c44 75 106 113 237 113c79 0 159 -20 235 -40v-62c-39 10 -84 21 -129 30c-34 7 -69 12 -106 12c-98 0 -152 -25 -188 -97c-26 -52 -37 -148 -37 -241c0 -163 17 -330 221 -330c63 0 151 10 203 17v342h62v-394c-80 -12 -171 -25 -265 -25
c-146 0 -205 55 -245 137c-27 55 -40 148 -40 253zM289 813h-75l126 137h70l126 -137h-75l-86 92z" />
    <glyph glyph-name="gcircumflex" unicode="&#x11d;" horiz-adv-x="580" 
d="M98 77c-22 41 -34 113 -34 192c0 78 10 143 36 190c37 67 95 86 178 86c65 0 162 -32 219 -51v-457c0 -163 -84 -246 -247 -246c-59 0 -121 8 -167 14v59c36 -5 110 -15 167 -15c120 0 186 62 186 182v26c-58 -29 -123 -57 -189 -57c-87 0 -125 32 -149 77zM152 424
c-18 -36 -26 -94 -26 -155c0 -68 8 -122 24 -157c18 -39 46 -54 97 -54c60 0 136 35 189 62v331c-29 10 -107 36 -158 36c-65 0 -102 -16 -126 -63zM204 617h-75l126 137h70l126 -137h-75l-86 92z" />
    <glyph glyph-name="Gcaron" unicode="&#x1e6;" horiz-adv-x="737" 
d="M127 120c-27 55 -40 148 -40 253c0 109 13 218 52 285c44 75 106 113 237 113c79 0 159 -20 235 -40v-62c-39 10 -84 21 -129 30c-34 7 -69 12 -106 12c-98 0 -152 -25 -188 -97c-26 -52 -37 -148 -37 -241c0 -163 17 -330 221 -330c63 0 151 10 203 17v342h62v-394
c-80 -12 -171 -25 -265 -25c-146 0 -205 55 -245 137zM213 950h75l86 -92l86 92h75l-126 -137h-70z" />
    <glyph glyph-name="gcaron" unicode="&#x1e7;" horiz-adv-x="580" 
d="M64 269c0 78 10 143 36 190c37 67 95 86 178 86c65 0 162 -32 219 -51v-457c0 -163 -84 -246 -247 -246c-59 0 -121 8 -167 14v59c36 -5 110 -15 167 -15c120 0 186 62 186 182v26c-58 -29 -123 -57 -189 -57c-87 0 -125 32 -149 77c-22 41 -34 113 -34 192zM152 424
c-18 -36 -26 -94 -26 -155c0 -68 8 -122 24 -157c18 -39 46 -54 97 -54c60 0 136 35 189 62v331c-29 10 -107 36 -158 36c-65 0 -102 -16 -126 -63zM251 617l-126 137h75l86 -92l86 92h75l-126 -137h-70z" />
    <glyph glyph-name="Gbreve" unicode="&#x11e;" horiz-adv-x="737" 
d="M127 120c-27 55 -40 148 -40 253c0 109 13 218 52 285c44 75 106 113 237 113c79 0 159 -20 235 -40v-62c-39 10 -84 21 -129 30c-34 7 -69 12 -106 12c-98 0 -152 -25 -188 -97c-26 -52 -37 -148 -37 -241c0 -163 17 -330 221 -330c63 0 151 10 203 17v342h62v-394
c-80 -12 -171 -25 -265 -25c-146 0 -205 55 -245 137zM376 809c-93 0 -130 58 -152 141h61c16 -51 30 -90 91 -90c57 0 78 41 91 90h61c-24 -82 -59 -141 -152 -141z" />
    <glyph glyph-name="gbreve" unicode="&#x11f;" horiz-adv-x="580" 
d="M64 269c0 78 10 143 36 190c37 67 95 86 178 86c65 0 162 -32 219 -51v-457c0 -163 -84 -246 -247 -246c-59 0 -121 8 -167 14v59c36 -5 110 -15 167 -15c120 0 186 62 186 182v26c-58 -29 -123 -57 -189 -57c-87 0 -125 32 -149 77c-22 41 -34 113 -34 192zM152 424
c-18 -36 -26 -94 -26 -155c0 -68 8 -122 24 -157c18 -39 46 -54 97 -54c60 0 136 35 189 62v331c-29 10 -107 36 -158 36c-65 0 -102 -16 -126 -63zM285 613c-93 0 -130 58 -152 141h61c16 -51 30 -90 91 -90c57 0 78 41 91 90h61c-24 -82 -59 -141 -152 -141z" />
    <glyph glyph-name="uni0122" unicode="&#x122;" horiz-adv-x="737" 
d="M87 373c0 109 13 218 52 285c44 75 106 113 237 113c79 0 159 -20 235 -40v-62c-39 10 -84 21 -129 30c-34 7 -69 12 -106 12c-98 0 -152 -25 -188 -97c-26 -52 -37 -148 -37 -241c0 -163 17 -330 221 -330c63 0 151 10 203 17v342h62v-394c-80 -12 -171 -25 -265 -25
c-146 0 -205 55 -245 137c-27 55 -40 148 -40 253zM336 -279c15 66 16 104 16 168v52h62v-62c0 -60 -4 -103 -26 -158h-52z" />
    <glyph glyph-name="uni0123" unicode="&#x123;" horiz-adv-x="580" 
d="M64 269c0 78 10 143 36 190c37 67 95 86 178 86c65 0 162 -32 219 -51v-457c0 -163 -84 -246 -247 -246c-59 0 -121 8 -167 14v59c36 -5 110 -15 167 -15c120 0 186 62 186 182v26c-58 -29 -123 -57 -189 -57c-87 0 -125 32 -149 77c-22 41 -34 113 -34 192zM152 424
c-18 -36 -26 -94 -26 -155c0 -68 8 -122 24 -157c18 -39 46 -54 97 -54c60 0 136 35 189 62v331c-29 10 -107 36 -158 36c-65 0 -102 -16 -126 -63zM313 603h-62v62c0 60 4 103 26 158h52c-15 -66 -16 -104 -16 -168v-52z" />
    <glyph glyph-name="Gdotaccent" unicode="&#x120;" horiz-adv-x="737" 
d="M87 373c0 109 13 218 52 285c44 75 106 113 237 113c79 0 159 -20 235 -40v-62c-39 10 -84 21 -129 30c-34 7 -69 12 -106 12c-98 0 -152 -25 -188 -97c-26 -52 -37 -148 -37 -241c0 -163 17 -330 221 -330c63 0 151 10 203 17v342h62v-394c-80 -12 -171 -25 -265 -25
c-146 0 -205 55 -245 137c-27 55 -40 148 -40 253zM341 950h65v-132h-65v132z" />
    <glyph glyph-name="gdotaccent" unicode="&#x121;" horiz-adv-x="580" 
d="M64 269c0 78 10 143 36 190c37 67 95 86 178 86c65 0 162 -32 219 -51v-457c0 -163 -84 -246 -247 -246c-59 0 -121 8 -167 14v59c36 -5 110 -15 167 -15c120 0 186 62 186 182v26c-58 -29 -123 -57 -189 -57c-87 0 -125 32 -149 77c-22 41 -34 113 -34 192zM152 424
c-18 -36 -26 -94 -26 -155c0 -68 8 -122 24 -157c18 -39 46 -54 97 -54c60 0 136 35 189 62v331c-29 10 -107 36 -158 36c-65 0 -102 -16 -126 -63zM319 622h-65v132h65v-132z" />
    <glyph glyph-name="Hcircumflex" unicode="&#x124;" horiz-adv-x="764" 
d="M164 0h-62v754h62v-324h436v324h62v-754h-62v370h-436v-370zM221 813l126 137h70l126 -137h-75l-86 92l-86 -92h-75z" />
    <glyph glyph-name="hcircumflex" unicode="&#x125;" 
d="M83 0v754h61v-261c70 29 128 52 186 52c142 0 166 -75 166 -201v-344h-61v343c0 84 -7 144 -105 144c-60 0 -130 -31 -186 -56v-431h-61zM29 813h-75l126 137h70l126 -137h-75l-86 92z" />
    <glyph glyph-name="Hbar" unicode="&#x126;" horiz-adv-x="764" 
d="M164 0h-62v754h62v-155h436v155h62v-754h-62v360h-436v-360zM164 420h436v119h-436v-119z" />
    <glyph glyph-name="hbar" unicode="&#x127;" 
d="M0 659h83v95h61v-95h145v-58h-145v-108c69 28 129 52 186 52c142 0 166 -75 166 -201v-344h-61v343c0 84 -7 144 -105 144c-60 0 -130 -31 -186 -56v-431h-61v601h-83v58z" />
    <glyph glyph-name="Iacute" unicode="&#xcd;" horiz-adv-x="266" 
d="M164 0h-62v754h62v-754zM169 813h-78l119 137h80z" />
    <glyph glyph-name="iacute" unicode="&#xed;" horiz-adv-x="227" 
d="M138 617h-78l119 137h80zM144 0h-61v528h61v-528z" />
    <glyph glyph-name="Igrave" unicode="&#xcc;" horiz-adv-x="266" 
d="M164 0h-62v754h62v-754zM181 813h-77l-118 137h79z" />
    <glyph glyph-name="igrave" unicode="&#xec;" horiz-adv-x="227" 
d="M163 617h-77l-118 137h79zM144 0h-61v528h61v-528z" />
    <glyph glyph-name="Icircumflex" unicode="&#xce;" horiz-adv-x="266" 
d="M164 0h-62v754h62v-754zM47 813h-75l126 137h70l126 -137h-75l-86 92z" />
    <glyph glyph-name="icircumflex" unicode="&#xee;" horiz-adv-x="227" 
d="M83 0v528h61v-528h-61zM27 617h-75l126 137h70l126 -137h-75l-86 92z" />
    <glyph glyph-name="Idieresis" unicode="&#xcf;" horiz-adv-x="266" 
d="M164 0h-62v754h62v-754zM167 950h63v-132h-63v132zM99 818h-63v132h63v-132z" />
    <glyph glyph-name="idieresis" unicode="&#xef;" horiz-adv-x="227" 
d="M144 0h-61v528h61v-528zM145 754h62v-132h-62v132zM82 622h-62v132h62v-132z" />
    <glyph glyph-name="Itilde" unicode="&#x128;" horiz-adv-x="266" 
d="M102 0v754h62v-754h-62zM-53 826c34 87 56 115 114 115c27 0 51 -8 85 -35c28 -22 41 -31 62 -31c31 0 41 21 56 56h59c-28 -63 -50 -110 -115 -110c-28 0 -52 7 -80 29c-31 25 -47 37 -67 37c-31 0 -42 -27 -56 -61h-58z" />
    <glyph glyph-name="itilde" unicode="&#x129;" horiz-adv-x="227" 
d="M83 0v528h61v-528h-61zM-72 625c34 87 56 115 114 115c27 0 51 -8 85 -35c28 -22 41 -31 62 -31c31 0 41 21 56 56h59c-28 -63 -50 -110 -115 -110c-28 0 -52 7 -80 29c-31 25 -47 37 -67 37c-31 0 -42 -27 -56 -61h-58z" />
    <glyph glyph-name="Imacron" unicode="&#x12a;" horiz-adv-x="266" 
d="M164 0h-62v754h62v-754zM280 839h-294v55h294v-55z" />
    <glyph glyph-name="imacron" unicode="&#x12b;" horiz-adv-x="227" 
d="M144 0h-61v528h61v-528zM261 645h-294v55h294v-55z" />
    <glyph glyph-name="Ibreve" unicode="&#x12c;" horiz-adv-x="266" 
d="M102 754h62v-754h-62v754zM-19 950h61c16 -51 30 -90 91 -90c57 0 78 41 91 90h61c-24 -82 -59 -141 -152 -141s-130 58 -152 141z" />
    <glyph glyph-name="ibreve" unicode="&#x12d;" horiz-adv-x="227" 
d="M83 528h61v-528h-61v528zM-39 754h61c16 -51 30 -90 91 -90c57 0 78 41 91 90h61c-24 -82 -59 -141 -152 -141s-130 58 -152 141z" />
    <glyph glyph-name="Iogonek" unicode="&#x12e;" horiz-adv-x="266" 
d="M46 -120c0 45 29 87 56 120v754h62v-754c-26 -33 -55 -73 -55 -117c0 -17 10 -24 30 -24c22 0 50 12 73 22v-59c-24 -10 -54 -19 -80 -19c-55 0 -86 19 -86 77z" />
    <glyph glyph-name="iogonek" unicode="&#x12f;" horiz-adv-x="227" 
d="M27 -120c0 45 29 87 56 120v528h61v-528c-27 -34 -54 -72 -54 -117c0 -17 10 -24 30 -24c22 0 50 12 73 22v-59c-24 -10 -54 -19 -80 -19c-54 0 -86 21 -86 77zM146 617h-65v137h65v-137z" />
    <glyph glyph-name="Idotaccent" unicode="&#x130;" horiz-adv-x="266" 
d="M164 0h-62v754h62v-754zM166 818h-65v132h65v-132z" />
    <glyph glyph-name="dotlessi" unicode="&#x131;" horiz-adv-x="227" 
d="M144 0h-61v528h61v-528z" />
    <glyph glyph-name="uni1ECA" unicode="&#x1eca;" horiz-adv-x="266" 
d="M164 0h-62v754h62v-754zM165 -192h-65v132h65v-132z" />
    <glyph glyph-name="uni1ECB" unicode="&#x1ecb;" horiz-adv-x="227" 
d="M83 0v528h61v-528h-61zM81 622v132h65v-132h-65zM146 -192h-65v132h65v-132z" />
    <glyph glyph-name="IJ" unicode="&#x132;" horiz-adv-x="615" 
d="M233 -92v63c35 11 114 39 155 62c28 16 46 32 55 57c10 29 10 79 10 128v536h62v-534c0 -69 0 -113 -12 -152c-8 -26 -27 -52 -56 -71c-57 -37 -160 -73 -214 -89zM102 754h62v-754h-62v754z" />
    <glyph glyph-name="ij" unicode="&#x133;" horiz-adv-x="456" 
d="M177 -211v61c20 9 75 36 95 54c17 15 26 29 33 48s7 60 7 89v487h61v-487c0 -37 0 -85 -8 -109c-11 -33 -29 -56 -62 -80s-94 -50 -126 -63zM83 0v528h61v-528h-61zM310 622v132h65v-132h-65zM146 622h-65v132h65v-132z" />
    <glyph glyph-name="IJacute" horiz-adv-x="615" 
d="M233 -92v63c35 11 114 39 155 62c28 16 46 32 55 57c10 29 10 79 10 128v536h62v-534c0 -69 0 -113 -12 -152c-8 -26 -27 -52 -56 -71c-57 -37 -160 -73 -214 -89zM102 0v754h62v-754h-62zM431 813l119 137h80l-121 -137h-78zM86 813l119 137h80l-121 -137h-78z" />
    <glyph glyph-name="ijacute" horiz-adv-x="456" 
d="M303 -148c-33 -24 -94 -50 -126 -63v61c20 9 75 36 95 54c17 15 26 29 33 48s7 60 7 89v487h61v-487c0 -37 0 -85 -8 -109c-11 -33 -29 -56 -62 -80zM144 0h-61v528h61v-528zM292 617l119 137h80l-121 -137h-78zM66 617l119 137h80l-121 -137h-78z" />
    <glyph glyph-name="Jcircumflex" unicode="&#x134;" horiz-adv-x="372" 
d="M-10 -29c35 11 114 39 155 62c28 16 46 32 55 57c10 29 10 79 10 128v536h62v-534c0 -69 0 -113 -12 -152c-8 -26 -27 -52 -56 -71c-57 -37 -160 -73 -214 -89v63zM149 813h-75l126 137h70l126 -137h-75l-86 92z" />
    <glyph glyph-name="jcircumflex" unicode="&#x135;" horiz-adv-x="241" 
d="M-40 -211v61c20 9 75 36 95 54c17 15 26 29 33 48s7 60 7 89v487h61v-487c0 -37 0 -85 -8 -109c-11 -33 -29 -56 -62 -80s-94 -50 -126 -63zM-45 617l126 137h70l126 -137h-75l-86 92l-86 -92h-75z" />
    <glyph glyph-name="uni0237" unicode="&#x237;" horiz-adv-x="241" 
d="M-40 -211v61c20 9 75 36 95 54c17 15 26 29 33 48s7 60 7 89v487h61v-487c0 -37 0 -85 -8 -109c-11 -33 -29 -56 -62 -80s-94 -50 -126 -63z" />
    <glyph glyph-name="uni0136" unicode="&#x136;" horiz-adv-x="637" 
d="M102 0v754h62v-361l362 361h89l-373 -372l405 -382h-93l-390 367v-367h-62zM311 -280h-52c15 66 16 104 16 168v52h62v-62c0 -60 -4 -103 -26 -158z" />
    <glyph glyph-name="uni0137" unicode="&#x137;" horiz-adv-x="497" 
d="M144 0h-61v754h61v-456l243 230h87l-255 -242l278 -286h-85l-268 275v-275zM194 -280c15 66 16 104 16 168v52h62v-62c0 -60 -4 -103 -26 -158h-52z" />
    <glyph glyph-name="kgreenlandic" unicode="&#x138;" horiz-adv-x="509" 
d="M144 0h-61v528h61v-239c58 17 139 51 190 98c30 28 54 80 68 141h62c-33 -151 -86 -211 -225 -270l258 -258h-86l-267 266v-266z" />
    <glyph glyph-name="Lacute" unicode="&#x139;" horiz-adv-x="614" 
d="M579 0h-477v754h62v-694h415v-60zM171 813h-78l119 137h80z" />
    <glyph glyph-name="lacute" unicode="&#x13a;" horiz-adv-x="227" 
d="M144 0h-61v754h61v-754zM149 813h-78l119 137h80z" />
    <glyph glyph-name="Lcaron" unicode="&#x13d;" horiz-adv-x="614" 
d="M579 0h-477v754h62v-694h415v-60zM322 563v191h61v-66c0 -30 -2 -69 -11 -125h-50z" />
    <glyph glyph-name="lcaron" unicode="&#x13e;" horiz-adv-x="253" 
d="M83 754h61v-754h-61v754zM203 563v191h61v-66c0 -30 -2 -69 -11 -125h-50z" />
    <glyph glyph-name="uni013B" unicode="&#x13b;" horiz-adv-x="614" 
d="M579 0h-477v754h62v-694h415v-60zM342 -280h-52c15 66 16 104 16 168v52h62v-62c0 -60 -4 -103 -26 -158z" />
    <glyph glyph-name="uni013C" unicode="&#x13c;" horiz-adv-x="227" 
d="M144 0h-61v754h61v-754zM119 -280h-52c15 66 16 104 16 168v52h62v-62c0 -60 -4 -103 -26 -158z" />
    <glyph glyph-name="Ldot" unicode="&#x13f;" horiz-adv-x="614" 
d="M579 0h-477v754h62v-694h415v-60zM469 324h-65v132h65v-132z" />
    <glyph glyph-name="ldot" unicode="&#x140;" horiz-adv-x="292" 
d="M144 0h-61v754h61v-754zM292 324h-65v132h65v-132z" />
    <glyph glyph-name="Lslash" unicode="&#x141;" horiz-adv-x="614" 
d="M579 0h-477v326l-83 -54v70l83 54v358h62v-319l162 105v-70l-162 -105v-304h415v-61z" />
    <glyph glyph-name="lslash" unicode="&#x142;" horiz-adv-x="251" 
d="M15 365l80 51v338h61v-299l80 52v-69l-80 -52v-386h-61v347l-80 -51v69z" />
    <glyph glyph-name="Nacute" unicode="&#x143;" horiz-adv-x="757" 
d="M164 0h-62v754h93l398 -685v685h62v-754h-92l-399 685v-685zM381 813h-78l119 137h80z" />
    <glyph glyph-name="nacute" unicode="&#x144;" horiz-adv-x="581" 
d="M83 0v528h61v-39c69 30 134 56 192 56c140 0 163 -77 163 -201v-344h-61v344c0 80 -6 143 -102 143c-60 0 -137 -35 -192 -60v-427h-61zM284 617h-78l119 137h80z" />
    <glyph glyph-name="Ncaron" unicode="&#x147;" horiz-adv-x="757" 
d="M164 0h-62v754h93l398 -685v685h62v-754h-92l-399 685v-685zM410 813h-70l-126 137h75l86 -92l86 92h75z" />
    <glyph glyph-name="ncaron" unicode="&#x148;" horiz-adv-x="581" 
d="M83 0v528h61v-39c69 30 134 56 192 56c140 0 163 -77 163 -201v-344h-61v344c0 80 -6 143 -102 143c-60 0 -137 -35 -192 -60v-427h-61zM128 754h75l86 -92l86 92h75l-126 -137h-70z" />
    <glyph glyph-name="Ntilde" unicode="&#xd1;" horiz-adv-x="757" 
d="M164 0h-62v754h93l398 -685v685h62v-754h-92l-399 685v-685zM255 818h-58c34 87 56 115 114 115c27 0 51 -8 85 -35c28 -22 41 -31 62 -31c31 0 41 21 56 56h59c-28 -63 -50 -110 -115 -110c-28 0 -52 7 -80 29c-31 25 -47 37 -67 37c-31 0 -42 -27 -56 -61z" />
    <glyph glyph-name="ntilde" unicode="&#xf1;" horiz-adv-x="581" 
d="M144 0h-61v528h61v-39c69 30 134 56 192 56c140 0 163 -77 163 -201v-344h-61v344c0 80 -6 143 -102 143c-60 0 -137 -35 -192 -60v-427zM166 625h-58c34 87 56 115 114 115c27 0 51 -8 85 -35c28 -22 41 -31 62 -31c31 0 41 21 56 56h59c-28 -63 -50 -110 -115 -110
c-28 0 -52 7 -80 29c-31 25 -47 37 -67 37c-31 0 -42 -27 -56 -61z" />
    <glyph glyph-name="uni0145" unicode="&#x145;" horiz-adv-x="757" 
d="M164 0h-62v754h93l398 -685v685h62v-754h-92l-399 685v-685zM380 -280h-52c15 66 16 104 16 168v52h62v-62c0 -60 -4 -103 -26 -158z" />
    <glyph glyph-name="uni0146" unicode="&#x146;" horiz-adv-x="581" 
d="M83 0v528h61v-39c69 30 134 56 192 56c140 0 163 -77 163 -201v-344h-61v344c0 80 -6 143 -102 143c-60 0 -137 -35 -192 -60v-427h-61zM287 -280h-52c15 66 16 104 16 168v52h62v-62c0 -60 -4 -103 -26 -158z" />
    <glyph glyph-name="napostrophe" unicode="&#x149;" horiz-adv-x="622" 
d="M185 0h-61v528h61v-39c69 30 134 56 192 56c140 0 163 -77 163 -201v-344h-61v344c0 80 -6 143 -102 143c-60 0 -137 -35 -192 -60v-427zM60 534h-52c15 66 16 104 16 168v52h62v-62c0 -60 -4 -103 -26 -158z" />
    <glyph glyph-name="uni019D" unicode="&#x19d;" horiz-adv-x="757" 
d="M-81 -152c51 16 154 51 173 107c10 29 10 79 10 128v671h93l398 -685v685h62v-754h-92l-399 685v-600c0 -69 0 -113 -12 -152c-25 -83 -159 -126 -233 -148v63z" />
    <glyph glyph-name="uni0272" unicode="&#x272;" horiz-adv-x="581" 
d="M74 -148c-33 -24 -94 -50 -126 -63v61c81 36 135 62 135 160v518h61v-39c69 29 134 56 192 56c140 0 163 -77 163 -201v-344h-61v344c0 80 -6 143 -102 143c-60 0 -137 -35 -192 -60v-386c0 -37 0 -85 -8 -109c-11 -33 -29 -56 -62 -80z" />
    <glyph glyph-name="Eng" unicode="&#x14a;" horiz-adv-x="757" 
d="M102 754h93l398 -685v685h62v-674c0 -59 0 -98 -11 -135c-8 -26 -28 -53 -57 -72c-55 -36 -159 -72 -214 -88v65c36 11 114 38 155 60c24 13 48 26 56 55l-420 720v-685h-62v754z" />
    <glyph glyph-name="eng" unicode="&#x14b;" horiz-adv-x="581" 
d="M83 0v528h61v-39c69 29 134 56 192 56c140 0 163 -77 163 -201v-303c0 -37 0 -85 -8 -109c-11 -33 -29 -56 -62 -80s-94 -50 -126 -63v61c20 9 75 36 95 54c17 15 26 29 33 48s7 60 7 89v303c0 80 -6 143 -102 143c-60 0 -137 -35 -192 -60v-427h-61z" />
    <glyph glyph-name="Oacute" unicode="&#xd3;" horiz-adv-x="796" 
d="M87 377c0 88 10 201 44 263c43 79 130 131 267 131c121 0 196 -33 247 -105c48 -67 64 -189 64 -289c0 -223 -55 -394 -311 -394c-137 0 -214 37 -258 110c-41 67 -53 184 -53 284zM398 711c-223 0 -247 -149 -247 -334c0 -78 9 -190 40 -245c42 -74 119 -89 207 -89
c213 0 247 150 247 334c0 88 -12 187 -48 245c-41 66 -109 89 -199 89zM407 813h-78l119 137h80z" />
    <glyph glyph-name="oacute" unicode="&#xf3;" 
d="M63 260c0 158 38 285 226 285c184 0 226 -118 226 -281c0 -158 -43 -281 -226 -281c-95 0 -146 26 -183 81c-28 42 -43 121 -43 196zM289 487c-145 0 -164 -105 -164 -225c0 -62 10 -124 30 -159c28 -49 70 -62 134 -62c63 0 107 18 132 60c22 37 32 100 32 166
c0 121 -21 220 -164 220zM289 617h-78l119 137h80z" />
    <glyph glyph-name="Ograve" unicode="&#xd2;" horiz-adv-x="796" 
d="M87 377c0 88 10 201 44 263c43 79 130 131 267 131c121 0 196 -33 247 -105c48 -67 64 -189 64 -289c0 -223 -55 -394 -311 -394c-137 0 -214 37 -258 110c-41 67 -53 184 -53 284zM398 711c-223 0 -247 -149 -247 -334c0 -78 9 -190 40 -245c42 -74 119 -89 207 -89
c213 0 247 150 247 334c0 88 -12 187 -48 245c-41 66 -109 89 -199 89zM376 813l-118 137h79l116 -137h-77z" />
    <glyph glyph-name="ograve" unicode="&#xf2;" 
d="M63 260c0 158 38 285 226 285c184 0 226 -118 226 -281c0 -158 -43 -281 -226 -281c-95 0 -146 26 -183 81c-28 42 -43 121 -43 196zM289 487c-145 0 -164 -105 -164 -225c0 -62 10 -124 30 -159c28 -49 70 -62 134 -62c63 0 107 18 132 60c22 37 32 100 32 166
c0 121 -21 220 -164 220zM277 617l-118 137h79l116 -137h-77z" />
    <glyph glyph-name="Ocircumflex" unicode="&#xd4;" horiz-adv-x="796" 
d="M87 377c0 88 10 201 44 263c43 79 130 131 267 131c121 0 196 -33 247 -105c48 -67 64 -189 64 -289c0 -223 -55 -394 -311 -394c-137 0 -214 37 -258 110c-41 67 -53 184 -53 284zM398 711c-223 0 -247 -149 -247 -334c0 -78 9 -190 40 -245c42 -74 119 -89 207 -89
c213 0 247 150 247 334c0 88 -12 187 -48 245c-41 66 -109 89 -199 89zM312 813h-75l126 137h70l126 -137h-75l-86 92z" />
    <glyph glyph-name="ocircumflex" unicode="&#xf4;" 
d="M63 260c0 158 38 285 226 285c184 0 226 -118 226 -281c0 -158 -43 -281 -226 -281c-95 0 -146 26 -183 81c-28 42 -43 121 -43 196zM125 262c0 -62 10 -124 30 -159c28 -49 70 -62 134 -62c63 0 107 18 132 60c22 37 32 100 32 166c0 121 -21 220 -164 220
c-145 0 -164 -105 -164 -225zM203 617h-75l126 137h70l126 -137h-75l-86 92z" />
    <glyph glyph-name="Odieresis" unicode="&#xd6;" horiz-adv-x="796" 
d="M87 377c0 88 10 201 44 263c43 79 130 131 267 131c121 0 196 -33 247 -105c48 -67 64 -189 64 -289c0 -223 -55 -394 -311 -394c-137 0 -214 37 -258 110c-41 67 -53 184 -53 284zM398 711c-223 0 -247 -149 -247 -334c0 -78 9 -190 40 -245c42 -74 119 -89 207 -89
c213 0 247 150 247 334c0 88 -12 187 -48 245c-41 66 -109 89 -199 89zM474 950h63v-132h-63v132zM259 818v132h63v-132h-63z" />
    <glyph glyph-name="odieresis" unicode="&#xf6;" 
d="M63 260c0 158 38 285 226 285c184 0 226 -118 226 -281c0 -158 -43 -281 -226 -281c-95 0 -146 26 -183 81c-28 42 -43 121 -43 196zM289 487c-145 0 -164 -105 -164 -225c0 -62 10 -124 30 -159c28 -49 70 -62 134 -62c63 0 107 18 132 60c22 37 32 100 32 166
c0 121 -21 220 -164 220zM348 754h62v-132h-62v132zM168 622v132h62v-132h-62z" />
    <glyph glyph-name="Otilde" unicode="&#xd5;" horiz-adv-x="796" 
d="M87 377c0 88 10 201 44 263c43 79 130 131 267 131c121 0 196 -33 247 -105c48 -67 64 -189 64 -289c0 -223 -55 -394 -311 -394c-137 0 -214 37 -258 110c-41 67 -53 184 -53 284zM151 377c0 -78 9 -190 40 -245c42 -74 119 -89 207 -89c213 0 247 150 247 334
c0 88 -12 187 -48 245c-41 66 -109 89 -199 89c-223 0 -247 -149 -247 -334zM270 818h-58c34 87 56 115 114 115c27 0 51 -8 85 -35c28 -22 41 -31 62 -31c31 0 41 21 56 56h59c-28 -63 -50 -110 -115 -110c-28 0 -52 7 -80 29c-31 25 -47 37 -67 37c-31 0 -42 -27 -56 -61z
" />
    <glyph glyph-name="otilde" unicode="&#xf5;" 
d="M106 64c-28 42 -43 121 -43 196c0 158 38 285 226 285c184 0 226 -118 226 -281c0 -158 -43 -281 -226 -281c-95 0 -146 26 -183 81zM289 487c-145 0 -164 -105 -164 -225c0 -62 10 -124 30 -159c28 -49 70 -62 134 -62c63 0 107 18 132 60c22 37 32 100 32 166
c0 121 -21 220 -164 220zM163 625h-58c34 87 56 115 114 115c27 0 51 -8 85 -35c28 -22 41 -31 62 -31c31 0 41 21 56 56h59c-28 -63 -50 -110 -115 -110c-28 0 -52 7 -80 29c-31 25 -47 37 -67 37c-31 0 -42 -27 -56 -61z" />
    <glyph glyph-name="Oslash" unicode="&#xd8;" horiz-adv-x="796" 
d="M87 377c0 88 10 201 44 263c43 79 130 131 267 131c121 0 196 -33 247 -105c48 -67 64 -189 64 -289c0 -223 -55 -394 -311 -394c-137 0 -214 37 -258 110c-41 67 -53 184 -53 284zM241 78c42 -28 97 -35 157 -35c213 0 247 150 247 334c0 93 -14 195 -52 253zM398 711
c-223 0 -247 -149 -247 -334c0 -89 11 -208 46 -256l352 552c-39 27 -90 38 -151 38z" />
    <glyph glyph-name="oslash" unicode="&#xf8;" 
d="M63 260c0 158 38 285 226 285c184 0 226 -118 226 -281c0 -158 -43 -281 -226 -281c-95 0 -146 26 -183 81c-28 42 -43 121 -43 196zM191 63c25 -17 57 -22 98 -22c63 0 107 18 132 60c22 37 32 100 32 166c0 83 -12 130 -30 159zM289 487c-145 0 -164 -105 -164 -225
c0 -62 10 -124 30 -159l231 362c-25 16 -57 22 -97 22z" />
    <glyph glyph-name="Oslashacute" unicode="&#x1fe;" horiz-adv-x="796" 
d="M87 377c0 88 10 201 44 263c43 79 130 131 267 131c121 0 196 -33 247 -105c48 -67 64 -189 64 -289c0 -223 -55 -394 -311 -394c-137 0 -214 37 -258 110c-41 67 -53 184 -53 284zM593 630l-352 -552c42 -28 97 -35 157 -35c213 0 247 150 247 334c0 93 -14 195 -52 253
zM151 377c0 -89 11 -208 46 -256l352 552c-39 27 -90 38 -151 38c-223 0 -247 -149 -247 -334zM407 813h-78l119 137h80z" />
    <glyph glyph-name="oslashacute" unicode="&#x1ff;" 
d="M63 260c0 158 38 285 226 285c184 0 226 -118 226 -281c0 -158 -43 -281 -226 -281c-95 0 -146 26 -183 81c-28 42 -43 121 -43 196zM423 426l-232 -363c25 -17 57 -22 98 -22c63 0 107 18 132 60c22 37 32 100 32 166c0 83 -12 130 -30 159zM125 262
c0 -62 10 -124 30 -159l231 362c-25 16 -57 22 -97 22c-145 0 -164 -105 -164 -225zM289 617h-78l119 137h80z" />
    <glyph glyph-name="OE" unicode="&#x152;" horiz-adv-x="1159" 
d="M140 93c-41 67 -53 184 -53 284c0 88 10 201 44 263c43 79 130 131 267 131c78 0 124 -9 158 -17h547v-60h-471c59 -67 66 -194 66 -279h383v-60h-383c0 -80 -1 -192 -42 -260c-9 -15 -17 -26 -25 -35h488v-60h-572c-36 -9 -85 -17 -149 -17c-137 0 -214 37 -258 110z
M151 377c0 -78 9 -190 40 -245c42 -74 119 -89 207 -89s153 9 196 72c38 55 41 142 41 262c0 98 -3 190 -32 247c-36 70 -90 87 -205 87c-223 0 -247 -149 -247 -334z" />
    <glyph glyph-name="oe" unicode="&#x153;" horiz-adv-x="945" 
d="M106 64c-28 42 -43 121 -43 196c0 158 38 285 226 285c90 0 156 -26 193 -104c28 60 81 104 193 104c140 0 210 -73 210 -207c0 -25 -3 -66 -10 -102h-364c0 -129 37 -195 177 -195c60 0 128 13 170 21v-59c-40 -8 -118 -20 -170 -20c-125 0 -178 36 -208 102
c-33 -68 -93 -102 -191 -102c-95 0 -146 26 -183 81zM125 262c0 -62 10 -124 30 -159c28 -49 70 -62 134 -62c63 0 107 18 132 60c22 37 32 100 32 166c0 121 -21 220 -164 220c-145 0 -164 -105 -164 -225zM675 487c-129 0 -164 -82 -164 -197h308c2 15 4 32 4 52
c0 96 -48 145 -148 145z" />
    <glyph glyph-name="Omacron" unicode="&#x14c;" horiz-adv-x="796" 
d="M87 377c0 88 10 201 44 263c43 79 130 131 267 131c121 0 196 -33 247 -105c48 -67 64 -189 64 -289c0 -223 -55 -394 -311 -394c-137 0 -214 37 -258 110c-41 67 -53 184 -53 284zM151 377c0 -78 9 -190 40 -245c42 -74 119 -89 207 -89c213 0 247 150 247 334
c0 88 -12 187 -48 245c-41 66 -109 89 -199 89c-223 0 -247 -149 -247 -334zM544 839h-294v55h294v-55z" />
    <glyph glyph-name="omacron" unicode="&#x14d;" 
d="M106 64c-28 42 -43 121 -43 196c0 158 38 285 226 285c184 0 226 -118 226 -281c0 -158 -43 -281 -226 -281c-95 0 -146 26 -183 81zM289 487c-145 0 -164 -105 -164 -225c0 -62 10 -124 30 -159c28 -49 70 -62 134 -62c63 0 107 18 132 60c22 37 32 100 32 166
c0 121 -21 220 -164 220zM143 700h294v-55h-294v55z" />
    <glyph glyph-name="Obreve" unicode="&#x14e;" horiz-adv-x="796" 
d="M87 377c0 88 10 201 44 263c43 79 130 131 267 131c121 0 196 -33 247 -105c48 -67 64 -189 64 -289c0 -223 -55 -394 -311 -394c-137 0 -214 37 -258 110c-41 67 -53 184 -53 284zM151 377c0 -78 9 -190 40 -245c42 -74 119 -89 207 -89c213 0 247 150 247 334
c0 88 -12 187 -48 245c-41 66 -109 89 -199 89c-223 0 -247 -149 -247 -334zM396 809c-93 0 -130 58 -152 141h61c16 -51 30 -90 91 -90c57 0 78 41 91 90h61c-24 -82 -59 -141 -152 -141z" />
    <glyph glyph-name="obreve" unicode="&#x14f;" 
d="M63 260c0 158 38 285 226 285c184 0 226 -118 226 -281c0 -158 -43 -281 -226 -281c-95 0 -146 26 -183 81c-28 42 -43 121 -43 196zM289 487c-145 0 -164 -105 -164 -225c0 -62 10 -124 30 -159c28 -49 70 -62 134 -62c63 0 107 18 132 60c22 37 32 100 32 166
c0 121 -21 220 -164 220zM289 613c-93 0 -130 58 -152 141h61c16 -51 30 -90 91 -90c57 0 78 41 91 90h61c-24 -82 -59 -141 -152 -141z" />
    <glyph glyph-name="uni01EA" unicode="&#x1ea;" horiz-adv-x="796" 
d="M140 93c-40 66 -53 184 -53 284c0 88 10 201 44 263c43 79 127 131 264 131c121 0 200 -33 251 -105c48 -67 64 -189 64 -289c0 -85 -11 -211 -60 -282c-32 -46 -74 -71 -124 -93c-27 -12 -62 -44 -84 -68c-19 -20 -25 -34 -25 -51s10 -24 30 -24c22 0 50 12 73 22v-59
c-24 -10 -54 -19 -80 -19c-54 0 -86 21 -86 77c0 47 37 77 71 104c-12 -1 -20 -1 -30 -1c-137 0 -211 37 -255 110zM151 377c0 -78 9 -190 40 -245c42 -74 116 -89 204 -89c216 0 251 146 251 334c0 88 -12 187 -48 245c-41 66 -113 89 -203 89c-221 0 -244 -152 -244 -334z
" />
    <glyph glyph-name="uni01EB" unicode="&#x1eb;" 
d="M106 64c-28 42 -43 121 -43 196c0 158 38 285 226 285c184 0 226 -118 226 -281c0 -75 -13 -145 -35 -185c-20 -37 -53 -59 -93 -81c-32 -17 -103 -73 -103 -115c0 -17 10 -24 30 -24c22 0 50 12 73 22v-59c-24 -10 -54 -19 -80 -19c-54 0 -86 21 -86 77
c0 45 36 77 68 103c-95 0 -146 26 -183 81zM289 487c-145 0 -164 -105 -164 -225c0 -62 10 -124 30 -159c28 -49 70 -62 134 -62c63 0 107 18 132 60c22 37 32 100 32 166c0 121 -21 220 -164 220z" />
    <glyph glyph-name="Ohungarumlaut" unicode="&#x150;" horiz-adv-x="796" 
d="M87 377c0 88 10 201 44 263c43 79 130 131 267 131c121 0 196 -33 247 -105c48 -67 64 -189 64 -289c0 -223 -55 -394 -311 -394c-137 0 -214 37 -258 110c-41 67 -53 184 -53 284zM398 711c-223 0 -247 -149 -247 -334c0 -78 9 -190 40 -245c42 -74 119 -89 207 -89
c213 0 247 150 247 334c0 88 -12 187 -48 245c-41 66 -109 89 -199 89zM481 813h-64l89 137h66zM344 813h-64l89 137h66z" />
    <glyph glyph-name="ohungarumlaut" unicode="&#x151;" 
d="M63 260c0 158 38 285 226 285c184 0 226 -118 226 -281c0 -158 -43 -281 -226 -281c-95 0 -146 26 -183 81c-28 42 -43 121 -43 196zM289 487c-145 0 -164 -105 -164 -225c0 -62 10 -124 30 -159c28 -49 70 -62 134 -62c63 0 107 18 132 60c22 37 32 100 32 166
c0 121 -21 220 -164 220zM373 617h-64l89 137h66zM236 617h-64l89 137h66z" />
    <glyph glyph-name="uni1ECC" unicode="&#x1ecc;" horiz-adv-x="796" 
d="M87 377c0 88 10 201 44 263c43 79 130 131 267 131c121 0 196 -33 247 -105c48 -67 64 -189 64 -289c0 -223 -55 -394 -311 -394c-137 0 -214 37 -258 110c-41 67 -53 184 -53 284zM151 377c0 -78 9 -190 40 -245c42 -74 119 -89 207 -89c213 0 247 150 247 334
c0 88 -12 187 -48 245c-41 66 -109 89 -199 89c-223 0 -247 -149 -247 -334zM427 -187h-65v132h65v-132z" />
    <glyph glyph-name="uni1ECD" unicode="&#x1ecd;" 
d="M63 260c0 158 38 285 226 285c184 0 226 -118 226 -281c0 -158 -43 -281 -226 -281c-95 0 -146 26 -183 81c-28 42 -43 121 -43 196zM125 262c0 -62 10 -124 30 -159c28 -49 70 -62 134 -62c63 0 107 18 132 60c22 37 32 100 32 166c0 121 -21 220 -164 220
c-145 0 -164 -105 -164 -225zM320 -187h-65v132h65v-132z" />
    <glyph glyph-name="Racute" unicode="&#x154;" horiz-adv-x="690" 
d="M164 0h-62v754h256c101 0 158 -10 202 -41c45 -32 66 -88 66 -149c0 -66 -30 -114 -67 -155c-29 -32 -65 -68 -87 -89l193 -320h-76l-189 313h-236v-313zM164 694v-321h276c27 28 48 50 67 72c29 33 55 71 55 118c0 130 -105 131 -205 131h-193zM268 813l119 137h80
l-121 -137h-78z" />
    <glyph glyph-name="racute" unicode="&#x155;" horiz-adv-x="344" 
d="M83 528h61v-66c63 45 110 64 188 78v-62c-73 -14 -128 -40 -188 -82v-396h-61v528zM88 617l119 137h80l-121 -137h-78z" />
    <glyph glyph-name="Rcaron" unicode="&#x158;" horiz-adv-x="690" 
d="M102 0v754h256c101 0 158 -10 202 -41c45 -32 66 -88 66 -149c0 -66 -30 -114 -67 -155c-29 -32 -65 -68 -87 -89l193 -320h-76l-189 313h-236v-313h-62zM164 694v-321h276c27 28 48 50 67 72c29 33 55 71 55 118c0 130 -105 131 -205 131h-193zM292 813l-126 137h75
l86 -92l86 92h75l-126 -137h-70z" />
    <glyph glyph-name="rcaron" unicode="&#x159;" horiz-adv-x="344" 
d="M144 0h-61v528h61v-66c63 45 110 64 188 78v-62c-73 -14 -128 -40 -188 -82v-396zM140 617l-126 137h75l86 -92l86 92h75l-126 -137h-70z" />
    <glyph glyph-name="uni0156" unicode="&#x156;" horiz-adv-x="690" 
d="M102 754h256c101 0 158 -10 202 -41c45 -32 66 -88 66 -149c0 -66 -30 -114 -67 -155c-29 -32 -65 -68 -87 -89l193 -320h-76l-189 313h-236v-313h-62v754zM164 694v-321h276c27 28 48 50 67 72c29 33 55 71 55 118c0 130 -105 131 -205 131h-193zM290 -280
c15 66 16 104 16 168v52h62v-62c0 -60 -4 -103 -26 -158h-52z" />
    <glyph glyph-name="uni0157" unicode="&#x157;" horiz-adv-x="344" 
d="M144 0h-61v528h61v-66c63 45 110 64 188 78v-62c-73 -14 -128 -40 -188 -82v-396zM119 -280h-52c15 66 16 104 16 168v52h62v-62c0 -60 -4 -103 -26 -158z" />
    <glyph glyph-name="Sacute" unicode="&#x15a;" horiz-adv-x="641" 
d="M222 383c-104 36 -160 67 -160 188c0 49 14 105 56 146c43 42 98 54 188 54c83 0 168 -22 253 -44v-62c-70 18 -179 46 -253 46c-99 0 -180 -25 -180 -140c0 -37 5 -63 26 -84c17 -17 55 -31 101 -47l162 -56c104 -36 164 -75 164 -193c0 -57 -21 -110 -59 -147
c-46 -45 -109 -61 -200 -61c-85 0 -191 24 -252 38v62c70 -16 180 -40 252 -40c68 0 107 9 143 36c34 26 52 68 52 112c0 33 -5 60 -24 82s-52 35 -107 54zM243 813l119 137h80l-121 -137h-78z" />
    <glyph glyph-name="sacute" unicode="&#x15b;" horiz-adv-x="508" 
d="M196 254c-81 26 -138 48 -138 146c0 117 90 145 190 145c59 0 146 -21 182 -31v-59c-40 10 -130 32 -182 32c-64 0 -128 -8 -128 -87c0 -24 5 -46 22 -58c15 -11 38 -19 75 -31l99 -31c76 -24 134 -54 134 -144c0 -123 -104 -153 -207 -153c-69 0 -135 15 -179 25v59
c55 -12 125 -26 179 -26c63 0 145 11 145 92c0 21 -5 41 -19 55c-17 17 -46 26 -81 37zM179 617l119 137h80l-121 -137h-78z" />
    <glyph glyph-name="Scircumflex" unicode="&#x15c;" horiz-adv-x="641" 
d="M62 571c0 49 14 105 56 146c43 42 98 54 188 54c83 0 168 -22 253 -44v-62c-70 18 -179 46 -253 46c-99 0 -180 -25 -180 -140c0 -37 5 -63 26 -84c17 -17 55 -31 101 -47l162 -56c104 -36 164 -75 164 -193c0 -57 -21 -110 -59 -147c-46 -45 -109 -61 -200 -61
c-85 0 -191 24 -252 38v62c70 -16 180 -40 252 -40c68 0 107 9 143 36c34 26 52 68 52 112c0 33 -5 60 -24 82s-52 35 -107 54l-162 56c-104 36 -160 67 -160 188zM233 813h-75l126 137h70l126 -137h-75l-86 92z" />
    <glyph glyph-name="scircumflex" unicode="&#x15d;" horiz-adv-x="508" 
d="M58 400c0 117 90 145 190 145c59 0 146 -21 182 -31v-59c-40 10 -130 32 -182 32c-64 0 -128 -8 -128 -87c0 -24 5 -46 22 -58c15 -11 38 -19 75 -31l99 -31c76 -24 134 -54 134 -144c0 -123 -104 -153 -207 -153c-69 0 -135 15 -179 25v59c55 -12 125 -26 179 -26
c63 0 145 11 145 92c0 21 -5 41 -19 55c-17 17 -46 26 -81 37l-92 29c-81 26 -138 48 -138 146zM167 617h-75l126 137h70l126 -137h-75l-86 92z" />
    <glyph glyph-name="Scaron" unicode="&#x160;" horiz-adv-x="641" 
d="M62 571c0 49 14 105 56 146c43 42 98 54 188 54c83 0 168 -22 253 -44v-62c-70 18 -179 46 -253 46c-99 0 -180 -25 -180 -140c0 -37 5 -63 26 -84c17 -17 55 -31 101 -47l162 -56c104 -36 164 -75 164 -193c0 -57 -21 -110 -59 -147c-46 -45 -109 -61 -200 -61
c-85 0 -191 24 -252 38v62c70 -16 180 -40 252 -40c68 0 107 9 143 36c34 26 52 68 52 112c0 33 -5 60 -24 82s-52 35 -107 54l-162 56c-104 36 -160 67 -160 188zM160 950h75l86 -92l86 92h75l-126 -137h-70z" />
    <glyph glyph-name="scaron" unicode="&#x161;" horiz-adv-x="508" 
d="M58 400c0 117 90 145 190 145c59 0 146 -21 182 -31v-59c-40 10 -130 32 -182 32c-64 0 -128 -8 -128 -87c0 -24 5 -46 22 -58c15 -11 38 -19 75 -31l99 -31c76 -24 134 -54 134 -144c0 -123 -104 -153 -207 -153c-69 0 -135 15 -179 25v59c55 -12 125 -26 179 -26
c63 0 145 11 145 92c0 21 -5 41 -19 55c-17 17 -46 26 -81 37l-92 29c-81 26 -138 48 -138 146zM86 754h75l86 -92l86 92h75l-126 -137h-70z" />
    <glyph glyph-name="Scedilla" unicode="&#x15e;" horiz-adv-x="641" 
d="M222 383c-104 36 -160 67 -160 188c0 49 14 105 56 146c43 42 98 54 188 54c83 0 168 -22 253 -44v-62c-70 18 -179 46 -253 46c-99 0 -180 -25 -180 -140c0 -37 5 -63 26 -84c17 -17 55 -31 101 -47l162 -56c104 -36 164 -75 164 -193c0 -57 -21 -110 -59 -147
c-46 -45 -109 -61 -200 -61c-85 0 -191 24 -252 38v62c70 -16 180 -40 252 -40c68 0 107 9 143 36c34 26 52 68 52 112c0 33 -5 60 -24 82s-52 35 -107 54zM291 -192h-74l82 132h74z" />
    <glyph glyph-name="scedilla" unicode="&#x15f;" horiz-adv-x="508" 
d="M196 254c-81 26 -138 48 -138 146c0 117 90 145 190 145c59 0 146 -21 182 -31v-59c-40 10 -130 32 -182 32c-64 0 -128 -8 -128 -87c0 -24 5 -46 22 -58c15 -11 38 -19 75 -31l99 -31c76 -24 134 -54 134 -144c0 -123 -104 -153 -207 -153c-69 0 -135 15 -179 25v59
c55 -12 125 -26 179 -26c63 0 145 11 145 92c0 21 -5 41 -19 55c-17 17 -46 26 -81 37zM227 -192h-74l82 132h74z" />
    <glyph glyph-name="uni0218" unicode="&#x218;" horiz-adv-x="641" 
d="M222 383c-104 36 -160 67 -160 188c0 49 14 105 56 146c43 42 98 54 188 54c83 0 168 -22 253 -44v-62c-70 18 -179 46 -253 46c-99 0 -180 -25 -180 -140c0 -37 5 -63 26 -84c17 -17 55 -31 101 -47l162 -56c104 -36 164 -75 164 -193c0 -57 -21 -110 -59 -147
c-46 -45 -109 -61 -200 -61c-85 0 -191 24 -252 38v62c70 -16 180 -40 252 -40c68 0 107 9 143 36c34 26 52 68 52 112c0 33 -5 60 -24 82s-52 35 -107 54zM275 -280c15 66 16 104 16 168v52h62v-62c0 -60 -4 -103 -26 -158h-52z" />
    <glyph glyph-name="uni0219" unicode="&#x219;" horiz-adv-x="508" 
d="M196 254c-81 26 -138 48 -138 146c0 117 90 145 190 145c59 0 146 -21 182 -31v-59c-40 10 -130 32 -182 32c-64 0 -128 -8 -128 -87c0 -24 5 -46 22 -58c15 -11 38 -19 75 -31l99 -31c76 -24 134 -54 134 -144c0 -123 -104 -153 -207 -153c-69 0 -135 15 -179 25v59
c55 -12 125 -26 179 -26c63 0 145 11 145 92c0 21 -5 41 -19 55c-17 17 -46 26 -81 37zM208 -280c15 66 16 104 16 168v52h62v-62c0 -60 -4 -103 -26 -158h-52z" />
    <glyph glyph-name="Thorn" unicode="&#xde;" horiz-adv-x="656" 
d="M102 754h62v-140h213c86 0 137 -17 174 -58c33 -36 49 -93 49 -151c0 -135 -54 -216 -193 -229c-44 -4 -141 -4 -243 -4v-172h-62v754zM164 554v-322c92 0 184 0 237 5c105 10 135 68 135 168c0 44 -11 88 -38 115c-28 28 -69 34 -126 34h-208z" />
    <glyph glyph-name="thorn" unicode="&#xfe;" horiz-adv-x="584" 
d="M83 754h61v-287c23 16 46 32 71 46c32 18 67 32 109 32c168 0 197 -143 197 -281c0 -147 -38 -281 -211 -281c-58 0 -110 22 -166 48v-223h-61v946zM144 398v-304c53 -25 106 -53 166 -53c131 0 149 116 149 223c0 96 -11 223 -135 223c-35 0 -65 -12 -96 -31
c-28 -17 -57 -38 -84 -58z" />
    <glyph glyph-name="Tcaron" unicode="&#x164;" horiz-adv-x="664" 
d="M301 694h-276v60h614v-60h-276v-694h-62v694zM173 950h75l86 -92l86 92h75l-126 -137h-70z" />
    <glyph glyph-name="tcaron" unicode="&#x165;" horiz-adv-x="317" 
d="M82 200v461h61v-140h160v-58h-160v-263c0 -42 0 -64 3 -88s12 -39 36 -47s61 -11 98 -14v-58c-48 3 -97 8 -129 18s-50 26 -59 53c-10 30 -10 62 -10 136zM200 571v183h61v-64c0 -30 -2 -63 -11 -119h-50z" />
    <glyph glyph-name="uni0162" unicode="&#x162;" horiz-adv-x="664" 
d="M301 694h-276v60h614v-60h-276v-694h-62v694zM231 -192l82 132h74l-82 -132h-74z" />
    <glyph glyph-name="uni0163" unicode="&#x163;" horiz-adv-x="317" 
d="M82 661h61v-140h160v-58h-160v-263c0 -42 0 -64 3 -88s12 -39 36 -47s61 -11 98 -14v-58c-48 3 -97 8 -129 18s-50 26 -59 53c-10 30 -10 62 -10 136v461zM146 -192h-74l82 132h74z" />
    <glyph glyph-name="uni021A" unicode="&#x21a;" horiz-adv-x="664" 
d="M301 694h-276v60h614v-60h-276v-694h-62v694zM338 -280h-52c15 66 16 104 16 168v52h62v-62c0 -60 -4 -103 -26 -158z" />
    <glyph glyph-name="uni021B" unicode="&#x21b;" horiz-adv-x="317" 
d="M82 200v461h61v-140h160v-58h-160v-263c0 -42 0 -64 3 -88s12 -39 36 -47s61 -11 98 -14v-58c-48 3 -97 8 -129 18s-50 26 -59 53c-10 30 -10 62 -10 136zM170 -280h-52c15 66 16 104 16 168v52h62v-62c0 -60 -4 -103 -26 -158z" />
    <glyph glyph-name="Tbar" unicode="&#x166;" horiz-adv-x="664" 
d="M301 694h-276v60h614v-60h-276v-274h146v-60h-146v-360h-62v360h-146v60h146v274z" />
    <glyph glyph-name="tbar" unicode="&#x167;" horiz-adv-x="325" 
d="M82 661h61v-140h160v-58h-160v-97h160v-58h-160v-108c0 -42 0 -64 3 -88s13 -39 37 -47s62 -11 97 -14v-58c-48 3 -97 8 -129 18s-50 26 -59 53c-10 30 -10 62 -10 136v461z" />
    <glyph glyph-name="Uacute" unicode="&#xda;" horiz-adv-x="739" 
d="M99 754h62v-471c0 -169 30 -240 209 -240c180 0 208 71 208 240v471h62v-471c0 -116 -7 -195 -71 -247c-48 -39 -111 -53 -198 -53c-220 0 -272 87 -272 300v471zM373 813h-78l119 137h80z" />
    <glyph glyph-name="uacute" unicode="&#xfa;" horiz-adv-x="571" 
d="M82 200v328h61v-328c0 -97 2 -159 115 -159c76 0 126 15 169 28v459h61v-503c-82 -23 -150 -42 -230 -42c-157 0 -176 78 -176 217zM294 617h-78l119 137h80z" />
    <glyph glyph-name="Ugrave" unicode="&#xd9;" horiz-adv-x="739" 
d="M99 754h62v-471c0 -169 30 -240 209 -240c180 0 208 71 208 240v471h62v-471c0 -116 -7 -195 -71 -247c-48 -39 -111 -53 -198 -53c-220 0 -272 87 -272 300v471zM244 950h79l116 -137h-77z" />
    <glyph glyph-name="ugrave" unicode="&#xf9;" horiz-adv-x="571" 
d="M82 200v328h61v-328c0 -97 2 -159 115 -159c76 0 126 15 169 28v459h61v-503c-82 -23 -150 -42 -230 -42c-157 0 -176 78 -176 217zM281 617l-118 137h79l116 -137h-77z" />
    <glyph glyph-name="Ucircumflex" unicode="&#xdb;" horiz-adv-x="739" 
d="M99 754h62v-471c0 -169 30 -240 209 -240c180 0 208 71 208 240v471h62v-471c0 -116 -7 -195 -71 -247c-48 -39 -111 -53 -198 -53c-220 0 -272 87 -272 300v471zM285 813h-75l126 137h70l126 -137h-75l-86 92z" />
    <glyph glyph-name="ucircumflex" unicode="&#xfb;" horiz-adv-x="571" 
d="M82 200v328h61v-328c0 -97 2 -159 115 -159c76 0 126 15 169 28v459h61v-503c-82 -23 -150 -42 -230 -42c-157 0 -176 78 -176 217zM198 617h-75l126 137h70l126 -137h-75l-86 92z" />
    <glyph glyph-name="Udieresis" unicode="&#xdc;" horiz-adv-x="739" 
d="M99 283v471h62v-471c0 -169 30 -240 209 -240c180 0 208 71 208 240v471h62v-471c0 -116 -7 -195 -71 -247c-48 -39 -111 -53 -198 -53c-220 0 -272 87 -272 300zM439 950h63v-132h-63v132zM237 818v132h63v-132h-63z" />
    <glyph glyph-name="udieresis" unicode="&#xfc;" horiz-adv-x="571" 
d="M82 528h61v-328c0 -97 2 -159 115 -159c76 0 126 15 169 28v459h61v-503c-82 -23 -150 -42 -230 -42c-157 0 -176 78 -176 217v328zM349 622v132h62v-132h-62zM160 754h62v-132h-62v132z" />
    <glyph glyph-name="Utilde" unicode="&#x168;" horiz-adv-x="739" 
d="M371 -17c-220 0 -272 87 -272 300v471h62v-471c0 -169 30 -240 209 -240c180 0 208 71 208 240v471h62v-471c0 -116 -7 -195 -71 -247c-48 -39 -111 -53 -198 -53zM185 818c34 87 56 115 114 115c27 0 51 -8 85 -35c28 -22 41 -31 62 -31c31 0 41 21 56 56h59
c-28 -63 -50 -110 -115 -110c-28 0 -52 7 -80 29c-31 25 -47 37 -67 37c-31 0 -42 -27 -56 -61h-58z" />
    <glyph glyph-name="utilde" unicode="&#x169;" horiz-adv-x="571" 
d="M82 200v328h61v-328c0 -97 2 -159 115 -159c76 0 126 15 169 28v459h61v-503c-82 -23 -150 -42 -230 -42c-157 0 -176 78 -176 217zM102 625c34 87 56 115 114 115c27 0 51 -8 85 -35c28 -22 41 -31 62 -31c31 0 41 21 56 56h59c-28 -63 -50 -110 -115 -110
c-28 0 -52 7 -80 29c-31 25 -47 37 -67 37c-31 0 -42 -27 -56 -61h-58z" />
    <glyph glyph-name="Umacron" unicode="&#x16a;" horiz-adv-x="739" 
d="M99 754h62v-471c0 -169 30 -240 209 -240c180 0 208 71 208 240v471h62v-471c0 -116 -7 -195 -71 -247c-48 -39 -111 -53 -198 -53c-220 0 -272 87 -272 300v471zM223 839v55h294v-55h-294z" />
    <glyph glyph-name="umacron" unicode="&#x16b;" horiz-adv-x="571" 
d="M82 200v328h61v-328c0 -97 2 -159 115 -159c76 0 126 15 169 28v459h61v-503c-82 -23 -150 -42 -230 -42c-157 0 -176 78 -176 217zM138 700h294v-55h-294v55z" />
    <glyph glyph-name="Ubreve" unicode="&#x16c;" horiz-adv-x="739" 
d="M99 754h62v-471c0 -169 30 -240 209 -240c180 0 208 71 208 240v471h62v-471c0 -116 -7 -195 -71 -247c-48 -39 -111 -53 -198 -53c-220 0 -272 87 -272 300v471zM371 809c-93 0 -130 58 -152 141h61c16 -51 30 -90 91 -90c57 0 78 41 91 90h61
c-24 -82 -59 -141 -152 -141z" />
    <glyph glyph-name="ubreve" unicode="&#x16d;" horiz-adv-x="571" 
d="M82 528h61v-328c0 -97 2 -159 115 -159c76 0 126 15 169 28v459h61v-503c-82 -23 -150 -42 -230 -42c-157 0 -176 78 -176 217v328zM285 613c-93 0 -130 58 -152 141h61c16 -51 30 -90 91 -90c57 0 78 41 91 90h61c-24 -82 -59 -141 -152 -141z" />
    <glyph glyph-name="Uogonek" unicode="&#x172;" horiz-adv-x="739" 
d="M371 -17c-220 0 -272 87 -272 300v471h62v-471c0 -169 30 -240 209 -240c180 0 208 71 208 240v471h62v-471c0 -89 -2 -180 -58 -234c-20 -19 -55 -37 -77 -48c-20 -10 -60 -45 -80 -67c-19 -20 -25 -34 -25 -51s10 -24 30 -24c22 0 50 12 73 22v-59
c-24 -10 -54 -19 -80 -19c-54 0 -86 21 -86 77c0 46 37 79 71 104c-12 -1 -24 -1 -37 -1z" />
    <glyph glyph-name="uogonek" unicode="&#x173;" horiz-adv-x="571" 
d="M82 528h61v-328c0 -97 2 -159 115 -159c76 0 126 15 169 28v459h61v-503c-17 -18 -60 -67 -78 -91c-17 -22 -25 -34 -25 -51s10 -24 30 -24c22 0 50 12 73 22v-59c-24 -10 -54 -19 -80 -19c-54 0 -86 21 -86 77c0 44 52 95 83 124c-48 -13 -94 -21 -147 -21
c-157 0 -176 78 -176 216v329z" />
    <glyph glyph-name="Uhungarumlaut" unicode="&#x170;" horiz-adv-x="739" 
d="M99 754h62v-471c0 -169 30 -240 209 -240c180 0 208 71 208 240v471h62v-471c0 -116 -7 -195 -71 -247c-48 -39 -111 -53 -198 -53c-220 0 -272 87 -272 300v471zM384 813l89 137h66l-91 -137h-64zM311 813h-64l89 137h66z" />
    <glyph glyph-name="uhungarumlaut" unicode="&#x171;" horiz-adv-x="571" 
d="M82 200v328h61v-328c0 -97 2 -159 115 -159c76 0 126 15 169 28v459h61v-503c-82 -23 -150 -42 -230 -42c-157 0 -176 78 -176 217zM303 617l89 137h66l-91 -137h-64zM230 617h-64l89 137h66z" />
    <glyph glyph-name="Uring" unicode="&#x16e;" horiz-adv-x="739" 
d="M99 754h62v-471c0 -169 30 -240 209 -240c180 0 208 71 208 240v471h62v-471c0 -116 -7 -195 -71 -247c-48 -39 -111 -53 -198 -53c-220 0 -272 87 -272 300v471zM368 780c-67 0 -117 42 -117 110c0 71 47 113 117 113s117 -42 117 -113c0 -68 -50 -110 -117 -110z
M368 953c-40 0 -65 -22 -65 -63c0 -39 28 -60 65 -60s65 22 65 60c0 40 -25 63 -65 63z" />
    <glyph glyph-name="uring" unicode="&#x16f;" horiz-adv-x="571" 
d="M82 200v328h61v-328c0 -97 2 -159 115 -159c76 0 126 15 169 28v459h61v-503c-82 -23 -150 -42 -230 -42c-157 0 -176 78 -176 217zM286 588c-67 0 -117 42 -117 110c0 71 47 113 117 113s117 -42 117 -113c0 -68 -50 -110 -117 -110zM221 698c0 -39 28 -60 65 -60
s65 22 65 60c0 40 -25 63 -65 63s-65 -23 -65 -63z" />
    <glyph glyph-name="uni1EE4" unicode="&#x1ee4;" horiz-adv-x="739" 
d="M99 754h62v-471c0 -169 30 -240 209 -240c180 0 208 71 208 240v471h62v-471c0 -116 -7 -195 -71 -247c-48 -39 -111 -53 -198 -53c-220 0 -272 87 -272 300v471zM338 -192v132h65v-132h-65z" />
    <glyph glyph-name="uni1EE5" unicode="&#x1ee5;" horiz-adv-x="571" 
d="M82 200v328h61v-328c0 -97 2 -159 115 -159c76 0 126 15 169 28v459h61v-503c-82 -23 -150 -42 -230 -42c-157 0 -176 78 -176 217zM313 -192h-65v132h65v-132z" />
    <glyph glyph-name="Wacute" unicode="&#x1e82;" horiz-adv-x="893" 
d="M188 0l-158 754h63l146 -694l164 580h82l166 -580l145 694h63l-157 -754h-96l-162 566l-160 -566h-96zM451 813h-78l119 137h80z" />
    <glyph glyph-name="wacute" unicode="&#x1e83;" horiz-adv-x="777" 
d="M167 0l-150 528h63l131 -463l139 463h78l140 -463l130 463h62l-149 -528h-85l-138 464l-138 -464h-83zM401 617h-78l119 137h80z" />
    <glyph glyph-name="Wgrave" unicode="&#x1e80;" horiz-adv-x="893" 
d="M30 754h63l146 -694l164 580h82l166 -580l145 694h63l-157 -754h-96l-162 566l-160 -566h-96zM308 950h79l116 -137h-77z" />
    <glyph glyph-name="wgrave" unicode="&#x1e81;" horiz-adv-x="777" 
d="M17 528h63l131 -463l139 463h78l140 -463l130 463h62l-149 -528h-85l-138 464l-138 -464h-83zM380 617l-118 137h79l116 -137h-77z" />
    <glyph glyph-name="Wcircumflex" unicode="&#x174;" horiz-adv-x="893" 
d="M30 754h63l146 -694l164 580h82l166 -580l145 694h63l-157 -754h-96l-162 566l-160 -566h-96zM353 813h-75l126 137h70l126 -137h-75l-86 92z" />
    <glyph glyph-name="wcircumflex" unicode="&#x175;" horiz-adv-x="777" 
d="M17 528h63l131 -463l139 463h78l140 -463l130 463h62l-149 -528h-85l-138 464l-138 -464h-83zM229 617l126 137h70l126 -137h-75l-86 92l-86 -92h-75z" />
    <glyph glyph-name="Wdieresis" unicode="&#x1e84;" horiz-adv-x="893" 
d="M30 754h63l146 -694l164 580h82l166 -580l145 694h63l-157 -754h-96l-162 566l-160 -566h-96zM502 950h62v-132h-62v132zM384 818h-62v132h62v-132z" />
    <glyph glyph-name="wdieresis" unicode="&#x1e85;" horiz-adv-x="777" 
d="M17 528h63l131 -463l139 463h78l140 -463l130 463h62l-149 -528h-85l-138 464l-138 -464h-83zM447 754h62v-132h-62v132zM267 754h62v-132h-62v132z" />
    <glyph glyph-name="Yacute" unicode="&#xdd;" horiz-adv-x="606" 
d="M-8 754h75l237 -396l238 396h72l-279 -465v-289h-64v289zM229 813l119 137h80l-121 -137h-78z" />
    <glyph glyph-name="yacute" unicode="&#xfd;" horiz-adv-x="507" 
d="M11 528h67l175 -439l176 439h67l-290 -720h-66l80 199zM260 617h-78l119 137h80z" />
    <glyph glyph-name="Ygrave" unicode="&#x1ef2;" horiz-adv-x="606" 
d="M271 289l-279 465h75l237 -396l238 396h72l-279 -465v-289h-64v289zM295 813l-118 137h79l116 -137h-77z" />
    <glyph glyph-name="ygrave" unicode="&#x1ef3;" horiz-adv-x="507" 
d="M11 528h67l175 -439l176 439h67l-290 -720h-66l80 199zM244 617l-118 137h79l116 -137h-77z" />
    <glyph glyph-name="Ycircumflex" unicode="&#x176;" horiz-adv-x="606" 
d="M271 289l-279 465h75l237 -396l238 396h72l-279 -465v-289h-64v289zM143 813l126 137h70l126 -137h-75l-86 92l-86 -92h-75z" />
    <glyph glyph-name="ycircumflex" unicode="&#x177;" horiz-adv-x="507" 
d="M11 528h67l175 -439l176 439h67l-290 -720h-66l80 199zM167 617h-75l126 137h70l126 -137h-75l-86 92z" />
    <glyph glyph-name="Ydieresis" unicode="&#x178;" horiz-adv-x="606" 
d="M271 289l-279 465h75l237 -396l238 396h72l-279 -465v-289h-64v289zM371 818v132h63v-132h-63zM172 818v132h63v-132h-63z" />
    <glyph glyph-name="ydieresis" unicode="&#xff;" horiz-adv-x="507" 
d="M220 7l-209 521h67l175 -439l176 439h67l-290 -720h-66zM312 622v132h62v-132h-62zM133 622v132h62v-132h-62z" />
    <glyph glyph-name="uni1EF8" unicode="&#x1ef8;" horiz-adv-x="606" 
d="M-8 754h75l237 -396l238 396h72l-279 -465v-289h-64v289zM179 818h-58c34 87 56 115 114 115c27 0 51 -8 85 -35c28 -22 41 -31 62 -31c31 0 41 21 56 56h59c-28 -63 -50 -110 -115 -110c-28 0 -52 7 -80 29c-31 25 -47 37 -67 37c-31 0 -42 -27 -56 -61z" />
    <glyph glyph-name="uni1EF9" unicode="&#x1ef9;" horiz-adv-x="507" 
d="M11 528h67l175 -439l176 439h67l-290 -720h-66l80 199zM76 629c34 87 56 115 114 115c27 0 51 -8 85 -35c28 -22 41 -31 62 -31c31 0 41 21 56 56h59c-28 -63 -50 -110 -115 -110c-28 0 -52 7 -80 29c-31 25 -47 37 -67 37c-31 0 -42 -27 -56 -61h-58z" />
    <glyph glyph-name="uni0232" unicode="&#x232;" horiz-adv-x="606" 
d="M271 289l-279 465h75l237 -396l238 396h72l-279 -465v-289h-64v289zM157 841v55h294v-55h-294z" />
    <glyph glyph-name="uni0233" unicode="&#x233;" horiz-adv-x="507" 
d="M11 528h67l175 -439l176 439h67l-290 -720h-66l80 199zM400 645h-294v55h294v-55z" />
    <glyph glyph-name="Zacute" unicode="&#x179;" horiz-adv-x="641" 
d="M591 0h-541v64l458 630h-443v60h519v-64l-458 -630h465v-60zM328 813h-78l119 137h80z" />
    <glyph glyph-name="zacute" unicode="&#x17a;" horiz-adv-x="516" 
d="M478 0h-437v53l343 417h-328v58h413v-53l-344 -417h353v-58zM270 617h-78l119 137h80z" />
    <glyph glyph-name="Zcaron" unicode="&#x17d;" horiz-adv-x="641" 
d="M50 64l458 630h-443v60h519v-64l-458 -630h465v-60h-541v64zM286 813l-126 137h75l86 -92l86 92h75l-126 -137h-70z" />
    <glyph glyph-name="zcaron" unicode="&#x17e;" horiz-adv-x="516" 
d="M41 53l343 417h-328v58h413v-53l-344 -417h353v-58h-437v53zM227 617l-126 137h75l86 -92l86 92h75l-126 -137h-70z" />
    <glyph glyph-name="Zdotaccent" unicode="&#x17b;" horiz-adv-x="641" 
d="M591 0h-541v64l458 630h-443v60h519v-64l-458 -630h465v-60zM351 818h-65v132h65v-132z" />
    <glyph glyph-name="zdotaccent" unicode="&#x17c;" horiz-adv-x="516" 
d="M478 0h-437v53l343 417h-328v58h413v-53l-344 -417h353v-58zM292 622h-65v132h65v-132z" />
    <glyph glyph-name="acute" unicode="&#xb4;" horiz-adv-x="400" 
d="M186 617h-78l119 137h80z" />
    <glyph glyph-name="grave" unicode="`" horiz-adv-x="400" 
d="M288 617h-77l-118 137h79z" />
    <glyph glyph-name="circumflex" unicode="&#x2c6;" horiz-adv-x="400" 
d="M39 617l126 137h70l126 -137h-75l-86 92l-86 -92h-75z" />
    <glyph glyph-name="caron" unicode="&#x2c7;" horiz-adv-x="400" 
d="M165 617l-126 137h75l86 -92l86 92h75l-126 -137h-70z" />
    <glyph glyph-name="dieresis" unicode="&#xa8;" horiz-adv-x="400" 
d="M259 754h62v-132h-62v132zM79 754h62v-132h-62v132z" />
    <glyph glyph-name="tilde" unicode="&#x2dc;" horiz-adv-x="400" 
d="M70 629h-58c34 87 56 115 114 115c27 0 51 -8 85 -35c28 -22 41 -31 62 -31c31 0 41 21 56 56h59c-28 -63 -50 -110 -115 -110c-28 0 -52 7 -80 29c-31 25 -47 37 -67 37c-31 0 -42 -27 -56 -61z" />
    <glyph glyph-name="ring" unicode="&#x2da;" horiz-adv-x="400" 
d="M202 588c-67 0 -117 42 -117 110c0 71 47 113 117 113s117 -42 117 -113c0 -68 -50 -110 -117 -110zM137 698c0 -39 28 -60 65 -60s65 22 65 60c0 40 -25 63 -65 63s-65 -23 -65 -63z" />
    <glyph glyph-name="macron" unicode="&#xaf;" horiz-adv-x="400" 
d="M347 645h-294v55h294v-55z" />
    <glyph glyph-name="breve" unicode="&#x2d8;" horiz-adv-x="400" 
d="M48 754h61c16 -51 30 -90 91 -90c57 0 78 41 91 90h61c-24 -82 -59 -141 -152 -141s-130 58 -152 141z" />
    <glyph glyph-name="ogonek" unicode="&#x2db;" horiz-adv-x="400" 
d="M234 -120c0 54 53 93 93 120h73c-22 -18 -56 -42 -78 -66c-19 -20 -25 -34 -25 -51s10 -24 30 -24c22 0 50 12 73 22v-59c-24 -10 -54 -19 -80 -19c-54 0 -86 21 -86 77z" />
    <glyph glyph-name="hungarumlaut" unicode="&#x2dd;" horiz-adv-x="400" 
d="M200 617l89 137h66l-91 -137h-64zM127 617h-64l89 137h66z" />
    <glyph glyph-name="cedilla" unicode="&#xb8;" horiz-adv-x="400" 
d="M195 -192h-74l82 132h74z" />
    <glyph glyph-name="uni0326" unicode="&#x326;" horiz-adv-x="400" 
d="M210 -280h-52c15 66 16 104 16 168v52h62v-62c0 -60 -4 -103 -26 -158z" />
    <glyph glyph-name="dotaccent" unicode="&#x2d9;" horiz-adv-x="400" 
d="M233 622h-65v132h65v-132z" />
    <glyph glyph-name="asciicircum" unicode="^" horiz-adv-x="800" 
d="M58 335l308 419h68l308 -419h-80l-262 355l-262 -355h-80z" />
    <glyph glyph-name="asciitilde" unicode="~" horiz-adv-x="800" 
d="M111 198h-65c11 89 33 157 60 198c28 42 72 61 126 61c62 0 109 -22 161 -84l49 -58c42 -49 73 -74 128 -74c46 0 70 30 90 79c12 30 19 72 27 120h64c-14 -108 -43 -259 -181 -259c-66 0 -118 25 -174 92l-39 46c-40 47 -66 78 -125 78c-51 0 -77 -31 -93 -74
c-13 -36 -22 -76 -28 -125z" />
    <glyph glyph-name="lozenge" unicode="&#x25ca;" horiz-adv-x="700" 
d="M350 -17l-288 395l288 397l288 -397zM350 92l207 286l-207 288l-207 -288z" />
    <glyph glyph-name="uni2206" unicode="&#x2206;" horiz-adv-x="740" 
d="M712 0h-684l298 754h85zM618 60l-249 631l-249 -631h498z" />
    <glyph glyph-name="uni2126" unicode="&#x2126;" horiz-adv-x="796" 
d="M63 60h176c-125 89 -152 218 -152 365c0 209 81 346 311 346c121 0 195 -33 246 -105c48 -67 65 -170 65 -241c0 -119 -17 -210 -74 -284c-27 -35 -55 -63 -78 -81h176v-60h-282v58c40 23 80 52 122 105c57 71 72 139 72 262c0 59 -12 139 -48 197
c-41 66 -109 89 -199 89c-191 0 -247 -115 -247 -286c0 -176 39 -278 194 -367v-58h-282v60z" />
    <glyph glyph-name="summation" unicode="&#x2211;" 
d="M527 -130h-471v66l271 380l-267 374v64h460v-60h-387l270 -378l-275 -386h399v-60z" />
    <glyph glyph-name="product" unicode="&#x220f;" horiz-adv-x="674" 
d="M102 754h470v-884h-62v824h-346v-824h-62v884z" />
    <glyph glyph-name="uni00B5" unicode="&#xb5;" horiz-adv-x="567" 
d="M83 528h61v-195c0 -51 0 -109 6 -166c7 -62 41 -126 123 -126c60 0 108 15 150 28v459h61v-503c-72 -22 -137 -42 -211 -42c-57 0 -106 17 -129 58v-233h-61v720z" />
    <glyph glyph-name="pi" unicode="&#x3c0;" horiz-adv-x="602" 
d="M15 528h567v-58h-108v-272c0 -42 0 -68 3 -92s12 -39 34 -46c17 -5 30 -7 52 -9v-58c-50 4 -121 9 -140 65c-10 30 -10 66 -10 140v272h-229v-470h-61v470h-108v58z" />
    <glyph glyph-name="partialdiff" unicode="&#x2202;" horiz-adv-x="580" 
d="M288 -17c-172 0 -225 102 -225 259c0 150 43 256 216 256c53 0 107 -19 150 -34c-34 160 -93 214 -251 251v60c68 -16 153 -36 220 -103c93 -93 115 -288 115 -426c0 -151 -54 -263 -225 -263zM279 440c-131 0 -154 -84 -154 -196c0 -62 9 -106 29 -141
c28 -49 70 -62 134 -62c135 0 163 91 163 208c0 60 -3 108 -12 152c-34 13 -103 39 -160 39z" />
    <glyph glyph-name="florin" unicode="&#x192;" horiz-adv-x="358" 
d="M-12 -150c20 9 75 36 95 54c17 15 26 29 33 48s7 60 7 89v478c0 172 27 212 208 256v-60c-74 -19 -136 -33 -144 -118c-3 -30 -3 -55 -3 -76h149v-58h-149v-422c0 -37 0 -85 -8 -109c-11 -33 -29 -56 -62 -80s-94 -50 -126 -63v61z" />
    <glyph glyph-name="arrowleft" unicode="&#x2190;" horiz-adv-x="888" 
d="M327 142l-282 235l282 235h93l-245 -205h641v-60h-641l245 -205h-93z" />
    <glyph glyph-name="arrowup" unicode="&#x2191;" horiz-adv-x="600" 
d="M330 0h-60v641l-205 -245v93l235 282l235 -282v-93l-205 245v-641z" />
    <glyph glyph-name="arrowright" unicode="&#x2192;" horiz-adv-x="888" 
d="M561 142h-93l245 205h-641v60h641l-245 205h93l282 -235z" />
    <glyph glyph-name="arrowdown" unicode="&#x2193;" horiz-adv-x="600" 
d="M300 -17l-235 282v93l205 -245v641h60v-641l205 245v-93z" />
    <glyph glyph-name="uni2196" unicode="&#x2196;" horiz-adv-x="688" 
d="M602 82l-470 469l26 -281h-59l-37 395l397 -37v-59l-284 26l427 -427v-86z" />
    <glyph glyph-name="uni2197" unicode="&#x2197;" horiz-adv-x="688" 
d="M86 82v86l427 427l-284 -26v59l397 37l-37 -395h-59l26 281z" />
    <glyph glyph-name="uni2198" unicode="&#x2198;" horiz-adv-x="688" 
d="M602 112l-397 37v59l284 -26l-427 427v86l470 -469l-26 281h59z" />
    <glyph glyph-name="uni2199" unicode="&#x2199;" horiz-adv-x="688" 
d="M483 149l-397 -37l37 395h59l-26 -281l470 469v-86l-427 -427l284 26v-59z" />
    <glyph glyph-name="arrowboth" unicode="&#x2194;" horiz-adv-x="1040" 
d="M327 142l-282 235l282 235h93l-245 -205h690l-245 205h93l282 -235l-282 -235h-93l245 205h-690l245 -205h-93z" />
    <glyph glyph-name="arrowupdn" unicode="&#x2195;" horiz-adv-x="600" 
d="M300 -98l-235 282v93l205 -245v690l-205 -245v93l235 282l235 -282v-93l-205 245v-690l205 245v-93z" />
    <glyph glyph-name="space.tf" horiz-adv-x="325" 
 />
    <glyph glyph-name="period.tf" horiz-adv-x="325" 
d="M204 0h-83v136h83v-136z" />
    <glyph glyph-name="comma.tf" horiz-adv-x="325" 
d="M155 -173h-54c15 65 26 113 26 223v86h77v-112c0 -77 -26 -141 -49 -197z" />
    <glyph glyph-name="colon.tf" horiz-adv-x="325" 
d="M204 0h-83v136h83v-136zM204 392h-83v136h83v-136z" />
    <glyph glyph-name="estimated" unicode="&#x212e;" horiz-adv-x="770" 
d="M142 70c-61 58 -92 132 -92 221s32 162 94 221c61 58 133 85 241 85c200 0 327 -112 335 -315h-533c-7 0 -14 0 -14 -16v-149c0 -31 85 -108 212 -108c84 0 163 42 212 97h63c-78 -89 -158 -121 -275 -121c-107 0 -181 26 -243 85zM173 309c0 -5 4 -8 15 -8h393
c13 0 15 4 15 15v146c0 49 -115 114 -211 114c-120 0 -212 -80 -212 -107v-160z" />
    <glyph glyph-name="dollar.tf" horiz-adv-x="650" 
d="M240 381c-105 38 -157 60 -157 182c0 47 14 103 53 142c35 35 87 48 163 51v101h58v-103c56 -6 139 -25 187 -37v-62c-68 17 -163 40 -227 40c-97 0 -170 -20 -170 -132c0 -35 3 -61 24 -81c17 -16 55 -32 92 -45l154 -52c99 -33 150 -78 150 -187
c0 -129 -89 -192 -210 -200v-111h-58v111c-67 3 -152 20 -209 32v62c65 -14 158 -34 231 -34c93 0 182 29 182 139c0 33 -4 61 -24 83s-51 33 -93 48z" />
    <glyph glyph-name="Euro.tf" horiz-adv-x="650" 
d="M87 381c0 220 32 390 293 390c84 0 154 -16 207 -28v-61c-56 13 -125 29 -207 29c-97 0 -158 -24 -194 -92c-19 -36 -31 -106 -33 -151h331v-59h-333c-1 -10 -1 -19 -1 -26c0 -8 0 -17 1 -30h333v-59h-331c2 -50 13 -114 25 -144c28 -70 81 -107 193 -107
c79 0 146 8 216 18v-61c-63 -8 -134 -17 -216 -17c-148 0 -212 50 -251 143c-21 50 -33 141 -33 255z" />
    <glyph glyph-name="sterling.tf" horiz-adv-x="650" 
d="M585 0h-470v571c0 145 55 200 202 200c63 0 160 -17 230 -32v-61c-66 14 -166 33 -230 33c-112 0 -140 -30 -140 -140v-103h277v-59h-277v-349h408v-60z" />
    <glyph glyph-name="yen.tf" horiz-adv-x="650" 
d="M22 754h75l229 -393l230 393h72l-168 -286h137v-59h-171l-69 -120v-289h-64v289l-69 120h-171v59h137z" />
    <glyph glyph-name="uni20BA.tf" horiz-adv-x="650" 
d="M118 -14v768h62v-231l312 97v-62l-312 -97v-61l312 97v-62l-312 -97v-295c129 0 198 15 248 63s63 138 65 187h64c-2 -57 -16 -152 -68 -214c-52 -61 -119 -96 -310 -96c-27 0 -50 2 -61 3z" />
    <glyph glyph-name="uni20BD.tf" horiz-adv-x="650" 
d="M115 0v754h251c86 0 135 -18 173 -58c35 -36 54 -99 54 -160c0 -142 -50 -224 -197 -237c-44 -4 -117 -4 -219 -4v-57h302v-59h-302v-179h-62zM361 694h-184v-339c92 0 160 0 213 5c114 11 139 70 139 176c0 50 -15 97 -43 124s-68 34 -125 34z" />
    <glyph glyph-name="parenleft.case" horiz-adv-x="314" 
d="M127 -21c-35 48 -37 107 -37 167v462c0 60 2 119 37 167c36 50 91 78 153 95v-61c-111 -43 -128 -101 -128 -214v-436c0 -113 17 -171 128 -214v-61c-62 17 -117 45 -153 95z" />
    <glyph glyph-name="parenright.case" horiz-adv-x="314" 
d="M34 809v61c62 -17 117 -45 153 -95c35 -48 37 -107 37 -167v-462c0 -60 -2 -119 -37 -167c-36 -50 -91 -78 -153 -95v61c111 43 128 101 128 214v436c0 113 -17 171 -128 214z" />
    <glyph glyph-name="bracketleft.case" horiz-adv-x="314" 
d="M276 -96h-182v946h182v-57h-120v-832h120v-57z" />
    <glyph glyph-name="bracketright.case" horiz-adv-x="314" 
d="M158 793h-120v57h182v-946h-182v57h120v832z" />
    <glyph glyph-name="braceleft.case" horiz-adv-x="340" 
d="M93 405c18 6 30 10 48 17c28 11 43 28 43 66v248c0 92 49 114 132 114h46v-56h-46c-64 0 -70 -35 -70 -89v-219c0 -59 -26 -94 -81 -109c57 -17 81 -50 81 -111v-217c0 -56 7 -89 70 -89h46v-56h-46c-83 0 -132 27 -132 116v244c0 41 -11 55 -43 68c-17 7 -29 11 -48 17
v56z" />
    <glyph glyph-name="braceright.case" horiz-adv-x="340" 
d="M83 794h-46v56h46c83 0 132 -22 132 -114v-248c0 -38 15 -55 43 -66c18 -7 30 -11 48 -17v-56c-19 -6 -31 -10 -48 -17c-32 -13 -43 -27 -43 -68v-244c0 -43 -11 -75 -33 -91c-19 -14 -61 -25 -99 -25h-46v56h46c63 0 70 33 70 89v217c0 61 24 94 81 111
c-55 15 -81 51 -81 109v219c0 54 -6 89 -70 89z" />
    <glyph glyph-name="hyphen.case" horiz-adv-x="410" 
d="M340 345h-270v62h270v-62z" />
    <glyph glyph-name="endash.case" horiz-adv-x="600" 
d="M550 346h-500v60h500v-60z" />
    <glyph glyph-name="emdash.case" horiz-adv-x="1000" 
d="M1000 346h-1000v60h1000v-60z" />
    <glyph glyph-name="guillemotleft.case" horiz-adv-x="523" 
d="M424 170l-169 206l169 206h80l-169 -206l169 -206h-80zM231 170l-169 206l169 206h80l-169 -206l169 -206h-80z" />
    <glyph glyph-name="guillemotright.case" horiz-adv-x="523" 
d="M292 170h-80l169 206l-169 206h80l169 -206zM19 170l169 206l-169 206h80l169 -206l-169 -206h-80z" />
    <glyph glyph-name="guilsinglleft.case" horiz-adv-x="330" 
d="M311 170h-80l-169 206l169 206h80l-169 -206z" />
    <glyph glyph-name="guilsinglright.case" horiz-adv-x="330" 
d="M99 170h-80l169 206l-169 206h80l169 -206z" />
    <glyph glyph-name="questiondown.case" horiz-adv-x="508" 
d="M263 -17c-115 0 -198 48 -198 173c0 59 19 106 51 150c24 33 47 60 89 106c50 54 63 82 71 102h70c-16 -44 -30 -72 -82 -128c-39 -42 -66 -72 -90 -106c-28 -40 -45 -74 -45 -124c0 -87 56 -113 134 -113c50 0 115 16 172 30v-60c-51 -13 -119 -30 -172 -30zM273 618
v136h78v-136h-78z" />
    <glyph glyph-name="exclamdown.case" horiz-adv-x="274" 
d="M95 129c0 150 1 356 2 385h60c1 -29 2 -229 2 -385v-129h-64v129zM166 618h-78v136h78v-136z" />
    <glyph glyph-name="gravecomb" unicode="&#x300;" horiz-adv-x="400" 
d="M288 617h-77l-118 137h79z" />
    <glyph glyph-name="acutecomb" unicode="&#x301;" horiz-adv-x="400" 
d="M186 617h-78l119 137h80z" />
    <glyph glyph-name="uni0302" unicode="&#x302;" horiz-adv-x="400" 
d="M39 617l126 137h70l126 -137h-75l-86 92l-86 -92h-75z" />
    <glyph glyph-name="tildecomb" unicode="&#x303;" horiz-adv-x="400" 
d="M70 629h-58c34 87 56 115 114 115c27 0 51 -8 85 -35c28 -22 41 -31 62 -31c31 0 41 21 56 56h59c-28 -63 -50 -110 -115 -110c-28 0 -52 7 -80 29c-31 25 -47 37 -67 37c-31 0 -42 -27 -56 -61z" />
    <glyph glyph-name="uni0306" unicode="&#x306;" horiz-adv-x="400" 
d="M48 754h61c16 -51 30 -90 91 -90c57 0 78 41 91 90h61c-24 -82 -59 -141 -152 -141s-130 58 -152 141z" />
    <glyph glyph-name="dotbelowcomb" unicode="&#x323;" horiz-adv-x="400" 
d="M233 -204h-65v132h65v-132z" />
    <glyph glyph-name="hookabovecomb" unicode="&#x309;" horiz-adv-x="333" 
d="M183 724c0 17 -26 28 -56 28c-13 0 -29 -1 -41 -7l-8 -4v46l3 1c20 7 38 13 57 13c51 0 94 -33 94 -77c0 -27 -7 -36 -38 -61c-10 -8 -20 -13 -28 -22c-6 -7 -11 -7 -8 -20l1 -5h-48l-1 4c-5 19 -2 21 4 32c11 21 43 36 60 53c6 6 9 10 9 19z" />
    <glyph glyph-name="uni031B" unicode="&#x31b;" horiz-adv-x="333" 
d="M114 574h-16v60h16c21 0 52 7 60 30v100h60v-100c0 -36 -38 -90 -120 -90z" />
    <glyph glyph-name="Ohorn" unicode="&#x1a0;" horiz-adv-x="817" 
d="M140 93c-41 67 -53 184 -53 284c0 88 10 201 44 263c43 79 130 131 267 131c110 0 203 -27 260 -126h6c21 0 51 6 59 30l1 100h60v-100c0 -33 -33 -82 -102 -89c20 -64 27 -142 27 -209c0 -223 -55 -394 -311 -394c-137 0 -214 37 -258 110zM398 711
c-223 0 -247 -149 -247 -334c0 -78 9 -190 40 -245c42 -74 119 -89 207 -89c213 0 247 150 247 334c0 88 -12 187 -48 245c-41 66 -109 89 -199 89z" />
    <glyph glyph-name="Uhorn" unicode="&#x1af;" horiz-adv-x="787" 
d="M99 754h62v-471c0 -169 30 -240 209 -240c180 0 208 71 208 240v471h62v-108h10c21 0 52 7 60 30v100h60v-100c0 -36 -38 -90 -120 -90h-10v-303c0 -116 -7 -195 -71 -247c-48 -39 -111 -53 -198 -53c-220 0 -272 87 -272 300v471z" />
    <glyph glyph-name="ohorn" unicode="&#x1a1;" horiz-adv-x="596" 
d="M106 64c-28 42 -43 121 -43 196c0 158 38 285 226 285c90 0 169 -30 202 -118c21 1 46 8 53 29v101h60v-100c0 -33 -31 -80 -97 -89c6 -34 8 -70 8 -104c0 -158 -43 -281 -226 -281c-95 0 -146 26 -183 81zM289 487c-145 0 -164 -105 -164 -225c0 -62 10 -124 30 -159
c28 -49 70 -62 134 -62c63 0 107 18 132 60c22 37 32 100 32 166c0 121 -21 220 -164 220z" />
    <glyph glyph-name="uhorn" unicode="&#x1b0;" horiz-adv-x="604" 
d="M82 200v328h61v-328c0 -97 2 -159 115 -159c76 0 126 15 169 28v459h61v-101h11c21 0 52 6 60 29v101h60v-100c0 -36 -38 -90 -120 -90h-11v-342c-82 -23 -150 -42 -230 -42c-157 0 -176 78 -176 217z" />
    <glyph glyph-name="uni1EA2" unicode="&#x1ea2;" horiz-adv-x="686" 
d="M503 260l-161 430l-162 -430h323zM82 0h-65l285 754h82l285 -754h-67l-76 200h-368zM392 914c0 17 -26 28 -56 28c-13 0 -29 -1 -41 -7l-8 -4v46l3 1c20 7 38 13 56 13c52 0 95 -33 95 -77c0 -27 -7 -36 -38 -61c-10 -8 -20 -13 -28 -22c-6 -7 -8 -8 -8 -20v-5h-47l-1 4
c-4 18 -2 21 4 32c11 21 41 37 60 53c6 5 9 10 9 19z" />
    <glyph glyph-name="uni1EA4" unicode="&#x1ea4;" horiz-adv-x="686" 
d="M17 0l285 754h82l285 -754h-67l-76 200h-368l-76 -200h-65zM342 690l-162 -430h323zM257 794h-75l126 137h70l126 -137h-75l-86 92zM430 929l119 137h80l-121 -137h-78z" />
    <glyph glyph-name="uni1EA6" unicode="&#x1ea6;" horiz-adv-x="686" 
d="M17 0l285 754h82l285 -754h-67l-76 200h-368l-76 -200h-65zM342 690l-162 -430h323zM257 794h-75l126 137h70l126 -137h-75l-86 92zM471 932l-118 137h79l116 -137h-77z" />
    <glyph glyph-name="uni1EA8" unicode="&#x1ea8;" horiz-adv-x="686" 
d="M17 0l285 754h82l285 -754h-67l-76 200h-368l-76 -200h-65zM180 260h323l-161 430zM182 794l126 137h70l126 -137h-75l-86 92l-86 -92h-75zM430 1023v45l2 1c19 9 38 14 57 14c51 -1 95 -34 95 -78c0 -27 -7 -36 -38 -61c-10 -8 -20 -13 -29 -22c-6 -6 -7 -7 -7 -19v-6
h-47l-1 4c-5 19 -2 21 3 32c11 22 42 38 60 53c7 6 10 11 10 19c0 17 -26 28 -56 28c-13 0 -28 -2 -41 -7z" />
    <glyph glyph-name="uni1EAA" unicode="&#x1eaa;" horiz-adv-x="686" 
d="M82 0h-65l285 754h82l285 -754h-67l-76 200h-368zM342 690l-162 -430h323zM155 969c34 87 56 115 114 115c27 0 51 -8 85 -35c28 -22 41 -31 62 -31c31 0 41 21 56 56h59c-28 -63 -50 -110 -115 -110c-28 0 -52 7 -80 29c-31 25 -47 37 -67 37c-31 0 -42 -27 -56 -61h-58
zM182 794l126 137h70l126 -137h-75l-86 92l-86 -92h-75z" />
    <glyph glyph-name="uni1EAC" unicode="&#x1eac;" horiz-adv-x="686" 
d="M17 0l285 754h82l285 -754h-67l-76 200h-368l-76 -200h-65zM180 260h323l-161 430zM255 794h-75l126 137h70l126 -137h-75l-86 92zM377 -192h-65v132h65v-132z" />
    <glyph glyph-name="uni1EAE" unicode="&#x1eae;" horiz-adv-x="686" 
d="M82 0h-65l285 754h82l285 -754h-67l-76 200h-368zM180 260h323l-161 430zM343 794c-93 0 -130 58 -152 141h61c16 -51 30 -90 91 -90c57 0 78 41 91 90h61c-24 -82 -59 -141 -152 -141zM294 944l119 137h80l-121 -137h-78z" />
    <glyph glyph-name="uni1EB0" unicode="&#x1eb0;" horiz-adv-x="686" 
d="M17 0l285 754h82l285 -754h-67l-76 200h-368l-76 -200h-65zM180 260h323l-161 430zM191 935h61c16 -51 30 -90 91 -90c57 0 78 41 91 90h61c-24 -82 -59 -141 -152 -141s-130 58 -152 141zM203 1083h79l116 -137h-77z" />
    <glyph glyph-name="uni1EB2" unicode="&#x1eb2;" horiz-adv-x="686" 
d="M342 690l-162 -430h323zM158 200l-76 -200h-65l285 754h82l285 -754h-67l-76 200h-368zM191 935h61c16 -51 30 -90 91 -90c57 0 78 41 91 90h61c-24 -82 -59 -141 -152 -141s-130 58 -152 141zM384 1053c0 17 -26 28 -56 28c-13 0 -28 -2 -41 -7l-8 -3v45l3 1
c20 7 39 13 57 13c52 1 94 -32 94 -77c0 -27 -7 -36 -38 -61c-10 -8 -19 -12 -29 -22c-6 -6 -7 -7 -7 -19v-6h-47l-1 5c-4 18 -3 21 3 31c12 21 42 38 60 53c7 6 10 11 10 19z" />
    <glyph glyph-name="uni1EB4" unicode="&#x1eb4;" horiz-adv-x="686" 
d="M17 0l285 754h82l285 -754h-67l-76 200h-368l-76 -200h-65zM180 260h323l-161 430zM161 973c33 86 55 115 111 115c37 0 60 -13 88 -35s41 -31 62 -31c31 0 41 21 56 56h59c-28 -63 -50 -110 -115 -110c-28 0 -53 7 -80 29c-30 24 -46 37 -65 37h-2
c-31 0 -42 -27 -56 -61h-58zM191 935h61c16 -51 30 -90 91 -90c57 0 78 41 91 90h61c-24 -82 -59 -141 -152 -141s-130 58 -152 141z" />
    <glyph glyph-name="uni1EB6" unicode="&#x1eb6;" horiz-adv-x="686" 
d="M82 0h-65l285 754h82l285 -754h-67l-76 200h-368zM180 260h323l-161 430zM190 934h61c16 -51 30 -90 91 -90c57 0 78 41 91 90h61c-24 -82 -59 -141 -152 -141s-130 58 -152 141zM377 -192h-65v132h65v-132z" />
    <glyph glyph-name="uni1EBA" unicode="&#x1eba;" horiz-adv-x="652" 
d="M102 0v754h494v-60h-432v-279h410v-60h-410v-295h448v-60h-510zM281 968l2 1c19 10 39 14 57 14c52 0 95 -34 95 -78c0 -27 -7 -36 -38 -61c-10 -8 -21 -12 -29 -22c-6 -7 -7 -7 -7 -20v-5h-47l-1 4c-5 19 -2 21 3 32c11 22 42 37 60 53c7 6 10 10 10 19
c0 17 -26 30 -56 30c-14 1 -28 -2 -41 -9l-8 -4v46z" />
    <glyph glyph-name="uni1EBE" unicode="&#x1ebe;" horiz-adv-x="652" 
d="M102 0v754h494v-60h-432v-279h410v-60h-410v-295h448v-60h-510zM263 802h-75l126 137h70l126 -137h-75l-86 92zM442 941l119 137h80l-121 -137h-78z" />
    <glyph glyph-name="uni1EC0" unicode="&#x1ec0;" horiz-adv-x="652" 
d="M102 0v754h494v-60h-432v-279h410v-60h-410v-295h448v-60h-510zM188 802l126 137h70l126 -137h-75l-86 92l-86 -92h-75zM474 938l-118 137h79l116 -137h-77z" />
    <glyph glyph-name="uni1EC2" unicode="&#x1ec2;" horiz-adv-x="652" 
d="M612 0h-510v754h494v-60h-432v-279h410v-60h-410v-295h448v-60zM263 802h-75l126 137h70l126 -137h-75l-86 92zM532 1047c0 17 -26 28 -56 28c-13 0 -28 -2 -41 -7l-8 -3v45l3 1c20 7 38 13 57 13c51 0 94 -33 94 -77c0 -27 -7 -36 -38 -61c-10 -8 -19 -13 -28 -22
c-7 -7 -8 -7 -8 -20v-5h-47l-1 4c-5 19 -3 22 3 32c12 21 42 38 60 53c7 6 10 10 10 19z" />
    <glyph glyph-name="uni1EC4" unicode="&#x1ec4;" horiz-adv-x="652" 
d="M612 0h-510v754h494v-60h-432v-279h410v-60h-410v-295h448v-60zM161 987c33 86 55 115 111 115c36 0 60 -13 88 -35s41 -31 62 -31c31 0 41 21 56 56h59c-28 -63 -50 -110 -115 -110c-28 0 -52 7 -80 29c-30 24 -46 37 -65 37h-2c-31 0 -42 -27 -56 -61h-58zM263 802h-75
l126 137h70l126 -137h-75l-86 92z" />
    <glyph glyph-name="uni1EC6" unicode="&#x1ec6;" horiz-adv-x="652" 
d="M102 754h494v-60h-432v-279h410v-60h-410v-295h448v-60h-510v754zM253 800h-75l126 137h70l126 -137h-75l-86 92zM318 -192v132h65v-132h-65z" />
    <glyph glyph-name="uni1EC8" unicode="&#x1ec8;" horiz-adv-x="266" 
d="M164 0h-62v754h62v-754zM185 914c0 17 -26 28 -56 28c-13 0 -29 -1 -41 -7l-8 -4v46l3 1c20 7 38 13 56 13c52 0 95 -33 95 -77c0 -27 -7 -36 -38 -61c-10 -8 -20 -13 -28 -22c-6 -7 -8 -8 -8 -20v-5h-47l-1 4c-4 18 -2 21 4 32c11 21 41 37 60 53c6 5 9 10 9 19z" />
    <glyph glyph-name="uni1ECE" unicode="&#x1ece;" horiz-adv-x="796" 
d="M398 711c-223 0 -247 -149 -247 -334c0 -78 9 -190 40 -245c42 -74 119 -89 207 -89c213 0 247 150 247 334c0 88 -12 187 -48 245c-41 66 -109 89 -199 89zM140 93c-41 67 -53 184 -53 284c0 88 10 201 44 263c43 79 130 131 267 131c121 0 196 -33 247 -105
c48 -67 64 -189 64 -289c0 -223 -55 -394 -311 -394c-137 0 -214 37 -258 110zM425 932c0 17 -26 28 -56 28c-13 0 -28 -3 -41 -7l-9 -3v45l3 1c20 7 39 13 58 13c51 1 94 -32 94 -76c0 -27 -7 -37 -38 -62c-10 -8 -19 -12 -29 -22c-6 -6 -7 -7 -7 -19v-5h-47l-1 4
c-4 18 -3 21 3 31c12 21 42 38 60 53c7 6 10 11 10 19z" />
    <glyph glyph-name="uni1ED0" unicode="&#x1ed0;" horiz-adv-x="796" 
d="M87 377c0 88 10 201 44 263c43 79 130 131 267 131c121 0 196 -33 247 -105c48 -67 64 -189 64 -289c0 -223 -55 -394 -311 -394c-137 0 -214 37 -258 110c-41 67 -53 184 -53 284zM398 711c-223 0 -247 -149 -247 -334c0 -78 9 -190 40 -245c42 -74 119 -89 207 -89
c213 0 247 150 247 334c0 88 -12 187 -48 245c-41 66 -109 89 -199 89zM312 813h-75l126 137h70l126 -137h-75l-86 92zM478 950l119 137h80l-121 -137h-78z" />
    <glyph glyph-name="uni1ED2" unicode="&#x1ed2;" horiz-adv-x="796" 
d="M87 377c0 88 10 201 44 263c43 79 130 131 267 131c121 0 196 -33 247 -105c48 -67 64 -189 64 -289c0 -223 -55 -394 -311 -394c-137 0 -214 37 -258 110c-41 67 -53 184 -53 284zM398 711c-223 0 -247 -149 -247 -334c0 -78 9 -190 40 -245c42 -74 119 -89 207 -89
c213 0 247 150 247 334c0 88 -12 187 -48 245c-41 66 -109 89 -199 89zM312 813h-75l126 137h70l126 -137h-75l-86 92zM411 1087h79l116 -137h-77z" />
    <glyph glyph-name="uni1ED4" unicode="&#x1ed4;" horiz-adv-x="796" 
d="M151 377c0 -78 9 -190 40 -245c42 -74 119 -89 207 -89c213 0 247 150 247 334c0 88 -12 187 -48 245c-41 66 -109 89 -199 89c-223 0 -247 -149 -247 -334zM140 93c-41 67 -53 184 -53 284c0 88 10 201 44 263c43 79 130 131 267 131c121 0 196 -33 247 -105
c48 -67 64 -189 64 -289c0 -223 -55 -394 -311 -394c-137 0 -214 37 -258 110zM398 905l-86 -92h-75l126 137h70l126 -137h-75zM596 1028c0 17 -26 28 -56 28c-13 0 -28 -2 -41 -7l-8 -3v45l3 1c20 7 38 13 57 13c51 0 94 -33 94 -77c0 -27 -7 -36 -38 -61
c-10 -8 -21 -12 -29 -22c-6 -7 -7 -7 -7 -20v-5h-47l-1 4c-5 19 -3 22 3 32c12 21 42 38 60 53c7 6 10 10 10 19z" />
    <glyph glyph-name="uni1ED6" unicode="&#x1ed6;" horiz-adv-x="796" 
d="M87 377c0 88 10 201 44 263c43 79 130 131 267 131c121 0 196 -33 247 -105c48 -67 64 -189 64 -289c0 -223 -55 -394 -311 -394c-137 0 -214 37 -258 110c-41 67 -53 184 -53 284zM398 711c-223 0 -247 -149 -247 -334c0 -78 9 -190 40 -245c42 -74 119 -89 207 -89
c213 0 247 150 247 334c0 88 -12 187 -48 245c-41 66 -109 89 -199 89zM214 989c34 87 56 115 114 115c27 0 51 -8 85 -35c27 -21 40 -31 59 -31h3c31 0 41 21 56 56h59c-28 -63 -50 -110 -115 -110c-28 0 -52 7 -80 29c-31 25 -47 37 -67 37c-31 0 -42 -27 -56 -61h-58z
M312 813h-75l126 137h70l126 -137h-75l-86 92z" />
    <glyph glyph-name="uni1ED8" unicode="&#x1ed8;" horiz-adv-x="796" 
d="M87 377c0 88 10 201 44 263c43 79 130 131 267 131c121 0 196 -33 247 -105c48 -67 64 -189 64 -289c0 -223 -55 -394 -311 -394c-137 0 -214 37 -258 110c-41 67 -53 184 -53 284zM398 711c-223 0 -247 -149 -247 -334c0 -78 9 -190 40 -245c42 -74 119 -89 207 -89
c213 0 247 150 247 334c0 88 -12 187 -48 245c-41 66 -109 89 -199 89zM312 820h-75l126 137h70l126 -137h-75l-86 92zM362 -187v132h65v-132h-65z" />
    <glyph glyph-name="uni1EDA" unicode="&#x1eda;" horiz-adv-x="817" 
d="M140 93c-41 67 -53 184 -53 284c0 88 10 201 44 263c43 79 130 131 267 131c110 0 203 -27 260 -126h6c21 0 51 6 59 30l1 100h60v-100c0 -33 -33 -82 -102 -89c20 -64 27 -142 27 -209c0 -223 -55 -394 -311 -394c-137 0 -214 37 -258 110zM398 711
c-223 0 -247 -149 -247 -334c0 -78 9 -190 40 -245c42 -74 119 -89 207 -89c213 0 247 150 247 334c0 88 -12 187 -48 245c-41 66 -109 89 -199 89zM395 843h-78l119 137h80z" />
    <glyph glyph-name="uni1EDC" unicode="&#x1edc;" horiz-adv-x="817" 
d="M140 93c-41 67 -53 184 -53 284c0 88 10 201 44 263c43 79 130 131 267 131c110 0 203 -27 260 -126h6c21 0 51 6 59 30l1 100h60v-100c0 -33 -33 -82 -102 -89c20 -64 27 -142 27 -209c0 -223 -55 -394 -311 -394c-137 0 -214 37 -258 110zM398 711
c-223 0 -247 -149 -247 -334c0 -78 9 -190 40 -245c42 -74 119 -89 207 -89c213 0 247 150 247 334c0 88 -12 187 -48 245c-41 66 -109 89 -199 89zM280 980h79l116 -137h-77z" />
    <glyph glyph-name="uni1EDE" unicode="&#x1ede;" horiz-adv-x="817" 
d="M398 711c-223 0 -247 -149 -247 -334c0 -78 9 -190 40 -245c42 -74 119 -89 207 -89c213 0 247 150 247 334c0 88 -12 187 -48 245c-41 66 -109 89 -199 89zM723 675l1 100h60v-100c0 -33 -33 -82 -102 -89c20 -64 27 -142 27 -209c0 -223 -55 -394 -311 -394
c-137 0 -214 37 -258 110c-41 67 -53 184 -53 284c0 88 10 201 44 263c43 79 130 131 267 131c110 0 203 -27 260 -126h6c21 0 51 6 59 30zM445 950c0 17 -26 28 -56 28c-13 0 -29 -1 -41 -7l-8 -4v46l3 1c20 7 38 13 57 13c51 0 94 -33 94 -77c0 -27 -7 -36 -38 -61
c-10 -8 -20 -13 -28 -22c-6 -7 -8 -7 -8 -20v-5h-47l-1 4c-5 19 -2 21 4 32c11 21 43 36 60 53c6 6 9 10 9 19z" />
    <glyph glyph-name="uni1EE0" unicode="&#x1ee0;" horiz-adv-x="817" 
d="M87 377c0 88 10 201 44 263c43 79 130 131 267 131c110 0 203 -27 260 -126h6c21 0 51 6 59 30l1 100h60v-100c0 -33 -33 -82 -102 -89c20 -64 27 -142 27 -209c0 -223 -55 -394 -311 -394c-137 0 -214 37 -258 110c-41 67 -53 184 -53 284zM398 711
c-223 0 -247 -149 -247 -334c0 -78 9 -190 40 -245c42 -74 119 -89 207 -89c213 0 247 150 247 334c0 88 -12 187 -48 245c-41 66 -109 89 -199 89zM211 852c34 87 56 115 114 115c27 0 51 -8 85 -35c28 -22 41 -31 62 -31c31 0 41 21 56 56h59c-28 -63 -50 -110 -115 -110
c-28 0 -52 7 -80 29c-31 25 -47 37 -67 37c-31 0 -42 -27 -56 -61h-58z" />
    <glyph glyph-name="uni1EE2" unicode="&#x1ee2;" horiz-adv-x="817" 
d="M140 93c-41 67 -53 184 -53 284c0 88 10 201 44 263c43 79 130 131 267 131c110 0 203 -27 260 -126h6c21 0 51 6 59 30l1 100h60v-100c0 -33 -33 -82 -102 -89c20 -64 27 -142 27 -209c0 -223 -55 -394 -311 -394c-137 0 -214 37 -258 110zM398 711
c-223 0 -247 -149 -247 -334c0 -78 9 -190 40 -245c42 -74 119 -89 207 -89c213 0 247 150 247 334c0 88 -12 187 -48 245c-41 66 -109 89 -199 89zM431 -204h-65v132h65v-132z" />
    <glyph glyph-name="uni1EE6" unicode="&#x1ee6;" horiz-adv-x="739" 
d="M99 754h62v-471c0 -169 30 -240 209 -240c180 0 208 71 208 240v471h62v-471c0 -116 -7 -195 -71 -247c-48 -39 -111 -53 -198 -53c-220 0 -272 87 -272 300v471zM398 931c0 17 -26 28 -56 28c-14 0 -28 -1 -41 -7l-9 -4v46l3 1c20 7 38 13 57 13c52 0 95 -33 95 -77
c0 -27 -7 -36 -38 -61c-10 -8 -21 -12 -29 -22c-6 -7 -7 -7 -7 -20v-5h-47l-1 4c-5 19 -3 21 3 32c12 21 42 38 60 53c7 6 10 10 10 19z" />
    <glyph glyph-name="uni1EE8" unicode="&#x1ee8;" horiz-adv-x="787" 
d="M99 283v471h62v-471c0 -169 30 -240 209 -240c180 0 208 71 208 240v471h62v-108h10c21 0 52 7 60 30v100h60v-100c0 -36 -38 -90 -120 -90h-10v-303c0 -116 -7 -195 -71 -247c-48 -39 -111 -53 -198 -53c-220 0 -272 87 -272 300zM415 828h-78l119 137h80z" />
    <glyph glyph-name="uni1EEA" unicode="&#x1eea;" horiz-adv-x="787" 
d="M99 283v471h62v-471c0 -169 30 -240 209 -240c180 0 208 71 208 240v471h62v-108h10c21 0 52 7 60 30v100h60v-100c0 -36 -38 -90 -120 -90h-10v-303c0 -116 -7 -195 -71 -247c-48 -39 -111 -53 -198 -53c-220 0 -272 87 -272 300zM371 823l-118 137h79l116 -137h-77z
" />
    <glyph glyph-name="uni1EEC" unicode="&#x1eec;" horiz-adv-x="787" 
d="M710 676v100h60v-100c0 -36 -38 -90 -120 -90h-10v-303c0 -116 -7 -195 -71 -247c-48 -39 -111 -53 -198 -53c-220 0 -272 87 -272 300v471h62v-471c0 -169 30 -240 209 -240c180 0 208 71 208 240v471h62v-108h10c21 0 52 7 60 30zM409 940c0 17 -26 28 -56 28
c-14 0 -28 -1 -41 -7l-9 -4v46l3 1c20 7 38 13 57 13c52 0 95 -33 95 -77c0 -27 -7 -36 -38 -61c-10 -8 -21 -12 -29 -22c-6 -7 -7 -7 -7 -20v-5h-47l-1 4c-5 19 -3 21 3 32c12 21 42 38 60 53c7 6 10 10 10 19z" />
    <glyph glyph-name="uni1EEE" unicode="&#x1eee;" horiz-adv-x="787" 
d="M99 283v471h62v-471c0 -169 30 -240 209 -240c180 0 208 71 208 240v471h62v-108h10c21 0 52 7 60 30v100h60v-100c0 -36 -38 -90 -120 -90h-10v-303c0 -116 -7 -195 -71 -247c-48 -39 -111 -53 -198 -53c-220 0 -272 87 -272 300zM194 855c34 87 56 115 114 115
c27 0 50 -8 85 -35c28 -22 41 -31 62 -31c31 0 41 21 56 56h59c-28 -63 -50 -110 -115 -110c-28 0 -52 8 -80 29c-31 24 -47 37 -67 37c-31 0 -42 -27 -56 -61h-58z" />
    <glyph glyph-name="uni1EF0" unicode="&#x1ef0;" horiz-adv-x="787" 
d="M99 283v471h62v-471c0 -169 30 -240 209 -240c180 0 208 71 208 240v471h62v-108h10c21 0 52 7 60 30v100h60v-100c0 -36 -38 -90 -120 -90h-10v-303c0 -116 -7 -195 -71 -247c-48 -39 -111 -53 -198 -53c-220 0 -272 87 -272 300zM414 -204h-65v132h65v-132z" />
    <glyph glyph-name="uni1EF4" unicode="&#x1ef4;" horiz-adv-x="606" 
d="M271 289l-279 465h75l237 -396l238 396h72l-279 -465v-289h-64v289zM336 -204h-65v132h65v-132z" />
    <glyph glyph-name="uni1EF6" unicode="&#x1ef6;" horiz-adv-x="606" 
d="M271 289l-279 465h75l237 -396l238 396h72l-279 -465v-289h-64v289zM333 936c0 17 -26 28 -56 28c-13 0 -29 -1 -41 -7l-8 -4v46l3 1c20 7 38 13 57 13c51 0 94 -33 94 -77c0 -27 -7 -36 -38 -61c-10 -8 -20 -13 -28 -22c-6 -7 -8 -7 -8 -20v-5h-47l-1 4
c-5 19 -2 21 4 32c11 21 43 36 60 53c6 6 9 10 9 19z" />
    <glyph glyph-name="uni1EA3" unicode="&#x1ea3;" 
d="M125 266c0 -63 7 -130 22 -163c19 -42 46 -62 95 -62c33 0 66 18 102 46c31 24 65 53 90 75v289c-49 18 -98 36 -148 36c-65 0 -105 -17 -131 -63c-21 -37 -30 -97 -30 -158zM63 266c0 158 43 279 223 279c64 0 131 -25 209 -54v-491h-61v89c-51 -46 -121 -106 -192 -106
c-163 0 -179 155 -179 283zM317 724c0 17 -26 28 -56 28c-13 0 -29 -1 -41 -7l-8 -4v46l3 1c20 7 38 13 57 13c51 0 94 -33 94 -77c0 -27 -7 -36 -38 -61c-10 -8 -20 -13 -28 -22c-6 -7 -8 -7 -8 -20v-5h-47l-1 4c-5 19 -2 21 4 32c11 21 43 36 60 53c6 6 9 10 9 19z" />
    <glyph glyph-name="uni1EA5" unicode="&#x1ea5;" 
d="M63 266c0 158 43 279 223 279c64 0 131 -25 209 -54v-491h-61v89c-51 -46 -121 -106 -192 -106c-163 0 -179 155 -179 283zM125 266c0 -63 7 -130 22 -163c19 -42 46 -62 95 -62c33 0 66 18 102 46c31 24 65 53 90 75v289c-49 18 -98 36 -148 36c-65 0 -105 -17 -131 -63
c-21 -37 -30 -97 -30 -158zM209 617h-75l126 137h70l126 -137h-75l-86 92zM389 754l119 137h80l-121 -137h-78z" />
    <glyph glyph-name="uni1EA7" unicode="&#x1ea7;" 
d="M242 -17c-163 0 -179 154 -179 283c0 158 43 279 223 279c64 0 131 -25 209 -54v-491h-61v89c-51 -46 -121 -106 -192 -106zM125 266c0 -63 7 -130 22 -163c19 -42 46 -62 95 -62c33 0 66 18 102 46c31 24 65 53 90 75v289c-49 18 -98 36 -148 36
c-65 0 -105 -17 -131 -63c-21 -37 -30 -97 -30 -158zM134 617l126 137h70l126 -137h-75l-86 92l-86 -92h-75zM308 891h79l116 -137h-77z" />
    <glyph glyph-name="uni1EA9" unicode="&#x1ea9;" 
d="M125 266c0 -63 7 -130 22 -163c19 -42 46 -62 95 -62c33 0 66 18 102 46c31 24 65 53 90 75v289c-49 18 -98 36 -148 36c-65 0 -105 -17 -131 -63c-21 -37 -30 -97 -30 -158zM242 -17c-163 0 -179 154 -179 283c0 158 43 279 223 279c64 0 131 -25 209 -54v-491h-61v89
c-51 -46 -121 -106 -192 -106zM209 617h-75l126 137h70l126 -137h-75l-86 92zM499 836c0 17 -26 28 -56 28c-14 0 -28 -3 -41 -7l-9 -3v45l3 1c20 7 38 13 57 13c52 0 95 -33 95 -77c0 -27 -7 -37 -38 -61c-10 -8 -21 -12 -29 -22c-6 -7 -7 -7 -7 -20v-5h-48v4
c0 19 -3 21 3 32c11 21 42 38 60 53c7 6 10 10 10 19z" />
    <glyph glyph-name="uni1EAB" unicode="&#x1eab;" 
d="M242 -17c-163 0 -179 154 -179 283c0 158 43 279 223 279c64 0 131 -25 209 -54v-491h-61v89c-51 -46 -121 -106 -192 -106zM125 266c0 -63 7 -130 22 -163c19 -42 46 -62 95 -62c33 0 66 18 102 46c31 24 65 53 90 75v289c-49 18 -98 36 -148 36
c-65 0 -105 -17 -131 -63c-21 -37 -30 -97 -30 -158zM110 789c34 87 56 115 114 115c27 0 51 -9 85 -35c27 -21 40 -31 59 -31h3c31 0 41 21 56 56h59c-28 -63 -50 -110 -115 -110c-28 0 -51 7 -80 29c-31 24 -47 37 -67 37c-31 0 -42 -27 -56 -61h-58zM209 617h-75l126 137
h70l126 -137h-75l-86 92z" />
    <glyph glyph-name="uni1EAD" unicode="&#x1ead;" 
d="M63 266c0 158 43 279 223 279c64 0 131 -25 209 -54v-491h-61v89c-51 -46 -121 -106 -192 -106c-163 0 -179 155 -179 283zM125 266c0 -63 7 -130 22 -163c19 -42 46 -62 95 -62c33 0 66 18 102 46c31 24 65 53 90 75v289c-49 18 -98 36 -148 36c-65 0 -105 -17 -131 -63
c-21 -37 -30 -97 -30 -158zM203 617h-75l126 137h70l126 -137h-75l-86 92zM245 -60h65v-132h-65v132z" />
    <glyph glyph-name="uni1EAF" unicode="&#x1eaf;" 
d="M242 -17c-163 0 -179 154 -179 283c0 158 43 279 223 279c64 0 131 -25 209 -54v-491h-61v89c-51 -46 -121 -106 -192 -106zM125 266c0 -63 7 -130 22 -163c19 -42 46 -62 95 -62c33 0 66 18 102 46c31 24 65 53 90 75v289c-49 18 -98 36 -148 36
c-65 0 -105 -17 -131 -63c-21 -37 -30 -97 -30 -158zM287 613c-93 0 -130 58 -152 141h61c16 -51 30 -90 91 -90c57 0 78 41 91 90h61c-24 -82 -59 -141 -152 -141zM229 773l119 137h80l-121 -137h-78z" />
    <glyph glyph-name="uni1EB1" unicode="&#x1eb1;" 
d="M63 266c0 158 43 279 223 279c64 0 131 -25 209 -54v-491h-61v89c-51 -46 -121 -106 -192 -106c-163 0 -179 155 -179 283zM155 424c-21 -37 -30 -97 -30 -158c0 -63 7 -130 22 -163c19 -42 46 -62 95 -62c33 0 66 18 102 46c31 24 65 53 90 75v289
c-49 18 -98 36 -148 36c-65 0 -105 -17 -131 -63zM287 613c-93 0 -130 58 -152 141h61c16 -51 30 -90 91 -90c57 0 78 41 91 90h61c-24 -82 -59 -141 -152 -141zM153 910h79l116 -137h-77z" />
    <glyph glyph-name="uni1EB3" unicode="&#x1eb3;" 
d="M155 424c-21 -37 -30 -97 -30 -158c0 -63 7 -130 22 -163c19 -42 46 -62 95 -62c33 0 66 18 102 46c31 24 65 53 90 75v289c-49 18 -98 36 -148 36c-65 0 -105 -17 -131 -63zM63 266c0 158 43 279 223 279c64 0 131 -25 209 -54v-491h-61v89c-51 -46 -121 -106 -192 -106
c-163 0 -179 155 -179 283zM287 613c-93 0 -130 58 -152 141h61c16 -51 30 -90 91 -90c57 0 78 41 91 90h61c-24 -82 -59 -141 -152 -141zM330 880c0 17 -26 28 -56 28c-14 0 -28 -3 -41 -7l-9 -3v45l3 1c20 7 38 13 57 13c52 0 95 -33 95 -77c0 -27 -6 -38 -38 -61
c-11 -8 -21 -12 -29 -22c-6 -7 -7 -7 -7 -20v-5h-48v4c0 19 -3 21 3 32c11 21 42 38 60 53c7 6 10 11 10 19z" />
    <glyph glyph-name="uni1EB5" unicode="&#x1eb5;" 
d="M242 -17c-163 0 -179 154 -179 283c0 158 43 279 223 279c64 0 131 -25 209 -54v-491h-61v89c-51 -46 -121 -106 -192 -106zM155 424c-21 -37 -30 -97 -30 -158c0 -63 7 -130 22 -163c19 -42 46 -62 95 -62c33 0 66 18 102 46c31 24 65 53 90 75v289
c-49 18 -98 36 -148 36c-65 0 -105 -17 -131 -63zM113 794c34 87 56 115 114 115c27 0 51 -8 85 -35c28 -22 41 -31 62 -31c31 0 41 21 56 56h59c-28 -63 -50 -110 -115 -110c-28 0 -52 7 -80 29c-31 25 -47 37 -67 37c-31 0 -42 -27 -56 -61h-58zM287 613
c-93 0 -130 58 -152 141h61c16 -51 30 -90 91 -90c57 0 78 41 91 90h61c-24 -82 -59 -141 -152 -141z" />
    <glyph glyph-name="uni1EB7" unicode="&#x1eb7;" 
d="M63 266c0 158 43 279 223 279c64 0 131 -25 209 -54v-491h-61v89c-51 -46 -121 -106 -192 -106c-163 0 -179 155 -179 283zM125 266c0 -63 7 -130 22 -163c19 -42 46 -62 95 -62c33 0 66 18 102 46c31 24 65 53 90 75v289c-49 18 -98 36 -148 36c-65 0 -105 -17 -131 -63
c-21 -37 -30 -97 -30 -158zM289 613c-93 0 -130 58 -152 141h61c16 -51 30 -90 91 -90c57 0 78 41 91 90h61c-24 -82 -59 -141 -152 -141zM310 -192h-65v132h65v-132z" />
    <glyph glyph-name="uni1ECF" unicode="&#x1ecf;" 
d="M289 487c-145 0 -164 -105 -164 -225c0 -62 10 -124 30 -159c28 -49 70 -62 134 -62c63 0 107 18 132 60c22 37 32 100 32 166c0 121 -21 220 -164 220zM106 64c-28 42 -43 121 -43 196c0 158 38 285 226 285c184 0 226 -118 226 -281c0 -158 -43 -281 -226 -281
c-95 0 -146 26 -183 81zM317 724c0 17 -26 28 -56 28c-13 0 -29 -1 -41 -7l-8 -4v46l3 1c20 7 38 13 57 13c51 0 94 -33 94 -77c0 -27 -7 -36 -38 -61c-10 -8 -20 -13 -28 -22c-6 -7 -8 -7 -8 -20v-5h-47l-1 4c-5 19 -2 21 4 32c11 21 43 36 60 53c6 6 9 10 9 19z" />
    <glyph glyph-name="uni1ED1" unicode="&#x1ed1;" 
d="M63 260c0 158 38 285 226 285c184 0 226 -118 226 -281c0 -158 -43 -281 -226 -281c-95 0 -146 26 -183 81c-28 42 -43 121 -43 196zM289 487c-145 0 -164 -105 -164 -225c0 -62 10 -124 30 -159c28 -49 70 -62 134 -62c63 0 107 18 132 60c22 37 32 100 32 166
c0 121 -21 220 -164 220zM128 617l126 137h70l126 -137h-75l-86 92l-86 -92h-75zM389 754l119 137h80l-121 -137h-78z" />
    <glyph glyph-name="uni1ED3" unicode="&#x1ed3;" 
d="M63 260c0 158 38 285 226 285c184 0 226 -118 226 -281c0 -158 -43 -281 -226 -281c-95 0 -146 26 -183 81c-28 42 -43 121 -43 196zM289 487c-145 0 -164 -105 -164 -225c0 -62 10 -124 30 -159c28 -49 70 -62 134 -62c63 0 107 18 132 60c22 37 32 100 32 166
c0 121 -21 220 -164 220zM128 617l126 137h70l126 -137h-75l-86 92l-86 -92h-75zM410 754l-118 137h79l116 -137h-77z" />
    <glyph glyph-name="uni1ED5" unicode="&#x1ed5;" 
d="M125 262c0 -62 10 -124 30 -159c28 -49 70 -62 134 -62c63 0 107 18 132 60c22 37 32 100 32 166c0 121 -21 220 -164 220c-145 0 -164 -105 -164 -225zM106 64c-28 42 -43 121 -43 196c0 158 38 285 226 285c184 0 226 -118 226 -281c0 -158 -43 -281 -226 -281
c-95 0 -146 26 -183 81zM289 709l-86 -92h-75l126 137h70l126 -137h-75zM491 836c0 17 -26 28 -56 28c-14 0 -28 -3 -41 -7l-9 -3v45l3 1c20 7 38 13 57 13c52 0 95 -33 95 -77c0 -27 -7 -37 -38 -61c-10 -8 -21 -12 -29 -22c-6 -7 -7 -7 -7 -20v-5h-47l-1 4
c-5 19 -3 21 3 32c11 21 42 38 60 53c7 6 10 10 10 19z" />
    <glyph glyph-name="uni1ED7" unicode="&#x1ed7;" 
d="M106 64c-28 42 -43 121 -43 196c0 158 38 285 226 285c184 0 226 -118 226 -281c0 -158 -43 -281 -226 -281c-95 0 -146 26 -183 81zM289 487c-145 0 -164 -105 -164 -225c0 -62 10 -124 30 -159c28 -49 70 -62 134 -62c63 0 107 18 132 60c22 37 32 100 32 166
c0 121 -21 220 -164 220zM104 794c34 87 56 115 114 115c27 0 51 -9 85 -35c27 -21 40 -31 59 -31h3c31 0 41 21 56 56h59c-28 -63 -50 -110 -115 -110c-28 0 -51 7 -80 29c-31 24 -47 37 -67 37c-31 0 -42 -27 -56 -61h-58zM203 617h-75l126 137h70l126 -137h-75l-86 92z
" />
    <glyph glyph-name="uni1ED9" unicode="&#x1ed9;" 
d="M63 260c0 158 38 285 226 285c184 0 226 -118 226 -281c0 -158 -43 -281 -226 -281c-95 0 -146 26 -183 81c-28 42 -43 121 -43 196zM125 262c0 -62 10 -124 30 -159c28 -49 70 -62 134 -62c63 0 107 18 132 60c22 37 32 100 32 166c0 121 -21 220 -164 220
c-145 0 -164 -105 -164 -225zM203 617h-75l126 137h70l126 -137h-75l-86 92zM320 -187h-65v132h65v-132z" />
    <glyph glyph-name="uni1EDB" unicode="&#x1edb;" horiz-adv-x="596" 
d="M106 64c-28 42 -43 121 -43 196c0 158 38 285 226 285c90 0 169 -30 202 -118c21 1 46 8 53 29v101h60v-100c0 -33 -31 -80 -97 -89c6 -34 8 -70 8 -104c0 -158 -43 -281 -226 -281c-95 0 -146 26 -183 81zM289 487c-145 0 -164 -105 -164 -225c0 -62 10 -124 30 -159
c28 -49 70 -62 134 -62c63 0 107 18 132 60c22 37 32 100 32 166c0 121 -21 220 -164 220zM233 617l119 137h80l-121 -137h-78z" />
    <glyph glyph-name="uni1EDD" unicode="&#x1edd;" horiz-adv-x="596" 
d="M106 64c-28 42 -43 121 -43 196c0 158 38 285 226 285c90 0 169 -30 202 -118c21 1 46 8 53 29v101h60v-100c0 -33 -31 -80 -97 -89c6 -34 8 -70 8 -104c0 -158 -43 -281 -226 -281c-95 0 -146 26 -183 81zM289 487c-145 0 -164 -105 -164 -225c0 -62 10 -124 30 -159
c28 -49 70 -62 134 -62c63 0 107 18 132 60c22 37 32 100 32 166c0 121 -21 220 -164 220zM176 754h79l116 -137h-77z" />
    <glyph glyph-name="uni1EDF" unicode="&#x1edf;" horiz-adv-x="596" 
d="M289 487c-145 0 -164 -105 -164 -225c0 -62 10 -124 30 -159c28 -49 70 -62 134 -62c63 0 107 18 132 60c22 37 32 100 32 166c0 121 -21 220 -164 220zM544 456v101h60v-100c0 -33 -31 -80 -97 -89c6 -34 8 -70 8 -104c0 -158 -43 -281 -226 -281c-95 0 -146 26 -183 81
c-28 42 -43 121 -43 196c0 158 38 285 226 285c90 0 169 -30 202 -118c21 1 46 8 53 29zM326 724c0 17 -26 28 -56 28c-13 0 -29 -1 -41 -7l-8 -4v46l3 1c20 7 38 13 57 13c51 0 94 -33 94 -77c0 -27 -7 -36 -38 -61c-10 -8 -20 -13 -28 -22c-6 -7 -8 -7 -8 -20v-5h-47l-1 4
c-5 19 -2 21 4 32c11 21 43 36 60 53c6 6 9 10 9 19z" />
    <glyph glyph-name="uni1EE1" unicode="&#x1ee1;" horiz-adv-x="596" 
d="M106 64c-28 42 -43 121 -43 196c0 158 38 285 226 285c90 0 169 -30 202 -118c21 1 46 8 53 29v101h60v-100c0 -33 -31 -80 -97 -89c6 -34 8 -70 8 -104c0 -158 -43 -281 -226 -281c-95 0 -146 26 -183 81zM125 262c0 -62 10 -124 30 -159c28 -49 70 -62 134 -62
c63 0 107 18 132 60c22 37 32 100 32 166c0 121 -21 220 -164 220c-145 0 -164 -105 -164 -225zM110 629c34 87 56 115 114 115c27 0 51 -8 85 -35c28 -22 41 -31 62 -31c31 0 41 21 56 56h59c-28 -63 -50 -110 -115 -110c-28 0 -52 7 -80 29c-31 25 -47 37 -67 37
c-31 0 -42 -27 -56 -61h-58z" />
    <glyph glyph-name="uni1EE3" unicode="&#x1ee3;" horiz-adv-x="596" 
d="M106 64c-28 42 -43 121 -43 196c0 158 38 285 226 285c90 0 169 -30 202 -118c21 1 46 8 53 29v101h60v-100c0 -33 -31 -80 -97 -89c6 -34 8 -70 8 -104c0 -158 -43 -281 -226 -281c-95 0 -146 26 -183 81zM289 487c-145 0 -164 -105 -164 -225c0 -62 10 -124 30 -159
c28 -49 70 -62 134 -62c63 0 107 18 132 60c22 37 32 100 32 166c0 121 -21 220 -164 220zM331 -204h-65v132h65v-132z" />
    <glyph glyph-name="uni1EE7" unicode="&#x1ee7;" horiz-adv-x="571" 
d="M82 528h61v-328c0 -97 2 -159 115 -159c76 0 126 15 169 28v459h61v-503c-82 -23 -150 -42 -230 -42c-157 0 -176 78 -176 217v328zM314 724c0 17 -26 28 -56 28c-14 0 -28 -1 -41 -7l-9 -4v46l3 1c20 7 38 13 57 13c52 0 95 -33 95 -77c0 -27 -7 -36 -38 -61
c-10 -8 -21 -12 -29 -22c-6 -7 -7 -7 -7 -20v-5h-47l-1 4c-5 19 -3 21 3 32c12 21 42 38 60 53c7 6 10 10 10 19z" />
    <glyph glyph-name="uni1EE9" unicode="&#x1ee9;" horiz-adv-x="604" 
d="M82 528h61v-328c0 -97 2 -159 115 -159c76 0 126 15 169 28v459h61v-101h11c21 0 52 6 60 29v101h60v-100c0 -36 -38 -90 -120 -90h-11v-342c-82 -23 -150 -42 -230 -42c-157 0 -176 78 -176 217v328zM203 617l119 137h80l-121 -137h-78z" />
    <glyph glyph-name="uni1EEB" unicode="&#x1eeb;" horiz-adv-x="604" 
d="M82 200v328h61v-328c0 -97 2 -159 115 -159c76 0 126 15 169 28v459h61v-101h11c21 0 52 6 60 29v101h60v-100c0 -36 -38 -90 -120 -90h-11v-342c-82 -23 -150 -42 -230 -42c-157 0 -176 78 -176 217zM205 754h79l116 -137h-77z" />
    <glyph glyph-name="uni1EED" unicode="&#x1eed;" horiz-adv-x="604" 
d="M559 456v101h60v-100c0 -36 -38 -90 -120 -90h-11v-342c-82 -23 -150 -42 -230 -42c-157 0 -176 78 -176 217v328h61v-328c0 -97 2 -159 115 -159c76 0 126 15 169 28v459h61v-101h11c21 0 52 6 60 29zM330 724c0 17 -26 28 -56 28c-13 0 -29 -1 -41 -7l-8 -4v46l3 1
c20 7 38 13 57 13c51 0 94 -33 94 -77c0 -27 -7 -36 -38 -61c-10 -8 -20 -13 -28 -22c-6 -7 -8 -7 -8 -20v-5h-47l-1 4c-5 19 -2 21 4 32c11 21 43 36 60 53c6 6 9 10 9 19z" />
    <glyph glyph-name="uni1EEF" unicode="&#x1eef;" horiz-adv-x="604" 
d="M82 528h61v-328c0 -97 2 -159 115 -159c76 0 126 15 169 28v459h61v-101h11c21 0 52 6 60 29v101h60v-100c0 -36 -38 -90 -120 -90h-11v-342c-82 -23 -150 -42 -230 -42c-157 0 -176 78 -176 217v328zM172 629h-58c34 87 56 115 114 115c27 0 51 -8 85 -35
c28 -22 41 -31 62 -31c31 0 41 21 56 56h59c-28 -63 -50 -110 -115 -110c-28 0 -52 7 -80 29c-31 25 -47 37 -67 37c-31 0 -42 -27 -56 -61z" />
    <glyph glyph-name="uni1EF1" unicode="&#x1ef1;" horiz-adv-x="604" 
d="M82 200v328h61v-328c0 -97 2 -159 115 -159c76 0 126 15 169 28v459h61v-101h11c21 0 52 6 60 29v101h60v-100c0 -36 -38 -90 -120 -90h-11v-342c-82 -23 -150 -42 -230 -42c-157 0 -176 78 -176 217zM270 -204v132h65v-132h-65z" />
    <glyph glyph-name="uni1EF5" unicode="&#x1ef5;" horiz-adv-x="507" 
d="M11 528h67l175 -439l176 439h67l-290 -720h-66l80 199zM302 -204v132h65v-132h-65z" />
    <glyph glyph-name="uni1EF7" unicode="&#x1ef7;" horiz-adv-x="507" 
d="M11 528h67l175 -439l176 439h67l-290 -720h-66l80 199zM282 724c0 17 -26 28 -56 28c-14 0 -28 -1 -41 -7l-9 -4v46l3 1c20 7 38 13 57 13c52 0 95 -33 95 -77c0 -27 -7 -36 -38 -61c-10 -8 -21 -12 -29 -22c-6 -7 -7 -7 -7 -20v-5h-47l-1 4c-5 19 -3 21 3 32
c12 21 42 38 60 53c7 6 10 10 10 19z" />
    <glyph glyph-name="uni1EBB" unicode="&#x1ebb;" horiz-adv-x="559" 
d="M289 487c-129 0 -164 -82 -164 -197h308c2 15 4 32 4 52c0 96 -48 145 -148 145zM302 -17c-199 0 -239 102 -239 279c0 160 39 283 226 283c140 0 210 -73 210 -207c0 -25 -3 -66 -10 -102h-364c0 -129 37 -195 177 -195c60 0 128 13 170 21v-59
c-40 -8 -118 -20 -170 -20zM308 724c0 17 -26 28 -56 28c-14 0 -28 -1 -41 -7l-9 -4v46l3 1c20 7 38 13 57 13c52 0 95 -33 95 -77c0 -27 -7 -36 -38 -61c-10 -8 -21 -12 -29 -22c-6 -7 -7 -7 -7 -20v-5h-47l-1 4c-5 19 -3 21 3 32c12 21 42 38 60 53c7 6 10 10 10 19z" />
    <glyph glyph-name="uni1EBF" unicode="&#x1ebf;" horiz-adv-x="559" 
d="M302 -17c-199 0 -239 102 -239 279c0 160 39 283 226 283c140 0 210 -73 210 -207c0 -25 -3 -66 -10 -102h-364c0 -129 37 -195 177 -195c60 0 128 13 170 21v-59c-40 -8 -118 -20 -170 -20zM125 290h308c2 15 4 32 4 52c0 96 -48 145 -148 145
c-129 0 -164 -82 -164 -197zM201 617h-75l126 137h70l126 -137h-75l-86 92zM384 754l119 137h80l-121 -137h-78z" />
    <glyph glyph-name="uni1EC1" unicode="&#x1ec1;" horiz-adv-x="559" 
d="M302 -17c-199 0 -239 102 -239 279c0 160 39 283 226 283c140 0 210 -73 210 -207c0 -25 -3 -66 -10 -102h-364c0 -129 37 -195 177 -195c60 0 128 13 170 21v-59c-40 -8 -118 -20 -170 -20zM289 487c-129 0 -164 -82 -164 -197h308c2 15 4 32 4 52
c0 96 -48 145 -148 145zM201 617h-75l126 137h70l126 -137h-75l-86 92zM302 891h79l116 -137h-77z" />
    <glyph glyph-name="uni1EC3" unicode="&#x1ec3;" horiz-adv-x="559" 
d="M302 -17c-199 0 -239 102 -239 279c0 160 39 283 226 283c140 0 210 -73 210 -207c0 -25 -3 -66 -10 -102h-364c0 -129 37 -195 177 -195c60 0 128 13 170 21v-59c-40 -8 -118 -20 -170 -20zM125 290h308c2 15 4 32 4 52c0 96 -48 145 -148 145
c-129 0 -164 -82 -164 -197zM201 617h-75l126 137h70l126 -137h-75l-86 92zM366 900l2 1c19 10 39 14 57 14c52 0 95 -34 95 -78c0 -27 -7 -36 -38 -61c-10 -8 -21 -12 -29 -22c-6 -7 -7 -7 -7 -20v-5h-47l-1 4c-5 19 -2 21 3 32c11 22 42 38 60 53c7 6 10 10 10 19
c0 17 -26 28 -56 28c-13 0 -28 -2 -41 -7l-8 -3v45z" />
    <glyph glyph-name="uni1EC5" unicode="&#x1ec5;" horiz-adv-x="559" 
d="M63 262c0 160 39 283 226 283c140 0 210 -73 210 -207c0 -25 -3 -66 -10 -102h-364c0 -129 37 -195 177 -195c60 0 128 13 170 21v-59c-40 -8 -118 -20 -170 -20c-199 0 -239 102 -239 279zM289 487c-129 0 -164 -82 -164 -197h308c2 15 4 32 4 52c0 96 -48 145 -148 145
zM98 795c34 87 56 114 114 115c27 0 51 -8 85 -35c28 -22 41 -31 62 -31c31 0 41 21 56 56h59c-28 -63 -50 -111 -115 -110c-28 0 -52 7 -80 29c-31 25 -47 37 -67 37c-31 0 -42 -27 -56 -61h-58zM126 617l126 137h70l126 -137h-75l-86 92l-86 -92h-75z" />
    <glyph glyph-name="uni1EC7" unicode="&#x1ec7;" horiz-adv-x="559" 
d="M302 -17c-199 0 -239 102 -239 279c0 160 39 283 226 283c140 0 210 -73 210 -207c0 -25 -3 -66 -10 -102h-364c0 -129 37 -195 177 -195c60 0 128 13 170 21v-59c-40 -8 -118 -20 -170 -20zM289 487c-129 0 -164 -82 -164 -197h308c2 15 4 32 4 52
c0 96 -48 145 -148 145zM194 617h-75l126 137h70l126 -137h-75l-86 92zM246 -60h65v-132h-65v132z" />
    <glyph glyph-name="uni1EC9" unicode="&#x1ec9;" horiz-adv-x="227" 
d="M144 0h-61v528h61v-528zM142 724c0 17 -26 28 -56 28c-14 0 -28 -1 -41 -7l-9 -4v46l3 1c20 7 38 13 57 13c52 0 95 -33 95 -77c0 -27 -7 -36 -38 -61c-10 -8 -21 -12 -29 -22c-6 -7 -7 -7 -7 -20v-5h-47l-1 4c-5 19 -3 21 3 32c12 21 42 38 60 53c7 6 10 10 10 19z" />
    </font>
</defs>
</svg>
